<?xml version="1.0" encoding="UTF-8"?>
<svg xmlns="http://www.w3.org/2000/svg" xmlns:xlink="http://www.w3.org/1999/xlink"
     width="922" height="325" viewBox="0 0 922 325">
<defs>
</defs>
<svg id="0" fill="grey" stroke="black">
<path d="M 118 0 L 117 1 L 111 1 L 110 2 L 106 2 L 105 3 L 102 3 L 101 4 L 98 4 L 97 5 L 95 5 L 94 6 L 92 6 L 91 7 L 89 7 L 88 8 L 87 8 L 86 9 L 84 9 L 83 10 L 82 10 L 81 11 L 80 11 L 79 12 L 78 12 L 77 13 L 76 13 L 75 14 L 74 14 L 73 15 L 72 15 L 71 16 L 70 16 L 69 17 L 68 17 L 66 19 L 65 19 L 63 21 L 62 21 L 60 23 L 59 23 L 57 25 L 56 25 L 52 29 L 51 29 L 36 44 L 36 45 L 33 48 L 33 49 L 30 52 L 30 53 L 28 55 L 28 56 L 26 58 L 26 59 L 25 60 L 25 61 L 24 62 L 24 63 L 22 65 L 22 66 L 21 67 L 21 68 L 20 69 L 20 70 L 19 71 L 19 72 L 18 73 L 18 75 L 17 76 L 17 77 L 16 78 L 16 79 L 15 80 L 15 82 L 14 83 L 14 85 L 13 86 L 13 88 L 12 89 L 12 92 L 11 93 L 11 95 L 10 96 L 10 100 L 9 101 L 9 105 L 8 106 L 8 114 L 7 115 L 7 134 L 8 135 L 8 143 L 9 144 L 9 148 L 10 149 L 10 153 L 11 154 L 11 156 L 12 157 L 12 160 L 13 161 L 13 163 L 14 164 L 14 166 L 15 167 L 15 168 L 16 169 L 15 170 L 2 170 L 0 172 L 0 323 L 1 324 L 921 324 L 921 171 L 920 170 L 908 170 L 907 169 L 907 167 L 908 166 L 908 165 L 909 164 L 909 161 L 910 160 L 910 158 L 911 157 L 911 153 L 912 152 L 912 148 L 913 147 L 913 142 L 914 141 L 914 108 L 913 107 L 913 102 L 912 101 L 912 97 L 911 96 L 911 92 L 910 91 L 910 89 L 909 88 L 909 85 L 908 84 L 908 83 L 907 82 L 907 80 L 906 79 L 906 77 L 905 76 L 905 75 L 904 74 L 904 73 L 903 72 L 903 70 L 902 69 L 902 68 L 901 67 L 901 66 L 900 65 L 900 64 L 898 62 L 898 61 L 897 60 L 897 59 L 895 57 L 895 56 L 893 54 L 893 53 L 891 51 L 891 50 L 888 47 L 888 46 L 883 41 L 883 40 L 875 32 L 874 32 L 869 27 L 868 27 L 865 24 L 864 24 L 862 22 L 861 22 L 859 20 L 858 20 L 856 18 L 855 18 L 854 17 L 853 17 L 851 15 L 850 15 L 849 14 L 848 14 L 847 13 L 846 13 L 845 12 L 844 12 L 843 11 L 841 11 L 840 10 L 839 10 L 838 9 L 837 9 L 836 8 L 834 8 L 833 7 L 831 7 L 830 6 L 829 6 L 828 5 L 825 5 L 824 4 L 822 4 L 821 3 L 817 3 L 816 2 L 812 2 L 811 1 L 806 1 L 805 0 L 776 0 L 775 1 L 770 1 L 769 2 L 765 2 L 764 3 L 760 3 L 759 4 L 757 4 L 756 5 L 753 5 L 752 6 L 751 6 L 750 7 L 748 7 L 747 8 L 745 8 L 744 9 L 743 9 L 742 10 L 741 10 L 740 11 L 738 11 L 737 12 L 736 12 L 735 13 L 734 13 L 733 14 L 732 14 L 731 15 L 730 15 L 728 17 L 727 17 L 726 18 L 725 18 L 723 20 L 722 20 L 720 22 L 719 22 L 717 24 L 716 24 L 713 27 L 712 27 L 707 32 L 706 32 L 698 40 L 698 41 L 693 46 L 693 47 L 690 50 L 690 51 L 688 53 L 688 54 L 686 56 L 686 57 L 684 59 L 684 60 L 683 61 L 240 61 L 238 59 L 238 58 L 236 56 L 236 55 L 234 53 L 234 52 L 231 49 L 231 48 L 228 45 L 228 44 L 213 29 L 212 29 L 208 25 L 207 25 L 205 23 L 204 23 L 202 21 L 201 21 L 199 19 L 198 19 L 196 17 L 195 17 L 194 16 L 193 16 L 192 15 L 191 15 L 190 14 L 189 14 L 188 13 L 187 13 L 186 12 L 185 12 L 184 11 L 183 11 L 182 10 L 181 10 L 180 9 L 178 9 L 177 8 L 176 8 L 175 7 L 173 7 L 172 6 L 170 6 L 169 5 L 167 5 L 166 4 L 163 4 L 162 3 L 159 3 L 158 2 L 154 2 L 153 1 L 147 1 L 146 0 z" />
<path d="M 117 1 L 118 0 L 146 0 L 147 1 L 153 1 L 154 2 L 158 2 L 159 3 L 162 3 L 163 4 L 166 4 L 167 5 L 169 5 L 170 6 L 172 6 L 173 7 L 175 7 L 176 8 L 177 8 L 178 9 L 180 9 L 181 10 L 182 10 L 183 11 L 184 11 L 185 12 L 186 12 L 187 13 L 188 13 L 189 14 L 190 14 L 191 15 L 192 15 L 193 16 L 194 16 L 196 18 L 197 18 L 199 20 L 200 20 L 202 22 L 203 22 L 205 24 L 206 24 L 210 28 L 211 28 L 229 46 L 229 47 L 232 50 L 232 51 L 235 54 L 235 55 L 237 57 L 237 58 L 239 60 L 239 61 L 683 61 L 685 59 L 685 58 L 687 56 L 687 55 L 689 53 L 689 52 L 692 49 L 692 48 L 697 43 L 697 42 L 708 31 L 709 31 L 714 26 L 715 26 L 718 23 L 719 23 L 721 21 L 722 21 L 724 19 L 725 19 L 727 17 L 728 17 L 729 16 L 730 16 L 732 14 L 733 14 L 734 13 L 735 13 L 736 12 L 737 12 L 738 11 L 740 11 L 741 10 L 742 10 L 743 9 L 744 9 L 745 8 L 747 8 L 748 7 L 750 7 L 751 6 L 752 6 L 753 5 L 756 5 L 757 4 L 759 4 L 760 3 L 764 3 L 765 2 L 769 2 L 770 1 L 775 1 L 776 0 L 805 0 L 806 1 L 811 1 L 812 2 L 816 2 L 817 3 L 821 3 L 822 4 L 824 4 L 825 5 L 828 5 L 829 6 L 830 6 L 831 7 L 833 7 L 834 8 L 836 8 L 837 9 L 838 9 L 839 10 L 840 10 L 841 11 L 843 11 L 844 12 L 845 12 L 846 13 L 847 13 L 848 14 L 849 14 L 851 16 L 852 16 L 853 17 L 854 17 L 856 19 L 857 19 L 859 21 L 860 21 L 862 23 L 863 23 L 866 26 L 867 26 L 872 31 L 873 31 L 884 42 L 884 43 L 889 48 L 889 49 L 892 52 L 892 53 L 894 55 L 894 56 L 896 58 L 896 59 L 898 61 L 898 62 L 899 63 L 899 64 L 901 66 L 901 67 L 902 68 L 902 69 L 903 70 L 903 72 L 904 73 L 904 74 L 905 75 L 905 76 L 906 77 L 906 79 L 907 80 L 907 82 L 908 83 L 908 84 L 909 85 L 909 88 L 910 89 L 910 91 L 911 92 L 911 96 L 912 97 L 912 101 L 913 102 L 913 107 L 914 108 L 914 141 L 913 142 L 913 147 L 912 148 L 912 152 L 911 153 L 911 157 L 910 158 L 910 160 L 909 161 L 909 164 L 908 165 L 908 166 L 907 167 L 907 170 L 920 170 L 921 171 L 921 323 L 920 324 L 1 324 L 0 323 L 0 172 L 2 170 L 14 170 L 15 171 L 15 170 L 16 169 L 15 168 L 15 167 L 14 166 L 14 164 L 13 163 L 13 161 L 12 160 L 12 157 L 11 156 L 11 154 L 10 153 L 10 149 L 9 148 L 9 144 L 8 143 L 8 135 L 7 134 L 7 115 L 8 114 L 8 106 L 9 105 L 9 101 L 10 100 L 10 96 L 11 95 L 11 93 L 12 92 L 12 89 L 13 88 L 13 86 L 14 85 L 14 83 L 15 82 L 15 80 L 16 79 L 16 78 L 17 77 L 17 76 L 18 75 L 18 73 L 19 72 L 19 71 L 20 70 L 20 69 L 21 68 L 21 67 L 23 65 L 23 64 L 24 63 L 24 62 L 25 61 L 25 60 L 27 58 L 27 57 L 29 55 L 29 54 L 32 51 L 32 50 L 35 47 L 35 46 L 53 28 L 54 28 L 58 24 L 59 24 L 61 22 L 62 22 L 64 20 L 65 20 L 67 18 L 68 18 L 70 16 L 71 16 L 72 15 L 73 15 L 74 14 L 75 14 L 76 13 L 77 13 L 78 12 L 79 12 L 80 11 L 81 11 L 82 10 L 83 10 L 84 9 L 86 9 L 87 8 L 88 8 L 89 7 L 91 7 L 92 6 L 94 6 L 95 5 L 97 5 L 98 4 L 101 4 L 102 3 L 105 3 L 106 2 L 110 2 L 111 1 z" />
<g id="1">
<path d="M 700 303 L 700 319 L 916 319 L 916 303 z" />
<path d="M 6 303 L 6 319 L 232 319 L 232 303 z" />
<path d="M 702 288 L 701 289 L 700 289 L 700 298 L 916 298 L 916 289 L 915 288 z" />
<path d="M 8 288 L 7 289 L 6 289 L 6 298 L 232 298 L 232 289 L 231 288 z" />
<path d="M 700 275 L 700 283 L 916 283 L 916 275 z" />
<path d="M 6 275 L 6 283 L 232 283 L 232 275 z" />
<path d="M 702 260 L 701 261 L 700 261 L 700 270 L 916 270 L 916 261 L 915 260 z" />
<path d="M 8 260 L 7 261 L 6 261 L 6 270 L 232 270 L 232 261 L 231 260 z" />
<path d="M 700 247 L 700 255 L 916 255 L 916 247 z" />
<path d="M 6 247 L 6 255 L 232 255 L 232 247 z" />
<path d="M 702 232 L 701 233 L 700 233 L 700 242 L 916 242 L 916 233 L 915 232 z" />
<path d="M 8 232 L 7 233 L 6 233 L 6 242 L 232 242 L 232 233 L 231 232 z" />
<path d="M 700 219 L 700 227 L 916 227 L 916 219 z" />
<path d="M 6 219 L 6 227 L 232 227 L 232 219 z" />
<path d="M 702 204 L 701 205 L 700 205 L 700 214 L 916 214 L 916 205 L 915 204 z" />
<path d="M 8 204 L 7 205 L 6 205 L 6 214 L 232 214 L 232 205 L 231 204 z" />
<path d="M 700 191 L 700 199 L 916 199 L 916 191 z" />
<path d="M 6 191 L 6 199 L 232 199 L 232 191 z" />
<path d="M 700 176 L 700 186 L 916 186 L 916 176 z" />
<path d="M 6 176 L 6 186 L 232 186 L 232 176 z" />
<path d="M 239 66 L 237 68 L 237 317 L 238 318 L 238 319 L 695 319 L 695 67 L 694 67 L 693 66 z" />
<path d="M 776 6 L 775 7 L 769 7 L 768 8 L 764 8 L 763 9 L 760 9 L 759 10 L 757 10 L 756 11 L 754 11 L 753 12 L 751 12 L 750 13 L 748 13 L 747 14 L 746 14 L 745 15 L 743 15 L 742 16 L 741 16 L 740 17 L 738 17 L 737 18 L 736 18 L 735 19 L 734 19 L 732 21 L 731 21 L 730 22 L 729 22 L 727 24 L 726 24 L 725 25 L 724 25 L 721 28 L 720 28 L 717 31 L 716 31 L 711 36 L 710 36 L 702 44 L 702 45 L 697 50 L 697 51 L 694 54 L 694 55 L 691 58 L 691 59 L 690 60 L 691 61 L 691 62 L 692 62 L 693 61 L 698 61 L 700 63 L 700 171 L 900 171 L 901 170 L 901 168 L 902 167 L 902 165 L 903 164 L 903 162 L 904 161 L 904 159 L 905 158 L 905 156 L 906 155 L 906 151 L 907 150 L 907 147 L 908 146 L 908 140 L 909 139 L 909 110 L 908 109 L 908 103 L 907 102 L 907 98 L 906 97 L 906 94 L 905 93 L 905 91 L 904 90 L 904 88 L 903 87 L 903 85 L 902 84 L 902 82 L 901 81 L 901 80 L 900 79 L 900 77 L 899 76 L 899 75 L 898 74 L 898 72 L 897 71 L 897 70 L 895 68 L 895 67 L 894 66 L 894 65 L 893 64 L 893 63 L 891 61 L 891 60 L 890 59 L 890 58 L 887 55 L 887 54 L 884 51 L 884 50 L 879 45 L 879 44 L 871 36 L 870 36 L 865 31 L 864 31 L 861 28 L 860 28 L 857 25 L 856 25 L 855 24 L 854 24 L 852 22 L 851 22 L 850 21 L 849 21 L 847 19 L 846 19 L 845 18 L 844 18 L 843 17 L 841 17 L 840 16 L 839 16 L 838 15 L 836 15 L 835 14 L 834 14 L 833 13 L 831 13 L 830 12 L 828 12 L 827 11 L 825 11 L 824 10 L 822 10 L 821 9 L 818 9 L 817 8 L 813 8 L 812 7 L 806 7 L 805 6 z" />
<path d="M 117 6 L 116 7 L 111 7 L 110 8 L 106 8 L 105 9 L 102 9 L 101 10 L 98 10 L 97 11 L 95 11 L 94 12 L 92 12 L 91 13 L 90 13 L 89 14 L 87 14 L 86 15 L 85 15 L 84 16 L 83 16 L 82 17 L 80 17 L 79 18 L 78 18 L 77 19 L 76 19 L 75 20 L 74 20 L 73 21 L 72 21 L 70 23 L 69 23 L 67 25 L 66 25 L 64 27 L 63 27 L 61 29 L 60 29 L 56 33 L 55 33 L 40 48 L 40 49 L 36 53 L 36 54 L 34 56 L 34 57 L 32 59 L 32 60 L 30 62 L 30 63 L 29 64 L 29 65 L 28 66 L 28 67 L 26 69 L 26 70 L 25 71 L 25 72 L 24 73 L 24 75 L 23 76 L 23 77 L 22 78 L 22 80 L 21 81 L 21 82 L 20 83 L 20 85 L 19 86 L 19 88 L 18 89 L 18 92 L 17 93 L 17 95 L 16 96 L 16 100 L 15 101 L 15 105 L 14 106 L 14 113 L 13 114 L 13 135 L 14 136 L 14 143 L 15 144 L 15 148 L 16 149 L 16 153 L 17 154 L 17 156 L 18 157 L 18 160 L 19 161 L 19 163 L 20 164 L 20 166 L 21 167 L 21 168 L 22 169 L 22 170 L 23 171 L 232 171 L 232 63 L 233 62 L 232 61 L 232 59 L 230 57 L 230 56 L 227 53 L 227 52 L 224 49 L 224 48 L 209 33 L 208 33 L 204 29 L 203 29 L 200 26 L 199 26 L 198 25 L 197 25 L 195 23 L 194 23 L 192 21 L 191 21 L 190 20 L 189 20 L 188 19 L 187 19 L 186 18 L 185 18 L 184 17 L 183 17 L 182 16 L 180 16 L 179 15 L 178 15 L 177 14 L 175 14 L 174 13 L 173 13 L 172 12 L 170 12 L 169 11 L 167 11 L 166 10 L 163 10 L 162 9 L 159 9 L 158 8 L 154 8 L 153 7 L 148 7 L 147 6 z" />
<g id="2">
<path d="M 700 304 L 701 303 L 915 303 L 916 304 L 916 318 L 915 319 L 701 319 L 700 318 z" />
<path d="M 6 304 L 7 303 L 231 303 L 232 304 L 232 318 L 231 319 L 7 319 L 6 318 z" />
<path d="M 702 288 L 915 288 L 916 289 L 916 297 L 915 298 L 701 298 L 700 297 L 700 290 z" />
<path d="M 8 288 L 231 288 L 232 289 L 232 297 L 231 298 L 7 298 L 6 297 L 6 290 z" />
<path d="M 700 276 L 701 275 L 915 275 L 916 276 L 916 282 L 915 283 L 701 283 L 700 282 z" />
<path d="M 6 276 L 7 275 L 231 275 L 232 276 L 232 282 L 231 283 L 7 283 L 6 282 z" />
<path d="M 702 260 L 915 260 L 916 261 L 916 269 L 915 270 L 701 270 L 700 269 L 700 262 z" />
<path d="M 8 260 L 231 260 L 232 261 L 232 269 L 231 270 L 7 270 L 6 269 L 6 262 z" />
<path d="M 700 248 L 701 247 L 915 247 L 916 248 L 916 254 L 915 255 L 701 255 L 700 254 z" />
<path d="M 6 248 L 7 247 L 231 247 L 232 248 L 232 254 L 231 255 L 7 255 L 6 254 z" />
<path d="M 702 232 L 915 232 L 916 233 L 916 241 L 915 242 L 701 242 L 700 241 L 700 234 z" />
<path d="M 8 232 L 231 232 L 232 233 L 232 241 L 231 242 L 7 242 L 6 241 L 6 234 z" />
<path d="M 700 220 L 701 219 L 915 219 L 916 220 L 916 226 L 915 227 L 701 227 L 700 226 z" />
<path d="M 6 220 L 7 219 L 231 219 L 232 220 L 232 226 L 231 227 L 7 227 L 6 226 z" />
<path d="M 702 204 L 915 204 L 916 205 L 916 213 L 915 214 L 701 214 L 700 213 L 700 206 z" />
<path d="M 8 204 L 231 204 L 232 205 L 232 213 L 231 214 L 7 214 L 6 213 L 6 206 z" />
<path d="M 700 192 L 701 191 L 915 191 L 916 192 L 916 198 L 915 199 L 701 199 L 700 198 z" />
<path d="M 6 192 L 7 191 L 231 191 L 232 192 L 232 198 L 231 199 L 7 199 L 6 198 z" />
<path d="M 700 177 L 701 176 L 915 176 L 916 177 L 916 185 L 915 186 L 701 186 L 700 185 z" />
<path d="M 6 177 L 7 176 L 231 176 L 232 177 L 232 185 L 231 186 L 7 186 L 6 185 z" />
<path d="M 239 66 L 693 66 L 695 68 L 695 318 L 694 319 L 239 319 L 237 317 L 237 68 z" />
<path d="M 775 7 L 776 6 L 805 6 L 806 7 L 812 7 L 813 8 L 817 8 L 818 9 L 821 9 L 822 10 L 824 10 L 825 11 L 827 11 L 828 12 L 830 12 L 831 13 L 833 13 L 834 14 L 835 14 L 836 15 L 838 15 L 839 16 L 840 16 L 841 17 L 842 17 L 843 18 L 844 18 L 845 19 L 846 19 L 848 21 L 849 21 L 850 22 L 851 22 L 853 24 L 854 24 L 855 25 L 856 25 L 859 28 L 860 28 L 863 31 L 864 31 L 869 36 L 870 36 L 879 45 L 879 46 L 884 51 L 884 52 L 887 55 L 887 56 L 890 59 L 890 60 L 891 61 L 891 62 L 893 64 L 893 65 L 894 66 L 894 67 L 895 68 L 895 69 L 897 71 L 897 72 L 898 73 L 898 74 L 899 75 L 899 76 L 900 77 L 900 79 L 901 80 L 901 81 L 902 82 L 902 84 L 903 85 L 903 87 L 904 88 L 904 90 L 905 91 L 905 93 L 906 94 L 906 97 L 907 98 L 907 102 L 908 103 L 908 109 L 909 110 L 909 139 L 908 140 L 908 146 L 907 147 L 907 150 L 906 151 L 906 155 L 905 156 L 905 158 L 904 159 L 904 161 L 903 162 L 903 164 L 902 165 L 902 167 L 901 168 L 901 169 L 899 171 L 701 171 L 700 170 L 700 62 L 699 62 L 698 61 L 693 61 L 692 62 L 690 60 L 694 56 L 694 55 L 697 52 L 697 51 L 702 46 L 702 45 L 711 36 L 712 36 L 717 31 L 718 31 L 721 28 L 722 28 L 725 25 L 726 25 L 727 24 L 728 24 L 730 22 L 731 22 L 732 21 L 733 21 L 735 19 L 736 19 L 737 18 L 738 18 L 739 17 L 740 17 L 741 16 L 743 16 L 744 15 L 745 15 L 746 14 L 747 14 L 748 13 L 750 13 L 751 12 L 753 12 L 754 11 L 756 11 L 757 10 L 759 10 L 760 9 L 763 9 L 764 8 L 768 8 L 769 7 z" />
<path d="M 116 7 L 117 6 L 147 6 L 148 7 L 153 7 L 154 8 L 158 8 L 159 9 L 162 9 L 163 10 L 166 10 L 167 11 L 169 11 L 170 12 L 172 12 L 173 13 L 174 13 L 175 14 L 177 14 L 178 15 L 179 15 L 180 16 L 181 16 L 182 17 L 183 17 L 184 18 L 185 18 L 186 19 L 187 19 L 188 20 L 189 20 L 190 21 L 191 21 L 193 23 L 194 23 L 196 25 L 197 25 L 198 26 L 199 26 L 202 29 L 203 29 L 207 33 L 208 33 L 224 49 L 224 50 L 227 53 L 227 54 L 230 57 L 230 58 L 232 60 L 232 61 L 233 62 L 232 63 L 232 170 L 231 171 L 24 171 L 21 168 L 21 167 L 20 166 L 20 164 L 19 163 L 19 161 L 18 160 L 18 157 L 17 156 L 17 154 L 16 153 L 16 149 L 15 148 L 15 144 L 14 143 L 14 136 L 13 135 L 13 114 L 14 113 L 14 106 L 15 105 L 15 101 L 16 100 L 16 96 L 17 95 L 17 93 L 18 92 L 18 89 L 19 88 L 19 86 L 20 85 L 20 83 L 21 82 L 21 81 L 22 80 L 22 78 L 23 77 L 23 76 L 24 75 L 24 74 L 25 73 L 25 72 L 26 71 L 26 70 L 28 68 L 28 67 L 29 66 L 29 65 L 30 64 L 30 63 L 32 61 L 32 60 L 34 58 L 34 57 L 36 55 L 36 54 L 40 50 L 40 49 L 56 33 L 57 33 L 61 29 L 62 29 L 64 27 L 65 27 L 67 25 L 68 25 L 70 23 L 71 23 L 73 21 L 74 21 L 75 20 L 76 20 L 77 19 L 78 19 L 79 18 L 80 18 L 81 17 L 82 17 L 83 16 L 84 16 L 85 15 L 86 15 L 87 14 L 89 14 L 90 13 L 91 13 L 92 12 L 94 12 L 95 11 L 97 11 L 98 10 L 101 10 L 102 9 L 105 9 L 106 8 L 110 8 L 111 7 z" />
<path d="M 644 231 L 643 232 L 641 232 L 639 234 L 638 234 L 635 237 L 635 238 L 634 239 L 634 241 L 633 242 L 633 247 L 632 248 L 632 276 L 633 277 L 661 277 L 661 242 L 660 241 L 660 239 L 658 237 L 658 236 L 655 233 L 654 233 L 653 232 L 651 232 L 650 231 z" />
<path d="M 593 231 L 592 232 L 590 232 L 589 233 L 588 233 L 583 238 L 583 239 L 582 240 L 582 242 L 581 243 L 581 277 L 610 277 L 610 243 L 609 242 L 609 240 L 608 239 L 608 238 L 603 233 L 602 233 L 601 232 L 599 232 L 598 231 z" />
<path d="M 541 231 L 540 232 L 538 232 L 537 233 L 536 233 L 531 238 L 531 239 L 530 240 L 530 242 L 529 243 L 529 277 L 558 277 L 558 243 L 557 242 L 557 240 L 556 239 L 556 238 L 551 233 L 550 233 L 549 232 L 547 232 L 546 231 z" />
<path d="M 489 231 L 488 232 L 486 232 L 484 234 L 483 234 L 480 237 L 480 238 L 479 239 L 479 241 L 478 242 L 478 247 L 477 248 L 477 276 L 478 277 L 506 277 L 506 242 L 505 241 L 505 239 L 503 237 L 503 236 L 500 233 L 499 233 L 498 232 L 496 232 L 495 231 z" />
<path d="M 438 231 L 437 232 L 435 232 L 434 233 L 433 233 L 428 238 L 428 239 L 427 240 L 427 242 L 426 243 L 426 277 L 455 277 L 455 243 L 454 242 L 454 240 L 453 239 L 453 238 L 448 233 L 447 233 L 446 232 L 444 232 L 443 231 z" />
<path d="M 386 231 L 385 232 L 383 232 L 382 233 L 381 233 L 376 238 L 376 239 L 375 240 L 375 242 L 374 243 L 374 277 L 401 277 L 401 276 L 402 275 L 403 275 L 403 243 L 402 242 L 402 240 L 401 239 L 401 238 L 396 233 L 395 233 L 394 232 L 392 232 L 391 231 z" />
<path d="M 334 231 L 333 232 L 331 232 L 329 234 L 328 234 L 325 237 L 325 238 L 324 239 L 324 241 L 323 242 L 323 247 L 322 248 L 322 276 L 323 277 L 351 277 L 351 242 L 350 241 L 350 239 L 348 237 L 348 236 L 345 233 L 344 233 L 343 232 L 341 232 L 340 231 z" />
<path d="M 283 231 L 282 232 L 280 232 L 279 233 L 278 233 L 273 238 L 273 239 L 272 240 L 272 242 L 271 243 L 271 277 L 300 277 L 300 243 L 299 242 L 299 240 L 298 239 L 298 238 L 293 233 L 292 233 L 291 232 L 289 232 L 288 231 z" />
<path d="M 643 166 L 642 167 L 640 167 L 635 172 L 635 173 L 634 174 L 634 175 L 633 176 L 633 182 L 632 183 L 632 210 L 633 211 L 633 212 L 661 212 L 661 176 L 660 175 L 660 174 L 659 173 L 659 172 L 654 167 L 652 167 L 651 166 z" />
<path d="M 591 166 L 590 167 L 589 167 L 588 168 L 587 168 L 584 171 L 584 172 L 583 173 L 583 174 L 582 175 L 582 177 L 581 178 L 581 212 L 610 212 L 610 178 L 609 177 L 609 175 L 608 174 L 608 173 L 607 172 L 607 171 L 604 168 L 603 168 L 602 167 L 601 167 L 600 166 z" />
<path d="M 539 166 L 538 167 L 537 167 L 536 168 L 535 168 L 532 171 L 532 172 L 531 173 L 531 174 L 530 175 L 530 177 L 529 178 L 529 212 L 558 212 L 558 178 L 557 177 L 557 175 L 556 174 L 556 173 L 555 172 L 555 171 L 552 168 L 551 168 L 550 167 L 549 167 L 548 166 z" />
<path d="M 488 166 L 487 167 L 485 167 L 480 172 L 480 173 L 479 174 L 479 175 L 478 176 L 478 182 L 477 183 L 477 210 L 478 211 L 478 212 L 506 212 L 506 176 L 505 175 L 505 174 L 504 173 L 504 172 L 499 167 L 497 167 L 496 166 z" />
<path d="M 436 166 L 435 167 L 434 167 L 433 168 L 432 168 L 429 171 L 429 172 L 428 173 L 428 174 L 427 175 L 427 177 L 426 178 L 426 212 L 455 212 L 455 178 L 454 177 L 454 175 L 453 174 L 453 173 L 452 172 L 452 171 L 449 168 L 448 168 L 447 167 L 446 167 L 445 166 z" />
<path d="M 384 166 L 383 167 L 382 167 L 381 168 L 380 168 L 377 171 L 377 172 L 376 173 L 376 174 L 375 175 L 375 177 L 374 178 L 374 212 L 401 212 L 401 211 L 403 209 L 403 178 L 402 177 L 402 175 L 401 174 L 401 173 L 400 172 L 400 171 L 397 168 L 396 168 L 395 167 L 394 167 L 393 166 z" />
<path d="M 333 166 L 332 167 L 330 167 L 325 172 L 325 173 L 324 174 L 324 175 L 323 176 L 323 182 L 322 183 L 322 210 L 323 211 L 323 212 L 351 212 L 351 176 L 350 175 L 350 174 L 349 173 L 349 172 L 344 167 L 342 167 L 341 166 z" />
<path d="M 281 166 L 280 167 L 279 167 L 278 168 L 277 168 L 274 171 L 274 172 L 273 173 L 273 174 L 272 175 L 272 177 L 271 178 L 271 212 L 300 212 L 300 178 L 299 177 L 299 175 L 298 174 L 298 173 L 297 172 L 297 171 L 294 168 L 293 168 L 292 167 L 291 167 L 290 166 z" />
<path d="M 643 100 L 642 101 L 640 101 L 635 106 L 635 107 L 634 108 L 634 109 L 633 110 L 633 116 L 632 117 L 632 144 L 633 145 L 633 146 L 661 146 L 661 110 L 660 109 L 660 108 L 659 107 L 659 106 L 654 101 L 652 101 L 651 100 z" />
<path d="M 591 100 L 590 101 L 589 101 L 588 102 L 587 102 L 584 105 L 584 106 L 583 107 L 583 108 L 582 109 L 582 111 L 581 112 L 581 146 L 610 146 L 610 112 L 609 111 L 609 109 L 608 108 L 608 107 L 607 106 L 607 105 L 604 102 L 603 102 L 602 101 L 601 101 L 600 100 z" />
<path d="M 539 100 L 538 101 L 537 101 L 536 102 L 535 102 L 532 105 L 532 106 L 531 107 L 531 108 L 530 109 L 530 111 L 529 112 L 529 146 L 558 146 L 558 112 L 557 111 L 557 109 L 556 108 L 556 107 L 555 106 L 555 105 L 552 102 L 551 102 L 550 101 L 549 101 L 548 100 z" />
<path d="M 488 100 L 487 101 L 485 101 L 480 106 L 480 107 L 479 108 L 479 109 L 478 110 L 478 116 L 477 117 L 477 144 L 478 145 L 478 146 L 506 146 L 506 110 L 505 109 L 505 108 L 504 107 L 504 106 L 499 101 L 497 101 L 496 100 z" />
<path d="M 436 100 L 435 101 L 434 101 L 433 102 L 432 102 L 429 105 L 429 106 L 428 107 L 428 108 L 427 109 L 427 111 L 426 112 L 426 146 L 455 146 L 455 112 L 454 111 L 454 109 L 453 108 L 453 107 L 452 106 L 452 105 L 449 102 L 448 102 L 447 101 L 446 101 L 445 100 z" />
<path d="M 384 100 L 383 101 L 382 101 L 381 102 L 380 102 L 377 105 L 377 106 L 376 107 L 376 108 L 375 109 L 375 111 L 374 112 L 374 146 L 401 146 L 401 145 L 403 143 L 403 112 L 402 111 L 402 109 L 401 108 L 401 107 L 400 106 L 400 105 L 397 102 L 396 102 L 395 101 L 394 101 L 393 100 z" />
<path d="M 333 100 L 332 101 L 330 101 L 325 106 L 325 107 L 324 108 L 324 109 L 323 110 L 323 116 L 322 117 L 322 144 L 323 145 L 323 146 L 351 146 L 351 110 L 350 109 L 350 108 L 349 107 L 349 106 L 344 101 L 342 101 L 341 100 z" />
<path d="M 281 100 L 280 101 L 279 101 L 278 102 L 277 102 L 274 105 L 274 106 L 273 107 L 273 108 L 272 109 L 272 111 L 271 112 L 271 146 L 300 146 L 300 112 L 299 111 L 299 109 L 298 108 L 298 107 L 297 106 L 297 105 L 294 102 L 293 102 L 292 101 L 291 101 L 290 100 z" />
<g id="3">
<path d="M 643 232 L 644 231 L 650 231 L 651 232 L 652 232 L 653 233 L 654 233 L 658 237 L 658 238 L 660 240 L 660 241 L 661 242 L 661 276 L 660 277 L 633 277 L 632 276 L 632 248 L 633 247 L 633 242 L 634 241 L 634 240 L 635 239 L 635 238 L 639 234 L 640 234 L 642 232 z" />
<path d="M 592 232 L 593 231 L 598 231 L 599 232 L 601 232 L 608 239 L 608 240 L 609 241 L 609 242 L 610 243 L 610 276 L 609 277 L 582 277 L 581 276 L 581 243 L 582 242 L 582 241 L 583 240 L 583 239 L 589 233 L 590 233 L 591 232 z" />
<path d="M 540 232 L 541 231 L 546 231 L 547 232 L 549 232 L 556 239 L 556 240 L 557 241 L 557 242 L 558 243 L 558 276 L 557 277 L 530 277 L 529 276 L 529 243 L 530 242 L 530 241 L 531 240 L 531 239 L 537 233 L 538 233 L 539 232 z" />
<path d="M 488 232 L 489 231 L 495 231 L 496 232 L 497 232 L 498 233 L 499 233 L 503 237 L 503 238 L 505 240 L 505 241 L 506 242 L 506 276 L 505 277 L 478 277 L 477 276 L 477 248 L 478 247 L 478 242 L 479 241 L 479 240 L 480 239 L 480 238 L 484 234 L 485 234 L 487 232 z" />
<path d="M 437 232 L 438 231 L 443 231 L 444 232 L 446 232 L 453 239 L 453 240 L 454 241 L 454 242 L 455 243 L 455 276 L 454 277 L 427 277 L 426 276 L 426 243 L 427 242 L 427 241 L 428 240 L 428 239 L 434 233 L 435 233 L 436 232 z" />
<path d="M 385 232 L 386 231 L 391 231 L 392 232 L 394 232 L 401 239 L 401 240 L 402 241 L 402 242 L 403 243 L 403 274 L 402 275 L 401 275 L 401 276 L 400 277 L 375 277 L 374 276 L 374 243 L 375 242 L 375 241 L 376 240 L 376 239 L 382 233 L 383 233 L 384 232 z" />
<path d="M 333 232 L 334 231 L 340 231 L 341 232 L 342 232 L 343 233 L 344 233 L 348 237 L 348 238 L 350 240 L 350 241 L 351 242 L 351 276 L 350 277 L 323 277 L 322 276 L 322 248 L 323 247 L 323 242 L 324 241 L 324 240 L 325 239 L 325 238 L 329 234 L 330 234 L 332 232 z" />
<path d="M 282 232 L 283 231 L 288 231 L 289 232 L 291 232 L 298 239 L 298 240 L 299 241 L 299 242 L 300 243 L 300 276 L 299 277 L 272 277 L 271 276 L 271 243 L 272 242 L 272 241 L 273 240 L 273 239 L 279 233 L 280 233 L 281 232 z" />
<path d="M 642 167 L 643 166 L 651 166 L 652 167 L 653 167 L 659 173 L 659 174 L 661 176 L 661 211 L 660 212 L 634 212 L 632 210 L 632 183 L 633 182 L 633 176 L 635 174 L 635 173 L 641 167 z" />
<path d="M 591 166 L 600 166 L 602 168 L 603 168 L 607 172 L 607 173 L 609 175 L 609 177 L 610 178 L 610 211 L 609 212 L 582 212 L 581 211 L 581 178 L 582 177 L 582 175 L 584 173 L 584 172 L 588 168 L 589 168 z" />
<path d="M 539 166 L 548 166 L 550 168 L 551 168 L 555 172 L 555 173 L 557 175 L 557 177 L 558 178 L 558 211 L 557 212 L 530 212 L 529 211 L 529 178 L 530 177 L 530 175 L 532 173 L 532 172 L 536 168 L 537 168 z" />
<path d="M 487 167 L 488 166 L 496 166 L 497 167 L 498 167 L 504 173 L 504 174 L 506 176 L 506 211 L 505 212 L 479 212 L 477 210 L 477 183 L 478 182 L 478 176 L 480 174 L 480 173 L 486 167 z" />
<path d="M 436 166 L 445 166 L 447 168 L 448 168 L 452 172 L 452 173 L 454 175 L 454 177 L 455 178 L 455 211 L 454 212 L 427 212 L 426 211 L 426 178 L 427 177 L 427 175 L 429 173 L 429 172 L 433 168 L 434 168 z" />
<path d="M 384 166 L 393 166 L 395 168 L 396 168 L 400 172 L 400 173 L 402 175 L 402 177 L 403 178 L 403 208 L 401 210 L 401 211 L 400 212 L 375 212 L 374 211 L 374 178 L 375 177 L 375 175 L 377 173 L 377 172 L 381 168 L 382 168 z" />
<path d="M 332 167 L 333 166 L 341 166 L 342 167 L 343 167 L 349 173 L 349 174 L 351 176 L 351 211 L 350 212 L 324 212 L 322 210 L 322 183 L 323 182 L 323 176 L 325 174 L 325 173 L 331 167 z" />
<path d="M 281 166 L 290 166 L 292 168 L 293 168 L 297 172 L 297 173 L 299 175 L 299 177 L 300 178 L 300 211 L 299 212 L 272 212 L 271 211 L 271 178 L 272 177 L 272 175 L 274 173 L 274 172 L 278 168 L 279 168 z" />
<path d="M 642 101 L 643 100 L 651 100 L 652 101 L 653 101 L 659 107 L 659 108 L 661 110 L 661 145 L 660 146 L 634 146 L 632 144 L 632 117 L 633 116 L 633 110 L 635 108 L 635 107 L 641 101 z" />
<path d="M 591 100 L 600 100 L 602 102 L 603 102 L 607 106 L 607 107 L 609 109 L 609 111 L 610 112 L 610 145 L 609 146 L 582 146 L 581 145 L 581 112 L 582 111 L 582 109 L 584 107 L 584 106 L 588 102 L 589 102 z" />
<path d="M 539 100 L 548 100 L 550 102 L 551 102 L 555 106 L 555 107 L 557 109 L 557 111 L 558 112 L 558 145 L 557 146 L 530 146 L 529 145 L 529 112 L 530 111 L 530 109 L 532 107 L 532 106 L 536 102 L 537 102 z" />
<path d="M 487 101 L 488 100 L 496 100 L 497 101 L 498 101 L 504 107 L 504 108 L 506 110 L 506 145 L 505 146 L 479 146 L 477 144 L 477 117 L 478 116 L 478 110 L 480 108 L 480 107 L 486 101 z" />
<path d="M 436 100 L 445 100 L 447 102 L 448 102 L 452 106 L 452 107 L 454 109 L 454 111 L 455 112 L 455 145 L 454 146 L 427 146 L 426 145 L 426 112 L 427 111 L 427 109 L 429 107 L 429 106 L 433 102 L 434 102 z" />
<path d="M 384 100 L 393 100 L 395 102 L 396 102 L 400 106 L 400 107 L 402 109 L 402 111 L 403 112 L 403 142 L 401 144 L 401 145 L 400 146 L 375 146 L 374 145 L 374 112 L 375 111 L 375 109 L 377 107 L 377 106 L 381 102 L 382 102 z" />
<path d="M 332 101 L 333 100 L 341 100 L 342 101 L 343 101 L 349 107 L 349 108 L 351 110 L 351 145 L 350 146 L 324 146 L 322 144 L 322 117 L 323 116 L 323 110 L 325 108 L 325 107 L 331 101 z" />
<path d="M 281 100 L 290 100 L 292 102 L 293 102 L 297 106 L 297 107 L 299 109 L 299 111 L 300 112 L 300 145 L 299 146 L 272 146 L 271 145 L 271 112 L 272 111 L 272 109 L 274 107 L 274 106 L 278 102 L 279 102 z" />
<g id="4">
<path d="M 645 236 L 644 237 L 643 237 L 642 238 L 641 238 L 640 239 L 640 240 L 638 242 L 638 247 L 637 248 L 637 271 L 638 272 L 656 272 L 656 242 L 655 241 L 655 240 L 653 238 L 652 238 L 651 237 L 650 237 L 649 236 z" />
<g id="5">
<path d="M 594 236 L 593 237 L 591 237 L 587 241 L 587 243 L 586 244 L 586 272 L 605 272 L 605 244 L 604 243 L 604 241 L 600 237 L 598 237 L 597 236 z" />
<g id="6">
<path d="M 542 236 L 541 237 L 539 237 L 535 241 L 535 243 L 534 244 L 534 272 L 553 272 L 553 244 L 552 243 L 552 241 L 548 237 L 546 237 L 545 236 z" />
<g id="7">
<path d="M 490 236 L 489 237 L 488 237 L 487 238 L 486 238 L 485 239 L 485 240 L 483 242 L 483 247 L 482 248 L 482 271 L 483 272 L 501 272 L 501 242 L 500 241 L 500 240 L 498 238 L 497 238 L 496 237 L 495 237 L 494 236 z" />
<g id="8">
<path d="M 439 236 L 438 237 L 436 237 L 432 241 L 432 243 L 431 244 L 431 272 L 450 272 L 450 244 L 449 243 L 449 241 L 445 237 L 443 237 L 442 236 z" />
<g id="9">
<path d="M 387 236 L 386 237 L 384 237 L 380 241 L 380 243 L 379 244 L 379 272 L 398 272 L 398 244 L 397 243 L 397 241 L 393 237 L 391 237 L 390 236 z" />
<g id="10">
<path d="M 335 236 L 334 237 L 333 237 L 332 238 L 331 238 L 330 239 L 330 240 L 328 242 L 328 247 L 327 248 L 327 271 L 328 272 L 346 272 L 346 242 L 345 241 L 345 240 L 343 238 L 342 238 L 341 237 L 340 237 L 339 236 z" />
<g id="11">
<path d="M 284 236 L 283 237 L 281 237 L 277 241 L 277 243 L 276 244 L 276 272 L 295 272 L 295 244 L 294 243 L 294 241 L 290 237 L 288 237 L 287 236 z" />
<g id="12">
<path d="M 643 171 L 639 175 L 639 176 L 638 177 L 638 182 L 637 183 L 637 205 L 638 206 L 638 207 L 656 207 L 656 177 L 655 176 L 655 175 L 651 171 z" />
<g id="13">
<path d="M 592 171 L 591 172 L 590 172 L 588 174 L 588 175 L 587 176 L 587 178 L 586 179 L 586 207 L 605 207 L 605 179 L 604 178 L 604 176 L 603 175 L 603 174 L 601 172 L 600 172 L 599 171 z" />
<g id="14">
<path d="M 540 171 L 539 172 L 538 172 L 536 174 L 536 175 L 535 176 L 535 178 L 534 179 L 534 207 L 553 207 L 553 179 L 552 178 L 552 176 L 551 175 L 551 174 L 549 172 L 548 172 L 547 171 z" />
<g id="15">
<path d="M 488 171 L 484 175 L 484 176 L 483 177 L 483 182 L 482 183 L 482 205 L 483 206 L 483 207 L 501 207 L 501 177 L 500 176 L 500 175 L 496 171 z" />
<g id="16">
<path d="M 437 171 L 436 172 L 435 172 L 433 174 L 433 175 L 432 176 L 432 178 L 431 179 L 431 207 L 450 207 L 450 179 L 449 178 L 449 176 L 448 175 L 448 174 L 446 172 L 445 172 L 444 171 z" />
<g id="17">
<path d="M 385 171 L 384 172 L 383 172 L 381 174 L 381 175 L 380 176 L 380 178 L 379 179 L 379 207 L 398 207 L 398 179 L 397 178 L 397 176 L 396 175 L 396 174 L 394 172 L 393 172 L 392 171 z" />
<g id="18">
<path d="M 333 171 L 329 175 L 329 176 L 328 177 L 328 182 L 327 183 L 327 205 L 328 206 L 328 207 L 346 207 L 346 177 L 345 176 L 345 175 L 341 171 z" />
<g id="19">
<path d="M 282 171 L 281 172 L 280 172 L 278 174 L 278 175 L 277 176 L 277 178 L 276 179 L 276 207 L 295 207 L 295 179 L 294 178 L 294 176 L 293 175 L 293 174 L 291 172 L 290 172 L 289 171 z" />
<g id="20">
<path d="M 643 105 L 639 109 L 639 110 L 638 111 L 638 116 L 637 117 L 637 139 L 638 140 L 638 141 L 656 141 L 656 111 L 655 110 L 655 109 L 651 105 z" />
<g id="21">
<path d="M 592 105 L 591 106 L 590 106 L 588 108 L 588 109 L 587 110 L 587 112 L 586 113 L 586 141 L 605 141 L 605 113 L 604 112 L 604 110 L 603 109 L 603 108 L 601 106 L 600 106 L 599 105 z" />
<g id="22">
<path d="M 540 105 L 539 106 L 538 106 L 536 108 L 536 109 L 535 110 L 535 112 L 534 113 L 534 141 L 553 141 L 553 113 L 552 112 L 552 110 L 551 109 L 551 108 L 549 106 L 548 106 L 547 105 z" />
<g id="23">
<path d="M 488 105 L 484 109 L 484 110 L 483 111 L 483 116 L 482 117 L 482 139 L 483 140 L 483 141 L 501 141 L 501 111 L 500 110 L 500 109 L 496 105 z" />
<g id="24">
<path d="M 437 105 L 436 106 L 435 106 L 433 108 L 433 109 L 432 110 L 432 112 L 431 113 L 431 141 L 450 141 L 450 113 L 449 112 L 449 110 L 448 109 L 448 108 L 446 106 L 445 106 L 444 105 z" />
<g id="25">
<path d="M 385 105 L 384 106 L 383 106 L 381 108 L 381 109 L 380 110 L 380 112 L 379 113 L 379 141 L 398 141 L 398 113 L 397 112 L 397 110 L 396 109 L 396 108 L 394 106 L 393 106 L 392 105 z" />
<g id="26">
<path d="M 333 105 L 329 109 L 329 110 L 328 111 L 328 116 L 327 117 L 327 139 L 328 140 L 328 141 L 346 141 L 346 111 L 345 110 L 345 109 L 341 105 z" />
<g id="27">
<path d="M 282 105 L 281 106 L 280 106 L 278 108 L 278 109 L 277 110 L 277 112 L 276 113 L 276 141 L 295 141 L 295 113 L 294 112 L 294 110 L 293 109 L 293 108 L 291 106 L 290 106 L 289 105 z" />
<g id="28">
<path d="M 645 236 L 649 236 L 651 238 L 652 238 L 655 241 L 655 242 L 656 243 L 656 271 L 655 272 L 638 272 L 637 271 L 637 248 L 638 247 L 638 243 L 640 241 L 640 240 L 642 238 L 643 238 z" />
<path d="M 593 237 L 594 236 L 597 236 L 598 237 L 599 237 L 604 242 L 604 243 L 605 244 L 605 271 L 604 272 L 587 272 L 586 271 L 586 244 L 587 243 L 587 242 L 592 237 z" />
<path d="M 541 237 L 542 236 L 545 236 L 546 237 L 547 237 L 552 242 L 552 243 L 553 244 L 553 271 L 552 272 L 535 272 L 534 271 L 534 244 L 535 243 L 535 242 L 540 237 z" />
<path d="M 490 236 L 494 236 L 496 238 L 497 238 L 500 241 L 500 242 L 501 243 L 501 271 L 500 272 L 483 272 L 482 271 L 482 248 L 483 247 L 483 243 L 485 241 L 485 240 L 487 238 L 488 238 z" />
<path d="M 438 237 L 439 236 L 442 236 L 443 237 L 444 237 L 449 242 L 449 243 L 450 244 L 450 271 L 449 272 L 432 272 L 431 271 L 431 244 L 432 243 L 432 242 L 437 237 z" />
<path d="M 386 237 L 387 236 L 390 236 L 391 237 L 392 237 L 397 242 L 397 243 L 398 244 L 398 271 L 397 272 L 380 272 L 379 271 L 379 244 L 380 243 L 380 242 L 385 237 z" />
<path d="M 335 236 L 339 236 L 341 238 L 342 238 L 345 241 L 345 242 L 346 243 L 346 271 L 345 272 L 328 272 L 327 271 L 327 248 L 328 247 L 328 243 L 330 241 L 330 240 L 332 238 L 333 238 z" />
<path d="M 283 237 L 284 236 L 287 236 L 288 237 L 289 237 L 294 242 L 294 243 L 295 244 L 295 271 L 294 272 L 277 272 L 276 271 L 276 244 L 277 243 L 277 242 L 282 237 z" />
<path d="M 644 171 L 650 171 L 656 177 L 656 206 L 655 207 L 639 207 L 637 205 L 637 183 L 638 182 L 638 177 z" />
<path d="M 592 172 L 593 171 L 598 171 L 599 172 L 600 172 L 603 175 L 603 176 L 604 177 L 604 178 L 605 179 L 605 206 L 604 207 L 587 207 L 586 206 L 586 179 L 587 178 L 587 177 L 588 176 L 588 175 L 591 172 z" />
<path d="M 540 172 L 541 171 L 546 171 L 547 172 L 548 172 L 551 175 L 551 176 L 552 177 L 552 178 L 553 179 L 553 206 L 552 207 L 535 207 L 534 206 L 534 179 L 535 178 L 535 177 L 536 176 L 536 175 L 539 172 z" />
<path d="M 489 171 L 495 171 L 501 177 L 501 206 L 500 207 L 484 207 L 482 205 L 482 183 L 483 182 L 483 177 z" />
<path d="M 437 172 L 438 171 L 443 171 L 444 172 L 445 172 L 448 175 L 448 176 L 449 177 L 449 178 L 450 179 L 450 206 L 449 207 L 432 207 L 431 206 L 431 179 L 432 178 L 432 177 L 433 176 L 433 175 L 436 172 z" />
<path d="M 385 172 L 386 171 L 391 171 L 392 172 L 393 172 L 396 175 L 396 176 L 397 177 L 397 178 L 398 179 L 398 206 L 397 207 L 380 207 L 379 206 L 379 179 L 380 178 L 380 177 L 381 176 L 381 175 L 384 172 z" />
<path d="M 334 171 L 340 171 L 346 177 L 346 206 L 345 207 L 329 207 L 327 205 L 327 183 L 328 182 L 328 177 z" />
<path d="M 282 172 L 283 171 L 288 171 L 289 172 L 290 172 L 293 175 L 293 176 L 294 177 L 294 178 L 295 179 L 295 206 L 294 207 L 277 207 L 276 206 L 276 179 L 277 178 L 277 177 L 278 176 L 278 175 L 281 172 z" />
<path d="M 644 105 L 650 105 L 656 111 L 656 140 L 655 141 L 639 141 L 637 139 L 637 117 L 638 116 L 638 111 z" />
<path d="M 592 106 L 593 105 L 598 105 L 599 106 L 600 106 L 603 109 L 603 110 L 604 111 L 604 112 L 605 113 L 605 140 L 604 141 L 587 141 L 586 140 L 586 113 L 587 112 L 587 111 L 588 110 L 588 109 L 591 106 z" />
<path d="M 540 106 L 541 105 L 546 105 L 547 106 L 548 106 L 551 109 L 551 110 L 552 111 L 552 112 L 553 113 L 553 140 L 552 141 L 535 141 L 534 140 L 534 113 L 535 112 L 535 111 L 536 110 L 536 109 L 539 106 z" />
<path d="M 489 105 L 495 105 L 501 111 L 501 140 L 500 141 L 484 141 L 482 139 L 482 117 L 483 116 L 483 111 z" />
<path d="M 437 106 L 438 105 L 443 105 L 444 106 L 445 106 L 448 109 L 448 110 L 449 111 L 449 112 L 450 113 L 450 140 L 449 141 L 432 141 L 431 140 L 431 113 L 432 112 L 432 111 L 433 110 L 433 109 L 436 106 z" />
<path d="M 385 106 L 386 105 L 391 105 L 392 106 L 393 106 L 396 109 L 396 110 L 397 111 L 397 112 L 398 113 L 398 140 L 397 141 L 380 141 L 379 140 L 379 113 L 380 112 L 380 111 L 381 110 L 381 109 L 384 106 z" />
<path d="M 334 105 L 340 105 L 346 111 L 346 140 L 345 141 L 329 141 L 327 139 L 327 117 L 328 116 L 328 111 z" />
<path d="M 282 106 L 283 105 L 288 105 L 289 106 L 290 106 L 293 109 L 293 110 L 294 111 L 294 112 L 295 113 L 295 140 L 294 141 L 277 141 L 276 140 L 276 113 L 277 112 L 277 111 L 278 110 L 278 109 L 281 106 z" />
</g>
</g>
</g>
</g>
</g>
</g>
</g>
</g>
</g>
</g>
</g>
</g>
</g>
</g>
</g>
</g>
</g>
</g>
</g>
</g>
</g>
</g>
</g>
</g>
</g>
</g>
</g>
</g>
</svg>
</svg>