<?xml version="1.0" encoding="UTF-8"?>
<svg xmlns="http://www.w3.org/2000/svg" xmlns:xlink="http://www.w3.org/1999/xlink"
     width="321" height="1413" viewBox="0 0 321 1413">
<defs>
</defs>
<svg id="0" fill="grey" stroke="black">
<path d="M 181 0 L 181 1 L 180 2 L 180 5 L 179 6 L 179 9 L 178 10 L 138 10 L 137 9 L 137 8 L 136 7 L 136 3 L 137 2 L 136 1 L 135 1 L 135 2 L 134 3 L 134 5 L 133 6 L 133 8 L 131 10 L 88 10 L 87 9 L 87 1 L 86 1 L 85 2 L 85 4 L 84 5 L 84 7 L 83 8 L 83 9 L 82 10 L 49 10 L 47 12 L 47 20 L 46 21 L 46 33 L 45 34 L 45 47 L 44 48 L 44 60 L 43 61 L 43 73 L 42 74 L 42 86 L 41 87 L 41 99 L 40 100 L 40 113 L 39 114 L 39 126 L 38 127 L 38 139 L 37 140 L 37 141 L 36 142 L 35 142 L 33 144 L 33 179 L 31 181 L 31 225 L 28 228 L 28 281 L 26 283 L 26 343 L 23 346 L 23 415 L 21 417 L 21 492 L 18 495 L 18 577 L 15 580 L 15 670 L 13 672 L 13 766 L 10 769 L 10 870 L 8 872 L 8 977 L 5 980 L 5 1089 L 2 1092 L 2 1204 L 0 1206 L 0 1411 L 1 1412 L 320 1412 L 320 1205 L 319 1204 L 318 1204 L 317 1203 L 317 1093 L 316 1092 L 314 1092 L 313 1091 L 313 984 L 312 983 L 311 983 L 310 982 L 310 878 L 309 877 L 307 877 L 306 876 L 306 776 L 305 775 L 302 775 L 301 774 L 301 678 L 300 677 L 298 677 L 297 676 L 297 586 L 296 585 L 293 585 L 292 584 L 292 500 L 291 499 L 289 499 L 288 498 L 288 420 L 287 419 L 285 419 L 284 418 L 284 347 L 283 346 L 281 346 L 280 345 L 280 283 L 279 282 L 276 282 L 275 281 L 275 227 L 274 226 L 273 226 L 272 225 L 272 180 L 271 179 L 270 179 L 269 178 L 269 142 L 268 141 L 268 140 L 267 139 L 267 130 L 266 129 L 266 121 L 265 120 L 265 112 L 264 111 L 264 102 L 263 101 L 263 93 L 262 92 L 262 83 L 261 82 L 261 74 L 260 73 L 260 64 L 259 63 L 259 55 L 258 54 L 258 46 L 257 45 L 257 36 L 256 35 L 256 27 L 255 26 L 255 17 L 254 16 L 254 11 L 253 10 L 184 10 L 183 9 L 183 1 L 182 0 z" />
<path d="M 135 2 L 136 1 L 137 2 L 136 3 z" />
<path d="M 182 0 L 183 1 L 183 9 L 184 10 L 253 10 L 254 11 L 254 16 L 255 17 L 255 26 L 256 27 L 256 35 L 257 36 L 257 45 L 258 46 L 258 54 L 259 55 L 259 63 L 260 64 L 260 73 L 261 74 L 261 82 L 262 83 L 262 92 L 263 93 L 263 101 L 264 102 L 264 111 L 265 112 L 265 120 L 266 121 L 266 129 L 267 130 L 267 139 L 268 140 L 268 141 L 269 142 L 269 178 L 270 179 L 271 179 L 272 180 L 272 225 L 273 226 L 274 226 L 275 227 L 275 281 L 276 282 L 279 282 L 280 283 L 280 345 L 281 346 L 283 346 L 284 347 L 284 418 L 285 419 L 287 419 L 288 420 L 288 498 L 289 499 L 291 499 L 292 500 L 292 584 L 293 585 L 296 585 L 297 586 L 297 676 L 298 677 L 300 677 L 301 678 L 301 774 L 302 775 L 305 775 L 306 776 L 306 876 L 307 877 L 309 877 L 310 878 L 310 982 L 311 983 L 312 983 L 313 984 L 313 1091 L 314 1092 L 316 1092 L 317 1093 L 317 1203 L 318 1204 L 319 1204 L 320 1205 L 320 1411 L 319 1412 L 1 1412 L 0 1411 L 0 1206 L 2 1204 L 2 1092 L 4 1090 L 5 1090 L 5 980 L 7 978 L 8 978 L 8 872 L 10 870 L 10 769 L 12 767 L 13 767 L 13 672 L 15 670 L 15 580 L 17 578 L 18 578 L 18 495 L 20 493 L 21 493 L 21 417 L 23 415 L 23 346 L 25 344 L 26 344 L 26 283 L 28 281 L 28 228 L 30 226 L 31 226 L 31 181 L 33 179 L 33 144 L 35 142 L 37 142 L 37 140 L 38 139 L 38 127 L 39 126 L 39 114 L 40 113 L 40 100 L 41 99 L 41 87 L 42 86 L 42 74 L 43 73 L 43 61 L 44 60 L 44 48 L 45 47 L 45 34 L 46 33 L 46 21 L 47 20 L 47 12 L 49 10 L 83 10 L 83 8 L 84 7 L 84 5 L 85 4 L 85 2 L 86 1 L 87 2 L 87 9 L 88 10 L 132 10 L 132 9 L 133 8 L 133 6 L 134 5 L 134 3 L 135 2 L 136 3 L 136 7 L 137 8 L 137 9 L 138 10 L 178 10 L 179 9 L 179 6 L 180 5 L 180 2 z" />
<g id="1">
<path d="M 6 1221 L 6 1222 L 5 1223 L 5 1405 L 6 1406 L 6 1407 L 275 1407 L 275 1221 z" />
<path d="M 7 1212 L 5 1214 L 6 1215 L 6 1216 L 275 1216 L 275 1213 L 274 1212 z" />
<path d="M 282 1209 L 280 1211 L 280 1405 L 281 1406 L 281 1407 L 315 1407 L 315 1210 L 314 1210 L 313 1209 z" />
<path d="M 8 1104 L 8 1204 L 273 1204 L 273 1104 z" />
<path d="M 279 1098 L 278 1099 L 278 1204 L 312 1204 L 312 1098 z" />
<path d="M 8 1096 L 8 1099 L 273 1099 L 273 1096 z" />
<path d="M 12 991 L 10 993 L 10 1089 L 11 1090 L 11 1091 L 270 1091 L 270 992 L 269 992 L 268 991 z" />
<path d="M 277 988 L 276 989 L 275 989 L 275 1091 L 277 1091 L 278 1092 L 278 1093 L 308 1093 L 308 989 L 307 988 z" />
<path d="M 12 983 L 10 985 L 11 986 L 270 986 L 270 984 L 269 984 L 268 983 z" />
<path d="M 15 883 L 13 885 L 13 977 L 14 978 L 268 978 L 268 884 L 267 884 L 266 883 z" />
<path d="M 275 882 L 274 883 L 273 883 L 273 978 L 275 980 L 275 983 L 305 983 L 305 883 L 304 883 L 303 882 z" />
<path d="M 14 876 L 14 878 L 268 878 L 268 876 z" />
<path d="M 272 780 L 270 782 L 270 869 L 271 870 L 271 871 L 272 871 L 273 872 L 273 877 L 301 877 L 301 781 L 300 781 L 299 780 z" />
<path d="M 18 780 L 17 781 L 16 781 L 16 871 L 265 871 L 265 781 L 264 780 z" />
<path d="M 16 773 L 16 775 L 265 775 L 265 773 z" />
<path d="M 268 683 L 268 684 L 267 685 L 267 766 L 268 767 L 268 768 L 269 768 L 270 769 L 270 774 L 271 775 L 296 775 L 296 683 z" />
<path d="M 19 683 L 19 684 L 18 685 L 18 766 L 19 767 L 19 768 L 262 768 L 262 683 z" />
<path d="M 20 675 L 19 676 L 19 677 L 19 676 L 20 675 L 261 675 L 262 676 L 262 677 L 262 676 L 261 675 z" />
<path d="M 265 591 L 265 670 L 266 670 L 267 671 L 267 676 L 268 677 L 268 678 L 292 678 L 292 591 z" />
<path d="M 22 591 L 21 592 L 21 670 L 260 670 L 260 592 L 259 591 z" />
<path d="M 21 584 L 21 586 L 260 586 L 260 584 z" />
<path d="M 25 505 L 23 507 L 23 577 L 24 578 L 24 579 L 257 579 L 257 506 L 256 505 z" />
<path d="M 264 504 L 262 506 L 262 577 L 263 578 L 263 579 L 264 579 L 265 580 L 265 586 L 287 586 L 287 505 L 286 504 z" />
<path d="M 24 499 L 24 501 L 257 501 L 257 499 z" />
<path d="M 27 427 L 27 428 L 26 429 L 26 492 L 27 493 L 27 494 L 255 494 L 255 427 z" />
<path d="M 262 424 L 261 425 L 260 425 L 260 494 L 261 494 L 262 495 L 262 498 L 263 499 L 283 499 L 283 425 L 282 425 L 281 424 z" />
<path d="M 27 420 L 27 422 L 255 422 L 255 420 z" />
<path d="M 31 355 L 30 356 L 29 356 L 29 415 L 252 415 L 252 356 L 251 355 z" />
<path d="M 258 352 L 258 353 L 257 354 L 257 414 L 260 417 L 260 419 L 279 419 L 279 352 z" />
<path d="M 29 349 L 29 351 L 252 351 L 252 349 z" />
<path d="M 33 292 L 31 294 L 31 343 L 32 344 L 250 344 L 250 293 L 249 293 L 248 292 z" />
<path d="M 257 287 L 256 288 L 255 288 L 255 344 L 256 344 L 258 346 L 258 347 L 275 347 L 275 288 L 274 288 L 273 287 z" />
<path d="M 32 286 L 31 287 L 32 288 L 250 288 L 250 286 z" />
<path d="M 34 237 L 34 281 L 247 281 L 247 237 z" />
<path d="M 254 231 L 253 232 L 252 232 L 252 281 L 253 281 L 254 282 L 270 282 L 270 232 L 269 231 z" />
<path d="M 34 231 L 34 233 L 247 233 L 247 231 z" />
<path d="M 38 190 L 36 192 L 36 225 L 37 226 L 244 226 L 244 191 L 243 190 z" />
<path d="M 251 184 L 249 186 L 249 225 L 250 226 L 267 226 L 267 185 L 266 184 z" />
<path d="M 37 184 L 36 185 L 37 186 L 244 186 L 244 184 z" />
<path d="M 39 153 L 39 179 L 241 179 L 241 153 z" />
<path d="M 247 148 L 247 149 L 246 150 L 246 178 L 247 179 L 264 179 L 264 148 z" />
<path d="M 228 31 L 228 37 L 227 38 L 227 41 L 226 42 L 226 44 L 225 45 L 225 48 L 224 49 L 224 52 L 223 53 L 223 56 L 222 57 L 222 60 L 221 61 L 221 64 L 220 65 L 220 68 L 219 69 L 219 72 L 218 73 L 218 75 L 217 76 L 217 79 L 216 80 L 216 83 L 215 84 L 215 87 L 214 88 L 214 91 L 213 92 L 213 95 L 212 96 L 212 99 L 211 100 L 211 103 L 210 104 L 210 107 L 209 108 L 209 110 L 208 111 L 208 114 L 207 115 L 207 118 L 206 119 L 206 122 L 205 123 L 205 126 L 204 127 L 204 130 L 203 131 L 203 134 L 202 135 L 202 138 L 201 139 L 201 142 L 202 143 L 236 143 L 238 141 L 238 140 L 237 139 L 237 126 L 236 125 L 236 112 L 235 111 L 235 98 L 234 97 L 234 84 L 233 83 L 233 70 L 232 69 L 232 57 L 231 56 L 231 43 L 230 42 L 230 31 z" />
<path d="M 179 29 L 179 34 L 178 35 L 178 38 L 177 39 L 177 42 L 176 43 L 176 46 L 175 47 L 175 50 L 174 51 L 174 54 L 173 55 L 173 58 L 172 59 L 172 62 L 171 63 L 171 66 L 170 67 L 170 70 L 169 71 L 169 74 L 168 75 L 168 78 L 167 79 L 167 82 L 166 83 L 166 86 L 165 87 L 165 90 L 164 91 L 164 95 L 163 96 L 163 99 L 162 100 L 162 103 L 161 104 L 161 107 L 160 108 L 160 111 L 159 112 L 159 115 L 158 116 L 158 119 L 157 120 L 157 123 L 156 124 L 156 127 L 155 128 L 155 131 L 154 132 L 154 135 L 153 136 L 153 139 L 152 140 L 152 142 L 153 143 L 193 143 L 194 142 L 194 138 L 193 137 L 193 130 L 192 129 L 192 121 L 191 120 L 191 113 L 190 112 L 190 105 L 189 104 L 189 97 L 188 96 L 188 88 L 187 87 L 187 80 L 186 79 L 186 72 L 185 71 L 185 64 L 184 63 L 184 55 L 183 54 L 183 47 L 182 46 L 182 39 L 181 38 L 181 29 z" />
<path d="M 132 27 L 132 31 L 131 32 L 131 35 L 130 36 L 130 38 L 129 39 L 129 41 L 128 42 L 128 44 L 127 45 L 127 48 L 126 49 L 126 51 L 125 52 L 125 54 L 124 55 L 124 57 L 123 58 L 123 61 L 122 62 L 122 64 L 121 65 L 121 67 L 120 68 L 120 70 L 119 71 L 119 74 L 118 75 L 118 77 L 117 78 L 117 80 L 116 81 L 116 83 L 115 84 L 115 87 L 114 88 L 114 90 L 113 91 L 113 93 L 112 94 L 112 96 L 111 97 L 111 100 L 110 101 L 110 103 L 109 104 L 109 106 L 108 107 L 108 110 L 107 111 L 107 113 L 106 114 L 106 116 L 105 117 L 105 119 L 104 120 L 104 123 L 103 124 L 103 126 L 102 127 L 102 129 L 101 130 L 101 132 L 100 133 L 100 136 L 99 137 L 99 139 L 98 140 L 98 142 L 99 143 L 144 143 L 146 141 L 145 140 L 145 132 L 144 131 L 144 123 L 143 122 L 143 113 L 142 112 L 142 104 L 141 103 L 141 94 L 140 93 L 140 85 L 139 84 L 139 75 L 138 74 L 138 66 L 137 65 L 137 57 L 136 56 L 136 47 L 135 46 L 135 38 L 134 37 L 134 27 z" />
<path d="M 82 27 L 82 31 L 81 32 L 81 34 L 80 35 L 80 37 L 79 38 L 79 40 L 78 41 L 78 43 L 77 44 L 77 46 L 76 47 L 76 49 L 75 50 L 75 52 L 74 53 L 74 55 L 73 56 L 73 58 L 72 59 L 72 61 L 71 62 L 71 64 L 70 65 L 70 67 L 69 68 L 69 70 L 68 71 L 68 73 L 67 74 L 67 76 L 66 77 L 66 79 L 65 80 L 65 82 L 64 83 L 64 85 L 63 86 L 63 88 L 62 89 L 62 91 L 61 92 L 61 93 L 60 94 L 60 96 L 59 97 L 59 99 L 58 100 L 58 102 L 57 103 L 57 105 L 56 106 L 56 108 L 55 109 L 55 111 L 54 112 L 54 114 L 53 115 L 53 117 L 52 118 L 52 120 L 51 121 L 51 123 L 50 124 L 50 126 L 49 127 L 49 129 L 48 130 L 48 132 L 47 133 L 47 135 L 46 136 L 46 138 L 45 139 L 45 142 L 46 143 L 90 143 L 91 142 L 91 132 L 90 131 L 90 117 L 89 116 L 89 102 L 88 101 L 88 87 L 87 86 L 87 73 L 86 72 L 86 58 L 85 57 L 85 43 L 84 42 L 84 27 z" />
<path d="M 234 16 L 234 27 L 235 28 L 235 41 L 236 42 L 236 55 L 237 56 L 237 69 L 238 70 L 238 82 L 239 83 L 239 96 L 240 97 L 240 110 L 241 111 L 241 124 L 242 125 L 242 138 L 243 139 L 243 142 L 244 143 L 262 143 L 263 142 L 263 141 L 262 140 L 262 132 L 261 131 L 261 123 L 260 122 L 260 113 L 259 112 L 259 104 L 258 103 L 258 94 L 257 93 L 257 85 L 256 84 L 256 75 L 255 74 L 255 66 L 254 65 L 254 57 L 253 56 L 253 47 L 252 46 L 252 38 L 251 37 L 251 28 L 250 27 L 250 19 L 249 18 L 249 16 z" />
<path d="M 184 16 L 184 21 L 185 22 L 185 29 L 186 30 L 186 38 L 187 39 L 187 46 L 188 47 L 188 54 L 189 55 L 189 62 L 190 63 L 190 71 L 191 72 L 191 79 L 192 80 L 192 87 L 193 88 L 193 95 L 194 96 L 194 104 L 195 105 L 195 112 L 196 113 L 196 120 L 197 121 L 197 131 L 199 131 L 199 126 L 200 125 L 200 122 L 201 121 L 201 119 L 202 118 L 202 115 L 203 114 L 203 111 L 204 110 L 204 107 L 205 106 L 205 103 L 206 102 L 206 99 L 207 98 L 207 95 L 208 94 L 208 91 L 209 90 L 209 87 L 210 86 L 210 84 L 211 83 L 211 80 L 212 79 L 212 76 L 213 75 L 213 72 L 214 71 L 214 68 L 215 67 L 215 64 L 216 63 L 216 60 L 217 59 L 217 56 L 218 55 L 218 53 L 219 52 L 219 49 L 220 48 L 220 45 L 221 44 L 221 41 L 222 40 L 222 37 L 223 36 L 223 33 L 224 32 L 224 29 L 225 28 L 225 25 L 226 24 L 226 21 L 227 20 L 227 18 L 228 17 L 227 16 z" />
<path d="M 138 16 L 137 17 L 137 18 L 138 19 L 138 27 L 139 28 L 139 36 L 140 37 L 140 46 L 141 47 L 141 55 L 142 56 L 142 65 L 143 66 L 143 74 L 144 75 L 144 84 L 145 85 L 145 93 L 146 94 L 146 102 L 147 103 L 147 112 L 148 113 L 148 121 L 149 122 L 149 129 L 151 129 L 151 123 L 152 122 L 152 119 L 153 118 L 153 115 L 154 114 L 154 111 L 155 110 L 155 107 L 156 106 L 156 103 L 157 102 L 157 99 L 158 98 L 158 95 L 159 94 L 159 91 L 160 90 L 160 87 L 161 86 L 161 83 L 162 82 L 162 79 L 163 78 L 163 75 L 164 74 L 164 71 L 165 70 L 165 67 L 166 66 L 166 62 L 167 61 L 167 58 L 168 57 L 168 54 L 169 53 L 169 50 L 170 49 L 170 46 L 171 45 L 171 42 L 172 41 L 172 38 L 173 37 L 173 34 L 174 33 L 174 30 L 175 29 L 175 26 L 176 25 L 176 22 L 177 21 L 177 16 z" />
<path d="M 88 16 L 88 28 L 89 29 L 89 42 L 90 43 L 90 57 L 91 58 L 91 72 L 92 73 L 92 86 L 93 87 L 93 101 L 94 102 L 94 116 L 95 117 L 95 131 L 97 131 L 97 126 L 98 125 L 98 123 L 99 122 L 99 120 L 100 119 L 100 116 L 101 115 L 101 113 L 102 112 L 102 110 L 103 109 L 103 106 L 104 105 L 104 103 L 105 102 L 105 100 L 106 99 L 106 97 L 107 96 L 107 93 L 108 92 L 108 90 L 109 89 L 109 87 L 110 86 L 110 84 L 111 83 L 111 80 L 112 79 L 112 77 L 113 76 L 113 74 L 114 73 L 114 71 L 115 70 L 115 67 L 116 66 L 116 64 L 117 63 L 117 61 L 118 60 L 118 58 L 119 57 L 119 54 L 120 53 L 120 51 L 121 50 L 121 48 L 122 47 L 122 45 L 123 44 L 123 41 L 124 40 L 124 38 L 125 37 L 125 35 L 126 34 L 126 32 L 127 31 L 127 28 L 128 27 L 128 25 L 129 24 L 129 22 L 130 21 L 130 18 L 131 17 L 130 16 z" />
<path d="M 53 16 L 53 20 L 52 21 L 52 33 L 51 34 L 51 46 L 50 47 L 50 59 L 49 60 L 49 72 L 48 73 L 48 86 L 47 87 L 47 99 L 46 100 L 46 112 L 45 113 L 45 120 L 44 121 L 44 125 L 46 125 L 46 121 L 47 120 L 47 117 L 48 116 L 48 114 L 49 113 L 49 111 L 50 110 L 50 109 L 51 108 L 51 106 L 52 105 L 52 103 L 53 102 L 53 100 L 54 99 L 54 97 L 55 96 L 55 94 L 56 93 L 56 91 L 57 90 L 57 88 L 58 87 L 58 85 L 59 84 L 59 82 L 60 81 L 60 79 L 61 78 L 61 76 L 62 75 L 62 73 L 63 72 L 63 70 L 64 69 L 64 67 L 65 66 L 65 64 L 66 63 L 66 61 L 67 60 L 67 58 L 68 57 L 68 55 L 69 54 L 69 52 L 70 51 L 70 49 L 71 48 L 71 46 L 72 45 L 72 43 L 73 42 L 73 40 L 74 39 L 74 37 L 75 36 L 75 34 L 76 33 L 76 31 L 77 30 L 77 28 L 78 27 L 78 25 L 79 24 L 79 22 L 80 21 L 80 20 L 81 19 L 81 16 z" />
<g id="2">
<path d="M 7 1221 L 274 1221 L 275 1222 L 275 1406 L 274 1407 L 7 1407 L 5 1405 L 5 1223 z" />
<path d="M 7 1212 L 274 1212 L 275 1213 L 275 1215 L 274 1216 L 7 1216 L 5 1214 z" />
<path d="M 282 1209 L 313 1209 L 315 1211 L 315 1406 L 314 1407 L 282 1407 L 280 1405 L 280 1211 z" />
<path d="M 8 1105 L 9 1104 L 272 1104 L 273 1105 L 273 1203 L 272 1204 L 9 1204 L 8 1203 z" />
<path d="M 280 1098 L 311 1098 L 312 1099 L 312 1203 L 311 1204 L 279 1204 L 278 1203 L 278 1100 z" />
<path d="M 8 1097 L 9 1096 L 272 1096 L 273 1097 L 273 1098 L 272 1099 L 9 1099 L 8 1098 z" />
<path d="M 12 991 L 268 991 L 270 993 L 270 1090 L 269 1091 L 12 1091 L 10 1089 L 10 993 z" />
<path d="M 277 988 L 307 988 L 308 989 L 308 1092 L 307 1093 L 279 1093 L 278 1092 L 278 1091 L 276 1091 L 275 1090 L 275 990 z" />
<path d="M 12 983 L 268 983 L 270 985 L 269 986 L 11 986 L 10 985 z" />
<path d="M 15 883 L 266 883 L 268 885 L 268 977 L 267 978 L 14 978 L 13 977 L 13 885 z" />
<path d="M 275 882 L 303 882 L 305 884 L 305 982 L 304 983 L 276 983 L 275 982 L 275 979 L 273 977 L 273 884 z" />
<path d="M 14 877 L 15 876 L 267 876 L 268 877 L 267 878 L 15 878 z" />
<path d="M 272 780 L 299 780 L 301 782 L 301 876 L 300 877 L 274 877 L 273 876 L 273 871 L 272 871 L 270 869 L 270 782 z" />
<path d="M 18 780 L 264 780 L 265 781 L 265 870 L 264 871 L 17 871 L 16 870 L 16 782 z" />
<path d="M 16 774 L 17 773 L 264 773 L 265 774 L 264 775 L 17 775 z" />
<path d="M 269 683 L 295 683 L 296 684 L 296 774 L 295 775 L 271 775 L 270 774 L 270 768 L 269 768 L 267 766 L 267 685 z" />
<path d="M 20 683 L 261 683 L 262 684 L 262 767 L 261 768 L 20 768 L 18 766 L 18 685 z" />
<path d="M 265 592 L 266 591 L 291 591 L 292 592 L 292 677 L 291 678 L 269 678 L 267 676 L 267 671 L 265 669 z" />
<path d="M 23 591 L 258 591 L 260 593 L 260 669 L 259 670 L 22 670 L 21 669 L 21 593 z" />
<path d="M 21 585 L 22 584 L 259 584 L 260 585 L 259 586 L 22 586 z" />
<path d="M 25 505 L 256 505 L 257 506 L 257 578 L 256 579 L 25 579 L 23 577 L 23 507 z" />
<path d="M 264 504 L 286 504 L 287 505 L 287 585 L 286 586 L 266 586 L 265 585 L 265 579 L 264 579 L 262 577 L 262 506 z" />
<path d="M 24 500 L 25 499 L 256 499 L 257 500 L 256 501 L 25 501 z" />
<path d="M 28 427 L 254 427 L 255 428 L 255 493 L 254 494 L 28 494 L 26 492 L 26 429 z" />
<path d="M 262 424 L 281 424 L 283 426 L 283 498 L 282 499 L 263 499 L 262 498 L 262 494 L 261 494 L 260 493 L 260 426 z" />
<path d="M 27 421 L 28 420 L 254 420 L 255 421 L 254 422 L 28 422 z" />
<path d="M 31 355 L 251 355 L 252 356 L 252 414 L 251 415 L 30 415 L 29 414 L 29 357 z" />
<path d="M 259 352 L 278 352 L 279 353 L 279 418 L 278 419 L 261 419 L 260 418 L 260 416 L 259 416 L 257 414 L 257 354 z" />
<path d="M 29 350 L 30 349 L 251 349 L 252 350 L 251 351 L 30 351 z" />
<path d="M 33 292 L 248 292 L 250 294 L 250 343 L 249 344 L 32 344 L 31 343 L 31 294 z" />
<path d="M 257 287 L 273 287 L 275 289 L 275 346 L 274 347 L 259 347 L 255 343 L 255 289 z" />
<path d="M 31 287 L 32 286 L 249 286 L 250 287 L 249 288 L 32 288 z" />
<path d="M 34 238 L 35 237 L 246 237 L 247 238 L 247 280 L 246 281 L 35 281 L 34 280 z" />
<path d="M 254 231 L 269 231 L 270 232 L 270 281 L 269 282 L 254 282 L 252 280 L 252 233 z" />
<path d="M 34 232 L 35 231 L 246 231 L 247 232 L 246 233 L 35 233 z" />
<path d="M 38 190 L 243 190 L 244 191 L 244 225 L 243 226 L 37 226 L 36 225 L 36 192 z" />
<path d="M 251 184 L 266 184 L 267 185 L 267 225 L 266 226 L 250 226 L 249 225 L 249 186 z" />
<path d="M 36 185 L 37 184 L 243 184 L 244 185 L 243 186 L 37 186 z" />
<path d="M 39 154 L 40 153 L 240 153 L 241 154 L 241 178 L 240 179 L 40 179 L 39 178 z" />
<path d="M 248 148 L 263 148 L 264 149 L 264 178 L 263 179 L 247 179 L 246 178 L 246 150 z" />
<path d="M 228 33 L 229 32 L 230 33 L 230 42 L 231 43 L 231 56 L 232 57 L 232 69 L 233 70 L 233 83 L 234 84 L 234 97 L 235 98 L 235 111 L 236 112 L 236 125 L 237 126 L 237 139 L 238 140 L 238 141 L 236 143 L 202 143 L 201 142 L 201 139 L 202 138 L 202 135 L 203 134 L 203 131 L 204 130 L 204 127 L 205 126 L 205 123 L 206 122 L 206 119 L 207 118 L 207 115 L 208 114 L 208 111 L 209 110 L 209 108 L 210 107 L 210 104 L 211 103 L 211 100 L 212 99 L 212 96 L 213 95 L 213 92 L 214 91 L 214 88 L 215 87 L 215 84 L 216 83 L 216 80 L 217 79 L 217 76 L 218 75 L 218 73 L 219 72 L 219 69 L 220 68 L 220 65 L 221 64 L 221 61 L 222 60 L 222 57 L 223 56 L 223 53 L 224 52 L 224 49 L 225 48 L 225 45 L 226 44 L 226 42 L 227 41 L 227 38 L 228 37 z" />
<path d="M 179 30 L 180 29 L 181 30 L 181 38 L 182 39 L 182 46 L 183 47 L 183 54 L 184 55 L 184 63 L 185 64 L 185 71 L 186 72 L 186 79 L 187 80 L 187 87 L 188 88 L 188 96 L 189 97 L 189 104 L 190 105 L 190 112 L 191 113 L 191 120 L 192 121 L 192 129 L 193 130 L 193 137 L 194 138 L 194 141 L 192 143 L 154 143 L 152 141 L 152 140 L 153 139 L 153 136 L 154 135 L 154 132 L 155 131 L 155 128 L 156 127 L 156 124 L 157 123 L 157 120 L 158 119 L 158 116 L 159 115 L 159 112 L 160 111 L 160 108 L 161 107 L 161 104 L 162 103 L 162 100 L 163 99 L 163 96 L 164 95 L 164 91 L 165 90 L 165 87 L 166 86 L 166 83 L 167 82 L 167 79 L 168 78 L 168 75 L 169 74 L 169 71 L 170 70 L 170 67 L 171 66 L 171 63 L 172 62 L 172 59 L 173 58 L 173 55 L 174 54 L 174 51 L 175 50 L 175 47 L 176 46 L 176 43 L 177 42 L 177 39 L 178 38 L 178 35 L 179 34 z" />
<path d="M 132 28 L 133 27 L 134 28 L 134 37 L 135 38 L 135 46 L 136 47 L 136 56 L 137 57 L 137 65 L 138 66 L 138 74 L 139 75 L 139 84 L 140 85 L 140 93 L 141 94 L 141 103 L 142 104 L 142 112 L 143 113 L 143 122 L 144 123 L 144 131 L 145 132 L 145 140 L 146 141 L 144 143 L 99 143 L 98 142 L 98 140 L 99 139 L 99 137 L 100 136 L 100 133 L 101 132 L 101 130 L 102 129 L 102 127 L 103 126 L 103 124 L 104 123 L 104 120 L 105 119 L 105 117 L 106 116 L 106 114 L 107 113 L 107 111 L 108 110 L 108 107 L 109 106 L 109 104 L 110 103 L 110 101 L 111 100 L 111 97 L 112 96 L 112 94 L 113 93 L 113 91 L 114 90 L 114 88 L 115 87 L 115 84 L 116 83 L 116 81 L 117 80 L 117 78 L 118 77 L 118 75 L 119 74 L 119 71 L 120 70 L 120 68 L 121 67 L 121 65 L 122 64 L 122 62 L 123 61 L 123 58 L 124 57 L 124 55 L 125 54 L 125 52 L 126 51 L 126 49 L 127 48 L 127 45 L 128 44 L 128 42 L 129 41 L 129 39 L 130 38 L 130 36 L 131 35 L 131 32 L 132 31 z" />
<path d="M 82 29 L 83 28 L 84 29 L 84 42 L 85 43 L 85 57 L 86 58 L 86 72 L 87 73 L 87 86 L 88 87 L 88 101 L 89 102 L 89 116 L 90 117 L 90 131 L 91 132 L 91 142 L 90 143 L 46 143 L 45 142 L 45 139 L 46 138 L 46 136 L 47 135 L 47 133 L 48 132 L 48 130 L 49 129 L 49 127 L 50 126 L 50 124 L 51 123 L 51 121 L 52 120 L 52 118 L 53 117 L 53 115 L 54 114 L 54 112 L 55 111 L 55 109 L 56 108 L 56 106 L 57 105 L 57 103 L 58 102 L 58 100 L 59 99 L 59 97 L 60 96 L 60 94 L 61 93 L 61 92 L 62 91 L 62 89 L 63 88 L 63 86 L 64 85 L 64 83 L 65 82 L 65 80 L 66 79 L 66 77 L 67 76 L 67 74 L 68 73 L 68 71 L 69 70 L 69 68 L 70 67 L 70 65 L 71 64 L 71 62 L 72 61 L 72 59 L 73 58 L 73 56 L 74 55 L 74 53 L 75 52 L 75 50 L 76 49 L 76 47 L 77 46 L 77 44 L 78 43 L 78 41 L 79 40 L 79 38 L 80 37 L 80 35 L 81 34 L 81 32 L 82 31 z" />
<path d="M 234 17 L 235 16 L 248 16 L 249 17 L 249 18 L 250 19 L 250 27 L 251 28 L 251 37 L 252 38 L 252 46 L 253 47 L 253 56 L 254 57 L 254 65 L 255 66 L 255 74 L 256 75 L 256 84 L 257 85 L 257 93 L 258 94 L 258 103 L 259 104 L 259 112 L 260 113 L 260 122 L 261 123 L 261 131 L 262 132 L 262 140 L 263 141 L 263 142 L 262 143 L 244 143 L 243 142 L 243 139 L 242 138 L 242 125 L 241 124 L 241 111 L 240 110 L 240 97 L 239 96 L 239 83 L 238 82 L 238 70 L 237 69 L 237 56 L 236 55 L 236 42 L 235 41 L 235 28 L 234 27 z" />
<path d="M 184 17 L 185 16 L 227 16 L 228 17 L 227 18 L 227 20 L 226 21 L 226 24 L 225 25 L 225 28 L 224 29 L 224 32 L 223 33 L 223 36 L 222 37 L 222 40 L 221 41 L 221 44 L 220 45 L 220 48 L 219 49 L 219 52 L 218 53 L 218 55 L 217 56 L 217 59 L 216 60 L 216 63 L 215 64 L 215 67 L 214 68 L 214 71 L 213 72 L 213 75 L 212 76 L 212 79 L 211 80 L 211 83 L 210 84 L 210 86 L 209 87 L 209 90 L 208 91 L 208 94 L 207 95 L 207 98 L 206 99 L 206 102 L 205 103 L 205 106 L 204 107 L 204 110 L 203 111 L 203 114 L 202 115 L 202 118 L 201 119 L 201 121 L 200 122 L 200 125 L 199 126 L 199 130 L 198 131 L 197 130 L 197 121 L 196 120 L 196 113 L 195 112 L 195 105 L 194 104 L 194 96 L 193 95 L 193 88 L 192 87 L 192 80 L 191 79 L 191 72 L 190 71 L 190 63 L 189 62 L 189 55 L 188 54 L 188 47 L 187 46 L 187 39 L 186 38 L 186 30 L 185 29 L 185 22 L 184 21 z" />
<path d="M 139 16 L 176 16 L 177 17 L 177 21 L 176 22 L 176 25 L 175 26 L 175 29 L 174 30 L 174 33 L 173 34 L 173 37 L 172 38 L 172 41 L 171 42 L 171 45 L 170 46 L 170 49 L 169 50 L 169 53 L 168 54 L 168 57 L 167 58 L 167 61 L 166 62 L 166 66 L 165 67 L 165 70 L 164 71 L 164 74 L 163 75 L 163 78 L 162 79 L 162 82 L 161 83 L 161 86 L 160 87 L 160 90 L 159 91 L 159 94 L 158 95 L 158 98 L 157 99 L 157 102 L 156 103 L 156 106 L 155 107 L 155 110 L 154 111 L 154 114 L 153 115 L 153 118 L 152 119 L 152 122 L 151 123 L 151 128 L 150 129 L 149 128 L 149 122 L 148 121 L 148 113 L 147 112 L 147 103 L 146 102 L 146 94 L 145 93 L 145 85 L 144 84 L 144 75 L 143 74 L 143 66 L 142 65 L 142 56 L 141 55 L 141 47 L 140 46 L 140 37 L 139 36 L 139 28 L 138 27 L 138 19 L 137 18 z" />
<path d="M 88 17 L 89 16 L 129 16 L 130 17 L 130 21 L 129 22 L 129 24 L 128 25 L 128 27 L 127 28 L 127 31 L 126 32 L 126 34 L 125 35 L 125 37 L 124 38 L 124 40 L 123 41 L 123 44 L 122 45 L 122 47 L 121 48 L 121 50 L 120 51 L 120 53 L 119 54 L 119 57 L 118 58 L 118 60 L 117 61 L 117 63 L 116 64 L 116 66 L 115 67 L 115 70 L 114 71 L 114 73 L 113 74 L 113 76 L 112 77 L 112 79 L 111 80 L 111 83 L 110 84 L 110 86 L 109 87 L 109 89 L 108 90 L 108 92 L 107 93 L 107 96 L 106 97 L 106 99 L 105 100 L 105 102 L 104 103 L 104 105 L 103 106 L 103 109 L 102 110 L 102 112 L 101 113 L 101 115 L 100 116 L 100 119 L 99 120 L 99 122 L 98 123 L 98 125 L 97 126 L 97 129 L 96 130 L 95 129 L 95 117 L 94 116 L 94 102 L 93 101 L 93 87 L 92 86 L 92 73 L 91 72 L 91 58 L 90 57 L 90 43 L 89 42 L 89 29 L 88 28 z" />
<path d="M 44 121 L 45 120 L 46 121 L 46 124 L 45 125 L 44 124 z" />
<path d="M 53 17 L 54 16 L 80 16 L 81 17 L 81 19 L 80 20 L 80 21 L 79 22 L 79 24 L 78 25 L 78 27 L 77 28 L 77 30 L 76 31 L 76 33 L 75 34 L 75 36 L 74 37 L 74 39 L 73 40 L 73 42 L 72 43 L 72 45 L 71 46 L 71 48 L 70 49 L 70 51 L 69 52 L 69 54 L 68 55 L 68 57 L 67 58 L 67 60 L 66 61 L 66 63 L 65 64 L 65 66 L 64 67 L 64 69 L 63 70 L 63 72 L 62 73 L 62 75 L 61 76 L 61 78 L 60 79 L 60 81 L 59 82 L 59 84 L 58 85 L 58 87 L 57 88 L 57 90 L 56 91 L 56 93 L 55 94 L 55 96 L 54 97 L 54 99 L 53 100 L 53 102 L 52 103 L 52 105 L 51 106 L 51 108 L 50 109 L 50 110 L 49 111 L 49 113 L 48 114 L 48 116 L 47 117 L 47 120 L 46 121 L 45 120 L 45 113 L 46 112 L 46 100 L 47 99 L 47 87 L 48 86 L 48 73 L 49 72 L 49 60 L 50 59 L 50 47 L 51 46 L 51 34 L 52 33 L 52 21 L 53 20 z" />
</g>
</g>
</svg>
</svg>