<?xml version="1.0" encoding="UTF-8"?>
<svg xmlns="http://www.w3.org/2000/svg" xmlns:xlink="http://www.w3.org/1999/xlink"
     width="251" height="1891" viewBox="0 0 251 1891">
<defs>
</defs>
<svg id="0" fill="grey" stroke="black">
<path d="M 10 0 L 10 664 L 8 666 L 8 667 L 7 668 L 7 669 L 6 670 L 6 671 L 5 672 L 5 673 L 4 674 L 4 675 L 3 676 L 3 677 L 2 678 L 2 679 L 1 680 L 1 681 L 0 682 L 0 1889 L 1 1890 L 250 1890 L 250 317 L 246 313 L 246 312 L 228 294 L 227 294 L 224 291 L 223 291 L 221 289 L 221 63 L 220 62 L 220 61 L 219 60 L 219 59 L 217 57 L 217 56 L 215 54 L 215 53 L 213 51 L 213 50 L 203 40 L 202 40 L 198 36 L 195 36 L 194 35 L 192 35 L 192 36 L 191 37 L 187 37 L 186 38 L 181 38 L 180 39 L 176 39 L 175 40 L 172 40 L 171 41 L 167 41 L 166 42 L 162 42 L 161 43 L 158 43 L 157 44 L 153 44 L 152 45 L 147 45 L 146 44 L 144 44 L 143 43 L 142 43 L 141 42 L 140 42 L 139 41 L 138 41 L 137 40 L 136 40 L 135 39 L 133 39 L 132 38 L 131 38 L 130 37 L 129 37 L 128 36 L 126 36 L 125 35 L 124 35 L 123 34 L 122 34 L 121 33 L 119 33 L 118 32 L 117 32 L 116 31 L 114 31 L 113 30 L 111 30 L 110 29 L 109 29 L 108 28 L 106 28 L 105 27 L 103 27 L 102 26 L 101 26 L 100 25 L 98 25 L 97 24 L 95 24 L 94 23 L 92 23 L 91 22 L 89 22 L 88 21 L 86 21 L 85 20 L 83 20 L 82 19 L 80 19 L 79 18 L 77 18 L 76 17 L 74 17 L 73 16 L 71 16 L 70 15 L 68 15 L 67 14 L 64 14 L 63 13 L 61 13 L 60 12 L 58 12 L 57 11 L 54 11 L 53 10 L 51 10 L 50 9 L 47 9 L 46 8 L 43 8 L 42 7 L 40 7 L 39 6 L 36 6 L 35 5 L 32 5 L 31 4 L 28 4 L 27 3 L 24 3 L 23 2 L 20 2 L 19 1 L 16 1 L 15 0 z" />
<path d="M 10 1 L 11 0 L 15 0 L 16 1 L 19 1 L 20 2 L 23 2 L 24 3 L 27 3 L 28 4 L 31 4 L 32 5 L 35 5 L 36 6 L 39 6 L 40 7 L 42 7 L 43 8 L 46 8 L 47 9 L 50 9 L 51 10 L 53 10 L 54 11 L 57 11 L 58 12 L 60 12 L 61 13 L 63 13 L 64 14 L 67 14 L 68 15 L 70 15 L 71 16 L 73 16 L 74 17 L 76 17 L 77 18 L 79 18 L 80 19 L 82 19 L 83 20 L 85 20 L 86 21 L 88 21 L 89 22 L 91 22 L 92 23 L 94 23 L 95 24 L 97 24 L 98 25 L 100 25 L 101 26 L 102 26 L 103 27 L 105 27 L 106 28 L 108 28 L 109 29 L 110 29 L 111 30 L 113 30 L 114 31 L 116 31 L 117 32 L 118 32 L 119 33 L 121 33 L 122 34 L 123 34 L 124 35 L 125 35 L 126 36 L 128 36 L 129 37 L 130 37 L 131 38 L 132 38 L 133 39 L 135 39 L 136 40 L 137 40 L 138 41 L 139 41 L 140 42 L 141 42 L 142 43 L 143 43 L 144 44 L 146 44 L 147 45 L 152 45 L 153 44 L 157 44 L 158 43 L 161 43 L 162 42 L 166 42 L 167 41 L 171 41 L 172 40 L 175 40 L 176 39 L 180 39 L 181 38 L 186 38 L 187 37 L 192 37 L 192 36 L 193 35 L 194 35 L 195 36 L 198 36 L 199 37 L 199 38 L 200 39 L 201 39 L 214 52 L 214 53 L 216 55 L 216 56 L 218 58 L 218 59 L 220 61 L 220 62 L 221 63 L 221 289 L 225 293 L 226 293 L 234 301 L 235 301 L 237 303 L 237 304 L 247 314 L 247 315 L 250 318 L 250 1889 L 249 1890 L 1 1890 L 0 1889 L 0 682 L 1 681 L 1 680 L 2 679 L 2 678 L 3 677 L 3 676 L 4 675 L 4 674 L 5 673 L 5 672 L 6 671 L 6 670 L 7 669 L 7 668 L 9 666 L 9 665 L 10 664 z" />
<g id="1">
<path d="M 176 1696 L 176 1697 L 175 1698 L 175 1883 L 177 1885 L 183 1885 L 185 1883 L 185 1697 L 184 1696 z" />
<path d="M 165 1696 L 164 1697 L 164 1884 L 165 1884 L 166 1885 L 172 1885 L 173 1884 L 173 1696 z" />
<path d="M 131 1696 L 131 1884 L 132 1885 L 138 1885 L 139 1884 L 140 1884 L 140 1697 L 141 1696 L 142 1697 L 142 1884 L 143 1885 L 150 1885 L 151 1884 L 152 1885 L 153 1884 L 154 1885 L 161 1885 L 162 1884 L 162 1696 L 154 1696 L 153 1697 L 152 1696 L 141 1696 L 140 1697 L 139 1696 z" />
<path d="M 109 1696 L 108 1697 L 108 1883 L 110 1885 L 116 1885 L 117 1884 L 117 1696 z" />
<path d="M 75 1696 L 75 1884 L 76 1885 L 83 1885 L 84 1884 L 85 1885 L 86 1884 L 87 1885 L 94 1885 L 95 1884 L 95 1697 L 96 1696 L 97 1697 L 97 1884 L 98 1884 L 99 1885 L 105 1885 L 106 1884 L 106 1696 L 98 1696 L 97 1697 L 96 1696 L 85 1696 L 84 1697 L 83 1696 z" />
<path d="M 176 1682 L 176 1683 L 175 1684 L 175 1689 L 176 1690 L 176 1691 L 183 1691 L 184 1690 L 184 1683 L 183 1682 z" />
<path d="M 165 1682 L 164 1683 L 164 1690 L 165 1691 L 173 1691 L 173 1682 z" />
<path d="M 142 1682 L 142 1691 L 162 1691 L 162 1682 z" />
<path d="M 131 1682 L 131 1691 L 140 1691 L 140 1682 z" />
<path d="M 109 1682 L 108 1683 L 108 1690 L 109 1691 L 117 1691 L 117 1682 z" />
<path d="M 97 1682 L 97 1691 L 106 1691 L 106 1682 z" />
<path d="M 77 1682 L 76 1683 L 76 1690 L 77 1691 L 95 1691 L 95 1682 z" />
<path d="M 177 1483 L 175 1485 L 175 1675 L 176 1676 L 176 1677 L 184 1677 L 185 1676 L 185 1485 L 183 1483 z" />
<path d="M 166 1483 L 165 1484 L 164 1484 L 164 1676 L 165 1677 L 173 1677 L 173 1484 L 172 1483 z" />
<path d="M 132 1483 L 131 1484 L 131 1677 L 139 1677 L 140 1676 L 141 1677 L 152 1677 L 153 1676 L 154 1677 L 162 1677 L 162 1484 L 161 1483 L 155 1483 L 154 1484 L 153 1484 L 152 1483 L 151 1484 L 150 1484 L 149 1483 L 144 1483 L 143 1484 L 142 1484 L 142 1676 L 141 1677 L 140 1676 L 140 1484 L 139 1484 L 138 1483 z" />
<path d="M 110 1483 L 109 1484 L 108 1484 L 108 1676 L 109 1677 L 117 1677 L 117 1484 L 116 1483 z" />
<path d="M 76 1483 L 75 1484 L 75 1677 L 83 1677 L 84 1676 L 85 1677 L 96 1677 L 97 1676 L 98 1677 L 106 1677 L 106 1484 L 105 1483 L 99 1483 L 98 1484 L 97 1484 L 97 1676 L 96 1677 L 95 1676 L 95 1484 L 94 1484 L 93 1483 L 88 1483 L 87 1484 L 86 1484 L 85 1483 L 84 1484 L 83 1484 L 82 1483 z" />
<path d="M 176 1469 L 176 1470 L 175 1471 L 175 1477 L 176 1478 L 184 1478 L 184 1471 L 182 1469 z" />
<path d="M 166 1469 L 164 1471 L 164 1478 L 173 1478 L 173 1469 z" />
<path d="M 132 1469 L 131 1470 L 131 1478 L 140 1478 L 140 1470 L 141 1469 L 142 1470 L 142 1478 L 162 1478 L 162 1470 L 161 1469 L 154 1469 L 153 1470 L 152 1469 L 151 1470 L 150 1469 L 143 1469 L 142 1470 L 141 1469 L 140 1470 L 139 1469 z" />
<path d="M 120 1469 L 120 1484 L 121 1483 L 127 1483 L 129 1485 L 129 1675 L 127 1677 L 121 1677 L 120 1676 L 120 1683 L 121 1682 L 127 1682 L 129 1684 L 129 1689 L 127 1691 L 121 1691 L 120 1690 L 120 1697 L 121 1696 L 127 1696 L 129 1698 L 129 1883 L 127 1885 L 121 1885 L 120 1884 L 121 1885 L 127 1885 L 129 1883 L 129 1697 L 128 1696 L 121 1696 L 120 1695 L 120 1692 L 121 1691 L 128 1691 L 129 1690 L 129 1683 L 128 1682 L 121 1682 L 120 1681 L 120 1678 L 121 1677 L 128 1677 L 129 1676 L 129 1484 L 128 1484 L 127 1483 L 121 1483 L 120 1482 L 120 1479 L 121 1478 L 129 1478 L 129 1471 L 127 1469 z" />
<path d="M 110 1469 L 108 1471 L 108 1478 L 117 1478 L 117 1469 z" />
<path d="M 78 1469 L 76 1471 L 76 1478 L 95 1478 L 95 1470 L 96 1469 L 97 1470 L 97 1478 L 106 1478 L 106 1470 L 105 1469 L 98 1469 L 97 1470 L 96 1469 L 95 1470 L 94 1469 L 87 1469 L 86 1470 L 85 1469 L 84 1470 L 83 1469 z" />
<path d="M 177 1451 L 175 1453 L 175 1459 L 177 1461 L 182 1461 L 183 1460 L 184 1460 L 184 1453 L 182 1451 z" />
<path d="M 166 1451 L 165 1452 L 164 1452 L 164 1460 L 165 1460 L 166 1461 L 172 1461 L 173 1460 L 173 1452 L 172 1451 z" />
<path d="M 143 1451 L 142 1452 L 142 1460 L 143 1460 L 144 1461 L 149 1461 L 150 1460 L 151 1460 L 152 1461 L 153 1460 L 154 1460 L 155 1461 L 161 1461 L 162 1460 L 162 1452 L 161 1451 L 155 1451 L 154 1452 L 153 1452 L 152 1451 L 151 1452 L 150 1451 z" />
<path d="M 132 1451 L 131 1452 L 131 1460 L 132 1461 L 138 1461 L 139 1460 L 140 1460 L 140 1452 L 139 1452 L 138 1451 z" />
<path d="M 110 1451 L 108 1453 L 108 1460 L 109 1460 L 110 1461 L 116 1461 L 117 1460 L 117 1452 L 116 1451 z" />
<path d="M 99 1451 L 98 1452 L 97 1452 L 97 1460 L 98 1460 L 99 1461 L 105 1461 L 106 1460 L 106 1452 L 105 1451 z" />
<path d="M 78 1451 L 77 1452 L 76 1452 L 76 1460 L 77 1460 L 78 1461 L 82 1461 L 83 1460 L 84 1460 L 85 1461 L 86 1460 L 87 1460 L 88 1461 L 93 1461 L 94 1460 L 95 1460 L 95 1452 L 94 1451 L 87 1451 L 86 1452 L 85 1451 L 84 1452 L 83 1452 L 82 1451 z" />
<path d="M 176 1256 L 176 1257 L 175 1258 L 175 1445 L 176 1446 L 184 1446 L 185 1445 L 185 1258 L 184 1257 L 184 1256 z" />
<path d="M 165 1256 L 164 1257 L 164 1446 L 173 1446 L 173 1256 z" />
<path d="M 131 1256 L 131 1446 L 140 1446 L 140 1257 L 141 1256 L 142 1257 L 142 1446 L 162 1446 L 162 1256 L 154 1256 L 153 1257 L 152 1256 L 151 1257 L 150 1256 L 141 1256 L 140 1257 L 139 1256 z" />
<path d="M 109 1256 L 108 1257 L 108 1445 L 109 1446 L 117 1446 L 117 1256 z" />
<path d="M 75 1256 L 75 1446 L 95 1446 L 95 1257 L 96 1256 L 97 1257 L 97 1446 L 106 1446 L 106 1256 L 98 1256 L 97 1257 L 96 1256 L 87 1256 L 86 1257 L 85 1256 L 84 1257 L 83 1256 z" />
<path d="M 176 1242 L 176 1243 L 175 1244 L 175 1250 L 176 1251 L 183 1251 L 184 1250 L 184 1243 L 183 1242 z" />
<path d="M 165 1242 L 164 1243 L 164 1250 L 165 1251 L 173 1251 L 173 1242 z" />
<path d="M 131 1242 L 131 1251 L 140 1251 L 140 1243 L 141 1242 L 142 1243 L 142 1251 L 162 1251 L 162 1242 L 141 1242 L 140 1243 L 139 1242 z" />
<path d="M 120 1242 L 120 1257 L 121 1256 L 127 1256 L 129 1258 L 129 1445 L 128 1446 L 121 1446 L 120 1445 L 120 1460 L 121 1461 L 127 1461 L 128 1460 L 129 1460 L 129 1453 L 127 1451 L 121 1451 L 120 1450 L 120 1447 L 121 1446 L 128 1446 L 129 1445 L 129 1257 L 128 1256 L 121 1256 L 120 1255 L 120 1252 L 121 1251 L 128 1251 L 129 1250 L 129 1243 L 128 1242 z" />
<path d="M 109 1242 L 108 1243 L 108 1250 L 109 1251 L 117 1251 L 117 1242 z" />
<path d="M 77 1242 L 76 1243 L 76 1250 L 77 1251 L 95 1251 L 95 1243 L 96 1242 L 97 1243 L 97 1251 L 106 1251 L 106 1242 L 98 1242 L 97 1243 L 96 1242 z" />
<path d="M 177 1223 L 175 1225 L 175 1231 L 177 1233 L 182 1233 L 183 1232 L 184 1232 L 184 1225 L 182 1223 z" />
<path d="M 166 1223 L 165 1224 L 164 1224 L 164 1232 L 165 1232 L 166 1233 L 172 1233 L 173 1232 L 173 1224 L 172 1223 z" />
<path d="M 143 1223 L 142 1224 L 142 1232 L 143 1232 L 144 1233 L 149 1233 L 150 1232 L 151 1232 L 152 1233 L 153 1232 L 154 1232 L 155 1233 L 161 1233 L 162 1232 L 162 1224 L 161 1223 L 155 1223 L 154 1224 L 153 1224 L 152 1223 L 151 1224 L 150 1223 z" />
<path d="M 132 1223 L 131 1224 L 131 1232 L 132 1233 L 138 1233 L 139 1232 L 140 1232 L 140 1224 L 139 1224 L 138 1223 z" />
<path d="M 121 1223 L 120 1224 L 120 1232 L 121 1233 L 127 1233 L 128 1232 L 129 1232 L 129 1225 L 127 1223 z" />
<path d="M 110 1223 L 108 1225 L 108 1232 L 109 1232 L 110 1233 L 116 1233 L 117 1232 L 117 1224 L 116 1223 z" />
<path d="M 99 1223 L 98 1224 L 97 1224 L 97 1232 L 98 1232 L 99 1233 L 105 1233 L 106 1232 L 106 1224 L 105 1223 z" />
<path d="M 78 1223 L 77 1224 L 76 1224 L 76 1232 L 77 1232 L 78 1233 L 82 1233 L 83 1232 L 84 1232 L 85 1233 L 86 1232 L 87 1232 L 88 1233 L 93 1233 L 94 1232 L 95 1232 L 95 1224 L 94 1223 L 87 1223 L 86 1224 L 85 1223 L 84 1224 L 83 1224 L 82 1223 z" />
<path d="M 177 1205 L 175 1207 L 175 1213 L 177 1215 L 182 1215 L 184 1213 L 184 1206 L 183 1206 L 182 1205 z" />
<path d="M 166 1205 L 165 1206 L 164 1206 L 164 1213 L 166 1215 L 172 1215 L 173 1214 L 173 1206 L 172 1206 L 171 1205 z" />
<path d="M 144 1205 L 143 1206 L 142 1206 L 142 1214 L 143 1215 L 150 1215 L 151 1214 L 152 1215 L 153 1214 L 154 1215 L 161 1215 L 162 1214 L 162 1206 L 161 1206 L 160 1205 L 155 1205 L 154 1206 L 150 1206 L 149 1205 z" />
<path d="M 133 1205 L 132 1206 L 131 1206 L 131 1214 L 132 1215 L 139 1215 L 140 1214 L 140 1206 L 139 1206 L 138 1205 z" />
<path d="M 110 1205 L 109 1206 L 108 1206 L 108 1213 L 110 1215 L 116 1215 L 117 1214 L 117 1206 L 116 1205 z" />
<path d="M 99 1205 L 98 1206 L 97 1206 L 97 1214 L 98 1215 L 105 1215 L 106 1214 L 106 1206 L 105 1206 L 104 1205 z" />
<path d="M 78 1205 L 77 1206 L 76 1206 L 76 1213 L 78 1215 L 83 1215 L 84 1214 L 85 1215 L 86 1214 L 87 1215 L 94 1215 L 95 1214 L 95 1206 L 94 1206 L 93 1205 L 88 1205 L 87 1206 L 83 1206 L 82 1205 z" />
<path d="M 176 1041 L 175 1042 L 175 1199 L 176 1200 L 184 1200 L 185 1199 L 185 1042 L 184 1041 z" />
<path d="M 164 1041 L 164 1200 L 173 1200 L 173 1041 z" />
<path d="M 142 1041 L 142 1200 L 162 1200 L 162 1041 z" />
<path d="M 131 1041 L 131 1200 L 140 1200 L 140 1041 z" />
<path d="M 108 1041 L 108 1200 L 117 1200 L 117 1041 z" />
<path d="M 97 1041 L 97 1200 L 106 1200 L 106 1041 z" />
<path d="M 75 1041 L 75 1200 L 95 1200 L 95 1041 z" />
<path d="M 177 1026 L 175 1028 L 175 1034 L 177 1036 L 182 1036 L 183 1035 L 184 1035 L 184 1028 L 182 1026 z" />
<path d="M 166 1026 L 165 1027 L 164 1027 L 164 1035 L 165 1035 L 166 1036 L 172 1036 L 173 1035 L 173 1027 L 172 1026 z" />
<path d="M 143 1026 L 142 1027 L 142 1035 L 143 1035 L 144 1036 L 149 1036 L 150 1035 L 151 1035 L 152 1036 L 153 1035 L 154 1035 L 155 1036 L 161 1036 L 162 1035 L 162 1027 L 161 1026 L 155 1026 L 154 1027 L 153 1027 L 152 1026 L 151 1027 L 150 1026 z" />
<path d="M 132 1026 L 131 1027 L 131 1035 L 132 1036 L 138 1036 L 139 1035 L 140 1035 L 140 1027 L 139 1027 L 138 1026 z" />
<path d="M 110 1026 L 108 1028 L 108 1035 L 109 1035 L 110 1036 L 116 1036 L 117 1035 L 117 1027 L 116 1026 z" />
<path d="M 99 1026 L 98 1027 L 97 1027 L 97 1035 L 98 1035 L 99 1036 L 105 1036 L 106 1035 L 106 1027 L 105 1026 z" />
<path d="M 78 1026 L 77 1027 L 76 1027 L 76 1035 L 77 1035 L 78 1036 L 82 1036 L 83 1035 L 84 1035 L 85 1036 L 86 1035 L 87 1035 L 88 1036 L 93 1036 L 94 1035 L 95 1035 L 95 1027 L 94 1026 L 87 1026 L 86 1027 L 85 1026 L 84 1027 L 83 1027 L 82 1026 z" />
<path d="M 177 857 L 175 859 L 175 1020 L 176 1021 L 184 1021 L 185 1020 L 185 859 L 183 857 z" />
<path d="M 166 857 L 164 859 L 164 1021 L 173 1021 L 173 858 L 172 857 z" />
<path d="M 143 857 L 142 858 L 142 1021 L 162 1021 L 162 858 L 161 857 L 154 857 L 153 858 L 152 857 L 151 858 L 150 857 z" />
<path d="M 132 857 L 131 858 L 131 1021 L 140 1021 L 140 858 L 139 857 z" />
<path d="M 110 857 L 108 859 L 108 1020 L 109 1021 L 117 1021 L 117 858 L 116 857 z" />
<path d="M 98 857 L 97 858 L 97 1021 L 106 1021 L 106 858 L 105 857 z" />
<path d="M 76 857 L 75 858 L 75 1021 L 95 1021 L 95 858 L 94 857 L 87 857 L 86 858 L 85 857 L 84 858 L 83 857 z" />
<path d="M 176 843 L 176 844 L 175 845 L 175 851 L 176 852 L 183 852 L 184 851 L 184 845 L 182 843 z" />
<path d="M 165 843 L 164 844 L 164 852 L 173 852 L 173 843 z" />
<path d="M 131 843 L 131 852 L 140 852 L 140 844 L 141 843 L 142 844 L 142 852 L 162 852 L 162 843 L 154 843 L 153 844 L 152 843 L 151 844 L 150 843 L 143 843 L 142 844 L 141 843 L 140 844 L 139 843 z" />
<path d="M 120 843 L 120 858 L 121 857 L 127 857 L 129 859 L 129 1020 L 128 1021 L 121 1021 L 120 1020 L 120 1027 L 121 1026 L 127 1026 L 129 1028 L 129 1034 L 127 1036 L 121 1036 L 120 1035 L 120 1042 L 121 1041 L 128 1041 L 129 1042 L 129 1199 L 128 1200 L 120 1200 L 120 1214 L 121 1215 L 127 1215 L 129 1213 L 129 1206 L 128 1206 L 127 1205 L 121 1205 L 120 1204 L 120 1201 L 121 1200 L 129 1200 L 129 1041 L 121 1041 L 120 1040 L 120 1037 L 121 1036 L 127 1036 L 128 1035 L 129 1035 L 129 1028 L 127 1026 L 121 1026 L 120 1025 L 120 1022 L 121 1021 L 128 1021 L 129 1020 L 129 859 L 127 857 L 121 857 L 120 856 L 120 853 L 121 852 L 128 852 L 129 851 L 129 845 L 127 843 z" />
<path d="M 110 843 L 108 845 L 108 851 L 109 852 L 117 852 L 117 843 z" />
<path d="M 77 843 L 76 844 L 76 852 L 95 852 L 95 844 L 96 843 L 97 844 L 97 852 L 106 852 L 106 843 L 98 843 L 97 844 L 96 843 L 95 844 L 94 843 L 87 843 L 86 844 L 85 843 L 84 844 L 83 843 z" />
<path d="M 176 825 L 175 826 L 175 832 L 176 833 L 176 834 L 182 834 L 184 832 L 184 826 L 183 825 z" />
<path d="M 164 825 L 164 832 L 166 834 L 173 834 L 173 825 z" />
<path d="M 131 825 L 131 834 L 139 834 L 140 833 L 141 834 L 142 833 L 143 834 L 150 834 L 151 833 L 152 834 L 153 833 L 154 834 L 161 834 L 162 833 L 162 825 L 142 825 L 142 833 L 141 834 L 140 833 L 140 825 z" />
<path d="M 120 825 L 120 834 L 127 834 L 129 832 L 129 826 L 128 825 z" />
<path d="M 109 825 L 108 826 L 108 832 L 110 834 L 117 834 L 117 825 z" />
<path d="M 76 825 L 76 832 L 78 834 L 83 834 L 84 833 L 85 834 L 86 833 L 87 834 L 94 834 L 95 833 L 96 834 L 97 833 L 98 834 L 106 834 L 106 825 L 97 825 L 97 833 L 96 834 L 95 833 L 95 825 z" />
<path d="M 176 807 L 175 808 L 175 814 L 176 815 L 176 816 L 183 816 L 184 815 L 184 808 L 183 807 z" />
<path d="M 164 807 L 164 815 L 165 816 L 173 816 L 173 807 z" />
<path d="M 131 807 L 131 816 L 139 816 L 140 815 L 141 816 L 150 816 L 151 815 L 152 816 L 153 815 L 154 816 L 162 816 L 162 807 L 142 807 L 142 815 L 141 816 L 140 815 L 140 807 z" />
<path d="M 109 807 L 108 808 L 108 815 L 109 816 L 117 816 L 117 807 z" />
<path d="M 76 807 L 76 815 L 77 816 L 83 816 L 84 815 L 85 816 L 86 815 L 87 816 L 96 816 L 97 815 L 98 816 L 106 816 L 106 807 L 97 807 L 97 815 L 96 816 L 95 815 L 95 807 z" />
<path d="M 176 647 L 175 648 L 175 800 L 176 801 L 176 802 L 183 802 L 185 800 L 185 648 L 184 647 z" />
<path d="M 165 647 L 164 648 L 164 800 L 166 802 L 173 802 L 173 647 z" />
<path d="M 131 647 L 131 801 L 132 802 L 139 802 L 140 801 L 141 802 L 142 801 L 143 802 L 150 802 L 151 801 L 152 802 L 153 801 L 154 802 L 161 802 L 162 801 L 162 647 L 142 647 L 142 801 L 141 802 L 140 801 L 140 647 z" />
<path d="M 109 647 L 108 648 L 108 800 L 110 802 L 117 802 L 117 647 z" />
<path d="M 75 647 L 75 801 L 76 802 L 83 802 L 84 801 L 85 802 L 86 801 L 87 802 L 94 802 L 95 801 L 96 802 L 97 801 L 98 802 L 105 802 L 106 801 L 106 647 L 97 647 L 97 801 L 96 802 L 95 801 L 95 647 z" />
<path d="M 176 633 L 175 634 L 175 640 L 176 641 L 176 642 L 182 642 L 184 640 L 184 634 L 183 633 z" />
<path d="M 164 633 L 164 641 L 165 642 L 173 642 L 173 633 z" />
<path d="M 131 633 L 131 642 L 139 642 L 140 641 L 141 642 L 142 641 L 143 642 L 150 642 L 151 641 L 152 642 L 153 641 L 154 642 L 162 642 L 162 633 L 142 633 L 142 641 L 141 642 L 140 641 L 140 633 z" />
<path d="M 109 633 L 108 634 L 108 640 L 110 642 L 117 642 L 117 633 z" />
<path d="M 76 633 L 76 641 L 77 642 L 83 642 L 84 641 L 85 642 L 86 641 L 87 642 L 94 642 L 95 641 L 96 642 L 97 641 L 98 642 L 106 642 L 106 633 L 97 633 L 97 641 L 96 642 L 95 641 L 95 633 z" />
<path d="M 48 633 L 46 635 L 45 635 L 42 638 L 41 638 L 38 641 L 37 641 L 21 657 L 21 658 L 18 661 L 18 662 L 16 664 L 16 665 L 14 667 L 14 668 L 12 670 L 12 671 L 11 672 L 11 673 L 10 674 L 10 675 L 9 676 L 9 677 L 8 678 L 8 679 L 7 680 L 7 682 L 6 683 L 6 1883 L 8 1885 L 49 1885 L 50 1884 L 50 633 z" />
<path d="M 177 490 L 175 492 L 175 626 L 177 628 L 183 628 L 185 626 L 185 492 L 183 490 z" />
<path d="M 166 490 L 165 491 L 164 491 L 164 626 L 166 628 L 172 628 L 173 627 L 173 491 L 172 490 z" />
<path d="M 143 490 L 142 491 L 142 627 L 143 628 L 150 628 L 151 627 L 152 628 L 153 627 L 154 628 L 161 628 L 162 627 L 162 491 L 161 490 L 155 490 L 154 491 L 153 491 L 152 490 L 151 491 L 150 490 z" />
<path d="M 132 490 L 131 491 L 131 627 L 132 628 L 139 628 L 140 627 L 140 491 L 139 491 L 138 490 z" />
<path d="M 110 490 L 108 492 L 108 626 L 110 628 L 116 628 L 117 627 L 117 491 L 116 490 z" />
<path d="M 99 490 L 98 491 L 97 491 L 97 627 L 98 628 L 105 628 L 106 627 L 106 491 L 105 490 z" />
<path d="M 76 490 L 75 491 L 75 627 L 76 628 L 83 628 L 84 627 L 85 628 L 86 627 L 87 628 L 94 628 L 95 627 L 95 491 L 94 490 L 87 490 L 86 491 L 85 490 L 84 491 L 83 491 L 82 490 z" />
<path d="M 176 476 L 176 477 L 175 478 L 175 484 L 176 485 L 183 485 L 184 484 L 184 478 L 182 476 z" />
<path d="M 166 476 L 164 478 L 164 485 L 173 485 L 173 476 z" />
<path d="M 131 476 L 131 485 L 140 485 L 140 477 L 141 476 L 142 477 L 142 485 L 162 485 L 162 477 L 161 476 L 154 476 L 153 477 L 152 476 L 151 477 L 150 476 L 143 476 L 142 477 L 141 476 L 140 477 L 139 476 z" />
<path d="M 120 476 L 120 491 L 121 490 L 127 490 L 129 492 L 129 626 L 127 628 L 121 628 L 120 627 L 120 634 L 121 633 L 128 633 L 129 634 L 129 640 L 127 642 L 121 642 L 120 641 L 120 648 L 121 647 L 128 647 L 129 648 L 129 800 L 127 802 L 121 802 L 120 801 L 120 816 L 128 816 L 129 815 L 129 808 L 128 807 L 121 807 L 120 806 L 120 803 L 121 802 L 127 802 L 129 800 L 129 648 L 128 647 L 121 647 L 120 646 L 120 643 L 121 642 L 127 642 L 129 640 L 129 634 L 128 633 L 121 633 L 120 632 L 120 629 L 121 628 L 127 628 L 129 626 L 129 492 L 127 490 L 121 490 L 120 489 L 120 486 L 121 485 L 128 485 L 129 484 L 129 478 L 127 476 z" />
<path d="M 110 476 L 108 478 L 108 484 L 109 485 L 117 485 L 117 476 z" />
<path d="M 78 476 L 76 478 L 76 485 L 95 485 L 95 477 L 96 476 L 97 477 L 97 485 L 106 485 L 106 476 L 98 476 L 97 477 L 96 476 L 95 477 L 94 476 L 87 476 L 86 477 L 85 476 L 84 477 L 83 476 z" />
<path d="M 177 458 L 175 460 L 175 466 L 176 467 L 184 467 L 184 460 L 182 458 z" />
<path d="M 166 458 L 164 460 L 164 467 L 173 467 L 173 459 L 172 458 z" />
<path d="M 143 458 L 142 459 L 142 467 L 162 467 L 162 459 L 161 458 L 154 458 L 153 459 L 152 458 L 151 459 L 150 458 z" />
<path d="M 132 458 L 131 459 L 131 467 L 140 467 L 140 459 L 139 458 z" />
<path d="M 110 458 L 108 460 L 108 467 L 117 467 L 117 459 L 116 458 z" />
<path d="M 98 458 L 97 459 L 97 467 L 106 467 L 106 459 L 105 458 z" />
<path d="M 78 458 L 76 460 L 76 467 L 95 467 L 95 459 L 94 458 L 87 458 L 86 459 L 85 458 L 84 459 L 83 458 z" />
<path d="M 220 297 L 220 1883 L 222 1885 L 244 1885 L 245 1884 L 245 320 L 243 318 L 243 317 L 224 298 L 223 298 L 222 297 z" />
<path d="M 57 234 L 55 236 L 55 1884 L 56 1884 L 57 1885 L 60 1885 L 62 1883 L 62 244 L 63 243 L 64 244 L 64 1884 L 65 1885 L 71 1885 L 72 1884 L 73 1884 L 73 1697 L 71 1695 L 71 1678 L 73 1676 L 73 1484 L 71 1482 L 71 1448 L 73 1446 L 73 1257 L 71 1255 L 71 1202 L 73 1200 L 73 1041 L 71 1039 L 71 1023 L 73 1021 L 73 859 L 72 858 L 72 857 L 71 856 L 71 803 L 72 802 L 72 801 L 73 800 L 73 648 L 72 647 L 72 646 L 71 645 L 71 629 L 72 628 L 72 627 L 73 626 L 73 491 L 71 489 L 71 455 L 73 453 L 73 248 L 74 247 L 75 248 L 75 453 L 95 453 L 95 255 L 96 254 L 97 255 L 97 453 L 106 453 L 106 259 L 107 258 L 108 259 L 108 452 L 109 453 L 117 453 L 117 263 L 118 262 L 119 262 L 118 262 L 117 263 L 117 452 L 116 453 L 109 453 L 108 452 L 108 258 L 106 258 L 106 452 L 105 453 L 98 453 L 97 452 L 97 254 L 95 254 L 95 452 L 94 453 L 87 453 L 86 452 L 86 250 L 84 250 L 84 452 L 83 453 L 76 453 L 75 452 L 75 247 L 73 247 L 73 452 L 72 453 L 72 454 L 71 455 L 71 490 L 73 492 L 73 626 L 71 628 L 71 645 L 72 646 L 72 647 L 73 648 L 73 800 L 72 801 L 72 802 L 71 803 L 71 857 L 73 859 L 73 1020 L 71 1022 L 71 1040 L 73 1042 L 73 1199 L 71 1201 L 71 1255 L 72 1256 L 72 1257 L 73 1258 L 73 1445 L 71 1447 L 71 1483 L 73 1485 L 73 1675 L 72 1676 L 72 1677 L 71 1678 L 71 1695 L 72 1696 L 72 1697 L 73 1698 L 73 1883 L 71 1885 L 65 1885 L 64 1884 L 64 244 L 63 243 L 62 243 L 62 1883 L 60 1885 L 57 1885 L 55 1883 L 55 236 L 57 234 L 58 235 L 64 235 L 65 236 L 70 236 L 71 237 L 76 237 L 77 238 L 81 238 L 82 239 L 85 239 L 86 240 L 90 240 L 91 241 L 94 241 L 95 242 L 98 242 L 99 243 L 102 243 L 103 244 L 106 244 L 107 245 L 110 245 L 111 246 L 113 246 L 114 247 L 117 247 L 118 248 L 120 248 L 121 249 L 123 249 L 124 250 L 127 250 L 128 251 L 130 251 L 131 252 L 133 252 L 134 253 L 136 253 L 137 254 L 139 254 L 140 255 L 142 255 L 143 256 L 145 256 L 146 257 L 148 257 L 149 258 L 150 258 L 151 259 L 153 259 L 154 260 L 155 260 L 156 261 L 158 261 L 159 262 L 161 262 L 162 263 L 163 263 L 164 264 L 165 264 L 166 265 L 168 265 L 169 266 L 170 266 L 171 267 L 172 267 L 173 268 L 175 268 L 177 270 L 178 270 L 179 271 L 180 271 L 181 272 L 182 272 L 183 273 L 185 273 L 187 275 L 188 275 L 189 276 L 190 276 L 191 277 L 192 277 L 193 278 L 194 278 L 196 280 L 197 280 L 198 281 L 199 281 L 201 283 L 202 283 L 204 285 L 205 285 L 207 287 L 208 287 L 210 289 L 211 289 L 215 293 L 215 1884 L 214 1885 L 211 1885 L 209 1883 L 209 291 L 207 291 L 207 1883 L 205 1885 L 199 1885 L 198 1884 L 198 288 L 197 287 L 196 288 L 196 1883 L 194 1885 L 188 1885 L 187 1884 L 187 1697 L 189 1695 L 189 1678 L 187 1676 L 187 1485 L 189 1483 L 189 1448 L 188 1447 L 188 1446 L 187 1445 L 187 1257 L 189 1255 L 189 1201 L 188 1201 L 187 1200 L 187 1042 L 189 1040 L 189 1023 L 188 1022 L 188 1021 L 187 1020 L 187 858 L 189 856 L 189 803 L 187 801 L 187 648 L 188 647 L 188 646 L 189 645 L 189 629 L 187 627 L 187 492 L 188 491 L 188 490 L 189 489 L 189 455 L 188 454 L 188 453 L 187 452 L 187 284 L 185 284 L 185 452 L 184 453 L 176 453 L 175 452 L 175 280 L 174 281 L 173 281 L 173 452 L 172 453 L 165 453 L 164 452 L 164 277 L 163 276 L 162 277 L 162 452 L 161 453 L 154 453 L 153 452 L 153 273 L 151 273 L 151 452 L 150 453 L 143 453 L 142 452 L 142 269 L 140 269 L 140 452 L 139 453 L 132 453 L 131 452 L 131 266 L 130 265 L 129 265 L 129 452 L 128 453 L 121 453 L 120 452 L 120 467 L 129 467 L 129 460 L 127 458 L 121 458 L 120 457 L 120 454 L 121 453 L 128 453 L 129 452 L 129 266 L 130 265 L 131 266 L 131 453 L 140 453 L 140 270 L 141 269 L 142 270 L 142 453 L 162 453 L 162 277 L 163 276 L 164 277 L 164 453 L 173 453 L 173 282 L 174 281 L 175 282 L 175 452 L 176 453 L 184 453 L 185 452 L 185 285 L 186 284 L 187 285 L 187 453 L 189 455 L 189 489 L 187 491 L 187 628 L 188 628 L 189 629 L 189 645 L 187 647 L 187 802 L 188 802 L 189 803 L 189 856 L 188 857 L 187 857 L 187 1021 L 189 1023 L 189 1039 L 187 1041 L 187 1200 L 189 1202 L 189 1255 L 188 1256 L 187 1256 L 187 1446 L 189 1448 L 189 1482 L 187 1484 L 187 1677 L 188 1677 L 189 1678 L 189 1694 L 187 1696 L 187 1884 L 188 1885 L 194 1885 L 195 1884 L 196 1884 L 196 288 L 197 287 L 198 288 L 198 1884 L 199 1885 L 206 1885 L 207 1884 L 208 1885 L 209 1884 L 210 1885 L 214 1885 L 215 1884 L 215 292 L 212 289 L 211 289 L 209 287 L 208 287 L 206 285 L 205 285 L 203 283 L 202 283 L 200 281 L 199 281 L 198 280 L 197 280 L 195 278 L 194 278 L 193 277 L 192 277 L 191 276 L 190 276 L 189 275 L 188 275 L 187 274 L 186 274 L 185 273 L 184 273 L 183 272 L 182 272 L 181 271 L 180 271 L 179 270 L 178 270 L 177 269 L 176 269 L 175 268 L 173 268 L 172 267 L 171 267 L 170 266 L 169 266 L 168 265 L 166 265 L 165 264 L 164 264 L 163 263 L 162 263 L 161 262 L 159 262 L 158 261 L 156 261 L 155 260 L 154 260 L 153 259 L 151 259 L 150 258 L 149 258 L 148 257 L 146 257 L 145 256 L 143 256 L 142 255 L 140 255 L 139 254 L 137 254 L 136 253 L 134 253 L 133 252 L 131 252 L 130 251 L 128 251 L 127 250 L 124 250 L 123 249 L 121 249 L 120 248 L 118 248 L 117 247 L 114 247 L 113 246 L 111 246 L 110 245 L 107 245 L 106 244 L 103 244 L 102 243 L 99 243 L 98 242 L 95 242 L 94 241 L 91 241 L 90 240 L 86 240 L 85 239 L 82 239 L 81 238 L 77 238 L 76 237 L 71 237 L 70 236 L 65 236 L 64 235 L 58 235 z" />
<path d="M 198 45 L 198 274 L 199 275 L 199 276 L 200 276 L 201 277 L 202 277 L 204 279 L 205 279 L 207 281 L 208 281 L 210 283 L 211 283 L 213 285 L 214 285 L 215 286 L 216 286 L 217 285 L 216 284 L 216 65 L 215 64 L 215 63 L 213 61 L 213 60 L 212 59 L 212 58 L 209 55 L 209 54 L 200 45 z" />
<path d="M 192 42 L 191 43 L 187 43 L 186 44 L 181 44 L 180 45 L 176 45 L 175 46 L 172 46 L 171 47 L 167 47 L 166 48 L 162 48 L 161 49 L 158 49 L 157 50 L 153 50 L 152 51 L 149 51 L 148 52 L 145 52 L 144 53 L 141 53 L 140 54 L 137 54 L 136 55 L 133 55 L 132 56 L 130 56 L 129 57 L 126 57 L 125 58 L 122 58 L 121 59 L 119 59 L 118 60 L 115 60 L 114 61 L 112 61 L 111 62 L 109 62 L 108 63 L 106 63 L 105 64 L 102 64 L 101 65 L 99 65 L 98 66 L 96 66 L 95 67 L 94 67 L 93 68 L 91 68 L 90 69 L 88 69 L 87 70 L 85 70 L 84 71 L 82 71 L 81 72 L 79 72 L 78 73 L 77 73 L 76 74 L 74 74 L 73 75 L 71 75 L 70 76 L 69 76 L 68 77 L 67 77 L 66 78 L 64 78 L 63 79 L 62 79 L 61 80 L 59 80 L 58 81 L 57 81 L 56 82 L 55 82 L 54 83 L 52 83 L 51 84 L 50 84 L 49 85 L 48 85 L 47 86 L 46 86 L 45 87 L 43 87 L 42 88 L 41 88 L 40 89 L 39 89 L 38 90 L 37 90 L 36 91 L 35 91 L 33 93 L 33 637 L 34 638 L 35 638 L 37 636 L 37 635 L 38 634 L 38 93 L 39 92 L 40 93 L 40 632 L 41 633 L 43 631 L 44 631 L 45 630 L 46 630 L 49 627 L 49 89 L 50 88 L 51 89 L 51 228 L 52 229 L 58 229 L 59 230 L 60 229 L 60 86 L 60 229 L 59 230 L 58 229 L 53 229 L 51 227 L 51 88 L 49 88 L 49 626 L 45 630 L 44 630 L 43 631 L 42 631 L 42 632 L 41 633 L 40 632 L 40 93 L 39 92 L 38 92 L 38 634 L 34 638 L 33 637 L 33 94 L 37 90 L 39 90 L 40 89 L 41 89 L 42 88 L 43 88 L 44 87 L 45 87 L 46 86 L 47 86 L 48 85 L 49 85 L 50 84 L 51 84 L 52 83 L 54 83 L 55 82 L 56 82 L 57 81 L 58 81 L 59 80 L 61 80 L 62 79 L 63 79 L 64 78 L 66 78 L 67 77 L 68 77 L 69 76 L 70 76 L 71 75 L 73 75 L 74 74 L 76 74 L 77 73 L 78 73 L 79 72 L 81 72 L 82 71 L 84 71 L 85 70 L 87 70 L 88 69 L 90 69 L 91 68 L 93 68 L 94 67 L 95 67 L 96 66 L 98 66 L 99 65 L 101 65 L 102 64 L 105 64 L 106 63 L 108 63 L 109 62 L 111 62 L 112 61 L 114 61 L 115 60 L 118 60 L 119 59 L 121 59 L 122 58 L 125 58 L 126 57 L 129 57 L 130 56 L 132 56 L 133 55 L 136 55 L 137 54 L 140 54 L 141 53 L 144 53 L 145 52 L 148 52 L 149 51 L 152 51 L 153 50 L 157 50 L 158 49 L 161 49 L 162 48 L 166 48 L 167 47 L 171 47 L 172 46 L 175 46 L 176 45 L 180 45 L 181 44 L 186 44 L 187 43 L 191 43 L 192 42 L 193 43 L 193 270 L 192 271 L 191 271 L 189 269 L 189 47 L 188 46 L 187 46 L 187 266 L 185 268 L 184 267 L 183 267 L 182 266 L 181 266 L 180 265 L 179 265 L 177 263 L 177 49 L 176 49 L 175 50 L 175 262 L 174 263 L 173 262 L 172 262 L 171 261 L 170 261 L 169 260 L 168 260 L 166 258 L 166 53 L 164 53 L 164 256 L 162 258 L 161 257 L 160 257 L 159 256 L 157 256 L 154 253 L 154 56 L 153 56 L 152 57 L 152 252 L 151 253 L 149 253 L 148 252 L 147 252 L 146 251 L 145 251 L 143 249 L 143 60 L 141 60 L 141 248 L 140 249 L 138 249 L 137 248 L 135 248 L 134 247 L 133 247 L 131 245 L 131 63 L 130 63 L 129 64 L 129 244 L 128 245 L 125 245 L 124 244 L 122 244 L 120 242 L 120 67 L 118 67 L 118 241 L 117 242 L 115 242 L 114 241 L 111 241 L 110 240 L 109 240 L 108 239 L 108 70 L 107 70 L 106 71 L 106 238 L 105 239 L 104 239 L 103 238 L 100 238 L 99 237 L 98 237 L 97 236 L 97 74 L 95 74 L 95 235 L 94 236 L 91 236 L 90 235 L 87 235 L 85 233 L 85 78 L 83 78 L 83 233 L 82 234 L 81 233 L 77 233 L 76 232 L 75 232 L 74 231 L 74 81 L 72 81 L 72 230 L 71 231 L 66 231 L 65 230 L 64 230 L 63 229 L 63 230 L 65 230 L 66 231 L 72 231 L 72 82 L 73 81 L 74 82 L 74 232 L 76 232 L 77 233 L 81 233 L 82 234 L 83 233 L 83 79 L 84 78 L 85 79 L 85 233 L 87 235 L 90 235 L 91 236 L 95 236 L 95 75 L 96 74 L 97 75 L 97 237 L 99 237 L 100 238 L 103 238 L 104 239 L 106 239 L 106 71 L 107 70 L 108 71 L 108 239 L 109 240 L 110 240 L 111 241 L 114 241 L 115 242 L 118 242 L 118 68 L 119 67 L 120 68 L 120 243 L 121 243 L 122 244 L 124 244 L 125 245 L 129 245 L 129 64 L 130 63 L 131 64 L 131 245 L 132 246 L 132 247 L 134 247 L 135 248 L 137 248 L 138 249 L 141 249 L 141 61 L 142 60 L 143 61 L 143 250 L 144 251 L 146 251 L 147 252 L 148 252 L 149 253 L 152 253 L 152 57 L 153 56 L 154 57 L 154 254 L 155 255 L 156 255 L 157 256 L 159 256 L 160 257 L 161 257 L 162 258 L 163 257 L 164 257 L 164 54 L 165 53 L 166 54 L 166 259 L 167 260 L 169 260 L 170 261 L 171 261 L 172 262 L 173 262 L 174 263 L 175 262 L 178 265 L 179 265 L 180 266 L 181 266 L 182 267 L 183 267 L 184 268 L 186 268 L 187 267 L 187 47 L 188 46 L 189 47 L 189 270 L 190 271 L 193 271 L 193 43 z" />
<path d="M 24 9 L 23 10 L 23 645 L 25 647 L 27 645 L 27 644 L 28 643 L 28 91 L 31 88 L 32 88 L 32 87 L 33 86 L 33 13 L 33 86 L 31 88 L 30 88 L 28 90 L 28 642 L 27 643 L 27 644 L 25 646 L 24 646 L 23 645 L 23 10 L 24 9 L 27 9 L 28 10 L 31 10 L 32 11 L 35 11 L 36 12 L 35 13 L 35 85 L 36 86 L 37 85 L 38 85 L 39 84 L 40 84 L 41 83 L 42 83 L 44 81 L 45 81 L 46 80 L 49 80 L 51 78 L 53 78 L 54 77 L 55 77 L 55 22 L 56 21 L 57 22 L 57 75 L 60 75 L 61 74 L 62 74 L 63 73 L 65 73 L 66 72 L 66 26 L 67 25 L 68 26 L 68 70 L 69 71 L 70 70 L 72 70 L 73 69 L 75 69 L 76 68 L 77 68 L 77 31 L 78 30 L 79 31 L 79 65 L 80 66 L 83 66 L 84 65 L 86 65 L 87 64 L 88 64 L 88 63 L 89 62 L 89 35 L 90 34 L 91 35 L 91 62 L 92 63 L 93 62 L 95 62 L 96 61 L 98 61 L 100 59 L 100 39 L 101 38 L 102 39 L 102 59 L 104 59 L 105 58 L 107 58 L 108 57 L 110 57 L 111 56 L 111 43 L 112 42 L 113 43 L 113 55 L 117 55 L 118 54 L 121 54 L 122 53 L 122 47 L 123 46 L 124 47 L 124 52 L 128 52 L 129 51 L 132 51 L 133 50 L 135 50 L 136 49 L 140 49 L 140 47 L 137 47 L 136 46 L 135 46 L 134 45 L 133 45 L 132 44 L 131 44 L 130 43 L 128 43 L 127 42 L 126 42 L 125 41 L 124 41 L 123 40 L 121 40 L 120 39 L 119 39 L 118 38 L 116 38 L 115 37 L 114 37 L 113 36 L 111 36 L 110 35 L 109 35 L 108 34 L 106 34 L 105 33 L 103 33 L 102 32 L 100 32 L 99 31 L 98 31 L 97 30 L 95 30 L 94 29 L 92 29 L 91 28 L 89 28 L 88 27 L 86 27 L 85 26 L 83 26 L 82 25 L 80 25 L 79 24 L 77 24 L 76 23 L 74 23 L 73 22 L 71 22 L 70 21 L 68 21 L 67 20 L 64 20 L 63 19 L 61 19 L 60 18 L 58 18 L 57 17 L 54 17 L 53 16 L 51 16 L 50 15 L 47 15 L 46 14 L 43 14 L 42 13 L 40 13 L 39 12 L 36 12 L 35 11 L 32 11 L 31 10 L 28 10 L 27 9 z" />
<path d="M 16 7 L 16 654 L 15 655 L 15 656 L 16 655 L 17 656 L 18 655 L 18 654 L 21 651 L 21 8 L 20 8 L 19 7 z" />
<g id="2">
<path d="M 177 1696 L 183 1696 L 185 1698 L 185 1883 L 183 1885 L 177 1885 L 175 1883 L 175 1698 z" />
<path d="M 166 1696 L 172 1696 L 173 1697 L 173 1884 L 172 1885 L 166 1885 L 164 1883 L 164 1698 z" />
<path d="M 155 1696 L 161 1696 L 162 1697 L 162 1884 L 161 1885 L 155 1885 L 153 1883 L 153 1698 z" />
<path d="M 151 1697 L 152 1696 L 153 1697 L 153 1884 L 152 1885 L 151 1884 z" />
<path d="M 142 1697 L 143 1696 L 150 1696 L 151 1697 L 151 1883 L 149 1885 L 143 1885 L 142 1884 z" />
<path d="M 131 1697 L 132 1696 L 138 1696 L 140 1698 L 140 1883 L 138 1885 L 132 1885 L 131 1884 z" />
<path d="M 110 1696 L 116 1696 L 117 1697 L 117 1884 L 116 1885 L 110 1885 L 108 1883 L 108 1698 z" />
<path d="M 99 1696 L 105 1696 L 106 1697 L 106 1884 L 105 1885 L 99 1885 L 97 1883 L 97 1698 z" />
<path d="M 86 1697 L 87 1696 L 94 1696 L 95 1697 L 95 1884 L 94 1885 L 88 1885 L 86 1883 z" />
<path d="M 84 1697 L 85 1696 L 86 1697 L 86 1884 L 85 1885 L 84 1884 z" />
<path d="M 75 1697 L 76 1696 L 82 1696 L 84 1698 L 84 1883 L 82 1885 L 76 1885 L 75 1884 z" />
<path d="M 177 1682 L 182 1682 L 184 1684 L 184 1689 L 182 1691 L 177 1691 L 175 1689 L 175 1684 z" />
<path d="M 166 1682 L 172 1682 L 173 1683 L 173 1690 L 172 1691 L 166 1691 L 164 1689 L 164 1684 z" />
<path d="M 153 1683 L 154 1682 L 161 1682 L 162 1683 L 162 1690 L 161 1691 L 154 1691 L 153 1690 z" />
<path d="M 151 1683 L 152 1682 L 153 1683 L 153 1690 L 152 1691 L 151 1690 z" />
<path d="M 142 1683 L 143 1682 L 150 1682 L 151 1683 L 151 1690 L 150 1691 L 143 1691 L 142 1690 z" />
<path d="M 131 1683 L 132 1682 L 139 1682 L 140 1683 L 140 1690 L 139 1691 L 132 1691 L 131 1690 z" />
<path d="M 110 1682 L 116 1682 L 117 1683 L 117 1690 L 116 1691 L 110 1691 L 108 1689 L 108 1684 z" />
<path d="M 97 1683 L 98 1682 L 105 1682 L 106 1683 L 106 1690 L 105 1691 L 98 1691 L 97 1690 z" />
<path d="M 86 1683 L 87 1682 L 94 1682 L 95 1683 L 95 1690 L 94 1691 L 87 1691 L 86 1690 z" />
<path d="M 84 1683 L 85 1682 L 86 1683 L 86 1690 L 85 1691 L 84 1690 z" />
<path d="M 78 1682 L 83 1682 L 84 1683 L 84 1690 L 83 1691 L 78 1691 L 76 1689 L 76 1684 z" />
<path d="M 177 1483 L 183 1483 L 185 1485 L 185 1675 L 183 1677 L 177 1677 L 175 1675 L 175 1485 z" />
<path d="M 166 1483 L 172 1483 L 173 1484 L 173 1676 L 172 1677 L 166 1677 L 164 1675 L 164 1485 z" />
<path d="M 155 1483 L 161 1483 L 162 1484 L 162 1676 L 161 1677 L 155 1677 L 153 1675 L 153 1485 z" />
<path d="M 151 1484 L 152 1483 L 153 1484 L 153 1676 L 152 1677 L 151 1676 z" />
<path d="M 144 1483 L 149 1483 L 151 1485 L 151 1676 L 150 1677 L 143 1677 L 142 1676 L 142 1485 z" />
<path d="M 131 1484 L 132 1483 L 138 1483 L 140 1485 L 140 1675 L 138 1677 L 132 1677 L 131 1676 z" />
<path d="M 110 1483 L 116 1483 L 117 1484 L 117 1676 L 116 1677 L 110 1677 L 108 1675 L 108 1485 z" />
<path d="M 99 1483 L 105 1483 L 106 1484 L 106 1676 L 105 1677 L 99 1677 L 97 1675 L 97 1485 z" />
<path d="M 88 1483 L 93 1483 L 95 1485 L 95 1676 L 94 1677 L 87 1677 L 86 1676 L 86 1485 z" />
<path d="M 84 1484 L 85 1483 L 86 1484 L 86 1676 L 85 1677 L 84 1676 z" />
<path d="M 75 1484 L 76 1483 L 82 1483 L 84 1485 L 84 1675 L 82 1677 L 76 1677 L 75 1676 z" />
<path d="M 177 1469 L 182 1469 L 184 1471 L 184 1477 L 183 1478 L 176 1478 L 175 1477 L 175 1471 z" />
<path d="M 166 1469 L 172 1469 L 173 1470 L 173 1477 L 172 1478 L 165 1478 L 164 1477 L 164 1471 z" />
<path d="M 155 1469 L 161 1469 L 162 1470 L 162 1477 L 161 1478 L 154 1478 L 153 1477 L 153 1471 z" />
<path d="M 151 1470 L 152 1469 L 153 1470 L 153 1477 L 152 1478 L 151 1477 z" />
<path d="M 144 1469 L 149 1469 L 151 1471 L 151 1477 L 150 1478 L 143 1478 L 142 1477 L 142 1471 z" />
<path d="M 131 1470 L 132 1469 L 138 1469 L 140 1471 L 140 1477 L 139 1478 L 132 1478 L 131 1477 z" />
<path d="M 120 1470 L 121 1469 L 127 1469 L 129 1471 L 129 1477 L 128 1478 L 121 1478 L 120 1477 z" />
<path d="M 110 1469 L 116 1469 L 117 1470 L 117 1477 L 116 1478 L 109 1478 L 108 1477 L 108 1471 z" />
<path d="M 99 1469 L 105 1469 L 106 1470 L 106 1477 L 105 1478 L 98 1478 L 97 1477 L 97 1471 z" />
<path d="M 88 1469 L 93 1469 L 95 1471 L 95 1477 L 94 1478 L 87 1478 L 86 1477 L 86 1471 z" />
<path d="M 84 1470 L 85 1469 L 86 1470 L 86 1477 L 85 1478 L 84 1477 z" />
<path d="M 78 1469 L 82 1469 L 84 1471 L 84 1477 L 83 1478 L 77 1478 L 76 1477 L 76 1471 z" />
<path d="M 177 1451 L 182 1451 L 184 1453 L 184 1459 L 182 1461 L 177 1461 L 175 1459 L 175 1453 z" />
<path d="M 166 1451 L 172 1451 L 173 1452 L 173 1460 L 172 1461 L 166 1461 L 164 1459 L 164 1453 z" />
<path d="M 155 1451 L 161 1451 L 162 1452 L 162 1460 L 161 1461 L 155 1461 L 153 1459 L 153 1453 z" />
<path d="M 151 1452 L 152 1451 L 153 1452 L 153 1460 L 152 1461 L 151 1460 z" />
<path d="M 142 1452 L 143 1451 L 149 1451 L 151 1453 L 151 1459 L 149 1461 L 144 1461 L 142 1459 z" />
<path d="M 131 1452 L 132 1451 L 138 1451 L 140 1453 L 140 1459 L 138 1461 L 132 1461 L 131 1460 z" />
<path d="M 110 1451 L 116 1451 L 117 1452 L 117 1460 L 116 1461 L 110 1461 L 108 1459 L 108 1453 z" />
<path d="M 99 1451 L 105 1451 L 106 1452 L 106 1460 L 105 1461 L 99 1461 L 97 1459 L 97 1453 z" />
<path d="M 88 1451 L 94 1451 L 95 1452 L 95 1459 L 93 1461 L 88 1461 L 86 1459 L 86 1453 z" />
<path d="M 84 1452 L 85 1451 L 86 1452 L 86 1460 L 85 1461 L 84 1460 z" />
<path d="M 78 1451 L 82 1451 L 84 1453 L 84 1459 L 82 1461 L 78 1461 L 76 1459 L 76 1453 z" />
<path d="M 177 1256 L 183 1256 L 185 1258 L 185 1445 L 184 1446 L 176 1446 L 175 1445 L 175 1258 z" />
<path d="M 166 1256 L 172 1256 L 173 1257 L 173 1445 L 172 1446 L 165 1446 L 164 1445 L 164 1258 z" />
<path d="M 155 1256 L 161 1256 L 162 1257 L 162 1445 L 161 1446 L 154 1446 L 153 1445 L 153 1258 z" />
<path d="M 151 1257 L 152 1256 L 153 1257 L 153 1445 L 152 1446 L 151 1445 z" />
<path d="M 142 1257 L 143 1256 L 149 1256 L 151 1258 L 151 1445 L 150 1446 L 143 1446 L 142 1445 z" />
<path d="M 131 1257 L 132 1256 L 138 1256 L 140 1258 L 140 1445 L 139 1446 L 132 1446 L 131 1445 z" />
<path d="M 110 1256 L 116 1256 L 117 1257 L 117 1445 L 116 1446 L 109 1446 L 108 1445 L 108 1258 z" />
<path d="M 99 1256 L 105 1256 L 106 1257 L 106 1445 L 105 1446 L 98 1446 L 97 1445 L 97 1258 z" />
<path d="M 88 1256 L 94 1256 L 95 1257 L 95 1445 L 94 1446 L 87 1446 L 86 1445 L 86 1258 z" />
<path d="M 84 1257 L 85 1256 L 86 1257 L 86 1445 L 85 1446 L 84 1445 z" />
<path d="M 75 1257 L 76 1256 L 82 1256 L 84 1258 L 84 1445 L 83 1446 L 76 1446 L 75 1445 z" />
<path d="M 177 1242 L 182 1242 L 184 1244 L 184 1250 L 183 1251 L 176 1251 L 175 1250 L 175 1244 z" />
<path d="M 166 1242 L 172 1242 L 173 1243 L 173 1250 L 172 1251 L 166 1251 L 164 1249 L 164 1244 z" />
<path d="M 153 1243 L 154 1242 L 161 1242 L 162 1243 L 162 1250 L 161 1251 L 154 1251 L 153 1250 z" />
<path d="M 151 1243 L 152 1242 L 153 1243 L 153 1250 L 152 1251 L 151 1250 z" />
<path d="M 142 1243 L 143 1242 L 150 1242 L 151 1243 L 151 1250 L 150 1251 L 143 1251 L 142 1250 z" />
<path d="M 131 1243 L 132 1242 L 138 1242 L 140 1244 L 140 1250 L 139 1251 L 132 1251 L 131 1250 z" />
<path d="M 120 1452 L 121 1451 L 127 1451 L 129 1453 L 129 1459 L 127 1461 L 121 1461 L 120 1460 z" />
<path d="M 120 1243 L 121 1242 L 127 1242 L 129 1244 L 129 1250 L 128 1251 L 121 1251 L 120 1250 z" />
<path d="M 110 1242 L 116 1242 L 117 1243 L 117 1250 L 116 1251 L 109 1251 L 108 1250 L 108 1244 z" />
<path d="M 99 1242 L 105 1242 L 106 1243 L 106 1250 L 105 1251 L 98 1251 L 97 1250 L 97 1244 z" />
<path d="M 86 1243 L 87 1242 L 94 1242 L 95 1243 L 95 1250 L 94 1251 L 87 1251 L 86 1250 z" />
<path d="M 84 1243 L 85 1242 L 86 1243 L 86 1250 L 85 1251 L 84 1250 z" />
<path d="M 78 1242 L 83 1242 L 84 1243 L 84 1250 L 83 1251 L 78 1251 L 76 1249 L 76 1244 z" />
<path d="M 177 1223 L 182 1223 L 184 1225 L 184 1231 L 182 1233 L 177 1233 L 175 1231 L 175 1225 z" />
<path d="M 166 1223 L 172 1223 L 173 1224 L 173 1232 L 172 1233 L 166 1233 L 164 1231 L 164 1225 z" />
<path d="M 155 1223 L 161 1223 L 162 1224 L 162 1232 L 161 1233 L 155 1233 L 153 1231 L 153 1225 z" />
<path d="M 151 1224 L 152 1223 L 153 1224 L 153 1232 L 152 1233 L 151 1232 z" />
<path d="M 142 1224 L 143 1223 L 149 1223 L 151 1225 L 151 1231 L 149 1233 L 144 1233 L 142 1231 z" />
<path d="M 131 1224 L 132 1223 L 138 1223 L 140 1225 L 140 1231 L 138 1233 L 132 1233 L 131 1232 z" />
<path d="M 120 1224 L 121 1223 L 127 1223 L 129 1225 L 129 1231 L 127 1233 L 121 1233 L 120 1232 z" />
<path d="M 110 1223 L 116 1223 L 117 1224 L 117 1232 L 116 1233 L 110 1233 L 108 1231 L 108 1225 z" />
<path d="M 99 1223 L 105 1223 L 106 1224 L 106 1232 L 105 1233 L 99 1233 L 97 1231 L 97 1225 z" />
<path d="M 88 1223 L 94 1223 L 95 1224 L 95 1231 L 93 1233 L 88 1233 L 86 1231 L 86 1225 z" />
<path d="M 84 1224 L 85 1223 L 86 1224 L 86 1232 L 85 1233 L 84 1232 z" />
<path d="M 78 1223 L 82 1223 L 84 1225 L 84 1231 L 82 1233 L 78 1233 L 76 1231 L 76 1225 z" />
<path d="M 177 1205 L 182 1205 L 184 1207 L 184 1213 L 182 1215 L 177 1215 L 175 1213 L 175 1207 z" />
<path d="M 166 1205 L 171 1205 L 173 1207 L 173 1214 L 172 1215 L 166 1215 L 164 1213 L 164 1207 z" />
<path d="M 151 1207 L 152 1206 L 153 1207 L 153 1214 L 152 1215 L 151 1214 z" />
<path d="M 155 1205 L 160 1205 L 162 1207 L 162 1214 L 161 1215 L 155 1215 L 153 1213 L 153 1207 z" />
<path d="M 144 1205 L 149 1205 L 151 1207 L 151 1213 L 149 1215 L 143 1215 L 142 1214 L 142 1207 z" />
<path d="M 133 1205 L 138 1205 L 140 1207 L 140 1213 L 138 1215 L 132 1215 L 131 1214 L 131 1207 z" />
<path d="M 110 1205 L 116 1205 L 117 1206 L 117 1214 L 116 1215 L 110 1215 L 108 1213 L 108 1207 z" />
<path d="M 99 1205 L 104 1205 L 106 1207 L 106 1214 L 105 1215 L 99 1215 L 97 1213 L 97 1207 z" />
<path d="M 84 1207 L 85 1206 L 86 1207 L 86 1214 L 85 1215 L 84 1214 z" />
<path d="M 88 1205 L 93 1205 L 95 1207 L 95 1214 L 94 1215 L 88 1215 L 86 1213 L 86 1207 z" />
<path d="M 78 1205 L 82 1205 L 84 1207 L 84 1213 L 82 1215 L 78 1215 L 76 1213 L 76 1207 z" />
<path d="M 175 1042 L 176 1041 L 184 1041 L 185 1042 L 185 1199 L 184 1200 L 176 1200 L 175 1199 z" />
<path d="M 164 1042 L 165 1041 L 172 1041 L 173 1042 L 173 1199 L 172 1200 L 165 1200 L 164 1199 z" />
<path d="M 153 1042 L 154 1041 L 161 1041 L 162 1042 L 162 1199 L 161 1200 L 154 1200 L 153 1199 z" />
<path d="M 151 1042 L 152 1041 L 153 1042 L 153 1199 L 152 1200 L 151 1199 z" />
<path d="M 142 1042 L 143 1041 L 150 1041 L 151 1042 L 151 1199 L 150 1200 L 143 1200 L 142 1199 z" />
<path d="M 131 1042 L 132 1041 L 139 1041 L 140 1042 L 140 1199 L 139 1200 L 132 1200 L 131 1199 z" />
<path d="M 108 1042 L 109 1041 L 116 1041 L 117 1042 L 117 1199 L 116 1200 L 109 1200 L 108 1199 z" />
<path d="M 97 1042 L 98 1041 L 105 1041 L 106 1042 L 106 1199 L 105 1200 L 98 1200 L 97 1199 z" />
<path d="M 86 1042 L 87 1041 L 94 1041 L 95 1042 L 95 1199 L 94 1200 L 87 1200 L 86 1199 z" />
<path d="M 84 1042 L 85 1041 L 86 1042 L 86 1199 L 85 1200 L 84 1199 z" />
<path d="M 75 1042 L 76 1041 L 83 1041 L 84 1042 L 84 1199 L 83 1200 L 76 1200 L 75 1199 z" />
<path d="M 177 1026 L 182 1026 L 184 1028 L 184 1034 L 182 1036 L 177 1036 L 175 1034 L 175 1028 z" />
<path d="M 166 1026 L 172 1026 L 173 1027 L 173 1035 L 172 1036 L 166 1036 L 164 1034 L 164 1028 z" />
<path d="M 155 1026 L 161 1026 L 162 1027 L 162 1035 L 161 1036 L 155 1036 L 153 1034 L 153 1028 z" />
<path d="M 151 1027 L 152 1026 L 153 1027 L 153 1035 L 152 1036 L 151 1035 z" />
<path d="M 142 1027 L 143 1026 L 149 1026 L 151 1028 L 151 1034 L 149 1036 L 144 1036 L 142 1034 z" />
<path d="M 131 1027 L 132 1026 L 138 1026 L 140 1028 L 140 1034 L 138 1036 L 132 1036 L 131 1035 z" />
<path d="M 110 1026 L 116 1026 L 117 1027 L 117 1035 L 116 1036 L 110 1036 L 108 1034 L 108 1028 z" />
<path d="M 99 1026 L 105 1026 L 106 1027 L 106 1035 L 105 1036 L 99 1036 L 97 1034 L 97 1028 z" />
<path d="M 88 1026 L 94 1026 L 95 1027 L 95 1034 L 93 1036 L 88 1036 L 86 1034 L 86 1028 z" />
<path d="M 84 1027 L 85 1026 L 86 1027 L 86 1035 L 85 1036 L 84 1035 z" />
<path d="M 78 1026 L 82 1026 L 84 1028 L 84 1034 L 82 1036 L 78 1036 L 76 1034 L 76 1028 z" />
<path d="M 177 857 L 183 857 L 185 859 L 185 1020 L 184 1021 L 176 1021 L 175 1020 L 175 859 z" />
<path d="M 166 857 L 172 857 L 173 858 L 173 1020 L 172 1021 L 165 1021 L 164 1020 L 164 859 z" />
<path d="M 155 857 L 161 857 L 162 858 L 162 1020 L 161 1021 L 154 1021 L 153 1020 L 153 859 z" />
<path d="M 151 858 L 152 857 L 153 858 L 153 1020 L 152 1021 L 151 1020 z" />
<path d="M 142 858 L 143 857 L 149 857 L 151 859 L 151 1020 L 150 1021 L 143 1021 L 142 1020 z" />
<path d="M 131 858 L 132 857 L 138 857 L 140 859 L 140 1020 L 139 1021 L 132 1021 L 131 1020 z" />
<path d="M 110 857 L 116 857 L 117 858 L 117 1020 L 116 1021 L 109 1021 L 108 1020 L 108 859 z" />
<path d="M 99 857 L 105 857 L 106 858 L 106 1020 L 105 1021 L 98 1021 L 97 1020 L 97 859 z" />
<path d="M 88 857 L 94 857 L 95 858 L 95 1020 L 94 1021 L 87 1021 L 86 1020 L 86 859 z" />
<path d="M 84 858 L 85 857 L 86 858 L 86 1020 L 85 1021 L 84 1020 z" />
<path d="M 75 858 L 76 857 L 82 857 L 84 859 L 84 1020 L 83 1021 L 76 1021 L 75 1020 z" />
<path d="M 177 843 L 182 843 L 184 845 L 184 851 L 183 852 L 176 852 L 175 851 L 175 845 z" />
<path d="M 166 843 L 172 843 L 173 844 L 173 851 L 172 852 L 165 852 L 164 851 L 164 845 z" />
<path d="M 155 843 L 161 843 L 162 844 L 162 851 L 161 852 L 154 852 L 153 851 L 153 845 z" />
<path d="M 151 844 L 152 843 L 153 844 L 153 851 L 152 852 L 151 851 z" />
<path d="M 144 843 L 149 843 L 151 845 L 151 851 L 150 852 L 143 852 L 142 851 L 142 845 z" />
<path d="M 131 844 L 132 843 L 138 843 L 140 845 L 140 851 L 139 852 L 132 852 L 131 851 z" />
<path d="M 120 1206 L 121 1205 L 127 1205 L 129 1207 L 129 1213 L 127 1215 L 121 1215 L 120 1214 z" />
<path d="M 120 844 L 121 843 L 127 843 L 129 845 L 129 851 L 128 852 L 121 852 L 120 851 z" />
<path d="M 110 843 L 116 843 L 117 844 L 117 851 L 116 852 L 109 852 L 108 851 L 108 845 z" />
<path d="M 99 843 L 105 843 L 106 844 L 106 851 L 105 852 L 98 852 L 97 851 L 97 845 z" />
<path d="M 88 843 L 93 843 L 95 845 L 95 851 L 94 852 L 87 852 L 86 851 L 86 845 z" />
<path d="M 84 844 L 85 843 L 86 844 L 86 851 L 85 852 L 84 851 z" />
<path d="M 78 843 L 82 843 L 84 845 L 84 851 L 83 852 L 77 852 L 76 851 L 76 845 z" />
<path d="M 175 826 L 176 825 L 183 825 L 184 826 L 184 832 L 182 834 L 177 834 L 175 832 z" />
<path d="M 164 826 L 165 825 L 172 825 L 173 826 L 173 833 L 172 834 L 166 834 L 164 832 z" />
<path d="M 153 826 L 154 825 L 161 825 L 162 826 L 162 833 L 161 834 L 155 834 L 153 832 z" />
<path d="M 151 826 L 152 825 L 153 826 L 153 833 L 152 834 L 151 833 z" />
<path d="M 142 826 L 143 825 L 150 825 L 151 826 L 151 832 L 149 834 L 144 834 L 142 832 z" />
<path d="M 131 826 L 132 825 L 139 825 L 140 826 L 140 832 L 138 834 L 132 834 L 131 833 z" />
<path d="M 120 826 L 121 825 L 128 825 L 129 826 L 129 832 L 127 834 L 121 834 L 120 833 z" />
<path d="M 108 826 L 109 825 L 116 825 L 117 826 L 117 833 L 116 834 L 110 834 L 108 832 z" />
<path d="M 97 826 L 98 825 L 105 825 L 106 826 L 106 833 L 105 834 L 99 834 L 97 832 z" />
<path d="M 86 826 L 87 825 L 94 825 L 95 826 L 95 832 L 93 834 L 88 834 L 86 832 z" />
<path d="M 84 826 L 85 825 L 86 826 L 86 833 L 85 834 L 84 833 z" />
<path d="M 76 826 L 77 825 L 83 825 L 84 826 L 84 832 L 82 834 L 78 834 L 76 832 z" />
<path d="M 175 808 L 176 807 L 183 807 L 184 808 L 184 814 L 182 816 L 177 816 L 175 814 z" />
<path d="M 164 808 L 165 807 L 172 807 L 173 808 L 173 815 L 172 816 L 166 816 L 164 814 z" />
<path d="M 153 808 L 154 807 L 161 807 L 162 808 L 162 815 L 161 816 L 155 816 L 153 814 z" />
<path d="M 151 808 L 152 807 L 153 808 L 153 815 L 152 816 L 151 815 z" />
<path d="M 142 808 L 143 807 L 150 807 L 151 808 L 151 814 L 149 816 L 143 816 L 142 815 z" />
<path d="M 131 808 L 132 807 L 139 807 L 140 808 L 140 814 L 138 816 L 132 816 L 131 815 z" />
<path d="M 108 808 L 109 807 L 116 807 L 117 808 L 117 815 L 116 816 L 110 816 L 108 814 z" />
<path d="M 97 808 L 98 807 L 105 807 L 106 808 L 106 815 L 105 816 L 99 816 L 97 814 z" />
<path d="M 86 808 L 87 807 L 94 807 L 95 808 L 95 815 L 94 816 L 88 816 L 86 814 z" />
<path d="M 84 808 L 85 807 L 86 808 L 86 815 L 85 816 L 84 815 z" />
<path d="M 76 808 L 77 807 L 83 807 L 84 808 L 84 814 L 82 816 L 78 816 L 76 814 z" />
<path d="M 175 648 L 176 647 L 184 647 L 185 648 L 185 800 L 183 802 L 177 802 L 175 800 z" />
<path d="M 164 648 L 165 647 L 172 647 L 173 648 L 173 801 L 172 802 L 166 802 L 164 800 z" />
<path d="M 153 648 L 154 647 L 161 647 L 162 648 L 162 801 L 161 802 L 155 802 L 153 800 z" />
<path d="M 151 648 L 152 647 L 153 648 L 153 801 L 152 802 L 151 801 z" />
<path d="M 142 648 L 143 647 L 150 647 L 151 648 L 151 800 L 149 802 L 144 802 L 142 800 z" />
<path d="M 131 648 L 132 647 L 139 647 L 140 648 L 140 800 L 138 802 L 132 802 L 131 801 z" />
<path d="M 108 648 L 109 647 L 116 647 L 117 648 L 117 801 L 116 802 L 110 802 L 108 800 z" />
<path d="M 97 648 L 98 647 L 105 647 L 106 648 L 106 801 L 105 802 L 99 802 L 97 800 z" />
<path d="M 86 648 L 87 647 L 94 647 L 95 648 L 95 800 L 93 802 L 88 802 L 86 800 z" />
<path d="M 84 648 L 85 647 L 86 648 L 86 801 L 85 802 L 84 801 z" />
<path d="M 75 648 L 76 647 L 83 647 L 84 648 L 84 800 L 82 802 L 76 802 L 75 801 z" />
<path d="M 175 634 L 176 633 L 183 633 L 184 634 L 184 640 L 182 642 L 177 642 L 175 640 z" />
<path d="M 164 634 L 165 633 L 172 633 L 173 634 L 173 641 L 172 642 L 166 642 L 164 640 z" />
<path d="M 153 634 L 154 633 L 161 633 L 162 634 L 162 641 L 161 642 L 155 642 L 153 640 z" />
<path d="M 151 634 L 152 633 L 153 634 L 153 641 L 152 642 L 151 641 z" />
<path d="M 142 634 L 143 633 L 150 633 L 151 634 L 151 640 L 149 642 L 144 642 L 142 640 z" />
<path d="M 131 634 L 132 633 L 139 633 L 140 634 L 140 640 L 138 642 L 132 642 L 131 641 z" />
<path d="M 108 634 L 109 633 L 116 633 L 117 634 L 117 641 L 116 642 L 110 642 L 108 640 z" />
<path d="M 97 634 L 98 633 L 105 633 L 106 634 L 106 641 L 105 642 L 99 642 L 97 640 z" />
<path d="M 86 634 L 87 633 L 94 633 L 95 634 L 95 640 L 93 642 L 88 642 L 86 640 z" />
<path d="M 84 634 L 85 633 L 86 634 L 86 641 L 85 642 L 84 641 z" />
<path d="M 76 634 L 77 633 L 83 633 L 84 634 L 84 640 L 82 642 L 78 642 L 76 640 z" />
<path d="M 10 683 L 11 682 L 13 684 L 13 1883 L 11 1885 L 10 1884 z" />
<path d="M 21 671 L 22 670 L 24 672 L 24 1884 L 23 1885 L 22 1885 L 21 1884 z" />
<path d="M 32 659 L 33 658 L 34 658 L 35 659 L 35 1884 L 34 1885 L 33 1885 L 32 1884 z" />
<path d="M 45 645 L 46 646 L 46 1884 L 45 1885 L 43 1883 L 43 647 z" />
<path d="M 49 633 L 50 634 L 50 1884 L 49 1885 L 47 1885 L 46 1884 L 46 646 L 45 645 L 44 645 L 44 646 L 43 647 L 43 1883 L 44 1884 L 43 1885 L 36 1885 L 35 1884 L 35 658 L 32 658 L 32 1884 L 31 1885 L 25 1885 L 24 1884 L 24 671 L 23 670 L 21 670 L 21 1884 L 20 1885 L 13 1885 L 12 1884 L 13 1883 L 13 684 L 12 683 L 12 682 L 11 682 L 10 683 L 10 1884 L 9 1885 L 8 1885 L 6 1883 L 6 683 L 7 682 L 7 681 L 8 680 L 8 679 L 9 678 L 9 677 L 10 676 L 10 675 L 11 674 L 11 673 L 12 672 L 12 671 L 14 669 L 14 668 L 16 666 L 16 665 L 18 663 L 18 662 L 21 659 L 21 658 L 38 641 L 39 641 L 42 638 L 43 638 L 46 635 L 47 635 z" />
<path d="M 177 490 L 183 490 L 185 492 L 185 626 L 183 628 L 177 628 L 175 626 L 175 492 z" />
<path d="M 166 490 L 172 490 L 173 491 L 173 627 L 172 628 L 166 628 L 164 626 L 164 492 z" />
<path d="M 155 490 L 161 490 L 162 491 L 162 627 L 161 628 L 155 628 L 153 626 L 153 492 z" />
<path d="M 151 491 L 152 490 L 153 491 L 153 627 L 152 628 L 151 627 z" />
<path d="M 142 491 L 143 490 L 149 490 L 151 492 L 151 626 L 149 628 L 143 628 L 142 627 z" />
<path d="M 131 491 L 132 490 L 138 490 L 140 492 L 140 626 L 138 628 L 132 628 L 131 627 z" />
<path d="M 110 490 L 116 490 L 117 491 L 117 627 L 116 628 L 110 628 L 108 626 L 108 492 z" />
<path d="M 99 490 L 105 490 L 106 491 L 106 627 L 105 628 L 99 628 L 97 626 L 97 492 z" />
<path d="M 88 490 L 94 490 L 95 491 L 95 627 L 94 628 L 88 628 L 86 626 L 86 492 z" />
<path d="M 84 491 L 85 490 L 86 491 L 86 627 L 85 628 L 84 627 z" />
<path d="M 75 491 L 76 490 L 82 490 L 84 492 L 84 626 L 82 628 L 76 628 L 75 627 z" />
<path d="M 177 476 L 182 476 L 184 478 L 184 484 L 183 485 L 176 485 L 175 484 L 175 478 z" />
<path d="M 166 476 L 172 476 L 173 477 L 173 484 L 172 485 L 165 485 L 164 484 L 164 478 z" />
<path d="M 155 476 L 161 476 L 162 477 L 162 484 L 161 485 L 154 485 L 153 484 L 153 478 z" />
<path d="M 151 477 L 152 476 L 153 477 L 153 484 L 152 485 L 151 484 z" />
<path d="M 144 476 L 149 476 L 151 478 L 151 484 L 150 485 L 143 485 L 142 484 L 142 478 z" />
<path d="M 131 477 L 132 476 L 138 476 L 140 478 L 140 484 L 139 485 L 132 485 L 131 484 z" />
<path d="M 120 808 L 121 807 L 128 807 L 129 808 L 129 814 L 127 816 L 121 816 L 120 815 z" />
<path d="M 120 477 L 121 476 L 127 476 L 129 478 L 129 484 L 128 485 L 121 485 L 120 484 z" />
<path d="M 110 476 L 116 476 L 117 477 L 117 484 L 116 485 L 109 485 L 108 484 L 108 478 z" />
<path d="M 99 476 L 105 476 L 106 477 L 106 484 L 105 485 L 98 485 L 97 484 L 97 478 z" />
<path d="M 88 476 L 93 476 L 95 478 L 95 484 L 94 485 L 87 485 L 86 484 L 86 478 z" />
<path d="M 84 477 L 85 476 L 86 477 L 86 484 L 85 485 L 84 484 z" />
<path d="M 78 476 L 82 476 L 84 478 L 84 484 L 83 485 L 77 485 L 76 484 L 76 478 z" />
<path d="M 177 458 L 182 458 L 184 460 L 184 466 L 183 467 L 176 467 L 175 466 L 175 460 z" />
<path d="M 166 458 L 172 458 L 173 459 L 173 466 L 172 467 L 165 467 L 164 466 L 164 460 z" />
<path d="M 155 458 L 161 458 L 162 459 L 162 466 L 161 467 L 154 467 L 153 466 L 153 460 z" />
<path d="M 151 459 L 152 458 L 153 459 L 153 466 L 152 467 L 151 466 z" />
<path d="M 142 459 L 143 458 L 149 458 L 151 460 L 151 466 L 150 467 L 143 467 L 142 466 z" />
<path d="M 131 459 L 132 458 L 138 458 L 140 460 L 140 466 L 139 467 L 132 467 L 131 466 z" />
<path d="M 110 458 L 116 458 L 117 459 L 117 466 L 116 467 L 109 467 L 108 466 L 108 460 z" />
<path d="M 99 458 L 105 458 L 106 459 L 106 466 L 105 467 L 98 467 L 97 466 L 97 460 z" />
<path d="M 88 458 L 94 458 L 95 459 L 95 466 L 94 467 L 87 467 L 86 466 L 86 460 z" />
<path d="M 84 459 L 85 458 L 86 459 L 86 466 L 85 467 L 84 466 z" />
<path d="M 78 458 L 82 458 L 84 460 L 84 466 L 83 467 L 77 467 L 76 466 L 76 460 z" />
<path d="M 220 298 L 221 297 L 222 297 L 243 318 L 243 319 L 245 321 L 245 1884 L 244 1885 L 222 1885 L 220 1883 z" />
<path d="M 120 459 L 121 458 L 127 458 L 129 460 L 129 466 L 128 467 L 121 467 L 120 466 z" />
<path d="M 207 292 L 208 291 L 209 292 L 209 1884 L 208 1885 L 207 1884 z" />
<path d="M 151 274 L 152 273 L 153 274 L 153 452 L 152 453 L 151 452 z" />
<path d="M 84 251 L 85 250 L 86 251 L 86 452 L 85 453 L 84 452 z" />
<path d="M 198 46 L 199 45 L 209 55 L 209 56 L 212 59 L 212 60 L 213 61 L 213 62 L 215 64 L 215 65 L 216 66 L 216 284 L 217 285 L 216 286 L 215 286 L 212 283 L 211 283 L 209 281 L 208 281 L 206 279 L 205 279 L 203 277 L 202 277 L 201 276 L 200 276 L 198 274 z" />
<path d="M 175 50 L 176 49 L 177 50 L 177 262 L 176 263 L 175 262 z" />
<path d="M 44 17 L 45 16 L 46 17 L 46 80 L 45 81 L 44 80 z" />
<path d="M 35 13 L 36 12 L 39 12 L 40 13 L 42 13 L 43 14 L 46 14 L 47 15 L 50 15 L 51 16 L 53 16 L 54 17 L 57 17 L 58 18 L 60 18 L 61 19 L 63 19 L 64 20 L 67 20 L 68 21 L 70 21 L 71 22 L 73 22 L 74 23 L 76 23 L 77 24 L 79 24 L 80 25 L 82 25 L 83 26 L 85 26 L 86 27 L 88 27 L 89 28 L 91 28 L 92 29 L 94 29 L 95 30 L 97 30 L 98 31 L 99 31 L 100 32 L 102 32 L 103 33 L 105 33 L 106 34 L 108 34 L 109 35 L 110 35 L 111 36 L 113 36 L 114 37 L 115 37 L 116 38 L 118 38 L 119 39 L 120 39 L 121 40 L 123 40 L 124 41 L 125 41 L 126 42 L 127 42 L 128 43 L 130 43 L 131 44 L 132 44 L 133 45 L 134 45 L 135 46 L 136 46 L 137 47 L 139 47 L 140 48 L 139 49 L 136 49 L 135 50 L 133 50 L 132 51 L 129 51 L 128 52 L 125 52 L 124 51 L 124 46 L 122 46 L 122 52 L 120 54 L 118 54 L 117 55 L 114 55 L 113 54 L 113 42 L 111 42 L 111 55 L 109 57 L 108 57 L 107 58 L 105 58 L 104 59 L 103 59 L 102 58 L 102 38 L 100 38 L 100 59 L 98 61 L 96 61 L 95 62 L 93 62 L 92 63 L 91 62 L 91 35 L 90 34 L 89 34 L 89 62 L 86 65 L 84 65 L 83 66 L 80 66 L 79 65 L 79 29 L 78 30 L 77 30 L 77 67 L 75 69 L 73 69 L 72 70 L 69 70 L 68 69 L 68 25 L 66 25 L 66 71 L 64 73 L 63 73 L 62 74 L 61 74 L 60 75 L 58 75 L 57 74 L 57 21 L 55 21 L 55 76 L 53 78 L 51 78 L 50 79 L 49 79 L 48 80 L 47 80 L 46 79 L 46 17 L 45 16 L 44 17 L 44 80 L 41 83 L 40 83 L 39 84 L 38 84 L 36 86 L 35 85 z" />
<path d="M 16 8 L 17 7 L 19 7 L 21 9 L 21 650 L 18 653 L 18 655 L 17 656 L 16 655 z" />
</g>
</g>
</svg>
</svg>