<?xml version="1.0" encoding="UTF-8"?>
<svg xmlns="http://www.w3.org/2000/svg" xmlns:xlink="http://www.w3.org/1999/xlink"
     width="628" height="1234" viewBox="0 0 628 1234">
<defs>
</defs>
<svg id="0" fill="grey" stroke="black">
<path d="M 2 0 L 0 2 L 0 1232 L 1 1233 L 627 1233 L 627 1 L 626 0 z" />
<path d="M 2 0 L 626 0 L 627 1 L 627 1232 L 626 1233 L 1 1233 L 0 1232 L 0 2 z" />
<g id="1">
<path d="M 8 5 L 7 6 L 6 6 L 6 1228 L 622 1228 L 622 1122 L 621 1122 L 620 1121 L 145 1121 L 144 1120 L 130 1120 L 129 1119 L 129 1117 L 131 1115 L 160 1115 L 161 1116 L 622 1116 L 622 1089 L 621 1089 L 620 1088 L 145 1088 L 144 1087 L 130 1087 L 129 1086 L 129 1084 L 131 1082 L 161 1082 L 162 1083 L 622 1083 L 622 1056 L 621 1056 L 620 1055 L 145 1055 L 144 1054 L 130 1054 L 129 1053 L 129 1051 L 131 1049 L 161 1049 L 162 1050 L 622 1050 L 622 1023 L 621 1023 L 620 1022 L 145 1022 L 144 1021 L 130 1021 L 129 1020 L 129 1018 L 131 1016 L 161 1016 L 162 1017 L 622 1017 L 622 990 L 621 990 L 620 989 L 145 989 L 144 988 L 130 988 L 129 987 L 129 985 L 131 983 L 161 983 L 162 984 L 622 984 L 622 957 L 393 957 L 392 956 L 131 956 L 129 954 L 130 953 L 130 952 L 131 951 L 392 951 L 393 952 L 622 952 L 622 924 L 393 924 L 392 923 L 131 923 L 129 921 L 130 920 L 130 919 L 131 918 L 392 918 L 393 919 L 622 919 L 622 891 L 393 891 L 392 890 L 131 890 L 129 888 L 130 887 L 130 886 L 131 885 L 392 885 L 393 886 L 622 886 L 622 858 L 393 858 L 392 857 L 131 857 L 130 856 L 130 853 L 131 852 L 392 852 L 393 853 L 622 853 L 622 825 L 393 825 L 392 824 L 131 824 L 130 823 L 130 820 L 131 819 L 392 819 L 393 820 L 622 820 L 622 792 L 393 792 L 392 791 L 131 791 L 130 790 L 130 787 L 131 786 L 392 786 L 393 787 L 622 787 L 622 759 L 162 759 L 161 758 L 131 758 L 130 757 L 130 755 L 132 753 L 161 753 L 162 754 L 622 754 L 622 726 L 162 726 L 161 725 L 131 725 L 130 724 L 130 722 L 132 720 L 161 720 L 162 721 L 622 721 L 622 693 L 162 693 L 161 692 L 131 692 L 130 691 L 130 689 L 132 687 L 161 687 L 162 688 L 622 688 L 622 661 L 621 661 L 620 660 L 146 660 L 145 659 L 131 659 L 130 658 L 130 656 L 132 654 L 161 654 L 162 655 L 622 655 L 622 628 L 621 628 L 620 627 L 146 627 L 145 626 L 131 626 L 130 625 L 130 623 L 132 621 L 161 621 L 162 622 L 622 622 L 622 595 L 621 595 L 620 594 L 132 594 L 130 592 L 130 591 L 132 589 L 622 589 L 622 562 L 621 562 L 620 561 L 132 561 L 130 559 L 130 558 L 132 556 L 622 556 L 622 529 L 621 529 L 620 528 L 132 528 L 130 526 L 130 525 L 132 523 L 622 523 L 622 496 L 621 496 L 620 495 L 132 495 L 130 493 L 130 492 L 132 490 L 622 490 L 622 463 L 621 463 L 620 462 L 132 462 L 130 460 L 130 459 L 132 457 L 622 457 L 622 430 L 621 430 L 620 429 L 132 429 L 130 427 L 130 426 L 132 424 L 622 424 L 622 397 L 621 397 L 620 396 L 132 396 L 131 395 L 131 393 L 133 391 L 622 391 L 622 364 L 621 364 L 620 363 L 132 363 L 131 362 L 131 360 L 133 358 L 622 358 L 622 331 L 163 331 L 162 330 L 132 330 L 131 329 L 131 327 L 133 325 L 162 325 L 163 326 L 622 326 L 622 298 L 163 298 L 162 297 L 132 297 L 131 296 L 131 294 L 133 292 L 162 292 L 163 293 L 622 293 L 622 265 L 163 265 L 162 264 L 132 264 L 131 263 L 131 261 L 133 259 L 162 259 L 163 260 L 622 260 L 622 232 L 132 232 L 131 231 L 131 228 L 132 227 L 622 227 L 622 199 L 132 199 L 131 198 L 131 195 L 132 194 L 622 194 L 622 166 L 133 166 L 131 164 L 131 163 L 133 161 L 622 161 L 622 133 L 133 133 L 131 131 L 131 130 L 133 128 L 622 128 L 622 100 L 133 100 L 131 98 L 131 97 L 133 95 L 622 95 L 622 6 L 621 6 L 620 5 z" />
<g id="2">
<path d="M 8 5 L 620 5 L 622 7 L 622 94 L 621 95 L 132 95 L 132 96 L 131 97 L 131 98 L 132 99 L 132 100 L 621 100 L 622 101 L 622 127 L 621 128 L 132 128 L 132 129 L 131 130 L 131 131 L 132 132 L 132 133 L 621 133 L 622 134 L 622 160 L 621 161 L 132 161 L 132 162 L 131 163 L 131 164 L 132 165 L 132 166 L 621 166 L 622 167 L 622 193 L 621 194 L 131 194 L 131 199 L 621 199 L 622 200 L 622 226 L 621 227 L 131 227 L 131 232 L 621 232 L 622 233 L 622 259 L 621 260 L 163 260 L 162 259 L 133 259 L 132 260 L 131 260 L 131 264 L 162 264 L 163 265 L 621 265 L 622 266 L 622 292 L 621 293 L 163 293 L 162 292 L 133 292 L 132 293 L 131 293 L 131 297 L 162 297 L 163 298 L 621 298 L 622 299 L 622 325 L 621 326 L 163 326 L 162 325 L 133 325 L 132 326 L 131 326 L 131 330 L 162 330 L 163 331 L 621 331 L 622 332 L 622 357 L 621 358 L 133 358 L 132 359 L 131 359 L 131 363 L 620 363 L 622 365 L 622 390 L 621 391 L 133 391 L 132 392 L 131 392 L 131 396 L 620 396 L 622 398 L 622 423 L 621 424 L 131 424 L 131 425 L 130 426 L 130 427 L 131 428 L 131 429 L 620 429 L 622 431 L 622 456 L 621 457 L 131 457 L 131 458 L 130 459 L 130 460 L 131 461 L 131 462 L 620 462 L 622 464 L 622 489 L 621 490 L 131 490 L 131 491 L 130 492 L 130 493 L 131 494 L 131 495 L 620 495 L 622 497 L 622 522 L 621 523 L 131 523 L 131 524 L 130 525 L 130 526 L 131 527 L 131 528 L 620 528 L 622 530 L 622 555 L 621 556 L 131 556 L 131 557 L 130 558 L 130 559 L 131 560 L 131 561 L 620 561 L 622 563 L 622 588 L 621 589 L 131 589 L 131 590 L 130 591 L 130 592 L 131 593 L 131 594 L 620 594 L 622 596 L 622 621 L 621 622 L 162 622 L 161 621 L 132 621 L 130 623 L 130 625 L 131 626 L 145 626 L 146 627 L 620 627 L 622 629 L 622 654 L 621 655 L 162 655 L 161 654 L 132 654 L 131 655 L 130 655 L 130 659 L 145 659 L 146 660 L 620 660 L 622 662 L 622 687 L 621 688 L 162 688 L 161 687 L 132 687 L 131 688 L 130 688 L 130 692 L 161 692 L 162 693 L 621 693 L 622 694 L 622 720 L 621 721 L 162 721 L 161 720 L 132 720 L 131 721 L 130 721 L 130 725 L 161 725 L 162 726 L 621 726 L 622 727 L 622 753 L 621 754 L 162 754 L 161 753 L 132 753 L 131 754 L 130 754 L 130 758 L 161 758 L 162 759 L 621 759 L 622 760 L 622 786 L 621 787 L 393 787 L 392 786 L 130 786 L 130 791 L 392 791 L 393 792 L 621 792 L 622 793 L 622 819 L 621 820 L 393 820 L 392 819 L 130 819 L 130 824 L 392 824 L 393 825 L 621 825 L 622 826 L 622 852 L 621 853 L 393 853 L 392 852 L 130 852 L 130 857 L 392 857 L 393 858 L 621 858 L 622 859 L 622 885 L 621 886 L 393 886 L 392 885 L 130 885 L 130 887 L 129 888 L 130 889 L 130 890 L 392 890 L 393 891 L 621 891 L 622 892 L 622 918 L 621 919 L 393 919 L 392 918 L 130 918 L 130 920 L 129 921 L 130 922 L 130 923 L 392 923 L 393 924 L 621 924 L 622 925 L 622 951 L 621 952 L 393 952 L 392 951 L 130 951 L 130 953 L 129 954 L 130 955 L 130 956 L 392 956 L 393 957 L 621 957 L 622 958 L 622 983 L 621 984 L 162 984 L 161 983 L 131 983 L 129 985 L 129 987 L 130 988 L 144 988 L 145 989 L 620 989 L 622 991 L 622 1016 L 621 1017 L 162 1017 L 161 1016 L 131 1016 L 129 1018 L 129 1020 L 130 1021 L 144 1021 L 145 1022 L 620 1022 L 622 1024 L 622 1049 L 621 1050 L 162 1050 L 161 1049 L 131 1049 L 129 1051 L 129 1053 L 130 1054 L 144 1054 L 145 1055 L 620 1055 L 622 1057 L 622 1082 L 621 1083 L 162 1083 L 161 1082 L 131 1082 L 129 1084 L 129 1086 L 130 1087 L 144 1087 L 145 1088 L 620 1088 L 622 1090 L 622 1115 L 621 1116 L 161 1116 L 160 1115 L 131 1115 L 130 1116 L 129 1116 L 129 1120 L 144 1120 L 145 1121 L 620 1121 L 622 1123 L 622 1227 L 621 1228 L 7 1228 L 6 1227 L 6 7 z" />
</g>
</g>
</svg>
</svg>