<?xml version="1.0" encoding="UTF-8"?>
<svg xmlns="http://www.w3.org/2000/svg" xmlns:xlink="http://www.w3.org/1999/xlink"
     width="604" height="972" viewBox="0 0 604 972">
<defs>
</defs>
<svg id="0" fill="grey" stroke="black">
<path d="M 208 0 L 207 1 L 205 1 L 204 2 L 203 2 L 199 6 L 199 7 L 198 8 L 198 9 L 197 10 L 197 66 L 196 67 L 192 67 L 191 68 L 187 68 L 186 69 L 183 69 L 182 70 L 179 70 L 178 71 L 175 71 L 174 72 L 172 72 L 171 73 L 170 73 L 169 74 L 167 74 L 166 75 L 165 75 L 164 76 L 162 76 L 161 77 L 160 77 L 159 78 L 158 78 L 157 79 L 156 79 L 155 80 L 154 80 L 153 81 L 152 81 L 150 83 L 149 83 L 148 84 L 147 84 L 145 86 L 144 86 L 142 88 L 141 88 L 139 90 L 138 90 L 134 94 L 133 94 L 119 108 L 119 109 L 115 113 L 115 114 L 113 116 L 113 117 L 111 119 L 111 120 L 109 122 L 109 123 L 108 124 L 108 125 L 106 127 L 106 128 L 105 129 L 105 130 L 104 131 L 104 132 L 103 133 L 103 134 L 102 135 L 102 136 L 101 137 L 101 139 L 100 140 L 100 141 L 99 142 L 99 144 L 98 145 L 98 147 L 97 148 L 97 150 L 96 151 L 96 153 L 95 154 L 95 157 L 94 158 L 94 161 L 93 162 L 93 166 L 92 167 L 92 175 L 91 176 L 91 186 L 92 187 L 92 190 L 91 191 L 65 191 L 63 193 L 63 245 L 62 246 L 31 246 L 29 248 L 29 476 L 28 477 L 2 477 L 0 479 L 0 970 L 1 971 L 603 971 L 603 355 L 602 354 L 390 354 L 389 353 L 389 247 L 388 246 L 357 246 L 356 245 L 356 192 L 355 191 L 328 191 L 327 190 L 327 189 L 328 188 L 328 174 L 327 173 L 327 165 L 326 164 L 326 160 L 325 159 L 325 156 L 324 155 L 324 152 L 323 151 L 323 149 L 322 148 L 322 146 L 321 145 L 321 143 L 320 142 L 320 140 L 319 139 L 319 138 L 318 137 L 318 136 L 317 135 L 317 134 L 316 133 L 316 132 L 315 131 L 315 130 L 314 129 L 314 128 L 313 127 L 313 126 L 312 125 L 312 124 L 310 122 L 310 121 L 309 120 L 309 119 L 306 116 L 306 115 L 303 112 L 303 111 L 299 107 L 299 106 L 290 97 L 289 97 L 284 92 L 283 92 L 280 89 L 279 89 L 277 87 L 276 87 L 274 85 L 273 85 L 272 84 L 271 84 L 269 82 L 268 82 L 267 81 L 266 81 L 265 80 L 264 80 L 263 79 L 262 79 L 261 78 L 260 78 L 259 77 L 258 77 L 257 76 L 256 76 L 255 75 L 253 75 L 252 74 L 251 74 L 250 73 L 248 73 L 247 72 L 245 72 L 244 71 L 241 71 L 240 70 L 238 70 L 237 69 L 233 69 L 232 68 L 228 68 L 227 67 L 223 67 L 222 66 L 222 8 L 221 7 L 221 6 L 217 2 L 216 2 L 215 1 L 213 1 L 212 0 z" />
<path d="M 207 1 L 208 0 L 212 0 L 213 1 L 215 1 L 217 3 L 218 3 L 220 5 L 220 6 L 222 8 L 222 66 L 223 67 L 227 67 L 228 68 L 232 68 L 233 69 L 237 69 L 238 70 L 240 70 L 241 71 L 244 71 L 245 72 L 247 72 L 248 73 L 250 73 L 251 74 L 252 74 L 253 75 L 255 75 L 256 76 L 257 76 L 258 77 L 259 77 L 260 78 L 261 78 L 262 79 L 263 79 L 264 80 L 265 80 L 266 81 L 267 81 L 269 83 L 270 83 L 271 84 L 272 84 L 274 86 L 275 86 L 277 88 L 278 88 L 281 91 L 282 91 L 287 96 L 288 96 L 300 108 L 300 109 L 304 113 L 304 114 L 307 117 L 307 118 L 310 121 L 310 122 L 311 123 L 311 124 L 313 126 L 313 127 L 314 128 L 314 129 L 315 130 L 315 131 L 316 132 L 316 133 L 317 134 L 317 135 L 318 136 L 318 137 L 319 138 L 319 139 L 320 140 L 320 142 L 321 143 L 321 145 L 322 146 L 322 148 L 323 149 L 323 151 L 324 152 L 324 155 L 325 156 L 325 159 L 326 160 L 326 164 L 327 165 L 327 173 L 328 174 L 328 188 L 327 189 L 327 190 L 328 191 L 355 191 L 356 192 L 356 245 L 357 246 L 388 246 L 389 247 L 389 353 L 390 354 L 602 354 L 603 355 L 603 970 L 602 971 L 1 971 L 0 970 L 0 479 L 2 477 L 29 477 L 29 248 L 31 246 L 63 246 L 63 193 L 65 191 L 92 191 L 92 187 L 91 186 L 91 176 L 92 175 L 92 167 L 93 166 L 93 162 L 94 161 L 94 158 L 95 157 L 95 154 L 96 153 L 96 151 L 97 150 L 97 148 L 98 147 L 98 145 L 99 144 L 99 142 L 100 141 L 100 140 L 101 139 L 101 137 L 102 136 L 102 135 L 103 134 L 103 133 L 104 132 L 104 131 L 105 130 L 105 129 L 107 127 L 107 126 L 108 125 L 108 124 L 110 122 L 110 121 L 112 119 L 112 118 L 114 116 L 114 115 L 118 111 L 118 110 L 135 93 L 136 93 L 140 89 L 141 89 L 143 87 L 144 87 L 146 85 L 147 85 L 149 83 L 150 83 L 151 82 L 152 82 L 154 80 L 155 80 L 156 79 L 157 79 L 158 78 L 159 78 L 160 77 L 161 77 L 162 76 L 164 76 L 165 75 L 166 75 L 167 74 L 169 74 L 170 73 L 171 73 L 172 72 L 174 72 L 175 71 L 178 71 L 179 70 L 182 70 L 183 69 L 186 69 L 187 68 L 191 68 L 192 67 L 197 67 L 197 10 L 198 9 L 198 8 L 200 6 L 200 5 L 202 3 L 203 3 L 205 1 z" />
<g id="1">
<path d="M 230 482 L 228 484 L 228 496 L 229 497 L 229 498 L 387 498 L 388 499 L 388 502 L 387 503 L 229 503 L 229 504 L 228 505 L 228 520 L 229 521 L 387 521 L 388 522 L 388 525 L 387 526 L 230 526 L 228 528 L 228 543 L 229 544 L 229 545 L 387 545 L 388 546 L 388 549 L 387 550 L 229 550 L 229 551 L 228 552 L 228 567 L 229 568 L 387 568 L 388 569 L 388 572 L 387 573 L 230 573 L 228 575 L 228 590 L 229 591 L 387 591 L 388 592 L 388 595 L 387 596 L 230 596 L 228 598 L 228 613 L 229 614 L 229 615 L 387 615 L 388 616 L 388 619 L 387 620 L 229 620 L 229 621 L 228 622 L 228 637 L 229 638 L 387 638 L 388 639 L 388 642 L 387 643 L 230 643 L 228 645 L 228 660 L 229 661 L 229 662 L 387 662 L 388 663 L 388 666 L 387 667 L 229 667 L 229 668 L 228 669 L 228 683 L 229 684 L 229 685 L 387 685 L 388 686 L 388 689 L 387 690 L 229 690 L 229 691 L 228 692 L 228 707 L 229 708 L 387 708 L 388 709 L 388 712 L 387 713 L 230 713 L 228 715 L 228 730 L 229 731 L 229 732 L 387 732 L 388 733 L 388 736 L 387 737 L 229 737 L 229 738 L 228 739 L 228 754 L 229 755 L 387 755 L 388 756 L 388 759 L 387 760 L 230 760 L 228 762 L 228 777 L 229 778 L 387 778 L 388 779 L 388 782 L 387 783 L 230 783 L 228 785 L 228 800 L 229 801 L 229 802 L 387 802 L 388 803 L 388 806 L 387 807 L 229 807 L 229 808 L 228 809 L 228 824 L 229 825 L 387 825 L 388 826 L 388 829 L 387 830 L 230 830 L 228 832 L 228 847 L 229 848 L 387 848 L 388 849 L 388 852 L 387 853 L 230 853 L 228 855 L 228 870 L 229 871 L 229 872 L 387 872 L 388 873 L 388 876 L 387 877 L 229 877 L 229 878 L 228 879 L 228 894 L 229 895 L 387 895 L 388 896 L 388 899 L 387 900 L 230 900 L 228 902 L 228 917 L 229 918 L 229 919 L 387 919 L 388 920 L 388 923 L 387 924 L 229 924 L 229 925 L 228 926 L 228 940 L 229 941 L 229 942 L 387 942 L 388 943 L 388 946 L 387 947 L 229 947 L 229 948 L 228 949 L 228 964 L 229 965 L 229 966 L 414 966 L 414 483 L 413 483 L 412 482 z" />
<path d="M 7 482 L 5 484 L 5 964 L 6 965 L 6 966 L 191 966 L 191 947 L 33 947 L 31 945 L 31 944 L 33 942 L 191 942 L 191 924 L 33 924 L 31 922 L 31 921 L 33 919 L 191 919 L 191 901 L 190 901 L 189 900 L 32 900 L 31 899 L 31 897 L 33 895 L 191 895 L 191 877 L 33 877 L 31 875 L 31 874 L 33 872 L 191 872 L 191 854 L 190 854 L 189 853 L 32 853 L 31 852 L 31 850 L 33 848 L 191 848 L 191 831 L 190 831 L 189 830 L 32 830 L 31 829 L 31 827 L 33 825 L 191 825 L 191 807 L 33 807 L 31 805 L 31 804 L 33 802 L 191 802 L 191 784 L 190 784 L 189 783 L 32 783 L 31 782 L 31 780 L 33 778 L 191 778 L 191 761 L 190 761 L 189 760 L 32 760 L 31 759 L 31 757 L 33 755 L 191 755 L 191 737 L 33 737 L 31 735 L 31 734 L 33 732 L 191 732 L 191 714 L 190 714 L 189 713 L 32 713 L 31 712 L 31 710 L 33 708 L 191 708 L 191 690 L 33 690 L 31 688 L 31 687 L 33 685 L 191 685 L 191 667 L 33 667 L 31 665 L 31 664 L 33 662 L 191 662 L 191 644 L 190 644 L 189 643 L 32 643 L 31 642 L 31 640 L 33 638 L 191 638 L 191 620 L 33 620 L 31 618 L 31 617 L 33 615 L 191 615 L 191 597 L 190 597 L 189 596 L 32 596 L 31 595 L 31 593 L 33 591 L 191 591 L 191 574 L 190 574 L 189 573 L 32 573 L 31 572 L 31 570 L 33 568 L 191 568 L 191 550 L 33 550 L 31 548 L 31 547 L 33 545 L 191 545 L 191 527 L 190 527 L 189 526 L 32 526 L 31 525 L 31 523 L 33 521 L 191 521 L 191 503 L 33 503 L 31 501 L 31 500 L 33 498 L 191 498 L 191 483 L 190 483 L 189 482 z" />
<path d="M 390 426 L 390 427 L 389 428 L 389 476 L 390 477 L 417 477 L 419 479 L 419 966 L 492 966 L 492 426 z" />
<path d="M 390 360 L 390 361 L 389 362 L 389 419 L 390 420 L 390 421 L 496 421 L 497 422 L 497 964 L 498 965 L 498 966 L 598 966 L 598 360 z" />
<path d="M 229 252 L 229 253 L 228 254 L 228 268 L 229 269 L 357 269 L 359 271 L 359 273 L 358 274 L 230 274 L 228 276 L 228 291 L 229 292 L 357 292 L 359 294 L 359 296 L 358 297 L 230 297 L 228 299 L 228 314 L 229 315 L 229 316 L 358 316 L 359 317 L 359 320 L 358 321 L 229 321 L 229 322 L 228 323 L 228 337 L 229 338 L 229 339 L 358 339 L 359 340 L 359 343 L 358 344 L 229 344 L 229 345 L 228 346 L 228 361 L 229 362 L 357 362 L 359 364 L 359 366 L 358 367 L 230 367 L 228 369 L 228 384 L 229 385 L 357 385 L 359 387 L 359 389 L 358 390 L 230 390 L 228 392 L 228 407 L 229 408 L 357 408 L 359 410 L 359 412 L 358 413 L 230 413 L 228 415 L 228 430 L 229 431 L 229 432 L 358 432 L 359 433 L 359 436 L 358 437 L 229 437 L 229 438 L 228 439 L 228 453 L 229 454 L 229 455 L 358 455 L 359 456 L 359 459 L 358 460 L 229 460 L 229 461 L 228 462 L 228 476 L 229 477 L 384 477 L 384 252 z" />
<path d="M 35 252 L 35 477 L 191 477 L 191 460 L 62 460 L 61 459 L 61 456 L 62 455 L 191 455 L 191 437 L 62 437 L 61 436 L 61 433 L 62 432 L 191 432 L 191 414 L 190 414 L 189 413 L 62 413 L 61 412 L 61 410 L 63 408 L 191 408 L 191 391 L 190 391 L 189 390 L 62 390 L 61 389 L 61 387 L 63 385 L 191 385 L 191 368 L 190 368 L 189 367 L 62 367 L 61 366 L 61 364 L 63 362 L 191 362 L 191 344 L 62 344 L 61 343 L 61 340 L 62 339 L 191 339 L 191 321 L 62 321 L 61 320 L 61 317 L 62 316 L 191 316 L 191 298 L 190 298 L 189 297 L 62 297 L 61 296 L 61 294 L 63 292 L 191 292 L 191 275 L 190 275 L 189 274 L 62 274 L 61 273 L 61 271 L 63 269 L 191 269 L 191 252 z" />
<path d="M 231 196 L 230 197 L 229 197 L 229 247 L 351 247 L 351 197 L 350 196 z" />
<path d="M 198 196 L 197 197 L 196 197 L 196 966 L 223 966 L 223 249 L 224 248 L 224 197 L 223 197 L 222 196 z" />
<path d="M 70 196 L 68 198 L 68 245 L 69 246 L 69 247 L 191 247 L 191 197 L 190 197 L 189 196 z" />
<path d="M 98 188 L 98 191 L 322 191 L 322 188 z" />
<path d="M 200 72 L 199 73 L 192 73 L 191 74 L 187 74 L 186 75 L 183 75 L 182 76 L 179 76 L 178 77 L 176 77 L 175 78 L 173 78 L 172 79 L 170 79 L 169 80 L 167 80 L 166 81 L 165 81 L 164 82 L 163 82 L 162 83 L 160 83 L 159 84 L 158 84 L 157 85 L 156 85 L 154 87 L 153 87 L 152 88 L 151 88 L 149 90 L 148 90 L 146 92 L 145 92 L 143 94 L 142 94 L 138 98 L 137 98 L 123 112 L 123 113 L 119 117 L 119 118 L 117 120 L 117 121 L 115 123 L 115 124 L 113 126 L 113 127 L 112 128 L 112 129 L 110 131 L 110 132 L 109 133 L 109 134 L 108 135 L 108 137 L 107 138 L 107 139 L 106 140 L 106 142 L 105 143 L 105 144 L 104 145 L 104 147 L 103 148 L 103 150 L 102 151 L 102 153 L 101 154 L 101 157 L 100 158 L 100 161 L 99 162 L 99 166 L 98 167 L 98 174 L 97 175 L 97 182 L 323 182 L 323 175 L 322 174 L 322 167 L 321 166 L 321 162 L 320 161 L 320 158 L 319 157 L 319 154 L 318 153 L 318 151 L 317 150 L 317 148 L 316 147 L 316 145 L 315 144 L 315 143 L 314 142 L 314 140 L 313 139 L 313 138 L 312 137 L 312 136 L 311 135 L 311 134 L 310 133 L 310 132 L 309 131 L 309 130 L 308 129 L 308 128 L 306 126 L 306 125 L 305 124 L 305 123 L 302 120 L 302 119 L 300 117 L 300 116 L 295 111 L 295 110 L 285 100 L 284 100 L 280 96 L 279 96 L 276 93 L 275 93 L 273 91 L 272 91 L 270 89 L 269 89 L 268 88 L 267 88 L 265 86 L 264 86 L 263 85 L 262 85 L 261 84 L 260 84 L 259 83 L 258 83 L 257 82 L 255 82 L 254 81 L 253 81 L 252 80 L 250 80 L 249 79 L 248 79 L 247 78 L 245 78 L 244 77 L 241 77 L 240 76 L 238 76 L 237 75 L 233 75 L 232 74 L 228 74 L 227 73 L 220 73 L 219 72 z" />
<path d="M 208 6 L 207 7 L 206 7 L 203 10 L 203 14 L 202 15 L 202 65 L 203 66 L 203 67 L 217 67 L 218 66 L 217 65 L 217 10 L 214 7 L 213 7 L 212 6 z" />
<g id="2">
<path d="M 230 482 L 412 482 L 414 484 L 414 965 L 413 966 L 230 966 L 228 964 L 228 949 L 230 947 L 388 947 L 388 942 L 230 942 L 228 940 L 228 926 L 230 924 L 388 924 L 388 919 L 230 919 L 228 917 L 228 902 L 230 900 L 388 900 L 388 896 L 387 895 L 229 895 L 228 894 L 228 879 L 230 877 L 388 877 L 388 872 L 230 872 L 228 870 L 228 855 L 230 853 L 388 853 L 388 849 L 387 848 L 229 848 L 228 847 L 228 832 L 230 830 L 388 830 L 388 826 L 387 825 L 229 825 L 228 824 L 228 809 L 230 807 L 388 807 L 388 802 L 230 802 L 228 800 L 228 785 L 230 783 L 388 783 L 388 779 L 387 778 L 229 778 L 228 777 L 228 762 L 230 760 L 388 760 L 388 756 L 387 755 L 229 755 L 228 754 L 228 739 L 230 737 L 388 737 L 388 732 L 230 732 L 228 730 L 228 715 L 230 713 L 388 713 L 388 709 L 387 708 L 229 708 L 228 707 L 228 692 L 230 690 L 388 690 L 388 685 L 230 685 L 228 683 L 228 669 L 230 667 L 388 667 L 388 662 L 230 662 L 228 660 L 228 645 L 230 643 L 388 643 L 388 639 L 387 638 L 229 638 L 228 637 L 228 622 L 230 620 L 388 620 L 388 615 L 230 615 L 228 613 L 228 598 L 230 596 L 388 596 L 388 592 L 387 591 L 229 591 L 228 590 L 228 575 L 230 573 L 388 573 L 388 569 L 387 568 L 229 568 L 228 567 L 228 552 L 230 550 L 388 550 L 388 545 L 230 545 L 228 543 L 228 528 L 230 526 L 388 526 L 388 522 L 387 521 L 229 521 L 228 520 L 228 505 L 230 503 L 388 503 L 388 498 L 230 498 L 228 496 L 228 484 z" />
<path d="M 7 482 L 189 482 L 191 484 L 191 497 L 190 498 L 32 498 L 32 499 L 31 500 L 31 501 L 32 502 L 32 503 L 190 503 L 191 504 L 191 520 L 190 521 L 33 521 L 31 523 L 31 525 L 32 526 L 189 526 L 191 528 L 191 544 L 190 545 L 32 545 L 32 546 L 31 547 L 31 548 L 32 549 L 32 550 L 190 550 L 191 551 L 191 567 L 190 568 L 33 568 L 31 570 L 31 572 L 32 573 L 189 573 L 191 575 L 191 590 L 190 591 L 33 591 L 31 593 L 31 595 L 32 596 L 189 596 L 191 598 L 191 614 L 190 615 L 32 615 L 32 616 L 31 617 L 31 618 L 32 619 L 32 620 L 190 620 L 191 621 L 191 637 L 190 638 L 33 638 L 31 640 L 31 642 L 32 643 L 189 643 L 191 645 L 191 661 L 190 662 L 32 662 L 32 663 L 31 664 L 31 665 L 32 666 L 32 667 L 190 667 L 191 668 L 191 684 L 190 685 L 32 685 L 32 686 L 31 687 L 31 688 L 32 689 L 32 690 L 190 690 L 191 691 L 191 707 L 190 708 L 33 708 L 31 710 L 31 712 L 32 713 L 189 713 L 191 715 L 191 731 L 190 732 L 32 732 L 32 733 L 31 734 L 31 735 L 32 736 L 32 737 L 190 737 L 191 738 L 191 754 L 190 755 L 33 755 L 31 757 L 31 759 L 32 760 L 189 760 L 191 762 L 191 777 L 190 778 L 33 778 L 31 780 L 31 782 L 32 783 L 189 783 L 191 785 L 191 801 L 190 802 L 32 802 L 32 803 L 31 804 L 31 805 L 32 806 L 32 807 L 190 807 L 191 808 L 191 824 L 190 825 L 33 825 L 31 827 L 31 829 L 32 830 L 189 830 L 191 832 L 191 847 L 190 848 L 33 848 L 31 850 L 31 852 L 32 853 L 189 853 L 191 855 L 191 871 L 190 872 L 32 872 L 32 873 L 31 874 L 31 875 L 32 876 L 32 877 L 190 877 L 191 878 L 191 894 L 190 895 L 33 895 L 31 897 L 31 899 L 32 900 L 189 900 L 191 902 L 191 918 L 190 919 L 32 919 L 32 920 L 31 921 L 31 922 L 32 923 L 32 924 L 190 924 L 191 925 L 191 941 L 190 942 L 32 942 L 32 943 L 31 944 L 31 945 L 32 946 L 32 947 L 190 947 L 191 948 L 191 965 L 190 966 L 7 966 L 5 964 L 5 484 z" />
<path d="M 391 426 L 491 426 L 492 427 L 492 965 L 491 966 L 420 966 L 419 965 L 419 478 L 418 478 L 417 477 L 390 477 L 389 476 L 389 428 z" />
<path d="M 391 360 L 597 360 L 598 361 L 598 965 L 597 966 L 499 966 L 497 964 L 497 421 L 391 421 L 389 419 L 389 362 z" />
<path d="M 230 252 L 383 252 L 384 253 L 384 476 L 383 477 L 229 477 L 228 476 L 228 462 L 230 460 L 359 460 L 359 455 L 230 455 L 228 453 L 228 439 L 230 437 L 359 437 L 359 432 L 230 432 L 228 430 L 228 415 L 230 413 L 359 413 L 359 409 L 358 409 L 357 408 L 229 408 L 228 407 L 228 392 L 230 390 L 359 390 L 359 386 L 358 386 L 357 385 L 229 385 L 228 384 L 228 369 L 230 367 L 359 367 L 359 363 L 358 363 L 357 362 L 229 362 L 228 361 L 228 346 L 230 344 L 359 344 L 359 339 L 230 339 L 228 337 L 228 323 L 230 321 L 359 321 L 359 316 L 230 316 L 228 314 L 228 299 L 230 297 L 359 297 L 359 293 L 358 293 L 357 292 L 229 292 L 228 291 L 228 276 L 230 274 L 359 274 L 359 270 L 358 270 L 357 269 L 229 269 L 228 268 L 228 254 z" />
<path d="M 35 253 L 36 252 L 190 252 L 191 253 L 191 268 L 190 269 L 63 269 L 62 270 L 61 270 L 61 274 L 189 274 L 191 276 L 191 291 L 190 292 L 63 292 L 62 293 L 61 293 L 61 297 L 189 297 L 191 299 L 191 315 L 190 316 L 61 316 L 61 321 L 190 321 L 191 322 L 191 338 L 190 339 L 61 339 L 61 344 L 190 344 L 191 345 L 191 361 L 190 362 L 63 362 L 62 363 L 61 363 L 61 367 L 189 367 L 191 369 L 191 384 L 190 385 L 63 385 L 62 386 L 61 386 L 61 390 L 189 390 L 191 392 L 191 407 L 190 408 L 63 408 L 62 409 L 61 409 L 61 413 L 189 413 L 191 415 L 191 431 L 190 432 L 61 432 L 61 437 L 190 437 L 191 438 L 191 454 L 190 455 L 61 455 L 61 460 L 190 460 L 191 461 L 191 476 L 190 477 L 36 477 L 35 476 z" />
<path d="M 231 196 L 350 196 L 351 197 L 351 246 L 350 247 L 230 247 L 229 246 L 229 198 z" />
<path d="M 198 196 L 222 196 L 224 198 L 224 248 L 223 249 L 223 965 L 222 966 L 197 966 L 196 965 L 196 198 z" />
<path d="M 70 196 L 189 196 L 191 198 L 191 246 L 190 247 L 70 247 L 68 245 L 68 198 z" />
<path d="M 98 189 L 99 188 L 321 188 L 322 189 L 322 190 L 321 191 L 99 191 L 98 190 z" />
<path d="M 199 73 L 200 72 L 219 72 L 220 73 L 227 73 L 228 74 L 232 74 L 233 75 L 237 75 L 238 76 L 240 76 L 241 77 L 244 77 L 245 78 L 247 78 L 248 79 L 249 79 L 250 80 L 252 80 L 253 81 L 254 81 L 255 82 L 256 82 L 257 83 L 258 83 L 259 84 L 260 84 L 261 85 L 262 85 L 263 86 L 264 86 L 266 88 L 267 88 L 268 89 L 269 89 L 271 91 L 272 91 L 274 93 L 275 93 L 278 96 L 279 96 L 283 100 L 284 100 L 295 111 L 295 112 L 300 117 L 300 118 L 302 120 L 302 121 L 305 124 L 305 125 L 306 126 L 306 127 L 308 129 L 308 130 L 309 131 L 309 132 L 310 133 L 310 134 L 311 135 L 311 136 L 313 138 L 313 139 L 314 140 L 314 142 L 315 143 L 315 144 L 316 145 L 316 147 L 317 148 L 317 150 L 318 151 L 318 153 L 319 154 L 319 157 L 320 158 L 320 161 L 321 162 L 321 166 L 322 167 L 322 174 L 323 175 L 323 181 L 322 182 L 98 182 L 97 181 L 97 175 L 98 174 L 98 167 L 99 166 L 99 162 L 100 161 L 100 158 L 101 157 L 101 154 L 102 153 L 102 151 L 103 150 L 103 148 L 104 147 L 104 145 L 105 144 L 105 143 L 106 142 L 106 140 L 107 139 L 107 138 L 108 137 L 108 136 L 109 135 L 109 134 L 110 133 L 110 132 L 112 130 L 112 129 L 113 128 L 113 127 L 115 125 L 115 124 L 117 122 L 117 121 L 119 119 L 119 118 L 123 114 L 123 113 L 138 98 L 139 98 L 143 94 L 144 94 L 146 92 L 147 92 L 149 90 L 150 90 L 152 88 L 153 88 L 154 87 L 155 87 L 157 85 L 158 85 L 159 84 L 160 84 L 161 83 L 162 83 L 163 82 L 164 82 L 165 81 L 166 81 L 167 80 L 169 80 L 170 79 L 172 79 L 173 78 L 175 78 L 176 77 L 178 77 L 179 76 L 182 76 L 183 75 L 186 75 L 187 74 L 191 74 L 192 73 z" />
<path d="M 208 6 L 212 6 L 217 11 L 217 65 L 218 66 L 217 67 L 204 67 L 202 65 L 202 15 L 203 14 L 203 11 z" />
</g>
</g>
</svg>
</svg>