<?xml version="1.0" encoding="UTF-8"?>
<svg xmlns="http://www.w3.org/2000/svg" xmlns:xlink="http://www.w3.org/1999/xlink"
     width="241" height="1431" viewBox="0 0 241 1431">
<defs>
</defs>
<svg id="0" fill="grey" stroke="black">
<path d="M 35 0 L 34 1 L 34 2 L 33 3 L 33 107 L 31 109 L 31 235 L 30 236 L 25 236 L 23 238 L 23 299 L 22 300 L 2 300 L 0 302 L 0 1429 L 1 1430 L 240 1430 L 240 301 L 239 300 L 217 300 L 216 299 L 216 237 L 215 236 L 210 236 L 209 235 L 209 109 L 206 106 L 206 1 L 205 0 L 200 0 L 199 1 L 199 2 L 198 3 L 198 107 L 196 109 L 196 235 L 195 236 L 190 236 L 188 238 L 188 299 L 187 300 L 172 300 L 171 299 L 171 250 L 170 249 L 70 249 L 68 251 L 68 299 L 67 300 L 52 300 L 51 299 L 51 237 L 50 236 L 45 236 L 44 235 L 44 109 L 42 107 L 42 2 L 40 0 z" />
<path d="M 25 236 L 31 236 L 32 237 L 32 241 L 31 242 L 29 242 L 29 300 L 30 301 L 45 301 L 46 300 L 46 242 L 44 242 L 43 241 L 43 237 L 44 236 L 50 236 L 51 237 L 51 299 L 52 300 L 68 300 L 68 251 L 70 249 L 170 249 L 171 250 L 171 299 L 172 300 L 188 300 L 188 238 L 190 236 L 196 236 L 197 237 L 197 241 L 196 242 L 194 242 L 194 300 L 195 300 L 196 301 L 210 301 L 211 300 L 211 242 L 210 242 L 208 240 L 208 238 L 210 236 L 215 236 L 216 237 L 216 299 L 217 300 L 239 300 L 240 301 L 240 1429 L 239 1430 L 1 1430 L 0 1429 L 0 302 L 2 300 L 23 300 L 23 238 z" />
<path d="M 199 1 L 200 0 L 205 0 L 206 1 L 206 106 L 209 109 L 209 235 L 210 236 L 209 237 L 208 237 L 208 241 L 209 242 L 210 242 L 211 243 L 211 300 L 210 301 L 196 301 L 194 299 L 194 243 L 195 242 L 197 242 L 197 237 L 196 236 L 196 109 L 198 107 L 198 3 L 199 2 z" />
<path d="M 34 1 L 35 0 L 40 0 L 42 2 L 42 107 L 44 109 L 44 236 L 43 237 L 43 242 L 45 242 L 46 243 L 46 300 L 45 301 L 30 301 L 29 300 L 29 243 L 30 242 L 32 242 L 32 237 L 31 236 L 31 109 L 33 107 L 33 3 L 34 2 z" />
<path d="M 75 1422 L 74 1423 L 75 1424 L 75 1425 L 165 1425 L 166 1424 L 166 1423 L 165 1422 z" />
<path d="M 76 1405 L 74 1407 L 74 1415 L 75 1416 L 75 1417 L 165 1417 L 166 1416 L 166 1406 L 165 1406 L 164 1405 z" />
<path d="M 76 1397 L 74 1399 L 75 1400 L 166 1400 L 166 1398 L 165 1398 L 164 1397 z" />
<path d="M 75 1381 L 74 1382 L 74 1391 L 75 1392 L 166 1392 L 166 1382 L 165 1381 z" />
<path d="M 75 1373 L 74 1374 L 75 1375 L 75 1376 L 165 1376 L 166 1375 L 166 1374 L 165 1373 z" />
<path d="M 76 1356 L 74 1358 L 74 1366 L 75 1367 L 75 1368 L 165 1368 L 166 1367 L 166 1357 L 165 1357 L 164 1356 z" />
<path d="M 76 1348 L 74 1350 L 75 1351 L 166 1351 L 166 1349 L 165 1349 L 164 1348 z" />
<path d="M 75 1332 L 74 1333 L 74 1342 L 75 1343 L 166 1343 L 166 1333 L 165 1332 z" />
<path d="M 75 1324 L 74 1325 L 75 1326 L 75 1327 L 165 1327 L 166 1326 L 166 1325 L 165 1324 z" />
<path d="M 76 1307 L 74 1309 L 74 1318 L 75 1319 L 165 1319 L 166 1318 L 166 1308 L 165 1308 L 164 1307 z" />
<path d="M 75 1300 L 74 1301 L 75 1302 L 166 1302 L 166 1300 z" />
<path d="M 75 1283 L 74 1284 L 74 1293 L 76 1295 L 164 1295 L 165 1294 L 166 1294 L 166 1284 L 165 1283 z" />
<path d="M 75 1275 L 75 1276 L 74 1277 L 75 1278 L 165 1278 L 166 1277 L 166 1276 L 165 1275 z" />
<path d="M 75 1259 L 74 1260 L 74 1269 L 75 1270 L 165 1270 L 166 1269 L 166 1259 z" />
<path d="M 75 1251 L 74 1252 L 76 1254 L 164 1254 L 165 1253 L 166 1253 L 166 1251 z" />
<path d="M 75 1234 L 75 1235 L 74 1236 L 74 1244 L 76 1246 L 164 1246 L 165 1245 L 166 1245 L 166 1235 L 165 1234 z" />
<path d="M 75 1226 L 75 1227 L 74 1228 L 75 1229 L 165 1229 L 166 1228 L 166 1227 L 165 1226 z" />
<path d="M 75 1210 L 74 1211 L 74 1220 L 75 1221 L 165 1221 L 166 1220 L 166 1210 z" />
<path d="M 75 1202 L 74 1203 L 76 1205 L 164 1205 L 165 1204 L 166 1204 L 166 1202 z" />
<path d="M 75 1185 L 75 1186 L 74 1187 L 74 1195 L 76 1197 L 164 1197 L 165 1196 L 166 1196 L 166 1186 L 165 1185 z" />
<path d="M 75 1177 L 75 1178 L 74 1179 L 75 1180 L 165 1180 L 166 1179 L 166 1178 L 165 1177 z" />
<path d="M 75 1161 L 74 1162 L 74 1171 L 75 1172 L 165 1172 L 166 1171 L 166 1161 z" />
<path d="M 75 1153 L 74 1154 L 76 1156 L 164 1156 L 165 1155 L 166 1155 L 166 1153 z" />
<path d="M 75 1136 L 75 1137 L 74 1138 L 74 1146 L 76 1148 L 164 1148 L 165 1147 L 166 1147 L 166 1137 L 165 1136 z" />
<path d="M 75 1128 L 75 1129 L 74 1130 L 75 1131 L 165 1131 L 166 1130 L 166 1129 L 165 1128 z" />
<path d="M 75 1112 L 74 1113 L 74 1122 L 75 1123 L 166 1123 L 166 1112 z" />
<path d="M 75 1104 L 74 1105 L 76 1107 L 164 1107 L 165 1106 L 166 1106 L 166 1104 z" />
<path d="M 75 1087 L 75 1088 L 74 1089 L 74 1097 L 76 1099 L 164 1099 L 166 1097 L 166 1088 L 165 1087 z" />
<path d="M 76 1079 L 74 1081 L 75 1082 L 166 1082 L 166 1080 L 165 1080 L 164 1079 z" />
<path d="M 75 1063 L 74 1064 L 74 1072 L 75 1073 L 75 1074 L 165 1074 L 165 1073 L 166 1072 L 166 1064 L 165 1063 z" />
<path d="M 75 1055 L 74 1056 L 76 1058 L 164 1058 L 165 1057 L 166 1057 L 166 1055 z" />
<path d="M 75 1038 L 75 1039 L 74 1040 L 74 1048 L 76 1050 L 164 1050 L 166 1048 L 166 1040 L 164 1038 z" />
<path d="M 76 1030 L 74 1032 L 75 1033 L 165 1033 L 166 1032 L 164 1030 z" />
<path d="M 75 1014 L 74 1015 L 74 1024 L 75 1025 L 166 1025 L 166 1014 z" />
<path d="M 75 1006 L 74 1007 L 75 1008 L 75 1009 L 165 1009 L 166 1008 L 166 1006 z" />
<path d="M 76 989 L 74 991 L 74 999 L 75 1000 L 75 1001 L 165 1001 L 166 1000 L 166 991 L 164 989 z" />
<path d="M 76 981 L 74 983 L 75 984 L 166 984 L 166 982 L 165 982 L 164 981 z" />
<path d="M 75 965 L 74 966 L 74 975 L 75 976 L 166 976 L 166 965 z" />
<path d="M 75 957 L 74 958 L 75 959 L 75 960 L 165 960 L 166 959 L 166 958 L 165 957 z" />
<path d="M 76 940 L 74 942 L 74 950 L 75 951 L 75 952 L 165 952 L 166 951 L 166 941 L 165 941 L 164 940 z" />
<path d="M 76 932 L 74 934 L 75 935 L 166 935 L 166 933 L 165 933 L 164 932 z" />
<path d="M 75 916 L 74 917 L 74 926 L 75 927 L 166 927 L 166 917 L 165 916 z" />
<path d="M 75 908 L 74 909 L 75 910 L 75 911 L 165 911 L 166 910 L 166 909 L 165 908 z" />
<path d="M 76 891 L 74 893 L 74 901 L 75 902 L 75 903 L 165 903 L 166 902 L 166 892 L 165 892 L 164 891 z" />
<path d="M 76 883 L 74 885 L 75 886 L 166 886 L 166 884 L 165 884 L 164 883 z" />
<path d="M 75 867 L 74 868 L 74 877 L 75 878 L 166 878 L 166 868 L 165 867 z" />
<path d="M 75 859 L 74 860 L 75 861 L 75 862 L 165 862 L 166 861 L 166 860 L 165 859 z" />
<path d="M 76 842 L 74 844 L 74 852 L 75 853 L 75 854 L 165 854 L 166 853 L 166 843 L 165 843 L 164 842 z" />
<path d="M 76 834 L 74 836 L 75 837 L 166 837 L 166 835 L 165 835 L 164 834 z" />
<path d="M 75 818 L 74 819 L 74 828 L 75 829 L 166 829 L 166 819 L 165 818 z" />
<path d="M 75 810 L 74 811 L 75 812 L 75 813 L 165 813 L 166 812 L 166 811 L 165 810 z" />
<path d="M 76 793 L 74 795 L 74 804 L 75 805 L 165 805 L 166 804 L 166 794 L 165 794 L 164 793 z" />
<path d="M 76 785 L 74 787 L 75 788 L 166 788 L 166 786 L 165 786 L 164 785 z" />
<path d="M 75 769 L 74 770 L 74 779 L 75 780 L 166 780 L 166 770 L 165 769 z" />
<path d="M 75 761 L 75 762 L 74 763 L 75 764 L 165 764 L 166 763 L 166 762 L 165 761 z" />
<path d="M 75 745 L 74 746 L 74 754 L 75 755 L 75 756 L 165 756 L 165 755 L 166 754 L 166 746 L 165 745 z" />
<path d="M 75 737 L 74 738 L 75 739 L 166 739 L 166 737 z" />
<path d="M 75 720 L 75 721 L 74 722 L 74 730 L 75 731 L 165 731 L 166 730 L 166 722 L 165 721 L 165 720 z" />
<path d="M 75 712 L 75 715 L 165 715 L 166 714 L 166 713 L 165 712 z" />
<path d="M 75 696 L 74 697 L 74 706 L 75 707 L 165 707 L 166 706 L 166 696 z" />
<path d="M 75 688 L 74 689 L 76 691 L 164 691 L 165 690 L 166 690 L 166 688 z" />
<path d="M 75 671 L 75 672 L 74 673 L 74 681 L 76 683 L 164 683 L 165 682 L 166 682 L 166 672 L 165 671 z" />
<path d="M 75 663 L 75 664 L 74 665 L 75 666 L 165 666 L 166 665 L 166 664 L 165 663 z" />
<path d="M 75 647 L 74 648 L 74 657 L 75 658 L 165 658 L 166 657 L 166 647 z" />
<path d="M 75 639 L 74 640 L 76 642 L 164 642 L 165 641 L 166 641 L 166 639 z" />
<path d="M 75 622 L 75 623 L 74 624 L 74 632 L 76 634 L 164 634 L 165 633 L 166 633 L 166 623 L 165 622 z" />
<path d="M 75 614 L 75 615 L 74 616 L 75 617 L 165 617 L 166 616 L 166 615 L 165 614 z" />
<path d="M 75 598 L 74 599 L 74 608 L 75 609 L 166 609 L 166 598 z" />
<path d="M 75 590 L 74 591 L 76 593 L 164 593 L 165 592 L 166 592 L 166 590 z" />
<path d="M 75 573 L 75 574 L 74 575 L 74 583 L 76 585 L 164 585 L 166 583 L 166 574 L 165 573 z" />
<path d="M 75 565 L 75 566 L 74 567 L 75 568 L 166 568 L 166 566 L 165 565 z" />
<path d="M 75 549 L 74 550 L 74 559 L 75 560 L 166 560 L 166 549 z" />
<path d="M 75 541 L 74 542 L 76 544 L 164 544 L 166 542 L 166 541 z" />
<path d="M 75 524 L 75 525 L 74 526 L 74 534 L 75 535 L 75 536 L 165 536 L 166 535 L 166 525 L 165 524 z" />
<path d="M 75 516 L 75 517 L 74 518 L 75 519 L 166 519 L 166 517 L 165 516 z" />
<path d="M 75 500 L 74 501 L 74 510 L 75 511 L 166 511 L 166 500 z" />
<path d="M 75 492 L 74 493 L 75 494 L 75 495 L 165 495 L 166 494 L 166 492 z" />
<path d="M 75 475 L 75 476 L 74 477 L 74 485 L 75 486 L 75 487 L 165 487 L 166 486 L 166 476 L 165 475 z" />
<path d="M 76 467 L 74 469 L 75 470 L 166 470 L 166 469 L 164 467 z" />
<path d="M 75 451 L 74 452 L 74 461 L 75 462 L 166 462 L 166 451 z" />
<path d="M 75 443 L 74 444 L 75 445 L 75 446 L 165 446 L 166 445 L 166 444 L 165 443 z" />
<path d="M 76 426 L 74 428 L 74 436 L 75 437 L 75 438 L 165 438 L 166 437 L 166 428 L 164 426 z" />
<path d="M 76 419 L 75 420 L 75 421 L 165 421 L 164 420 L 164 419 z" />
<path d="M 75 402 L 74 403 L 74 413 L 76 415 L 164 415 L 165 414 L 166 414 L 166 402 z" />
<path d="M 95 324 L 94 325 L 94 396 L 95 397 L 145 397 L 146 396 L 146 324 z" />
<path d="M 171 306 L 171 1425 L 234 1425 L 234 1424 L 235 1423 L 235 307 L 234 306 z" />
<path d="M 152 306 L 151 307 L 151 395 L 153 397 L 164 397 L 166 395 L 166 307 L 165 306 z" />
<path d="M 96 306 L 94 308 L 94 317 L 95 318 L 145 318 L 145 307 L 144 306 z" />
<path d="M 75 306 L 74 307 L 74 395 L 76 397 L 87 397 L 89 395 L 89 307 L 88 306 z" />
<path d="M 6 306 L 6 1425 L 69 1425 L 69 306 z" />
<path d="M 74 255 L 74 300 L 75 300 L 76 301 L 165 301 L 166 300 L 166 255 z" />
<path d="M 74 1423 L 75 1422 L 164 1422 L 165 1423 L 165 1424 L 164 1425 L 76 1425 z" />
<path d="M 76 1405 L 164 1405 L 166 1407 L 166 1415 L 164 1417 L 76 1417 L 74 1415 L 74 1407 z" />
<path d="M 76 1397 L 164 1397 L 166 1399 L 165 1400 L 75 1400 L 74 1399 z" />
<path d="M 74 1382 L 75 1381 L 164 1381 L 166 1383 L 166 1391 L 165 1392 L 75 1392 L 74 1391 z" />
<path d="M 75 1374 L 76 1373 L 164 1373 L 165 1374 L 165 1375 L 164 1376 L 76 1376 L 75 1375 z" />
<path d="M 76 1356 L 164 1356 L 166 1358 L 166 1366 L 164 1368 L 76 1368 L 74 1366 L 74 1358 z" />
<path d="M 76 1348 L 164 1348 L 166 1350 L 165 1351 L 75 1351 L 74 1350 z" />
<path d="M 76 1332 L 164 1332 L 166 1334 L 166 1342 L 165 1343 L 75 1343 L 74 1342 L 74 1334 z" />
<path d="M 75 1325 L 76 1324 L 164 1324 L 165 1325 L 165 1326 L 164 1327 L 76 1327 L 75 1326 z" />
<path d="M 76 1307 L 164 1307 L 166 1309 L 166 1317 L 164 1319 L 76 1319 L 74 1317 L 74 1309 z" />
<path d="M 74 1301 L 75 1300 L 165 1300 L 166 1301 L 165 1302 L 75 1302 z" />
<path d="M 76 1283 L 164 1283 L 166 1285 L 166 1293 L 164 1295 L 76 1295 L 74 1293 L 74 1285 z" />
<path d="M 75 1276 L 76 1275 L 164 1275 L 165 1276 L 165 1277 L 164 1278 L 76 1278 L 75 1277 z" />
<path d="M 74 1260 L 75 1259 L 165 1259 L 166 1260 L 166 1268 L 164 1270 L 76 1270 L 74 1268 z" />
<path d="M 74 1252 L 75 1251 L 165 1251 L 166 1252 L 164 1254 L 76 1254 z" />
<path d="M 76 1234 L 164 1234 L 166 1236 L 166 1244 L 164 1246 L 76 1246 L 74 1244 L 74 1236 z" />
<path d="M 75 1227 L 76 1226 L 164 1226 L 165 1227 L 165 1228 L 164 1229 L 76 1229 L 75 1228 z" />
<path d="M 74 1211 L 75 1210 L 165 1210 L 166 1211 L 166 1219 L 164 1221 L 75 1221 L 74 1220 z" />
<path d="M 74 1203 L 75 1202 L 165 1202 L 166 1203 L 164 1205 L 76 1205 z" />
<path d="M 76 1185 L 164 1185 L 166 1187 L 166 1195 L 164 1197 L 76 1197 L 74 1195 L 74 1187 z" />
<path d="M 76 1177 L 164 1177 L 165 1178 L 165 1179 L 164 1180 L 75 1180 L 74 1179 z" />
<path d="M 74 1162 L 75 1161 L 165 1161 L 166 1162 L 166 1170 L 164 1172 L 75 1172 L 74 1171 z" />
<path d="M 74 1154 L 75 1153 L 165 1153 L 166 1154 L 164 1156 L 76 1156 z" />
<path d="M 76 1136 L 164 1136 L 166 1138 L 166 1146 L 164 1148 L 76 1148 L 74 1146 L 74 1138 z" />
<path d="M 76 1128 L 164 1128 L 165 1129 L 165 1130 L 164 1131 L 75 1131 L 74 1130 z" />
<path d="M 74 1113 L 75 1112 L 165 1112 L 166 1113 L 166 1122 L 165 1123 L 75 1123 L 74 1122 z" />
<path d="M 74 1105 L 75 1104 L 165 1104 L 166 1105 L 164 1107 L 76 1107 z" />
<path d="M 76 1087 L 164 1087 L 166 1089 L 166 1097 L 164 1099 L 76 1099 L 74 1097 L 74 1089 z" />
<path d="M 76 1079 L 164 1079 L 166 1081 L 165 1082 L 75 1082 L 74 1081 z" />
<path d="M 74 1064 L 75 1063 L 165 1063 L 166 1064 L 166 1072 L 164 1074 L 76 1074 L 74 1072 z" />
<path d="M 74 1056 L 75 1055 L 165 1055 L 166 1056 L 164 1058 L 76 1058 z" />
<path d="M 76 1038 L 164 1038 L 166 1040 L 166 1048 L 164 1050 L 76 1050 L 74 1048 L 74 1040 z" />
<path d="M 76 1030 L 164 1030 L 166 1032 L 165 1033 L 75 1033 L 74 1032 z" />
<path d="M 74 1015 L 75 1014 L 165 1014 L 166 1015 L 166 1024 L 165 1025 L 75 1025 L 74 1024 z" />
<path d="M 74 1007 L 75 1006 L 165 1006 L 166 1007 L 164 1009 L 76 1009 z" />
<path d="M 76 989 L 164 989 L 166 991 L 166 999 L 164 1001 L 76 1001 L 74 999 L 74 991 z" />
<path d="M 76 981 L 164 981 L 166 983 L 165 984 L 75 984 L 74 983 z" />
<path d="M 74 966 L 75 965 L 165 965 L 166 966 L 166 975 L 165 976 L 75 976 L 74 975 z" />
<path d="M 74 958 L 75 957 L 164 957 L 165 958 L 165 959 L 164 960 L 76 960 z" />
<path d="M 76 940 L 164 940 L 166 942 L 166 950 L 164 952 L 76 952 L 74 950 L 74 942 z" />
<path d="M 76 932 L 164 932 L 166 934 L 165 935 L 75 935 L 74 934 z" />
<path d="M 74 917 L 75 916 L 164 916 L 166 918 L 166 926 L 165 927 L 75 927 L 74 926 z" />
<path d="M 74 909 L 75 908 L 164 908 L 165 909 L 165 910 L 164 911 L 76 911 z" />
<path d="M 76 891 L 164 891 L 166 893 L 166 901 L 164 903 L 76 903 L 74 901 L 74 893 z" />
<path d="M 76 883 L 164 883 L 166 885 L 165 886 L 75 886 L 74 885 z" />
<path d="M 74 868 L 75 867 L 164 867 L 166 869 L 166 877 L 165 878 L 75 878 L 74 877 z" />
<path d="M 75 860 L 76 859 L 164 859 L 165 860 L 165 861 L 164 862 L 76 862 L 75 861 z" />
<path d="M 76 842 L 164 842 L 166 844 L 166 852 L 164 854 L 76 854 L 74 852 L 74 844 z" />
<path d="M 76 834 L 164 834 L 166 836 L 165 837 L 75 837 L 74 836 z" />
<path d="M 76 818 L 164 818 L 166 820 L 166 828 L 165 829 L 75 829 L 74 828 L 74 820 z" />
<path d="M 75 811 L 76 810 L 164 810 L 165 811 L 165 812 L 164 813 L 76 813 L 75 812 z" />
<path d="M 76 793 L 164 793 L 166 795 L 166 803 L 164 805 L 76 805 L 74 803 L 74 795 z" />
<path d="M 76 785 L 164 785 L 166 787 L 165 788 L 75 788 L 74 787 z" />
<path d="M 76 769 L 164 769 L 166 771 L 166 779 L 165 780 L 75 780 L 74 779 L 74 771 z" />
<path d="M 75 762 L 76 761 L 164 761 L 165 762 L 165 763 L 164 764 L 76 764 L 75 763 z" />
<path d="M 74 746 L 75 745 L 165 745 L 166 746 L 166 754 L 164 756 L 76 756 L 74 754 z" />
<path d="M 74 738 L 75 737 L 165 737 L 166 738 L 165 739 L 75 739 z" />
<path d="M 76 720 L 164 720 L 166 722 L 166 730 L 165 731 L 75 731 L 74 730 L 74 722 z" />
<path d="M 75 713 L 76 712 L 164 712 L 165 713 L 165 714 L 164 715 L 76 715 L 75 714 z" />
<path d="M 74 697 L 75 696 L 165 696 L 166 697 L 166 705 L 164 707 L 75 707 L 74 706 z" />
<path d="M 74 689 L 75 688 L 165 688 L 166 689 L 164 691 L 76 691 z" />
<path d="M 76 671 L 164 671 L 166 673 L 166 681 L 164 683 L 76 683 L 74 681 L 74 673 z" />
<path d="M 76 663 L 164 663 L 165 664 L 165 665 L 164 666 L 75 666 L 74 665 z" />
<path d="M 74 648 L 75 647 L 165 647 L 166 648 L 166 656 L 164 658 L 75 658 L 74 657 z" />
<path d="M 74 640 L 75 639 L 165 639 L 166 640 L 164 642 L 76 642 z" />
<path d="M 76 622 L 164 622 L 166 624 L 166 632 L 164 634 L 76 634 L 74 632 L 74 624 z" />
<path d="M 76 614 L 164 614 L 165 615 L 165 616 L 164 617 L 75 617 L 74 616 z" />
<path d="M 74 599 L 75 598 L 165 598 L 166 599 L 166 608 L 165 609 L 75 609 L 74 608 z" />
<path d="M 74 591 L 75 590 L 165 590 L 166 591 L 164 593 L 76 593 z" />
<path d="M 76 573 L 164 573 L 166 575 L 166 583 L 164 585 L 76 585 L 74 583 L 74 575 z" />
<path d="M 76 565 L 164 565 L 166 567 L 165 568 L 75 568 L 74 567 z" />
<path d="M 74 550 L 75 549 L 165 549 L 166 550 L 166 559 L 165 560 L 75 560 L 74 559 z" />
<path d="M 74 542 L 75 541 L 165 541 L 166 542 L 164 544 L 76 544 z" />
<path d="M 76 524 L 164 524 L 166 526 L 166 534 L 164 536 L 76 536 L 74 534 L 74 526 z" />
<path d="M 76 516 L 164 516 L 166 518 L 165 519 L 75 519 L 74 518 z" />
<path d="M 74 501 L 75 500 L 165 500 L 166 501 L 166 510 L 165 511 L 75 511 L 74 510 z" />
<path d="M 74 493 L 75 492 L 165 492 L 166 493 L 164 495 L 76 495 z" />
<path d="M 76 475 L 164 475 L 166 477 L 166 485 L 164 487 L 76 487 L 74 485 L 74 477 z" />
<path d="M 76 467 L 164 467 L 166 469 L 165 470 L 75 470 L 74 469 z" />
<path d="M 74 452 L 75 451 L 165 451 L 166 452 L 166 461 L 165 462 L 75 462 L 74 461 z" />
<path d="M 74 444 L 75 443 L 164 443 L 165 444 L 165 445 L 164 446 L 76 446 z" />
<path d="M 76 426 L 164 426 L 166 428 L 166 436 L 164 438 L 76 438 L 74 436 L 74 428 z" />
<path d="M 75 420 L 76 419 L 163 419 L 164 420 L 163 421 L 76 421 z" />
<path d="M 74 403 L 75 402 L 165 402 L 166 403 L 166 413 L 164 415 L 76 415 L 74 413 z" />
<path light="LightYellow" d="M 94 325 L 95 324 L 145 324 L 146 325 L 146 396 L 145 397 L 95 397 L 94 396 z" />
<path d="M 171 307 L 172 306 L 234 306 L 235 307 L 235 1423 L 233 1425 L 172 1425 L 171 1424 z" />
<path d="M 151 307 L 152 306 L 165 306 L 166 307 L 166 395 L 164 397 L 153 397 L 151 395 z" />
<path d="M 96 306 L 144 306 L 145 307 L 145 317 L 144 318 L 95 318 L 94 317 L 94 308 z" />
<path d="M 74 307 L 75 306 L 88 306 L 89 307 L 89 395 L 87 397 L 76 397 L 74 395 z" />
<path d="M 6 307 L 7 306 L 68 306 L 69 307 L 69 1424 L 68 1425 L 7 1425 L 6 1424 z" />
<path d="M 74 256 L 75 255 L 165 255 L 166 256 L 166 299 L 164 301 L 76 301 L 74 299 z" />
</svg>
</svg>