<?xml version="1.0" encoding="UTF-8"?>
<svg xmlns="http://www.w3.org/2000/svg" xmlns:xlink="http://www.w3.org/1999/xlink"
     width="133" height="553" viewBox="0 0 133 553">
<defs>
</defs>
<svg id="0" fill="grey" stroke="black">
<path d="M 86 0 L 77 9 L 77 10 L 74 13 L 74 14 L 71 17 L 71 18 L 68 21 L 68 22 L 66 24 L 66 25 L 64 27 L 64 28 L 63 29 L 63 30 L 61 32 L 61 33 L 60 34 L 60 35 L 58 37 L 58 38 L 57 39 L 57 40 L 56 41 L 56 42 L 54 44 L 54 45 L 53 46 L 53 47 L 52 48 L 52 49 L 51 50 L 51 51 L 50 52 L 50 53 L 49 54 L 49 55 L 48 56 L 48 57 L 47 58 L 47 59 L 46 60 L 46 61 L 45 62 L 45 63 L 44 64 L 44 66 L 43 67 L 43 68 L 42 69 L 42 70 L 41 71 L 41 72 L 40 73 L 40 75 L 39 76 L 39 77 L 38 78 L 38 80 L 37 81 L 37 82 L 36 83 L 36 85 L 35 86 L 35 87 L 34 88 L 34 90 L 33 91 L 33 92 L 32 93 L 32 95 L 31 96 L 31 98 L 30 99 L 30 101 L 29 102 L 29 104 L 28 105 L 28 107 L 27 108 L 27 110 L 26 111 L 26 113 L 25 114 L 25 117 L 24 118 L 24 120 L 23 121 L 23 123 L 22 124 L 22 127 L 21 128 L 21 131 L 20 132 L 20 134 L 19 135 L 19 138 L 18 139 L 18 142 L 17 143 L 17 146 L 16 147 L 16 151 L 15 152 L 15 155 L 14 156 L 14 160 L 13 161 L 13 165 L 12 166 L 12 170 L 11 171 L 11 175 L 10 176 L 10 181 L 9 182 L 9 187 L 8 188 L 8 194 L 7 195 L 7 201 L 6 202 L 6 208 L 5 209 L 5 216 L 4 217 L 4 226 L 3 227 L 3 236 L 2 237 L 2 249 L 1 250 L 1 266 L 0 267 L 0 551 L 1 552 L 132 552 L 132 3 L 131 2 L 89 2 L 88 1 L 88 0 z" />
<path d="M 87 0 L 89 2 L 131 2 L 132 3 L 132 551 L 131 552 L 1 552 L 0 551 L 0 267 L 1 266 L 1 250 L 2 249 L 2 237 L 3 236 L 3 227 L 4 226 L 4 217 L 5 216 L 5 209 L 6 208 L 6 202 L 7 201 L 7 195 L 8 194 L 8 188 L 9 187 L 9 182 L 10 181 L 10 176 L 11 175 L 11 171 L 12 170 L 12 166 L 13 165 L 13 161 L 14 160 L 14 156 L 15 155 L 15 152 L 16 151 L 16 147 L 17 146 L 17 143 L 18 142 L 18 139 L 19 138 L 19 135 L 20 134 L 20 132 L 21 131 L 21 128 L 22 127 L 22 124 L 23 123 L 23 121 L 24 120 L 24 118 L 25 117 L 25 114 L 26 113 L 26 111 L 27 110 L 27 108 L 28 107 L 28 105 L 29 104 L 29 102 L 30 101 L 30 99 L 31 98 L 31 96 L 32 95 L 32 93 L 33 92 L 33 91 L 34 90 L 34 88 L 35 87 L 35 86 L 36 85 L 36 83 L 37 82 L 37 81 L 38 80 L 38 78 L 39 77 L 39 76 L 40 75 L 40 73 L 41 72 L 41 71 L 42 70 L 42 69 L 43 68 L 43 67 L 44 66 L 44 64 L 45 63 L 45 62 L 46 61 L 46 60 L 47 59 L 47 58 L 48 57 L 48 56 L 49 55 L 49 54 L 50 53 L 50 52 L 51 51 L 51 50 L 52 49 L 52 48 L 53 47 L 53 46 L 55 44 L 55 43 L 56 42 L 56 41 L 57 40 L 57 39 L 59 37 L 59 36 L 60 35 L 60 34 L 62 32 L 62 31 L 63 30 L 63 29 L 65 27 L 65 26 L 67 24 L 67 23 L 70 20 L 70 19 L 73 16 L 73 15 L 76 12 L 76 11 L 82 5 L 82 4 L 84 2 L 85 2 z" />
<g id="1">
<path d="M 81 13 L 81 14 L 77 18 L 77 19 L 75 21 L 75 22 L 72 25 L 72 26 L 70 28 L 70 29 L 68 31 L 68 32 L 67 33 L 67 34 L 65 36 L 65 37 L 64 38 L 64 39 L 62 41 L 62 42 L 61 43 L 61 44 L 60 45 L 60 46 L 58 48 L 58 49 L 57 50 L 57 51 L 56 52 L 56 53 L 55 54 L 55 55 L 54 56 L 54 57 L 53 58 L 53 59 L 52 60 L 52 61 L 51 62 L 51 63 L 50 64 L 50 66 L 49 67 L 49 68 L 48 69 L 48 70 L 47 71 L 47 73 L 46 74 L 46 75 L 45 76 L 45 77 L 44 78 L 44 80 L 43 81 L 43 82 L 42 83 L 42 85 L 41 86 L 41 87 L 40 88 L 40 90 L 39 91 L 39 93 L 38 94 L 38 96 L 37 97 L 37 98 L 36 99 L 36 101 L 35 102 L 35 104 L 34 105 L 34 107 L 33 108 L 33 110 L 32 111 L 32 113 L 31 114 L 31 117 L 30 118 L 30 120 L 29 121 L 29 123 L 28 124 L 28 127 L 27 128 L 27 131 L 26 132 L 26 134 L 25 135 L 25 138 L 24 139 L 24 142 L 23 143 L 23 146 L 22 147 L 22 151 L 21 152 L 21 155 L 20 156 L 20 160 L 19 161 L 19 165 L 18 166 L 18 170 L 17 171 L 17 175 L 16 176 L 16 181 L 15 182 L 15 187 L 14 188 L 14 193 L 13 194 L 13 200 L 12 201 L 12 208 L 11 209 L 11 216 L 10 217 L 10 225 L 9 226 L 9 236 L 8 237 L 8 248 L 7 249 L 7 265 L 6 266 L 6 307 L 5 308 L 5 545 L 6 546 L 6 547 L 9 547 L 9 312 L 10 311 L 11 312 L 11 547 L 25 547 L 25 176 L 26 175 L 27 176 L 27 547 L 32 547 L 32 146 L 33 145 L 34 146 L 34 547 L 47 547 L 48 546 L 48 94 L 49 93 L 50 94 L 50 547 L 55 547 L 55 72 L 56 71 L 57 72 L 57 547 L 70 547 L 70 39 L 71 38 L 72 38 L 71 38 L 70 39 L 70 546 L 69 547 L 66 547 L 65 546 L 65 51 L 63 51 L 63 546 L 62 547 L 58 547 L 57 546 L 57 71 L 55 71 L 55 546 L 54 547 L 51 547 L 50 546 L 50 94 L 49 93 L 48 93 L 48 545 L 46 547 L 43 547 L 42 546 L 42 115 L 40 115 L 40 546 L 39 547 L 35 547 L 34 546 L 34 145 L 33 145 L 32 146 L 32 546 L 31 547 L 28 547 L 27 546 L 27 175 L 25 175 L 25 546 L 24 547 L 20 547 L 19 546 L 19 219 L 17 219 L 17 546 L 16 547 L 12 547 L 11 546 L 11 310 L 10 311 L 9 311 L 9 546 L 8 547 L 7 547 L 5 545 L 5 308 L 6 307 L 6 266 L 7 265 L 7 249 L 8 248 L 8 237 L 9 236 L 9 226 L 10 225 L 10 217 L 11 216 L 11 209 L 12 208 L 12 201 L 13 200 L 13 194 L 14 193 L 14 188 L 15 187 L 15 182 L 16 181 L 16 176 L 17 175 L 17 171 L 18 170 L 18 166 L 19 165 L 19 161 L 20 160 L 20 156 L 21 155 L 21 152 L 22 151 L 22 147 L 23 146 L 23 143 L 24 142 L 24 139 L 25 138 L 25 135 L 26 134 L 26 132 L 27 131 L 27 128 L 28 127 L 28 124 L 29 123 L 29 121 L 30 120 L 30 118 L 31 117 L 31 114 L 32 113 L 32 111 L 33 110 L 33 108 L 34 107 L 34 105 L 35 104 L 35 102 L 36 101 L 36 99 L 37 98 L 37 97 L 38 96 L 38 94 L 39 93 L 39 91 L 40 90 L 40 88 L 41 87 L 41 86 L 42 85 L 42 83 L 43 82 L 43 81 L 44 80 L 44 78 L 45 77 L 45 76 L 46 75 L 46 74 L 47 73 L 47 71 L 48 70 L 48 69 L 49 68 L 49 67 L 50 66 L 50 65 L 51 64 L 51 63 L 52 62 L 52 61 L 53 60 L 53 59 L 54 58 L 54 57 L 55 56 L 55 55 L 56 54 L 56 53 L 57 52 L 57 51 L 58 50 L 58 49 L 60 47 L 60 46 L 61 45 L 61 44 L 62 43 L 62 42 L 64 40 L 64 39 L 65 38 L 65 37 L 67 35 L 67 34 L 68 33 L 68 32 L 70 30 L 70 29 L 72 27 L 72 26 L 75 23 L 75 22 L 77 20 L 77 19 L 80 16 L 80 15 L 82 13 L 83 14 L 83 545 L 81 547 L 80 546 L 80 26 L 78 26 L 78 546 L 77 547 L 74 547 L 73 546 L 73 547 L 82 547 L 82 546 L 83 545 L 83 13 z" />
<path d="M 123 8 L 123 9 L 124 8 L 125 9 L 125 546 L 124 547 L 123 546 L 123 47 L 123 547 L 128 547 L 128 8 L 126 8 L 125 9 L 124 8 z" />
<path d="M 119 8 L 118 9 L 118 546 L 119 547 L 120 547 L 121 546 L 121 47 L 120 46 L 120 8 z" />
<path d="M 102 8 L 102 547 L 112 547 L 112 9 L 113 8 L 114 9 L 114 547 L 116 547 L 116 8 L 106 8 L 106 546 L 105 547 L 104 546 L 104 8 z" />
<path d="M 98 8 L 98 9 L 97 10 L 97 545 L 98 546 L 98 547 L 100 547 L 100 9 L 99 8 z" />
<path d="M 94 8 L 93 9 L 93 547 L 95 547 L 95 8 z" />
<path d="M 89 8 L 89 547 L 91 547 L 91 8 z" />
<g id="2">
<path d="M 17 220 L 18 219 L 19 220 L 19 546 L 18 547 L 17 546 z" />
<path d="M 40 116 L 41 115 L 42 116 L 42 546 L 41 547 L 40 546 z" />
<path d="M 63 52 L 64 51 L 65 52 L 65 546 L 64 547 L 63 546 z" />
<path d="M 78 27 L 79 26 L 80 27 L 80 546 L 79 547 L 78 546 z" />
<path d="M 125 9 L 126 8 L 127 8 L 128 9 L 128 546 L 127 547 L 126 547 L 125 546 z" />
<path d="M 118 9 L 119 8 L 120 9 L 120 46 L 121 47 L 121 545 L 119 547 L 118 546 z" />
<path d="M 114 9 L 115 8 L 116 9 L 116 546 L 115 547 L 114 546 z" />
<path d="M 110 9 L 111 8 L 112 9 L 112 546 L 111 547 L 110 546 z" />
<path d="M 108 9 L 109 8 L 110 9 L 110 546 L 109 547 L 108 546 z" />
<path d="M 106 9 L 107 8 L 108 9 L 108 546 L 107 547 L 106 546 z" />
<path d="M 102 9 L 103 8 L 104 9 L 104 546 L 103 547 L 102 546 z" />
<path d="M 97 10 L 98 9 L 99 9 L 100 10 L 100 546 L 99 547 L 97 545 z" />
<path d="M 93 9 L 94 8 L 95 9 L 95 546 L 94 547 L 93 546 z" />
<path d="M 89 9 L 90 8 L 91 9 L 91 546 L 90 547 L 89 546 z" />
</g>
</g>
</svg>
</svg>