<?xml version="1.0" encoding="UTF-8"?>
<svg xmlns="http://www.w3.org/2000/svg" xmlns:xlink="http://www.w3.org/1999/xlink"
     width="315" height="1303" viewBox="0 0 315 1303">
<defs>
</defs>
<svg id="0" fill="grey" stroke="black">
<path d="M 155 0 L 154 1 L 154 8 L 151 11 L 150 11 L 149 12 L 148 12 L 146 14 L 145 14 L 143 16 L 142 16 L 140 18 L 139 18 L 137 20 L 136 20 L 134 22 L 133 22 L 131 24 L 130 24 L 128 26 L 127 26 L 125 28 L 124 28 L 122 30 L 121 30 L 119 32 L 118 32 L 117 33 L 116 33 L 114 35 L 113 35 L 111 37 L 110 37 L 108 39 L 107 39 L 105 41 L 104 41 L 102 43 L 101 43 L 99 45 L 98 45 L 96 47 L 95 47 L 93 49 L 92 49 L 90 51 L 89 51 L 87 53 L 86 53 L 85 54 L 84 54 L 82 56 L 81 56 L 79 58 L 78 58 L 76 60 L 75 60 L 73 62 L 72 62 L 70 64 L 69 64 L 67 66 L 66 66 L 64 68 L 63 68 L 61 70 L 60 70 L 58 72 L 57 72 L 56 73 L 55 73 L 53 75 L 52 75 L 50 77 L 49 77 L 47 79 L 46 79 L 44 81 L 43 81 L 41 83 L 40 83 L 38 85 L 37 85 L 35 87 L 34 87 L 32 89 L 31 89 L 29 91 L 28 91 L 26 93 L 25 93 L 24 94 L 23 94 L 21 96 L 20 96 L 18 98 L 17 98 L 15 100 L 14 100 L 12 102 L 11 102 L 9 104 L 8 104 L 6 106 L 5 106 L 3 108 L 2 108 L 1 109 L 1 110 L 0 111 L 0 1301 L 1 1302 L 313 1302 L 313 66 L 314 65 L 313 64 L 312 64 L 310 66 L 309 66 L 305 70 L 304 70 L 300 74 L 299 74 L 294 79 L 293 79 L 289 83 L 288 83 L 283 88 L 282 88 L 278 92 L 277 92 L 273 96 L 272 96 L 267 101 L 266 101 L 262 105 L 261 105 L 256 110 L 255 110 L 251 114 L 250 114 L 246 118 L 245 118 L 240 123 L 239 123 L 235 127 L 234 127 L 230 131 L 229 131 L 228 132 L 227 131 L 227 130 L 225 128 L 225 127 L 224 126 L 224 125 L 223 124 L 223 123 L 222 122 L 222 121 L 220 119 L 220 118 L 219 117 L 219 116 L 218 115 L 218 114 L 217 113 L 217 112 L 215 110 L 215 109 L 214 108 L 214 107 L 213 106 L 213 105 L 212 104 L 212 103 L 211 102 L 211 101 L 209 99 L 209 98 L 208 97 L 208 96 L 207 95 L 207 94 L 206 93 L 206 92 L 204 90 L 204 89 L 203 88 L 203 87 L 202 86 L 202 85 L 201 84 L 201 83 L 200 82 L 200 81 L 198 79 L 198 78 L 197 77 L 197 76 L 196 75 L 196 74 L 195 73 L 195 72 L 193 70 L 193 69 L 192 68 L 192 67 L 191 66 L 191 65 L 190 64 L 190 63 L 188 61 L 188 60 L 187 59 L 187 58 L 186 57 L 186 56 L 185 55 L 185 54 L 184 53 L 184 52 L 182 50 L 182 49 L 181 48 L 181 47 L 180 46 L 180 45 L 179 44 L 179 43 L 177 41 L 177 40 L 176 39 L 176 38 L 175 37 L 175 36 L 174 35 L 174 34 L 172 32 L 172 31 L 171 30 L 171 29 L 170 28 L 170 27 L 169 26 L 169 25 L 168 24 L 168 23 L 166 21 L 166 20 L 165 19 L 165 18 L 164 17 L 164 16 L 163 15 L 163 14 L 161 12 L 161 11 L 160 10 L 160 9 L 159 8 L 159 7 L 158 6 L 158 5 L 157 4 L 157 3 L 156 2 L 156 1 z" />
<path d="M 312 65 L 313 64 L 314 65 L 313 66 z" />
<path d="M 154 1 L 155 0 L 156 1 L 156 3 L 158 5 L 158 6 L 159 7 L 159 8 L 160 9 L 160 10 L 161 11 L 161 12 L 162 13 L 162 14 L 164 16 L 164 17 L 165 18 L 165 19 L 166 20 L 166 21 L 167 22 L 167 23 L 169 25 L 169 26 L 170 27 L 170 28 L 171 29 L 171 30 L 172 31 L 172 32 L 173 33 L 173 34 L 175 36 L 175 37 L 176 38 L 176 39 L 177 40 L 177 41 L 178 42 L 178 43 L 180 45 L 180 46 L 181 47 L 181 48 L 182 49 L 182 50 L 183 51 L 183 52 L 185 54 L 185 55 L 186 56 L 186 57 L 187 58 L 187 59 L 188 60 L 188 61 L 189 62 L 189 63 L 191 65 L 191 66 L 192 67 L 192 68 L 193 69 L 193 70 L 194 71 L 194 72 L 196 74 L 196 75 L 197 76 L 197 77 L 198 78 L 198 79 L 199 80 L 199 81 L 201 83 L 201 84 L 202 85 L 202 86 L 203 87 L 203 88 L 204 89 L 204 90 L 205 91 L 205 92 L 207 94 L 207 95 L 208 96 L 208 97 L 209 98 L 209 99 L 210 100 L 210 101 L 212 103 L 212 104 L 213 105 L 213 106 L 214 107 L 214 108 L 215 109 L 215 110 L 216 111 L 216 112 L 218 114 L 218 115 L 219 116 L 219 117 L 220 118 L 220 119 L 221 120 L 221 121 L 223 123 L 223 124 L 224 125 L 224 126 L 225 127 L 225 128 L 226 129 L 226 130 L 227 131 L 227 132 L 229 132 L 231 130 L 232 130 L 236 126 L 237 126 L 241 122 L 242 122 L 247 117 L 248 117 L 252 113 L 253 113 L 257 109 L 258 109 L 263 104 L 264 104 L 268 100 L 269 100 L 274 95 L 275 95 L 279 91 L 280 91 L 284 87 L 285 87 L 290 82 L 291 82 L 295 78 L 296 78 L 301 73 L 302 73 L 306 69 L 307 69 L 311 65 L 312 65 L 313 66 L 313 1301 L 312 1302 L 1 1302 L 0 1301 L 0 111 L 4 107 L 5 107 L 7 105 L 8 105 L 10 103 L 11 103 L 13 101 L 14 101 L 16 99 L 17 99 L 19 97 L 20 97 L 22 95 L 23 95 L 25 93 L 26 93 L 27 92 L 28 92 L 30 90 L 31 90 L 33 88 L 34 88 L 36 86 L 37 86 L 39 84 L 40 84 L 42 82 L 43 82 L 45 80 L 46 80 L 48 78 L 49 78 L 51 76 L 52 76 L 54 74 L 55 74 L 57 72 L 58 72 L 59 71 L 60 71 L 62 69 L 63 69 L 65 67 L 66 67 L 68 65 L 69 65 L 71 63 L 72 63 L 74 61 L 75 61 L 77 59 L 78 59 L 80 57 L 81 57 L 83 55 L 84 55 L 86 53 L 87 53 L 88 52 L 89 52 L 91 50 L 92 50 L 94 48 L 95 48 L 97 46 L 98 46 L 100 44 L 101 44 L 103 42 L 104 42 L 106 40 L 107 40 L 109 38 L 110 38 L 112 36 L 113 36 L 115 34 L 116 34 L 118 32 L 119 32 L 120 31 L 121 31 L 123 29 L 124 29 L 126 27 L 127 27 L 129 25 L 130 25 L 132 23 L 133 23 L 135 21 L 136 21 L 138 19 L 139 19 L 141 17 L 142 17 L 144 15 L 145 15 L 147 13 L 148 13 L 150 11 L 151 11 L 152 10 L 153 10 L 154 9 z" />
<g id="1">
<path d="M 306 206 L 304 208 L 304 209 L 299 214 L 299 215 L 295 219 L 295 220 L 291 224 L 291 225 L 286 230 L 286 231 L 282 235 L 282 236 L 277 241 L 277 242 L 273 246 L 273 247 L 269 251 L 269 252 L 264 257 L 264 258 L 260 262 L 260 263 L 255 268 L 255 269 L 251 273 L 251 274 L 247 278 L 247 279 L 242 284 L 242 285 L 238 289 L 238 290 L 233 295 L 233 296 L 230 299 L 230 453 L 231 454 L 231 607 L 232 608 L 232 760 L 233 761 L 233 914 L 234 915 L 234 1068 L 235 1069 L 235 1222 L 236 1223 L 236 1297 L 308 1297 L 308 206 z" />
<path d="M 159 189 L 159 1296 L 160 1297 L 231 1297 L 231 1224 L 230 1223 L 230 1070 L 229 1069 L 229 916 L 228 915 L 228 762 L 227 761 L 227 609 L 226 608 L 226 455 L 225 454 L 225 302 L 224 301 L 224 298 L 222 296 L 222 295 L 221 294 L 221 293 L 219 291 L 219 290 L 218 289 L 218 288 L 217 287 L 217 286 L 215 284 L 215 283 L 214 282 L 214 281 L 212 279 L 212 278 L 211 277 L 211 276 L 210 275 L 210 274 L 208 272 L 208 271 L 207 270 L 207 269 L 206 268 L 206 267 L 204 265 L 204 264 L 203 263 L 203 262 L 201 260 L 201 259 L 200 258 L 200 257 L 199 256 L 199 255 L 197 253 L 197 252 L 196 251 L 196 250 L 194 248 L 194 247 L 193 246 L 193 245 L 192 244 L 192 243 L 190 241 L 190 240 L 189 239 L 189 238 L 188 237 L 188 236 L 186 234 L 186 233 L 185 232 L 185 231 L 183 229 L 183 228 L 182 227 L 182 226 L 181 225 L 181 224 L 179 222 L 179 221 L 178 220 L 178 219 L 176 217 L 176 216 L 175 215 L 175 214 L 174 213 L 174 212 L 172 210 L 172 209 L 171 208 L 171 207 L 170 206 L 170 205 L 168 203 L 168 202 L 167 201 L 167 200 L 165 198 L 165 197 L 164 196 L 164 195 L 163 194 L 163 193 L 161 191 L 161 189 z" />
<path d="M 153 184 L 152 185 L 151 185 L 149 187 L 148 187 L 146 189 L 145 189 L 143 191 L 142 191 L 141 192 L 140 192 L 138 194 L 137 194 L 135 196 L 134 196 L 132 198 L 131 198 L 130 199 L 129 199 L 127 201 L 126 201 L 124 203 L 123 203 L 122 204 L 121 204 L 119 206 L 118 206 L 116 208 L 115 208 L 113 210 L 112 210 L 111 211 L 110 211 L 108 213 L 107 213 L 105 215 L 104 215 L 103 216 L 102 216 L 100 218 L 99 218 L 97 220 L 96 220 L 94 222 L 93 222 L 92 223 L 91 223 L 89 225 L 88 225 L 86 227 L 85 227 L 83 229 L 82 229 L 81 230 L 80 230 L 78 232 L 77 232 L 75 234 L 74 234 L 73 235 L 72 235 L 70 237 L 69 237 L 67 239 L 66 239 L 64 241 L 63 241 L 62 242 L 61 242 L 59 244 L 58 244 L 56 246 L 55 246 L 53 248 L 52 248 L 51 249 L 50 249 L 48 251 L 47 251 L 45 253 L 44 253 L 43 254 L 42 254 L 40 256 L 39 256 L 37 258 L 36 258 L 34 260 L 33 260 L 32 261 L 31 261 L 29 263 L 28 263 L 26 265 L 25 265 L 23 267 L 22 267 L 21 268 L 20 268 L 18 270 L 17 270 L 15 272 L 14 272 L 13 273 L 12 273 L 10 275 L 9 275 L 7 277 L 6 277 L 6 279 L 5 280 L 5 1296 L 6 1297 L 154 1297 L 154 187 L 155 186 L 155 185 L 154 185 z" />
<path d="M 159 21 L 159 176 L 160 177 L 160 180 L 161 181 L 161 182 L 163 184 L 163 185 L 164 186 L 164 187 L 165 188 L 165 189 L 167 191 L 167 192 L 168 193 L 168 194 L 169 195 L 169 196 L 171 198 L 171 199 L 172 200 L 172 201 L 174 203 L 174 204 L 175 205 L 175 206 L 176 207 L 176 208 L 178 210 L 178 211 L 179 212 L 179 213 L 181 215 L 181 216 L 182 217 L 182 218 L 183 219 L 183 220 L 185 222 L 185 223 L 186 224 L 186 225 L 187 226 L 187 227 L 189 229 L 189 230 L 190 231 L 190 232 L 192 234 L 192 235 L 193 236 L 193 237 L 194 238 L 194 239 L 196 241 L 196 242 L 197 243 L 197 244 L 199 246 L 199 247 L 200 248 L 200 249 L 201 250 L 201 251 L 203 253 L 203 254 L 204 255 L 204 256 L 205 257 L 205 258 L 207 260 L 207 261 L 208 262 L 208 263 L 210 265 L 210 266 L 211 267 L 211 268 L 212 269 L 212 270 L 214 272 L 214 273 L 215 274 L 215 275 L 217 277 L 217 278 L 218 279 L 218 280 L 219 281 L 219 282 L 221 284 L 221 285 L 222 286 L 222 287 L 224 289 L 224 290 L 225 291 L 225 292 L 226 293 L 226 294 L 229 294 L 229 293 L 234 288 L 234 287 L 238 283 L 238 282 L 243 277 L 243 276 L 247 272 L 247 271 L 251 267 L 251 266 L 256 261 L 256 260 L 260 256 L 260 255 L 265 250 L 265 249 L 269 245 L 269 244 L 273 240 L 273 239 L 278 234 L 278 233 L 282 229 L 282 228 L 287 223 L 287 222 L 291 218 L 291 217 L 295 213 L 295 212 L 300 207 L 300 206 L 304 202 L 304 201 L 307 198 L 307 197 L 308 196 L 308 76 L 306 76 L 304 78 L 303 78 L 298 83 L 297 83 L 293 87 L 292 87 L 288 91 L 287 91 L 282 96 L 281 96 L 277 100 L 276 100 L 272 104 L 271 104 L 266 109 L 265 109 L 261 113 L 260 113 L 255 118 L 254 118 L 250 122 L 249 122 L 245 126 L 244 126 L 239 131 L 238 131 L 234 135 L 233 135 L 227 141 L 225 139 L 225 138 L 224 137 L 224 136 L 222 134 L 222 133 L 221 132 L 221 131 L 220 130 L 220 129 L 219 128 L 219 127 L 218 126 L 218 125 L 216 123 L 216 122 L 215 121 L 215 120 L 214 119 L 214 118 L 213 117 L 213 116 L 211 114 L 211 113 L 210 112 L 210 111 L 209 110 L 209 109 L 208 108 L 208 107 L 207 106 L 207 105 L 205 103 L 205 102 L 204 101 L 204 100 L 203 99 L 203 98 L 202 97 L 202 96 L 200 94 L 200 93 L 199 92 L 199 91 L 198 90 L 198 89 L 197 88 L 197 87 L 195 85 L 195 84 L 194 83 L 194 82 L 193 81 L 193 80 L 192 79 L 192 78 L 191 77 L 191 76 L 189 74 L 189 73 L 188 72 L 188 71 L 187 70 L 187 69 L 186 68 L 186 67 L 184 65 L 184 64 L 183 63 L 183 62 L 182 61 L 182 60 L 181 59 L 181 58 L 180 57 L 180 56 L 178 54 L 178 53 L 177 52 L 177 51 L 176 50 L 176 49 L 175 48 L 175 47 L 173 45 L 173 44 L 172 43 L 172 42 L 171 41 L 171 40 L 170 39 L 170 38 L 168 36 L 168 35 L 167 34 L 167 33 L 166 32 L 166 31 L 165 30 L 165 29 L 164 28 L 164 27 L 162 25 L 162 24 L 161 23 L 161 21 z" />
<path d="M 152 16 L 150 18 L 149 18 L 147 20 L 146 20 L 144 22 L 143 22 L 141 24 L 140 24 L 138 26 L 137 26 L 135 28 L 134 28 L 132 30 L 131 30 L 129 32 L 128 32 L 126 34 L 125 34 L 124 35 L 123 35 L 121 37 L 120 37 L 118 39 L 117 39 L 115 41 L 114 41 L 112 43 L 111 43 L 109 45 L 108 45 L 106 47 L 105 47 L 103 49 L 102 49 L 100 51 L 99 51 L 97 53 L 96 53 L 95 54 L 94 54 L 92 56 L 91 56 L 89 58 L 88 58 L 86 60 L 85 60 L 83 62 L 82 62 L 80 64 L 79 64 L 77 66 L 76 66 L 74 68 L 73 68 L 71 70 L 70 70 L 68 72 L 67 72 L 65 74 L 64 74 L 63 75 L 62 75 L 60 77 L 59 77 L 57 79 L 56 79 L 54 81 L 53 81 L 51 83 L 50 83 L 48 85 L 47 85 L 45 87 L 44 87 L 42 89 L 41 89 L 39 91 L 38 91 L 36 93 L 35 93 L 34 94 L 33 94 L 31 96 L 30 96 L 28 98 L 27 98 L 25 100 L 24 100 L 22 102 L 21 102 L 19 104 L 18 104 L 16 106 L 15 106 L 13 108 L 12 108 L 10 110 L 9 110 L 7 112 L 6 112 L 6 114 L 5 115 L 5 270 L 6 271 L 8 271 L 10 269 L 11 269 L 12 268 L 13 268 L 15 266 L 16 266 L 18 264 L 19 264 L 21 262 L 22 262 L 23 261 L 24 261 L 26 259 L 27 259 L 29 257 L 30 257 L 31 256 L 32 256 L 34 254 L 35 254 L 37 252 L 38 252 L 40 250 L 41 250 L 42 249 L 43 249 L 45 247 L 46 247 L 48 245 L 49 245 L 50 244 L 51 244 L 53 242 L 54 242 L 56 240 L 57 240 L 59 238 L 60 238 L 61 237 L 62 237 L 64 235 L 65 235 L 67 233 L 68 233 L 70 231 L 71 231 L 72 230 L 73 230 L 75 228 L 76 228 L 78 226 L 79 226 L 80 225 L 81 225 L 83 223 L 84 223 L 86 221 L 87 221 L 89 219 L 90 219 L 91 218 L 92 218 L 94 216 L 95 216 L 97 214 L 98 214 L 100 212 L 101 212 L 102 211 L 103 211 L 105 209 L 106 209 L 108 207 L 109 207 L 110 206 L 111 206 L 113 204 L 114 204 L 116 202 L 117 202 L 119 200 L 120 200 L 121 199 L 122 199 L 124 197 L 125 197 L 127 195 L 128 195 L 130 193 L 131 193 L 132 192 L 133 192 L 135 190 L 136 190 L 138 188 L 139 188 L 140 187 L 141 187 L 143 185 L 144 185 L 146 183 L 147 183 L 149 181 L 150 181 L 151 180 L 152 180 L 154 178 L 154 18 L 155 17 L 154 16 z" />
<g id="2">
<path d="M 307 206 L 308 207 L 308 1296 L 307 1297 L 237 1297 L 236 1296 L 236 1223 L 235 1222 L 235 1069 L 234 1068 L 234 915 L 233 914 L 233 761 L 232 760 L 232 608 L 231 607 L 231 454 L 230 453 L 230 300 L 233 297 L 233 296 L 238 291 L 238 290 L 242 286 L 242 285 L 247 280 L 247 279 L 251 275 L 251 274 L 255 270 L 255 269 L 260 264 L 260 263 L 264 259 L 264 258 L 269 253 L 269 252 L 273 248 L 273 247 L 277 243 L 277 242 L 282 237 L 282 236 L 286 232 L 286 231 L 291 226 L 291 225 L 295 221 L 295 220 L 299 216 L 299 215 L 304 210 L 304 209 z" />
<path d="M 159 190 L 160 189 L 161 190 L 161 191 L 162 192 L 162 193 L 163 194 L 163 195 L 164 196 L 164 197 L 165 198 L 165 199 L 167 201 L 167 202 L 168 203 L 168 204 L 170 206 L 170 207 L 171 208 L 171 209 L 172 210 L 172 211 L 174 213 L 174 214 L 175 215 L 175 216 L 176 217 L 176 218 L 178 220 L 178 221 L 179 222 L 179 223 L 181 225 L 181 226 L 182 227 L 182 228 L 183 229 L 183 230 L 185 232 L 185 233 L 186 234 L 186 235 L 188 237 L 188 238 L 189 239 L 189 240 L 190 241 L 190 242 L 192 244 L 192 245 L 193 246 L 193 247 L 194 248 L 194 249 L 196 251 L 196 252 L 197 253 L 197 254 L 199 256 L 199 257 L 200 258 L 200 259 L 201 260 L 201 261 L 203 263 L 203 264 L 204 265 L 204 266 L 206 268 L 206 269 L 207 270 L 207 271 L 208 272 L 208 273 L 210 275 L 210 276 L 211 277 L 211 278 L 212 279 L 212 280 L 214 282 L 214 283 L 215 284 L 215 285 L 217 287 L 217 288 L 218 289 L 218 290 L 219 291 L 219 292 L 221 294 L 221 295 L 222 296 L 222 297 L 224 299 L 224 301 L 225 302 L 225 454 L 226 455 L 226 608 L 227 609 L 227 761 L 228 762 L 228 915 L 229 916 L 229 1069 L 230 1070 L 230 1223 L 231 1224 L 231 1296 L 230 1297 L 160 1297 L 159 1296 z" />
<path d="M 153 184 L 155 186 L 154 187 L 154 1296 L 153 1297 L 6 1297 L 5 1296 L 5 280 L 6 279 L 6 278 L 7 277 L 8 277 L 10 275 L 11 275 L 13 273 L 14 273 L 15 272 L 16 272 L 18 270 L 19 270 L 21 268 L 22 268 L 23 267 L 24 267 L 26 265 L 27 265 L 29 263 L 30 263 L 32 261 L 33 261 L 34 260 L 35 260 L 37 258 L 38 258 L 40 256 L 41 256 L 43 254 L 44 254 L 45 253 L 46 253 L 48 251 L 49 251 L 51 249 L 52 249 L 53 248 L 54 248 L 56 246 L 57 246 L 59 244 L 60 244 L 62 242 L 63 242 L 64 241 L 65 241 L 67 239 L 68 239 L 70 237 L 71 237 L 73 235 L 74 235 L 75 234 L 76 234 L 78 232 L 79 232 L 81 230 L 82 230 L 83 229 L 84 229 L 86 227 L 87 227 L 89 225 L 90 225 L 92 223 L 93 223 L 94 222 L 95 222 L 97 220 L 98 220 L 100 218 L 101 218 L 103 216 L 104 216 L 105 215 L 106 215 L 108 213 L 109 213 L 111 211 L 112 211 L 113 210 L 114 210 L 116 208 L 117 208 L 119 206 L 120 206 L 122 204 L 123 204 L 124 203 L 125 203 L 127 201 L 128 201 L 130 199 L 131 199 L 132 198 L 133 198 L 135 196 L 136 196 L 138 194 L 139 194 L 141 192 L 142 192 L 143 191 L 144 191 L 146 189 L 147 189 L 149 187 L 150 187 z" />
<path d="M 159 22 L 160 21 L 161 22 L 161 23 L 162 24 L 162 26 L 164 28 L 164 29 L 165 30 L 165 31 L 166 32 L 166 33 L 167 34 L 167 35 L 168 36 L 168 37 L 170 39 L 170 40 L 171 41 L 171 42 L 172 43 L 172 44 L 173 45 L 173 46 L 175 48 L 175 49 L 176 50 L 176 51 L 177 52 L 177 53 L 178 54 L 178 55 L 180 57 L 180 58 L 181 59 L 181 60 L 182 61 L 182 62 L 183 63 L 183 64 L 184 65 L 184 66 L 186 68 L 186 69 L 187 70 L 187 71 L 188 72 L 188 73 L 189 74 L 189 75 L 191 77 L 191 78 L 192 79 L 192 80 L 193 81 L 193 82 L 194 83 L 194 84 L 195 85 L 195 86 L 197 88 L 197 89 L 198 90 L 198 91 L 199 92 L 199 93 L 200 94 L 200 95 L 202 97 L 202 98 L 203 99 L 203 100 L 204 101 L 204 102 L 205 103 L 205 104 L 207 106 L 207 107 L 208 108 L 208 109 L 209 110 L 209 111 L 210 112 L 210 113 L 211 114 L 211 115 L 213 117 L 213 118 L 214 119 L 214 120 L 215 121 L 215 122 L 216 123 L 216 124 L 218 126 L 218 127 L 219 128 L 219 129 L 220 130 L 220 131 L 221 132 L 221 133 L 222 134 L 222 135 L 224 137 L 224 138 L 225 139 L 225 140 L 226 140 L 227 141 L 228 140 L 229 140 L 234 135 L 235 135 L 239 131 L 240 131 L 245 126 L 246 126 L 250 122 L 251 122 L 255 118 L 256 118 L 261 113 L 262 113 L 266 109 L 267 109 L 272 104 L 273 104 L 277 100 L 278 100 L 282 96 L 283 96 L 288 91 L 289 91 L 293 87 L 294 87 L 298 83 L 299 83 L 304 78 L 305 78 L 307 76 L 308 77 L 308 196 L 304 200 L 304 201 L 300 205 L 300 206 L 295 211 L 295 212 L 291 216 L 291 217 L 287 221 L 287 222 L 282 227 L 282 228 L 278 232 L 278 233 L 273 238 L 273 239 L 269 243 L 269 244 L 265 248 L 265 249 L 260 254 L 260 255 L 256 259 L 256 260 L 251 265 L 251 266 L 247 270 L 247 271 L 243 275 L 243 276 L 238 281 L 238 282 L 234 286 L 234 287 L 229 292 L 229 293 L 228 294 L 227 294 L 226 293 L 226 292 L 225 291 L 225 290 L 224 289 L 224 288 L 222 286 L 222 285 L 221 284 L 221 283 L 219 281 L 219 280 L 218 279 L 218 278 L 217 277 L 217 276 L 215 274 L 215 273 L 214 272 L 214 271 L 212 269 L 212 268 L 211 267 L 211 266 L 210 265 L 210 264 L 208 262 L 208 261 L 207 260 L 207 259 L 205 257 L 205 256 L 204 255 L 204 254 L 203 253 L 203 252 L 201 250 L 201 249 L 200 248 L 200 247 L 199 246 L 199 245 L 197 243 L 197 242 L 196 241 L 196 240 L 194 238 L 194 237 L 193 236 L 193 235 L 192 234 L 192 233 L 190 231 L 190 230 L 189 229 L 189 228 L 187 226 L 187 225 L 186 224 L 186 223 L 185 222 L 185 221 L 183 219 L 183 218 L 182 217 L 182 216 L 181 215 L 181 214 L 179 212 L 179 211 L 178 210 L 178 209 L 176 207 L 176 206 L 175 205 L 175 204 L 174 203 L 174 202 L 172 200 L 172 199 L 171 198 L 171 197 L 169 195 L 169 194 L 168 193 L 168 192 L 167 191 L 167 190 L 165 188 L 165 187 L 164 186 L 164 185 L 163 184 L 163 183 L 161 181 L 161 180 L 160 179 L 160 177 L 159 176 z" />
<path d="M 153 16 L 154 16 L 155 17 L 154 18 L 154 177 L 151 180 L 150 180 L 149 181 L 148 181 L 146 183 L 145 183 L 143 185 L 142 185 L 140 187 L 139 187 L 138 188 L 137 188 L 135 190 L 134 190 L 132 192 L 131 192 L 130 193 L 129 193 L 127 195 L 126 195 L 124 197 L 123 197 L 121 199 L 120 199 L 119 200 L 118 200 L 116 202 L 115 202 L 113 204 L 112 204 L 110 206 L 109 206 L 108 207 L 107 207 L 105 209 L 104 209 L 102 211 L 101 211 L 100 212 L 99 212 L 97 214 L 96 214 L 94 216 L 93 216 L 91 218 L 90 218 L 89 219 L 88 219 L 86 221 L 85 221 L 83 223 L 82 223 L 80 225 L 79 225 L 78 226 L 77 226 L 75 228 L 74 228 L 72 230 L 71 230 L 70 231 L 69 231 L 67 233 L 66 233 L 64 235 L 63 235 L 61 237 L 60 237 L 59 238 L 58 238 L 56 240 L 55 240 L 53 242 L 52 242 L 50 244 L 49 244 L 48 245 L 47 245 L 45 247 L 44 247 L 42 249 L 41 249 L 40 250 L 39 250 L 37 252 L 36 252 L 34 254 L 33 254 L 31 256 L 30 256 L 29 257 L 28 257 L 26 259 L 25 259 L 23 261 L 22 261 L 21 262 L 20 262 L 18 264 L 17 264 L 15 266 L 14 266 L 12 268 L 11 268 L 10 269 L 9 269 L 7 271 L 6 271 L 5 270 L 5 115 L 6 114 L 6 113 L 7 112 L 8 112 L 10 110 L 11 110 L 13 108 L 14 108 L 16 106 L 17 106 L 19 104 L 20 104 L 22 102 L 23 102 L 25 100 L 26 100 L 28 98 L 29 98 L 31 96 L 32 96 L 34 94 L 35 94 L 36 93 L 37 93 L 39 91 L 40 91 L 42 89 L 43 89 L 45 87 L 46 87 L 48 85 L 49 85 L 51 83 L 52 83 L 54 81 L 55 81 L 57 79 L 58 79 L 60 77 L 61 77 L 63 75 L 64 75 L 65 74 L 66 74 L 68 72 L 69 72 L 71 70 L 72 70 L 74 68 L 75 68 L 77 66 L 78 66 L 80 64 L 81 64 L 83 62 L 84 62 L 86 60 L 87 60 L 89 58 L 90 58 L 92 56 L 93 56 L 95 54 L 96 54 L 97 53 L 98 53 L 100 51 L 101 51 L 103 49 L 104 49 L 106 47 L 107 47 L 109 45 L 110 45 L 112 43 L 113 43 L 115 41 L 116 41 L 118 39 L 119 39 L 121 37 L 122 37 L 124 35 L 125 35 L 126 34 L 127 34 L 129 32 L 130 32 L 132 30 L 133 30 L 135 28 L 136 28 L 138 26 L 139 26 L 141 24 L 142 24 L 144 22 L 145 22 L 147 20 L 148 20 L 150 18 L 151 18 z" />
</g>
</g>
</svg>
</svg>