<?xml version="1.0" encoding="UTF-8"?>
<svg xmlns="http://www.w3.org/2000/svg" xmlns:xlink="http://www.w3.org/1999/xlink"
     width="248" height="1277" viewBox="0 0 248 1277">
<defs>
</defs>
<svg id="0" fill="grey" stroke="black">
<path d="M 119 0 L 117 2 L 117 30 L 116 31 L 116 50 L 115 51 L 114 51 L 113 50 L 112 50 L 110 48 L 109 48 L 108 47 L 107 47 L 106 46 L 105 47 L 104 46 L 105 47 L 104 48 L 104 50 L 105 51 L 105 54 L 106 55 L 106 59 L 107 60 L 107 63 L 108 64 L 108 67 L 109 68 L 109 71 L 110 72 L 109 73 L 100 73 L 100 75 L 101 76 L 101 77 L 102 78 L 102 79 L 103 80 L 103 81 L 104 82 L 104 83 L 105 84 L 105 85 L 106 86 L 106 87 L 107 88 L 107 89 L 108 90 L 108 91 L 109 92 L 109 93 L 110 94 L 110 95 L 111 96 L 111 98 L 110 99 L 110 101 L 109 102 L 109 105 L 108 106 L 108 109 L 107 110 L 107 112 L 106 113 L 79 113 L 77 115 L 78 116 L 78 125 L 79 126 L 79 135 L 80 136 L 79 137 L 59 137 L 57 139 L 57 143 L 58 144 L 58 150 L 59 151 L 59 157 L 60 158 L 60 161 L 59 162 L 44 162 L 42 164 L 42 170 L 43 171 L 43 181 L 44 182 L 44 189 L 43 190 L 30 190 L 28 192 L 28 193 L 29 194 L 29 197 L 30 198 L 30 201 L 31 202 L 31 205 L 32 206 L 32 209 L 33 210 L 33 213 L 34 214 L 34 217 L 35 218 L 35 219 L 34 220 L 30 220 L 28 222 L 28 223 L 29 224 L 29 227 L 30 228 L 30 231 L 31 232 L 31 235 L 32 236 L 32 239 L 33 240 L 33 243 L 34 244 L 34 247 L 35 248 L 35 250 L 34 251 L 25 251 L 25 253 L 26 254 L 26 255 L 28 257 L 28 258 L 29 259 L 29 260 L 30 261 L 30 262 L 31 263 L 31 264 L 32 265 L 32 266 L 33 267 L 33 295 L 32 296 L 19 296 L 18 297 L 18 299 L 19 300 L 19 301 L 20 302 L 20 303 L 21 304 L 21 306 L 22 307 L 22 308 L 23 309 L 23 310 L 24 311 L 24 313 L 25 314 L 25 366 L 24 367 L 11 367 L 11 369 L 12 370 L 12 372 L 13 373 L 13 375 L 14 376 L 14 377 L 15 378 L 15 380 L 16 381 L 16 382 L 17 383 L 17 385 L 18 386 L 18 484 L 17 485 L 3 485 L 3 487 L 4 488 L 4 490 L 5 491 L 5 493 L 6 494 L 6 495 L 7 496 L 7 498 L 8 499 L 8 501 L 9 502 L 9 503 L 10 504 L 10 621 L 9 622 L 1 622 L 0 623 L 0 626 L 1 627 L 1 628 L 2 629 L 2 631 L 3 632 L 3 633 L 4 634 L 4 635 L 5 636 L 5 638 L 6 639 L 6 640 L 7 641 L 7 823 L 6 824 L 6 1275 L 7 1276 L 239 1276 L 239 642 L 240 641 L 240 640 L 241 639 L 241 637 L 242 636 L 242 635 L 243 634 L 243 632 L 244 631 L 244 630 L 245 629 L 245 627 L 246 626 L 246 625 L 247 624 L 247 622 L 236 622 L 235 621 L 235 506 L 236 505 L 236 504 L 237 503 L 237 501 L 238 500 L 238 498 L 239 497 L 239 496 L 240 495 L 240 493 L 241 492 L 241 490 L 242 489 L 242 488 L 243 487 L 243 485 L 228 485 L 227 484 L 227 389 L 228 388 L 228 387 L 229 386 L 229 384 L 230 383 L 230 382 L 231 381 L 231 379 L 232 378 L 232 376 L 233 375 L 233 374 L 234 373 L 234 371 L 235 370 L 235 368 L 234 367 L 221 367 L 220 366 L 220 317 L 221 316 L 221 315 L 222 314 L 222 312 L 223 311 L 223 310 L 224 309 L 224 308 L 225 307 L 225 305 L 226 304 L 226 303 L 227 302 L 227 301 L 228 300 L 228 297 L 227 296 L 214 296 L 213 295 L 213 267 L 215 265 L 215 264 L 216 263 L 216 262 L 217 261 L 217 260 L 218 259 L 218 258 L 219 257 L 219 255 L 221 253 L 221 251 L 213 251 L 212 252 L 211 251 L 211 248 L 212 247 L 212 244 L 213 243 L 213 240 L 214 239 L 214 236 L 215 235 L 215 232 L 216 231 L 216 228 L 217 227 L 217 224 L 218 223 L 218 221 L 217 220 L 212 220 L 211 219 L 211 218 L 212 217 L 212 214 L 213 213 L 213 210 L 214 209 L 214 206 L 215 205 L 215 202 L 216 201 L 216 198 L 217 197 L 217 194 L 218 193 L 218 191 L 217 190 L 201 190 L 200 189 L 200 179 L 201 178 L 201 167 L 202 166 L 202 163 L 201 162 L 184 162 L 183 161 L 183 160 L 184 159 L 184 153 L 185 152 L 185 146 L 186 145 L 186 138 L 185 137 L 166 137 L 165 138 L 164 137 L 164 128 L 165 127 L 165 118 L 166 117 L 166 114 L 165 113 L 138 113 L 137 112 L 137 111 L 136 110 L 136 107 L 135 106 L 135 103 L 134 102 L 134 99 L 133 98 L 133 96 L 134 95 L 134 94 L 135 93 L 135 92 L 136 91 L 136 90 L 137 89 L 137 88 L 138 87 L 138 86 L 139 85 L 139 84 L 140 83 L 140 82 L 141 81 L 141 80 L 142 79 L 142 78 L 143 77 L 143 74 L 142 73 L 135 73 L 134 72 L 134 69 L 135 68 L 135 63 L 136 62 L 136 56 L 137 55 L 137 50 L 138 49 L 138 47 L 139 46 L 138 45 L 137 45 L 136 46 L 135 46 L 132 49 L 131 49 L 129 51 L 128 51 L 127 50 L 127 20 L 126 19 L 126 1 L 125 0 z" />
<path d="M 115 51 L 116 50 L 117 51 L 116 52 z" />
<path d="M 119 0 L 125 0 L 126 1 L 126 19 L 127 20 L 127 50 L 128 51 L 130 51 L 133 48 L 134 48 L 137 45 L 138 45 L 139 46 L 138 47 L 138 49 L 137 50 L 137 55 L 136 56 L 136 62 L 135 63 L 135 68 L 134 69 L 134 72 L 135 73 L 142 73 L 143 74 L 143 77 L 142 78 L 142 79 L 141 80 L 141 81 L 140 82 L 140 83 L 139 84 L 139 85 L 138 86 L 138 87 L 137 88 L 137 89 L 136 90 L 136 91 L 135 92 L 135 93 L 134 94 L 134 95 L 133 96 L 133 98 L 134 99 L 134 102 L 135 103 L 135 106 L 136 107 L 136 110 L 137 111 L 137 112 L 138 113 L 165 113 L 166 114 L 166 117 L 165 118 L 165 127 L 164 128 L 164 137 L 165 138 L 166 137 L 185 137 L 186 138 L 186 145 L 185 146 L 185 152 L 184 153 L 184 159 L 183 160 L 183 161 L 184 162 L 201 162 L 202 163 L 202 166 L 201 167 L 201 178 L 200 179 L 200 190 L 217 190 L 218 191 L 218 193 L 217 194 L 217 197 L 216 198 L 216 201 L 215 202 L 215 205 L 214 206 L 214 209 L 213 210 L 213 213 L 212 214 L 212 217 L 211 218 L 211 219 L 212 220 L 217 220 L 218 221 L 218 223 L 217 224 L 217 227 L 216 228 L 216 231 L 215 232 L 215 235 L 214 236 L 214 239 L 213 240 L 213 243 L 212 244 L 212 247 L 211 248 L 211 251 L 212 252 L 213 251 L 220 251 L 221 252 L 220 253 L 220 254 L 219 255 L 219 257 L 218 258 L 218 259 L 217 260 L 217 261 L 216 262 L 216 263 L 214 265 L 214 266 L 213 267 L 213 295 L 214 296 L 227 296 L 228 297 L 228 300 L 227 301 L 227 302 L 226 303 L 226 304 L 225 305 L 225 307 L 224 308 L 224 309 L 223 310 L 223 311 L 222 312 L 222 314 L 221 315 L 221 316 L 220 317 L 220 366 L 221 367 L 234 367 L 235 368 L 235 370 L 234 371 L 234 373 L 233 374 L 233 375 L 232 376 L 232 378 L 231 379 L 231 381 L 230 382 L 230 383 L 229 384 L 229 386 L 228 387 L 228 388 L 227 389 L 227 484 L 228 485 L 242 485 L 243 486 L 243 487 L 242 488 L 242 489 L 241 490 L 241 492 L 240 493 L 240 495 L 239 496 L 239 497 L 238 498 L 238 500 L 237 501 L 237 503 L 236 504 L 236 505 L 235 506 L 235 621 L 236 622 L 246 622 L 247 623 L 247 624 L 246 625 L 246 626 L 245 627 L 245 629 L 244 630 L 244 631 L 243 632 L 243 634 L 242 635 L 242 636 L 241 637 L 241 639 L 240 640 L 240 641 L 239 642 L 239 1275 L 238 1276 L 7 1276 L 6 1275 L 6 824 L 7 823 L 7 641 L 6 640 L 6 639 L 5 638 L 5 636 L 4 635 L 4 634 L 3 633 L 3 632 L 2 631 L 2 629 L 1 628 L 1 627 L 0 626 L 0 623 L 1 622 L 10 622 L 10 504 L 9 503 L 9 502 L 8 501 L 8 499 L 7 498 L 7 496 L 6 495 L 6 494 L 5 493 L 5 491 L 4 490 L 4 488 L 3 487 L 3 486 L 4 485 L 18 485 L 18 386 L 17 385 L 17 383 L 16 382 L 16 381 L 15 380 L 15 378 L 14 377 L 14 376 L 13 375 L 13 373 L 12 372 L 12 370 L 11 369 L 11 368 L 12 367 L 25 367 L 25 314 L 24 313 L 24 311 L 23 310 L 23 309 L 22 308 L 22 307 L 21 306 L 21 304 L 20 303 L 20 302 L 19 301 L 19 300 L 18 299 L 18 297 L 19 296 L 33 296 L 33 267 L 32 266 L 32 265 L 31 264 L 31 263 L 30 262 L 30 261 L 29 260 L 29 259 L 28 258 L 28 257 L 27 256 L 27 255 L 25 253 L 25 252 L 26 251 L 35 251 L 35 248 L 34 247 L 34 244 L 33 243 L 33 240 L 32 239 L 32 236 L 31 235 L 31 232 L 30 231 L 30 228 L 29 227 L 29 224 L 28 223 L 28 222 L 30 220 L 35 220 L 35 218 L 34 217 L 34 214 L 33 213 L 33 210 L 32 209 L 32 206 L 31 205 L 31 202 L 30 201 L 30 198 L 29 197 L 29 194 L 28 193 L 28 192 L 30 190 L 44 190 L 44 182 L 43 181 L 43 171 L 42 170 L 42 164 L 44 162 L 60 162 L 60 158 L 59 157 L 59 151 L 58 150 L 58 144 L 57 143 L 57 139 L 59 137 L 78 137 L 79 138 L 79 137 L 80 136 L 79 135 L 79 126 L 78 125 L 78 116 L 77 115 L 79 113 L 107 113 L 107 110 L 108 109 L 108 106 L 109 105 L 109 102 L 110 101 L 110 99 L 111 98 L 111 96 L 110 95 L 110 94 L 109 93 L 109 92 L 108 91 L 108 90 L 107 89 L 107 88 L 106 87 L 106 86 L 105 85 L 105 84 L 104 83 L 104 82 L 103 81 L 103 80 L 102 79 L 102 78 L 101 77 L 101 76 L 100 75 L 100 74 L 101 73 L 108 73 L 109 74 L 109 73 L 110 72 L 109 71 L 109 68 L 108 67 L 108 64 L 107 63 L 107 60 L 106 59 L 106 55 L 105 54 L 105 51 L 104 50 L 104 48 L 106 46 L 107 47 L 108 47 L 110 49 L 111 49 L 112 50 L 113 50 L 115 52 L 116 52 L 117 51 L 116 50 L 116 31 L 117 30 L 117 2 z" />
<g id="1">
<path d="M 181 1038 L 179 1040 L 179 1269 L 180 1270 L 180 1271 L 234 1271 L 234 1039 L 233 1038 z" />
<path d="M 147 1038 L 146 1039 L 145 1039 L 145 1271 L 170 1271 L 170 1039 L 169 1039 L 168 1038 z" />
<path d="M 140 1038 L 139 1039 L 139 1271 L 141 1271 L 141 1039 z" />
<path d="M 105 1038 L 103 1040 L 103 1269 L 104 1270 L 104 1271 L 134 1271 L 134 1039 L 133 1038 z" />
<path d="M 98 1038 L 97 1039 L 97 1271 L 99 1271 L 99 1039 z" />
<path d="M 69 1038 L 67 1040 L 67 1269 L 68 1270 L 68 1271 L 93 1271 L 93 1039 L 92 1039 L 91 1038 z" />
<path d="M 14 1038 L 13 1039 L 12 1039 L 12 1271 L 58 1271 L 58 1039 L 57 1039 L 56 1038 z" />
<path d="M 180 828 L 180 829 L 179 830 L 179 1032 L 180 1033 L 234 1033 L 234 828 z" />
<path d="M 145 828 L 145 1033 L 170 1033 L 170 828 z" />
<path d="M 139 828 L 139 1033 L 141 1033 L 141 828 z" />
<path d="M 104 828 L 104 829 L 103 830 L 103 1032 L 104 1033 L 134 1033 L 134 828 z" />
<path d="M 97 828 L 97 1033 L 99 1033 L 99 828 z" />
<path d="M 68 828 L 68 829 L 67 830 L 67 1032 L 68 1033 L 93 1033 L 93 828 z" />
<path d="M 12 828 L 12 1033 L 58 1033 L 58 828 z" />
<path d="M 181 627 L 179 629 L 179 821 L 180 822 L 180 823 L 233 823 L 234 822 L 234 640 L 235 639 L 235 637 L 236 636 L 236 635 L 237 634 L 237 632 L 238 631 L 238 630 L 239 629 L 239 628 L 238 627 z" />
<path d="M 147 627 L 146 628 L 145 628 L 145 822 L 146 823 L 169 823 L 170 822 L 170 628 L 169 628 L 168 627 z" />
<path d="M 140 627 L 139 628 L 139 822 L 141 822 L 141 628 z" />
<path d="M 105 627 L 103 629 L 103 821 L 104 822 L 104 823 L 134 823 L 134 628 L 133 627 z" />
<path d="M 98 627 L 97 628 L 97 822 L 99 822 L 99 628 z" />
<path d="M 69 627 L 67 629 L 67 821 L 68 822 L 68 823 L 92 823 L 93 822 L 93 628 L 92 628 L 91 627 z" />
<path d="M 9 627 L 8 628 L 8 630 L 9 631 L 9 633 L 10 634 L 10 635 L 11 636 L 11 638 L 12 639 L 12 821 L 13 822 L 13 823 L 57 823 L 58 822 L 58 628 L 57 628 L 56 627 z" />
<path d="M 181 490 L 179 492 L 179 621 L 180 622 L 230 622 L 230 504 L 231 503 L 231 502 L 232 501 L 232 499 L 233 498 L 233 496 L 234 495 L 234 493 L 235 492 L 235 491 L 234 490 z" />
<path d="M 147 490 L 146 491 L 145 491 L 145 622 L 170 622 L 170 491 L 169 491 L 168 490 z" />
<path d="M 140 490 L 139 491 L 139 622 L 141 622 L 141 491 z" />
<path d="M 127 490 L 125 492 L 125 621 L 126 622 L 134 622 L 134 491 L 133 490 z" />
<path d="M 105 490 L 103 492 L 103 621 L 104 622 L 120 622 L 120 491 L 119 490 z" />
<path d="M 98 490 L 97 491 L 97 622 L 99 622 L 99 491 z" />
<path d="M 69 490 L 67 492 L 67 621 L 68 622 L 93 622 L 93 491 L 92 491 L 91 490 z" />
<path d="M 12 490 L 11 491 L 11 492 L 12 493 L 12 495 L 13 496 L 13 498 L 14 499 L 14 501 L 15 502 L 15 503 L 16 504 L 16 622 L 58 622 L 58 491 L 57 491 L 56 490 z" />
<path d="M 181 372 L 179 374 L 179 484 L 180 485 L 222 485 L 222 388 L 223 387 L 223 384 L 224 383 L 224 382 L 225 381 L 225 379 L 226 378 L 226 377 L 227 376 L 227 373 L 226 372 z" />
<path d="M 147 372 L 146 373 L 145 373 L 145 485 L 170 485 L 170 373 L 169 373 L 168 372 z" />
<path d="M 140 372 L 139 373 L 139 485 L 141 485 L 141 373 z" />
<path d="M 127 372 L 125 374 L 125 484 L 126 485 L 134 485 L 134 373 L 133 372 z" />
<path d="M 105 372 L 103 374 L 103 484 L 104 485 L 120 485 L 120 373 L 119 372 z" />
<path d="M 98 372 L 97 373 L 97 485 L 99 485 L 99 373 z" />
<path d="M 69 372 L 67 374 L 67 484 L 68 485 L 93 485 L 93 373 L 92 373 L 91 372 z" />
<path d="M 20 372 L 19 373 L 19 374 L 20 375 L 20 377 L 21 378 L 21 379 L 22 380 L 22 382 L 23 383 L 23 385 L 24 386 L 24 485 L 58 485 L 58 373 L 57 373 L 56 372 z" />
<path d="M 180 302 L 180 303 L 179 304 L 179 366 L 180 367 L 215 367 L 215 316 L 216 315 L 216 312 L 217 311 L 217 310 L 218 309 L 218 308 L 219 307 L 219 305 L 220 304 L 220 302 z" />
<path d="M 145 302 L 145 367 L 170 367 L 170 302 z" />
<path d="M 139 302 L 139 367 L 141 367 L 141 302 z" />
<path d="M 126 302 L 126 303 L 125 304 L 125 366 L 126 367 L 134 367 L 134 302 z" />
<path d="M 104 302 L 104 303 L 103 304 L 103 366 L 104 367 L 120 367 L 120 302 z" />
<path d="M 97 302 L 97 367 L 99 367 L 99 302 z" />
<path d="M 68 302 L 68 303 L 67 304 L 67 366 L 68 367 L 93 367 L 93 303 L 92 302 z" />
<path d="M 27 302 L 26 303 L 27 304 L 27 305 L 28 306 L 28 308 L 29 309 L 29 310 L 30 311 L 30 312 L 31 313 L 31 367 L 58 367 L 58 303 L 57 302 z" />
<path d="M 181 256 L 179 258 L 179 295 L 180 296 L 180 297 L 207 297 L 208 296 L 208 265 L 209 264 L 209 263 L 210 262 L 210 261 L 211 260 L 211 259 L 212 258 L 212 257 L 211 256 z" />
<path d="M 147 256 L 146 257 L 145 257 L 145 296 L 146 297 L 169 297 L 170 296 L 170 257 L 169 257 L 168 256 z" />
<path d="M 139 256 L 139 297 L 141 297 L 141 256 z" />
<path d="M 127 256 L 125 258 L 125 295 L 126 296 L 126 297 L 134 297 L 134 257 L 133 256 z" />
<path d="M 105 256 L 103 258 L 103 295 L 104 296 L 104 297 L 120 297 L 120 257 L 119 256 z" />
<path d="M 97 256 L 97 297 L 99 297 L 99 256 z" />
<path d="M 69 256 L 67 258 L 67 295 L 68 296 L 68 297 L 93 297 L 93 257 L 92 257 L 91 256 z" />
<path d="M 35 256 L 35 257 L 34 258 L 35 259 L 35 260 L 36 261 L 36 262 L 37 263 L 37 264 L 38 265 L 38 295 L 39 296 L 39 297 L 58 297 L 58 257 L 57 257 L 56 256 z" />
<path d="M 180 226 L 180 227 L 179 228 L 179 249 L 180 250 L 180 251 L 205 251 L 205 250 L 206 249 L 206 246 L 207 245 L 207 242 L 208 241 L 208 238 L 209 237 L 209 234 L 210 233 L 210 230 L 211 229 L 211 226 z" />
<path d="M 145 226 L 145 251 L 170 251 L 170 226 z" />
<path d="M 139 226 L 139 251 L 141 251 L 141 226 z" />
<path d="M 104 226 L 104 227 L 103 228 L 103 249 L 104 250 L 104 251 L 134 251 L 134 226 z" />
<path d="M 97 226 L 97 251 L 99 251 L 99 226 z" />
<path d="M 68 226 L 68 227 L 67 228 L 67 249 L 68 250 L 68 251 L 93 251 L 93 226 z" />
<path d="M 36 226 L 36 231 L 37 232 L 37 235 L 38 236 L 38 239 L 39 240 L 39 243 L 40 244 L 40 247 L 41 248 L 41 250 L 42 251 L 58 251 L 58 226 z" />
<path d="M 181 196 L 179 198 L 179 219 L 180 220 L 180 221 L 205 221 L 205 220 L 206 219 L 206 216 L 207 215 L 207 212 L 208 211 L 208 208 L 209 207 L 209 204 L 210 203 L 210 200 L 211 199 L 211 196 z" />
<path d="M 147 196 L 146 197 L 145 197 L 145 220 L 146 221 L 169 221 L 170 220 L 170 197 L 169 197 L 168 196 z" />
<path d="M 140 196 L 139 197 L 139 221 L 141 221 L 141 197 z" />
<path d="M 105 196 L 103 198 L 103 219 L 104 220 L 104 221 L 134 221 L 134 197 L 133 196 z" />
<path d="M 98 196 L 97 197 L 97 221 L 99 221 L 99 197 z" />
<path d="M 69 196 L 67 198 L 67 219 L 68 220 L 68 221 L 92 221 L 93 220 L 93 197 L 92 197 L 91 196 z" />
<path d="M 36 196 L 36 201 L 37 202 L 37 205 L 38 206 L 38 209 L 39 210 L 39 213 L 40 214 L 40 217 L 41 218 L 41 220 L 42 221 L 57 221 L 58 220 L 58 197 L 57 197 L 56 196 z" />
<path d="M 49 168 L 48 169 L 48 171 L 49 172 L 49 182 L 50 183 L 50 191 L 194 191 L 194 189 L 195 188 L 195 177 L 196 176 L 196 168 z" />
<path d="M 64 143 L 64 151 L 65 152 L 65 158 L 66 159 L 66 165 L 178 165 L 178 159 L 179 158 L 179 152 L 180 151 L 180 143 z" />
<path d="M 84 119 L 84 125 L 85 126 L 85 135 L 86 136 L 86 138 L 158 138 L 158 136 L 159 135 L 159 126 L 160 125 L 160 119 z" />
<path d="M 109 79 L 109 81 L 110 82 L 110 83 L 111 84 L 111 85 L 112 86 L 112 87 L 113 88 L 113 89 L 115 91 L 115 92 L 116 93 L 116 102 L 115 103 L 115 105 L 114 106 L 114 109 L 113 110 L 113 114 L 131 114 L 132 113 L 131 112 L 131 109 L 130 108 L 130 105 L 129 104 L 129 101 L 128 100 L 128 94 L 129 93 L 129 92 L 130 91 L 130 90 L 131 89 L 131 88 L 132 87 L 132 86 L 133 85 L 133 84 L 134 83 L 134 82 L 135 81 L 135 79 z" />
<path d="M 121 48 L 121 58 L 120 59 L 117 59 L 116 58 L 115 58 L 114 57 L 112 57 L 112 59 L 113 60 L 113 63 L 114 64 L 114 67 L 115 68 L 115 71 L 116 72 L 116 76 L 128 76 L 128 74 L 129 73 L 129 67 L 130 66 L 130 61 L 131 60 L 131 58 L 129 58 L 128 59 L 124 59 L 123 58 L 123 48 z" />
<g id="2">
<path d="M 181 1038 L 233 1038 L 234 1039 L 234 1270 L 233 1271 L 181 1271 L 179 1269 L 179 1040 z" />
<path d="M 147 1038 L 168 1038 L 170 1040 L 170 1270 L 169 1271 L 146 1271 L 145 1270 L 145 1040 z" />
<path d="M 139 1039 L 140 1038 L 141 1039 L 141 1270 L 140 1271 L 139 1270 z" />
<path d="M 105 1038 L 133 1038 L 134 1039 L 134 1270 L 133 1271 L 105 1271 L 103 1269 L 103 1040 z" />
<path d="M 97 1039 L 98 1038 L 99 1039 L 99 1270 L 98 1271 L 97 1270 z" />
<path d="M 69 1038 L 91 1038 L 93 1040 L 93 1270 L 92 1271 L 69 1271 L 67 1269 L 67 1040 z" />
<path d="M 14 1038 L 56 1038 L 58 1040 L 58 1270 L 57 1271 L 13 1271 L 12 1270 L 12 1040 z" />
<path d="M 181 828 L 233 828 L 234 829 L 234 1032 L 233 1033 L 180 1033 L 179 1032 L 179 830 z" />
<path d="M 145 829 L 146 828 L 169 828 L 170 829 L 170 1032 L 169 1033 L 146 1033 L 145 1032 z" />
<path d="M 139 829 L 140 828 L 141 829 L 141 1032 L 140 1033 L 139 1032 z" />
<path d="M 105 828 L 133 828 L 134 829 L 134 1032 L 133 1033 L 104 1033 L 103 1032 L 103 830 z" />
<path d="M 97 829 L 98 828 L 99 829 L 99 1032 L 98 1033 L 97 1032 z" />
<path d="M 69 828 L 92 828 L 93 829 L 93 1032 L 92 1033 L 68 1033 L 67 1032 L 67 830 z" />
<path d="M 12 829 L 13 828 L 57 828 L 58 829 L 58 1032 L 57 1033 L 13 1033 L 12 1032 z" />
<path d="M 181 627 L 237 627 L 239 629 L 238 630 L 238 631 L 237 632 L 237 634 L 236 635 L 236 636 L 235 637 L 235 639 L 234 640 L 234 821 L 232 823 L 181 823 L 179 821 L 179 629 z" />
<path d="M 147 627 L 168 627 L 170 629 L 170 821 L 168 823 L 147 823 L 145 821 L 145 629 z" />
<path d="M 139 628 L 140 627 L 141 628 L 141 821 L 140 822 L 139 821 z" />
<path d="M 105 627 L 133 627 L 134 628 L 134 822 L 133 823 L 105 823 L 103 821 L 103 629 z" />
<path d="M 97 628 L 98 627 L 99 628 L 99 821 L 98 822 L 97 821 z" />
<path d="M 69 627 L 91 627 L 93 629 L 93 821 L 91 823 L 69 823 L 67 821 L 67 629 z" />
<path d="M 8 628 L 9 627 L 56 627 L 58 629 L 58 821 L 56 823 L 14 823 L 12 821 L 12 639 L 11 638 L 11 636 L 10 635 L 10 634 L 9 633 L 9 631 L 8 630 z" />
<path d="M 181 490 L 234 490 L 235 491 L 235 492 L 234 493 L 234 495 L 233 496 L 233 498 L 232 499 L 232 501 L 231 502 L 231 503 L 230 504 L 230 621 L 229 622 L 180 622 L 179 621 L 179 492 z" />
<path d="M 147 490 L 168 490 L 170 492 L 170 621 L 169 622 L 146 622 L 145 621 L 145 492 z" />
<path d="M 139 491 L 140 490 L 141 491 L 141 621 L 140 622 L 139 621 z" />
<path d="M 127 490 L 133 490 L 134 491 L 134 621 L 133 622 L 126 622 L 125 621 L 125 492 z" />
<path d="M 105 490 L 119 490 L 120 491 L 120 621 L 119 622 L 104 622 L 103 621 L 103 492 z" />
<path d="M 97 491 L 98 490 L 99 491 L 99 621 L 98 622 L 97 621 z" />
<path d="M 69 490 L 91 490 L 93 492 L 93 621 L 92 622 L 68 622 L 67 621 L 67 492 z" />
<path d="M 11 491 L 12 490 L 56 490 L 58 492 L 58 621 L 57 622 L 17 622 L 16 621 L 16 504 L 15 503 L 15 502 L 14 501 L 14 499 L 13 498 L 13 496 L 12 495 L 12 493 L 11 492 z" />
<path d="M 181 372 L 226 372 L 227 373 L 227 376 L 226 377 L 226 378 L 225 379 L 225 381 L 224 382 L 224 383 L 223 384 L 223 387 L 222 388 L 222 484 L 221 485 L 180 485 L 179 484 L 179 374 z" />
<path d="M 147 372 L 168 372 L 170 374 L 170 484 L 169 485 L 146 485 L 145 484 L 145 374 z" />
<path d="M 139 373 L 140 372 L 141 373 L 141 484 L 140 485 L 139 484 z" />
<path d="M 127 372 L 133 372 L 134 373 L 134 484 L 133 485 L 126 485 L 125 484 L 125 374 z" />
<path d="M 105 372 L 119 372 L 120 373 L 120 484 L 119 485 L 104 485 L 103 484 L 103 374 z" />
<path d="M 97 373 L 98 372 L 99 373 L 99 484 L 98 485 L 97 484 z" />
<path d="M 69 372 L 91 372 L 93 374 L 93 484 L 92 485 L 68 485 L 67 484 L 67 374 z" />
<path d="M 19 373 L 20 372 L 56 372 L 58 374 L 58 484 L 57 485 L 25 485 L 24 484 L 24 386 L 23 385 L 23 383 L 22 382 L 22 380 L 21 379 L 21 378 L 20 377 L 20 375 L 19 374 z" />
<path d="M 181 302 L 219 302 L 220 303 L 220 304 L 219 305 L 219 307 L 218 308 L 218 309 L 217 310 L 217 311 L 216 312 L 216 315 L 215 316 L 215 366 L 214 367 L 180 367 L 179 366 L 179 304 z" />
<path d="M 145 303 L 146 302 L 169 302 L 170 303 L 170 366 L 169 367 L 146 367 L 145 366 z" />
<path d="M 139 303 L 140 302 L 141 303 L 141 366 L 140 367 L 139 366 z" />
<path d="M 127 302 L 133 302 L 134 303 L 134 366 L 133 367 L 126 367 L 125 366 L 125 304 z" />
<path d="M 105 302 L 119 302 L 120 303 L 120 366 L 119 367 L 104 367 L 103 366 L 103 304 z" />
<path d="M 97 303 L 98 302 L 99 303 L 99 366 L 98 367 L 97 366 z" />
<path d="M 69 302 L 91 302 L 93 304 L 93 366 L 92 367 L 68 367 L 67 366 L 67 304 z" />
<path d="M 26 303 L 27 302 L 56 302 L 58 304 L 58 366 L 57 367 L 32 367 L 31 366 L 31 313 L 30 312 L 30 311 L 29 310 L 29 309 L 28 308 L 28 306 L 27 305 L 27 304 z" />
<path d="M 181 256 L 210 256 L 212 258 L 210 260 L 210 261 L 209 262 L 209 263 L 208 264 L 208 295 L 206 297 L 181 297 L 179 295 L 179 258 z" />
<path d="M 147 256 L 168 256 L 170 258 L 170 295 L 168 297 L 147 297 L 145 295 L 145 258 z" />
<path d="M 139 257 L 140 256 L 141 257 L 141 296 L 140 297 L 139 296 z" />
<path d="M 127 256 L 133 256 L 134 257 L 134 296 L 133 297 L 127 297 L 125 295 L 125 258 z" />
<path d="M 105 256 L 119 256 L 120 257 L 120 296 L 119 297 L 105 297 L 103 295 L 103 258 z" />
<path d="M 97 257 L 98 256 L 99 257 L 99 296 L 98 297 L 97 296 z" />
<path d="M 69 256 L 91 256 L 93 258 L 93 296 L 92 297 L 69 297 L 67 295 L 67 258 z" />
<path d="M 36 256 L 56 256 L 58 258 L 58 296 L 57 297 L 40 297 L 38 295 L 38 264 L 37 263 L 37 262 L 36 261 L 36 260 L 34 258 z" />
<path d="M 181 226 L 210 226 L 211 227 L 211 229 L 210 230 L 210 233 L 209 234 L 209 237 L 208 238 L 208 241 L 207 242 L 207 245 L 206 246 L 206 249 L 204 251 L 181 251 L 179 249 L 179 228 z" />
<path d="M 145 227 L 146 226 L 169 226 L 170 227 L 170 250 L 169 251 L 146 251 L 145 250 z" />
<path d="M 139 227 L 140 226 L 141 227 L 141 250 L 140 251 L 139 250 z" />
<path d="M 105 226 L 133 226 L 134 227 L 134 250 L 133 251 L 105 251 L 103 249 L 103 228 z" />
<path d="M 97 227 L 98 226 L 99 227 L 99 250 L 98 251 L 97 250 z" />
<path d="M 69 226 L 92 226 L 93 227 L 93 250 L 92 251 L 69 251 L 67 249 L 67 228 z" />
<path d="M 36 227 L 37 226 L 57 226 L 58 227 L 58 250 L 57 251 L 43 251 L 41 249 L 41 248 L 40 247 L 40 244 L 39 243 L 39 240 L 38 239 L 38 236 L 37 235 L 37 232 L 36 231 z" />
<path d="M 181 196 L 210 196 L 211 197 L 211 199 L 210 200 L 210 203 L 209 204 L 209 207 L 208 208 L 208 211 L 207 212 L 207 215 L 206 216 L 206 219 L 204 221 L 181 221 L 179 219 L 179 198 z" />
<path d="M 147 196 L 168 196 L 170 198 L 170 219 L 168 221 L 147 221 L 145 219 L 145 198 z" />
<path d="M 139 197 L 140 196 L 141 197 L 141 220 L 140 221 L 139 220 z" />
<path d="M 105 196 L 133 196 L 134 197 L 134 220 L 133 221 L 105 221 L 103 219 L 103 198 z" />
<path d="M 97 197 L 98 196 L 99 197 L 99 220 L 98 221 L 97 220 z" />
<path d="M 69 196 L 91 196 L 93 198 L 93 219 L 91 221 L 69 221 L 67 219 L 67 198 z" />
<path d="M 36 197 L 37 196 L 56 196 L 58 198 L 58 219 L 56 221 L 43 221 L 41 219 L 41 218 L 40 217 L 40 214 L 39 213 L 39 210 L 38 209 L 38 206 L 37 205 L 37 202 L 36 201 z" />
<path d="M 50 168 L 195 168 L 196 169 L 196 176 L 195 177 L 195 188 L 194 189 L 194 190 L 193 191 L 51 191 L 50 190 L 50 183 L 49 182 L 49 172 L 48 171 L 48 170 z" />
<path d="M 64 144 L 65 143 L 179 143 L 180 144 L 180 151 L 179 152 L 179 158 L 178 159 L 178 164 L 177 165 L 67 165 L 66 164 L 66 159 L 65 158 L 65 152 L 64 151 z" />
<path d="M 84 120 L 85 119 L 159 119 L 160 120 L 160 125 L 159 126 L 159 135 L 158 136 L 158 137 L 157 138 L 87 138 L 86 137 L 86 136 L 85 135 L 85 126 L 84 125 z" />
<path d="M 109 80 L 110 79 L 134 79 L 135 80 L 134 81 L 134 82 L 133 83 L 133 84 L 132 85 L 132 86 L 131 87 L 131 88 L 130 89 L 130 90 L 129 91 L 129 92 L 128 93 L 128 100 L 129 101 L 129 104 L 130 105 L 130 108 L 131 109 L 131 112 L 132 113 L 131 114 L 114 114 L 113 113 L 113 110 L 114 109 L 114 106 L 115 105 L 115 103 L 116 102 L 116 92 L 115 91 L 115 90 L 113 88 L 113 87 L 112 86 L 112 85 L 111 84 L 111 83 L 110 82 L 110 81 z" />
<path d="M 112 58 L 113 57 L 114 58 L 115 58 L 116 59 L 128 59 L 129 58 L 130 58 L 131 59 L 131 60 L 130 61 L 130 66 L 129 67 L 129 73 L 128 74 L 128 75 L 127 76 L 117 76 L 116 75 L 116 72 L 115 71 L 115 68 L 114 67 L 114 64 L 113 63 L 113 60 L 112 59 z" />
<path d="M 121 49 L 122 48 L 123 49 L 123 58 L 122 59 L 121 58 z" />
</g>
</g>
</svg>
</svg>