<?xml version="1.0" encoding="UTF-8"?>
<svg xmlns="http://www.w3.org/2000/svg" xmlns:xlink="http://www.w3.org/1999/xlink"
     width="328" height="1102" viewBox="0 0 328 1102">
<defs>
</defs>
<svg id="0" fill="grey" stroke="black">
<path d="M 34 0 L 33 1 L 33 4 L 32 5 L 32 7 L 33 8 L 33 20 L 32 21 L 32 44 L 31 45 L 31 68 L 30 69 L 30 93 L 29 94 L 29 117 L 28 118 L 28 141 L 27 142 L 27 165 L 26 166 L 26 190 L 25 191 L 25 214 L 24 215 L 24 238 L 23 239 L 23 262 L 22 263 L 22 287 L 21 288 L 21 311 L 20 312 L 20 335 L 19 336 L 19 359 L 18 360 L 18 384 L 17 385 L 17 408 L 16 409 L 16 432 L 15 433 L 15 456 L 14 457 L 14 481 L 13 482 L 13 505 L 12 506 L 12 529 L 11 530 L 11 553 L 10 554 L 10 577 L 9 578 L 9 602 L 8 603 L 8 626 L 7 627 L 7 650 L 6 651 L 6 674 L 5 675 L 5 699 L 4 700 L 4 723 L 3 724 L 3 747 L 2 748 L 2 771 L 1 772 L 1 796 L 0 797 L 0 817 L 1 818 L 1 840 L 2 841 L 2 862 L 3 863 L 3 885 L 4 886 L 4 907 L 5 908 L 5 929 L 6 930 L 6 952 L 7 953 L 7 974 L 8 975 L 8 997 L 9 998 L 9 1019 L 10 1020 L 10 1041 L 11 1042 L 11 1064 L 12 1065 L 12 1086 L 13 1087 L 13 1100 L 14 1101 L 315 1101 L 315 1081 L 316 1080 L 316 1044 L 317 1043 L 317 1006 L 318 1005 L 318 968 L 319 967 L 319 931 L 320 930 L 320 893 L 321 892 L 321 855 L 322 854 L 322 818 L 323 817 L 323 780 L 324 779 L 324 743 L 325 742 L 325 705 L 326 704 L 326 667 L 327 666 L 327 468 L 326 467 L 325 468 L 316 468 L 315 467 L 315 464 L 314 463 L 314 450 L 313 449 L 313 435 L 312 434 L 312 421 L 311 420 L 311 406 L 310 405 L 310 392 L 309 391 L 309 378 L 308 377 L 308 363 L 307 362 L 307 349 L 306 348 L 306 334 L 305 333 L 305 320 L 304 319 L 304 306 L 303 305 L 303 291 L 302 290 L 302 277 L 301 276 L 301 262 L 300 261 L 300 248 L 299 247 L 299 234 L 298 233 L 298 219 L 297 218 L 297 205 L 296 204 L 296 190 L 295 189 L 295 176 L 294 175 L 294 162 L 293 161 L 293 147 L 292 146 L 292 133 L 291 132 L 291 118 L 290 117 L 290 104 L 289 103 L 289 90 L 288 89 L 288 75 L 287 74 L 287 61 L 286 60 L 286 46 L 285 45 L 285 32 L 284 31 L 284 18 L 283 17 L 283 7 L 285 5 L 287 5 L 288 4 L 290 4 L 291 3 L 294 3 L 295 2 L 295 1 L 294 0 L 281 0 L 280 1 L 214 1 L 213 2 L 146 2 L 145 3 L 74 3 L 73 4 L 38 4 L 37 3 L 37 2 L 35 0 z" />
<path d="M 33 1 L 34 0 L 35 0 L 36 1 L 36 2 L 38 4 L 73 4 L 74 3 L 145 3 L 146 2 L 213 2 L 214 1 L 280 1 L 281 0 L 294 0 L 295 1 L 295 2 L 294 3 L 291 3 L 290 4 L 288 4 L 287 5 L 285 5 L 283 7 L 283 17 L 284 18 L 284 31 L 285 32 L 285 45 L 286 46 L 286 60 L 287 61 L 287 74 L 288 75 L 288 89 L 289 90 L 289 103 L 290 104 L 290 117 L 291 118 L 291 132 L 292 133 L 292 146 L 293 147 L 293 161 L 294 162 L 294 175 L 295 176 L 295 189 L 296 190 L 296 204 L 297 205 L 297 218 L 298 219 L 298 233 L 299 234 L 299 247 L 300 248 L 300 261 L 301 262 L 301 276 L 302 277 L 302 290 L 303 291 L 303 305 L 304 306 L 304 319 L 305 320 L 305 333 L 306 334 L 306 348 L 307 349 L 307 362 L 308 363 L 308 377 L 309 378 L 309 391 L 310 392 L 310 405 L 311 406 L 311 420 L 312 421 L 312 434 L 313 435 L 313 449 L 314 450 L 314 463 L 315 464 L 315 467 L 316 468 L 325 468 L 326 467 L 327 468 L 327 666 L 326 667 L 326 704 L 325 705 L 325 742 L 324 743 L 324 779 L 323 780 L 323 817 L 322 818 L 322 854 L 321 855 L 321 892 L 320 893 L 320 930 L 319 931 L 319 967 L 318 968 L 318 1005 L 317 1006 L 317 1043 L 316 1044 L 316 1080 L 315 1081 L 315 1100 L 314 1101 L 14 1101 L 13 1100 L 13 1087 L 12 1086 L 12 1065 L 11 1064 L 11 1042 L 10 1041 L 10 1020 L 9 1019 L 9 998 L 8 997 L 8 975 L 7 974 L 7 953 L 6 952 L 6 930 L 5 929 L 5 908 L 4 907 L 4 886 L 3 885 L 3 863 L 2 862 L 2 841 L 1 840 L 1 818 L 0 817 L 0 797 L 1 796 L 1 772 L 2 771 L 2 748 L 3 747 L 3 724 L 4 723 L 4 700 L 5 699 L 5 675 L 6 674 L 6 651 L 7 650 L 7 627 L 8 626 L 8 603 L 9 602 L 9 578 L 10 577 L 10 554 L 11 553 L 11 530 L 12 529 L 12 506 L 13 505 L 13 482 L 14 481 L 14 457 L 15 456 L 15 433 L 16 432 L 16 409 L 17 408 L 17 385 L 18 384 L 18 360 L 19 359 L 19 336 L 20 335 L 20 312 L 21 311 L 21 288 L 22 287 L 22 263 L 23 262 L 23 239 L 24 238 L 24 215 L 25 214 L 25 191 L 26 190 L 26 166 L 27 165 L 27 142 L 28 141 L 28 118 L 29 117 L 29 94 L 30 93 L 30 69 L 31 68 L 31 45 L 32 44 L 32 21 L 33 20 L 33 8 L 32 7 L 32 5 L 33 4 z" />
<g id="1">
<path d="M 162 42 L 161 43 L 135 43 L 134 44 L 134 77 L 135 78 L 135 151 L 136 152 L 136 225 L 137 226 L 137 295 L 138 296 L 138 297 L 158 297 L 159 296 L 159 283 L 160 282 L 160 266 L 161 265 L 161 249 L 162 248 L 162 233 L 163 232 L 163 216 L 164 215 L 164 199 L 165 198 L 165 182 L 166 181 L 166 166 L 167 165 L 167 149 L 168 148 L 168 132 L 169 131 L 169 115 L 170 114 L 170 99 L 171 98 L 171 82 L 172 81 L 172 65 L 173 64 L 173 48 L 174 47 L 174 43 L 173 42 z" />
<path d="M 57 36 L 57 40 L 56 41 L 56 55 L 55 56 L 55 71 L 54 72 L 54 86 L 53 87 L 53 101 L 52 102 L 52 116 L 51 117 L 51 131 L 50 132 L 50 146 L 49 147 L 49 162 L 48 163 L 48 177 L 47 178 L 47 192 L 46 193 L 46 207 L 45 208 L 45 222 L 44 223 L 44 238 L 43 239 L 43 253 L 42 254 L 42 268 L 41 269 L 41 283 L 40 284 L 40 298 L 39 299 L 39 313 L 38 314 L 38 329 L 37 330 L 37 344 L 36 345 L 36 359 L 35 360 L 35 374 L 34 375 L 34 389 L 33 390 L 33 405 L 32 406 L 32 420 L 31 421 L 31 435 L 30 436 L 30 450 L 29 451 L 29 465 L 28 466 L 28 481 L 27 482 L 27 496 L 26 497 L 26 511 L 25 512 L 25 526 L 24 527 L 24 541 L 23 542 L 23 556 L 22 557 L 22 572 L 21 573 L 21 587 L 20 588 L 20 602 L 19 603 L 19 617 L 18 618 L 18 632 L 17 633 L 17 648 L 16 649 L 16 663 L 15 664 L 15 678 L 14 679 L 14 693 L 13 694 L 13 708 L 12 709 L 12 724 L 11 725 L 11 739 L 10 740 L 10 754 L 9 755 L 9 769 L 8 770 L 8 784 L 7 785 L 7 799 L 6 800 L 6 818 L 7 819 L 7 841 L 8 842 L 8 863 L 9 864 L 9 885 L 10 886 L 10 908 L 11 909 L 11 930 L 12 931 L 12 953 L 13 954 L 13 975 L 14 976 L 14 997 L 15 998 L 15 1020 L 16 1021 L 16 1042 L 17 1043 L 17 1064 L 18 1065 L 18 1087 L 19 1088 L 19 1096 L 142 1096 L 143 1095 L 143 1065 L 142 1064 L 142 989 L 141 988 L 141 913 L 140 912 L 140 838 L 139 837 L 139 761 L 138 760 L 138 686 L 137 685 L 137 610 L 136 609 L 136 534 L 135 533 L 135 459 L 134 458 L 134 383 L 133 382 L 133 307 L 132 306 L 132 232 L 131 231 L 131 157 L 130 156 L 130 82 L 129 81 L 129 44 L 128 44 L 127 43 L 121 43 L 120 42 L 112 42 L 111 41 L 102 41 L 101 40 L 93 40 L 92 39 L 83 39 L 82 38 L 73 38 L 72 37 L 64 37 L 63 36 z" />
<path d="M 38 16 L 38 18 L 39 19 L 38 20 L 38 43 L 37 44 L 37 68 L 36 69 L 36 92 L 35 93 L 35 116 L 34 117 L 34 140 L 33 141 L 33 165 L 32 166 L 32 189 L 31 190 L 31 213 L 30 214 L 30 237 L 29 238 L 29 261 L 28 262 L 28 286 L 27 287 L 27 310 L 26 311 L 26 334 L 25 335 L 25 358 L 24 359 L 24 383 L 23 384 L 23 407 L 22 408 L 22 431 L 21 432 L 21 455 L 20 456 L 20 480 L 19 481 L 19 504 L 18 505 L 18 526 L 17 527 L 17 544 L 16 545 L 16 562 L 15 563 L 15 581 L 14 582 L 14 596 L 16 596 L 16 582 L 17 581 L 17 563 L 18 562 L 18 545 L 19 544 L 19 527 L 20 526 L 20 511 L 21 510 L 21 496 L 22 495 L 22 480 L 23 479 L 23 465 L 24 464 L 24 450 L 25 449 L 25 435 L 26 434 L 26 420 L 27 419 L 27 405 L 28 404 L 28 389 L 29 388 L 29 374 L 30 373 L 30 359 L 31 358 L 31 344 L 32 343 L 32 329 L 33 328 L 33 313 L 34 312 L 34 298 L 35 297 L 35 283 L 36 282 L 36 268 L 37 267 L 37 253 L 38 252 L 38 237 L 39 236 L 39 222 L 40 221 L 40 207 L 41 206 L 41 192 L 42 191 L 42 177 L 43 176 L 43 162 L 44 161 L 44 146 L 45 145 L 45 131 L 46 130 L 46 116 L 47 115 L 47 101 L 48 100 L 48 86 L 49 85 L 49 70 L 50 69 L 50 55 L 51 54 L 51 40 L 52 39 L 52 34 L 51 33 L 51 32 L 49 30 L 49 29 L 47 27 L 47 26 L 45 24 L 45 23 L 42 20 L 42 19 L 40 17 L 40 16 z" />
<path d="M 275 8 L 274 9 L 272 9 L 271 10 L 269 10 L 268 11 L 266 11 L 265 12 L 264 12 L 263 13 L 261 13 L 260 14 L 258 14 L 257 15 L 255 15 L 254 16 L 252 16 L 251 17 L 249 17 L 248 18 L 246 18 L 245 19 L 243 19 L 242 20 L 240 20 L 239 21 L 237 21 L 236 22 L 234 22 L 233 23 L 231 23 L 230 24 L 229 24 L 228 25 L 226 25 L 225 26 L 223 26 L 222 27 L 220 27 L 219 28 L 217 28 L 216 29 L 214 29 L 213 30 L 211 30 L 210 31 L 208 31 L 207 32 L 205 32 L 204 33 L 202 33 L 201 34 L 199 34 L 198 35 L 196 35 L 195 36 L 194 36 L 193 37 L 191 37 L 190 38 L 188 38 L 187 39 L 185 39 L 184 40 L 182 40 L 181 41 L 180 41 L 179 42 L 179 48 L 178 49 L 178 65 L 177 66 L 177 82 L 176 83 L 176 99 L 175 100 L 175 115 L 174 116 L 174 132 L 173 133 L 173 149 L 172 150 L 172 166 L 171 167 L 171 183 L 170 184 L 170 199 L 169 200 L 169 216 L 168 217 L 168 233 L 167 234 L 167 250 L 166 251 L 166 266 L 165 267 L 165 283 L 164 284 L 164 300 L 162 302 L 138 302 L 138 375 L 139 376 L 139 451 L 140 452 L 140 527 L 141 528 L 141 603 L 142 604 L 142 680 L 143 681 L 143 756 L 144 757 L 144 832 L 145 833 L 145 908 L 146 909 L 146 984 L 147 985 L 147 1060 L 148 1061 L 148 1096 L 310 1096 L 310 1080 L 311 1079 L 311 1042 L 312 1041 L 312 1005 L 313 1004 L 313 967 L 314 966 L 314 929 L 315 928 L 315 892 L 316 891 L 316 854 L 317 853 L 317 817 L 318 816 L 318 779 L 319 778 L 319 741 L 320 740 L 320 704 L 321 703 L 321 666 L 322 665 L 322 474 L 313 474 L 312 475 L 310 473 L 310 465 L 309 464 L 309 451 L 308 450 L 308 437 L 307 436 L 307 422 L 306 421 L 306 408 L 305 407 L 305 393 L 304 392 L 304 379 L 303 378 L 303 365 L 302 364 L 302 350 L 301 349 L 301 336 L 300 335 L 300 321 L 299 320 L 299 307 L 298 306 L 298 293 L 297 292 L 297 278 L 296 277 L 296 264 L 295 263 L 295 249 L 294 248 L 294 235 L 293 234 L 293 221 L 292 220 L 292 206 L 291 205 L 291 192 L 290 191 L 290 177 L 289 176 L 289 163 L 288 162 L 288 149 L 287 148 L 287 134 L 286 133 L 286 120 L 285 119 L 285 105 L 284 104 L 284 91 L 283 90 L 283 77 L 282 76 L 282 62 L 281 61 L 281 48 L 280 47 L 280 33 L 279 32 L 279 19 L 278 18 L 278 8 z" />
<path d="M 260 6 L 259 7 L 212 7 L 211 8 L 143 8 L 142 9 L 71 9 L 70 10 L 42 10 L 42 12 L 45 15 L 45 16 L 47 18 L 47 19 L 49 21 L 49 22 L 52 25 L 52 26 L 54 28 L 54 29 L 56 31 L 64 31 L 65 32 L 73 32 L 74 33 L 83 33 L 84 34 L 93 34 L 94 35 L 102 35 L 103 36 L 112 36 L 113 37 L 122 37 L 123 38 L 160 38 L 161 37 L 176 37 L 177 36 L 180 36 L 181 35 L 182 35 L 183 34 L 185 34 L 186 33 L 188 33 L 189 32 L 191 32 L 192 31 L 194 31 L 195 30 L 197 30 L 198 29 L 200 29 L 201 28 L 203 28 L 204 27 L 206 27 L 207 26 L 209 26 L 210 25 L 212 25 L 213 24 L 214 24 L 215 23 L 217 23 L 218 22 L 220 22 L 221 21 L 223 21 L 224 20 L 226 20 L 227 19 L 229 19 L 230 18 L 232 18 L 233 17 L 235 17 L 236 16 L 238 16 L 239 15 L 241 15 L 242 14 L 244 14 L 245 13 L 247 13 L 248 12 L 249 12 L 250 11 L 252 11 L 253 10 L 255 10 L 256 9 L 260 9 L 261 8 L 263 8 L 263 6 z" />
<g id="2">
<path d="M 161 43 L 162 42 L 172 42 L 174 44 L 174 47 L 173 48 L 173 64 L 172 65 L 172 81 L 171 82 L 171 98 L 170 99 L 170 114 L 169 115 L 169 131 L 168 132 L 168 148 L 167 149 L 167 165 L 166 166 L 166 181 L 165 182 L 165 198 L 164 199 L 164 215 L 163 216 L 163 232 L 162 233 L 162 248 L 161 249 L 161 265 L 160 266 L 160 282 L 159 283 L 159 295 L 157 297 L 139 297 L 137 295 L 137 226 L 136 225 L 136 152 L 135 151 L 135 78 L 134 77 L 134 45 L 136 43 z" />
<path d="M 57 37 L 58 36 L 63 36 L 64 37 L 72 37 L 73 38 L 82 38 L 83 39 L 92 39 L 93 40 L 101 40 L 102 41 L 111 41 L 112 42 L 120 42 L 121 43 L 127 43 L 129 45 L 129 81 L 130 82 L 130 156 L 131 157 L 131 231 L 132 232 L 132 306 L 133 307 L 133 382 L 134 383 L 134 458 L 135 459 L 135 533 L 136 534 L 136 609 L 137 610 L 137 685 L 138 686 L 138 760 L 139 761 L 139 837 L 140 838 L 140 912 L 141 913 L 141 988 L 142 989 L 142 1064 L 143 1065 L 143 1094 L 141 1096 L 20 1096 L 19 1095 L 19 1088 L 18 1087 L 18 1065 L 17 1064 L 17 1043 L 16 1042 L 16 1021 L 15 1020 L 15 998 L 14 997 L 14 976 L 13 975 L 13 954 L 12 953 L 12 931 L 11 930 L 11 909 L 10 908 L 10 886 L 9 885 L 9 864 L 8 863 L 8 842 L 7 841 L 7 819 L 6 818 L 6 800 L 7 799 L 7 785 L 8 784 L 8 770 L 9 769 L 9 755 L 10 754 L 10 740 L 11 739 L 11 725 L 12 724 L 12 709 L 13 708 L 13 694 L 14 693 L 14 679 L 15 678 L 15 664 L 16 663 L 16 649 L 17 648 L 17 633 L 18 632 L 18 618 L 19 617 L 19 603 L 20 602 L 20 588 L 21 587 L 21 573 L 22 572 L 22 557 L 23 556 L 23 542 L 24 541 L 24 527 L 25 526 L 25 512 L 26 511 L 26 497 L 27 496 L 27 482 L 28 481 L 28 466 L 29 465 L 29 451 L 30 450 L 30 436 L 31 435 L 31 421 L 32 420 L 32 406 L 33 405 L 33 390 L 34 389 L 34 375 L 35 374 L 35 360 L 36 359 L 36 345 L 37 344 L 37 330 L 38 329 L 38 314 L 39 313 L 39 299 L 40 298 L 40 284 L 41 283 L 41 269 L 42 268 L 42 254 L 43 253 L 43 239 L 44 238 L 44 223 L 45 222 L 45 208 L 46 207 L 46 193 L 47 192 L 47 178 L 48 177 L 48 163 L 49 162 L 49 147 L 50 146 L 50 132 L 51 131 L 51 117 L 52 116 L 52 102 L 53 101 L 53 87 L 54 86 L 54 72 L 55 71 L 55 56 L 56 55 L 56 41 L 57 40 z" />
<path d="M 14 582 L 15 581 L 16 582 L 16 595 L 15 596 L 14 595 z" />
<path d="M 15 563 L 16 562 L 17 563 L 17 581 L 16 582 L 15 581 z" />
<path d="M 16 545 L 17 544 L 18 545 L 18 562 L 17 563 L 16 562 z" />
<path d="M 17 527 L 18 526 L 19 527 L 19 544 L 18 545 L 17 544 z" />
<path d="M 38 17 L 39 16 L 41 18 L 41 19 L 42 20 L 42 21 L 45 24 L 45 25 L 47 27 L 47 28 L 49 30 L 49 31 L 52 34 L 52 39 L 51 40 L 51 54 L 50 55 L 50 69 L 49 70 L 49 85 L 48 86 L 48 100 L 47 101 L 47 115 L 46 116 L 46 130 L 45 131 L 45 145 L 44 146 L 44 161 L 43 162 L 43 176 L 42 177 L 42 191 L 41 192 L 41 206 L 40 207 L 40 221 L 39 222 L 39 236 L 38 237 L 38 252 L 37 253 L 37 267 L 36 268 L 36 282 L 35 283 L 35 297 L 34 298 L 34 312 L 33 313 L 33 328 L 32 329 L 32 343 L 31 344 L 31 358 L 30 359 L 30 373 L 29 374 L 29 388 L 28 389 L 28 404 L 27 405 L 27 419 L 26 420 L 26 434 L 25 435 L 25 449 L 24 450 L 24 464 L 23 465 L 23 479 L 22 480 L 22 495 L 21 496 L 21 510 L 20 511 L 20 526 L 19 527 L 18 526 L 18 505 L 19 504 L 19 481 L 20 480 L 20 456 L 21 455 L 21 432 L 22 431 L 22 408 L 23 407 L 23 384 L 24 383 L 24 359 L 25 358 L 25 335 L 26 334 L 26 311 L 27 310 L 27 287 L 28 286 L 28 262 L 29 261 L 29 238 L 30 237 L 30 214 L 31 213 L 31 190 L 32 189 L 32 166 L 33 165 L 33 141 L 34 140 L 34 117 L 35 116 L 35 93 L 36 92 L 36 69 L 37 68 L 37 44 L 38 43 L 38 20 L 39 19 L 38 18 z" />
<path d="M 274 9 L 275 8 L 277 8 L 278 9 L 278 18 L 279 19 L 279 32 L 280 33 L 280 47 L 281 48 L 281 61 L 282 62 L 282 76 L 283 77 L 283 90 L 284 91 L 284 104 L 285 105 L 285 119 L 286 120 L 286 133 L 287 134 L 287 148 L 288 149 L 288 162 L 289 163 L 289 176 L 290 177 L 290 191 L 291 192 L 291 205 L 292 206 L 292 220 L 293 221 L 293 234 L 294 235 L 294 248 L 295 249 L 295 263 L 296 264 L 296 277 L 297 278 L 297 292 L 298 293 L 298 306 L 299 307 L 299 320 L 300 321 L 300 335 L 301 336 L 301 349 L 302 350 L 302 364 L 303 365 L 303 378 L 304 379 L 304 392 L 305 393 L 305 407 L 306 408 L 306 421 L 307 422 L 307 436 L 308 437 L 308 450 L 309 451 L 309 464 L 310 465 L 310 474 L 311 474 L 312 475 L 313 474 L 321 474 L 322 475 L 322 665 L 321 666 L 321 703 L 320 704 L 320 740 L 319 741 L 319 778 L 318 779 L 318 816 L 317 817 L 317 853 L 316 854 L 316 891 L 315 892 L 315 928 L 314 929 L 314 966 L 313 967 L 313 1004 L 312 1005 L 312 1041 L 311 1042 L 311 1079 L 310 1080 L 310 1095 L 309 1096 L 149 1096 L 148 1095 L 148 1061 L 147 1060 L 147 985 L 146 984 L 146 909 L 145 908 L 145 833 L 144 832 L 144 757 L 143 756 L 143 681 L 142 680 L 142 604 L 141 603 L 141 528 L 140 527 L 140 452 L 139 451 L 139 376 L 138 375 L 138 303 L 139 302 L 163 302 L 163 301 L 164 300 L 164 284 L 165 283 L 165 267 L 166 266 L 166 251 L 167 250 L 167 234 L 168 233 L 168 217 L 169 216 L 169 200 L 170 199 L 170 184 L 171 183 L 171 167 L 172 166 L 172 150 L 173 149 L 173 133 L 174 132 L 174 116 L 175 115 L 175 100 L 176 99 L 176 83 L 177 82 L 177 66 L 178 65 L 178 49 L 179 48 L 179 43 L 182 40 L 184 40 L 185 39 L 187 39 L 188 38 L 190 38 L 191 37 L 193 37 L 194 36 L 195 36 L 196 35 L 198 35 L 199 34 L 201 34 L 202 33 L 204 33 L 205 32 L 207 32 L 208 31 L 210 31 L 211 30 L 213 30 L 214 29 L 216 29 L 217 28 L 219 28 L 220 27 L 222 27 L 223 26 L 225 26 L 226 25 L 228 25 L 229 24 L 230 24 L 231 23 L 233 23 L 234 22 L 236 22 L 237 21 L 239 21 L 240 20 L 242 20 L 243 19 L 245 19 L 246 18 L 248 18 L 249 17 L 251 17 L 252 16 L 254 16 L 255 15 L 257 15 L 258 14 L 260 14 L 261 13 L 263 13 L 264 12 L 265 12 L 266 11 L 268 11 L 269 10 L 271 10 L 272 9 z" />
<path d="M 259 7 L 260 6 L 262 6 L 263 7 L 262 8 L 261 8 L 260 9 L 256 9 L 255 10 L 253 10 L 252 11 L 250 11 L 249 12 L 248 12 L 247 13 L 245 13 L 244 14 L 242 14 L 241 15 L 239 15 L 238 16 L 236 16 L 235 17 L 233 17 L 232 18 L 230 18 L 229 19 L 227 19 L 226 20 L 224 20 L 223 21 L 221 21 L 220 22 L 218 22 L 217 23 L 215 23 L 214 24 L 213 24 L 212 25 L 210 25 L 209 26 L 207 26 L 206 27 L 204 27 L 203 28 L 201 28 L 200 29 L 198 29 L 197 30 L 195 30 L 194 31 L 192 31 L 191 32 L 189 32 L 188 33 L 186 33 L 185 34 L 183 34 L 182 35 L 181 35 L 180 36 L 177 36 L 176 37 L 161 37 L 160 38 L 123 38 L 122 37 L 113 37 L 112 36 L 103 36 L 102 35 L 94 35 L 93 34 L 84 34 L 83 33 L 74 33 L 73 32 L 65 32 L 64 31 L 57 31 L 54 28 L 54 27 L 52 25 L 52 24 L 49 21 L 49 20 L 47 18 L 47 17 L 45 15 L 45 14 L 42 11 L 43 10 L 70 10 L 71 9 L 142 9 L 143 8 L 211 8 L 212 7 z" />
</g>
</g>
</svg>
</svg>