<?xml version="1.0" encoding="UTF-8"?>
<svg xmlns="http://www.w3.org/2000/svg" xmlns:xlink="http://www.w3.org/1999/xlink"
     width="285" height="1178" viewBox="0 0 285 1178">
<defs>
</defs>
<svg id="0" fill="grey" stroke="black">
<path d="M 283 0 L 282 1 L 282 4 L 281 5 L 281 7 L 280 8 L 280 10 L 279 11 L 279 12 L 278 13 L 210 13 L 209 14 L 208 14 L 200 22 L 200 23 L 191 32 L 191 33 L 182 42 L 182 43 L 173 52 L 173 53 L 163 63 L 163 64 L 154 73 L 154 74 L 145 83 L 145 84 L 136 93 L 136 94 L 127 103 L 127 104 L 118 113 L 118 114 L 109 123 L 109 124 L 100 133 L 100 134 L 91 143 L 91 144 L 81 154 L 81 155 L 72 164 L 72 165 L 63 174 L 63 175 L 54 184 L 54 185 L 45 194 L 45 195 L 36 204 L 36 205 L 27 214 L 27 215 L 18 224 L 18 225 L 9 234 L 9 235 L 0 244 L 0 246 L 1 246 L 2 247 L 2 1176 L 3 1177 L 283 1177 L 283 18 L 284 17 L 284 13 L 283 12 L 283 5 L 284 4 L 284 1 z" />
<path d="M 281 5 L 282 4 L 283 5 L 283 12 L 284 13 L 284 17 L 283 18 L 283 1176 L 282 1177 L 3 1177 L 2 1176 L 2 247 L 0 245 L 2 243 L 2 242 L 4 240 L 5 240 L 8 237 L 8 236 L 17 227 L 17 226 L 26 217 L 26 216 L 35 207 L 35 206 L 44 197 L 44 196 L 53 187 L 53 186 L 62 177 L 62 176 L 71 167 L 71 166 L 80 157 L 80 156 L 90 146 L 90 145 L 99 136 L 99 135 L 108 126 L 108 125 L 117 116 L 117 115 L 126 106 L 126 105 L 135 96 L 135 95 L 144 86 L 144 85 L 153 76 L 153 75 L 162 66 L 162 65 L 172 55 L 172 54 L 181 45 L 181 44 L 190 35 L 190 34 L 199 25 L 199 24 L 210 13 L 279 13 L 279 11 L 280 10 L 280 8 L 281 7 z" />
<path d="M 282 1 L 283 0 L 284 1 L 284 4 L 283 5 L 282 4 z" />
<path d="M 8 246 L 8 1172 L 201 1172 L 201 246 z" />
<path d="M 277 32 L 277 37 L 276 38 L 276 40 L 275 41 L 275 43 L 274 44 L 274 45 L 273 46 L 273 48 L 272 49 L 272 51 L 271 52 L 271 54 L 270 55 L 270 57 L 269 58 L 269 60 L 268 61 L 268 63 L 267 64 L 267 66 L 266 67 L 266 69 L 265 70 L 265 72 L 264 73 L 264 75 L 263 76 L 263 78 L 262 79 L 262 81 L 261 82 L 261 84 L 260 85 L 260 87 L 259 88 L 259 90 L 258 91 L 258 93 L 257 94 L 257 96 L 256 97 L 256 99 L 255 100 L 255 102 L 254 103 L 254 105 L 253 106 L 253 108 L 252 109 L 252 110 L 251 111 L 251 113 L 250 114 L 250 116 L 249 117 L 249 119 L 248 120 L 248 122 L 247 123 L 247 125 L 246 126 L 246 128 L 245 129 L 245 131 L 244 132 L 244 134 L 243 135 L 243 137 L 242 138 L 242 140 L 241 141 L 241 143 L 240 144 L 240 146 L 239 147 L 239 149 L 238 150 L 238 152 L 237 153 L 237 155 L 236 156 L 236 158 L 235 159 L 235 161 L 234 162 L 234 164 L 233 165 L 233 167 L 232 168 L 232 170 L 231 171 L 231 173 L 230 174 L 230 175 L 229 176 L 229 178 L 228 179 L 228 181 L 227 182 L 227 184 L 226 185 L 226 187 L 225 188 L 225 190 L 224 191 L 224 193 L 223 194 L 223 196 L 222 197 L 222 199 L 221 200 L 221 202 L 220 203 L 220 205 L 219 206 L 219 208 L 218 209 L 218 211 L 217 212 L 217 214 L 216 215 L 216 217 L 215 218 L 215 220 L 214 221 L 214 223 L 213 224 L 213 226 L 212 227 L 212 229 L 211 230 L 211 232 L 210 233 L 210 235 L 209 236 L 209 238 L 208 239 L 208 240 L 207 241 L 207 245 L 206 246 L 206 1171 L 207 1172 L 278 1172 L 278 39 L 279 38 L 279 32 z" />
<path d="M 214 18 L 213 19 L 211 19 L 204 26 L 204 27 L 194 37 L 194 38 L 185 47 L 185 48 L 176 57 L 176 58 L 167 67 L 167 68 L 158 77 L 158 78 L 149 87 L 149 88 L 140 97 L 140 98 L 131 107 L 131 108 L 122 117 L 122 118 L 112 128 L 112 129 L 103 138 L 103 139 L 94 148 L 94 149 L 85 158 L 85 159 L 76 168 L 76 169 L 67 178 L 67 179 L 58 188 L 58 189 L 49 198 L 49 199 L 40 208 L 40 209 L 30 219 L 30 220 L 21 229 L 21 230 L 12 239 L 12 241 L 202 241 L 202 240 L 203 239 L 203 237 L 204 236 L 204 234 L 205 233 L 205 231 L 206 230 L 206 228 L 207 227 L 207 225 L 208 224 L 208 222 L 209 221 L 209 219 L 210 218 L 210 216 L 211 215 L 211 214 L 212 213 L 212 211 L 213 210 L 213 208 L 214 207 L 214 205 L 215 204 L 215 202 L 216 201 L 216 199 L 217 198 L 217 196 L 218 195 L 218 193 L 219 192 L 219 190 L 220 189 L 220 187 L 221 186 L 221 184 L 222 183 L 222 181 L 223 180 L 223 178 L 224 177 L 224 175 L 225 174 L 225 172 L 226 171 L 226 169 L 227 168 L 227 166 L 228 165 L 228 163 L 229 162 L 229 160 L 230 159 L 230 157 L 231 156 L 231 154 L 232 153 L 232 151 L 233 150 L 233 149 L 234 148 L 234 146 L 235 145 L 235 143 L 236 142 L 236 140 L 237 139 L 237 137 L 238 136 L 238 134 L 239 133 L 239 131 L 240 130 L 240 128 L 241 127 L 241 125 L 242 124 L 242 122 L 243 121 L 243 119 L 244 118 L 244 116 L 245 115 L 245 113 L 246 112 L 246 110 L 247 109 L 247 107 L 248 106 L 248 104 L 249 103 L 249 101 L 250 100 L 250 98 L 251 97 L 251 95 L 252 94 L 252 92 L 253 91 L 253 89 L 254 88 L 254 86 L 255 85 L 255 84 L 256 83 L 256 81 L 257 80 L 257 78 L 258 77 L 258 75 L 259 74 L 259 72 L 260 71 L 260 69 L 261 68 L 261 66 L 262 65 L 262 63 L 263 62 L 263 60 L 264 59 L 264 57 L 265 56 L 265 54 L 266 53 L 266 51 L 267 50 L 267 48 L 268 47 L 268 45 L 269 44 L 269 42 L 270 41 L 270 39 L 271 38 L 271 36 L 272 35 L 272 33 L 273 32 L 273 30 L 274 29 L 274 27 L 275 26 L 275 24 L 276 23 L 276 21 L 277 20 L 277 19 L 276 18 z" />
<path d="M 8 247 L 9 246 L 200 246 L 201 247 L 201 1171 L 200 1172 L 9 1172 L 8 1171 z" />
<path d="M 277 34 L 278 33 L 279 34 L 279 38 L 278 39 L 278 1171 L 277 1172 L 207 1172 L 206 1171 L 206 246 L 207 245 L 207 241 L 208 240 L 208 239 L 209 238 L 209 236 L 210 235 L 210 233 L 211 232 L 211 230 L 212 229 L 212 227 L 213 226 L 213 224 L 214 223 L 214 221 L 215 220 L 215 218 L 216 217 L 216 215 L 217 214 L 217 212 L 218 211 L 218 209 L 219 208 L 219 206 L 220 205 L 220 203 L 221 202 L 221 200 L 222 199 L 222 197 L 223 196 L 223 194 L 224 193 L 224 191 L 225 190 L 225 188 L 226 187 L 226 185 L 227 184 L 227 182 L 228 181 L 228 179 L 229 178 L 229 176 L 230 175 L 230 174 L 231 173 L 231 171 L 232 170 L 232 168 L 233 167 L 233 165 L 234 164 L 234 162 L 235 161 L 235 159 L 236 158 L 236 156 L 237 155 L 237 153 L 238 152 L 238 150 L 239 149 L 239 147 L 240 146 L 240 144 L 241 143 L 241 141 L 242 140 L 242 138 L 243 137 L 243 135 L 244 134 L 244 132 L 245 131 L 245 129 L 246 128 L 246 126 L 247 125 L 247 123 L 248 122 L 248 120 L 249 119 L 249 117 L 250 116 L 250 114 L 251 113 L 251 111 L 252 110 L 252 109 L 253 108 L 253 106 L 254 105 L 254 103 L 255 102 L 255 100 L 256 99 L 256 97 L 257 96 L 257 94 L 258 93 L 258 91 L 259 90 L 259 88 L 260 87 L 260 85 L 261 84 L 261 82 L 262 81 L 262 79 L 263 78 L 263 76 L 264 75 L 264 73 L 265 72 L 265 70 L 266 69 L 266 67 L 267 66 L 267 64 L 268 63 L 268 61 L 269 60 L 269 58 L 270 57 L 270 55 L 271 54 L 271 52 L 272 51 L 272 49 L 273 48 L 273 46 L 274 45 L 274 44 L 275 43 L 275 41 L 276 40 L 276 38 L 277 37 z" />
<path d="M 213 19 L 214 18 L 276 18 L 277 19 L 277 20 L 276 21 L 276 23 L 275 24 L 275 26 L 274 27 L 274 29 L 273 30 L 273 32 L 272 33 L 272 35 L 271 36 L 271 38 L 270 39 L 270 41 L 269 42 L 269 44 L 268 45 L 268 47 L 267 48 L 267 50 L 266 51 L 266 53 L 265 54 L 265 56 L 264 57 L 264 59 L 263 60 L 263 62 L 262 63 L 262 65 L 261 66 L 261 68 L 260 69 L 260 71 L 259 72 L 259 74 L 258 75 L 258 77 L 257 78 L 257 80 L 256 81 L 256 83 L 255 84 L 255 85 L 254 86 L 254 88 L 253 89 L 253 91 L 252 92 L 252 94 L 251 95 L 251 97 L 250 98 L 250 100 L 249 101 L 249 103 L 248 104 L 248 106 L 247 107 L 247 109 L 246 110 L 246 112 L 245 113 L 245 115 L 244 116 L 244 118 L 243 119 L 243 121 L 242 122 L 242 124 L 241 125 L 241 127 L 240 128 L 240 130 L 239 131 L 239 133 L 238 134 L 238 136 L 237 137 L 237 139 L 236 140 L 236 142 L 235 143 L 235 145 L 234 146 L 234 148 L 233 149 L 233 150 L 232 151 L 232 153 L 231 154 L 231 156 L 230 157 L 230 159 L 229 160 L 229 162 L 228 163 L 228 165 L 227 166 L 227 168 L 226 169 L 226 171 L 225 172 L 225 174 L 224 175 L 224 177 L 223 178 L 223 180 L 222 181 L 222 183 L 221 184 L 221 186 L 220 187 L 220 189 L 219 190 L 219 192 L 218 193 L 218 195 L 217 196 L 217 198 L 216 199 L 216 201 L 215 202 L 215 204 L 214 205 L 214 207 L 213 208 L 213 210 L 212 211 L 212 213 L 211 214 L 211 215 L 210 216 L 210 218 L 209 219 L 209 221 L 208 222 L 208 224 L 207 225 L 207 227 L 206 228 L 206 230 L 205 231 L 205 233 L 204 234 L 204 236 L 203 237 L 203 239 L 201 241 L 13 241 L 12 240 L 21 231 L 21 230 L 30 221 L 30 220 L 39 211 L 39 210 L 49 200 L 49 199 L 58 190 L 58 189 L 67 180 L 67 179 L 76 170 L 76 169 L 85 160 L 85 159 L 94 150 L 94 149 L 103 140 L 103 139 L 112 130 L 112 129 L 121 120 L 121 119 L 131 109 L 131 108 L 140 99 L 140 98 L 149 89 L 149 88 L 158 79 L 158 78 L 167 69 L 167 68 L 176 59 L 176 58 L 185 49 L 185 48 L 194 39 L 194 38 L 203 29 L 203 28 L 212 19 z" />
</svg>
</svg>