<?xml version="1.0" encoding="UTF-8"?>
<svg xmlns="http://www.w3.org/2000/svg" xmlns:xlink="http://www.w3.org/1999/xlink"
     width="323" height="1279" viewBox="0 0 323 1279">
<defs>
</defs>
<svg id="0" fill="grey" stroke="black">
<path d="M 129 0 L 128 1 L 114 1 L 113 2 L 98 2 L 97 3 L 83 3 L 82 4 L 76 4 L 75 3 L 74 3 L 73 4 L 71 4 L 68 7 L 67 7 L 66 8 L 65 8 L 63 10 L 62 10 L 61 11 L 60 11 L 59 12 L 58 12 L 57 13 L 56 13 L 54 15 L 53 15 L 52 16 L 51 16 L 50 17 L 49 17 L 48 18 L 48 19 L 47 20 L 47 21 L 46 22 L 46 41 L 45 42 L 45 61 L 44 62 L 44 81 L 43 82 L 43 101 L 42 102 L 42 121 L 41 122 L 41 141 L 40 142 L 40 161 L 39 162 L 39 181 L 38 182 L 38 201 L 37 202 L 37 221 L 36 222 L 36 241 L 35 242 L 35 261 L 34 262 L 34 281 L 33 282 L 33 301 L 32 302 L 32 321 L 31 322 L 31 341 L 30 342 L 30 361 L 29 362 L 29 381 L 28 382 L 28 401 L 27 402 L 27 421 L 26 422 L 26 441 L 25 442 L 25 461 L 24 462 L 24 481 L 23 482 L 23 501 L 22 502 L 22 521 L 21 522 L 21 541 L 20 542 L 20 561 L 19 562 L 19 581 L 18 582 L 18 601 L 17 602 L 17 617 L 16 618 L 1 618 L 0 619 L 0 676 L 1 677 L 1 733 L 2 734 L 2 790 L 3 791 L 3 847 L 4 848 L 4 904 L 5 905 L 5 961 L 6 962 L 6 1018 L 7 1019 L 7 1075 L 8 1076 L 8 1132 L 9 1133 L 9 1189 L 10 1190 L 10 1246 L 11 1247 L 11 1277 L 12 1278 L 319 1278 L 319 1277 L 320 1276 L 320 1165 L 321 1164 L 321 1054 L 322 1053 L 322 881 L 321 880 L 321 820 L 320 819 L 320 760 L 319 759 L 319 699 L 318 698 L 318 639 L 317 638 L 317 578 L 316 577 L 316 517 L 315 516 L 315 457 L 314 456 L 314 396 L 313 395 L 313 336 L 312 335 L 312 275 L 311 274 L 311 214 L 310 213 L 310 154 L 309 153 L 309 93 L 308 92 L 308 61 L 307 61 L 306 60 L 305 60 L 303 58 L 302 58 L 301 57 L 300 57 L 299 56 L 298 56 L 296 54 L 295 54 L 294 53 L 293 53 L 292 52 L 291 52 L 289 50 L 288 50 L 287 49 L 286 49 L 285 48 L 284 48 L 282 46 L 281 46 L 280 45 L 279 45 L 278 44 L 277 44 L 275 42 L 274 42 L 273 41 L 272 41 L 271 40 L 270 40 L 268 38 L 267 38 L 266 37 L 265 37 L 264 36 L 263 36 L 261 34 L 260 34 L 259 33 L 258 33 L 257 32 L 256 32 L 254 30 L 253 30 L 252 29 L 251 29 L 250 28 L 249 28 L 247 26 L 246 26 L 245 25 L 244 25 L 243 24 L 242 24 L 240 22 L 239 22 L 238 21 L 237 21 L 236 20 L 235 20 L 232 17 L 231 17 L 230 16 L 228 16 L 227 15 L 221 15 L 220 14 L 216 14 L 215 13 L 210 13 L 209 12 L 205 12 L 204 11 L 200 11 L 199 10 L 195 10 L 194 9 L 190 9 L 189 8 L 184 8 L 183 7 L 179 7 L 178 6 L 174 6 L 173 5 L 169 5 L 168 4 L 164 4 L 163 3 L 158 3 L 157 2 L 153 2 L 152 1 L 148 1 L 147 0 z" />
<path d="M 128 1 L 129 0 L 147 0 L 148 1 L 152 1 L 153 2 L 157 2 L 158 3 L 163 3 L 164 4 L 168 4 L 169 5 L 173 5 L 174 6 L 178 6 L 179 7 L 183 7 L 184 8 L 189 8 L 190 9 L 194 9 L 195 10 L 199 10 L 200 11 L 204 11 L 205 12 L 209 12 L 210 13 L 215 13 L 216 14 L 220 14 L 221 15 L 227 15 L 228 16 L 230 16 L 233 19 L 234 19 L 235 20 L 236 20 L 237 21 L 238 21 L 240 23 L 241 23 L 242 24 L 243 24 L 244 25 L 245 25 L 247 27 L 248 27 L 249 28 L 250 28 L 251 29 L 252 29 L 254 31 L 255 31 L 256 32 L 257 32 L 258 33 L 259 33 L 261 35 L 262 35 L 263 36 L 264 36 L 265 37 L 266 37 L 268 39 L 269 39 L 270 40 L 271 40 L 272 41 L 273 41 L 275 43 L 276 43 L 277 44 L 278 44 L 279 45 L 280 45 L 282 47 L 283 47 L 284 48 L 285 48 L 286 49 L 287 49 L 289 51 L 290 51 L 291 52 L 292 52 L 293 53 L 294 53 L 296 55 L 297 55 L 298 56 L 299 56 L 300 57 L 301 57 L 303 59 L 304 59 L 305 60 L 306 60 L 308 62 L 308 92 L 309 93 L 309 153 L 310 154 L 310 213 L 311 214 L 311 274 L 312 275 L 312 335 L 313 336 L 313 395 L 314 396 L 314 456 L 315 457 L 315 516 L 316 517 L 316 577 L 317 578 L 317 638 L 318 639 L 318 698 L 319 699 L 319 759 L 320 760 L 320 819 L 321 820 L 321 880 L 322 881 L 322 1053 L 321 1054 L 321 1164 L 320 1165 L 320 1276 L 318 1278 L 12 1278 L 11 1277 L 11 1247 L 10 1246 L 10 1190 L 9 1189 L 9 1133 L 8 1132 L 8 1076 L 7 1075 L 7 1019 L 6 1018 L 6 962 L 5 961 L 5 905 L 4 904 L 4 848 L 3 847 L 3 791 L 2 790 L 2 734 L 1 733 L 1 677 L 0 676 L 0 619 L 1 618 L 17 618 L 17 602 L 18 601 L 18 582 L 19 581 L 19 562 L 20 561 L 20 542 L 21 541 L 21 522 L 22 521 L 22 502 L 23 501 L 23 482 L 24 481 L 24 462 L 25 461 L 25 442 L 26 441 L 26 422 L 27 421 L 27 402 L 28 401 L 28 382 L 29 381 L 29 362 L 30 361 L 30 342 L 31 341 L 31 322 L 32 321 L 32 302 L 33 301 L 33 282 L 34 281 L 34 262 L 35 261 L 35 242 L 36 241 L 36 222 L 37 221 L 37 202 L 38 201 L 38 182 L 39 181 L 39 162 L 40 161 L 40 142 L 41 141 L 41 122 L 42 121 L 42 102 L 43 101 L 43 82 L 44 81 L 44 62 L 45 61 L 45 42 L 46 41 L 46 22 L 47 21 L 47 20 L 51 16 L 52 16 L 53 15 L 54 15 L 55 14 L 56 14 L 58 12 L 59 12 L 60 11 L 61 11 L 62 10 L 63 10 L 64 9 L 65 9 L 67 7 L 68 7 L 71 4 L 73 4 L 74 3 L 75 3 L 76 4 L 82 4 L 83 3 L 97 3 L 98 2 L 113 2 L 114 1 z" />
<g id="1">
<path d="M 7 623 L 6 624 L 6 677 L 7 678 L 7 734 L 8 735 L 8 791 L 9 792 L 9 848 L 10 849 L 10 905 L 11 906 L 11 962 L 12 963 L 12 1019 L 13 1020 L 13 1076 L 14 1077 L 14 1133 L 15 1134 L 15 1190 L 16 1191 L 16 1247 L 17 1248 L 17 1273 L 72 1273 L 72 1272 L 73 1271 L 73 1185 L 74 1184 L 74 1097 L 75 1096 L 75 1010 L 76 1009 L 76 923 L 77 922 L 77 835 L 78 834 L 78 748 L 79 747 L 79 661 L 80 660 L 80 624 L 79 624 L 78 623 z" />
<path d="M 232 25 L 231 26 L 232 27 L 232 38 L 233 39 L 233 51 L 234 52 L 234 64 L 235 65 L 235 77 L 236 78 L 236 90 L 237 91 L 237 103 L 238 104 L 238 116 L 239 117 L 239 129 L 240 130 L 240 142 L 241 143 L 241 155 L 242 156 L 242 168 L 243 169 L 243 181 L 244 182 L 244 194 L 245 195 L 245 207 L 246 208 L 246 220 L 247 221 L 247 233 L 248 234 L 248 246 L 249 247 L 249 259 L 250 260 L 250 272 L 251 273 L 251 285 L 252 286 L 252 298 L 253 299 L 253 311 L 254 312 L 254 324 L 255 325 L 255 337 L 256 338 L 256 350 L 257 351 L 257 363 L 258 364 L 258 376 L 259 377 L 259 389 L 260 390 L 260 402 L 261 403 L 261 415 L 262 416 L 262 428 L 263 429 L 263 441 L 264 442 L 264 454 L 265 455 L 265 467 L 266 468 L 266 480 L 267 481 L 267 493 L 268 494 L 268 506 L 269 507 L 269 519 L 270 520 L 270 532 L 271 533 L 271 545 L 272 546 L 272 557 L 273 558 L 273 570 L 274 571 L 274 583 L 275 584 L 275 596 L 276 597 L 276 609 L 277 610 L 277 628 L 278 629 L 278 653 L 279 654 L 279 677 L 280 678 L 280 701 L 281 702 L 281 726 L 282 727 L 282 750 L 283 751 L 283 774 L 284 775 L 284 799 L 285 800 L 285 823 L 286 824 L 286 847 L 287 848 L 287 872 L 288 873 L 288 896 L 289 897 L 289 921 L 290 922 L 290 945 L 291 946 L 291 969 L 292 970 L 292 994 L 293 995 L 293 1018 L 294 1019 L 294 1042 L 295 1043 L 295 1060 L 294 1061 L 294 1072 L 293 1073 L 293 1083 L 292 1084 L 292 1094 L 291 1095 L 291 1105 L 290 1106 L 290 1117 L 289 1118 L 289 1128 L 288 1129 L 288 1139 L 287 1140 L 287 1151 L 286 1152 L 286 1162 L 285 1163 L 285 1173 L 284 1174 L 284 1185 L 283 1186 L 283 1196 L 282 1197 L 282 1207 L 281 1208 L 281 1219 L 280 1220 L 280 1230 L 279 1231 L 279 1241 L 278 1242 L 278 1252 L 277 1253 L 277 1264 L 276 1265 L 276 1273 L 314 1273 L 314 1272 L 315 1271 L 315 1164 L 316 1163 L 316 1053 L 317 1052 L 317 882 L 316 881 L 316 821 L 315 820 L 315 761 L 314 760 L 314 700 L 313 699 L 313 640 L 312 639 L 312 579 L 311 578 L 311 518 L 310 517 L 310 458 L 309 457 L 309 397 L 308 396 L 308 337 L 307 336 L 307 276 L 306 275 L 306 216 L 305 215 L 305 155 L 304 154 L 304 94 L 303 93 L 303 65 L 302 64 L 301 64 L 299 62 L 298 62 L 297 61 L 296 61 L 294 59 L 293 59 L 292 58 L 291 58 L 290 57 L 289 57 L 287 55 L 286 55 L 285 54 L 284 54 L 283 53 L 282 53 L 280 51 L 279 51 L 278 50 L 277 50 L 276 49 L 275 49 L 273 47 L 272 47 L 271 46 L 270 46 L 269 45 L 268 45 L 266 43 L 265 43 L 264 42 L 263 42 L 262 41 L 261 41 L 259 39 L 258 39 L 257 38 L 256 38 L 255 37 L 254 37 L 252 35 L 251 35 L 250 34 L 249 34 L 248 33 L 247 33 L 245 31 L 244 31 L 243 30 L 242 30 L 241 29 L 240 29 L 238 27 L 237 27 L 236 26 L 235 26 L 234 25 z" />
<path d="M 68 13 L 67 14 L 66 14 L 65 15 L 64 15 L 63 16 L 62 16 L 61 17 L 60 17 L 58 19 L 57 19 L 56 20 L 55 20 L 54 21 L 53 21 L 53 22 L 52 23 L 52 40 L 51 41 L 51 60 L 50 61 L 50 80 L 49 81 L 49 100 L 48 101 L 48 120 L 47 121 L 47 140 L 46 141 L 46 160 L 45 161 L 45 180 L 44 181 L 44 200 L 43 201 L 43 220 L 42 221 L 42 240 L 41 241 L 41 260 L 40 261 L 40 280 L 39 281 L 39 300 L 38 301 L 38 320 L 37 321 L 37 340 L 36 341 L 36 360 L 35 361 L 35 380 L 34 381 L 34 400 L 33 401 L 33 420 L 32 421 L 32 440 L 31 441 L 31 460 L 30 461 L 30 480 L 29 481 L 29 500 L 28 501 L 28 520 L 27 521 L 27 540 L 26 541 L 26 560 L 25 561 L 25 580 L 24 581 L 24 600 L 23 601 L 23 618 L 24 619 L 25 618 L 80 618 L 80 592 L 79 591 L 79 527 L 78 526 L 78 463 L 77 462 L 77 398 L 76 397 L 76 334 L 75 333 L 75 269 L 74 268 L 74 204 L 73 203 L 73 140 L 72 139 L 72 75 L 71 74 L 71 13 z" />
<path d="M 128 6 L 127 7 L 112 7 L 111 8 L 97 8 L 96 9 L 82 9 L 81 10 L 76 10 L 76 72 L 77 73 L 77 136 L 78 137 L 78 201 L 79 202 L 79 265 L 80 266 L 80 330 L 81 331 L 81 394 L 82 395 L 82 459 L 83 460 L 83 524 L 84 525 L 84 588 L 85 589 L 85 664 L 84 665 L 84 751 L 83 752 L 83 838 L 82 839 L 82 926 L 81 927 L 81 1013 L 80 1014 L 80 1100 L 79 1101 L 79 1188 L 78 1189 L 78 1273 L 270 1273 L 271 1272 L 271 1264 L 272 1263 L 272 1252 L 273 1251 L 273 1241 L 274 1240 L 274 1230 L 275 1229 L 275 1218 L 276 1217 L 276 1207 L 277 1206 L 277 1196 L 278 1195 L 278 1185 L 279 1184 L 279 1173 L 280 1172 L 280 1162 L 281 1161 L 281 1151 L 282 1150 L 282 1139 L 283 1138 L 283 1128 L 284 1127 L 284 1117 L 285 1116 L 285 1105 L 286 1104 L 286 1094 L 287 1093 L 287 1083 L 288 1082 L 288 1071 L 289 1070 L 289 1060 L 290 1059 L 290 1045 L 289 1044 L 289 1020 L 288 1019 L 288 996 L 287 995 L 287 971 L 286 970 L 286 947 L 285 946 L 285 923 L 284 922 L 284 898 L 283 897 L 283 874 L 282 873 L 282 850 L 281 849 L 281 825 L 280 824 L 280 801 L 279 800 L 279 777 L 278 776 L 278 752 L 277 751 L 277 728 L 276 727 L 276 703 L 275 702 L 275 679 L 274 678 L 274 655 L 273 654 L 273 630 L 272 629 L 272 611 L 271 610 L 271 598 L 270 597 L 270 585 L 269 584 L 269 572 L 268 571 L 268 559 L 267 558 L 267 547 L 266 546 L 266 534 L 265 533 L 265 521 L 264 520 L 264 508 L 263 507 L 263 495 L 262 494 L 262 482 L 261 481 L 261 469 L 260 468 L 260 456 L 259 455 L 259 443 L 258 442 L 258 430 L 257 429 L 257 417 L 256 416 L 256 404 L 255 403 L 255 391 L 254 390 L 254 378 L 253 377 L 253 365 L 252 364 L 252 352 L 251 351 L 251 339 L 250 338 L 250 326 L 249 325 L 249 313 L 248 312 L 248 300 L 247 299 L 247 287 L 246 286 L 246 274 L 245 273 L 245 261 L 244 260 L 244 248 L 243 247 L 243 235 L 242 234 L 242 222 L 241 221 L 241 209 L 240 208 L 240 196 L 239 195 L 239 183 L 238 182 L 238 170 L 237 169 L 237 157 L 236 156 L 236 144 L 235 143 L 235 131 L 234 130 L 234 118 L 233 117 L 233 105 L 232 104 L 232 92 L 231 91 L 231 79 L 230 78 L 230 66 L 229 65 L 229 53 L 228 52 L 228 40 L 227 39 L 227 27 L 226 26 L 226 22 L 225 21 L 221 21 L 220 20 L 216 20 L 215 19 L 211 19 L 210 18 L 205 18 L 204 17 L 200 17 L 199 16 L 195 16 L 194 15 L 190 15 L 189 14 L 185 14 L 184 13 L 179 13 L 178 12 L 174 12 L 173 11 L 169 11 L 168 10 L 164 10 L 163 9 L 159 9 L 158 8 L 153 8 L 152 7 L 148 7 L 147 6 z" />
<g id="2">
<path d="M 6 624 L 7 623 L 78 623 L 80 625 L 80 660 L 79 661 L 79 747 L 78 748 L 78 834 L 77 835 L 77 922 L 76 923 L 76 1009 L 75 1010 L 75 1096 L 74 1097 L 74 1184 L 73 1185 L 73 1271 L 71 1273 L 18 1273 L 17 1272 L 17 1248 L 16 1247 L 16 1191 L 15 1190 L 15 1134 L 14 1133 L 14 1077 L 13 1076 L 13 1020 L 12 1019 L 12 963 L 11 962 L 11 906 L 10 905 L 10 849 L 9 848 L 9 792 L 8 791 L 8 735 L 7 734 L 7 678 L 6 677 z" />
<path d="M 231 26 L 232 25 L 233 25 L 234 26 L 235 26 L 236 27 L 237 27 L 239 29 L 240 29 L 241 30 L 242 30 L 243 31 L 244 31 L 246 33 L 247 33 L 248 34 L 249 34 L 250 35 L 251 35 L 253 37 L 254 37 L 255 38 L 256 38 L 257 39 L 258 39 L 260 41 L 261 41 L 262 42 L 263 42 L 264 43 L 265 43 L 267 45 L 268 45 L 269 46 L 270 46 L 271 47 L 272 47 L 274 49 L 275 49 L 276 50 L 277 50 L 278 51 L 279 51 L 281 53 L 282 53 L 283 54 L 284 54 L 285 55 L 286 55 L 288 57 L 289 57 L 290 58 L 291 58 L 292 59 L 293 59 L 295 61 L 296 61 L 297 62 L 298 62 L 300 64 L 301 64 L 303 66 L 303 93 L 304 94 L 304 154 L 305 155 L 305 215 L 306 216 L 306 275 L 307 276 L 307 336 L 308 337 L 308 396 L 309 397 L 309 457 L 310 458 L 310 517 L 311 518 L 311 578 L 312 579 L 312 639 L 313 640 L 313 699 L 314 700 L 314 760 L 315 761 L 315 820 L 316 821 L 316 881 L 317 882 L 317 1052 L 316 1053 L 316 1163 L 315 1164 L 315 1271 L 313 1273 L 277 1273 L 276 1272 L 276 1265 L 277 1264 L 277 1253 L 278 1252 L 278 1242 L 279 1241 L 279 1231 L 280 1230 L 280 1220 L 281 1219 L 281 1208 L 282 1207 L 282 1197 L 283 1196 L 283 1186 L 284 1185 L 284 1174 L 285 1173 L 285 1163 L 286 1162 L 286 1152 L 287 1151 L 287 1140 L 288 1139 L 288 1129 L 289 1128 L 289 1118 L 290 1117 L 290 1106 L 291 1105 L 291 1095 L 292 1094 L 292 1084 L 293 1083 L 293 1073 L 294 1072 L 294 1061 L 295 1060 L 295 1043 L 294 1042 L 294 1019 L 293 1018 L 293 995 L 292 994 L 292 970 L 291 969 L 291 946 L 290 945 L 290 922 L 289 921 L 289 897 L 288 896 L 288 873 L 287 872 L 287 848 L 286 847 L 286 824 L 285 823 L 285 800 L 284 799 L 284 775 L 283 774 L 283 751 L 282 750 L 282 727 L 281 726 L 281 702 L 280 701 L 280 678 L 279 677 L 279 654 L 278 653 L 278 629 L 277 628 L 277 610 L 276 609 L 276 597 L 275 596 L 275 584 L 274 583 L 274 571 L 273 570 L 273 558 L 272 557 L 272 546 L 271 545 L 271 533 L 270 532 L 270 520 L 269 519 L 269 507 L 268 506 L 268 494 L 267 493 L 267 481 L 266 480 L 266 468 L 265 467 L 265 455 L 264 454 L 264 442 L 263 441 L 263 429 L 262 428 L 262 416 L 261 415 L 261 403 L 260 402 L 260 390 L 259 389 L 259 377 L 258 376 L 258 364 L 257 363 L 257 351 L 256 350 L 256 338 L 255 337 L 255 325 L 254 324 L 254 312 L 253 311 L 253 299 L 252 298 L 252 286 L 251 285 L 251 273 L 250 272 L 250 260 L 249 259 L 249 247 L 248 246 L 248 234 L 247 233 L 247 221 L 246 220 L 246 208 L 245 207 L 245 195 L 244 194 L 244 182 L 243 181 L 243 169 L 242 168 L 242 156 L 241 155 L 241 143 L 240 142 L 240 130 L 239 129 L 239 117 L 238 116 L 238 104 L 237 103 L 237 91 L 236 90 L 236 78 L 235 77 L 235 65 L 234 64 L 234 52 L 233 51 L 233 39 L 232 38 L 232 27 z" />
<path d="M 68 14 L 69 13 L 70 13 L 71 14 L 71 74 L 72 75 L 72 139 L 73 140 L 73 203 L 74 204 L 74 268 L 75 269 L 75 333 L 76 334 L 76 397 L 77 398 L 77 462 L 78 463 L 78 526 L 79 527 L 79 591 L 80 592 L 80 617 L 79 618 L 25 618 L 24 619 L 23 618 L 23 601 L 24 600 L 24 581 L 25 580 L 25 561 L 26 560 L 26 541 L 27 540 L 27 521 L 28 520 L 28 501 L 29 500 L 29 481 L 30 480 L 30 461 L 31 460 L 31 441 L 32 440 L 32 421 L 33 420 L 33 401 L 34 400 L 34 381 L 35 380 L 35 361 L 36 360 L 36 341 L 37 340 L 37 321 L 38 320 L 38 301 L 39 300 L 39 281 L 40 280 L 40 261 L 41 260 L 41 241 L 42 240 L 42 221 L 43 220 L 43 201 L 44 200 L 44 181 L 45 180 L 45 161 L 46 160 L 46 141 L 47 140 L 47 121 L 48 120 L 48 101 L 49 100 L 49 81 L 50 80 L 50 61 L 51 60 L 51 41 L 52 40 L 52 23 L 54 21 L 55 21 L 56 20 L 57 20 L 58 19 L 59 19 L 61 17 L 62 17 L 63 16 L 64 16 L 65 15 L 66 15 L 67 14 z" />
<path d="M 127 7 L 128 6 L 147 6 L 148 7 L 152 7 L 153 8 L 158 8 L 159 9 L 163 9 L 164 10 L 168 10 L 169 11 L 173 11 L 174 12 L 178 12 L 179 13 L 184 13 L 185 14 L 189 14 L 190 15 L 194 15 L 195 16 L 199 16 L 200 17 L 204 17 L 205 18 L 210 18 L 211 19 L 215 19 L 216 20 L 220 20 L 221 21 L 224 21 L 226 23 L 226 26 L 227 27 L 227 39 L 228 40 L 228 52 L 229 53 L 229 65 L 230 66 L 230 78 L 231 79 L 231 91 L 232 92 L 232 104 L 233 105 L 233 117 L 234 118 L 234 130 L 235 131 L 235 143 L 236 144 L 236 156 L 237 157 L 237 169 L 238 170 L 238 182 L 239 183 L 239 195 L 240 196 L 240 208 L 241 209 L 241 221 L 242 222 L 242 234 L 243 235 L 243 247 L 244 248 L 244 260 L 245 261 L 245 273 L 246 274 L 246 286 L 247 287 L 247 299 L 248 300 L 248 312 L 249 313 L 249 325 L 250 326 L 250 338 L 251 339 L 251 351 L 252 352 L 252 364 L 253 365 L 253 377 L 254 378 L 254 390 L 255 391 L 255 403 L 256 404 L 256 416 L 257 417 L 257 429 L 258 430 L 258 442 L 259 443 L 259 455 L 260 456 L 260 468 L 261 469 L 261 481 L 262 482 L 262 494 L 263 495 L 263 507 L 264 508 L 264 520 L 265 521 L 265 533 L 266 534 L 266 546 L 267 547 L 267 558 L 268 559 L 268 571 L 269 572 L 269 584 L 270 585 L 270 597 L 271 598 L 271 610 L 272 611 L 272 629 L 273 630 L 273 654 L 274 655 L 274 678 L 275 679 L 275 702 L 276 703 L 276 727 L 277 728 L 277 751 L 278 752 L 278 776 L 279 777 L 279 800 L 280 801 L 280 824 L 281 825 L 281 849 L 282 850 L 282 873 L 283 874 L 283 897 L 284 898 L 284 922 L 285 923 L 285 946 L 286 947 L 286 970 L 287 971 L 287 995 L 288 996 L 288 1019 L 289 1020 L 289 1044 L 290 1045 L 290 1059 L 289 1060 L 289 1070 L 288 1071 L 288 1082 L 287 1083 L 287 1093 L 286 1094 L 286 1104 L 285 1105 L 285 1116 L 284 1117 L 284 1127 L 283 1128 L 283 1138 L 282 1139 L 282 1150 L 281 1151 L 281 1161 L 280 1162 L 280 1172 L 279 1173 L 279 1184 L 278 1185 L 278 1195 L 277 1196 L 277 1206 L 276 1207 L 276 1217 L 275 1218 L 275 1229 L 274 1230 L 274 1240 L 273 1241 L 273 1251 L 272 1252 L 272 1263 L 271 1264 L 271 1271 L 269 1273 L 79 1273 L 78 1272 L 78 1189 L 79 1188 L 79 1101 L 80 1100 L 80 1014 L 81 1013 L 81 927 L 82 926 L 82 839 L 83 838 L 83 752 L 84 751 L 84 665 L 85 664 L 85 589 L 84 588 L 84 525 L 83 524 L 83 460 L 82 459 L 82 395 L 81 394 L 81 331 L 80 330 L 80 266 L 79 265 L 79 202 L 78 201 L 78 137 L 77 136 L 77 73 L 76 72 L 76 11 L 77 10 L 81 10 L 82 9 L 96 9 L 97 8 L 111 8 L 112 7 z" />
</g>
</g>
</svg>
</svg>