<?xml version="1.0" encoding="UTF-8"?>
<svg xmlns="http://www.w3.org/2000/svg" xmlns:xlink="http://www.w3.org/1999/xlink"
     width="484" height="972" viewBox="0 0 484 972">
<defs>
</defs>
<svg id="0" fill="grey" stroke="black">
<path d="M 133 0 L 132 1 L 126 1 L 125 2 L 121 2 L 120 3 L 117 3 L 116 4 L 114 4 L 113 5 L 111 5 L 110 6 L 108 6 L 107 7 L 106 7 L 105 8 L 104 8 L 103 9 L 102 9 L 101 10 L 100 10 L 99 11 L 98 11 L 95 14 L 94 14 L 87 21 L 87 22 L 85 24 L 85 25 L 84 26 L 84 27 L 82 29 L 82 30 L 81 31 L 81 32 L 80 33 L 80 34 L 79 35 L 79 37 L 78 38 L 78 39 L 77 40 L 77 41 L 76 42 L 76 43 L 75 44 L 75 46 L 74 47 L 74 49 L 73 50 L 73 51 L 72 52 L 72 54 L 71 55 L 71 57 L 70 58 L 70 60 L 69 61 L 69 63 L 68 64 L 68 66 L 67 67 L 67 69 L 66 70 L 66 72 L 65 73 L 65 76 L 64 77 L 64 79 L 63 80 L 63 82 L 62 83 L 62 86 L 61 87 L 61 90 L 60 91 L 60 93 L 59 94 L 59 97 L 58 98 L 58 101 L 57 102 L 57 105 L 56 106 L 56 109 L 55 110 L 55 113 L 54 114 L 54 117 L 53 118 L 53 122 L 52 123 L 52 126 L 51 127 L 51 130 L 50 131 L 50 135 L 49 136 L 49 140 L 48 141 L 48 144 L 47 145 L 47 149 L 46 150 L 46 154 L 45 155 L 45 159 L 44 160 L 44 164 L 43 165 L 43 169 L 42 170 L 42 174 L 41 175 L 41 179 L 40 180 L 40 185 L 39 186 L 39 190 L 38 191 L 38 196 L 37 197 L 37 202 L 36 203 L 36 207 L 35 208 L 35 213 L 34 214 L 34 219 L 33 220 L 33 225 L 32 226 L 32 232 L 31 233 L 31 238 L 30 239 L 30 244 L 29 245 L 29 251 L 28 252 L 28 258 L 27 259 L 27 265 L 26 266 L 26 272 L 25 273 L 25 279 L 24 280 L 24 286 L 23 287 L 23 294 L 22 295 L 22 301 L 21 302 L 21 309 L 20 310 L 20 317 L 19 318 L 19 325 L 18 326 L 18 334 L 17 335 L 17 342 L 16 343 L 16 351 L 15 352 L 15 360 L 14 361 L 14 370 L 13 371 L 13 380 L 12 381 L 12 389 L 11 390 L 11 400 L 10 401 L 10 411 L 9 412 L 9 422 L 8 423 L 8 433 L 7 434 L 7 446 L 6 447 L 6 458 L 5 459 L 5 472 L 4 473 L 4 486 L 3 487 L 3 501 L 2 502 L 2 519 L 1 520 L 1 544 L 0 545 L 0 622 L 1 623 L 1 647 L 2 648 L 2 664 L 3 665 L 3 678 L 4 679 L 4 691 L 5 692 L 5 702 L 6 703 L 6 713 L 7 714 L 7 722 L 8 723 L 8 731 L 9 732 L 9 739 L 10 740 L 10 748 L 11 749 L 11 755 L 12 756 L 12 762 L 13 763 L 13 770 L 14 771 L 14 776 L 15 777 L 15 783 L 16 784 L 16 789 L 17 790 L 17 795 L 18 796 L 18 801 L 19 802 L 19 807 L 20 808 L 20 813 L 21 814 L 21 818 L 22 819 L 22 824 L 23 825 L 23 829 L 24 830 L 24 834 L 25 835 L 25 839 L 26 840 L 26 844 L 27 845 L 27 849 L 28 850 L 28 853 L 29 854 L 29 858 L 30 859 L 30 863 L 31 864 L 31 867 L 32 868 L 32 871 L 33 872 L 33 876 L 34 877 L 34 880 L 35 881 L 35 884 L 36 885 L 36 888 L 37 889 L 37 892 L 38 893 L 38 896 L 39 897 L 39 900 L 40 901 L 40 904 L 41 905 L 41 908 L 42 909 L 42 912 L 43 913 L 43 915 L 44 916 L 44 919 L 45 920 L 45 922 L 46 923 L 46 926 L 47 927 L 47 930 L 48 931 L 48 933 L 49 934 L 49 936 L 50 937 L 50 940 L 51 941 L 51 943 L 52 944 L 52 946 L 53 947 L 53 949 L 54 950 L 54 952 L 55 953 L 55 956 L 56 957 L 56 959 L 57 960 L 57 962 L 58 963 L 58 964 L 59 965 L 59 967 L 60 968 L 60 969 L 61 970 L 75 970 L 76 971 L 368 971 L 370 969 L 370 968 L 373 965 L 373 964 L 375 962 L 375 961 L 377 959 L 377 958 L 379 956 L 379 955 L 381 953 L 381 952 L 383 950 L 383 949 L 385 947 L 385 946 L 386 945 L 386 944 L 388 942 L 388 941 L 390 939 L 390 938 L 391 937 L 391 936 L 393 934 L 393 933 L 394 932 L 394 931 L 395 930 L 395 929 L 397 927 L 397 926 L 398 925 L 398 924 L 399 923 L 399 922 L 401 920 L 401 919 L 402 918 L 402 917 L 403 916 L 403 915 L 404 914 L 404 913 L 406 911 L 406 910 L 407 909 L 407 908 L 408 907 L 408 906 L 409 905 L 409 904 L 410 903 L 410 902 L 411 901 L 411 900 L 412 899 L 412 898 L 413 897 L 413 896 L 414 895 L 414 894 L 415 893 L 415 892 L 416 891 L 416 890 L 417 889 L 417 888 L 418 887 L 418 886 L 419 885 L 419 884 L 420 883 L 420 882 L 421 881 L 421 880 L 422 879 L 422 878 L 423 877 L 423 875 L 424 874 L 424 873 L 425 872 L 425 871 L 426 870 L 426 869 L 427 868 L 427 867 L 428 866 L 428 864 L 429 863 L 429 862 L 430 861 L 430 860 L 431 859 L 431 857 L 432 856 L 432 855 L 433 854 L 433 853 L 434 852 L 434 850 L 435 849 L 435 848 L 436 847 L 436 845 L 437 844 L 437 843 L 438 842 L 438 840 L 439 839 L 439 838 L 440 837 L 440 835 L 441 834 L 441 832 L 442 831 L 442 830 L 443 829 L 443 827 L 444 826 L 444 824 L 445 823 L 445 822 L 446 821 L 446 819 L 447 818 L 447 816 L 448 815 L 448 813 L 449 812 L 449 810 L 450 809 L 450 807 L 451 806 L 451 804 L 452 803 L 452 801 L 453 800 L 453 798 L 454 797 L 454 795 L 455 794 L 455 791 L 456 790 L 456 788 L 457 787 L 457 785 L 458 784 L 458 781 L 459 780 L 459 778 L 460 777 L 460 774 L 461 773 L 461 771 L 462 770 L 462 767 L 463 766 L 463 763 L 464 762 L 464 759 L 465 758 L 465 755 L 466 754 L 466 751 L 467 750 L 467 746 L 468 745 L 468 742 L 469 741 L 469 737 L 470 736 L 470 732 L 471 731 L 471 727 L 472 726 L 472 722 L 473 721 L 473 717 L 474 716 L 474 711 L 475 710 L 475 705 L 476 704 L 476 698 L 477 697 L 477 691 L 478 690 L 478 683 L 479 682 L 479 673 L 480 672 L 480 663 L 481 662 L 481 650 L 482 649 L 482 629 L 483 628 L 483 525 L 482 524 L 482 503 L 481 502 L 481 487 L 480 486 L 480 474 L 479 473 L 479 464 L 478 463 L 478 454 L 477 453 L 477 446 L 476 445 L 476 438 L 475 437 L 475 431 L 474 430 L 474 424 L 473 423 L 473 418 L 472 417 L 472 412 L 471 411 L 471 406 L 470 405 L 470 401 L 469 400 L 469 395 L 468 394 L 468 391 L 467 390 L 467 386 L 466 385 L 466 381 L 465 380 L 465 377 L 464 376 L 464 373 L 463 372 L 463 368 L 462 367 L 462 364 L 461 363 L 461 361 L 460 360 L 460 357 L 459 356 L 459 353 L 458 352 L 458 349 L 457 348 L 457 346 L 456 345 L 456 342 L 455 341 L 455 339 L 454 338 L 454 336 L 453 335 L 453 332 L 452 331 L 452 329 L 451 328 L 451 326 L 450 325 L 450 323 L 449 322 L 449 320 L 448 319 L 448 317 L 447 316 L 447 314 L 446 313 L 446 311 L 445 310 L 445 308 L 444 307 L 444 305 L 443 304 L 443 303 L 442 302 L 442 300 L 441 299 L 441 297 L 440 296 L 440 295 L 439 294 L 439 292 L 438 291 L 438 289 L 437 288 L 437 287 L 436 286 L 436 284 L 435 283 L 435 282 L 434 281 L 434 279 L 433 278 L 433 277 L 432 276 L 432 274 L 431 273 L 431 272 L 430 271 L 430 269 L 429 268 L 429 267 L 428 266 L 428 265 L 427 264 L 427 262 L 426 261 L 426 260 L 425 259 L 425 258 L 424 257 L 424 255 L 423 254 L 423 253 L 422 252 L 422 251 L 421 250 L 421 249 L 420 248 L 420 246 L 419 245 L 419 244 L 418 243 L 418 242 L 417 241 L 417 240 L 416 239 L 416 238 L 415 237 L 415 236 L 414 235 L 414 233 L 413 232 L 413 231 L 412 230 L 412 229 L 411 228 L 411 227 L 410 226 L 410 225 L 409 224 L 409 223 L 408 222 L 408 221 L 407 220 L 407 219 L 406 218 L 406 217 L 405 216 L 405 215 L 404 214 L 404 213 L 403 212 L 403 211 L 402 210 L 402 209 L 401 208 L 401 207 L 400 206 L 400 205 L 399 204 L 399 203 L 398 202 L 398 201 L 397 200 L 397 199 L 396 198 L 396 197 L 395 196 L 395 195 L 394 194 L 394 193 L 393 192 L 393 191 L 392 190 L 392 189 L 390 187 L 390 186 L 389 185 L 389 184 L 388 183 L 388 182 L 387 181 L 387 180 L 386 179 L 386 178 L 385 177 L 385 176 L 384 175 L 384 174 L 382 172 L 382 171 L 381 170 L 381 169 L 380 168 L 380 167 L 379 166 L 379 165 L 378 164 L 378 163 L 376 161 L 376 160 L 375 159 L 375 158 L 374 157 L 374 156 L 373 155 L 373 154 L 371 152 L 371 151 L 370 150 L 370 149 L 368 147 L 368 146 L 367 145 L 367 144 L 365 142 L 365 141 L 364 140 L 364 139 L 362 137 L 362 136 L 360 134 L 360 133 L 358 131 L 358 130 L 356 128 L 356 127 L 354 125 L 354 124 L 352 122 L 352 121 L 350 119 L 350 118 L 347 115 L 347 114 L 344 111 L 344 110 L 341 107 L 341 106 L 337 102 L 337 101 L 333 97 L 333 96 L 327 90 L 327 89 L 299 61 L 298 61 L 292 55 L 291 55 L 287 51 L 286 51 L 282 47 L 281 47 L 278 44 L 277 44 L 275 42 L 274 42 L 272 40 L 271 40 L 269 38 L 268 38 L 265 35 L 264 35 L 263 34 L 262 34 L 260 32 L 259 32 L 258 31 L 257 31 L 255 29 L 254 29 L 253 28 L 252 28 L 251 27 L 250 27 L 248 25 L 247 25 L 246 24 L 245 24 L 244 23 L 243 23 L 242 22 L 241 22 L 240 21 L 239 21 L 238 20 L 237 20 L 236 19 L 235 19 L 234 18 L 233 18 L 232 17 L 230 17 L 229 16 L 228 16 L 227 15 L 226 15 L 225 14 L 224 14 L 223 13 L 221 13 L 220 12 L 218 12 L 217 11 L 216 11 L 215 10 L 213 10 L 212 9 L 210 9 L 209 8 L 207 8 L 206 7 L 204 7 L 203 6 L 200 6 L 199 5 L 196 5 L 195 4 L 192 4 L 191 3 L 187 3 L 186 2 L 181 2 L 180 1 L 173 1 L 172 0 z" />
<path d="M 132 1 L 133 0 L 172 0 L 173 1 L 180 1 L 181 2 L 186 2 L 187 3 L 191 3 L 192 4 L 195 4 L 196 5 L 199 5 L 200 6 L 203 6 L 204 7 L 206 7 L 207 8 L 209 8 L 210 9 L 212 9 L 213 10 L 215 10 L 216 11 L 217 11 L 218 12 L 220 12 L 221 13 L 223 13 L 224 14 L 225 14 L 226 15 L 227 15 L 228 16 L 229 16 L 230 17 L 232 17 L 233 18 L 234 18 L 235 19 L 236 19 L 237 20 L 238 20 L 239 21 L 240 21 L 241 22 L 242 22 L 243 23 L 244 23 L 245 24 L 246 24 L 248 26 L 249 26 L 250 27 L 251 27 L 252 28 L 253 28 L 255 30 L 256 30 L 257 31 L 258 31 L 260 33 L 261 33 L 262 34 L 263 34 L 266 37 L 267 37 L 269 39 L 270 39 L 272 41 L 273 41 L 275 43 L 276 43 L 279 46 L 280 46 L 284 50 L 285 50 L 289 54 L 290 54 L 296 60 L 297 60 L 311 74 L 312 74 L 314 76 L 314 77 L 328 91 L 328 92 L 334 98 L 334 99 L 338 103 L 338 104 L 342 108 L 342 109 L 345 112 L 345 113 L 348 116 L 348 117 L 351 120 L 351 121 L 353 123 L 353 124 L 355 126 L 355 127 L 357 129 L 357 130 L 359 132 L 359 133 L 361 135 L 361 136 L 363 138 L 363 139 L 365 141 L 365 142 L 366 143 L 366 144 L 368 146 L 368 147 L 369 148 L 369 149 L 371 151 L 371 152 L 372 153 L 372 154 L 374 156 L 374 157 L 375 158 L 375 159 L 376 160 L 376 161 L 377 162 L 377 163 L 379 165 L 379 166 L 380 167 L 380 168 L 381 169 L 381 170 L 382 171 L 382 172 L 383 173 L 383 174 L 385 176 L 385 177 L 386 178 L 386 179 L 387 180 L 387 181 L 388 182 L 388 183 L 389 184 L 389 185 L 390 186 L 390 187 L 391 188 L 391 189 L 393 191 L 393 192 L 394 193 L 394 194 L 395 195 L 395 196 L 396 197 L 396 198 L 397 199 L 397 200 L 398 201 L 398 202 L 399 203 L 399 204 L 400 205 L 400 206 L 401 207 L 401 208 L 402 209 L 402 210 L 403 211 L 403 212 L 404 213 L 404 214 L 405 215 L 405 216 L 406 217 L 406 218 L 407 219 L 407 220 L 408 221 L 408 222 L 409 223 L 409 224 L 410 225 L 410 226 L 411 227 L 411 228 L 412 229 L 412 230 L 413 231 L 413 232 L 414 233 L 414 235 L 415 236 L 415 237 L 416 238 L 416 239 L 417 240 L 417 241 L 418 242 L 418 243 L 419 244 L 419 245 L 420 246 L 420 248 L 421 249 L 421 250 L 422 251 L 422 252 L 423 253 L 423 254 L 424 255 L 424 257 L 425 258 L 425 259 L 426 260 L 426 261 L 427 262 L 427 264 L 428 265 L 428 266 L 429 267 L 429 268 L 430 269 L 430 271 L 431 272 L 431 273 L 432 274 L 432 276 L 433 277 L 433 278 L 434 279 L 434 281 L 435 282 L 435 283 L 436 284 L 436 286 L 437 287 L 437 288 L 438 289 L 438 291 L 439 292 L 439 294 L 440 295 L 440 296 L 441 297 L 441 299 L 442 300 L 442 302 L 443 303 L 443 304 L 444 305 L 444 307 L 445 308 L 445 310 L 446 311 L 446 313 L 447 314 L 447 316 L 448 317 L 448 319 L 449 320 L 449 322 L 450 323 L 450 325 L 451 326 L 451 328 L 452 329 L 452 331 L 453 332 L 453 335 L 454 336 L 454 338 L 455 339 L 455 341 L 456 342 L 456 345 L 457 346 L 457 348 L 458 349 L 458 352 L 459 353 L 459 356 L 460 357 L 460 360 L 461 361 L 461 363 L 462 364 L 462 367 L 463 368 L 463 372 L 464 373 L 464 376 L 465 377 L 465 380 L 466 381 L 466 385 L 467 386 L 467 390 L 468 391 L 468 394 L 469 395 L 469 400 L 470 401 L 470 405 L 471 406 L 471 411 L 472 412 L 472 417 L 473 418 L 473 423 L 474 424 L 474 430 L 475 431 L 475 437 L 476 438 L 476 445 L 477 446 L 477 453 L 478 454 L 478 463 L 479 464 L 479 473 L 480 474 L 480 486 L 481 487 L 481 502 L 482 503 L 482 524 L 483 525 L 483 628 L 482 629 L 482 649 L 481 650 L 481 662 L 480 663 L 480 672 L 479 673 L 479 682 L 478 683 L 478 690 L 477 691 L 477 697 L 476 698 L 476 704 L 475 705 L 475 710 L 474 711 L 474 716 L 473 717 L 473 721 L 472 722 L 472 726 L 471 727 L 471 731 L 470 732 L 470 736 L 469 737 L 469 741 L 468 742 L 468 745 L 467 746 L 467 750 L 466 751 L 466 754 L 465 755 L 465 758 L 464 759 L 464 762 L 463 763 L 463 766 L 462 767 L 462 770 L 461 771 L 461 773 L 460 774 L 460 777 L 459 778 L 459 780 L 458 781 L 458 784 L 457 785 L 457 787 L 456 788 L 456 790 L 455 791 L 455 794 L 454 795 L 454 797 L 453 798 L 453 800 L 452 801 L 452 803 L 451 804 L 451 806 L 450 807 L 450 809 L 449 810 L 449 812 L 448 813 L 448 815 L 447 816 L 447 818 L 446 819 L 446 821 L 445 822 L 445 823 L 444 824 L 444 826 L 443 827 L 443 829 L 442 830 L 442 831 L 441 832 L 441 834 L 440 835 L 440 837 L 439 838 L 439 839 L 438 840 L 438 842 L 437 843 L 437 844 L 436 845 L 436 847 L 435 848 L 435 849 L 434 850 L 434 852 L 433 853 L 433 854 L 432 855 L 432 856 L 431 857 L 431 859 L 430 860 L 430 861 L 429 862 L 429 863 L 428 864 L 428 866 L 427 867 L 427 868 L 426 869 L 426 870 L 425 871 L 425 872 L 424 873 L 424 874 L 423 875 L 423 877 L 422 878 L 422 879 L 421 880 L 421 881 L 420 882 L 420 883 L 419 884 L 419 885 L 418 886 L 418 887 L 417 888 L 417 889 L 416 890 L 416 891 L 415 892 L 415 893 L 414 894 L 414 895 L 413 896 L 413 897 L 412 898 L 412 899 L 411 900 L 411 901 L 410 902 L 410 903 L 409 904 L 409 905 L 408 906 L 408 907 L 407 908 L 407 909 L 405 911 L 405 912 L 404 913 L 404 914 L 403 915 L 403 916 L 402 917 L 402 918 L 400 920 L 400 921 L 399 922 L 399 923 L 398 924 L 398 925 L 396 927 L 396 928 L 395 929 L 395 930 L 394 931 L 394 932 L 392 934 L 392 935 L 391 936 L 391 937 L 389 939 L 389 940 L 387 942 L 387 943 L 386 944 L 386 945 L 384 947 L 384 948 L 382 950 L 382 951 L 380 953 L 380 954 L 378 956 L 378 957 L 376 959 L 376 960 L 374 962 L 374 963 L 371 966 L 371 967 L 369 969 L 369 970 L 368 971 L 76 971 L 75 970 L 61 970 L 60 969 L 60 968 L 59 967 L 59 965 L 58 964 L 58 963 L 57 962 L 57 960 L 56 959 L 56 957 L 55 956 L 55 953 L 54 952 L 54 950 L 53 949 L 53 947 L 52 946 L 52 944 L 51 943 L 51 941 L 50 940 L 50 937 L 49 936 L 49 934 L 48 933 L 48 931 L 47 930 L 47 927 L 46 926 L 46 923 L 45 922 L 45 920 L 44 919 L 44 916 L 43 915 L 43 913 L 42 912 L 42 909 L 41 908 L 41 905 L 40 904 L 40 901 L 39 900 L 39 897 L 38 896 L 38 893 L 37 892 L 37 889 L 36 888 L 36 885 L 35 884 L 35 881 L 34 880 L 34 877 L 33 876 L 33 872 L 32 871 L 32 868 L 31 867 L 31 864 L 30 863 L 30 859 L 29 858 L 29 854 L 28 853 L 28 850 L 27 849 L 27 845 L 26 844 L 26 840 L 25 839 L 25 835 L 24 834 L 24 830 L 23 829 L 23 825 L 22 824 L 22 819 L 21 818 L 21 814 L 20 813 L 20 808 L 19 807 L 19 802 L 18 801 L 18 796 L 17 795 L 17 790 L 16 789 L 16 784 L 15 783 L 15 777 L 14 776 L 14 771 L 13 770 L 13 763 L 12 762 L 12 756 L 11 755 L 11 749 L 10 748 L 10 740 L 9 739 L 9 732 L 8 731 L 8 723 L 7 722 L 7 714 L 6 713 L 6 703 L 5 702 L 5 692 L 4 691 L 4 679 L 3 678 L 3 665 L 2 664 L 2 648 L 1 647 L 1 623 L 0 622 L 0 545 L 1 544 L 1 520 L 2 519 L 2 502 L 3 501 L 3 487 L 4 486 L 4 473 L 5 472 L 5 459 L 6 458 L 6 447 L 7 446 L 7 434 L 8 433 L 8 423 L 9 422 L 9 412 L 10 411 L 10 401 L 11 400 L 11 390 L 12 389 L 12 381 L 13 380 L 13 371 L 14 370 L 14 361 L 15 360 L 15 352 L 16 351 L 16 343 L 17 342 L 17 335 L 18 334 L 18 326 L 19 325 L 19 318 L 20 317 L 20 310 L 21 309 L 21 302 L 22 301 L 22 295 L 23 294 L 23 287 L 24 286 L 24 280 L 25 279 L 25 273 L 26 272 L 26 266 L 27 265 L 27 259 L 28 258 L 28 252 L 29 251 L 29 245 L 30 244 L 30 239 L 31 238 L 31 233 L 32 232 L 32 226 L 33 225 L 33 220 L 34 219 L 34 214 L 35 213 L 35 208 L 36 207 L 36 203 L 37 202 L 37 197 L 38 196 L 38 191 L 39 190 L 39 186 L 40 185 L 40 180 L 41 179 L 41 175 L 42 174 L 42 170 L 43 169 L 43 165 L 44 164 L 44 160 L 45 159 L 45 155 L 46 154 L 46 150 L 47 149 L 47 145 L 48 144 L 48 141 L 49 140 L 49 136 L 50 135 L 50 131 L 51 130 L 51 127 L 52 126 L 52 123 L 53 122 L 53 118 L 54 117 L 54 114 L 55 113 L 55 110 L 56 109 L 56 106 L 57 105 L 57 102 L 58 101 L 58 98 L 59 97 L 59 94 L 60 93 L 60 91 L 61 90 L 61 87 L 62 86 L 62 83 L 63 82 L 63 80 L 64 79 L 64 77 L 65 76 L 65 73 L 66 72 L 66 70 L 67 69 L 67 67 L 68 66 L 68 64 L 69 63 L 69 61 L 70 60 L 70 58 L 71 57 L 71 55 L 72 54 L 72 52 L 73 51 L 73 50 L 74 49 L 74 47 L 75 46 L 75 44 L 76 43 L 76 42 L 77 41 L 77 40 L 78 39 L 78 38 L 79 37 L 79 35 L 80 34 L 80 33 L 81 32 L 81 31 L 83 29 L 83 28 L 84 27 L 84 26 L 86 24 L 86 23 L 96 13 L 97 13 L 100 10 L 101 10 L 102 9 L 103 9 L 104 8 L 105 8 L 106 7 L 107 7 L 108 6 L 110 6 L 111 5 L 113 5 L 114 4 L 116 4 L 117 3 L 120 3 L 121 2 L 125 2 L 126 1 z" />
<g id="1">
<path d="M 165 952 L 164 953 L 164 955 L 165 956 L 165 960 L 166 961 L 166 964 L 167 965 L 167 966 L 317 966 L 329 954 L 328 953 L 281 953 L 280 952 z" />
<path d="M 163 930 L 161 932 L 162 933 L 162 940 L 163 941 L 163 945 L 164 946 L 164 947 L 280 947 L 281 948 L 334 948 L 337 945 L 337 944 L 340 941 L 340 940 L 342 938 L 342 937 L 343 936 L 343 935 L 345 933 L 344 932 L 344 931 L 194 931 L 193 930 z" />
<path d="M 160 909 L 159 910 L 159 915 L 160 916 L 160 923 L 161 924 L 161 925 L 193 925 L 194 926 L 348 926 L 349 925 L 349 924 L 350 923 L 350 922 L 351 921 L 351 920 L 352 919 L 352 918 L 353 917 L 353 915 L 354 914 L 354 913 L 355 912 L 355 910 L 244 910 L 243 909 z" />
<path d="M 159 887 L 158 888 L 157 888 L 157 895 L 158 896 L 158 902 L 159 903 L 159 904 L 243 904 L 244 905 L 358 905 L 359 904 L 359 902 L 360 901 L 360 900 L 361 899 L 361 898 L 362 897 L 362 896 L 363 895 L 363 893 L 364 892 L 364 891 L 365 890 L 364 889 L 312 889 L 311 888 L 180 888 L 179 887 z" />
<path d="M 157 866 L 155 868 L 155 871 L 156 872 L 156 881 L 157 882 L 179 882 L 180 883 L 311 883 L 312 884 L 367 884 L 368 883 L 368 881 L 369 880 L 369 879 L 370 878 L 370 876 L 371 875 L 371 873 L 372 872 L 372 871 L 373 870 L 373 868 L 372 867 L 371 868 L 364 868 L 363 867 L 199 867 L 198 866 z" />
<path d="M 154 845 L 154 858 L 155 859 L 155 861 L 198 861 L 199 862 L 363 862 L 364 863 L 374 863 L 376 861 L 376 859 L 377 858 L 377 856 L 378 855 L 378 853 L 379 852 L 379 850 L 380 849 L 380 846 L 278 846 L 277 845 z" />
<path d="M 154 823 L 152 825 L 152 828 L 153 829 L 153 838 L 154 839 L 154 840 L 277 840 L 278 841 L 382 841 L 382 840 L 383 839 L 383 836 L 384 835 L 384 833 L 385 832 L 385 829 L 386 828 L 386 825 L 310 825 L 309 824 L 179 824 L 178 823 z" />
<path d="M 152 802 L 151 803 L 151 811 L 152 812 L 152 818 L 173 818 L 174 819 L 309 819 L 310 820 L 387 820 L 388 819 L 388 817 L 389 816 L 389 813 L 390 812 L 390 808 L 391 807 L 391 804 L 377 804 L 376 803 L 246 803 L 245 802 z" />
<path d="M 151 781 L 150 782 L 150 791 L 151 792 L 151 797 L 245 797 L 246 798 L 376 798 L 377 799 L 391 799 L 392 798 L 393 798 L 393 794 L 394 793 L 394 789 L 395 788 L 395 782 L 276 782 L 275 781 z" />
<path d="M 151 759 L 149 761 L 149 769 L 150 770 L 150 775 L 151 776 L 275 776 L 276 777 L 396 777 L 397 776 L 397 772 L 398 771 L 398 766 L 399 765 L 399 761 L 359 761 L 358 760 L 197 760 L 196 759 z" />
<path d="M 149 738 L 149 739 L 148 740 L 148 743 L 149 744 L 149 754 L 196 754 L 197 755 L 358 755 L 359 756 L 399 756 L 400 755 L 400 753 L 401 752 L 401 745 L 402 744 L 402 740 L 401 739 L 275 739 L 274 738 z" />
<path d="M 149 716 L 148 717 L 148 731 L 149 732 L 149 733 L 274 733 L 275 734 L 403 734 L 403 729 L 404 728 L 404 718 L 306 718 L 305 717 L 177 717 L 176 716 z" />
<path d="M 148 695 L 147 696 L 147 709 L 148 710 L 148 711 L 176 711 L 177 712 L 305 712 L 306 713 L 405 713 L 405 710 L 406 709 L 406 697 L 371 697 L 370 696 L 239 696 L 238 695 z" />
<path d="M 147 674 L 147 689 L 148 690 L 242 690 L 243 691 L 370 691 L 371 692 L 406 692 L 407 691 L 407 687 L 408 686 L 408 676 L 407 675 L 273 675 L 272 674 z" />
<path d="M 147 652 L 147 653 L 146 654 L 146 667 L 147 668 L 147 669 L 272 669 L 273 670 L 408 670 L 409 669 L 409 654 L 354 654 L 353 653 L 195 653 L 194 652 z" />
<path d="M 146 631 L 146 646 L 147 647 L 194 647 L 195 648 L 353 648 L 354 649 L 409 649 L 410 648 L 410 636 L 411 635 L 410 634 L 410 633 L 368 633 L 367 632 L 242 632 L 241 631 z" />
<path d="M 147 609 L 146 610 L 146 625 L 147 626 L 241 626 L 242 627 L 367 627 L 368 628 L 410 628 L 410 627 L 411 626 L 411 612 L 410 611 L 302 611 L 301 610 L 176 610 L 175 609 z" />
<path d="M 146 588 L 146 589 L 145 590 L 145 599 L 146 600 L 146 604 L 175 604 L 176 605 L 301 605 L 302 606 L 411 606 L 412 605 L 412 591 L 411 590 L 351 590 L 350 589 L 194 589 L 193 588 z" />
<path d="M 146 567 L 145 568 L 145 581 L 146 582 L 146 583 L 193 583 L 194 584 L 350 584 L 351 585 L 411 585 L 412 584 L 412 569 L 411 568 L 269 568 L 268 567 z" />
<path d="M 147 545 L 145 547 L 145 560 L 146 561 L 146 562 L 268 562 L 269 563 L 412 563 L 412 548 L 411 547 L 299 547 L 298 546 L 175 546 L 174 545 z" />
<path d="M 146 524 L 145 525 L 145 539 L 146 540 L 174 540 L 175 541 L 298 541 L 299 542 L 412 542 L 413 541 L 412 540 L 412 526 L 363 526 L 362 525 L 239 525 L 238 524 z" />
<path d="M 146 503 L 145 504 L 145 517 L 146 518 L 146 519 L 238 519 L 239 520 L 362 520 L 363 521 L 412 521 L 412 505 L 411 504 L 267 504 L 266 503 z" />
<path d="M 146 481 L 146 482 L 145 483 L 145 496 L 146 497 L 146 498 L 266 498 L 267 499 L 412 499 L 412 484 L 411 483 L 345 483 L 344 482 L 187 482 L 186 481 z" />
<path d="M 146 460 L 146 464 L 145 465 L 145 474 L 146 475 L 146 476 L 191 476 L 192 477 L 344 477 L 345 478 L 411 478 L 411 477 L 412 476 L 412 463 L 410 461 L 266 461 L 265 460 z" />
<path d="M 147 438 L 146 439 L 146 455 L 265 455 L 266 456 L 411 456 L 411 441 L 410 441 L 409 440 L 295 440 L 294 439 L 173 439 L 172 438 z" />
<path d="M 147 417 L 146 418 L 146 433 L 172 433 L 173 434 L 294 434 L 295 435 L 410 435 L 411 434 L 411 431 L 410 430 L 410 420 L 409 419 L 357 419 L 356 418 L 236 418 L 235 417 z" />
<path d="M 147 396 L 147 397 L 146 398 L 146 410 L 147 411 L 147 412 L 235 412 L 236 413 L 356 413 L 357 414 L 409 414 L 409 400 L 408 399 L 408 398 L 407 397 L 263 397 L 262 396 z" />
<path d="M 148 374 L 147 375 L 147 391 L 268 391 L 269 392 L 407 392 L 408 391 L 408 389 L 407 388 L 407 379 L 406 378 L 406 376 L 340 376 L 339 375 L 190 375 L 189 374 z" />
<path d="M 148 353 L 147 354 L 147 369 L 189 369 L 190 370 L 339 370 L 340 371 L 405 371 L 405 362 L 404 361 L 404 356 L 403 355 L 354 355 L 353 354 L 234 354 L 233 353 z" />
<path d="M 149 331 L 148 332 L 148 341 L 147 342 L 147 346 L 148 347 L 148 348 L 233 348 L 234 349 L 353 349 L 354 350 L 402 350 L 402 349 L 403 348 L 402 347 L 402 342 L 401 341 L 401 335 L 399 333 L 291 333 L 290 332 L 172 332 L 171 331 z" />
<path d="M 149 310 L 149 311 L 148 312 L 148 326 L 171 326 L 172 327 L 290 327 L 291 328 L 399 328 L 399 324 L 398 323 L 398 319 L 397 318 L 397 314 L 396 313 L 396 312 L 337 312 L 336 311 L 189 311 L 188 310 z" />
<path d="M 149 289 L 149 302 L 148 303 L 149 304 L 149 305 L 188 305 L 189 306 L 336 306 L 337 307 L 394 307 L 395 306 L 395 304 L 394 303 L 394 300 L 393 299 L 393 295 L 392 294 L 392 292 L 390 290 L 260 290 L 259 289 z" />
<path d="M 151 267 L 150 268 L 150 270 L 149 271 L 149 282 L 150 283 L 150 284 L 259 284 L 260 285 L 390 285 L 390 283 L 389 282 L 389 279 L 388 278 L 388 275 L 387 274 L 387 272 L 386 271 L 386 270 L 385 269 L 289 269 L 288 268 L 171 268 L 170 267 z" />
<path d="M 151 246 L 151 247 L 150 248 L 150 262 L 170 262 L 171 263 L 288 263 L 289 264 L 384 264 L 384 261 L 383 260 L 383 258 L 382 257 L 382 255 L 381 254 L 381 251 L 380 250 L 380 248 L 348 248 L 347 247 L 231 247 L 230 246 z" />
<path d="M 152 225 L 151 226 L 151 241 L 230 241 L 231 242 L 347 242 L 348 243 L 377 243 L 377 239 L 376 238 L 376 237 L 375 236 L 375 234 L 374 233 L 374 231 L 373 230 L 373 228 L 371 226 L 258 226 L 257 225 z" />
<path d="M 154 203 L 152 205 L 152 217 L 151 218 L 152 219 L 152 220 L 257 220 L 258 221 L 369 221 L 369 218 L 368 217 L 368 216 L 367 215 L 367 213 L 366 212 L 366 211 L 365 210 L 365 209 L 364 208 L 364 206 L 363 205 L 332 205 L 331 204 L 187 204 L 186 203 z" />
<path d="M 154 182 L 154 183 L 153 184 L 153 198 L 186 198 L 187 199 L 331 199 L 332 200 L 360 200 L 360 197 L 359 196 L 359 195 L 358 194 L 358 193 L 357 192 L 357 191 L 356 190 L 356 189 L 355 188 L 355 187 L 354 186 L 354 185 L 353 184 L 345 184 L 344 183 L 230 183 L 229 182 z" />
<path d="M 155 157 L 155 164 L 154 165 L 154 177 L 229 177 L 230 178 L 344 178 L 345 179 L 349 179 L 349 178 L 350 177 L 349 176 L 349 175 L 348 174 L 348 173 L 346 171 L 346 170 L 345 169 L 345 168 L 344 167 L 344 166 L 342 164 L 342 163 L 341 162 L 341 161 L 339 159 L 338 159 L 337 158 L 249 158 L 248 157 z" />
<path d="M 210 65 L 209 66 L 204 66 L 203 67 L 200 67 L 199 68 L 197 68 L 196 69 L 195 69 L 194 70 L 192 70 L 191 71 L 190 71 L 188 73 L 187 73 L 186 74 L 185 74 L 175 84 L 175 85 L 173 87 L 173 88 L 172 89 L 172 90 L 170 92 L 170 93 L 169 94 L 169 95 L 168 96 L 168 98 L 167 99 L 167 100 L 166 101 L 166 102 L 165 103 L 165 105 L 164 106 L 164 108 L 163 109 L 163 111 L 162 112 L 162 115 L 161 116 L 161 119 L 160 120 L 160 123 L 159 124 L 159 128 L 158 129 L 158 135 L 157 136 L 157 141 L 156 142 L 156 151 L 157 152 L 158 151 L 245 151 L 246 152 L 332 152 L 333 153 L 333 152 L 334 151 L 332 149 L 332 148 L 329 145 L 329 144 L 327 142 L 327 141 L 324 138 L 324 137 L 321 134 L 321 133 L 318 130 L 318 129 L 313 124 L 313 123 L 304 114 L 304 113 L 297 106 L 296 106 L 288 98 L 287 98 L 283 94 L 282 94 L 279 91 L 278 91 L 275 88 L 274 88 L 272 86 L 271 86 L 269 84 L 268 84 L 266 82 L 265 82 L 264 81 L 263 81 L 261 79 L 260 79 L 259 78 L 258 78 L 257 77 L 256 77 L 255 76 L 254 76 L 253 75 L 252 75 L 251 74 L 250 74 L 249 73 L 248 73 L 247 72 L 245 72 L 244 71 L 243 71 L 242 70 L 240 70 L 239 69 L 237 69 L 236 68 L 234 68 L 233 67 L 229 67 L 228 66 L 223 66 L 222 65 z" />
<path d="M 199 50 L 198 51 L 195 51 L 194 52 L 191 52 L 190 53 L 188 53 L 187 54 L 186 54 L 185 55 L 183 55 L 182 56 L 181 56 L 179 58 L 178 58 L 176 60 L 175 60 L 167 68 L 167 69 L 165 71 L 165 72 L 163 74 L 163 75 L 162 76 L 162 77 L 160 79 L 160 80 L 159 81 L 159 83 L 158 84 L 158 85 L 157 86 L 157 88 L 156 89 L 156 91 L 155 92 L 155 94 L 154 95 L 154 97 L 153 98 L 153 100 L 152 101 L 152 104 L 151 105 L 151 109 L 150 110 L 150 114 L 149 115 L 149 120 L 148 121 L 148 127 L 147 128 L 147 137 L 146 138 L 146 150 L 145 151 L 145 165 L 144 166 L 144 182 L 143 183 L 143 203 L 142 204 L 142 225 L 141 226 L 141 251 L 140 252 L 140 281 L 139 282 L 139 314 L 138 315 L 138 356 L 137 357 L 137 411 L 136 412 L 136 656 L 137 657 L 137 701 L 138 702 L 138 735 L 139 736 L 139 763 L 140 764 L 140 787 L 141 788 L 141 807 L 142 808 L 142 825 L 143 826 L 143 842 L 144 843 L 144 856 L 145 857 L 145 870 L 146 871 L 146 882 L 147 883 L 147 894 L 148 895 L 148 905 L 149 906 L 149 915 L 150 916 L 150 925 L 151 926 L 151 933 L 152 934 L 152 942 L 153 943 L 153 950 L 154 951 L 154 957 L 155 958 L 155 964 L 156 965 L 156 966 L 161 966 L 161 963 L 160 962 L 160 957 L 159 956 L 159 950 L 158 949 L 158 943 L 157 942 L 157 935 L 156 934 L 156 926 L 155 925 L 155 917 L 154 916 L 154 907 L 153 906 L 153 897 L 152 896 L 152 886 L 151 885 L 151 874 L 150 873 L 150 860 L 149 859 L 149 846 L 148 845 L 148 830 L 147 829 L 147 814 L 146 813 L 146 794 L 145 793 L 145 772 L 144 771 L 144 746 L 143 745 L 143 715 L 142 714 L 142 675 L 141 674 L 141 611 L 140 610 L 140 459 L 141 458 L 141 385 L 142 384 L 142 338 L 143 337 L 143 300 L 144 299 L 144 267 L 145 266 L 145 241 L 146 240 L 146 217 L 147 216 L 147 197 L 148 196 L 148 179 L 149 178 L 149 163 L 150 162 L 150 150 L 151 149 L 151 141 L 152 140 L 152 134 L 153 133 L 153 128 L 154 127 L 154 122 L 155 121 L 155 118 L 156 117 L 156 114 L 157 113 L 157 110 L 158 109 L 158 107 L 159 106 L 159 104 L 160 103 L 160 101 L 161 100 L 161 98 L 162 97 L 162 96 L 163 95 L 163 94 L 164 93 L 164 92 L 165 91 L 165 90 L 167 88 L 167 87 L 168 86 L 168 85 L 171 82 L 171 81 L 182 70 L 183 70 L 185 68 L 186 68 L 188 66 L 189 66 L 190 65 L 191 65 L 192 64 L 194 64 L 195 63 L 197 63 L 198 62 L 201 62 L 202 61 L 207 61 L 208 60 L 223 60 L 224 61 L 230 61 L 231 62 L 235 62 L 236 63 L 238 63 L 239 64 L 241 64 L 242 65 L 244 65 L 245 66 L 247 66 L 248 67 L 249 67 L 250 68 L 251 68 L 252 69 L 254 69 L 256 71 L 257 71 L 258 72 L 259 72 L 260 73 L 261 73 L 262 74 L 263 74 L 265 76 L 266 76 L 267 77 L 268 77 L 270 79 L 271 79 L 273 81 L 274 81 L 276 83 L 277 83 L 280 86 L 281 86 L 284 89 L 285 89 L 289 93 L 290 93 L 298 101 L 299 101 L 309 111 L 309 112 L 317 120 L 317 121 L 323 127 L 323 128 L 326 131 L 326 132 L 329 135 L 329 136 L 332 139 L 332 140 L 334 142 L 334 143 L 336 145 L 336 146 L 339 149 L 339 150 L 341 152 L 341 153 L 342 154 L 342 155 L 344 157 L 344 158 L 346 160 L 346 161 L 347 162 L 347 163 L 349 165 L 349 166 L 350 167 L 350 168 L 351 169 L 351 170 L 352 171 L 352 172 L 354 174 L 354 175 L 355 176 L 355 177 L 356 178 L 356 179 L 357 180 L 357 181 L 358 182 L 358 183 L 359 184 L 359 185 L 360 186 L 360 187 L 361 188 L 361 189 L 362 190 L 362 191 L 363 192 L 363 193 L 364 194 L 364 195 L 365 196 L 365 197 L 366 198 L 366 199 L 367 200 L 367 201 L 368 202 L 368 203 L 369 204 L 369 206 L 370 207 L 370 208 L 371 209 L 371 211 L 372 212 L 372 213 L 373 214 L 373 215 L 374 216 L 374 218 L 375 219 L 375 220 L 376 221 L 376 223 L 377 224 L 377 226 L 378 227 L 378 228 L 379 229 L 379 231 L 380 232 L 380 234 L 381 235 L 381 237 L 382 238 L 382 240 L 383 241 L 383 243 L 384 244 L 384 246 L 385 247 L 385 249 L 386 250 L 386 252 L 387 253 L 387 255 L 388 256 L 388 258 L 389 259 L 389 262 L 390 263 L 390 265 L 391 266 L 391 269 L 392 270 L 392 273 L 393 274 L 393 276 L 394 277 L 394 280 L 395 281 L 395 284 L 396 285 L 396 288 L 397 289 L 397 293 L 398 294 L 398 297 L 399 298 L 399 301 L 400 302 L 400 306 L 401 307 L 401 311 L 402 312 L 402 316 L 403 317 L 403 321 L 404 322 L 404 327 L 405 328 L 405 333 L 406 334 L 406 339 L 407 340 L 407 345 L 408 346 L 408 352 L 409 353 L 409 360 L 410 361 L 410 368 L 411 369 L 411 376 L 412 377 L 412 386 L 413 387 L 413 397 L 414 398 L 414 411 L 415 412 L 415 427 L 416 428 L 416 454 L 417 455 L 417 529 L 418 530 L 418 540 L 417 541 L 417 609 L 416 610 L 416 637 L 415 638 L 415 657 L 414 658 L 414 673 L 413 674 L 413 687 L 412 688 L 412 699 L 411 700 L 411 710 L 410 711 L 410 720 L 409 721 L 409 729 L 408 730 L 408 738 L 407 739 L 407 746 L 406 747 L 406 753 L 405 754 L 405 760 L 404 761 L 404 766 L 403 767 L 403 773 L 402 774 L 402 778 L 401 779 L 401 784 L 400 785 L 400 789 L 399 790 L 399 794 L 398 795 L 398 799 L 397 800 L 397 804 L 396 805 L 396 809 L 395 810 L 395 813 L 394 814 L 394 817 L 393 818 L 393 821 L 392 822 L 392 825 L 391 826 L 391 829 L 390 830 L 390 833 L 389 834 L 389 837 L 388 838 L 388 840 L 387 841 L 387 844 L 386 845 L 386 847 L 385 848 L 385 850 L 384 851 L 384 853 L 383 854 L 383 856 L 382 857 L 382 860 L 381 861 L 381 862 L 380 863 L 380 865 L 379 866 L 379 868 L 378 869 L 378 871 L 377 872 L 377 874 L 376 875 L 376 876 L 375 877 L 375 879 L 374 880 L 374 882 L 373 883 L 373 884 L 372 885 L 372 887 L 371 888 L 371 889 L 370 890 L 370 892 L 369 893 L 369 894 L 368 895 L 368 896 L 367 897 L 367 899 L 366 900 L 366 901 L 365 902 L 365 903 L 364 904 L 364 905 L 363 906 L 363 908 L 362 909 L 362 910 L 361 911 L 361 912 L 360 913 L 360 914 L 359 915 L 359 916 L 358 917 L 358 918 L 357 919 L 357 920 L 356 921 L 356 922 L 355 923 L 355 924 L 354 925 L 354 926 L 353 927 L 353 928 L 352 929 L 352 930 L 351 931 L 351 932 L 350 933 L 350 934 L 348 936 L 348 937 L 347 938 L 347 939 L 345 941 L 345 942 L 342 945 L 342 946 L 339 949 L 339 950 L 333 956 L 333 957 L 326 964 L 325 964 L 325 966 L 335 966 L 341 960 L 341 959 L 344 956 L 344 955 L 347 952 L 347 951 L 349 949 L 349 948 L 350 947 L 350 946 L 352 944 L 352 943 L 353 942 L 353 941 L 354 940 L 354 939 L 355 938 L 355 937 L 356 936 L 356 935 L 357 934 L 357 933 L 359 931 L 359 930 L 360 929 L 360 928 L 361 927 L 361 926 L 362 925 L 362 924 L 363 923 L 363 921 L 364 920 L 364 919 L 365 918 L 365 917 L 366 916 L 366 915 L 367 914 L 367 912 L 368 911 L 368 910 L 369 909 L 369 908 L 370 907 L 370 906 L 371 905 L 371 903 L 372 902 L 372 901 L 373 900 L 373 899 L 374 898 L 374 896 L 375 895 L 375 894 L 376 893 L 376 892 L 377 891 L 377 889 L 378 888 L 378 887 L 379 886 L 379 884 L 380 883 L 380 881 L 381 880 L 381 879 L 382 878 L 382 876 L 383 875 L 383 873 L 384 872 L 384 870 L 385 869 L 385 867 L 386 866 L 386 864 L 387 863 L 387 861 L 388 860 L 388 858 L 389 857 L 389 855 L 390 854 L 390 852 L 391 851 L 391 849 L 392 848 L 392 845 L 393 844 L 393 842 L 394 841 L 394 838 L 395 837 L 395 834 L 396 833 L 396 830 L 397 829 L 397 826 L 398 825 L 398 822 L 399 821 L 399 818 L 400 817 L 400 814 L 401 813 L 401 809 L 402 808 L 402 805 L 403 804 L 403 800 L 404 799 L 404 795 L 405 794 L 405 789 L 406 788 L 406 784 L 407 783 L 407 778 L 408 777 L 408 772 L 409 771 L 409 765 L 410 764 L 410 758 L 411 757 L 411 751 L 412 750 L 412 743 L 413 742 L 413 735 L 414 734 L 414 726 L 415 725 L 415 717 L 416 716 L 416 706 L 417 705 L 417 694 L 418 693 L 418 681 L 419 680 L 419 665 L 420 664 L 420 646 L 421 645 L 421 621 L 422 620 L 422 577 L 423 576 L 423 505 L 422 504 L 422 453 L 421 452 L 421 427 L 420 426 L 420 410 L 419 409 L 419 398 L 418 397 L 418 387 L 417 386 L 417 377 L 416 376 L 416 368 L 415 367 L 415 360 L 414 359 L 414 353 L 413 352 L 413 346 L 412 345 L 412 339 L 411 338 L 411 333 L 410 332 L 410 327 L 409 326 L 409 322 L 408 321 L 408 317 L 407 316 L 407 312 L 406 311 L 406 307 L 405 306 L 405 302 L 404 301 L 404 297 L 403 296 L 403 293 L 402 292 L 402 289 L 401 288 L 401 285 L 400 284 L 400 281 L 399 280 L 399 277 L 398 276 L 398 273 L 397 272 L 397 269 L 396 268 L 396 266 L 395 265 L 395 262 L 394 261 L 394 259 L 393 258 L 393 255 L 392 254 L 392 252 L 391 251 L 391 249 L 390 248 L 390 246 L 389 245 L 389 243 L 388 242 L 388 240 L 387 239 L 387 237 L 386 236 L 386 234 L 385 233 L 385 231 L 384 230 L 384 228 L 383 227 L 383 226 L 382 225 L 382 223 L 381 222 L 381 220 L 380 219 L 380 218 L 379 217 L 379 215 L 378 214 L 378 213 L 377 212 L 377 210 L 376 209 L 376 208 L 375 207 L 375 206 L 374 205 L 374 203 L 373 202 L 373 201 L 372 200 L 372 199 L 371 198 L 371 197 L 370 196 L 370 194 L 369 193 L 369 192 L 368 191 L 368 190 L 367 189 L 367 187 L 366 186 L 366 185 L 365 184 L 365 183 L 364 182 L 364 181 L 363 180 L 363 179 L 362 178 L 362 177 L 361 176 L 361 175 L 359 173 L 359 172 L 358 171 L 358 170 L 357 169 L 357 168 L 356 167 L 356 166 L 355 165 L 355 164 L 353 162 L 353 161 L 352 160 L 352 159 L 350 157 L 350 156 L 349 155 L 349 154 L 347 152 L 347 151 L 346 150 L 346 149 L 344 147 L 344 146 L 342 144 L 342 143 L 340 141 L 340 140 L 338 138 L 338 137 L 336 135 L 336 134 L 333 131 L 333 130 L 330 127 L 330 126 L 327 123 L 327 122 L 323 118 L 323 117 L 316 110 L 316 109 L 295 88 L 294 88 L 289 83 L 288 83 L 284 79 L 283 79 L 280 76 L 279 76 L 277 74 L 276 74 L 273 71 L 272 71 L 271 70 L 270 70 L 268 68 L 267 68 L 265 66 L 264 66 L 263 65 L 262 65 L 261 64 L 260 64 L 258 62 L 257 62 L 256 61 L 255 61 L 254 60 L 253 60 L 252 59 L 250 59 L 249 58 L 248 58 L 247 57 L 245 57 L 244 56 L 243 56 L 242 55 L 240 55 L 239 54 L 237 54 L 236 53 L 233 53 L 232 52 L 229 52 L 228 51 L 224 51 L 223 50 z" />
<path d="M 117 8 L 116 9 L 115 9 L 114 10 L 113 10 L 112 11 L 111 11 L 110 12 L 109 12 L 108 13 L 106 13 L 105 14 L 104 14 L 103 15 L 102 15 L 100 17 L 99 17 L 91 25 L 91 26 L 89 28 L 89 29 L 88 30 L 88 31 L 86 33 L 86 34 L 85 35 L 85 37 L 84 38 L 84 39 L 83 40 L 83 42 L 82 43 L 82 44 L 81 45 L 81 46 L 80 47 L 80 49 L 79 50 L 79 52 L 78 53 L 78 54 L 77 55 L 77 57 L 76 58 L 76 60 L 75 61 L 75 63 L 74 64 L 74 66 L 73 67 L 73 69 L 72 70 L 72 72 L 71 73 L 71 76 L 70 77 L 70 79 L 69 80 L 69 83 L 68 84 L 68 86 L 67 87 L 67 90 L 66 91 L 66 93 L 65 94 L 65 97 L 64 98 L 64 101 L 63 102 L 63 105 L 62 106 L 62 109 L 61 110 L 61 113 L 60 114 L 60 117 L 59 118 L 59 122 L 58 123 L 58 126 L 57 127 L 57 130 L 56 131 L 56 135 L 55 136 L 55 139 L 54 140 L 54 144 L 53 145 L 53 149 L 52 150 L 52 154 L 51 155 L 51 159 L 50 160 L 50 164 L 49 165 L 49 169 L 48 170 L 48 174 L 47 175 L 47 179 L 46 180 L 46 185 L 45 186 L 45 190 L 44 191 L 44 196 L 43 197 L 43 201 L 42 202 L 42 207 L 41 208 L 41 213 L 40 214 L 40 219 L 39 220 L 39 225 L 38 226 L 38 231 L 37 232 L 37 238 L 36 239 L 36 244 L 35 245 L 35 251 L 34 252 L 34 258 L 33 259 L 33 264 L 32 265 L 32 271 L 31 272 L 31 279 L 30 280 L 30 286 L 29 287 L 29 293 L 28 294 L 28 301 L 27 302 L 27 309 L 26 310 L 26 317 L 25 318 L 25 325 L 24 326 L 24 333 L 23 334 L 23 342 L 22 343 L 22 351 L 21 352 L 21 360 L 20 361 L 20 369 L 19 370 L 19 379 L 18 380 L 18 389 L 17 390 L 17 399 L 16 400 L 16 410 L 15 411 L 15 421 L 14 422 L 14 433 L 13 434 L 13 445 L 12 446 L 12 458 L 11 459 L 11 471 L 10 472 L 10 485 L 9 486 L 9 501 L 8 502 L 8 519 L 7 520 L 7 543 L 6 544 L 6 623 L 7 624 L 7 647 L 8 648 L 8 664 L 9 665 L 9 679 L 10 680 L 10 692 L 11 693 L 11 703 L 12 704 L 12 713 L 13 714 L 13 722 L 14 723 L 14 732 L 15 733 L 15 740 L 16 741 L 16 748 L 17 749 L 17 755 L 18 756 L 18 763 L 19 764 L 19 770 L 20 771 L 20 777 L 21 778 L 21 783 L 22 784 L 22 789 L 23 790 L 23 795 L 24 796 L 24 802 L 25 803 L 25 807 L 26 808 L 26 813 L 27 814 L 27 818 L 28 819 L 28 824 L 29 825 L 29 829 L 30 830 L 30 834 L 31 835 L 31 839 L 32 840 L 32 844 L 33 845 L 33 849 L 34 850 L 34 854 L 35 855 L 35 858 L 36 859 L 36 863 L 37 864 L 37 867 L 38 868 L 38 872 L 39 873 L 39 876 L 40 877 L 40 880 L 41 881 L 41 884 L 42 885 L 42 888 L 43 889 L 43 892 L 44 893 L 44 896 L 45 897 L 45 900 L 46 901 L 46 904 L 47 905 L 47 908 L 48 909 L 48 912 L 49 913 L 49 915 L 50 916 L 50 919 L 51 920 L 51 922 L 52 923 L 52 926 L 53 927 L 53 929 L 54 930 L 54 933 L 55 934 L 55 936 L 56 937 L 56 940 L 57 941 L 57 943 L 58 944 L 58 946 L 59 947 L 59 949 L 60 950 L 60 952 L 61 953 L 61 955 L 62 956 L 62 958 L 63 959 L 63 961 L 64 962 L 64 965 L 72 965 L 73 966 L 74 965 L 74 962 L 73 961 L 73 959 L 72 958 L 72 956 L 71 955 L 71 953 L 70 952 L 70 950 L 69 949 L 69 947 L 68 946 L 68 943 L 67 942 L 67 940 L 66 939 L 66 937 L 65 936 L 65 933 L 64 932 L 64 930 L 63 929 L 63 926 L 62 925 L 62 923 L 61 922 L 61 919 L 60 918 L 60 916 L 59 915 L 59 912 L 58 911 L 58 908 L 57 907 L 57 904 L 56 903 L 56 900 L 55 899 L 55 896 L 54 895 L 54 892 L 53 891 L 53 888 L 52 887 L 52 884 L 51 883 L 51 880 L 50 879 L 50 876 L 49 875 L 49 871 L 48 870 L 48 867 L 47 866 L 47 862 L 46 861 L 46 858 L 45 857 L 45 853 L 44 852 L 44 848 L 43 847 L 43 843 L 42 842 L 42 838 L 41 837 L 41 833 L 40 832 L 40 828 L 39 827 L 39 823 L 38 822 L 38 817 L 37 816 L 37 812 L 36 811 L 36 806 L 35 805 L 35 800 L 34 799 L 34 794 L 33 793 L 33 788 L 32 787 L 32 781 L 31 780 L 31 775 L 30 774 L 30 768 L 29 767 L 29 761 L 28 760 L 28 753 L 27 752 L 27 746 L 26 745 L 26 737 L 25 736 L 25 729 L 24 728 L 24 719 L 23 718 L 23 710 L 22 709 L 22 699 L 21 698 L 21 687 L 20 686 L 20 674 L 19 673 L 19 658 L 18 657 L 18 637 L 17 636 L 17 603 L 16 602 L 16 566 L 17 565 L 17 530 L 18 529 L 18 510 L 19 509 L 19 494 L 20 493 L 20 479 L 21 478 L 21 465 L 22 464 L 22 451 L 23 450 L 23 438 L 24 437 L 24 427 L 25 426 L 25 415 L 26 414 L 26 404 L 27 403 L 27 393 L 28 392 L 28 383 L 29 382 L 29 373 L 30 372 L 30 363 L 31 362 L 31 354 L 32 353 L 32 345 L 33 344 L 33 336 L 34 335 L 34 328 L 35 327 L 35 319 L 36 318 L 36 311 L 37 310 L 37 303 L 38 302 L 38 295 L 39 294 L 39 288 L 40 287 L 40 280 L 41 279 L 41 273 L 42 272 L 42 266 L 43 265 L 43 259 L 44 258 L 44 252 L 45 251 L 45 246 L 46 245 L 46 239 L 47 238 L 47 233 L 48 232 L 48 226 L 49 225 L 49 220 L 50 219 L 50 214 L 51 213 L 51 208 L 52 207 L 52 202 L 53 201 L 53 197 L 54 196 L 54 191 L 55 190 L 55 186 L 56 185 L 56 180 L 57 179 L 57 175 L 58 174 L 58 170 L 59 169 L 59 164 L 60 163 L 60 159 L 61 158 L 61 154 L 62 153 L 62 150 L 63 149 L 63 145 L 64 144 L 64 140 L 65 139 L 65 135 L 66 134 L 66 131 L 67 130 L 67 127 L 68 126 L 68 122 L 69 121 L 69 118 L 70 117 L 70 114 L 71 113 L 71 110 L 72 109 L 72 105 L 73 104 L 73 102 L 74 101 L 74 98 L 75 97 L 75 94 L 76 93 L 76 90 L 77 89 L 77 87 L 78 86 L 78 83 L 79 82 L 79 79 L 80 78 L 80 76 L 81 75 L 81 73 L 82 72 L 82 69 L 83 68 L 83 66 L 84 65 L 84 63 L 85 62 L 85 60 L 86 59 L 86 57 L 87 56 L 87 54 L 88 53 L 88 52 L 89 51 L 89 49 L 90 48 L 90 46 L 91 45 L 91 44 L 92 43 L 92 42 L 93 41 L 93 39 L 94 38 L 94 37 L 95 36 L 95 35 L 96 34 L 96 33 L 97 32 L 97 31 L 99 29 L 99 28 L 100 27 L 100 26 L 102 24 L 102 23 L 112 13 L 113 13 L 114 12 L 115 12 L 116 11 L 118 11 L 119 10 L 119 8 z" />
<path d="M 146 6 L 145 7 L 139 7 L 138 8 L 135 8 L 134 9 L 131 9 L 130 10 L 128 10 L 127 11 L 126 11 L 125 12 L 123 12 L 122 13 L 121 13 L 120 14 L 119 14 L 118 15 L 117 15 L 115 17 L 114 17 L 106 25 L 106 26 L 104 28 L 104 29 L 103 30 L 103 31 L 101 33 L 101 34 L 100 35 L 100 37 L 99 38 L 99 39 L 98 40 L 98 42 L 97 43 L 97 44 L 96 45 L 96 46 L 95 47 L 95 49 L 94 50 L 94 52 L 93 53 L 93 54 L 92 55 L 92 57 L 91 58 L 91 60 L 90 61 L 90 63 L 89 64 L 89 66 L 88 67 L 88 69 L 87 70 L 87 72 L 86 73 L 86 76 L 85 77 L 85 79 L 84 80 L 84 83 L 83 84 L 83 86 L 82 87 L 82 90 L 81 91 L 81 93 L 80 94 L 80 97 L 79 98 L 79 101 L 78 102 L 78 105 L 77 106 L 77 109 L 76 110 L 76 113 L 75 114 L 75 117 L 74 118 L 74 122 L 73 123 L 73 126 L 72 127 L 72 130 L 71 131 L 71 135 L 70 136 L 70 140 L 69 141 L 69 144 L 68 145 L 68 149 L 67 150 L 67 154 L 66 155 L 66 159 L 65 160 L 65 164 L 64 165 L 64 169 L 63 170 L 63 174 L 62 175 L 62 180 L 61 181 L 61 185 L 60 186 L 60 190 L 59 191 L 59 196 L 58 197 L 58 202 L 57 203 L 57 208 L 56 209 L 56 214 L 55 215 L 55 220 L 54 221 L 54 226 L 53 227 L 53 232 L 52 233 L 52 239 L 51 240 L 51 245 L 50 246 L 50 252 L 49 253 L 49 259 L 48 260 L 48 265 L 47 266 L 47 273 L 46 274 L 46 280 L 45 281 L 45 287 L 44 288 L 44 295 L 43 296 L 43 302 L 42 303 L 42 310 L 41 311 L 41 319 L 40 320 L 40 327 L 39 328 L 39 336 L 38 337 L 38 344 L 37 345 L 37 353 L 36 354 L 36 363 L 35 364 L 35 372 L 34 373 L 34 382 L 33 383 L 33 392 L 32 393 L 32 403 L 31 404 L 31 414 L 30 415 L 30 426 L 29 427 L 29 438 L 28 439 L 28 450 L 27 451 L 27 464 L 26 465 L 26 478 L 25 479 L 25 493 L 24 494 L 24 509 L 23 510 L 23 529 L 22 530 L 22 566 L 21 567 L 21 602 L 22 603 L 22 636 L 23 637 L 23 656 L 24 657 L 24 672 L 25 673 L 25 686 L 26 687 L 26 697 L 27 698 L 27 708 L 28 709 L 28 718 L 29 719 L 29 727 L 30 728 L 30 736 L 31 737 L 31 744 L 32 745 L 32 752 L 33 753 L 33 759 L 34 760 L 34 767 L 35 768 L 35 774 L 36 775 L 36 780 L 37 781 L 37 787 L 38 788 L 38 793 L 39 794 L 39 799 L 40 800 L 40 805 L 41 806 L 41 810 L 42 811 L 42 816 L 43 817 L 43 821 L 44 822 L 44 827 L 45 828 L 45 832 L 46 833 L 46 837 L 47 838 L 47 842 L 48 843 L 48 847 L 49 848 L 49 852 L 50 853 L 50 856 L 51 857 L 51 861 L 52 862 L 52 865 L 53 866 L 53 870 L 54 871 L 54 874 L 55 875 L 55 878 L 56 879 L 56 883 L 57 884 L 57 887 L 58 888 L 58 891 L 59 892 L 59 895 L 60 896 L 60 899 L 61 900 L 61 902 L 62 903 L 62 906 L 63 907 L 63 910 L 64 911 L 64 914 L 65 915 L 65 917 L 66 918 L 66 921 L 67 922 L 67 925 L 68 926 L 68 928 L 69 929 L 69 932 L 70 933 L 70 935 L 71 936 L 71 938 L 72 939 L 72 942 L 73 943 L 73 945 L 74 946 L 74 948 L 75 949 L 75 951 L 76 952 L 76 954 L 77 955 L 77 957 L 78 958 L 78 960 L 79 961 L 79 963 L 80 964 L 80 966 L 150 966 L 150 958 L 149 957 L 149 951 L 148 950 L 148 943 L 147 942 L 147 935 L 146 934 L 146 926 L 145 925 L 145 916 L 144 915 L 144 906 L 143 905 L 143 896 L 142 895 L 142 883 L 141 882 L 141 871 L 140 870 L 140 857 L 139 856 L 139 843 L 138 842 L 138 826 L 137 825 L 137 808 L 136 807 L 136 788 L 135 787 L 135 764 L 134 763 L 134 736 L 133 735 L 133 702 L 132 701 L 132 657 L 131 656 L 131 412 L 132 411 L 132 357 L 133 356 L 133 315 L 134 314 L 134 282 L 135 281 L 135 252 L 136 251 L 136 226 L 137 225 L 137 204 L 138 203 L 138 183 L 139 182 L 139 166 L 140 165 L 140 150 L 141 149 L 141 138 L 142 137 L 142 128 L 143 127 L 143 121 L 144 120 L 144 115 L 145 114 L 145 109 L 146 108 L 146 105 L 147 104 L 147 101 L 148 100 L 148 97 L 149 96 L 149 94 L 150 93 L 150 91 L 151 90 L 151 88 L 152 87 L 152 85 L 153 84 L 153 83 L 154 82 L 154 81 L 155 80 L 155 79 L 156 78 L 156 77 L 157 76 L 157 75 L 159 73 L 159 72 L 161 70 L 161 69 L 163 67 L 163 66 L 173 56 L 174 56 L 176 54 L 177 54 L 179 52 L 180 52 L 181 51 L 182 51 L 183 50 L 184 50 L 185 49 L 186 49 L 187 48 L 189 48 L 190 47 L 193 47 L 194 46 L 198 46 L 199 45 L 223 45 L 224 46 L 229 46 L 230 47 L 233 47 L 234 48 L 237 48 L 238 49 L 240 49 L 241 50 L 242 50 L 243 51 L 245 51 L 246 52 L 248 52 L 249 53 L 250 53 L 251 54 L 252 54 L 253 55 L 254 55 L 255 56 L 256 56 L 257 57 L 258 57 L 259 58 L 260 58 L 262 60 L 263 60 L 264 61 L 265 61 L 266 62 L 267 62 L 269 64 L 270 64 L 271 65 L 272 65 L 274 67 L 275 67 L 277 69 L 278 69 L 281 72 L 282 72 L 285 75 L 286 75 L 290 79 L 291 79 L 296 84 L 297 84 L 320 107 L 320 108 L 327 115 L 327 116 L 331 120 L 331 121 L 334 124 L 334 125 L 337 128 L 337 129 L 340 132 L 340 133 L 342 135 L 342 136 L 344 138 L 344 139 L 346 141 L 346 142 L 348 144 L 348 145 L 350 147 L 350 148 L 351 149 L 351 150 L 353 152 L 353 153 L 355 155 L 355 156 L 356 157 L 356 158 L 357 159 L 357 160 L 359 162 L 359 163 L 360 164 L 360 165 L 361 166 L 361 167 L 362 168 L 362 169 L 364 171 L 364 172 L 365 173 L 365 174 L 366 175 L 366 176 L 367 177 L 367 178 L 368 179 L 368 180 L 369 181 L 369 182 L 370 183 L 370 184 L 371 185 L 371 186 L 372 187 L 372 188 L 373 189 L 373 190 L 374 191 L 374 192 L 375 193 L 375 194 L 376 195 L 376 197 L 377 198 L 377 199 L 378 200 L 378 201 L 379 202 L 379 204 L 380 205 L 380 206 L 381 207 L 381 208 L 382 209 L 382 211 L 383 212 L 383 213 L 384 214 L 384 216 L 385 217 L 385 219 L 386 220 L 386 221 L 387 222 L 387 224 L 388 225 L 388 227 L 389 228 L 389 229 L 390 230 L 390 232 L 391 233 L 391 235 L 392 236 L 392 238 L 393 239 L 393 241 L 394 242 L 394 244 L 395 245 L 395 247 L 396 248 L 396 250 L 397 251 L 397 254 L 398 255 L 398 257 L 399 258 L 399 260 L 400 261 L 400 264 L 401 265 L 401 268 L 402 269 L 402 271 L 403 272 L 403 275 L 404 276 L 404 279 L 405 280 L 405 283 L 406 284 L 406 287 L 407 288 L 407 291 L 408 292 L 408 296 L 409 297 L 409 300 L 410 301 L 410 305 L 411 306 L 411 310 L 412 311 L 412 315 L 413 316 L 413 320 L 414 321 L 414 326 L 415 327 L 415 332 L 416 333 L 416 338 L 417 339 L 417 345 L 418 346 L 418 352 L 419 353 L 419 359 L 420 360 L 420 367 L 421 368 L 421 376 L 422 377 L 422 385 L 423 386 L 423 396 L 424 397 L 424 409 L 425 410 L 425 426 L 426 427 L 426 452 L 427 453 L 427 504 L 428 505 L 428 576 L 427 577 L 427 620 L 426 621 L 426 645 L 425 646 L 425 664 L 424 665 L 424 680 L 423 681 L 423 693 L 422 694 L 422 705 L 421 706 L 421 716 L 420 717 L 420 725 L 419 726 L 419 735 L 418 736 L 418 743 L 417 744 L 417 751 L 416 752 L 416 758 L 415 759 L 415 765 L 414 766 L 414 771 L 413 772 L 413 777 L 412 778 L 412 783 L 411 784 L 411 789 L 410 790 L 410 794 L 409 795 L 409 799 L 408 800 L 408 804 L 407 805 L 407 809 L 406 810 L 406 813 L 405 814 L 405 818 L 404 819 L 404 822 L 403 823 L 403 826 L 402 827 L 402 830 L 401 831 L 401 834 L 400 835 L 400 838 L 399 839 L 399 841 L 398 842 L 398 845 L 397 846 L 397 848 L 396 849 L 396 852 L 395 853 L 395 855 L 394 856 L 394 858 L 393 859 L 393 861 L 392 862 L 392 864 L 391 865 L 391 867 L 390 868 L 390 870 L 389 871 L 389 873 L 388 874 L 388 876 L 387 877 L 387 879 L 386 880 L 386 881 L 385 882 L 385 884 L 384 885 L 384 886 L 383 887 L 383 889 L 382 890 L 382 892 L 381 893 L 381 894 L 380 895 L 380 896 L 379 897 L 379 899 L 378 900 L 378 901 L 377 902 L 377 904 L 376 905 L 376 906 L 375 907 L 375 908 L 374 909 L 374 910 L 373 911 L 373 912 L 372 913 L 372 915 L 371 916 L 371 917 L 369 919 L 369 921 L 368 922 L 368 923 L 367 924 L 367 925 L 366 926 L 366 927 L 365 928 L 365 929 L 364 930 L 364 931 L 363 932 L 363 933 L 362 934 L 362 935 L 361 936 L 361 937 L 360 938 L 360 939 L 359 940 L 359 941 L 357 943 L 357 944 L 356 945 L 356 946 L 354 948 L 354 949 L 353 950 L 353 951 L 351 953 L 351 954 L 348 957 L 348 958 L 345 961 L 345 962 L 343 964 L 343 966 L 365 966 L 367 964 L 367 963 L 369 961 L 369 960 L 371 958 L 371 957 L 373 955 L 373 954 L 375 952 L 375 951 L 377 949 L 377 948 L 379 946 L 379 945 L 381 943 L 381 942 L 382 941 L 382 940 L 384 938 L 384 937 L 386 935 L 386 934 L 387 933 L 387 932 L 389 930 L 389 929 L 390 928 L 390 927 L 391 926 L 391 925 L 393 923 L 393 922 L 394 921 L 394 920 L 395 919 L 395 918 L 397 916 L 397 915 L 398 914 L 398 913 L 399 912 L 399 911 L 400 910 L 400 909 L 402 907 L 402 906 L 403 905 L 403 904 L 404 903 L 404 902 L 405 901 L 405 900 L 406 899 L 406 898 L 407 897 L 407 896 L 408 895 L 408 894 L 409 893 L 409 892 L 410 891 L 410 890 L 411 889 L 411 888 L 412 887 L 412 886 L 413 885 L 413 884 L 414 883 L 414 882 L 415 881 L 415 879 L 416 878 L 416 877 L 418 875 L 418 873 L 419 872 L 419 871 L 420 870 L 420 869 L 421 868 L 421 866 L 422 865 L 422 864 L 423 863 L 423 862 L 424 861 L 424 860 L 425 859 L 425 857 L 426 856 L 426 855 L 427 854 L 427 853 L 428 852 L 428 850 L 429 849 L 429 848 L 430 847 L 430 845 L 431 844 L 431 843 L 432 842 L 432 840 L 433 839 L 433 838 L 434 837 L 434 835 L 435 834 L 435 833 L 436 832 L 436 830 L 437 829 L 437 827 L 438 826 L 438 825 L 439 824 L 439 822 L 440 821 L 440 819 L 441 818 L 441 816 L 442 815 L 442 814 L 443 813 L 443 811 L 444 810 L 444 808 L 445 807 L 445 805 L 446 804 L 446 802 L 447 801 L 447 799 L 448 798 L 448 796 L 449 795 L 449 792 L 450 791 L 450 789 L 451 788 L 451 786 L 452 785 L 452 783 L 453 782 L 453 779 L 454 778 L 454 776 L 455 775 L 455 772 L 456 771 L 456 768 L 457 767 L 457 765 L 458 764 L 458 761 L 459 760 L 459 757 L 460 756 L 460 753 L 461 752 L 461 749 L 462 748 L 462 744 L 463 743 L 463 740 L 464 739 L 464 735 L 465 734 L 465 730 L 466 729 L 466 725 L 467 724 L 467 720 L 468 719 L 468 715 L 469 714 L 469 709 L 470 708 L 470 703 L 471 702 L 471 696 L 472 695 L 472 689 L 473 688 L 473 681 L 474 680 L 474 672 L 475 671 L 475 662 L 476 661 L 476 649 L 477 648 L 477 627 L 478 626 L 478 527 L 477 526 L 477 505 L 476 504 L 476 489 L 475 488 L 475 476 L 474 475 L 474 465 L 473 464 L 473 456 L 472 455 L 472 447 L 471 446 L 471 440 L 470 439 L 470 432 L 469 431 L 469 426 L 468 425 L 468 419 L 467 418 L 467 413 L 466 412 L 466 408 L 465 407 L 465 403 L 464 402 L 464 397 L 463 396 L 463 392 L 462 391 L 462 388 L 461 387 L 461 383 L 460 382 L 460 379 L 459 378 L 459 375 L 458 374 L 458 370 L 457 369 L 457 366 L 456 365 L 456 363 L 455 362 L 455 359 L 454 358 L 454 355 L 453 354 L 453 351 L 452 350 L 452 348 L 451 347 L 451 344 L 450 343 L 450 341 L 449 340 L 449 338 L 448 337 L 448 335 L 447 334 L 447 331 L 446 330 L 446 328 L 445 327 L 445 325 L 444 324 L 444 322 L 443 321 L 443 319 L 442 318 L 442 316 L 441 315 L 441 313 L 440 312 L 440 311 L 439 310 L 439 308 L 438 307 L 438 305 L 437 304 L 437 302 L 436 301 L 436 300 L 435 299 L 435 297 L 434 296 L 434 294 L 433 293 L 433 292 L 432 291 L 432 289 L 431 288 L 431 287 L 430 286 L 430 284 L 429 283 L 429 282 L 428 281 L 428 279 L 427 278 L 427 277 L 426 276 L 426 274 L 425 273 L 425 272 L 424 271 L 424 269 L 423 268 L 423 267 L 422 266 L 422 265 L 421 264 L 421 262 L 420 261 L 420 260 L 419 259 L 419 258 L 418 257 L 418 256 L 417 255 L 417 253 L 416 252 L 416 251 L 415 250 L 415 249 L 414 248 L 414 247 L 413 246 L 413 245 L 412 244 L 412 242 L 411 241 L 411 240 L 410 239 L 410 238 L 409 237 L 409 236 L 408 235 L 408 233 L 407 232 L 407 231 L 406 230 L 406 229 L 405 228 L 405 227 L 404 226 L 404 225 L 403 224 L 403 223 L 402 222 L 402 221 L 401 220 L 401 219 L 400 218 L 400 217 L 399 216 L 399 215 L 398 214 L 398 213 L 397 212 L 397 211 L 396 210 L 396 209 L 395 208 L 395 207 L 394 206 L 394 205 L 393 204 L 393 203 L 392 202 L 392 201 L 391 200 L 391 199 L 390 198 L 390 197 L 389 196 L 389 195 L 388 194 L 388 193 L 386 191 L 386 190 L 385 189 L 385 188 L 384 187 L 384 186 L 383 185 L 383 184 L 382 183 L 382 182 L 381 181 L 381 180 L 380 179 L 380 178 L 378 176 L 378 175 L 377 174 L 377 173 L 376 172 L 376 171 L 375 170 L 375 169 L 374 168 L 374 167 L 372 165 L 372 164 L 371 163 L 371 162 L 370 161 L 370 160 L 369 159 L 369 158 L 367 156 L 367 155 L 366 154 L 366 153 L 364 151 L 364 150 L 363 149 L 363 148 L 361 146 L 361 145 L 360 144 L 360 143 L 358 141 L 358 140 L 356 138 L 356 137 L 354 135 L 354 134 L 352 132 L 352 131 L 350 129 L 350 128 L 348 126 L 348 125 L 346 123 L 346 122 L 343 119 L 343 118 L 340 115 L 340 114 L 337 111 L 337 110 L 333 106 L 333 105 L 329 101 L 329 100 L 323 94 L 323 93 L 295 65 L 294 65 L 288 59 L 287 59 L 282 54 L 281 54 L 278 51 L 277 51 L 274 48 L 273 48 L 270 45 L 269 45 L 267 43 L 266 43 L 264 41 L 263 41 L 261 39 L 260 39 L 259 38 L 258 38 L 256 36 L 255 36 L 254 35 L 253 35 L 251 33 L 250 33 L 249 32 L 248 32 L 247 31 L 246 31 L 244 29 L 243 29 L 242 28 L 241 28 L 240 27 L 238 27 L 236 25 L 235 25 L 234 24 L 232 24 L 231 23 L 230 23 L 229 22 L 228 22 L 227 21 L 225 21 L 224 20 L 223 20 L 222 19 L 221 19 L 220 18 L 218 18 L 217 17 L 215 17 L 214 16 L 213 16 L 212 15 L 210 15 L 209 14 L 207 14 L 206 13 L 203 13 L 202 12 L 200 12 L 199 11 L 196 11 L 195 10 L 192 10 L 191 9 L 187 9 L 186 8 L 181 8 L 180 7 L 174 7 L 173 6 z" />
<g id="2">
<path d="M 164 953 L 165 952 L 280 952 L 281 953 L 328 953 L 329 954 L 328 955 L 327 955 L 316 966 L 168 966 L 166 964 L 166 961 L 165 960 L 165 956 L 164 955 z" />
<path d="M 163 930 L 193 930 L 194 931 L 343 931 L 344 932 L 344 933 L 343 934 L 343 935 L 342 936 L 342 937 L 340 939 L 340 940 L 337 943 L 337 944 L 333 948 L 281 948 L 280 947 L 165 947 L 163 945 L 163 941 L 162 940 L 162 933 L 161 932 z" />
<path d="M 161 909 L 243 909 L 244 910 L 354 910 L 355 911 L 355 912 L 354 913 L 354 914 L 353 915 L 353 917 L 352 918 L 352 919 L 351 920 L 351 921 L 350 922 L 350 923 L 347 926 L 194 926 L 193 925 L 162 925 L 160 923 L 160 916 L 159 915 L 159 911 z" />
<path d="M 159 887 L 179 887 L 180 888 L 311 888 L 312 889 L 364 889 L 365 890 L 364 891 L 364 892 L 363 893 L 363 895 L 362 896 L 362 897 L 361 898 L 361 899 L 360 900 L 360 901 L 359 902 L 359 903 L 357 905 L 244 905 L 243 904 L 160 904 L 158 902 L 158 896 L 157 895 L 157 889 z" />
<path d="M 157 866 L 198 866 L 199 867 L 363 867 L 364 868 L 371 868 L 372 867 L 373 868 L 373 870 L 372 871 L 372 872 L 371 873 L 371 875 L 370 876 L 370 878 L 369 879 L 369 880 L 368 881 L 368 882 L 366 884 L 312 884 L 311 883 L 180 883 L 179 882 L 157 882 L 156 881 L 156 872 L 155 871 L 155 868 z" />
<path d="M 154 846 L 155 845 L 277 845 L 278 846 L 379 846 L 380 847 L 380 849 L 379 850 L 379 852 L 378 853 L 378 855 L 377 856 L 377 858 L 376 859 L 376 861 L 374 863 L 364 863 L 363 862 L 199 862 L 198 861 L 156 861 L 155 860 L 155 859 L 154 858 z" />
<path d="M 154 823 L 178 823 L 179 824 L 309 824 L 310 825 L 385 825 L 386 826 L 386 828 L 385 829 L 385 832 L 384 833 L 384 835 L 383 836 L 383 839 L 381 841 L 278 841 L 277 840 L 155 840 L 153 838 L 153 829 L 152 828 L 152 825 z" />
<path d="M 151 803 L 152 802 L 245 802 L 246 803 L 376 803 L 377 804 L 390 804 L 391 805 L 391 807 L 390 808 L 390 812 L 389 813 L 389 816 L 388 817 L 388 818 L 386 820 L 310 820 L 309 819 L 174 819 L 173 818 L 153 818 L 152 817 L 152 812 L 151 811 z" />
<path d="M 150 782 L 151 781 L 275 781 L 276 782 L 394 782 L 395 783 L 395 788 L 394 789 L 394 793 L 393 794 L 393 797 L 391 799 L 377 799 L 376 798 L 246 798 L 245 797 L 152 797 L 151 796 L 151 792 L 150 791 z" />
<path d="M 151 759 L 196 759 L 197 760 L 358 760 L 359 761 L 398 761 L 399 762 L 399 765 L 398 766 L 398 771 L 397 772 L 397 776 L 396 777 L 276 777 L 275 776 L 152 776 L 150 774 L 150 770 L 149 769 L 149 761 z" />
<path d="M 150 738 L 274 738 L 275 739 L 400 739 L 402 741 L 402 744 L 401 745 L 401 752 L 400 753 L 400 754 L 398 756 L 359 756 L 358 755 L 197 755 L 196 754 L 150 754 L 149 753 L 149 744 L 148 743 L 148 740 z" />
<path d="M 148 717 L 149 716 L 176 716 L 177 717 L 305 717 L 306 718 L 403 718 L 404 719 L 404 728 L 403 729 L 403 733 L 402 734 L 275 734 L 274 733 L 150 733 L 148 731 z" />
<path d="M 147 696 L 148 695 L 238 695 L 239 696 L 370 696 L 371 697 L 405 697 L 406 698 L 406 709 L 405 710 L 405 712 L 404 713 L 306 713 L 305 712 L 177 712 L 176 711 L 149 711 L 147 709 z" />
<path d="M 147 675 L 148 674 L 272 674 L 273 675 L 407 675 L 408 676 L 408 686 L 407 687 L 407 690 L 405 692 L 371 692 L 370 691 L 243 691 L 242 690 L 149 690 L 147 688 z" />
<path d="M 148 652 L 194 652 L 195 653 L 353 653 L 354 654 L 408 654 L 409 655 L 409 669 L 408 670 L 273 670 L 272 669 L 148 669 L 146 667 L 146 654 z" />
<path d="M 146 632 L 147 631 L 241 631 L 242 632 L 367 632 L 368 633 L 409 633 L 411 635 L 410 636 L 410 647 L 408 649 L 354 649 L 353 648 L 195 648 L 194 647 L 147 647 L 146 646 z" />
<path d="M 146 610 L 147 609 L 175 609 L 176 610 L 301 610 L 302 611 L 410 611 L 411 612 L 411 626 L 409 628 L 368 628 L 367 627 L 242 627 L 241 626 L 148 626 L 146 624 z" />
<path d="M 147 588 L 193 588 L 194 589 L 350 589 L 351 590 L 411 590 L 412 591 L 412 605 L 411 606 L 302 606 L 301 605 L 176 605 L 175 604 L 147 604 L 146 603 L 146 600 L 145 599 L 145 590 z" />
<path d="M 145 568 L 146 567 L 268 567 L 269 568 L 411 568 L 412 569 L 412 583 L 410 585 L 351 585 L 350 584 L 194 584 L 193 583 L 147 583 L 145 581 z" />
<path d="M 147 545 L 174 545 L 175 546 L 298 546 L 299 547 L 411 547 L 412 548 L 412 562 L 411 563 L 269 563 L 268 562 L 147 562 L 145 560 L 145 547 z" />
<path d="M 145 525 L 146 524 L 238 524 L 239 525 L 362 525 L 363 526 L 411 526 L 412 527 L 412 540 L 413 541 L 412 542 L 299 542 L 298 541 L 175 541 L 174 540 L 146 540 L 145 539 z" />
<path d="M 145 504 L 146 503 L 266 503 L 267 504 L 411 504 L 412 505 L 412 520 L 411 521 L 363 521 L 362 520 L 239 520 L 238 519 L 147 519 L 145 517 z" />
<path d="M 147 481 L 186 481 L 187 482 L 344 482 L 345 483 L 410 483 L 412 485 L 412 498 L 411 499 L 267 499 L 266 498 L 147 498 L 145 496 L 145 483 z" />
<path d="M 146 461 L 147 460 L 265 460 L 266 461 L 410 461 L 412 463 L 412 476 L 410 478 L 345 478 L 344 477 L 192 477 L 191 476 L 147 476 L 145 474 L 145 465 L 146 464 z" />
<path d="M 148 438 L 172 438 L 173 439 L 294 439 L 295 440 L 409 440 L 411 442 L 411 455 L 410 456 L 266 456 L 265 455 L 147 455 L 146 454 L 146 440 z" />
<path d="M 146 418 L 147 417 L 235 417 L 236 418 L 356 418 L 357 419 L 408 419 L 410 421 L 410 430 L 411 431 L 411 434 L 410 435 L 295 435 L 294 434 L 173 434 L 172 433 L 147 433 L 146 432 z" />
<path d="M 148 396 L 262 396 L 263 397 L 407 397 L 408 398 L 408 399 L 409 400 L 409 413 L 408 414 L 357 414 L 356 413 L 236 413 L 235 412 L 148 412 L 146 410 L 146 398 z" />
<path d="M 149 374 L 189 374 L 190 375 L 339 375 L 340 376 L 405 376 L 406 377 L 406 378 L 407 379 L 407 388 L 408 389 L 408 391 L 407 392 L 269 392 L 268 391 L 148 391 L 147 390 L 147 376 z" />
<path d="M 147 354 L 148 353 L 233 353 L 234 354 L 353 354 L 354 355 L 403 355 L 404 356 L 404 361 L 405 362 L 405 370 L 404 371 L 340 371 L 339 370 L 190 370 L 189 369 L 148 369 L 147 368 z" />
<path d="M 148 332 L 149 331 L 171 331 L 172 332 L 290 332 L 291 333 L 399 333 L 401 335 L 401 341 L 402 342 L 402 347 L 403 348 L 401 350 L 354 350 L 353 349 L 234 349 L 233 348 L 149 348 L 147 346 L 147 342 L 148 341 z" />
<path d="M 150 310 L 188 310 L 189 311 L 336 311 L 337 312 L 395 312 L 397 314 L 397 318 L 398 319 L 398 323 L 399 324 L 399 327 L 398 328 L 291 328 L 290 327 L 172 327 L 171 326 L 149 326 L 148 325 L 148 312 z" />
<path d="M 149 290 L 150 289 L 259 289 L 260 290 L 390 290 L 392 292 L 392 294 L 393 295 L 393 299 L 394 300 L 394 303 L 395 304 L 395 305 L 393 307 L 337 307 L 336 306 L 189 306 L 188 305 L 150 305 L 148 303 L 149 302 z" />
<path d="M 150 268 L 151 267 L 170 267 L 171 268 L 288 268 L 289 269 L 385 269 L 386 270 L 386 271 L 387 272 L 387 274 L 388 275 L 388 278 L 389 279 L 389 282 L 390 283 L 390 284 L 389 285 L 260 285 L 259 284 L 151 284 L 149 282 L 149 271 L 150 270 z" />
<path d="M 152 246 L 230 246 L 231 247 L 347 247 L 348 248 L 379 248 L 380 249 L 380 250 L 381 251 L 381 254 L 382 255 L 382 257 L 383 258 L 383 260 L 384 261 L 384 263 L 383 264 L 289 264 L 288 263 L 171 263 L 170 262 L 151 262 L 150 261 L 150 248 z" />
<path d="M 151 226 L 152 225 L 257 225 L 258 226 L 371 226 L 373 228 L 373 230 L 374 231 L 374 233 L 375 234 L 375 236 L 376 237 L 376 238 L 377 239 L 377 242 L 376 243 L 348 243 L 347 242 L 231 242 L 230 241 L 152 241 L 151 240 z" />
<path d="M 154 203 L 186 203 L 187 204 L 331 204 L 332 205 L 362 205 L 364 207 L 364 208 L 365 209 L 365 210 L 366 211 L 366 212 L 367 213 L 367 215 L 368 216 L 368 217 L 369 218 L 369 220 L 368 221 L 258 221 L 257 220 L 153 220 L 151 218 L 152 217 L 152 205 z" />
<path d="M 155 182 L 229 182 L 230 183 L 344 183 L 345 184 L 352 184 L 355 187 L 355 188 L 356 189 L 356 190 L 357 191 L 357 192 L 358 193 L 358 194 L 359 195 L 359 196 L 360 197 L 360 199 L 359 200 L 332 200 L 331 199 L 187 199 L 186 198 L 154 198 L 153 197 L 153 184 z" />
<path d="M 155 158 L 156 157 L 248 157 L 249 158 L 337 158 L 341 162 L 341 163 L 342 164 L 342 165 L 344 167 L 344 168 L 345 169 L 345 170 L 346 171 L 346 172 L 348 174 L 348 175 L 349 176 L 349 178 L 348 179 L 345 179 L 344 178 L 230 178 L 229 177 L 155 177 L 154 176 L 154 165 L 155 164 z" />
<path d="M 209 66 L 210 65 L 222 65 L 223 66 L 228 66 L 229 67 L 233 67 L 234 68 L 236 68 L 237 69 L 239 69 L 240 70 L 242 70 L 243 71 L 244 71 L 245 72 L 247 72 L 248 73 L 249 73 L 250 74 L 251 74 L 252 75 L 253 75 L 254 76 L 255 76 L 256 77 L 257 77 L 258 78 L 259 78 L 261 80 L 262 80 L 263 81 L 264 81 L 266 83 L 267 83 L 269 85 L 270 85 L 272 87 L 273 87 L 276 90 L 277 90 L 280 93 L 281 93 L 285 97 L 286 97 L 294 105 L 295 105 L 305 115 L 305 116 L 314 125 L 314 126 L 319 131 L 319 132 L 322 135 L 322 136 L 325 139 L 325 140 L 328 143 L 328 144 L 330 146 L 330 147 L 333 150 L 333 151 L 332 152 L 246 152 L 245 151 L 158 151 L 157 152 L 156 151 L 156 142 L 157 141 L 157 136 L 158 135 L 158 129 L 159 128 L 159 124 L 160 123 L 160 120 L 161 119 L 161 116 L 162 115 L 162 112 L 163 111 L 163 109 L 164 108 L 164 106 L 165 105 L 165 103 L 166 102 L 166 101 L 167 100 L 167 99 L 168 98 L 168 96 L 169 95 L 169 94 L 171 92 L 171 91 L 172 90 L 172 89 L 174 87 L 174 86 L 187 73 L 188 73 L 189 72 L 190 72 L 192 70 L 194 70 L 195 69 L 196 69 L 197 68 L 199 68 L 200 67 L 203 67 L 204 66 z" />
<path d="M 198 51 L 199 50 L 223 50 L 224 51 L 228 51 L 229 52 L 232 52 L 233 53 L 236 53 L 237 54 L 239 54 L 240 55 L 242 55 L 243 56 L 244 56 L 245 57 L 247 57 L 248 58 L 249 58 L 250 59 L 251 59 L 252 60 L 253 60 L 254 61 L 255 61 L 256 62 L 257 62 L 259 64 L 260 64 L 261 65 L 262 65 L 263 66 L 264 66 L 266 68 L 267 68 L 269 70 L 270 70 L 271 71 L 272 71 L 274 73 L 275 73 L 278 76 L 279 76 L 282 79 L 283 79 L 287 83 L 288 83 L 293 88 L 294 88 L 316 110 L 316 111 L 323 118 L 323 119 L 327 123 L 327 124 L 330 127 L 330 128 L 333 131 L 333 132 L 336 135 L 336 136 L 338 138 L 338 139 L 340 141 L 340 142 L 342 144 L 342 145 L 344 147 L 344 148 L 346 150 L 346 151 L 347 152 L 347 153 L 349 155 L 349 156 L 350 157 L 350 158 L 352 160 L 352 161 L 353 162 L 353 163 L 355 165 L 355 166 L 356 167 L 356 168 L 357 169 L 357 170 L 358 171 L 358 172 L 359 173 L 359 174 L 361 176 L 361 177 L 362 178 L 362 179 L 363 180 L 363 181 L 364 182 L 364 183 L 365 184 L 365 185 L 366 186 L 366 187 L 367 188 L 367 190 L 369 192 L 369 193 L 370 194 L 370 196 L 371 197 L 371 198 L 372 199 L 372 200 L 373 201 L 373 202 L 374 203 L 374 205 L 375 206 L 375 207 L 376 208 L 376 209 L 377 210 L 377 212 L 378 213 L 378 214 L 379 215 L 379 217 L 380 218 L 380 219 L 381 220 L 381 222 L 382 223 L 382 225 L 383 226 L 383 227 L 384 228 L 384 230 L 385 231 L 385 233 L 386 234 L 386 236 L 387 237 L 387 239 L 388 240 L 388 242 L 389 243 L 389 245 L 390 246 L 390 248 L 391 249 L 391 251 L 392 252 L 392 254 L 393 255 L 393 258 L 394 259 L 394 261 L 395 262 L 395 265 L 396 266 L 396 268 L 397 269 L 397 272 L 398 273 L 398 276 L 399 277 L 399 280 L 400 281 L 400 284 L 401 285 L 401 288 L 402 289 L 402 292 L 403 293 L 403 296 L 404 297 L 404 301 L 405 302 L 405 306 L 406 307 L 406 311 L 407 312 L 407 316 L 408 317 L 408 321 L 409 322 L 409 326 L 410 327 L 410 332 L 411 333 L 411 338 L 412 339 L 412 345 L 413 346 L 413 352 L 414 353 L 414 359 L 415 360 L 415 367 L 416 368 L 416 376 L 417 377 L 417 386 L 418 387 L 418 397 L 419 398 L 419 409 L 420 410 L 420 426 L 421 427 L 421 452 L 422 453 L 422 504 L 423 505 L 423 576 L 422 577 L 422 620 L 421 621 L 421 645 L 420 646 L 420 664 L 419 665 L 419 680 L 418 681 L 418 693 L 417 694 L 417 705 L 416 706 L 416 716 L 415 717 L 415 725 L 414 726 L 414 734 L 413 735 L 413 742 L 412 743 L 412 750 L 411 751 L 411 757 L 410 758 L 410 764 L 409 765 L 409 771 L 408 772 L 408 777 L 407 778 L 407 783 L 406 784 L 406 788 L 405 789 L 405 794 L 404 795 L 404 799 L 403 800 L 403 804 L 402 805 L 402 808 L 401 809 L 401 813 L 400 814 L 400 817 L 399 818 L 399 821 L 398 822 L 398 825 L 397 826 L 397 829 L 396 830 L 396 833 L 395 834 L 395 837 L 394 838 L 394 841 L 393 842 L 393 844 L 392 845 L 392 848 L 391 849 L 391 851 L 390 852 L 390 854 L 389 855 L 389 857 L 388 858 L 388 860 L 387 861 L 387 863 L 386 864 L 386 866 L 385 867 L 385 869 L 384 870 L 384 872 L 383 873 L 383 875 L 382 876 L 382 878 L 381 879 L 381 880 L 380 881 L 380 883 L 379 884 L 379 886 L 378 887 L 378 888 L 377 889 L 377 891 L 376 892 L 376 893 L 375 894 L 375 895 L 374 896 L 374 898 L 373 899 L 373 900 L 372 901 L 372 902 L 371 903 L 371 905 L 370 906 L 370 907 L 369 908 L 369 909 L 368 910 L 368 911 L 367 912 L 367 914 L 365 916 L 365 917 L 364 918 L 364 919 L 363 920 L 363 922 L 362 923 L 362 924 L 361 925 L 361 926 L 360 927 L 360 928 L 359 929 L 359 930 L 357 932 L 357 933 L 356 934 L 356 935 L 355 936 L 355 937 L 354 938 L 354 939 L 353 940 L 353 941 L 352 942 L 352 943 L 350 945 L 350 946 L 349 947 L 349 948 L 347 950 L 347 951 L 344 954 L 344 955 L 341 958 L 341 959 L 334 966 L 326 966 L 325 965 L 326 964 L 327 964 L 333 958 L 333 957 L 339 951 L 339 950 L 342 947 L 342 946 L 345 943 L 345 942 L 347 940 L 347 939 L 348 938 L 348 937 L 350 935 L 350 934 L 351 933 L 351 932 L 352 931 L 352 930 L 353 929 L 353 928 L 354 927 L 354 926 L 355 925 L 355 924 L 356 923 L 356 922 L 357 921 L 357 920 L 358 919 L 358 918 L 359 917 L 359 916 L 360 915 L 360 913 L 361 912 L 361 911 L 362 910 L 362 909 L 363 908 L 363 906 L 364 905 L 364 904 L 365 903 L 365 902 L 366 901 L 366 900 L 367 899 L 367 897 L 368 896 L 368 895 L 369 894 L 369 893 L 370 892 L 370 890 L 371 889 L 371 888 L 372 887 L 372 885 L 373 884 L 373 883 L 374 882 L 374 880 L 375 879 L 375 877 L 376 876 L 376 875 L 377 874 L 377 872 L 378 871 L 378 869 L 379 868 L 379 866 L 380 865 L 380 863 L 381 862 L 381 861 L 382 860 L 382 857 L 383 856 L 383 854 L 384 853 L 384 851 L 385 850 L 385 848 L 386 847 L 386 845 L 387 844 L 387 841 L 388 840 L 388 838 L 389 837 L 389 834 L 390 833 L 390 830 L 391 829 L 391 826 L 392 825 L 392 822 L 393 821 L 393 818 L 394 817 L 394 814 L 395 813 L 395 810 L 396 809 L 396 805 L 397 804 L 397 800 L 398 799 L 398 795 L 399 794 L 399 790 L 400 789 L 400 785 L 401 784 L 401 779 L 402 778 L 402 774 L 403 773 L 403 767 L 404 766 L 404 761 L 405 760 L 405 754 L 406 753 L 406 747 L 407 746 L 407 739 L 408 738 L 408 730 L 409 729 L 409 721 L 410 720 L 410 711 L 411 710 L 411 700 L 412 699 L 412 688 L 413 687 L 413 674 L 414 673 L 414 658 L 415 657 L 415 638 L 416 637 L 416 610 L 417 609 L 417 541 L 418 540 L 418 530 L 417 529 L 417 455 L 416 454 L 416 428 L 415 427 L 415 412 L 414 411 L 414 398 L 413 397 L 413 387 L 412 386 L 412 377 L 411 376 L 411 369 L 410 368 L 410 361 L 409 360 L 409 353 L 408 352 L 408 346 L 407 345 L 407 340 L 406 339 L 406 334 L 405 333 L 405 328 L 404 327 L 404 322 L 403 321 L 403 317 L 402 316 L 402 312 L 401 311 L 401 307 L 400 306 L 400 302 L 399 301 L 399 298 L 398 297 L 398 294 L 397 293 L 397 289 L 396 288 L 396 285 L 395 284 L 395 281 L 394 280 L 394 277 L 393 276 L 393 274 L 392 273 L 392 270 L 391 269 L 391 266 L 390 265 L 390 263 L 389 262 L 389 259 L 388 258 L 388 256 L 387 255 L 387 253 L 386 252 L 386 250 L 385 249 L 385 247 L 384 246 L 384 244 L 383 243 L 383 241 L 382 240 L 382 238 L 381 237 L 381 235 L 380 234 L 380 232 L 379 231 L 379 229 L 378 228 L 378 227 L 377 226 L 377 224 L 376 223 L 376 221 L 375 220 L 375 219 L 374 218 L 374 216 L 373 215 L 373 214 L 372 213 L 372 212 L 371 211 L 371 209 L 370 208 L 370 207 L 369 206 L 369 204 L 368 203 L 368 202 L 367 201 L 367 200 L 366 199 L 366 198 L 365 197 L 365 196 L 364 195 L 364 193 L 363 192 L 363 191 L 362 190 L 362 189 L 361 188 L 361 187 L 360 186 L 360 185 L 359 184 L 359 183 L 358 182 L 358 181 L 357 180 L 357 179 L 356 178 L 356 177 L 355 176 L 355 175 L 354 174 L 354 173 L 352 171 L 352 170 L 351 169 L 351 168 L 350 167 L 350 166 L 349 165 L 349 164 L 347 162 L 347 161 L 346 160 L 346 159 L 344 157 L 344 156 L 342 154 L 342 153 L 341 152 L 341 151 L 339 149 L 339 148 L 336 145 L 336 144 L 334 142 L 334 141 L 332 139 L 332 138 L 329 135 L 329 134 L 326 131 L 326 130 L 323 127 L 323 126 L 317 120 L 317 119 L 309 111 L 309 110 L 300 101 L 299 101 L 291 93 L 290 93 L 286 89 L 285 89 L 282 86 L 281 86 L 278 83 L 277 83 L 275 81 L 274 81 L 272 79 L 271 79 L 269 77 L 268 77 L 267 76 L 266 76 L 264 74 L 263 74 L 262 73 L 261 73 L 260 72 L 259 72 L 258 71 L 257 71 L 256 70 L 255 70 L 254 69 L 252 69 L 251 68 L 250 68 L 249 67 L 248 67 L 247 66 L 245 66 L 244 65 L 242 65 L 241 64 L 239 64 L 238 63 L 236 63 L 235 62 L 231 62 L 230 61 L 224 61 L 223 60 L 208 60 L 207 61 L 202 61 L 201 62 L 198 62 L 197 63 L 195 63 L 194 64 L 192 64 L 191 65 L 189 65 L 188 66 L 187 66 L 185 68 L 184 68 L 182 70 L 181 70 L 171 80 L 171 81 L 168 84 L 168 85 L 167 86 L 167 87 L 165 89 L 165 90 L 164 91 L 164 92 L 163 93 L 163 95 L 162 96 L 162 97 L 161 98 L 161 100 L 160 101 L 160 103 L 159 104 L 159 106 L 158 107 L 158 109 L 157 110 L 157 113 L 156 114 L 156 117 L 155 118 L 155 121 L 154 122 L 154 127 L 153 128 L 153 133 L 152 134 L 152 140 L 151 141 L 151 149 L 150 150 L 150 162 L 149 163 L 149 178 L 148 179 L 148 196 L 147 197 L 147 216 L 146 217 L 146 240 L 145 241 L 145 266 L 144 267 L 144 299 L 143 300 L 143 337 L 142 338 L 142 384 L 141 385 L 141 458 L 140 459 L 140 610 L 141 611 L 141 674 L 142 675 L 142 714 L 143 715 L 143 745 L 144 746 L 144 771 L 145 772 L 145 793 L 146 794 L 146 813 L 147 814 L 147 829 L 148 830 L 148 845 L 149 846 L 149 859 L 150 860 L 150 873 L 151 874 L 151 885 L 152 886 L 152 896 L 153 897 L 153 906 L 154 907 L 154 916 L 155 917 L 155 925 L 156 926 L 156 934 L 157 935 L 157 942 L 158 943 L 158 949 L 159 950 L 159 956 L 160 957 L 160 962 L 161 963 L 161 965 L 160 966 L 157 966 L 155 964 L 155 958 L 154 957 L 154 951 L 153 950 L 153 943 L 152 942 L 152 934 L 151 933 L 151 926 L 150 925 L 150 916 L 149 915 L 149 906 L 148 905 L 148 895 L 147 894 L 147 883 L 146 882 L 146 871 L 145 870 L 145 857 L 144 856 L 144 843 L 143 842 L 143 826 L 142 825 L 142 808 L 141 807 L 141 788 L 140 787 L 140 764 L 139 763 L 139 736 L 138 735 L 138 702 L 137 701 L 137 657 L 136 656 L 136 412 L 137 411 L 137 357 L 138 356 L 138 315 L 139 314 L 139 282 L 140 281 L 140 252 L 141 251 L 141 226 L 142 225 L 142 204 L 143 203 L 143 183 L 144 182 L 144 166 L 145 165 L 145 151 L 146 150 L 146 138 L 147 137 L 147 128 L 148 127 L 148 121 L 149 120 L 149 115 L 150 114 L 150 110 L 151 109 L 151 105 L 152 104 L 152 101 L 153 100 L 153 98 L 154 97 L 154 95 L 155 94 L 155 92 L 156 91 L 156 89 L 157 88 L 157 86 L 158 85 L 158 84 L 159 83 L 159 82 L 160 81 L 160 80 L 162 78 L 162 77 L 163 76 L 163 75 L 165 73 L 165 72 L 167 70 L 167 69 L 176 60 L 177 60 L 179 58 L 180 58 L 182 56 L 183 56 L 184 55 L 185 55 L 186 54 L 187 54 L 188 53 L 190 53 L 191 52 L 194 52 L 195 51 z" />
<path d="M 117 9 L 118 8 L 119 9 L 119 10 L 118 11 L 116 11 L 115 12 L 114 12 L 113 13 L 112 13 L 111 14 L 110 14 L 102 22 L 102 23 L 100 25 L 100 26 L 99 27 L 99 28 L 97 30 L 97 31 L 96 32 L 96 33 L 95 34 L 95 35 L 94 36 L 94 38 L 93 39 L 93 41 L 92 42 L 92 43 L 91 44 L 91 45 L 90 46 L 90 48 L 89 49 L 89 51 L 88 52 L 88 53 L 87 54 L 87 56 L 86 57 L 86 59 L 85 60 L 85 62 L 84 63 L 84 65 L 83 66 L 83 68 L 82 69 L 82 72 L 81 73 L 81 75 L 80 76 L 80 78 L 79 79 L 79 82 L 78 83 L 78 86 L 77 87 L 77 89 L 76 90 L 76 93 L 75 94 L 75 97 L 74 98 L 74 101 L 73 102 L 73 104 L 72 105 L 72 109 L 71 110 L 71 113 L 70 114 L 70 117 L 69 118 L 69 121 L 68 122 L 68 126 L 67 127 L 67 130 L 66 131 L 66 134 L 65 135 L 65 139 L 64 140 L 64 144 L 63 145 L 63 149 L 62 150 L 62 153 L 61 154 L 61 158 L 60 159 L 60 163 L 59 164 L 59 169 L 58 170 L 58 174 L 57 175 L 57 179 L 56 180 L 56 185 L 55 186 L 55 190 L 54 191 L 54 196 L 53 197 L 53 201 L 52 202 L 52 207 L 51 208 L 51 213 L 50 214 L 50 219 L 49 220 L 49 225 L 48 226 L 48 232 L 47 233 L 47 238 L 46 239 L 46 245 L 45 246 L 45 251 L 44 252 L 44 258 L 43 259 L 43 265 L 42 266 L 42 272 L 41 273 L 41 279 L 40 280 L 40 287 L 39 288 L 39 294 L 38 295 L 38 302 L 37 303 L 37 310 L 36 311 L 36 318 L 35 319 L 35 327 L 34 328 L 34 335 L 33 336 L 33 344 L 32 345 L 32 353 L 31 354 L 31 362 L 30 363 L 30 372 L 29 373 L 29 382 L 28 383 L 28 392 L 27 393 L 27 403 L 26 404 L 26 414 L 25 415 L 25 426 L 24 427 L 24 437 L 23 438 L 23 450 L 22 451 L 22 464 L 21 465 L 21 478 L 20 479 L 20 493 L 19 494 L 19 509 L 18 510 L 18 529 L 17 530 L 17 565 L 16 566 L 16 602 L 17 603 L 17 636 L 18 637 L 18 657 L 19 658 L 19 673 L 20 674 L 20 686 L 21 687 L 21 698 L 22 699 L 22 709 L 23 710 L 23 718 L 24 719 L 24 728 L 25 729 L 25 736 L 26 737 L 26 745 L 27 746 L 27 752 L 28 753 L 28 760 L 29 761 L 29 767 L 30 768 L 30 774 L 31 775 L 31 780 L 32 781 L 32 787 L 33 788 L 33 793 L 34 794 L 34 799 L 35 800 L 35 805 L 36 806 L 36 811 L 37 812 L 37 816 L 38 817 L 38 822 L 39 823 L 39 827 L 40 828 L 40 832 L 41 833 L 41 837 L 42 838 L 42 842 L 43 843 L 43 847 L 44 848 L 44 852 L 45 853 L 45 857 L 46 858 L 46 861 L 47 862 L 47 866 L 48 867 L 48 870 L 49 871 L 49 875 L 50 876 L 50 879 L 51 880 L 51 883 L 52 884 L 52 887 L 53 888 L 53 891 L 54 892 L 54 895 L 55 896 L 55 899 L 56 900 L 56 903 L 57 904 L 57 907 L 58 908 L 58 911 L 59 912 L 59 915 L 60 916 L 60 918 L 61 919 L 61 922 L 62 923 L 62 925 L 63 926 L 63 929 L 64 930 L 64 932 L 65 933 L 65 936 L 66 937 L 66 939 L 67 940 L 67 942 L 68 943 L 68 946 L 69 947 L 69 949 L 70 950 L 70 952 L 71 953 L 71 955 L 72 956 L 72 958 L 73 959 L 73 961 L 74 962 L 74 965 L 73 966 L 72 965 L 65 965 L 64 964 L 64 962 L 63 961 L 63 959 L 62 958 L 62 956 L 61 955 L 61 953 L 60 952 L 60 950 L 59 949 L 59 947 L 58 946 L 58 944 L 57 943 L 57 941 L 56 940 L 56 937 L 55 936 L 55 934 L 54 933 L 54 930 L 53 929 L 53 927 L 52 926 L 52 923 L 51 922 L 51 920 L 50 919 L 50 916 L 49 915 L 49 913 L 48 912 L 48 909 L 47 908 L 47 905 L 46 904 L 46 901 L 45 900 L 45 897 L 44 896 L 44 893 L 43 892 L 43 889 L 42 888 L 42 885 L 41 884 L 41 881 L 40 880 L 40 877 L 39 876 L 39 873 L 38 872 L 38 868 L 37 867 L 37 864 L 36 863 L 36 859 L 35 858 L 35 855 L 34 854 L 34 850 L 33 849 L 33 845 L 32 844 L 32 840 L 31 839 L 31 835 L 30 834 L 30 830 L 29 829 L 29 825 L 28 824 L 28 819 L 27 818 L 27 814 L 26 813 L 26 808 L 25 807 L 25 803 L 24 802 L 24 796 L 23 795 L 23 790 L 22 789 L 22 784 L 21 783 L 21 778 L 20 777 L 20 771 L 19 770 L 19 764 L 18 763 L 18 756 L 17 755 L 17 749 L 16 748 L 16 741 L 15 740 L 15 733 L 14 732 L 14 723 L 13 722 L 13 714 L 12 713 L 12 704 L 11 703 L 11 693 L 10 692 L 10 680 L 9 679 L 9 665 L 8 664 L 8 648 L 7 647 L 7 624 L 6 623 L 6 544 L 7 543 L 7 520 L 8 519 L 8 502 L 9 501 L 9 486 L 10 485 L 10 472 L 11 471 L 11 459 L 12 458 L 12 446 L 13 445 L 13 434 L 14 433 L 14 422 L 15 421 L 15 411 L 16 410 L 16 400 L 17 399 L 17 390 L 18 389 L 18 380 L 19 379 L 19 370 L 20 369 L 20 361 L 21 360 L 21 352 L 22 351 L 22 343 L 23 342 L 23 334 L 24 333 L 24 326 L 25 325 L 25 318 L 26 317 L 26 310 L 27 309 L 27 302 L 28 301 L 28 294 L 29 293 L 29 287 L 30 286 L 30 280 L 31 279 L 31 272 L 32 271 L 32 265 L 33 264 L 33 259 L 34 258 L 34 252 L 35 251 L 35 245 L 36 244 L 36 239 L 37 238 L 37 232 L 38 231 L 38 226 L 39 225 L 39 220 L 40 219 L 40 214 L 41 213 L 41 208 L 42 207 L 42 202 L 43 201 L 43 197 L 44 196 L 44 191 L 45 190 L 45 186 L 46 185 L 46 180 L 47 179 L 47 175 L 48 174 L 48 170 L 49 169 L 49 165 L 50 164 L 50 160 L 51 159 L 51 155 L 52 154 L 52 150 L 53 149 L 53 145 L 54 144 L 54 140 L 55 139 L 55 136 L 56 135 L 56 131 L 57 130 L 57 127 L 58 126 L 58 123 L 59 122 L 59 118 L 60 117 L 60 114 L 61 113 L 61 110 L 62 109 L 62 106 L 63 105 L 63 102 L 64 101 L 64 98 L 65 97 L 65 94 L 66 93 L 66 91 L 67 90 L 67 87 L 68 86 L 68 84 L 69 83 L 69 80 L 70 79 L 70 77 L 71 76 L 71 73 L 72 72 L 72 70 L 73 69 L 73 67 L 74 66 L 74 64 L 75 63 L 75 61 L 76 60 L 76 58 L 77 57 L 77 55 L 78 54 L 78 53 L 79 52 L 79 50 L 80 49 L 80 47 L 81 46 L 81 45 L 82 44 L 82 43 L 83 42 L 83 40 L 85 38 L 85 36 L 86 35 L 86 34 L 88 32 L 88 31 L 89 30 L 89 29 L 91 27 L 91 26 L 100 17 L 101 17 L 103 15 L 104 15 L 105 14 L 106 14 L 107 13 L 108 13 L 109 12 L 110 12 L 111 11 L 112 11 L 113 10 L 114 10 L 115 9 z" />
<path d="M 145 7 L 146 6 L 173 6 L 174 7 L 180 7 L 181 8 L 186 8 L 187 9 L 191 9 L 192 10 L 195 10 L 196 11 L 199 11 L 200 12 L 202 12 L 203 13 L 206 13 L 207 14 L 209 14 L 210 15 L 212 15 L 213 16 L 214 16 L 215 17 L 217 17 L 218 18 L 220 18 L 221 19 L 222 19 L 223 20 L 224 20 L 225 21 L 227 21 L 228 22 L 229 22 L 230 23 L 231 23 L 232 24 L 233 24 L 234 25 L 235 25 L 236 26 L 237 26 L 238 27 L 239 27 L 240 28 L 241 28 L 242 29 L 243 29 L 245 31 L 246 31 L 247 32 L 248 32 L 249 33 L 250 33 L 252 35 L 253 35 L 254 36 L 255 36 L 257 38 L 258 38 L 259 39 L 260 39 L 262 41 L 263 41 L 265 43 L 266 43 L 268 45 L 269 45 L 272 48 L 273 48 L 276 51 L 277 51 L 280 54 L 281 54 L 286 59 L 287 59 L 292 64 L 293 64 L 323 94 L 323 95 L 329 101 L 329 102 L 333 106 L 333 107 L 337 111 L 337 112 L 340 115 L 340 116 L 343 119 L 343 120 L 346 123 L 346 124 L 348 126 L 348 127 L 350 129 L 350 130 L 352 132 L 352 133 L 354 135 L 354 136 L 356 138 L 356 139 L 358 141 L 358 142 L 360 144 L 360 145 L 361 146 L 361 147 L 363 149 L 363 150 L 364 151 L 364 152 L 366 154 L 366 155 L 367 156 L 367 157 L 369 159 L 369 160 L 370 161 L 370 162 L 371 163 L 371 164 L 372 165 L 372 166 L 374 168 L 374 169 L 375 170 L 375 171 L 376 172 L 376 173 L 377 174 L 377 175 L 378 176 L 378 177 L 380 179 L 380 180 L 381 181 L 381 182 L 382 183 L 382 184 L 383 185 L 383 186 L 384 187 L 384 188 L 385 189 L 385 190 L 386 191 L 386 192 L 388 194 L 388 195 L 389 196 L 389 197 L 390 198 L 390 199 L 391 200 L 391 201 L 392 202 L 392 203 L 393 204 L 393 205 L 394 206 L 394 207 L 395 208 L 395 209 L 396 210 L 396 211 L 397 212 L 397 213 L 398 214 L 398 215 L 399 216 L 399 217 L 400 218 L 400 219 L 401 220 L 401 221 L 402 222 L 402 223 L 403 224 L 403 225 L 404 226 L 404 227 L 405 228 L 405 229 L 406 230 L 406 231 L 407 232 L 407 233 L 408 234 L 408 235 L 409 236 L 409 237 L 410 238 L 410 239 L 411 240 L 411 241 L 412 242 L 412 244 L 413 245 L 413 246 L 414 247 L 414 248 L 415 249 L 415 250 L 416 251 L 416 252 L 417 253 L 417 255 L 418 256 L 418 257 L 419 258 L 419 259 L 420 260 L 420 261 L 421 262 L 421 264 L 422 265 L 422 266 L 423 267 L 423 268 L 424 269 L 424 271 L 425 272 L 425 273 L 426 274 L 426 276 L 427 277 L 427 278 L 428 279 L 428 281 L 429 282 L 429 283 L 430 284 L 430 286 L 431 287 L 431 288 L 432 289 L 432 291 L 433 292 L 433 293 L 434 294 L 434 296 L 435 297 L 435 299 L 436 300 L 436 301 L 437 302 L 437 304 L 438 305 L 438 307 L 439 308 L 439 310 L 440 311 L 440 312 L 441 313 L 441 315 L 442 316 L 442 318 L 443 319 L 443 321 L 444 322 L 444 324 L 445 325 L 445 327 L 446 328 L 446 330 L 447 331 L 447 334 L 448 335 L 448 337 L 449 338 L 449 340 L 450 341 L 450 343 L 451 344 L 451 347 L 452 348 L 452 350 L 453 351 L 453 354 L 454 355 L 454 358 L 455 359 L 455 362 L 456 363 L 456 365 L 457 366 L 457 369 L 458 370 L 458 374 L 459 375 L 459 378 L 460 379 L 460 382 L 461 383 L 461 387 L 462 388 L 462 391 L 463 392 L 463 396 L 464 397 L 464 402 L 465 403 L 465 407 L 466 408 L 466 412 L 467 413 L 467 418 L 468 419 L 468 425 L 469 426 L 469 431 L 470 432 L 470 439 L 471 440 L 471 446 L 472 447 L 472 455 L 473 456 L 473 464 L 474 465 L 474 475 L 475 476 L 475 488 L 476 489 L 476 504 L 477 505 L 477 526 L 478 527 L 478 626 L 477 627 L 477 648 L 476 649 L 476 661 L 475 662 L 475 671 L 474 672 L 474 680 L 473 681 L 473 688 L 472 689 L 472 695 L 471 696 L 471 702 L 470 703 L 470 708 L 469 709 L 469 714 L 468 715 L 468 719 L 467 720 L 467 724 L 466 725 L 466 729 L 465 730 L 465 734 L 464 735 L 464 739 L 463 740 L 463 743 L 462 744 L 462 748 L 461 749 L 461 752 L 460 753 L 460 756 L 459 757 L 459 760 L 458 761 L 458 764 L 457 765 L 457 767 L 456 768 L 456 771 L 455 772 L 455 775 L 454 776 L 454 778 L 453 779 L 453 782 L 452 783 L 452 785 L 451 786 L 451 788 L 450 789 L 450 791 L 449 792 L 449 795 L 448 796 L 448 798 L 447 799 L 447 801 L 446 802 L 446 804 L 445 805 L 445 807 L 444 808 L 444 810 L 443 811 L 443 813 L 442 814 L 442 815 L 441 816 L 441 818 L 440 819 L 440 821 L 439 822 L 439 824 L 438 825 L 438 826 L 437 827 L 437 829 L 436 830 L 436 832 L 435 833 L 435 834 L 434 835 L 434 837 L 433 838 L 433 839 L 432 840 L 432 842 L 431 843 L 431 844 L 430 845 L 430 847 L 429 848 L 429 849 L 428 850 L 428 852 L 427 853 L 427 854 L 426 855 L 426 856 L 425 857 L 425 859 L 424 860 L 424 861 L 423 862 L 423 863 L 422 864 L 422 865 L 421 866 L 421 868 L 420 869 L 420 870 L 419 871 L 419 872 L 418 873 L 418 874 L 417 875 L 417 876 L 416 877 L 416 878 L 415 879 L 415 880 L 414 881 L 414 882 L 413 883 L 413 884 L 412 885 L 412 886 L 411 887 L 411 888 L 410 889 L 410 890 L 409 891 L 409 892 L 408 893 L 408 894 L 407 895 L 407 896 L 406 897 L 406 898 L 405 899 L 405 900 L 404 901 L 404 902 L 403 903 L 403 904 L 402 905 L 402 906 L 400 908 L 400 909 L 399 910 L 399 911 L 398 912 L 398 913 L 397 914 L 397 915 L 395 917 L 395 918 L 394 919 L 394 920 L 393 921 L 393 922 L 391 924 L 391 925 L 390 926 L 390 927 L 389 928 L 389 929 L 387 931 L 387 932 L 386 933 L 386 934 L 384 936 L 384 937 L 382 939 L 382 940 L 381 941 L 381 942 L 379 944 L 379 945 L 377 947 L 377 948 L 375 950 L 375 951 L 373 953 L 373 954 L 371 956 L 371 957 L 369 959 L 369 960 L 367 962 L 367 963 L 364 966 L 344 966 L 343 965 L 345 963 L 345 962 L 348 959 L 348 958 L 351 955 L 351 954 L 353 952 L 353 951 L 354 950 L 354 949 L 356 947 L 356 946 L 357 945 L 357 944 L 359 942 L 359 941 L 360 940 L 360 939 L 361 938 L 361 937 L 362 936 L 362 935 L 363 934 L 363 933 L 364 932 L 364 931 L 365 930 L 365 929 L 366 928 L 366 927 L 367 926 L 367 925 L 368 924 L 368 923 L 369 922 L 369 920 L 370 919 L 370 918 L 371 917 L 371 916 L 372 915 L 372 913 L 373 912 L 373 911 L 374 910 L 374 909 L 375 908 L 375 907 L 376 906 L 376 905 L 377 904 L 377 902 L 378 901 L 378 900 L 379 899 L 379 897 L 380 896 L 380 895 L 381 894 L 381 893 L 382 892 L 382 890 L 383 889 L 383 887 L 384 886 L 384 885 L 385 884 L 385 882 L 386 881 L 386 880 L 387 879 L 387 877 L 388 876 L 388 874 L 389 873 L 389 871 L 390 870 L 390 868 L 391 867 L 391 865 L 392 864 L 392 862 L 393 861 L 393 859 L 394 858 L 394 856 L 395 855 L 395 853 L 396 852 L 396 849 L 397 848 L 397 846 L 398 845 L 398 842 L 399 841 L 399 839 L 400 838 L 400 835 L 401 834 L 401 831 L 402 830 L 402 827 L 403 826 L 403 823 L 404 822 L 404 819 L 405 818 L 405 814 L 406 813 L 406 810 L 407 809 L 407 805 L 408 804 L 408 800 L 409 799 L 409 795 L 410 794 L 410 790 L 411 789 L 411 784 L 412 783 L 412 778 L 413 777 L 413 772 L 414 771 L 414 766 L 415 765 L 415 759 L 416 758 L 416 752 L 417 751 L 417 744 L 418 743 L 418 736 L 419 735 L 419 726 L 420 725 L 420 717 L 421 716 L 421 706 L 422 705 L 422 694 L 423 693 L 423 681 L 424 680 L 424 665 L 425 664 L 425 646 L 426 645 L 426 621 L 427 620 L 427 577 L 428 576 L 428 505 L 427 504 L 427 453 L 426 452 L 426 427 L 425 426 L 425 410 L 424 409 L 424 397 L 423 396 L 423 386 L 422 385 L 422 377 L 421 376 L 421 368 L 420 367 L 420 360 L 419 359 L 419 353 L 418 352 L 418 346 L 417 345 L 417 339 L 416 338 L 416 333 L 415 332 L 415 327 L 414 326 L 414 321 L 413 320 L 413 316 L 412 315 L 412 311 L 411 310 L 411 306 L 410 305 L 410 301 L 409 300 L 409 297 L 408 296 L 408 292 L 407 291 L 407 288 L 406 287 L 406 284 L 405 283 L 405 280 L 404 279 L 404 276 L 403 275 L 403 272 L 402 271 L 402 269 L 401 268 L 401 265 L 400 264 L 400 261 L 399 260 L 399 258 L 398 257 L 398 255 L 397 254 L 397 251 L 396 250 L 396 248 L 395 247 L 395 245 L 394 244 L 394 242 L 393 241 L 393 239 L 392 238 L 392 236 L 391 235 L 391 233 L 390 232 L 390 230 L 389 229 L 389 228 L 388 227 L 388 225 L 387 224 L 387 222 L 386 221 L 386 220 L 385 219 L 385 217 L 384 216 L 384 214 L 383 213 L 383 212 L 382 211 L 382 209 L 381 208 L 381 207 L 380 206 L 380 205 L 379 204 L 379 202 L 378 201 L 378 200 L 377 199 L 377 198 L 376 197 L 376 195 L 375 194 L 375 193 L 374 192 L 374 191 L 373 190 L 373 188 L 372 187 L 372 186 L 371 185 L 371 184 L 370 183 L 370 182 L 369 181 L 369 180 L 368 179 L 368 178 L 367 177 L 367 176 L 366 175 L 366 174 L 365 173 L 365 172 L 364 171 L 364 170 L 362 168 L 362 167 L 361 166 L 361 165 L 360 164 L 360 163 L 359 162 L 359 161 L 357 159 L 357 158 L 356 157 L 356 156 L 355 155 L 355 154 L 353 152 L 353 151 L 351 149 L 351 148 L 350 147 L 350 146 L 348 144 L 348 143 L 346 141 L 346 140 L 344 138 L 344 137 L 342 135 L 342 134 L 340 132 L 340 131 L 337 128 L 337 127 L 334 124 L 334 123 L 331 120 L 331 119 L 327 115 L 327 114 L 320 107 L 320 106 L 298 84 L 297 84 L 292 79 L 291 79 L 287 75 L 286 75 L 283 72 L 282 72 L 280 70 L 279 70 L 276 67 L 275 67 L 273 65 L 272 65 L 271 64 L 270 64 L 268 62 L 267 62 L 266 61 L 265 61 L 264 60 L 263 60 L 261 58 L 260 58 L 259 57 L 258 57 L 257 56 L 256 56 L 255 55 L 253 55 L 252 54 L 251 54 L 250 53 L 249 53 L 248 52 L 246 52 L 245 51 L 243 51 L 242 50 L 241 50 L 240 49 L 238 49 L 237 48 L 234 48 L 233 47 L 230 47 L 229 46 L 224 46 L 223 45 L 199 45 L 198 46 L 194 46 L 193 47 L 190 47 L 189 48 L 187 48 L 186 49 L 185 49 L 184 50 L 182 50 L 181 51 L 180 51 L 179 52 L 178 52 L 176 54 L 175 54 L 173 56 L 172 56 L 163 65 L 163 66 L 161 68 L 161 69 L 159 71 L 159 72 L 157 74 L 157 75 L 156 76 L 156 77 L 155 78 L 155 80 L 154 81 L 154 82 L 153 83 L 153 84 L 152 85 L 152 87 L 151 88 L 151 90 L 150 91 L 150 93 L 149 94 L 149 96 L 148 97 L 148 100 L 147 101 L 147 104 L 146 105 L 146 108 L 145 109 L 145 114 L 144 115 L 144 120 L 143 121 L 143 127 L 142 128 L 142 137 L 141 138 L 141 149 L 140 150 L 140 165 L 139 166 L 139 182 L 138 183 L 138 203 L 137 204 L 137 225 L 136 226 L 136 251 L 135 252 L 135 281 L 134 282 L 134 314 L 133 315 L 133 356 L 132 357 L 132 411 L 131 412 L 131 656 L 132 657 L 132 701 L 133 702 L 133 735 L 134 736 L 134 763 L 135 764 L 135 787 L 136 788 L 136 807 L 137 808 L 137 825 L 138 826 L 138 842 L 139 843 L 139 856 L 140 857 L 140 870 L 141 871 L 141 882 L 142 883 L 142 895 L 143 896 L 143 905 L 144 906 L 144 915 L 145 916 L 145 925 L 146 926 L 146 934 L 147 935 L 147 942 L 148 943 L 148 950 L 149 951 L 149 957 L 150 958 L 150 965 L 149 966 L 81 966 L 80 965 L 80 964 L 79 963 L 79 961 L 78 960 L 78 958 L 77 957 L 77 955 L 76 954 L 76 952 L 75 951 L 75 949 L 74 948 L 74 946 L 73 945 L 73 943 L 72 942 L 72 939 L 71 938 L 71 936 L 70 935 L 70 933 L 69 932 L 69 929 L 68 928 L 68 926 L 67 925 L 67 922 L 66 921 L 66 918 L 65 917 L 65 915 L 64 914 L 64 911 L 63 910 L 63 907 L 62 906 L 62 903 L 61 902 L 61 900 L 60 899 L 60 896 L 59 895 L 59 892 L 58 891 L 58 888 L 57 887 L 57 884 L 56 883 L 56 879 L 55 878 L 55 875 L 54 874 L 54 871 L 53 870 L 53 866 L 52 865 L 52 862 L 51 861 L 51 857 L 50 856 L 50 853 L 49 852 L 49 848 L 48 847 L 48 843 L 47 842 L 47 838 L 46 837 L 46 833 L 45 832 L 45 828 L 44 827 L 44 822 L 43 821 L 43 817 L 42 816 L 42 811 L 41 810 L 41 806 L 40 805 L 40 800 L 39 799 L 39 794 L 38 793 L 38 788 L 37 787 L 37 781 L 36 780 L 36 775 L 35 774 L 35 768 L 34 767 L 34 760 L 33 759 L 33 753 L 32 752 L 32 745 L 31 744 L 31 737 L 30 736 L 30 728 L 29 727 L 29 719 L 28 718 L 28 709 L 27 708 L 27 698 L 26 697 L 26 687 L 25 686 L 25 673 L 24 672 L 24 657 L 23 656 L 23 637 L 22 636 L 22 603 L 21 602 L 21 567 L 22 566 L 22 530 L 23 529 L 23 510 L 24 509 L 24 494 L 25 493 L 25 479 L 26 478 L 26 465 L 27 464 L 27 451 L 28 450 L 28 439 L 29 438 L 29 427 L 30 426 L 30 415 L 31 414 L 31 404 L 32 403 L 32 393 L 33 392 L 33 383 L 34 382 L 34 373 L 35 372 L 35 364 L 36 363 L 36 354 L 37 353 L 37 345 L 38 344 L 38 337 L 39 336 L 39 328 L 40 327 L 40 320 L 41 319 L 41 311 L 42 310 L 42 303 L 43 302 L 43 296 L 44 295 L 44 288 L 45 287 L 45 281 L 46 280 L 46 274 L 47 273 L 47 266 L 48 265 L 48 260 L 49 259 L 49 253 L 50 252 L 50 246 L 51 245 L 51 240 L 52 239 L 52 233 L 53 232 L 53 227 L 54 226 L 54 221 L 55 220 L 55 215 L 56 214 L 56 209 L 57 208 L 57 203 L 58 202 L 58 197 L 59 196 L 59 191 L 60 190 L 60 186 L 61 185 L 61 181 L 62 180 L 62 175 L 63 174 L 63 170 L 64 169 L 64 165 L 65 164 L 65 160 L 66 159 L 66 155 L 67 154 L 67 150 L 68 149 L 68 145 L 69 144 L 69 141 L 70 140 L 70 136 L 71 135 L 71 131 L 72 130 L 72 127 L 73 126 L 73 123 L 74 122 L 74 118 L 75 117 L 75 114 L 76 113 L 76 110 L 77 109 L 77 106 L 78 105 L 78 102 L 79 101 L 79 98 L 80 97 L 80 94 L 81 93 L 81 91 L 82 90 L 82 87 L 83 86 L 83 84 L 84 83 L 84 80 L 85 79 L 85 77 L 86 76 L 86 73 L 87 72 L 87 70 L 88 69 L 88 67 L 89 66 L 89 64 L 90 63 L 90 61 L 91 60 L 91 58 L 92 57 L 92 55 L 93 54 L 93 53 L 94 52 L 94 50 L 95 49 L 95 47 L 96 46 L 96 45 L 97 44 L 97 43 L 98 42 L 98 40 L 100 38 L 100 36 L 101 35 L 101 34 L 103 32 L 103 31 L 104 30 L 104 29 L 106 27 L 106 26 L 115 17 L 116 17 L 118 15 L 119 15 L 120 14 L 121 14 L 123 12 L 125 12 L 126 11 L 127 11 L 128 10 L 130 10 L 131 9 L 134 9 L 135 8 L 138 8 L 139 7 z" />
</g>
</g>
</svg>
</svg>