<?xml version="1.0" encoding="UTF-8"?>
<svg xmlns="http://www.w3.org/2000/svg" xmlns:xlink="http://www.w3.org/1999/xlink"
     width="400" height="1099" viewBox="0 0 400 1099">
<defs>
</defs>
<svg id="0" fill="grey" stroke="black">
<path d="M 222 0 L 221 1 L 219 1 L 218 2 L 217 2 L 215 4 L 215 5 L 211 9 L 207 9 L 206 10 L 205 10 L 204 11 L 203 11 L 203 12 L 202 13 L 202 14 L 201 15 L 201 17 L 200 18 L 200 25 L 199 26 L 199 27 L 197 29 L 197 30 L 195 32 L 195 33 L 194 34 L 194 35 L 193 36 L 193 38 L 192 39 L 192 40 L 191 41 L 191 42 L 190 43 L 190 45 L 189 46 L 189 48 L 188 49 L 188 51 L 187 52 L 187 55 L 186 56 L 186 59 L 185 60 L 185 63 L 184 64 L 184 68 L 183 69 L 183 73 L 182 74 L 182 76 L 181 77 L 180 77 L 179 78 L 177 78 L 176 79 L 175 79 L 174 80 L 173 80 L 172 81 L 171 81 L 169 83 L 168 83 L 167 84 L 166 84 L 164 86 L 163 86 L 161 88 L 160 88 L 148 100 L 148 101 L 146 103 L 146 104 L 145 105 L 145 106 L 144 107 L 144 108 L 143 109 L 143 110 L 142 111 L 142 112 L 141 113 L 141 114 L 140 115 L 140 117 L 139 118 L 139 121 L 138 122 L 138 131 L 137 132 L 135 130 L 134 130 L 131 127 L 130 127 L 128 125 L 127 125 L 126 124 L 125 124 L 124 123 L 123 123 L 122 122 L 121 122 L 120 121 L 119 121 L 118 120 L 117 120 L 116 119 L 115 119 L 114 118 L 112 118 L 111 117 L 110 117 L 109 116 L 107 116 L 106 115 L 103 115 L 102 114 L 100 114 L 99 113 L 99 109 L 98 108 L 98 103 L 97 102 L 97 99 L 96 98 L 96 96 L 95 95 L 95 93 L 94 92 L 94 91 L 93 90 L 93 89 L 92 88 L 92 87 L 91 86 L 91 85 L 90 84 L 90 83 L 88 81 L 88 80 L 84 76 L 84 75 L 82 73 L 81 73 L 77 69 L 76 69 L 74 67 L 73 67 L 72 66 L 71 66 L 70 65 L 69 65 L 68 64 L 67 64 L 66 63 L 65 63 L 64 62 L 62 62 L 61 61 L 59 61 L 58 60 L 57 60 L 56 59 L 53 59 L 52 58 L 49 58 L 48 57 L 42 57 L 41 56 L 34 56 L 33 57 L 29 57 L 28 58 L 26 58 L 25 59 L 21 59 L 20 60 L 17 60 L 16 61 L 15 61 L 14 62 L 13 62 L 12 63 L 11 63 L 6 68 L 6 69 L 5 70 L 5 71 L 4 72 L 4 75 L 3 76 L 3 79 L 4 80 L 4 84 L 5 85 L 5 89 L 4 90 L 4 91 L 3 92 L 3 93 L 2 94 L 2 95 L 1 96 L 1 99 L 0 100 L 0 114 L 1 115 L 1 117 L 2 118 L 2 119 L 3 120 L 3 122 L 4 123 L 4 126 L 3 127 L 3 128 L 2 129 L 2 130 L 1 131 L 1 134 L 0 135 L 0 143 L 1 144 L 1 146 L 2 147 L 2 149 L 3 150 L 3 151 L 4 152 L 4 153 L 5 154 L 5 155 L 7 157 L 7 158 L 11 162 L 11 163 L 12 163 L 15 166 L 16 166 L 17 167 L 18 167 L 19 168 L 25 168 L 26 169 L 26 171 L 27 172 L 27 176 L 28 177 L 28 179 L 29 180 L 29 182 L 30 183 L 30 184 L 31 185 L 31 187 L 32 188 L 32 189 L 34 191 L 34 192 L 35 193 L 35 194 L 38 197 L 38 198 L 43 203 L 44 203 L 47 206 L 48 206 L 50 208 L 51 208 L 52 209 L 53 209 L 54 210 L 55 210 L 56 211 L 58 211 L 59 212 L 61 212 L 62 213 L 64 213 L 65 214 L 68 214 L 71 217 L 71 218 L 72 219 L 72 220 L 73 221 L 73 222 L 75 224 L 75 225 L 76 226 L 76 227 L 78 229 L 78 230 L 81 233 L 81 234 L 96 249 L 97 249 L 100 252 L 101 252 L 103 254 L 104 254 L 106 256 L 107 256 L 109 258 L 110 258 L 111 259 L 112 259 L 113 260 L 114 260 L 115 261 L 116 261 L 117 262 L 118 262 L 119 263 L 120 263 L 121 264 L 122 264 L 123 265 L 125 265 L 126 266 L 127 266 L 128 267 L 129 267 L 130 268 L 131 268 L 132 269 L 134 269 L 135 270 L 136 270 L 137 271 L 138 271 L 139 272 L 141 272 L 142 273 L 143 273 L 144 274 L 146 274 L 147 275 L 148 275 L 149 276 L 151 276 L 153 278 L 153 1097 L 154 1098 L 285 1098 L 285 342 L 286 341 L 289 341 L 290 342 L 293 342 L 294 343 L 297 343 L 298 344 L 305 344 L 306 345 L 326 345 L 327 344 L 332 344 L 333 343 L 336 343 L 337 342 L 340 342 L 341 341 L 342 341 L 343 340 L 345 340 L 346 339 L 347 339 L 348 338 L 349 338 L 350 337 L 351 337 L 353 335 L 354 335 L 356 333 L 357 333 L 364 326 L 364 325 L 368 321 L 370 321 L 371 320 L 372 320 L 374 318 L 375 318 L 379 314 L 379 312 L 380 311 L 380 304 L 383 301 L 385 301 L 386 300 L 388 300 L 390 298 L 391 298 L 394 295 L 394 294 L 395 293 L 395 292 L 396 291 L 396 290 L 397 289 L 397 286 L 398 285 L 398 278 L 399 277 L 399 268 L 398 267 L 398 264 L 397 263 L 397 262 L 395 260 L 395 259 L 394 258 L 393 258 L 391 256 L 390 256 L 389 255 L 388 255 L 387 254 L 386 254 L 385 253 L 384 253 L 383 252 L 382 252 L 381 251 L 379 251 L 378 250 L 377 250 L 377 252 L 378 253 L 378 254 L 377 255 L 376 255 L 375 256 L 374 256 L 373 257 L 371 257 L 371 261 L 372 262 L 372 266 L 371 267 L 370 267 L 369 266 L 368 266 L 367 265 L 366 265 L 365 264 L 363 264 L 362 263 L 351 263 L 350 264 L 347 264 L 346 265 L 344 265 L 343 266 L 341 266 L 340 267 L 339 267 L 338 266 L 337 266 L 335 264 L 334 264 L 333 263 L 330 263 L 329 262 L 325 262 L 324 263 L 322 263 L 321 264 L 320 264 L 319 265 L 318 265 L 313 260 L 313 259 L 307 253 L 306 253 L 305 252 L 303 252 L 302 251 L 298 251 L 297 252 L 291 252 L 286 247 L 285 247 L 283 245 L 283 217 L 290 210 L 290 209 L 293 206 L 293 205 L 294 204 L 294 203 L 296 201 L 296 200 L 297 199 L 297 198 L 298 197 L 298 195 L 299 194 L 299 192 L 300 191 L 300 188 L 301 187 L 301 150 L 300 149 L 300 142 L 301 141 L 301 120 L 300 119 L 300 116 L 299 115 L 299 113 L 298 112 L 298 111 L 297 110 L 297 109 L 296 108 L 296 107 L 295 106 L 295 105 L 294 104 L 294 103 L 292 101 L 292 100 L 280 88 L 279 88 L 277 86 L 276 86 L 274 84 L 273 84 L 272 83 L 271 83 L 269 81 L 268 81 L 267 80 L 266 80 L 265 79 L 264 79 L 263 78 L 261 78 L 260 77 L 259 77 L 258 76 L 257 76 L 256 75 L 255 75 L 253 73 L 253 66 L 254 65 L 254 50 L 253 49 L 253 46 L 252 45 L 252 44 L 251 43 L 251 42 L 249 40 L 249 39 L 248 38 L 248 36 L 249 35 L 249 34 L 262 21 L 262 20 L 263 19 L 263 12 L 262 11 L 262 10 L 261 9 L 261 8 L 259 6 L 258 6 L 257 5 L 256 5 L 255 4 L 254 4 L 253 3 L 252 3 L 251 2 L 240 2 L 239 3 L 232 3 L 231 2 L 230 2 L 229 1 L 226 1 L 225 0 z" />
<path d="M 371 267 L 372 266 L 373 267 L 372 268 z" />
<path d="M 137 132 L 138 131 L 139 132 L 138 133 z" />
<path d="M 221 1 L 222 0 L 225 0 L 226 1 L 229 1 L 230 2 L 231 2 L 232 3 L 239 3 L 240 2 L 251 2 L 252 3 L 253 3 L 254 4 L 255 4 L 256 5 L 257 5 L 262 10 L 262 11 L 263 12 L 263 19 L 250 32 L 250 33 L 249 34 L 249 35 L 248 36 L 248 38 L 249 39 L 249 40 L 250 41 L 250 42 L 252 44 L 252 45 L 253 46 L 253 49 L 254 50 L 254 65 L 253 66 L 253 73 L 254 74 L 254 75 L 256 75 L 257 76 L 258 76 L 259 77 L 260 77 L 261 78 L 263 78 L 264 79 L 265 79 L 266 80 L 267 80 L 269 82 L 270 82 L 271 83 L 272 83 L 274 85 L 275 85 L 277 87 L 278 87 L 293 102 L 293 103 L 295 105 L 295 106 L 296 107 L 296 108 L 297 109 L 297 110 L 298 111 L 298 112 L 299 113 L 299 115 L 300 116 L 300 119 L 301 120 L 301 141 L 300 142 L 300 149 L 301 150 L 301 187 L 300 188 L 300 191 L 299 192 L 299 194 L 298 195 L 298 197 L 297 198 L 297 199 L 295 201 L 295 202 L 294 203 L 294 204 L 291 207 L 291 208 L 284 215 L 284 216 L 283 217 L 283 245 L 290 252 L 297 252 L 298 251 L 302 251 L 303 252 L 305 252 L 314 261 L 314 262 L 317 265 L 319 265 L 320 264 L 321 264 L 322 263 L 324 263 L 325 262 L 329 262 L 330 263 L 333 263 L 335 265 L 336 265 L 338 267 L 340 267 L 341 266 L 343 266 L 344 265 L 346 265 L 347 264 L 350 264 L 351 263 L 362 263 L 363 264 L 365 264 L 366 265 L 367 265 L 368 266 L 369 266 L 371 268 L 372 268 L 373 267 L 372 266 L 372 262 L 371 261 L 371 258 L 372 257 L 373 257 L 374 256 L 375 256 L 376 255 L 377 255 L 378 254 L 378 253 L 377 252 L 377 251 L 378 250 L 379 251 L 381 251 L 382 252 L 383 252 L 384 253 L 385 253 L 386 254 L 387 254 L 388 255 L 389 255 L 391 257 L 392 257 L 396 261 L 396 262 L 398 264 L 398 267 L 399 268 L 399 277 L 398 278 L 398 285 L 397 286 L 397 289 L 396 290 L 396 291 L 395 292 L 395 293 L 389 299 L 388 299 L 387 300 L 386 300 L 385 301 L 383 301 L 382 302 L 381 302 L 381 303 L 380 304 L 380 311 L 379 312 L 379 313 L 373 319 L 372 319 L 370 321 L 368 321 L 367 322 L 366 322 L 365 323 L 365 324 L 355 334 L 354 334 L 352 336 L 351 336 L 349 338 L 348 338 L 347 339 L 346 339 L 345 340 L 343 340 L 342 341 L 341 341 L 340 342 L 337 342 L 336 343 L 333 343 L 332 344 L 327 344 L 326 345 L 306 345 L 305 344 L 298 344 L 297 343 L 294 343 L 293 342 L 290 342 L 289 341 L 285 341 L 285 1097 L 284 1098 L 154 1098 L 153 1097 L 153 277 L 152 277 L 151 276 L 149 276 L 148 275 L 147 275 L 146 274 L 144 274 L 143 273 L 142 273 L 141 272 L 139 272 L 138 271 L 137 271 L 136 270 L 135 270 L 134 269 L 132 269 L 131 268 L 130 268 L 129 267 L 128 267 L 127 266 L 126 266 L 125 265 L 123 265 L 122 264 L 121 264 L 120 263 L 119 263 L 118 262 L 117 262 L 116 261 L 115 261 L 114 260 L 113 260 L 112 259 L 111 259 L 109 257 L 108 257 L 106 255 L 105 255 L 103 253 L 102 253 L 99 250 L 98 250 L 80 232 L 80 231 L 77 228 L 77 227 L 75 225 L 75 224 L 74 223 L 74 222 L 72 220 L 72 219 L 71 218 L 71 217 L 70 216 L 70 215 L 69 215 L 68 214 L 65 214 L 64 213 L 62 213 L 61 212 L 59 212 L 58 211 L 56 211 L 55 210 L 54 210 L 53 209 L 52 209 L 50 207 L 49 207 L 46 204 L 45 204 L 37 196 L 37 195 L 34 192 L 34 191 L 33 190 L 33 189 L 31 187 L 31 185 L 30 184 L 30 183 L 29 182 L 29 180 L 28 179 L 28 177 L 27 176 L 27 172 L 26 171 L 26 169 L 25 168 L 19 168 L 18 167 L 17 167 L 14 164 L 13 164 L 10 161 L 10 160 L 6 156 L 6 155 L 4 153 L 4 152 L 3 151 L 3 150 L 2 149 L 2 147 L 1 146 L 1 144 L 0 143 L 0 135 L 1 134 L 1 131 L 2 130 L 2 129 L 3 128 L 3 127 L 4 126 L 4 123 L 3 122 L 3 120 L 2 119 L 2 118 L 1 117 L 1 115 L 0 114 L 0 100 L 1 99 L 1 96 L 2 95 L 2 94 L 3 93 L 3 92 L 4 91 L 4 90 L 5 89 L 5 85 L 4 84 L 4 80 L 3 79 L 3 76 L 4 75 L 4 72 L 5 71 L 5 70 L 13 62 L 14 62 L 15 61 L 16 61 L 17 60 L 20 60 L 21 59 L 25 59 L 26 58 L 28 58 L 29 57 L 33 57 L 34 56 L 41 56 L 42 57 L 48 57 L 49 58 L 52 58 L 53 59 L 56 59 L 57 60 L 58 60 L 59 61 L 61 61 L 62 62 L 64 62 L 65 63 L 66 63 L 67 64 L 68 64 L 69 65 L 70 65 L 71 66 L 72 66 L 74 68 L 75 68 L 79 72 L 80 72 L 85 77 L 85 78 L 89 82 L 89 83 L 91 85 L 91 86 L 92 87 L 92 88 L 93 89 L 93 90 L 94 91 L 94 92 L 95 93 L 95 95 L 96 96 L 96 98 L 97 99 L 97 102 L 98 103 L 98 108 L 99 109 L 99 113 L 100 114 L 102 114 L 103 115 L 106 115 L 107 116 L 109 116 L 110 117 L 111 117 L 112 118 L 114 118 L 115 119 L 116 119 L 117 120 L 118 120 L 119 121 L 120 121 L 121 122 L 122 122 L 123 123 L 124 123 L 125 124 L 126 124 L 128 126 L 129 126 L 132 129 L 133 129 L 137 133 L 138 133 L 139 132 L 138 131 L 138 122 L 139 121 L 139 118 L 140 117 L 140 115 L 141 114 L 141 113 L 142 112 L 142 111 L 143 110 L 143 109 L 144 108 L 144 107 L 145 106 L 145 105 L 147 103 L 147 102 L 162 87 L 163 87 L 165 85 L 166 85 L 168 83 L 169 83 L 170 82 L 171 82 L 173 80 L 174 80 L 175 79 L 176 79 L 177 78 L 179 78 L 180 77 L 181 77 L 182 76 L 182 74 L 183 73 L 183 69 L 184 68 L 184 64 L 185 63 L 185 60 L 186 59 L 186 56 L 187 55 L 187 52 L 188 51 L 188 49 L 189 48 L 189 46 L 190 45 L 190 43 L 191 42 L 191 41 L 192 40 L 192 39 L 193 38 L 193 36 L 194 35 L 194 34 L 196 32 L 196 31 L 198 29 L 198 28 L 200 26 L 200 18 L 201 17 L 201 15 L 202 14 L 202 13 L 205 10 L 206 10 L 207 9 L 212 9 L 214 7 L 214 6 L 219 1 z" />
<g id="1">
<path d="M 287 331 L 286 332 L 285 332 L 285 333 L 286 334 L 286 335 L 287 335 L 288 336 L 291 336 L 292 337 L 294 337 L 295 338 L 299 338 L 300 339 L 306 339 L 307 340 L 330 340 L 331 339 L 334 339 L 334 337 L 330 337 L 329 338 L 308 338 L 307 337 L 303 337 L 302 336 L 299 336 L 298 335 L 296 335 L 295 334 L 293 334 L 292 333 L 290 333 L 289 332 L 288 332 z" />
<path d="M 380 259 L 379 260 L 378 260 L 378 272 L 381 272 L 382 271 L 382 270 L 383 269 L 383 264 L 382 263 L 382 260 L 381 260 z" />
<path d="M 285 254 L 284 255 L 283 255 L 284 256 L 284 286 L 285 287 L 285 323 L 286 324 L 286 326 L 288 326 L 289 327 L 290 327 L 291 328 L 293 328 L 294 329 L 295 329 L 296 330 L 299 330 L 300 331 L 303 331 L 304 332 L 308 332 L 309 333 L 316 333 L 317 334 L 327 334 L 328 333 L 335 333 L 336 332 L 339 332 L 340 331 L 343 331 L 344 330 L 346 330 L 347 329 L 348 329 L 349 328 L 350 328 L 351 327 L 352 327 L 353 326 L 354 326 L 356 324 L 357 324 L 365 316 L 368 316 L 369 315 L 370 315 L 374 311 L 374 310 L 375 309 L 375 303 L 374 302 L 374 300 L 372 298 L 373 297 L 380 297 L 381 296 L 383 296 L 384 295 L 385 295 L 386 294 L 387 294 L 390 291 L 390 290 L 391 289 L 391 287 L 392 286 L 392 284 L 393 283 L 393 277 L 394 276 L 394 270 L 393 269 L 393 266 L 391 264 L 391 263 L 389 261 L 388 261 L 387 262 L 387 263 L 388 264 L 388 270 L 387 271 L 387 272 L 382 277 L 374 277 L 372 275 L 371 275 L 367 271 L 366 271 L 365 270 L 363 270 L 362 269 L 350 269 L 349 270 L 347 270 L 346 271 L 344 271 L 343 272 L 342 272 L 341 273 L 340 273 L 339 274 L 338 274 L 334 270 L 333 270 L 332 269 L 330 269 L 329 268 L 325 268 L 324 269 L 322 269 L 318 273 L 317 273 L 315 271 L 315 270 L 309 264 L 309 263 L 304 258 L 303 258 L 302 257 L 298 257 L 297 258 L 293 258 L 292 259 L 290 259 z" />
<path d="M 75 211 L 74 212 L 75 213 L 75 214 L 76 215 L 76 216 L 77 217 L 77 218 L 78 219 L 78 220 L 80 222 L 80 223 L 82 225 L 82 226 L 85 229 L 85 230 L 100 245 L 101 245 L 104 248 L 105 248 L 107 250 L 108 250 L 110 252 L 111 252 L 113 254 L 114 254 L 115 255 L 116 255 L 117 256 L 118 256 L 119 257 L 120 257 L 121 258 L 122 258 L 123 259 L 125 259 L 127 261 L 129 261 L 130 262 L 131 262 L 132 263 L 133 263 L 134 264 L 136 264 L 137 265 L 138 265 L 139 266 L 140 266 L 141 267 L 142 267 L 143 268 L 145 268 L 146 269 L 147 269 L 148 270 L 150 270 L 151 271 L 152 271 L 153 272 L 155 272 L 156 273 L 157 273 L 158 274 L 161 274 L 161 272 L 160 272 L 159 271 L 156 271 L 155 270 L 154 270 L 153 269 L 151 269 L 150 268 L 148 268 L 147 267 L 146 267 L 145 266 L 144 266 L 143 265 L 141 265 L 140 264 L 139 264 L 138 263 L 137 263 L 136 262 L 135 262 L 134 261 L 132 261 L 130 259 L 129 259 L 128 258 L 127 258 L 126 257 L 125 257 L 124 256 L 123 256 L 122 255 L 121 255 L 120 254 L 119 254 L 117 252 L 116 252 L 114 250 L 113 250 L 110 247 L 109 247 L 92 230 L 92 229 L 89 226 L 89 225 L 86 222 L 86 221 L 85 220 L 85 219 L 83 217 L 83 216 L 82 215 L 82 214 L 81 213 L 81 212 L 78 212 L 77 211 z" />
<path d="M 32 166 L 32 171 L 33 172 L 33 176 L 34 177 L 34 179 L 35 180 L 35 182 L 36 183 L 36 184 L 37 185 L 37 186 L 38 187 L 38 188 L 39 189 L 39 190 L 42 193 L 42 194 L 47 199 L 48 199 L 51 202 L 52 202 L 54 204 L 55 204 L 56 205 L 57 205 L 58 206 L 60 206 L 61 207 L 62 207 L 63 208 L 65 208 L 66 209 L 67 209 L 68 210 L 70 210 L 71 211 L 72 211 L 74 209 L 72 209 L 71 208 L 69 208 L 68 207 L 66 207 L 65 206 L 64 206 L 63 205 L 62 205 L 60 203 L 59 203 L 57 201 L 56 201 L 48 193 L 48 192 L 46 190 L 46 189 L 44 187 L 44 186 L 43 185 L 43 184 L 42 183 L 42 182 L 41 181 L 41 180 L 40 179 L 40 177 L 39 176 L 39 173 L 38 172 L 38 167 L 37 166 z" />
<path d="M 203 142 L 202 143 L 197 143 L 196 144 L 193 144 L 192 145 L 190 145 L 189 146 L 187 146 L 186 147 L 184 147 L 183 148 L 182 148 L 181 149 L 179 149 L 178 150 L 177 150 L 176 151 L 175 151 L 173 153 L 172 153 L 170 155 L 169 155 L 164 160 L 164 161 L 162 163 L 162 164 L 161 165 L 161 168 L 163 168 L 165 170 L 166 170 L 167 171 L 168 171 L 171 174 L 172 174 L 177 179 L 177 180 L 180 183 L 180 184 L 182 186 L 182 187 L 183 188 L 183 189 L 184 190 L 184 191 L 185 192 L 185 219 L 186 220 L 186 253 L 185 254 L 185 264 L 184 265 L 184 268 L 183 269 L 183 270 L 178 275 L 177 275 L 176 276 L 169 276 L 167 278 L 160 278 L 159 279 L 159 1093 L 280 1093 L 280 287 L 279 286 L 279 247 L 278 246 L 278 194 L 277 193 L 277 173 L 276 172 L 276 170 L 275 169 L 275 167 L 274 166 L 274 165 L 271 162 L 271 161 L 267 157 L 266 157 L 263 154 L 262 154 L 260 152 L 259 152 L 258 151 L 257 151 L 256 150 L 255 150 L 254 149 L 252 149 L 251 148 L 250 148 L 249 147 L 247 147 L 246 146 L 244 146 L 243 145 L 240 145 L 239 144 L 236 144 L 235 143 L 230 143 L 229 142 z" />
<path d="M 206 122 L 205 123 L 200 123 L 199 124 L 196 124 L 195 125 L 192 125 L 191 126 L 189 126 L 188 127 L 186 127 L 185 128 L 183 128 L 182 129 L 181 129 L 180 130 L 179 130 L 178 131 L 176 131 L 175 132 L 174 132 L 172 134 L 171 134 L 170 135 L 169 135 L 167 137 L 166 137 L 163 140 L 162 140 L 154 148 L 154 149 L 151 152 L 151 154 L 150 155 L 150 156 L 151 157 L 151 158 L 152 159 L 152 161 L 153 162 L 153 165 L 156 165 L 156 164 L 158 162 L 158 161 L 160 159 L 160 158 L 166 152 L 167 152 L 170 149 L 171 149 L 173 147 L 174 147 L 175 146 L 176 146 L 178 144 L 180 144 L 181 143 L 182 143 L 183 142 L 185 142 L 186 141 L 188 141 L 189 140 L 192 140 L 193 139 L 196 139 L 197 138 L 202 138 L 203 137 L 229 137 L 230 138 L 235 138 L 236 139 L 240 139 L 241 140 L 244 140 L 245 141 L 247 141 L 248 142 L 250 142 L 251 143 L 252 143 L 253 144 L 255 144 L 257 146 L 258 146 L 259 147 L 260 147 L 261 148 L 262 148 L 264 150 L 265 150 L 268 153 L 269 153 L 275 159 L 275 160 L 278 163 L 278 164 L 279 165 L 279 166 L 280 167 L 280 168 L 281 169 L 281 171 L 282 172 L 282 193 L 283 194 L 283 206 L 282 207 L 283 207 L 284 208 L 286 206 L 286 205 L 289 202 L 289 201 L 291 199 L 291 198 L 292 197 L 292 195 L 293 194 L 293 193 L 294 192 L 294 190 L 295 189 L 295 186 L 296 185 L 296 169 L 295 168 L 295 165 L 294 164 L 294 162 L 293 161 L 293 160 L 292 159 L 292 157 L 291 156 L 291 155 L 289 153 L 289 152 L 286 149 L 286 148 L 278 140 L 277 140 L 274 137 L 273 137 L 271 135 L 270 135 L 269 134 L 268 134 L 266 132 L 265 132 L 264 131 L 262 131 L 261 130 L 260 130 L 259 129 L 258 129 L 257 128 L 255 128 L 254 127 L 252 127 L 251 126 L 249 126 L 248 125 L 245 125 L 244 124 L 241 124 L 240 123 L 235 123 L 234 122 z" />
<path d="M 206 105 L 205 106 L 200 106 L 199 107 L 196 107 L 195 108 L 192 108 L 191 109 L 189 109 L 188 110 L 186 110 L 185 111 L 183 111 L 182 112 L 181 112 L 180 113 L 179 113 L 178 114 L 176 114 L 175 115 L 174 115 L 172 117 L 171 117 L 170 118 L 169 118 L 167 120 L 166 120 L 163 123 L 162 123 L 154 131 L 154 132 L 151 135 L 151 136 L 149 138 L 149 139 L 148 140 L 148 142 L 147 143 L 147 144 L 146 145 L 146 147 L 147 148 L 149 148 L 150 147 L 150 146 L 160 136 L 161 136 L 164 133 L 165 133 L 167 131 L 168 131 L 169 130 L 170 130 L 172 128 L 173 128 L 174 127 L 175 127 L 176 126 L 177 126 L 178 125 L 180 125 L 182 123 L 184 123 L 185 122 L 187 122 L 188 121 L 190 121 L 191 120 L 194 120 L 195 119 L 199 119 L 200 118 L 205 118 L 206 117 L 234 117 L 235 118 L 240 118 L 241 119 L 245 119 L 246 120 L 249 120 L 250 121 L 252 121 L 253 122 L 255 122 L 256 123 L 258 123 L 259 124 L 260 124 L 261 125 L 262 125 L 263 126 L 264 126 L 265 127 L 266 127 L 267 128 L 268 128 L 270 130 L 271 130 L 272 131 L 273 131 L 275 133 L 276 133 L 279 136 L 280 136 L 290 146 L 290 147 L 293 150 L 293 151 L 294 152 L 294 153 L 295 154 L 295 155 L 296 154 L 297 155 L 297 154 L 296 153 L 296 151 L 295 150 L 295 148 L 294 147 L 294 145 L 293 144 L 293 143 L 292 142 L 292 140 L 291 139 L 291 138 L 289 136 L 289 135 L 286 132 L 286 131 L 278 123 L 277 123 L 274 120 L 273 120 L 271 118 L 270 118 L 269 117 L 268 117 L 266 115 L 265 115 L 264 114 L 262 114 L 261 113 L 260 113 L 259 112 L 258 112 L 257 111 L 255 111 L 254 110 L 252 110 L 251 109 L 249 109 L 248 108 L 245 108 L 244 107 L 241 107 L 240 106 L 235 106 L 234 105 z" />
<path d="M 211 75 L 210 76 L 203 76 L 202 77 L 198 77 L 197 78 L 194 78 L 193 79 L 190 79 L 189 80 L 188 80 L 187 81 L 185 81 L 184 82 L 182 82 L 181 83 L 180 83 L 179 84 L 177 84 L 176 85 L 175 85 L 173 87 L 172 87 L 171 88 L 170 88 L 168 90 L 167 90 L 165 92 L 164 92 L 152 104 L 152 105 L 150 107 L 150 108 L 149 109 L 149 110 L 148 111 L 148 112 L 147 113 L 147 115 L 146 116 L 146 117 L 145 118 L 145 121 L 144 122 L 144 136 L 146 136 L 146 135 L 147 134 L 147 133 L 150 130 L 150 129 L 160 119 L 161 119 L 164 116 L 165 116 L 167 114 L 168 114 L 169 113 L 170 113 L 172 111 L 173 111 L 174 110 L 175 110 L 176 109 L 177 109 L 178 108 L 180 108 L 182 106 L 184 106 L 185 105 L 187 105 L 188 104 L 190 104 L 191 103 L 194 103 L 195 102 L 199 102 L 200 101 L 205 101 L 206 100 L 234 100 L 235 101 L 240 101 L 241 102 L 245 102 L 246 103 L 249 103 L 250 104 L 252 104 L 253 105 L 255 105 L 256 106 L 258 106 L 259 107 L 260 107 L 261 108 L 262 108 L 263 109 L 264 109 L 265 110 L 266 110 L 267 111 L 268 111 L 270 113 L 271 113 L 272 114 L 273 114 L 275 116 L 276 116 L 279 119 L 280 119 L 290 129 L 290 130 L 293 133 L 293 134 L 294 135 L 294 136 L 296 136 L 296 122 L 295 121 L 295 118 L 294 117 L 294 116 L 293 115 L 293 113 L 292 112 L 292 111 L 291 110 L 291 109 L 290 108 L 290 107 L 288 105 L 288 104 L 276 92 L 275 92 L 273 90 L 272 90 L 270 88 L 269 88 L 268 87 L 267 87 L 265 85 L 264 85 L 263 84 L 261 84 L 260 83 L 259 83 L 258 82 L 256 82 L 255 81 L 254 81 L 253 80 L 251 80 L 250 79 L 247 79 L 246 78 L 243 78 L 242 77 L 238 77 L 237 76 L 230 76 L 229 75 z" />
<path d="M 15 67 L 10 72 L 10 75 L 9 76 L 9 80 L 10 81 L 10 83 L 11 84 L 11 86 L 12 87 L 12 89 L 9 92 L 9 93 L 8 94 L 8 96 L 7 97 L 7 99 L 6 100 L 6 114 L 7 115 L 7 117 L 8 118 L 8 120 L 9 121 L 9 122 L 11 124 L 11 126 L 8 129 L 8 131 L 7 132 L 7 134 L 6 135 L 6 143 L 7 144 L 7 146 L 8 147 L 8 149 L 9 150 L 9 151 L 11 153 L 11 154 L 15 158 L 15 159 L 16 159 L 19 162 L 21 162 L 22 163 L 24 163 L 25 164 L 26 164 L 26 162 L 25 161 L 24 161 L 21 158 L 21 157 L 18 154 L 18 153 L 16 151 L 16 150 L 14 148 L 14 147 L 13 146 L 13 144 L 12 143 L 12 137 L 11 136 L 12 135 L 12 130 L 13 129 L 13 127 L 15 125 L 15 123 L 16 122 L 16 121 L 14 119 L 14 117 L 13 116 L 13 115 L 12 114 L 12 110 L 11 109 L 11 99 L 12 98 L 12 95 L 13 94 L 13 92 L 15 90 L 15 89 L 16 88 L 16 87 L 17 86 L 17 84 L 16 83 L 16 81 L 15 80 L 15 71 L 16 70 L 16 69 L 17 68 L 16 67 z" />
<path d="M 34 62 L 33 63 L 30 63 L 29 64 L 27 64 L 26 65 L 25 65 L 21 69 L 21 71 L 20 72 L 20 79 L 21 80 L 21 82 L 22 83 L 22 84 L 23 85 L 23 86 L 20 89 L 20 90 L 19 91 L 19 92 L 18 93 L 18 95 L 17 96 L 17 98 L 16 99 L 16 109 L 17 110 L 17 113 L 18 114 L 18 115 L 19 116 L 19 118 L 20 119 L 20 120 L 22 122 L 22 123 L 19 126 L 19 127 L 18 128 L 18 130 L 17 131 L 17 135 L 16 136 L 17 137 L 17 142 L 18 143 L 18 145 L 19 146 L 19 147 L 20 148 L 20 149 L 22 151 L 22 152 L 25 155 L 25 156 L 26 156 L 29 159 L 30 159 L 31 160 L 33 160 L 34 161 L 39 161 L 40 160 L 42 160 L 43 161 L 43 171 L 44 172 L 44 175 L 45 176 L 45 178 L 46 179 L 46 180 L 47 181 L 47 183 L 48 184 L 48 185 L 50 187 L 50 188 L 52 190 L 52 191 L 58 197 L 59 197 L 61 199 L 62 199 L 64 201 L 65 201 L 66 202 L 67 202 L 68 203 L 69 203 L 70 204 L 72 204 L 73 205 L 75 205 L 76 206 L 78 206 L 79 207 L 82 207 L 83 208 L 84 208 L 85 209 L 85 211 L 86 212 L 86 213 L 88 215 L 88 216 L 89 217 L 89 218 L 91 220 L 91 221 L 93 223 L 93 224 L 96 227 L 96 228 L 111 243 L 112 243 L 115 246 L 116 246 L 118 248 L 119 248 L 121 250 L 122 250 L 123 251 L 124 251 L 125 252 L 126 252 L 127 253 L 128 253 L 129 254 L 130 254 L 131 255 L 132 255 L 133 256 L 134 256 L 135 257 L 136 257 L 137 258 L 139 258 L 140 259 L 141 259 L 142 260 L 143 260 L 144 261 L 145 261 L 146 262 L 148 262 L 149 263 L 150 263 L 151 264 L 152 264 L 153 265 L 155 265 L 156 266 L 157 266 L 158 267 L 160 267 L 161 268 L 162 268 L 163 269 L 165 269 L 166 270 L 169 270 L 170 271 L 175 271 L 176 270 L 177 270 L 179 268 L 179 265 L 180 264 L 180 254 L 181 253 L 181 220 L 180 219 L 180 193 L 179 192 L 179 190 L 178 189 L 178 188 L 176 186 L 176 185 L 173 182 L 173 181 L 170 178 L 169 178 L 166 175 L 165 175 L 164 174 L 163 174 L 162 173 L 161 173 L 160 172 L 158 172 L 157 171 L 154 171 L 153 170 L 151 170 L 149 168 L 149 167 L 148 166 L 148 163 L 147 162 L 147 160 L 146 159 L 146 158 L 145 157 L 145 155 L 144 154 L 144 153 L 143 152 L 143 151 L 142 150 L 142 149 L 141 148 L 141 147 L 140 146 L 140 145 L 138 143 L 138 142 L 134 138 L 134 137 L 131 134 L 130 134 L 127 131 L 126 131 L 124 129 L 123 129 L 122 128 L 121 128 L 120 127 L 119 127 L 118 126 L 116 126 L 115 125 L 114 125 L 113 124 L 112 124 L 111 123 L 110 123 L 109 122 L 107 122 L 106 121 L 103 121 L 102 120 L 96 120 L 94 118 L 94 110 L 93 109 L 93 105 L 92 104 L 92 101 L 91 100 L 91 98 L 90 97 L 90 95 L 89 94 L 89 93 L 88 92 L 88 91 L 87 90 L 87 89 L 86 88 L 86 87 L 84 85 L 84 84 L 81 81 L 81 80 L 78 77 L 77 77 L 73 73 L 72 73 L 70 71 L 69 71 L 68 70 L 67 70 L 66 69 L 64 69 L 63 68 L 62 68 L 61 67 L 59 67 L 58 66 L 56 66 L 55 65 L 53 65 L 52 64 L 49 64 L 48 63 L 43 63 L 42 62 z" />
<path d="M 222 6 L 221 7 L 220 7 L 219 8 L 219 9 L 213 15 L 207 15 L 207 17 L 206 18 L 206 26 L 205 27 L 205 28 L 203 30 L 203 31 L 201 33 L 201 34 L 199 36 L 199 37 L 198 38 L 198 40 L 197 41 L 197 43 L 196 44 L 196 45 L 195 46 L 195 48 L 194 49 L 194 51 L 193 52 L 193 55 L 192 56 L 192 59 L 191 60 L 191 63 L 190 64 L 190 67 L 189 68 L 189 72 L 188 73 L 189 74 L 192 74 L 193 73 L 196 73 L 197 72 L 202 72 L 203 71 L 209 71 L 210 70 L 230 70 L 231 71 L 237 71 L 238 72 L 243 72 L 244 73 L 248 73 L 248 65 L 249 64 L 249 52 L 248 51 L 248 49 L 247 48 L 247 46 L 245 44 L 245 43 L 244 42 L 244 41 L 243 40 L 243 34 L 244 33 L 244 32 L 245 31 L 245 30 L 258 17 L 258 14 L 257 13 L 257 12 L 255 10 L 254 10 L 253 9 L 252 9 L 251 8 L 240 8 L 239 9 L 232 9 L 231 8 L 229 8 L 228 7 L 226 7 L 225 6 z" />
<g id="2">
<path d="M 287 331 L 288 332 L 289 332 L 290 333 L 292 333 L 293 334 L 295 334 L 296 335 L 298 335 L 299 336 L 302 336 L 303 337 L 307 337 L 308 338 L 329 338 L 330 337 L 333 337 L 334 338 L 333 339 L 331 339 L 330 340 L 307 340 L 306 339 L 300 339 L 299 338 L 295 338 L 294 337 L 292 337 L 291 336 L 288 336 L 285 333 z" />
<path d="M 378 261 L 379 260 L 381 260 L 382 261 L 382 263 L 383 264 L 383 269 L 380 272 L 379 272 L 378 271 z" />
<path d="M 284 255 L 285 254 L 286 255 L 286 256 L 289 259 L 292 259 L 293 258 L 297 258 L 298 257 L 302 257 L 309 264 L 309 265 L 315 271 L 315 272 L 316 273 L 319 273 L 323 269 L 324 269 L 325 268 L 329 268 L 330 269 L 331 269 L 332 270 L 333 270 L 336 273 L 337 273 L 338 274 L 339 274 L 340 273 L 341 273 L 342 272 L 343 272 L 344 271 L 346 271 L 347 270 L 349 270 L 350 269 L 362 269 L 363 270 L 364 270 L 365 271 L 366 271 L 370 275 L 371 275 L 372 276 L 373 276 L 374 277 L 383 277 L 387 273 L 387 271 L 388 270 L 388 264 L 387 263 L 388 262 L 389 262 L 391 264 L 391 265 L 393 267 L 393 269 L 394 270 L 394 276 L 393 277 L 393 283 L 392 284 L 392 286 L 391 287 L 391 288 L 390 289 L 390 290 L 386 294 L 385 294 L 383 296 L 381 296 L 380 297 L 372 297 L 372 299 L 374 301 L 374 302 L 375 303 L 375 309 L 369 315 L 368 315 L 367 316 L 365 316 L 364 317 L 363 317 L 356 324 L 355 324 L 353 326 L 352 326 L 351 327 L 350 327 L 349 328 L 348 328 L 346 330 L 344 330 L 343 331 L 340 331 L 339 332 L 336 332 L 335 333 L 328 333 L 327 334 L 317 334 L 316 333 L 309 333 L 308 332 L 304 332 L 303 331 L 300 331 L 299 330 L 296 330 L 295 329 L 294 329 L 293 328 L 291 328 L 290 327 L 289 327 L 288 326 L 287 326 L 286 325 L 286 324 L 285 323 L 285 287 L 284 286 z" />
<path d="M 155 272 L 156 271 L 159 271 L 161 273 L 160 274 L 159 274 L 158 273 L 156 273 z" />
<path d="M 152 271 L 153 270 L 155 270 L 156 271 L 155 272 L 153 272 z" />
<path d="M 150 270 L 151 269 L 152 269 L 153 270 L 152 271 L 151 271 z" />
<path d="M 147 269 L 148 268 L 150 268 L 151 269 L 150 270 L 148 270 z" />
<path d="M 145 268 L 146 267 L 147 267 L 148 268 L 147 269 L 146 269 z" />
<path d="M 140 266 L 141 265 L 143 265 L 144 266 L 145 266 L 146 267 L 145 268 L 143 268 L 142 267 L 141 267 z" />
<path d="M 138 265 L 139 264 L 140 264 L 141 265 L 140 266 L 139 266 z" />
<path d="M 136 264 L 137 263 L 138 263 L 139 264 L 138 265 L 137 265 z" />
<path d="M 131 262 L 132 261 L 134 261 L 135 262 L 136 262 L 137 263 L 136 264 L 134 264 L 133 263 L 132 263 z" />
<path d="M 125 259 L 126 258 L 128 258 L 129 259 L 130 259 L 132 261 L 131 262 L 130 262 L 129 261 L 128 261 L 127 260 L 126 260 z" />
<path d="M 74 212 L 75 211 L 77 211 L 78 212 L 80 212 L 81 213 L 81 214 L 82 215 L 82 216 L 83 217 L 83 218 L 85 220 L 85 221 L 86 222 L 86 223 L 89 226 L 89 227 L 92 230 L 92 231 L 108 247 L 109 247 L 112 250 L 113 250 L 115 252 L 116 252 L 117 253 L 118 253 L 119 254 L 120 254 L 122 256 L 123 256 L 124 257 L 125 257 L 126 258 L 125 259 L 123 259 L 122 258 L 121 258 L 119 256 L 118 256 L 117 255 L 116 255 L 115 254 L 114 254 L 112 252 L 111 252 L 109 250 L 108 250 L 106 248 L 105 248 L 102 245 L 101 245 L 85 229 L 85 228 L 82 225 L 82 224 L 80 222 L 80 221 L 78 219 L 78 218 L 77 217 L 77 216 L 76 215 L 76 214 z" />
<path d="M 65 208 L 66 207 L 68 207 L 69 208 L 71 208 L 73 210 L 72 211 L 71 211 L 70 210 L 68 210 L 67 209 L 66 209 z" />
<path d="M 32 167 L 33 166 L 36 166 L 38 168 L 38 172 L 39 173 L 39 176 L 40 177 L 40 179 L 41 180 L 41 181 L 42 182 L 42 184 L 43 185 L 43 186 L 44 187 L 44 188 L 46 190 L 46 191 L 48 193 L 48 194 L 55 201 L 56 201 L 58 203 L 59 203 L 60 204 L 61 204 L 62 205 L 63 205 L 64 206 L 65 206 L 66 207 L 65 208 L 63 208 L 62 207 L 61 207 L 60 206 L 59 206 L 58 205 L 57 205 L 56 204 L 55 204 L 53 202 L 52 202 L 49 199 L 48 199 L 42 193 L 42 192 L 39 189 L 39 188 L 38 187 L 38 186 L 36 184 L 36 183 L 35 182 L 35 180 L 34 179 L 34 177 L 33 176 L 33 172 L 32 171 z" />
<path d="M 202 143 L 203 142 L 229 142 L 230 143 L 235 143 L 236 144 L 239 144 L 240 145 L 243 145 L 244 146 L 246 146 L 247 147 L 249 147 L 250 148 L 251 148 L 252 149 L 253 149 L 254 150 L 255 150 L 256 151 L 257 151 L 258 152 L 259 152 L 261 154 L 262 154 L 265 157 L 266 157 L 271 162 L 271 163 L 274 166 L 274 167 L 275 168 L 275 169 L 276 170 L 276 172 L 277 173 L 277 193 L 278 194 L 278 246 L 279 247 L 279 286 L 280 287 L 280 1092 L 279 1093 L 160 1093 L 159 1092 L 159 280 L 161 278 L 168 278 L 170 276 L 176 276 L 177 275 L 179 275 L 183 271 L 183 269 L 184 268 L 184 265 L 185 264 L 185 254 L 186 253 L 186 220 L 185 219 L 185 192 L 184 191 L 184 189 L 183 188 L 183 187 L 182 186 L 182 185 L 180 183 L 180 182 L 177 179 L 177 178 L 173 174 L 172 174 L 169 171 L 168 171 L 167 170 L 166 170 L 164 168 L 162 168 L 161 167 L 161 166 L 162 165 L 162 164 L 164 162 L 164 161 L 170 155 L 171 155 L 173 153 L 174 153 L 176 151 L 177 151 L 178 150 L 179 150 L 180 149 L 181 149 L 182 148 L 183 148 L 184 147 L 186 147 L 187 146 L 189 146 L 190 145 L 192 145 L 193 144 L 196 144 L 197 143 z" />
<path d="M 205 123 L 206 122 L 234 122 L 235 123 L 240 123 L 241 124 L 244 124 L 245 125 L 248 125 L 249 126 L 251 126 L 252 127 L 254 127 L 255 128 L 257 128 L 258 129 L 259 129 L 260 130 L 261 130 L 262 131 L 263 131 L 264 132 L 265 132 L 267 134 L 268 134 L 269 135 L 270 135 L 272 137 L 273 137 L 276 140 L 277 140 L 286 149 L 286 150 L 289 153 L 289 154 L 291 156 L 291 157 L 292 158 L 292 159 L 293 160 L 293 161 L 294 162 L 294 164 L 295 165 L 295 168 L 296 169 L 296 185 L 295 186 L 295 189 L 294 190 L 294 192 L 293 193 L 293 194 L 292 195 L 292 196 L 291 197 L 291 198 L 289 200 L 289 201 L 286 204 L 286 205 L 285 206 L 285 207 L 284 208 L 283 207 L 283 194 L 282 193 L 282 172 L 281 171 L 281 169 L 280 168 L 280 166 L 279 165 L 279 164 L 278 163 L 278 162 L 275 159 L 275 158 L 270 153 L 269 153 L 266 150 L 265 150 L 263 148 L 262 148 L 261 147 L 260 147 L 259 146 L 258 146 L 257 145 L 256 145 L 255 144 L 253 144 L 252 143 L 251 143 L 250 142 L 248 142 L 247 141 L 245 141 L 244 140 L 241 140 L 240 139 L 236 139 L 235 138 L 230 138 L 229 137 L 203 137 L 202 138 L 197 138 L 196 139 L 193 139 L 192 140 L 189 140 L 188 141 L 186 141 L 185 142 L 183 142 L 182 143 L 181 143 L 180 144 L 178 144 L 177 145 L 176 145 L 175 146 L 174 146 L 173 147 L 172 147 L 170 149 L 169 149 L 166 152 L 165 152 L 160 157 L 160 158 L 158 160 L 158 161 L 157 162 L 157 163 L 155 165 L 154 165 L 153 164 L 153 162 L 152 161 L 152 159 L 151 158 L 151 157 L 150 156 L 150 155 L 151 154 L 151 153 L 154 150 L 154 149 L 163 140 L 164 140 L 167 137 L 168 137 L 170 135 L 171 135 L 172 134 L 173 134 L 175 132 L 176 132 L 177 131 L 178 131 L 179 130 L 180 130 L 181 129 L 182 129 L 183 128 L 185 128 L 186 127 L 188 127 L 189 126 L 191 126 L 192 125 L 195 125 L 196 124 L 199 124 L 200 123 z" />
<path d="M 205 106 L 206 105 L 234 105 L 235 106 L 240 106 L 241 107 L 244 107 L 245 108 L 248 108 L 249 109 L 251 109 L 252 110 L 254 110 L 255 111 L 257 111 L 258 112 L 259 112 L 260 113 L 261 113 L 262 114 L 263 114 L 264 115 L 265 115 L 267 117 L 268 117 L 269 118 L 270 118 L 272 120 L 273 120 L 276 123 L 277 123 L 286 132 L 286 133 L 289 136 L 289 137 L 291 139 L 291 140 L 292 141 L 292 142 L 293 143 L 293 144 L 294 145 L 294 147 L 295 148 L 295 150 L 296 151 L 296 153 L 295 154 L 294 153 L 294 152 L 293 151 L 293 150 L 292 149 L 292 148 L 290 146 L 290 145 L 281 136 L 280 136 L 277 133 L 276 133 L 274 131 L 273 131 L 272 130 L 271 130 L 269 128 L 268 128 L 267 127 L 266 127 L 265 126 L 263 126 L 262 125 L 261 125 L 260 124 L 259 124 L 258 123 L 256 123 L 255 122 L 253 122 L 252 121 L 250 121 L 249 120 L 246 120 L 245 119 L 241 119 L 240 118 L 235 118 L 234 117 L 206 117 L 205 118 L 200 118 L 199 119 L 195 119 L 194 120 L 191 120 L 190 121 L 188 121 L 187 122 L 185 122 L 184 123 L 182 123 L 181 124 L 180 124 L 179 125 L 178 125 L 177 126 L 175 126 L 174 127 L 173 127 L 172 128 L 171 128 L 169 130 L 168 130 L 167 131 L 166 131 L 164 133 L 163 133 L 160 136 L 159 136 L 150 145 L 150 146 L 148 148 L 147 148 L 146 147 L 146 145 L 147 144 L 147 143 L 148 142 L 148 141 L 149 140 L 149 139 L 151 137 L 151 136 L 154 133 L 154 132 L 163 123 L 164 123 L 167 120 L 168 120 L 170 118 L 171 118 L 172 117 L 173 117 L 175 115 L 176 115 L 177 114 L 178 114 L 179 113 L 180 113 L 181 112 L 182 112 L 183 111 L 185 111 L 186 110 L 188 110 L 189 109 L 191 109 L 192 108 L 195 108 L 196 107 L 199 107 L 200 106 z" />
<path d="M 210 76 L 211 75 L 229 75 L 230 76 L 237 76 L 238 77 L 242 77 L 243 78 L 246 78 L 247 79 L 250 79 L 251 80 L 253 80 L 254 81 L 255 81 L 256 82 L 258 82 L 259 83 L 260 83 L 261 84 L 262 84 L 263 85 L 264 85 L 266 87 L 267 87 L 268 88 L 269 88 L 271 90 L 272 90 L 274 92 L 275 92 L 288 105 L 288 106 L 290 108 L 290 109 L 291 110 L 291 111 L 293 113 L 293 115 L 294 116 L 294 117 L 295 118 L 295 121 L 296 122 L 296 135 L 295 136 L 294 135 L 294 134 L 293 133 L 293 132 L 290 129 L 290 128 L 281 119 L 280 119 L 277 116 L 276 116 L 274 114 L 273 114 L 272 113 L 271 113 L 269 111 L 268 111 L 267 110 L 266 110 L 265 109 L 263 109 L 262 108 L 261 108 L 260 107 L 259 107 L 258 106 L 256 106 L 255 105 L 253 105 L 252 104 L 250 104 L 249 103 L 246 103 L 245 102 L 241 102 L 240 101 L 235 101 L 234 100 L 206 100 L 205 101 L 200 101 L 199 102 L 195 102 L 194 103 L 191 103 L 190 104 L 188 104 L 187 105 L 185 105 L 184 106 L 182 106 L 181 107 L 180 107 L 179 108 L 178 108 L 177 109 L 175 109 L 174 110 L 173 110 L 172 111 L 171 111 L 169 113 L 168 113 L 167 114 L 166 114 L 164 116 L 163 116 L 160 119 L 159 119 L 150 128 L 150 129 L 147 132 L 147 133 L 146 134 L 146 135 L 145 136 L 144 135 L 144 122 L 145 121 L 145 118 L 146 117 L 146 116 L 147 115 L 147 113 L 149 111 L 149 110 L 150 109 L 150 108 L 152 106 L 152 105 L 165 92 L 166 92 L 168 90 L 169 90 L 171 88 L 172 88 L 173 87 L 174 87 L 176 85 L 177 85 L 178 84 L 179 84 L 180 83 L 181 83 L 182 82 L 184 82 L 185 81 L 187 81 L 188 80 L 189 80 L 190 79 L 193 79 L 194 78 L 197 78 L 198 77 L 202 77 L 203 76 z" />
<path d="M 24 163 L 25 162 L 26 163 L 25 164 z" />
<path d="M 15 67 L 16 67 L 17 68 L 16 69 L 16 70 L 15 71 L 15 80 L 16 81 L 16 83 L 17 84 L 17 85 L 16 86 L 16 87 L 15 88 L 15 89 L 14 90 L 14 91 L 13 92 L 13 94 L 12 95 L 12 98 L 11 99 L 11 109 L 12 110 L 12 114 L 13 115 L 13 116 L 14 117 L 14 119 L 15 120 L 15 121 L 16 122 L 15 123 L 15 124 L 14 125 L 14 126 L 13 127 L 13 129 L 12 130 L 12 135 L 11 136 L 12 137 L 12 143 L 13 144 L 13 146 L 14 147 L 14 148 L 15 149 L 15 150 L 16 151 L 16 152 L 18 154 L 18 155 L 21 158 L 21 159 L 22 160 L 23 160 L 25 162 L 24 163 L 22 163 L 21 162 L 20 162 L 17 159 L 16 159 L 15 158 L 15 157 L 11 153 L 11 152 L 9 150 L 9 149 L 8 148 L 8 147 L 7 146 L 7 144 L 6 143 L 6 135 L 7 134 L 7 132 L 8 131 L 8 130 L 11 127 L 11 123 L 9 121 L 9 120 L 8 119 L 8 118 L 7 117 L 7 115 L 6 114 L 6 100 L 7 99 L 7 97 L 8 96 L 8 95 L 9 94 L 9 93 L 12 90 L 12 87 L 11 86 L 11 84 L 10 83 L 10 81 L 9 80 L 9 76 L 10 75 L 10 73 L 13 70 L 13 69 z" />
<path d="M 33 63 L 34 62 L 42 62 L 43 63 L 48 63 L 49 64 L 52 64 L 53 65 L 55 65 L 56 66 L 58 66 L 59 67 L 61 67 L 62 68 L 63 68 L 64 69 L 65 69 L 66 70 L 67 70 L 68 71 L 69 71 L 71 73 L 72 73 L 76 77 L 77 77 L 81 81 L 81 82 L 84 85 L 84 86 L 86 88 L 86 89 L 87 90 L 87 91 L 88 92 L 88 93 L 90 95 L 90 97 L 91 98 L 91 100 L 92 101 L 92 104 L 93 105 L 93 109 L 94 110 L 94 119 L 95 120 L 102 120 L 103 121 L 106 121 L 107 122 L 109 122 L 110 123 L 111 123 L 112 124 L 113 124 L 114 125 L 115 125 L 116 126 L 117 126 L 118 127 L 119 127 L 120 128 L 121 128 L 122 129 L 123 129 L 125 131 L 126 131 L 129 134 L 130 134 L 135 139 L 135 140 L 138 143 L 138 144 L 140 146 L 140 147 L 141 148 L 141 149 L 142 150 L 142 151 L 144 153 L 144 154 L 145 155 L 145 157 L 146 158 L 146 159 L 147 160 L 147 162 L 148 163 L 148 166 L 149 167 L 149 169 L 150 170 L 153 170 L 154 171 L 157 171 L 158 172 L 160 172 L 162 174 L 163 174 L 164 175 L 165 175 L 168 178 L 169 178 L 173 182 L 173 183 L 176 186 L 176 187 L 178 189 L 178 190 L 179 191 L 179 192 L 180 193 L 180 219 L 181 220 L 181 253 L 180 254 L 180 264 L 179 265 L 179 267 L 175 271 L 170 271 L 169 270 L 166 270 L 165 269 L 163 269 L 162 268 L 161 268 L 160 267 L 158 267 L 157 266 L 156 266 L 155 265 L 153 265 L 152 264 L 151 264 L 150 263 L 149 263 L 148 262 L 146 262 L 145 261 L 144 261 L 143 260 L 142 260 L 141 259 L 140 259 L 139 258 L 137 258 L 136 257 L 135 257 L 133 255 L 132 255 L 131 254 L 130 254 L 129 253 L 128 253 L 127 252 L 126 252 L 125 251 L 124 251 L 123 250 L 122 250 L 120 248 L 119 248 L 117 246 L 116 246 L 113 243 L 112 243 L 96 227 L 96 226 L 93 223 L 93 222 L 91 220 L 91 219 L 89 217 L 89 216 L 88 215 L 88 214 L 86 212 L 86 211 L 85 210 L 85 208 L 83 208 L 82 207 L 79 207 L 78 206 L 76 206 L 75 205 L 73 205 L 72 204 L 70 204 L 68 202 L 67 202 L 66 201 L 65 201 L 63 199 L 62 199 L 60 197 L 59 197 L 52 190 L 52 189 L 50 187 L 50 186 L 48 184 L 48 183 L 47 182 L 47 181 L 46 180 L 46 179 L 45 178 L 45 176 L 44 175 L 44 172 L 43 171 L 43 161 L 42 160 L 40 160 L 39 161 L 34 161 L 33 160 L 32 160 L 31 159 L 30 159 L 27 156 L 26 156 L 25 155 L 25 154 L 22 151 L 22 150 L 20 148 L 20 147 L 18 145 L 18 143 L 17 142 L 17 137 L 16 136 L 17 135 L 17 131 L 18 130 L 18 129 L 19 128 L 19 127 L 21 125 L 21 124 L 22 123 L 22 122 L 21 121 L 21 120 L 20 119 L 20 118 L 19 117 L 19 116 L 18 115 L 18 114 L 17 113 L 17 110 L 16 109 L 16 99 L 17 98 L 17 96 L 18 95 L 18 93 L 20 91 L 20 90 L 22 88 L 22 87 L 23 86 L 23 85 L 22 84 L 22 83 L 21 82 L 21 80 L 20 79 L 20 72 L 21 71 L 21 70 L 26 65 L 27 65 L 28 64 L 29 64 L 30 63 z" />
<path d="M 222 6 L 225 6 L 226 7 L 228 7 L 229 8 L 231 8 L 232 9 L 239 9 L 240 8 L 251 8 L 253 10 L 254 10 L 258 14 L 258 16 L 245 29 L 245 30 L 244 31 L 244 33 L 243 34 L 243 40 L 244 41 L 244 43 L 245 44 L 245 45 L 247 47 L 247 48 L 248 49 L 248 51 L 249 52 L 249 64 L 248 65 L 248 72 L 247 73 L 244 73 L 243 72 L 238 72 L 237 71 L 231 71 L 230 70 L 210 70 L 209 71 L 203 71 L 202 72 L 197 72 L 196 73 L 193 73 L 192 74 L 189 74 L 188 73 L 189 72 L 189 68 L 190 67 L 190 64 L 191 63 L 191 60 L 192 59 L 192 56 L 193 55 L 193 52 L 194 51 L 194 49 L 195 48 L 195 46 L 196 45 L 196 44 L 197 43 L 197 41 L 198 40 L 198 39 L 199 38 L 199 37 L 201 35 L 201 34 L 203 32 L 203 31 L 205 29 L 205 27 L 206 26 L 206 18 L 207 17 L 207 16 L 208 15 L 213 15 L 214 14 L 215 14 L 219 10 L 219 9 z" />
</g>
</g>
</svg>
</svg>