<?xml version="1.0" encoding="UTF-8"?>
<svg xmlns="http://www.w3.org/2000/svg" xmlns:xlink="http://www.w3.org/1999/xlink"
     width="322" height="1535" viewBox="0 0 322 1535">
<defs>
</defs>
<svg id="0" fill="grey" stroke="black">
<path d="M 43 0 L 41 2 L 41 23 L 40 24 L 40 60 L 39 61 L 39 98 L 38 99 L 38 136 L 37 137 L 37 174 L 36 175 L 36 211 L 35 212 L 35 249 L 34 250 L 34 287 L 33 288 L 33 325 L 32 326 L 32 362 L 31 363 L 31 400 L 30 401 L 30 438 L 29 439 L 29 476 L 28 477 L 28 513 L 27 514 L 27 551 L 26 552 L 26 589 L 25 590 L 25 626 L 24 627 L 24 664 L 23 665 L 23 702 L 22 703 L 22 740 L 21 741 L 21 777 L 20 778 L 20 815 L 19 816 L 19 853 L 18 854 L 18 891 L 17 892 L 17 928 L 16 929 L 16 966 L 15 967 L 15 1004 L 14 1005 L 14 1041 L 13 1042 L 13 1079 L 12 1080 L 12 1117 L 11 1118 L 11 1155 L 10 1156 L 10 1192 L 9 1193 L 9 1230 L 8 1231 L 8 1268 L 7 1269 L 7 1306 L 6 1307 L 6 1343 L 5 1344 L 5 1381 L 4 1382 L 4 1419 L 3 1420 L 3 1456 L 2 1457 L 2 1494 L 1 1495 L 1 1532 L 0 1533 L 1 1534 L 321 1534 L 321 1519 L 320 1518 L 320 1496 L 319 1495 L 319 1472 L 318 1471 L 318 1448 L 317 1447 L 317 1425 L 316 1424 L 316 1401 L 315 1400 L 315 1377 L 314 1376 L 314 1354 L 313 1353 L 313 1330 L 312 1329 L 312 1306 L 311 1305 L 311 1283 L 310 1282 L 310 1259 L 309 1258 L 309 1235 L 308 1234 L 308 1211 L 307 1210 L 307 1188 L 306 1187 L 306 1164 L 305 1163 L 305 1140 L 304 1139 L 304 1117 L 303 1116 L 303 1093 L 302 1092 L 302 1069 L 301 1068 L 301 1046 L 300 1045 L 300 1022 L 299 1021 L 299 998 L 298 997 L 298 974 L 297 973 L 297 951 L 296 950 L 296 927 L 295 926 L 295 903 L 294 902 L 294 880 L 293 879 L 293 856 L 292 855 L 292 832 L 291 831 L 291 809 L 290 808 L 290 785 L 289 784 L 289 761 L 288 760 L 288 737 L 287 736 L 287 714 L 286 713 L 286 690 L 285 689 L 285 666 L 284 665 L 284 643 L 283 642 L 283 619 L 282 618 L 282 595 L 281 594 L 281 572 L 280 571 L 280 548 L 279 547 L 279 524 L 278 523 L 278 500 L 277 499 L 277 477 L 276 476 L 276 453 L 275 452 L 275 429 L 274 428 L 274 406 L 273 405 L 273 382 L 272 381 L 272 358 L 271 357 L 271 335 L 270 334 L 270 311 L 269 310 L 269 287 L 268 286 L 268 264 L 267 263 L 267 240 L 266 239 L 266 216 L 265 215 L 265 192 L 264 191 L 264 169 L 263 168 L 263 145 L 262 144 L 262 121 L 261 120 L 261 98 L 260 97 L 260 74 L 259 73 L 259 50 L 258 49 L 258 27 L 257 26 L 257 3 L 256 2 L 256 1 L 255 0 z" />
<path d="M 43 0 L 255 0 L 256 1 L 256 2 L 257 3 L 257 26 L 258 27 L 258 49 L 259 50 L 259 73 L 260 74 L 260 97 L 261 98 L 261 120 L 262 121 L 262 144 L 263 145 L 263 168 L 264 169 L 264 191 L 265 192 L 265 215 L 266 216 L 266 239 L 267 240 L 267 263 L 268 264 L 268 286 L 269 287 L 269 310 L 270 311 L 270 334 L 271 335 L 271 357 L 272 358 L 272 381 L 273 382 L 273 405 L 274 406 L 274 428 L 275 429 L 275 452 L 276 453 L 276 476 L 277 477 L 277 499 L 278 500 L 278 523 L 279 524 L 279 547 L 280 548 L 280 571 L 281 572 L 281 594 L 282 595 L 282 618 L 283 619 L 283 642 L 284 643 L 284 665 L 285 666 L 285 689 L 286 690 L 286 713 L 287 714 L 287 736 L 288 737 L 288 760 L 289 761 L 289 784 L 290 785 L 290 808 L 291 809 L 291 831 L 292 832 L 292 855 L 293 856 L 293 879 L 294 880 L 294 902 L 295 903 L 295 926 L 296 927 L 296 950 L 297 951 L 297 973 L 298 974 L 298 997 L 299 998 L 299 1021 L 300 1022 L 300 1045 L 301 1046 L 301 1068 L 302 1069 L 302 1092 L 303 1093 L 303 1116 L 304 1117 L 304 1139 L 305 1140 L 305 1163 L 306 1164 L 306 1187 L 307 1188 L 307 1210 L 308 1211 L 308 1234 L 309 1235 L 309 1258 L 310 1259 L 310 1282 L 311 1283 L 311 1305 L 312 1306 L 312 1329 L 313 1330 L 313 1353 L 314 1354 L 314 1376 L 315 1377 L 315 1400 L 316 1401 L 316 1424 L 317 1425 L 317 1447 L 318 1448 L 318 1471 L 319 1472 L 319 1495 L 320 1496 L 320 1518 L 321 1519 L 321 1533 L 320 1534 L 1 1534 L 0 1533 L 1 1532 L 1 1495 L 2 1494 L 2 1457 L 3 1456 L 3 1420 L 4 1419 L 4 1382 L 5 1381 L 5 1344 L 6 1343 L 6 1307 L 7 1306 L 7 1269 L 8 1268 L 8 1231 L 9 1230 L 9 1193 L 10 1192 L 10 1156 L 11 1155 L 11 1118 L 12 1117 L 12 1080 L 13 1079 L 13 1042 L 14 1041 L 14 1005 L 15 1004 L 15 967 L 16 966 L 16 929 L 17 928 L 17 892 L 18 891 L 18 854 L 19 853 L 19 816 L 20 815 L 20 778 L 21 777 L 21 741 L 22 740 L 22 703 L 23 702 L 23 665 L 24 664 L 24 627 L 25 626 L 25 590 L 26 589 L 26 552 L 27 551 L 27 514 L 28 513 L 28 477 L 29 476 L 29 439 L 30 438 L 30 401 L 31 400 L 31 363 L 32 362 L 32 326 L 33 325 L 33 288 L 34 287 L 34 250 L 35 249 L 35 212 L 36 211 L 36 175 L 37 174 L 37 137 L 38 136 L 38 99 L 39 98 L 39 61 L 40 60 L 40 24 L 41 23 L 41 2 z" />
<g id="1">
<path d="M 277 1501 L 276 1502 L 275 1502 L 275 1528 L 276 1529 L 316 1529 L 316 1521 L 315 1520 L 315 1502 L 314 1502 L 313 1501 z" />
<path d="M 9 1501 L 8 1502 L 7 1502 L 7 1529 L 270 1529 L 270 1502 L 269 1502 L 268 1501 z" />
<path d="M 275 1470 L 274 1471 L 274 1492 L 275 1493 L 275 1496 L 312 1496 L 313 1497 L 314 1496 L 314 1473 L 313 1472 L 313 1470 z" />
<path d="M 9 1470 L 8 1471 L 8 1496 L 269 1496 L 270 1495 L 270 1494 L 269 1493 L 269 1471 L 268 1470 z" />
<path d="M 275 1443 L 273 1445 L 273 1455 L 274 1456 L 274 1465 L 313 1465 L 313 1450 L 312 1449 L 312 1444 L 311 1444 L 310 1443 z" />
<path d="M 11 1443 L 10 1444 L 9 1444 L 9 1456 L 8 1457 L 8 1464 L 9 1465 L 268 1465 L 269 1464 L 269 1457 L 268 1456 L 268 1444 L 267 1444 L 266 1443 z" />
<path d="M 273 1412 L 273 1413 L 272 1414 L 272 1417 L 273 1418 L 273 1438 L 312 1438 L 312 1426 L 311 1425 L 311 1412 z" />
<path d="M 10 1412 L 10 1418 L 9 1419 L 9 1438 L 268 1438 L 268 1419 L 267 1418 L 267 1412 z" />
<path d="M 272 1386 L 272 1406 L 273 1407 L 310 1407 L 311 1406 L 311 1402 L 310 1401 L 310 1387 L 309 1386 z" />
<path d="M 12 1385 L 10 1387 L 10 1407 L 267 1407 L 267 1387 L 265 1385 z" />
<path d="M 273 1354 L 272 1355 L 271 1355 L 271 1379 L 272 1380 L 272 1381 L 309 1381 L 310 1380 L 310 1379 L 309 1378 L 309 1356 L 307 1354 z" />
<path d="M 12 1354 L 11 1355 L 11 1380 L 12 1381 L 13 1380 L 264 1380 L 265 1381 L 266 1380 L 266 1355 L 265 1354 z" />
<path d="M 271 1328 L 270 1329 L 270 1341 L 271 1342 L 271 1349 L 308 1349 L 308 1331 L 307 1330 L 307 1328 z" />
<path d="M 12 1328 L 12 1342 L 11 1343 L 11 1348 L 12 1349 L 265 1349 L 266 1348 L 266 1344 L 265 1343 L 265 1328 z" />
<path d="M 271 1296 L 269 1298 L 269 1304 L 270 1305 L 270 1322 L 271 1323 L 307 1323 L 307 1307 L 306 1306 L 306 1297 L 305 1297 L 304 1296 z" />
<path d="M 15 1296 L 14 1297 L 13 1297 L 13 1305 L 12 1306 L 12 1323 L 265 1323 L 265 1306 L 264 1305 L 264 1297 L 263 1297 L 262 1296 z" />
<path d="M 269 1270 L 269 1290 L 270 1291 L 306 1291 L 306 1284 L 305 1283 L 305 1270 z" />
<path d="M 14 1270 L 14 1271 L 13 1272 L 13 1291 L 264 1291 L 264 1272 L 263 1271 L 263 1270 z" />
<path d="M 270 1238 L 269 1239 L 268 1239 L 268 1263 L 269 1264 L 269 1265 L 304 1265 L 305 1264 L 305 1260 L 304 1259 L 304 1240 L 302 1238 z" />
<path d="M 16 1238 L 15 1239 L 14 1239 L 14 1265 L 263 1265 L 263 1239 L 262 1239 L 261 1238 z" />
<path d="M 268 1212 L 267 1213 L 267 1228 L 268 1229 L 268 1233 L 301 1233 L 302 1234 L 303 1233 L 303 1214 L 302 1213 L 302 1212 z" />
<path d="M 15 1212 L 15 1229 L 14 1230 L 14 1232 L 15 1233 L 262 1233 L 263 1232 L 263 1230 L 262 1229 L 262 1212 z" />
<path d="M 268 1180 L 266 1182 L 266 1190 L 267 1191 L 267 1207 L 302 1207 L 302 1189 L 301 1188 L 301 1181 L 300 1181 L 299 1180 z" />
<path d="M 18 1180 L 17 1181 L 16 1181 L 16 1191 L 15 1192 L 15 1206 L 16 1207 L 261 1207 L 262 1206 L 262 1193 L 261 1192 L 261 1181 L 260 1181 L 259 1180 z" />
<path d="M 266 1154 L 266 1175 L 301 1175 L 301 1165 L 300 1164 L 300 1154 z" />
<path d="M 17 1154 L 17 1155 L 16 1156 L 16 1175 L 261 1175 L 261 1156 L 260 1155 L 260 1154 z" />
<path d="M 267 1122 L 266 1123 L 265 1123 L 265 1147 L 266 1148 L 266 1149 L 299 1149 L 300 1148 L 300 1142 L 299 1141 L 299 1123 L 298 1123 L 297 1122 z" />
<path d="M 19 1122 L 18 1123 L 17 1123 L 17 1149 L 260 1149 L 260 1123 L 259 1123 L 258 1122 z" />
<path d="M 265 1096 L 264 1097 L 264 1115 L 265 1116 L 265 1117 L 296 1117 L 297 1118 L 298 1117 L 298 1097 L 297 1096 z" />
<path d="M 18 1096 L 18 1117 L 19 1118 L 20 1117 L 257 1117 L 258 1118 L 259 1117 L 259 1096 z" />
<path d="M 262 1009 L 262 1040 L 263 1041 L 263 1077 L 264 1078 L 264 1089 L 294 1089 L 294 1010 L 293 1009 z" />
<path d="M 21 1009 L 20 1010 L 20 1040 L 19 1041 L 19 1078 L 18 1079 L 18 1089 L 259 1089 L 259 1079 L 258 1078 L 258 1042 L 257 1041 L 257 1010 L 256 1009 z" />
<path d="M 263 980 L 262 981 L 261 981 L 261 1000 L 262 1001 L 293 1001 L 294 1000 L 294 999 L 293 998 L 293 981 L 292 981 L 291 980 z" />
<path d="M 22 980 L 21 981 L 21 1001 L 22 1002 L 23 1001 L 254 1001 L 255 1002 L 256 1001 L 256 981 L 255 980 z" />
<path d="M 261 949 L 260 950 L 260 964 L 261 965 L 261 975 L 290 975 L 291 976 L 292 975 L 292 952 L 291 951 L 291 949 z" />
<path d="M 24 948 L 23 949 L 22 949 L 22 965 L 21 966 L 21 974 L 22 975 L 255 975 L 256 974 L 256 966 L 255 965 L 255 949 L 254 949 L 253 948 z" />
<path d="M 261 922 L 259 924 L 259 926 L 260 927 L 260 943 L 261 944 L 291 944 L 291 928 L 290 927 L 290 923 L 289 923 L 288 922 z" />
<path d="M 25 922 L 24 923 L 23 923 L 23 927 L 22 928 L 22 943 L 255 943 L 255 929 L 254 928 L 254 923 L 253 923 L 252 922 z" />
<path d="M 259 891 L 259 916 L 260 917 L 290 917 L 290 905 L 289 904 L 289 891 z" />
<path d="M 24 891 L 24 892 L 23 893 L 23 917 L 254 917 L 254 893 L 253 892 L 253 891 z" />
<path d="M 260 864 L 259 865 L 258 865 L 258 884 L 259 885 L 259 886 L 288 886 L 289 885 L 289 881 L 288 880 L 288 865 L 287 865 L 286 864 z" />
<path d="M 26 864 L 25 865 L 24 865 L 24 886 L 253 886 L 253 865 L 252 865 L 251 864 z" />
<path d="M 258 833 L 257 834 L 257 851 L 258 852 L 258 859 L 287 859 L 288 858 L 288 857 L 287 856 L 287 835 L 286 834 L 286 833 z" />
<path d="M 25 833 L 25 852 L 24 853 L 24 858 L 25 859 L 252 859 L 253 858 L 253 853 L 252 852 L 252 833 z" />
<path d="M 258 806 L 256 808 L 256 813 L 257 814 L 257 828 L 286 828 L 286 810 L 285 809 L 285 807 L 284 807 L 283 806 z" />
<path d="M 28 806 L 27 807 L 26 807 L 26 814 L 25 815 L 25 827 L 26 828 L 251 828 L 252 827 L 252 815 L 251 814 L 251 807 L 250 807 L 249 806 z" />
<path d="M 256 775 L 256 800 L 257 801 L 285 801 L 285 786 L 284 785 L 284 775 z" />
<path d="M 27 775 L 27 776 L 26 777 L 26 801 L 251 801 L 251 778 L 250 777 L 250 775 z" />
<path d="M 257 748 L 256 749 L 255 749 L 255 768 L 256 769 L 256 770 L 283 770 L 284 769 L 284 762 L 283 761 L 283 749 L 282 749 L 281 748 z" />
<path d="M 29 748 L 28 749 L 27 749 L 27 770 L 250 770 L 250 749 L 249 749 L 248 748 z" />
<path d="M 255 717 L 254 718 L 254 738 L 255 739 L 255 743 L 282 743 L 283 742 L 283 739 L 282 738 L 282 718 L 281 717 z" />
<path d="M 29 717 L 28 718 L 28 739 L 27 740 L 27 742 L 28 743 L 249 743 L 250 742 L 250 740 L 249 739 L 249 718 L 248 717 z" />
<path d="M 255 690 L 253 692 L 253 700 L 254 701 L 254 712 L 281 712 L 281 692 L 279 690 z" />
<path d="M 31 690 L 30 691 L 29 691 L 29 701 L 28 702 L 28 711 L 29 712 L 248 712 L 249 711 L 249 702 L 248 701 L 248 691 L 247 691 L 246 690 z" />
<path d="M 253 659 L 253 660 L 252 661 L 252 662 L 253 663 L 253 685 L 280 685 L 280 668 L 279 667 L 279 659 z" />
<path d="M 30 659 L 30 663 L 29 664 L 29 685 L 248 685 L 248 664 L 247 663 L 247 659 z" />
<path d="M 252 633 L 252 653 L 253 654 L 279 654 L 279 644 L 278 643 L 278 633 z" />
<path d="M 32 632 L 31 633 L 30 633 L 30 654 L 247 654 L 247 633 L 246 633 L 245 632 z" />
<path d="M 253 601 L 252 602 L 251 602 L 251 624 L 252 625 L 252 628 L 277 628 L 278 627 L 278 620 L 277 619 L 277 602 L 276 602 L 275 601 z" />
<path d="M 32 601 L 31 602 L 31 625 L 30 626 L 32 628 L 33 627 L 244 627 L 245 628 L 246 627 L 246 602 L 245 601 z" />
<path d="M 251 575 L 250 576 L 250 587 L 251 588 L 251 596 L 274 596 L 275 597 L 276 596 L 276 576 L 275 575 z" />
<path d="M 32 575 L 32 588 L 31 589 L 31 595 L 32 596 L 245 596 L 246 595 L 246 589 L 245 588 L 245 575 z" />
<path d="M 250 558 L 250 569 L 251 570 L 275 570 L 275 559 L 274 558 z" />
<path d="M 34 557 L 33 558 L 32 558 L 32 570 L 245 570 L 245 558 L 244 558 L 243 557 z" />
<path d="M 249 472 L 247 474 L 248 475 L 248 511 L 249 512 L 249 549 L 250 550 L 250 553 L 274 553 L 275 552 L 275 549 L 274 548 L 274 525 L 273 524 L 273 502 L 272 501 L 272 478 L 271 477 L 271 473 L 270 473 L 269 472 z" />
<path d="M 35 472 L 35 475 L 34 476 L 34 512 L 33 513 L 33 550 L 32 551 L 33 552 L 244 552 L 245 551 L 244 550 L 244 513 L 243 512 L 243 476 L 242 475 L 242 472 z" />
<path d="M 248 459 L 247 460 L 247 466 L 248 467 L 271 467 L 271 460 L 270 459 z" />
<path d="M 35 459 L 35 467 L 242 467 L 242 459 z" />
<path d="M 248 427 L 246 429 L 246 436 L 247 437 L 247 453 L 248 454 L 270 454 L 270 431 L 269 430 L 269 428 L 268 428 L 267 427 z" />
<path d="M 38 427 L 37 428 L 36 428 L 36 437 L 35 438 L 35 454 L 242 454 L 242 438 L 241 437 L 241 428 L 240 428 L 239 427 z" />
<path d="M 246 401 L 246 422 L 269 422 L 269 407 L 268 406 L 268 401 z" />
<path d="M 37 401 L 37 402 L 36 403 L 36 422 L 241 422 L 241 403 L 240 402 L 240 401 z" />
<path d="M 247 369 L 246 370 L 245 370 L 245 394 L 246 395 L 246 396 L 268 396 L 268 383 L 267 382 L 267 370 L 266 370 L 265 369 z" />
<path d="M 39 369 L 38 370 L 37 370 L 37 396 L 240 396 L 240 370 L 239 370 L 238 369 z" />
<path d="M 245 343 L 244 344 L 244 360 L 245 361 L 245 364 L 266 364 L 267 363 L 267 360 L 266 359 L 266 344 L 265 343 z" />
<path d="M 38 343 L 38 361 L 37 362 L 37 363 L 38 364 L 239 364 L 240 363 L 239 362 L 239 343 z" />
<path d="M 245 311 L 243 313 L 243 323 L 244 324 L 244 338 L 265 338 L 265 337 L 266 336 L 265 335 L 265 313 L 263 311 z" />
<path d="M 41 311 L 40 312 L 39 312 L 39 324 L 38 325 L 38 337 L 39 338 L 238 338 L 239 337 L 239 325 L 238 324 L 238 312 L 237 312 L 236 311 z" />
<path d="M 243 285 L 243 306 L 264 306 L 264 288 L 263 287 L 263 285 z" />
<path d="M 40 285 L 40 286 L 39 287 L 39 306 L 238 306 L 238 287 L 237 286 L 237 285 z" />
<path d="M 244 253 L 243 254 L 242 254 L 242 278 L 243 279 L 243 280 L 263 280 L 263 265 L 262 264 L 262 254 L 261 254 L 260 253 z" />
<path d="M 42 253 L 40 255 L 40 280 L 237 280 L 237 255 L 235 253 z" />
<path d="M 243 227 L 242 228 L 241 228 L 241 247 L 242 248 L 262 248 L 262 241 L 261 240 L 261 228 L 260 228 L 259 227 z" />
<path d="M 41 227 L 41 248 L 42 249 L 43 248 L 234 248 L 235 249 L 236 248 L 236 227 z" />
<path d="M 242 196 L 240 198 L 240 209 L 241 210 L 241 222 L 260 222 L 261 221 L 261 217 L 260 216 L 260 197 L 259 197 L 258 196 z" />
<path d="M 44 195 L 43 196 L 42 196 L 42 210 L 41 211 L 41 221 L 42 222 L 235 222 L 236 221 L 236 212 L 235 211 L 235 196 L 234 196 L 233 195 z" />
<path d="M 236 6 L 235 7 L 235 21 L 236 22 L 236 58 L 237 59 L 237 96 L 238 97 L 238 134 L 239 135 L 239 172 L 240 173 L 240 191 L 257 191 L 258 192 L 259 191 L 259 170 L 258 169 L 258 146 L 257 145 L 257 123 L 256 122 L 256 99 L 255 98 L 255 75 L 254 74 L 254 51 L 253 50 L 253 28 L 252 27 L 252 7 L 251 6 z" />
<path d="M 222 6 L 222 190 L 235 190 L 235 174 L 234 173 L 234 136 L 233 135 L 233 98 L 232 97 L 232 61 L 231 60 L 231 23 L 230 22 L 230 6 z" />
<path d="M 209 6 L 209 7 L 208 8 L 208 189 L 209 190 L 217 190 L 217 6 z" />
<path d="M 195 6 L 195 190 L 203 190 L 203 6 z" />
<path d="M 182 6 L 182 190 L 190 190 L 190 6 z" />
<path d="M 169 6 L 169 7 L 168 8 L 168 189 L 169 190 L 177 190 L 177 6 z" />
<path d="M 155 6 L 155 190 L 163 190 L 163 6 z" />
<path d="M 142 6 L 142 190 L 150 190 L 150 6 z" />
<path d="M 129 6 L 129 7 L 128 8 L 128 189 L 129 190 L 137 190 L 137 6 z" />
<path d="M 115 6 L 115 190 L 123 190 L 123 6 z" />
<path d="M 102 6 L 102 190 L 110 190 L 110 6 z" />
<path d="M 89 6 L 89 7 L 88 8 L 88 189 L 89 190 L 97 190 L 97 6 z" />
<path d="M 75 6 L 75 190 L 83 190 L 83 6 z" />
<path d="M 62 6 L 62 190 L 70 190 L 70 6 z" />
<path d="M 47 6 L 47 22 L 46 23 L 46 60 L 45 61 L 45 97 L 44 98 L 44 135 L 43 136 L 43 173 L 42 174 L 42 190 L 57 190 L 57 6 z" />
<g id="2">
<path d="M 277 1501 L 313 1501 L 315 1503 L 315 1520 L 316 1521 L 316 1528 L 315 1529 L 276 1529 L 275 1528 L 275 1503 z" />
<path d="M 9 1501 L 268 1501 L 270 1503 L 270 1528 L 269 1529 L 8 1529 L 7 1528 L 7 1503 z" />
<path d="M 276 1470 L 312 1470 L 313 1471 L 313 1472 L 314 1473 L 314 1496 L 313 1497 L 312 1496 L 276 1496 L 275 1495 L 275 1493 L 274 1492 L 274 1472 z" />
<path d="M 10 1470 L 267 1470 L 269 1472 L 269 1493 L 270 1494 L 270 1495 L 269 1496 L 9 1496 L 8 1495 L 8 1472 z" />
<path d="M 275 1443 L 310 1443 L 312 1445 L 312 1449 L 313 1450 L 313 1464 L 312 1465 L 275 1465 L 274 1464 L 274 1456 L 273 1455 L 273 1445 z" />
<path d="M 11 1443 L 266 1443 L 268 1445 L 268 1456 L 269 1457 L 269 1463 L 267 1465 L 10 1465 L 8 1463 L 8 1457 L 9 1456 L 9 1445 z" />
<path d="M 274 1412 L 310 1412 L 311 1413 L 311 1425 L 312 1426 L 312 1437 L 311 1438 L 274 1438 L 273 1437 L 273 1418 L 272 1417 L 272 1414 z" />
<path d="M 10 1413 L 11 1412 L 266 1412 L 267 1413 L 267 1418 L 268 1419 L 268 1437 L 267 1438 L 10 1438 L 9 1437 L 9 1419 L 10 1418 z" />
<path d="M 272 1387 L 273 1386 L 308 1386 L 310 1388 L 310 1401 L 311 1402 L 311 1405 L 309 1407 L 274 1407 L 272 1405 z" />
<path d="M 12 1385 L 265 1385 L 267 1387 L 267 1406 L 266 1407 L 11 1407 L 10 1406 L 10 1387 z" />
<path d="M 273 1354 L 307 1354 L 309 1356 L 309 1378 L 310 1379 L 308 1381 L 273 1381 L 271 1379 L 271 1356 z" />
<path d="M 13 1354 L 264 1354 L 266 1356 L 266 1380 L 265 1381 L 264 1380 L 13 1380 L 12 1381 L 11 1380 L 11 1356 z" />
<path d="M 272 1328 L 306 1328 L 307 1329 L 307 1330 L 308 1331 L 308 1348 L 307 1349 L 272 1349 L 271 1348 L 271 1342 L 270 1341 L 270 1330 z" />
<path d="M 12 1329 L 13 1328 L 264 1328 L 265 1329 L 265 1343 L 266 1344 L 266 1347 L 264 1349 L 13 1349 L 11 1347 L 11 1343 L 12 1342 z" />
<path d="M 271 1296 L 304 1296 L 306 1298 L 306 1306 L 307 1307 L 307 1322 L 306 1323 L 272 1323 L 270 1321 L 270 1305 L 269 1304 L 269 1298 z" />
<path d="M 15 1296 L 262 1296 L 264 1298 L 264 1305 L 265 1306 L 265 1322 L 264 1323 L 13 1323 L 12 1322 L 12 1306 L 13 1305 L 13 1298 z" />
<path d="M 269 1271 L 270 1270 L 304 1270 L 305 1271 L 305 1283 L 306 1284 L 306 1290 L 305 1291 L 270 1291 L 269 1290 z" />
<path d="M 15 1270 L 262 1270 L 264 1272 L 264 1290 L 263 1291 L 14 1291 L 13 1290 L 13 1272 z" />
<path d="M 270 1238 L 302 1238 L 304 1240 L 304 1259 L 305 1260 L 305 1263 L 303 1265 L 270 1265 L 268 1263 L 268 1240 z" />
<path d="M 16 1238 L 261 1238 L 263 1240 L 263 1264 L 262 1265 L 15 1265 L 14 1264 L 14 1240 z" />
<path d="M 269 1212 L 301 1212 L 303 1214 L 303 1233 L 302 1234 L 301 1233 L 269 1233 L 268 1232 L 268 1229 L 267 1228 L 267 1214 z" />
<path d="M 15 1213 L 16 1212 L 261 1212 L 262 1213 L 262 1229 L 263 1230 L 263 1232 L 262 1233 L 15 1233 L 14 1232 L 14 1230 L 15 1229 z" />
<path d="M 268 1180 L 299 1180 L 301 1182 L 301 1188 L 302 1189 L 302 1206 L 301 1207 L 268 1207 L 267 1206 L 267 1191 L 266 1190 L 266 1182 z" />
<path d="M 18 1180 L 259 1180 L 261 1182 L 261 1192 L 262 1193 L 262 1205 L 260 1207 L 17 1207 L 15 1205 L 15 1192 L 16 1191 L 16 1182 z" />
<path d="M 266 1155 L 267 1154 L 299 1154 L 300 1155 L 300 1164 L 301 1165 L 301 1174 L 300 1175 L 267 1175 L 266 1174 z" />
<path d="M 18 1154 L 259 1154 L 261 1156 L 261 1174 L 260 1175 L 17 1175 L 16 1174 L 16 1156 z" />
<path d="M 267 1122 L 297 1122 L 299 1124 L 299 1141 L 300 1142 L 300 1147 L 298 1149 L 267 1149 L 265 1147 L 265 1124 z" />
<path d="M 19 1122 L 258 1122 L 260 1124 L 260 1148 L 259 1149 L 18 1149 L 17 1148 L 17 1124 z" />
<path d="M 266 1096 L 296 1096 L 298 1098 L 298 1117 L 297 1118 L 296 1117 L 266 1117 L 264 1115 L 264 1098 z" />
<path d="M 18 1097 L 19 1096 L 258 1096 L 259 1097 L 259 1117 L 258 1118 L 257 1117 L 20 1117 L 19 1118 L 18 1117 z" />
<path d="M 262 1010 L 263 1009 L 292 1009 L 294 1011 L 294 1088 L 293 1089 L 265 1089 L 264 1088 L 264 1078 L 263 1077 L 263 1041 L 262 1040 z" />
<path d="M 22 1009 L 255 1009 L 257 1011 L 257 1041 L 258 1042 L 258 1078 L 259 1079 L 259 1088 L 258 1089 L 19 1089 L 18 1088 L 18 1079 L 19 1078 L 19 1041 L 20 1040 L 20 1011 z" />
<path d="M 263 980 L 291 980 L 293 982 L 293 998 L 294 999 L 294 1000 L 293 1001 L 262 1001 L 261 1000 L 261 982 z" />
<path d="M 23 980 L 254 980 L 256 982 L 256 1001 L 255 1002 L 254 1001 L 23 1001 L 22 1002 L 21 1001 L 21 982 z" />
<path d="M 262 949 L 290 949 L 291 950 L 291 951 L 292 952 L 292 975 L 291 976 L 290 975 L 262 975 L 261 974 L 261 965 L 260 964 L 260 951 z" />
<path d="M 24 948 L 253 948 L 255 950 L 255 965 L 256 966 L 256 973 L 254 975 L 23 975 L 21 973 L 21 966 L 22 965 L 22 950 z" />
<path d="M 261 922 L 288 922 L 290 924 L 290 927 L 291 928 L 291 943 L 290 944 L 262 944 L 260 942 L 260 927 L 259 926 L 259 924 z" />
<path d="M 25 922 L 252 922 L 254 924 L 254 928 L 255 929 L 255 942 L 254 943 L 23 943 L 22 942 L 22 928 L 23 927 L 23 924 z" />
<path d="M 259 892 L 260 891 L 288 891 L 289 892 L 289 904 L 290 905 L 290 916 L 289 917 L 260 917 L 259 916 z" />
<path d="M 25 891 L 252 891 L 254 893 L 254 916 L 253 917 L 24 917 L 23 916 L 23 893 z" />
<path d="M 260 864 L 286 864 L 288 866 L 288 880 L 289 881 L 289 884 L 287 886 L 260 886 L 258 884 L 258 866 z" />
<path d="M 26 864 L 251 864 L 253 866 L 253 885 L 252 886 L 25 886 L 24 885 L 24 866 z" />
<path d="M 259 833 L 285 833 L 287 835 L 287 856 L 288 857 L 288 858 L 287 859 L 259 859 L 258 858 L 258 852 L 257 851 L 257 835 z" />
<path d="M 25 834 L 26 833 L 251 833 L 252 834 L 252 852 L 253 853 L 253 858 L 252 859 L 25 859 L 24 858 L 24 853 L 25 852 z" />
<path d="M 258 806 L 283 806 L 285 808 L 285 809 L 286 810 L 286 827 L 285 828 L 258 828 L 257 827 L 257 814 L 256 813 L 256 808 z" />
<path d="M 28 806 L 249 806 L 251 808 L 251 814 L 252 815 L 252 826 L 250 828 L 27 828 L 25 826 L 25 815 L 26 814 L 26 808 z" />
<path d="M 256 776 L 257 775 L 283 775 L 284 776 L 284 785 L 285 786 L 285 800 L 284 801 L 257 801 L 256 800 z" />
<path d="M 28 775 L 249 775 L 250 776 L 250 777 L 251 778 L 251 800 L 250 801 L 27 801 L 26 800 L 26 777 z" />
<path d="M 257 748 L 281 748 L 283 750 L 283 761 L 284 762 L 284 768 L 282 770 L 257 770 L 255 768 L 255 750 z" />
<path d="M 29 748 L 248 748 L 250 750 L 250 769 L 249 770 L 28 770 L 27 769 L 27 750 z" />
<path d="M 256 717 L 280 717 L 282 719 L 282 738 L 283 739 L 283 742 L 282 743 L 256 743 L 255 742 L 255 739 L 254 738 L 254 719 z" />
<path d="M 28 718 L 29 717 L 247 717 L 249 719 L 249 739 L 250 740 L 250 742 L 249 743 L 28 743 L 27 742 L 27 740 L 28 739 z" />
<path d="M 255 690 L 279 690 L 281 692 L 281 711 L 280 712 L 255 712 L 254 711 L 254 701 L 253 700 L 253 692 z" />
<path d="M 31 690 L 246 690 L 248 692 L 248 701 L 249 702 L 249 710 L 247 712 L 30 712 L 28 710 L 28 702 L 29 701 L 29 692 z" />
<path d="M 254 659 L 278 659 L 279 660 L 279 667 L 280 668 L 280 684 L 279 685 L 254 685 L 253 684 L 253 663 L 252 662 L 252 661 z" />
<path d="M 30 660 L 31 659 L 246 659 L 247 660 L 247 663 L 248 664 L 248 684 L 247 685 L 30 685 L 29 684 L 29 664 L 30 663 z" />
<path d="M 252 634 L 253 633 L 277 633 L 278 634 L 278 643 L 279 644 L 279 653 L 278 654 L 254 654 L 252 652 z" />
<path d="M 32 632 L 245 632 L 247 634 L 247 653 L 246 654 L 31 654 L 30 653 L 30 634 z" />
<path d="M 253 601 L 275 601 L 277 603 L 277 619 L 278 620 L 278 626 L 276 628 L 253 628 L 252 627 L 252 625 L 251 624 L 251 603 z" />
<path d="M 33 601 L 244 601 L 246 603 L 246 627 L 245 628 L 244 627 L 33 627 L 32 628 L 30 626 L 31 625 L 31 603 z" />
<path d="M 252 575 L 274 575 L 276 577 L 276 596 L 275 597 L 274 596 L 252 596 L 251 595 L 251 588 L 250 587 L 250 577 z" />
<path d="M 32 576 L 33 575 L 244 575 L 245 576 L 245 588 L 246 589 L 246 594 L 244 596 L 33 596 L 31 594 L 31 589 L 32 588 z" />
<path d="M 250 559 L 251 558 L 273 558 L 275 560 L 275 569 L 274 570 L 252 570 L 250 568 z" />
<path d="M 34 557 L 243 557 L 245 559 L 245 569 L 244 570 L 33 570 L 32 569 L 32 559 z" />
<path d="M 249 472 L 269 472 L 271 474 L 271 477 L 272 478 L 272 501 L 273 502 L 273 524 L 274 525 L 274 548 L 275 549 L 275 551 L 273 553 L 251 553 L 250 552 L 250 550 L 249 549 L 249 512 L 248 511 L 248 475 L 247 474 z" />
<path d="M 35 473 L 36 472 L 241 472 L 242 473 L 242 475 L 243 476 L 243 512 L 244 513 L 244 550 L 245 551 L 244 552 L 33 552 L 32 551 L 33 550 L 33 513 L 34 512 L 34 476 L 35 475 z" />
<path d="M 249 459 L 269 459 L 271 461 L 271 466 L 270 467 L 248 467 L 247 466 L 247 461 z" />
<path d="M 35 460 L 36 459 L 241 459 L 242 460 L 242 466 L 241 467 L 36 467 L 35 466 z" />
<path d="M 248 427 L 267 427 L 269 429 L 269 430 L 270 431 L 270 453 L 269 454 L 249 454 L 247 452 L 247 437 L 246 436 L 246 429 z" />
<path d="M 38 427 L 239 427 L 241 429 L 241 437 L 242 438 L 242 453 L 241 454 L 36 454 L 35 453 L 35 438 L 36 437 L 36 429 z" />
<path d="M 246 402 L 247 401 L 267 401 L 268 402 L 268 406 L 269 407 L 269 421 L 268 422 L 247 422 L 246 421 z" />
<path d="M 38 401 L 239 401 L 241 403 L 241 421 L 240 422 L 37 422 L 36 421 L 36 403 z" />
<path d="M 247 369 L 265 369 L 267 371 L 267 382 L 268 383 L 268 395 L 267 396 L 247 396 L 245 394 L 245 371 z" />
<path d="M 39 369 L 238 369 L 240 371 L 240 395 L 239 396 L 38 396 L 37 395 L 37 371 z" />
<path d="M 246 343 L 264 343 L 266 345 L 266 359 L 267 360 L 267 363 L 266 364 L 246 364 L 245 363 L 245 361 L 244 360 L 244 345 z" />
<path d="M 38 344 L 39 343 L 238 343 L 239 344 L 239 362 L 240 363 L 239 364 L 38 364 L 37 363 L 37 362 L 38 361 z" />
<path d="M 245 311 L 263 311 L 265 313 L 265 335 L 266 336 L 264 338 L 245 338 L 244 337 L 244 324 L 243 323 L 243 313 z" />
<path d="M 41 311 L 236 311 L 238 313 L 238 324 L 239 325 L 239 336 L 237 338 L 40 338 L 38 336 L 38 325 L 39 324 L 39 313 z" />
<path d="M 243 286 L 244 285 L 262 285 L 263 286 L 263 287 L 264 288 L 264 305 L 263 306 L 244 306 L 243 305 z" />
<path d="M 41 285 L 236 285 L 238 287 L 238 305 L 237 306 L 40 306 L 39 305 L 39 287 z" />
<path d="M 244 253 L 260 253 L 262 255 L 262 264 L 263 265 L 263 279 L 262 280 L 244 280 L 242 278 L 242 255 z" />
<path d="M 42 253 L 235 253 L 237 255 L 237 279 L 236 280 L 41 280 L 40 279 L 40 255 z" />
<path d="M 243 227 L 259 227 L 261 229 L 261 240 L 262 241 L 262 247 L 261 248 L 242 248 L 241 247 L 241 229 z" />
<path d="M 41 228 L 42 227 L 235 227 L 236 228 L 236 248 L 235 249 L 234 248 L 43 248 L 42 249 L 41 248 z" />
<path d="M 242 196 L 258 196 L 260 198 L 260 216 L 261 217 L 261 221 L 260 222 L 242 222 L 241 221 L 241 210 L 240 209 L 240 198 z" />
<path d="M 44 195 L 233 195 L 235 197 L 235 211 L 236 212 L 236 220 L 234 222 L 43 222 L 41 220 L 41 211 L 42 210 L 42 197 z" />
<path d="M 237 6 L 250 6 L 252 8 L 252 27 L 253 28 L 253 50 L 254 51 L 254 74 L 255 75 L 255 98 L 256 99 L 256 122 L 257 123 L 257 145 L 258 146 L 258 169 L 259 170 L 259 191 L 258 192 L 257 191 L 241 191 L 240 190 L 240 173 L 239 172 L 239 135 L 238 134 L 238 97 L 237 96 L 237 59 L 236 58 L 236 22 L 235 21 L 235 8 z" />
<path d="M 222 7 L 223 6 L 229 6 L 230 7 L 230 22 L 231 23 L 231 60 L 232 61 L 232 97 L 233 98 L 233 135 L 234 136 L 234 173 L 235 174 L 235 189 L 234 190 L 223 190 L 222 189 z" />
<path d="M 210 6 L 216 6 L 217 7 L 217 189 L 216 190 L 209 190 L 208 189 L 208 8 z" />
<path d="M 195 7 L 196 6 L 202 6 L 203 7 L 203 189 L 202 190 L 196 190 L 195 189 z" />
<path d="M 182 7 L 183 6 L 189 6 L 190 7 L 190 189 L 189 190 L 183 190 L 182 189 z" />
<path d="M 170 6 L 176 6 L 177 7 L 177 189 L 176 190 L 169 190 L 168 189 L 168 8 z" />
<path d="M 155 7 L 156 6 L 162 6 L 163 7 L 163 189 L 162 190 L 156 190 L 155 189 z" />
<path d="M 142 7 L 143 6 L 149 6 L 150 7 L 150 189 L 149 190 L 143 190 L 142 189 z" />
<path d="M 130 6 L 136 6 L 137 7 L 137 189 L 136 190 L 129 190 L 128 189 L 128 8 z" />
<path d="M 115 7 L 116 6 L 122 6 L 123 7 L 123 189 L 122 190 L 116 190 L 115 189 z" />
<path d="M 102 7 L 103 6 L 109 6 L 110 7 L 110 189 L 109 190 L 103 190 L 102 189 z" />
<path d="M 90 6 L 96 6 L 97 7 L 97 189 L 96 190 L 89 190 L 88 189 L 88 8 z" />
<path d="M 75 7 L 76 6 L 82 6 L 83 7 L 83 189 L 82 190 L 76 190 L 75 189 z" />
<path d="M 62 7 L 63 6 L 69 6 L 70 7 L 70 189 L 69 190 L 63 190 L 62 189 z" />
<path d="M 47 7 L 48 6 L 56 6 L 57 7 L 57 189 L 56 190 L 43 190 L 42 189 L 42 174 L 43 173 L 43 136 L 44 135 L 44 98 L 45 97 L 45 61 L 46 60 L 46 23 L 47 22 z" />
</g>
</g>
</svg>
</svg>