<svg id="图层_1" data-name="图层 1" xmlns="http://www.w3.org/2000/svg" viewBox="0 0 401.43 416.06"><defs><style>.cls-1{fill:#fff;stroke:#040000;stroke-miterlimit:10;}</style></defs><path class="cls-1" d="M230.1,401.6c20.55-1.72,41.11-10.28,54.81-48s37.69-42.82,61.67-46.25c24-5.14,36-54.81,6.85-75.37,0,0-34.26-13.7-25.69-46.25s42.82,6.85,63.38-32.55-48-22.27-32.55-58.24S375.7,7.61,336.3.76,290.05,89.83,257.51,95s-51.39-63.38-73.66-44.54,39.4,99.36,18.84,128.48-42.83-37.69-58.24-18.85c-17.13,18.85,49.67,58.25,32.54,85.65s-75.37,3.43-95.92,29.12,49.67,34.26,60,75.38C151.3,393,213,403.31,230.1,401.6Z"/><path class="cls-1" d="M231.81,322.8c-1.71,0-1.71,0-3.43-1.71,0-1.72,0-3.43,1.72-3.43l75.37-34.26c1.71,0,3.42,0,3.42,1.71s0,3.43-1.71,3.43L231.81,322.8Zm12-54.82h-1.71l-44.54-42.82c-1.71-1.71-1.71-3.43,0-5.14s3.43-1.71,5.14,0l44.54,42.82q2.57,2.58,0,5.14Zm30.84-78.79c-1.72,0-1.72,0-3.43-1.72,0-1.71,0-3.42,1.71-3.42l60-32.55c1.71,0,3.42,0,3.42,1.71s0,3.43-1.71,3.43Z"/><path class="cls-1" d="M165,408.45s-10.27,6.85-42.82,3.42S79.35,405,67.36,386.18s-20.55-41.11-42.82-46.25S-6.29,309.09,5.7,309.09s51.39,8.57,53.1-3.42-61.67-56.53-51.39-78.8S46.81,244,45.09,216.59,40,180.62,52,178.91s15.41,5.14,22.27,15.41,10.27,15.42,36-3.42,15.42,36,24,42.82,32.55,5.14,48,3.43,20.56,15.42,0,25.69-34.26,34.26-10.27,42.83,37.68,13.7,24,30.83S182.13,386.18,178.71,393s-8.57,13.7-13.71,15.42Z"/><path class="cls-1" d="M128.74,341.5H127c-1.71-1.71-1.71-3.43,0-3.43l17.13-25.69c0-1.71,1.71-1.71,3.43-1.71,1.71,1.71,1.71,3.42,0,3.42l-17.13,25.7A1.68,1.68,0,0,1,128.74,341.5Zm-12.7-27h0L86.92,295.66c-1.71-1.72-1.71-3.43,0-3.43,1.71-1.71,3.43-1.71,3.43,0l27.4,17.13c1.72,1.71,1.72,3.43,0,3.43A1.67,1.67,0,0,1,116,314.5Zm20.27,57h0l-32.55-20.56a5.3,5.3,0,0,1-1.71-3.42s3.43-3.43,5.14-3.43L138,364.65a5.28,5.28,0,0,1,1.72,3.42C138,369.79,138,371.5,136.31,371.5Z"/><path class="cls-1" d="M207.83,401.6h0a3.7,3.7,0,0,1-3.43-3.43l83.94-287.78c0-1.71,1.71-1.71,3.42-1.71s1.72,1.71,1.72,3.42L209.54,399.88A1.68,1.68,0,0,1,207.83,401.6Z"/><path class="cls-1" d="M154.73,411.87c-1.72,0-1.72,0-3.43-1.71L96.48,264.56c0-1.72,0-3.43,1.72-3.43s3.42,0,3.42,1.71l54.82,145.61c1.71,0,0,1.71-1.71,3.42Z"/>
<archi id="d" name="语义名称">
    <content> 
        <type>architecture</type>
        <model>building</model>
        <element>window</element>
    </content>
    <layout>block|outline|2.5D</layout>
    <orientation>left|right|front</orientation>
    <shot>close|medium|long|background|common</shot>
    <boundingrect>
         <ele>0.2697429656982422,0.4100434482097626,394.7317810058594,412.42138671875</ele>
    </boundingrect>
 </archi>
</svg>