<svg id="图层_1" data-name="图层 1" xmlns="http://www.w3.org/2000/svg" viewBox="0 0 393.57 414.89"><defs><style>.cls-1,.cls-2{fill:#fff;stroke:#040000;}.cls-1{stroke-miterlimit:10;}.cls-2{stroke-linecap:round;stroke-linejoin:round;}</style></defs><path class="cls-1" d="M164,401.18c38,0,81.19-1.73,84.64-82.91s-67.37-122.65-62.19-176.2-8.63,1.73-29.36,1.73S160.49.43,119,.43s-19,84.64-3.46,141.64-8.64,34.55-31.09,29.37,39.73,69.09,10.36,84.64S24,240.53,5,264.72,17.12,401.18,164,401.18Z"/><path class="cls-2" d="M147.5,244.26h0L118.13,214.9c-1.72-1.73,0-1.73,0-3.46,1.73-1.73,1.73,0,3.46,0l27.64,29.37c1.72,0,1.72,1.72-1.73,3.45C149.23,242.53,149.23,244.26,147.5,244.26Zm10,119.92h0L50.4,305.45c-1.73,0-1.73-1.73-1.73-3.46s1.73-1.72,3.45-1.72L159.22,359c1.73,0,1.73,1.72,1.73,3.45A5.36,5.36,0,0,1,157.49,364.18Zm0-58.73h0a5.37,5.37,0,0,1-1.72-3.46l32.82-36.27c0-1.73,1.72-1.73,3.45,0,1.73,0,1.73,1.73,0,3.45l-34.55,36.28Z"/><path class="cls-1" d="M164,404.64a1.69,1.69,0,0,1-1.73-1.73L145,174.89c0-1.72,0-1.72,1.72-1.72s1.73,0,1.73,1.72l17.28,228A1.69,1.69,0,0,1,164,404.64Z"/><path class="cls-1" d="M271.05,413.27c27.63,0,53.54-36.27,100.18-36.27s-8.63-10.37,0-29.37S412.69,301,376.42,301c-39.73,0-58.73,10.37-50.1-24.18s8.64-60.46-15.54-41.46-36.28,17.28-39.73-8.63c-1.73-25.92,5.18-57-19-57s-34.54,69.1-24.18,96.74S195,238.81,177.77,250.9s34.55,51.82,22.45,79.46-29.36-32.82-63.91-15.55c-32.82,19,3.46,98.46,134.74,98.46Z"/><path class="cls-1" d="M262.41,304.45h0a5.36,5.36,0,0,1-1.73-3.46l25.91-29.36c0-1.73,1.73-1.73,3.46,0,1.72,0,1.72,1.72,0,3.45l-27.64,29.37Zm5.18,82.91-67.37-22.45c-1.72,0-1.72-1.73-1.72-3.46s1.72-1.73,3.45-1.73l67.37,22.46c1.73,0,1.73,1.73,1.73,3.45S269.32,387.36,267.59,387.36Zm0-17.27a1.69,1.69,0,0,1-1.73-1.73v-3.45l53.55-38h3.46v3.46ZM264.14,339l-34.55-25.92c-1.73,0-1.73-1.72,0-3.45,0-1.73,1.73-1.73,3.45,0l32.82,25.91c1.73,0,1.73,1.73,0,3.46C265.86,337.27,265.86,339,264.14,339Z"/><path class="cls-1" d="M271.05,415a1.69,1.69,0,0,1-1.73-1.73L257.23,252.63c0-1.73,0-1.73,1.72-1.73s1.73,0,1.73,1.73l12.09,160.64A1.69,1.69,0,0,1,271.05,415Z"/>
<archi id="d" name="语义名称">
    <content> 
        <type>architecture</type>
        <model>building</model>
        <element>window</element>
    </content>
    <layout>block|outline|2.5D</layout>
    <orientation>left|right|front</orientation>
    <shot>close|medium|long|background|common</shot>
    <boundingrect>
         <ele>-0.022153377532958984,0.43000003695487976,393.1408386230469,414.5705261230469</ele>
    </boundingrect>
 </archi>
</svg>