<svg id="图层_1" data-name="图层 1" xmlns="http://www.w3.org/2000/svg" viewBox="0 0 553 407"><defs><style>.cls-1,.cls-2{fill:#fff;stroke:#040000;stroke-miterlimit:10;}.cls-2{stroke-width:0.98px;}</style></defs><path class="cls-1" d="M181.56,390.68c44.92,9.46,94.58-16.55,99.31-42.56,2.36-14.19-9.46-21.29-4.73-30.74,9.46-21.29,61.48-11.83,63.84-21.29s-59.11-23.64-59.11-40.19c0-11.83,35.47-9.46,59.11-40.2,4.73-4.73,16.56-21.28,11.83-35.47s-26-14.19-28.38-26c-4.73-18.92,26-30.74,21.28-42.56-2.36-11.83-30.74-4.73-42.56-18.92-18.92-23.65,23.65-68.57,9.46-85.13-14.19-18.91-80.4,0-87.49,28.38-4.73,16.55,16.55,26,11.82,47.29C231.21,99.83,217,114,200.47,118.75s-23.64-2.36-33.1,4.73c-9.46,9.46,2.36,28.37-7.09,35.47-9.46,9.46-26-2.37-33.11,4.73-7.09,9.46,23.65,33.1,16.55,54.38-7.09,16.56-33.1,9.46-47.29,28.38-11.82,18.92-2.36,47.29,4.73,63.84s28.38,68.58,80.4,80.4Z"/><path class="cls-1" d="M236.94,211a2.31,2.31,0,0,1-2.36-2.37c0-2.36,0-2.36,2.36-4.72l56.75-21.29c2.37,0,2.37,0,4.73,2.37,0,2.36,0,2.36-2.36,4.73ZM218,265.36l-54.39-78v-4.73h4.73l52,75.67c2.36,4.73,0,4.73-2.36,7.1Zm-21.29,61.47a2.31,2.31,0,0,1-2.36-2.36c0-2.36,0-2.36,2.36-4.73l87.49-28.37c2.37,0,2.37,0,4.73,2.36,0,2.36,0,2.36-2.36,4.73l-89.86,28.37Z"/><path class="cls-1" d="M176.83,386h0c-2.37,0-2.37-2.37-2.37-4.73l92.22-269.56h2.37c2.36,0,2.36,2.36,2.36,4.73L179.19,386Z"/><path class="cls-1" d="M507.87,400.14c33.1-2.37,56.75-78,40.2-94.59-7.1-7.09-16.55,0-23.65-4.73-16.55-14.18,11.83-59.11-4.73-75.66-4.73-4.73-16.55-7.1-21.28-2.37-11.82,7.1-7.09,28.38-14.19,33.11-14.18,7.09-35.46-49.66-52-40.2C418,225.16,453.48,263,444,270.08c-7.1,7.1-35.47-33.1-44.93-21.28s18.92,21.28,14.19,37.84c-2.37,7.09-4.73,9.45-4.73,14.18,2.36,9.46,26,7.1,21.28,18.92s14.19,14.19,18.92,26c4.72,14.19-21.29,4.73-4.73,30.74C458.21,407.23,498.41,402.5,507.87,400.14Z"/><path class="cls-1" d="M505.14,369.76c-2.36,0-2.36-2.36-2.36-4.73l23.64-44.92c0-2.37,2.37-2.37,4.73-2.37s2.37,2.37,2.37,4.73L509.87,367.4C507.51,369.76,507.51,369.76,505.14,369.76Zm-21.28-52c-2.36,0-2.36-2.36-2.36-4.73L491,282.27a2.37,2.37,0,0,1,4.73,0L486.22,313C486.22,315.38,486.22,317.74,483.86,317.74ZM493.32,339l-42.56-9.46a2.37,2.37,0,1,1,0-4.73l42.56,9.46a2.32,2.32,0,0,1,2.36,2.37Z"/><path class="cls-1" d="M129.54,386c23.64-9.46,28.37-40.2,33.1-59.12C165,315,169.73,289,155.55,277.18c-4.73-4.73-14.19-7.1-21.29-4.73-9.45,2.36-11.82,11.82-16.55,9.46s-2.36-14.19-7.09-33.11c-4.73-16.55-4.73-35.47-16.55-35.47-14.19,0-16.56,21.29-14.19,33.11,2.36,14.19-4.73,14.19-7.09,16.55-11.83,4.73-30.74-37.83-44.93-33.1-7.1,2.36-9.46,11.82-9.46,18.91,0,21.28,28.37,35.47,26,40.2-2.36,2.37-11.82,0-16.55-2.36-16.55-4.73-23.65-11.83-26-9.46-7.1,0,4.73,30.74,26,40.2,14.19,7.09,28.37,2.36,33.1,11.82,4.73,7.09-4.73,14.19-2.36,21.28,0,21.28,40.2,47.29,70.94,35.47Z"/><path class="cls-1" d="M95.7,313a2.31,2.31,0,0,1-2.36-2.36L95.7,261a2.37,2.37,0,0,1,4.73,0l-2.36,49.66A2.32,2.32,0,0,1,95.7,313Zm30.11,46.66a2.32,2.32,0,0,1-2.37-2.37l7.1-61.48a2.31,2.31,0,0,1,2.36-2.36c2.36,0,4.73,0,4.73,2.36l-7.09,61.48C128.17,359.67,128.17,359.67,125.81,359.67Zm-10.46-11.55H77.51a2.37,2.37,0,0,1,0-4.73h37.84a2.37,2.37,0,0,1,0,4.73Z"/><path class="cls-1" d="M515,400.14a2.31,2.31,0,0,1-2.36-2.37L465.31,277.18c0-2.37,0-2.37,2.36-4.73,2.37,0,2.37,0,4.73,2.36l49.66,120.6c-2.37,2.36-4.73,4.73-7.1,4.73Z"/><path class="cls-2" d="M137.68,381h0l-72-101.57v-4.62h4.65L140,374.07C140,376.38,140,378.69,137.68,381Z"/><path class="cls-1" d="M375.45,374.13c9.46,4.73,16.56-2.37,23.65-7.1,11.82-4.73-2.37,40.2-37.83,40.2-30.74,0-52-44.93-35.47-47.29,9.45-2.37,9.45,21.28,21.28,14.19s2.36-37.84,14.19-35.47C375.45,343.39,366,369.4,375.45,374.13Z"/><path class="cls-1" d="M361.27,404.87a7.33,7.33,0,0,1-2.37-4.73l14.19-9.46h4.73v4.73l-16.55,9.46Z"/><path class="cls-1" d="M357.27,397.77l-18.92-9.46c-2.37,0-2.37-2.36-2.37-4.73s2.37-2.36,4.73-2.36l18.92,7.09c2.36,0,2.36,2.37,2.36,4.73C359.63,397.77,357.27,397.77,357.27,397.77Z"/><path class="cls-1" d="M361.27,409.6a2.32,2.32,0,0,1-2.37-2.37V369.4c0-2.37,0-2.37,2.37-2.37a2.32,2.32,0,0,1,2.36,2.37v37.83C366,407.23,363.63,409.6,361.27,409.6Z"/>
<archi id="d" name="语义名称">
    <content> 
        <type>architecture</type>
        <model>building</model>
        <element>window</element>
    </content>
    <layout>block|outline|2.5D</layout>
    <orientation>left|right|front</orientation>
    <shot>close|medium|long|background|common</shot>
    <boundingrect>
         <ele>-0.21468567848205566,0.008473396301269531,553.7008666992188,409.5920715332031</ele>
    </boundingrect>
 </archi>
</svg>