<svg id="图层_1" data-name="图层 1" xmlns="http://www.w3.org/2000/svg" viewBox="0 0 429.11 418.14"><defs><style>.cls-1{fill:#fff;stroke:#040000;stroke-miterlimit:10;}</style></defs><path class="cls-1" d="M101.09,409.9c29.41,0,88.22-16.54,91.9-93.74,5.51-77.2-53.3-60.66-46-110.29s14.7-60.65-12.87-93.74,0-40.43-16.54-71.68S88.22,0,66.17,0,51.46,64.34,25.73,75.37-3.68,91.91,11,134.19,36.76,182,14.7,204-1.84,239,16.54,246.31s46,20.22,18.38,51.47-29.41,46,0,73.52,25.73,38.6,66.17,38.6Z"/><path class="cls-1" d="M90.06,215.06c-1.84,0-1.84-1.83-1.84-3.67l31.25-55.14s1.84-1.84,1.84,0c0,0,1.83,1.83,0,1.83l-31.25,57Zm7.35,47.79L51.46,242.63a1.84,1.84,0,1,1,0-3.67l44.11,20.22c3.68,0,3.68,1.84,1.84,3.67Zm11,66.17h0c-1.84,0-1.84-1.83-1.84-3.67l34.93-57s1.83-1.84,1.83,0c0,0,1.84,1.84,0,1.84ZM114,369.46,51.46,340.05c-1.84,0-1.84-1.84,0-1.84,0-1.83,1.84-1.83,1.84,0L114,367.62c1.84,0,1.84,0,0,1.84Z"/><path class="cls-1" d="M119.47,406.22a1.8,1.8,0,0,1-1.84-1.84L71.68,114c0-1.84,0-1.84,1.84-1.84s1.84,0,1.84,1.84l46,290.41C121.31,406.22,121.31,406.22,119.47,406.22Z"/><path class="cls-1" d="M145.2,409.9c25.73,0,36.76,5.51,49.63-23.9,11-27.57,36.76-29.41,31.25-51.46s-22.06-20.22,0-58.82,7.35-66.17-3.68-77.2-12.87-23.89-14.7-51.46-29.41-23.9-36.77-12.87S163.58,182,145.2,196.68s-7.35,38.6,3.68,55.15-7.35,31.24-22.06,40.43c-14.7,11-44.11,23.9-34.92,42.28s11,75.36,53.3,75.36Z"/><path class="cls-1" d="M173.61,295.94h0c-1.84-1.84-1.84-1.84-1.84-3.68L212.21,250h1.84v1.84l-40.44,44.11Zm-17.54,78.2h0l-38.6-45.95v-1.84h1.84l36.76,45.95C157.91,372.3,157.91,374.14,156.07,374.14Z"/><path class="cls-1" d="M237.1,402.55c12.87,0,22.06-12.87,18.38-25.74-3.67-14.7-9.19-7.35-11,3.68s1.83-5.52-9.19-9.19c-11-1.84,0,18.38-3.68,22.06-5.51,1.83-12.87-18.39-20.22-9.2s9.19,18.39,25.73,18.39Z"/><path class="cls-1" d="M321.65,411.74c18.38,0,38.6-22.06,40.44-36.77,0-16.54-20.22-14.7-20.22-22.05s12.87-7.35,11-12.87-12.87-7.35-11-11,14.71,1.84,11-7.35c-3.67-11-11-5.51-5.51-18.38s-11,0-5.52-11c5.52-12.86,11-22.05,0-27.57s-9.19,36.76-12.86,33.09c-5.52-1.84-12.87-5.52-14.71,7.35s7.35,16.54-9.19,18.38c-14.7,1.84,5.52,23.89-5.51,29.41s-25.74,20.22-12.87,34.92c11,12.87,18.38,23.9,34.92,23.9Z"/><path class="cls-1" d="M148.88,409.9a1.8,1.8,0,0,1-1.84-1.84l38.6-183.81a1.84,1.84,0,0,1,3.67,0L148.88,409.9C150.72,408.06,150.72,409.9,148.88,409.9Z"/><path class="cls-1" d="M323.49,395.19h0c-1.84-1.83-1.84-1.83-1.84-3.67l25.74-20.22h1.84v1.84Zm3.68-36.76h0l-16.54-23.89V332.7h1.83L329,356.59Z"/><path class="cls-1" d="M404.37,409.9s-7.36,5.51-25.74-3.68c-18.38-11-14.7-20.22-5.51-16.54s25.73,23.89,29.41,18.38-11-16.54-1.84-27.57,3.68,12.87,7.35,12.87c1.84,0,5.52-12.87,9.19-7.36s-5.51,22.06-7.35,23.9c-3.68,1.84,1.84,1.84,11-1.84,9.19-5.51,11,5.51,1.84,9.19s-18.38-7.35-18.38-7.35Z"/><path class="cls-1" d="M321.65,411.74a1.8,1.8,0,0,1-1.83-1.84l11-101.1a1.84,1.84,0,0,1,3.68,0l-11,101.1A1.8,1.8,0,0,1,321.65,411.74Z"/>
<archi id="d" name="语义名称">
    <content> 
        <type>architecture</type>
        <model>building</model>
        <element>window</element>
    </content>
    <layout>block|outline|2.5D</layout>
    <orientation>left|right|front</orientation>
    <shot>close|medium|long|background|common</shot>
    <boundingrect>
         <ele>0.33077526092529297,0,428.4181213378906,418.0015563964844</ele>
    </boundingrect>
 </archi>
</svg>