<?xml version="1.0" encoding="UTF-8"?>
<svg xmlns="http://www.w3.org/2000/svg" xmlns:xlink="http://www.w3.org/1999/xlink"
     width="49" height="302" viewBox="0 0 49 302">
<defs>
</defs>
<svg x="-117" y="-112">
<clipPath id="clip广州-03">
<path d="M 126 112 L 125 113 L 125 121 L 124 122 L 124 132 L 123 133 L 123 144 L 122 145 L 122 158 L 121 159 L 121 175 L 120 176 L 120 194 L 119 195 L 119 220 L 118 221 L 118 280 L 117 281 L 117 412 L 118 413 L 165 413 L 165 267 L 164 266 L 164 219 L 163 218 L 163 194 L 162 193 L 162 175 L 161 174 L 161 158 L 160 157 L 160 144 L 159 143 L 159 132 L 158 131 L 158 121 L 157 120 L 157 113 L 156 112 z" />
</clipPath>
<g clip-path="url(#clip广州-03)">
<defs>
<path id="SVGID_434_" d="M165.08,413.2h-47.09V282.16c0-95.83,7.31-166.08,8.15-169.61l30.81,0.07    c0.83,3.55,8.13,73.91,8.13,169.54V413.2z" />
</defs>
<use xlink:href="#SVGID_434_" />
<clipPath id="SVGID_1_">
<use style="overflow:visible;" xlink:href="#SVGID_434_" />
</clipPath>
<g style="clip-path:url(#SVGID_1_);">
<line x1="105.24" y1="41.96" x2="24.82" y2="431.75" />
<line x1="115.63" y1="41.96" x2="35.21" y2="431.75" />
<line x1="126.01" y1="41.96" x2="45.6" y2="431.75" />
<line x1="136.4" y1="41.96" x2="55.98" y2="431.75" />
<line x1="146.79" y1="41.96" x2="66.37" y2="431.75" />
<line x1="157.17" y1="41.96" x2="76.76" y2="431.75" />
<line x1="167.56" y1="41.96" x2="87.14" y2="431.75" />
<line x1="177.95" y1="41.96" x2="97.53" y2="431.75" />
<line x1="188.33" y1="41.96" x2="107.92" y2="431.75" />
<line x1="198.72" y1="41.96" x2="118.3" y2="431.75" />
<line x1="209.11" y1="41.96" x2="128.69" y2="431.75" />
<line x1="219.49" y1="41.96" x2="139.08" y2="431.75" />
<line x1="229.88" y1="41.96" x2="149.46" y2="431.75" />
<line x1="240.27" y1="41.96" x2="159.85" y2="431.75" />
<line x1="250.65" y1="41.96" x2="170.24" y2="431.75" />
<line x1="261.04" y1="41.96" x2="180.62" y2="431.75" />
</g>
<g style="clip-path:url(#SVGID_1_);">
<line x1="180.62" y1="41.96" x2="261.04" y2="431.75" />
<line x1="170.24" y1="41.96" x2="250.65" y2="431.75" />
<line x1="159.85" y1="41.96" x2="240.27" y2="431.75" />
<line x1="149.46" y1="41.96" x2="229.88" y2="431.75" />
<line x1="139.08" y1="41.96" x2="219.49" y2="431.75" />
<line x1="128.69" y1="41.96" x2="209.11" y2="431.75" />
<line x1="118.3" y1="41.96" x2="198.72" y2="431.75" />
<line x1="107.92" y1="41.96" x2="188.33" y2="431.75" />
<line x1="97.53" y1="41.96" x2="177.95" y2="431.75" />
<line x1="87.14" y1="41.96" x2="167.56" y2="431.75" />
<line x1="76.76" y1="41.96" x2="157.17" y2="431.75" />
<line x1="66.37" y1="41.96" x2="146.79" y2="431.75" />
<line x1="55.98" y1="41.96" x2="136.4" y2="431.75" />
<line x1="45.6" y1="41.96" x2="126.01" y2="431.75" />
<line x1="35.21" y1="41.96" x2="115.63" y2="431.75" />
<line x1="24.82" y1="41.96" x2="105.24" y2="431.75" />
</g>
<g style="clip-path:url(#SVGID_1_);">
<line x1="111.06" y1="115.94" x2="168.61" y2="115.94" />
<line x1="111.06" y1="119.53" x2="168.61" y2="119.53" />
<line x1="111.06" y1="123.11" x2="168.61" y2="123.11" />
<line x1="111.06" y1="126.7" x2="168.61" y2="126.7" />
<line x1="111.06" y1="130.29" x2="168.61" y2="130.29" />
<line x1="111.06" y1="133.87" x2="168.61" y2="133.87" />
<line x1="111.06" y1="137.46" x2="168.61" y2="137.46" />
<line x1="111.06" y1="141.05" x2="168.61" y2="141.05" />
<line x1="111.06" y1="144.63" x2="168.61" y2="144.63" />
<line x1="111.06" y1="148.22" x2="168.61" y2="148.22" />
<line x1="111.06" y1="151.81" x2="168.61" y2="151.81" />
<line x1="111.06" y1="155.39" x2="168.61" y2="155.39" />
<line x1="111.06" y1="158.98" x2="168.61" y2="158.98" />
<line x1="111.06" y1="162.57" x2="168.61" y2="162.57" />
<line x1="111.06" y1="166.15" x2="168.61" y2="166.15" />
<line x1="111.06" y1="169.74" x2="168.61" y2="169.74" />
<line x1="111.06" y1="173.33" x2="168.61" y2="173.33" />
<line x1="111.06" y1="176.91" x2="168.61" y2="176.91" />
<line x1="111.06" y1="180.5" x2="168.61" y2="180.5" />
<line x1="111.06" y1="184.09" x2="168.61" y2="184.09" />
<line x1="111.06" y1="187.67" x2="168.61" y2="187.67" />
<line x1="111.06" y1="191.26" x2="168.61" y2="191.26" />
<line x1="111.06" y1="194.84" x2="168.61" y2="194.84" />
<line x1="111.06" y1="198.43" x2="168.61" y2="198.43" />
<line x1="111.06" y1="202.02" x2="168.61" y2="202.02" />
<line x1="111.06" y1="205.6" x2="168.61" y2="205.6" />
<line x1="111.06" y1="209.19" x2="168.61" y2="209.19" />
<line x1="111.06" y1="212.78" x2="168.61" y2="212.78" />
<line x1="111.06" y1="216.36" x2="168.61" y2="216.36" />
<line x1="111.06" y1="219.95" x2="168.61" y2="219.95" />
<line x1="111.06" y1="223.54" x2="168.61" y2="223.54" />
<line x1="111.06" y1="227.12" x2="168.61" y2="227.12" />
<line x1="111.06" y1="230.71" x2="168.61" y2="230.71" />
<line x1="111.06" y1="234.3" x2="168.61" y2="234.3" />
<line x1="111.06" y1="237.88" x2="168.61" y2="237.88" />
<line x1="111.06" y1="241.47" x2="168.61" y2="241.47" />
<line x1="111.06" y1="245.06" x2="168.61" y2="245.06" />
<line x1="111.06" y1="248.64" x2="168.61" y2="248.64" />
<line x1="111.06" y1="252.23" x2="168.61" y2="252.23" />
<line x1="111.06" y1="255.82" x2="168.61" y2="255.82" />
<line x1="111.06" y1="259.4" x2="168.61" y2="259.4" />
<line x1="111.06" y1="262.99" x2="168.61" y2="262.99" />
<line x1="111.06" y1="266.58" x2="168.61" y2="266.58" />
<line x1="111.06" y1="270.16" x2="168.61" y2="270.16" />
<line x1="111.06" y1="273.75" x2="168.61" y2="273.75" />
<line x1="111.06" y1="277.34" x2="168.61" y2="277.34" />
<line x1="111.06" y1="280.92" x2="168.61" y2="280.92" />
<line x1="111.06" y1="284.51" x2="168.61" y2="284.51" />
<line x1="111.06" y1="288.1" x2="168.61" y2="288.1" />
<line x1="111.06" y1="291.68" x2="168.61" y2="291.68" />
<line x1="111.06" y1="295.27" x2="168.61" y2="295.27" />
<line x1="111.06" y1="298.85" x2="168.61" y2="298.85" />
<line x1="111.06" y1="302.44" x2="168.61" y2="302.44" />
<line x1="111.06" y1="306.03" x2="168.61" y2="306.03" />
<line x1="111.06" y1="309.61" x2="168.61" y2="309.61" />
<line x1="111.06" y1="313.2" x2="168.61" y2="313.2" />
<line x1="111.06" y1="316.79" x2="168.61" y2="316.79" />
<line x1="111.06" y1="320.37" x2="168.61" y2="320.37" />
<line x1="111.06" y1="323.96" x2="168.61" y2="323.96" />
<line x1="111.06" y1="327.55" x2="168.61" y2="327.55" />
<line x1="111.06" y1="331.13" x2="168.61" y2="331.13" />
<line x1="111.06" y1="334.72" x2="168.61" y2="334.72" />
<line x1="111.06" y1="338.31" x2="168.61" y2="338.31" />
<line x1="111.06" y1="341.89" x2="168.61" y2="341.89" />
<line x1="111.06" y1="345.48" x2="168.61" y2="345.48" />
<line x1="111.06" y1="349.07" x2="168.61" y2="349.07" />
<line x1="111.06" y1="352.65" x2="168.61" y2="352.65" />
<line x1="111.06" y1="356.24" x2="168.61" y2="356.24" />
<line x1="111.06" y1="359.83" x2="168.61" y2="359.83" />
<line x1="111.06" y1="363.41" x2="168.61" y2="363.41" />
<line x1="111.06" y1="367" x2="168.61" y2="367" />
<line x1="111.06" y1="370.59" x2="168.61" y2="370.59" />
<line x1="111.06" y1="374.17" x2="168.61" y2="374.17" />
<line x1="111.06" y1="377.76" x2="168.61" y2="377.76" />
<line x1="111.06" y1="381.35" x2="168.61" y2="381.35" />
<line x1="111.06" y1="384.93" x2="168.61" y2="384.93" />
<line x1="111.06" y1="388.52" x2="168.61" y2="388.52" />
<line x1="111.06" y1="392.1" x2="168.61" y2="392.1" />
<line x1="111.06" y1="395.69" x2="168.61" y2="395.69" />
<line x1="111.06" y1="399.28" x2="168.61" y2="399.28" />
<line x1="111.06" y1="402.86" x2="168.61" y2="402.86" />
<line x1="111.06" y1="406.45" x2="168.61" y2="406.45" />
</g>
<g style="clip-path:url(#SVGID_1_);">
<line x1="164.61" y1="209.31" x2="164.61" y2="202.02" />
<line x1="163.78" y1="209.31" x2="163.78" y2="202.02" />
<line x1="162.95" y1="209.31" x2="162.95" y2="202.02" />
<line x1="162.11" y1="209.31" x2="162.11" y2="202.02" />
<line x1="161.28" y1="209.31" x2="161.28" y2="202.02" />
<line x1="160.45" y1="209.31" x2="160.45" y2="202.02" />
<line x1="159.61" y1="209.31" x2="159.61" y2="202.02" />
<line x1="158.78" y1="209.31" x2="158.78" y2="202.02" />
<line x1="157.95" y1="209.31" x2="157.95" y2="202.02" />
<line x1="157.11" y1="209.31" x2="157.11" y2="202.02" />
<line x1="156.28" y1="209.31" x2="156.28" y2="202.02" />
<line x1="155.44" y1="209.31" x2="155.44" y2="202.02" />
<line x1="154.61" y1="209.31" x2="154.61" y2="202.02" />
<line x1="153.78" y1="209.31" x2="153.78" y2="202.02" />
<line x1="152.94" y1="209.31" x2="152.94" y2="202.02" />
<line x1="152.11" y1="209.31" x2="152.11" y2="202.02" />
<line x1="151.28" y1="209.31" x2="151.28" y2="202.02" />
<line x1="150.44" y1="209.31" x2="150.44" y2="202.02" />
<line x1="149.61" y1="209.31" x2="149.61" y2="202.02" />
<line x1="148.78" y1="209.31" x2="148.78" y2="202.02" />
<line x1="147.94" y1="209.31" x2="147.94" y2="202.02" />
<line x1="147.11" y1="209.31" x2="147.11" y2="202.02" />
<line x1="146.27" y1="209.31" x2="146.27" y2="202.02" />
<line x1="145.44" y1="209.31" x2="145.44" y2="202.02" />
<line x1="144.61" y1="209.31" x2="144.61" y2="202.02" />
<line x1="143.77" y1="209.31" x2="143.77" y2="202.02" />
<line x1="142.94" y1="209.31" x2="142.94" y2="202.02" />
<line x1="142.11" y1="209.31" x2="142.11" y2="202.02" />
<line x1="141.27" y1="209.31" x2="141.27" y2="202.02" />
<line x1="140.44" y1="209.31" x2="140.44" y2="202.02" />
<line x1="139.61" y1="209.31" x2="139.61" y2="202.02" />
<line x1="138.77" y1="209.31" x2="138.77" y2="202.02" />
<line x1="137.94" y1="209.31" x2="137.94" y2="202.02" />
<line x1="137.1" y1="209.31" x2="137.1" y2="202.02" />
<line x1="136.27" y1="209.31" x2="136.27" y2="202.02" />
<line x1="135.44" y1="209.31" x2="135.44" y2="202.02" />
<line x1="134.6" y1="209.31" x2="134.6" y2="202.02" />
<line x1="133.77" y1="209.31" x2="133.77" y2="202.02" />
<line x1="132.94" y1="209.31" x2="132.94" y2="202.02" />
<line x1="132.1" y1="209.31" x2="132.1" y2="202.02" />
<line x1="131.27" y1="209.31" x2="131.27" y2="202.02" />
<line x1="130.44" y1="209.31" x2="130.44" y2="202.02" />
<line x1="129.6" y1="209.31" x2="129.6" y2="202.02" />
<line x1="128.77" y1="209.31" x2="128.77" y2="202.02" />
<line x1="127.93" y1="209.31" x2="127.93" y2="202.02" />
<line x1="127.1" y1="209.31" x2="127.1" y2="202.02" />
<line x1="126.27" y1="209.31" x2="126.27" y2="202.02" />
<line x1="125.43" y1="209.31" x2="125.43" y2="202.02" />
<line x1="124.6" y1="209.31" x2="124.6" y2="202.02" />
<line x1="123.77" y1="209.31" x2="123.77" y2="202.02" />
<line x1="122.93" y1="209.31" x2="122.93" y2="202.02" />
<line x1="122.1" y1="209.31" x2="122.1" y2="202.02" />
<line x1="121.27" y1="209.31" x2="121.27" y2="202.02" />
<line x1="120.43" y1="209.31" x2="120.43" y2="202.02" />
<line x1="119.6" y1="209.31" x2="119.6" y2="202.02" />
<line x1="118.76" y1="209.31" x2="118.76" y2="202.02" />
<line x1="117.93" y1="209.31" x2="117.93" y2="202.02" />
<line x1="117.1" y1="209.31" x2="117.1" y2="202.02" />
<line x1="116.26" y1="209.31" x2="116.26" y2="202.02" />
<line x1="115.43" y1="209.31" x2="115.43" y2="202.02" />
</g>
<g style="clip-path:url(#SVGID_1_);">
<line x1="164.61" y1="266.81" x2="164.61" y2="259.51" />
<line x1="163.78" y1="266.81" x2="163.78" y2="259.51" />
<line x1="162.95" y1="266.81" x2="162.95" y2="259.51" />
<line x1="162.11" y1="266.81" x2="162.11" y2="259.51" />
<line x1="161.28" y1="266.81" x2="161.28" y2="259.51" />
<line x1="160.45" y1="266.81" x2="160.45" y2="259.51" />
<line x1="159.61" y1="266.81" x2="159.61" y2="259.51" />
<line x1="158.78" y1="266.81" x2="158.78" y2="259.51" />
<line x1="157.95" y1="266.81" x2="157.95" y2="259.51" />
<line x1="157.11" y1="266.81" x2="157.11" y2="259.51" />
<line x1="156.28" y1="266.81" x2="156.28" y2="259.51" />
<line x1="155.44" y1="266.81" x2="155.44" y2="259.51" />
<line x1="154.61" y1="266.81" x2="154.61" y2="259.51" />
<line x1="153.78" y1="266.81" x2="153.78" y2="259.51" />
<line x1="152.94" y1="266.81" x2="152.94" y2="259.51" />
<line x1="152.11" y1="266.81" x2="152.11" y2="259.51" />
<line x1="151.28" y1="266.81" x2="151.28" y2="259.51" />
<line x1="150.44" y1="266.81" x2="150.44" y2="259.51" />
<line x1="149.61" y1="266.81" x2="149.61" y2="259.51" />
<line x1="148.78" y1="266.81" x2="148.78" y2="259.51" />
<line x1="147.94" y1="266.81" x2="147.94" y2="259.51" />
<line x1="147.11" y1="266.81" x2="147.11" y2="259.51" />
<line x1="146.27" y1="266.81" x2="146.27" y2="259.51" />
<line x1="145.44" y1="266.81" x2="145.44" y2="259.51" />
<line x1="144.61" y1="266.81" x2="144.61" y2="259.51" />
<line x1="143.77" y1="266.81" x2="143.77" y2="259.51" />
<line x1="142.94" y1="266.81" x2="142.94" y2="259.51" />
<line x1="142.11" y1="266.81" x2="142.11" y2="259.51" />
<line x1="141.27" y1="266.81" x2="141.27" y2="259.51" />
<line x1="140.44" y1="266.81" x2="140.44" y2="259.51" />
<line x1="139.61" y1="266.81" x2="139.61" y2="259.51" />
<line x1="138.77" y1="266.81" x2="138.77" y2="259.51" />
<line x1="137.94" y1="266.81" x2="137.94" y2="259.51" />
<line x1="137.1" y1="266.81" x2="137.1" y2="259.51" />
<line x1="136.27" y1="266.81" x2="136.27" y2="259.51" />
<line x1="135.44" y1="266.81" x2="135.44" y2="259.51" />
<line x1="134.6" y1="266.81" x2="134.6" y2="259.51" />
<line x1="133.77" y1="266.81" x2="133.77" y2="259.51" />
<line x1="132.94" y1="266.81" x2="132.94" y2="259.51" />
<line x1="132.1" y1="266.81" x2="132.1" y2="259.51" />
<line x1="131.27" y1="266.81" x2="131.27" y2="259.51" />
<line x1="130.44" y1="266.81" x2="130.44" y2="259.51" />
<line x1="129.6" y1="266.81" x2="129.6" y2="259.51" />
<line x1="128.77" y1="266.81" x2="128.77" y2="259.51" />
<line x1="127.93" y1="266.81" x2="127.93" y2="259.51" />
<line x1="127.1" y1="266.81" x2="127.1" y2="259.51" />
<line x1="126.27" y1="266.81" x2="126.27" y2="259.51" />
<line x1="125.43" y1="266.81" x2="125.43" y2="259.51" />
<line x1="124.6" y1="266.81" x2="124.6" y2="259.51" />
<line x1="123.77" y1="266.81" x2="123.77" y2="259.51" />
<line x1="122.93" y1="266.81" x2="122.93" y2="259.51" />
<line x1="122.1" y1="266.81" x2="122.1" y2="259.51" />
<line x1="121.27" y1="266.81" x2="121.27" y2="259.51" />
<line x1="120.43" y1="266.81" x2="120.43" y2="259.51" />
<line x1="119.6" y1="266.81" x2="119.6" y2="259.51" />
<line x1="118.76" y1="266.81" x2="118.76" y2="259.51" />
<line x1="117.93" y1="266.81" x2="117.93" y2="259.51" />
<line x1="117.1" y1="266.81" x2="117.1" y2="259.51" />
<line x1="116.26" y1="266.81" x2="116.26" y2="259.51" />
<line x1="115.43" y1="266.81" x2="115.43" y2="259.51" />
</g>
<g style="clip-path:url(#SVGID_1_);">
<line x1="164.61" y1="323.87" x2="164.61" y2="316.57" />
<line x1="163.78" y1="323.87" x2="163.78" y2="316.57" />
<line x1="162.95" y1="323.87" x2="162.95" y2="316.57" />
<line x1="162.11" y1="323.87" x2="162.11" y2="316.57" />
<line x1="161.28" y1="323.87" x2="161.28" y2="316.57" />
<line x1="160.45" y1="323.87" x2="160.45" y2="316.57" />
<line x1="159.61" y1="323.87" x2="159.61" y2="316.57" />
<line x1="158.78" y1="323.87" x2="158.78" y2="316.57" />
<line x1="157.95" y1="323.87" x2="157.95" y2="316.57" />
<line x1="157.11" y1="323.87" x2="157.11" y2="316.57" />
<line x1="156.28" y1="323.87" x2="156.28" y2="316.57" />
<line x1="155.44" y1="323.87" x2="155.44" y2="316.57" />
<line x1="154.61" y1="323.87" x2="154.61" y2="316.57" />
<line x1="153.78" y1="323.87" x2="153.78" y2="316.57" />
<line x1="152.94" y1="323.87" x2="152.94" y2="316.57" />
<line x1="152.11" y1="323.87" x2="152.11" y2="316.57" />
<line x1="151.28" y1="323.87" x2="151.28" y2="316.57" />
<line x1="150.44" y1="323.87" x2="150.44" y2="316.57" />
<line x1="149.61" y1="323.87" x2="149.61" y2="316.57" />
<line x1="148.78" y1="323.87" x2="148.78" y2="316.57" />
<line x1="147.94" y1="323.87" x2="147.94" y2="316.57" />
<line x1="147.11" y1="323.87" x2="147.11" y2="316.57" />
<line x1="146.27" y1="323.87" x2="146.27" y2="316.57" />
<line x1="145.44" y1="323.87" x2="145.44" y2="316.57" />
<line x1="144.61" y1="323.87" x2="144.61" y2="316.57" />
<line x1="143.77" y1="323.87" x2="143.77" y2="316.57" />
<line x1="142.94" y1="323.87" x2="142.94" y2="316.57" />
<line x1="142.11" y1="323.87" x2="142.11" y2="316.57" />
<line x1="141.27" y1="323.87" x2="141.27" y2="316.57" />
<line x1="140.44" y1="323.87" x2="140.44" y2="316.57" />
<line x1="139.61" y1="323.87" x2="139.61" y2="316.57" />
<line x1="138.77" y1="323.87" x2="138.77" y2="316.57" />
<line x1="137.94" y1="323.87" x2="137.94" y2="316.57" />
<line x1="137.1" y1="323.87" x2="137.1" y2="316.57" />
<line x1="136.27" y1="323.87" x2="136.27" y2="316.57" />
<line x1="135.44" y1="323.87" x2="135.44" y2="316.57" />
<line x1="134.6" y1="323.87" x2="134.6" y2="316.57" />
<line x1="133.77" y1="323.87" x2="133.77" y2="316.57" />
<line x1="132.94" y1="323.87" x2="132.94" y2="316.57" />
<line x1="132.1" y1="323.87" x2="132.1" y2="316.57" />
<line x1="131.27" y1="323.87" x2="131.27" y2="316.57" />
<line x1="130.44" y1="323.87" x2="130.44" y2="316.57" />
<line x1="129.6" y1="323.87" x2="129.6" y2="316.57" />
<line x1="128.77" y1="323.87" x2="128.77" y2="316.57" />
<line x1="127.93" y1="323.87" x2="127.93" y2="316.57" />
<line x1="127.1" y1="323.87" x2="127.1" y2="316.57" />
<line x1="126.27" y1="323.87" x2="126.27" y2="316.57" />
<line x1="125.43" y1="323.87" x2="125.43" y2="316.57" />
<line x1="124.6" y1="323.87" x2="124.6" y2="316.57" />
<line x1="123.77" y1="323.87" x2="123.77" y2="316.57" />
<line x1="122.93" y1="323.87" x2="122.93" y2="316.57" />
<line x1="122.1" y1="323.87" x2="122.1" y2="316.57" />
<line x1="121.27" y1="323.87" x2="121.27" y2="316.57" />
<line x1="120.43" y1="323.87" x2="120.43" y2="316.57" />
<line x1="119.6" y1="323.87" x2="119.6" y2="316.57" />
<line x1="118.76" y1="323.87" x2="118.76" y2="316.57" />
<line x1="117.93" y1="323.87" x2="117.93" y2="316.57" />
<line x1="117.1" y1="323.87" x2="117.1" y2="316.57" />
<line x1="116.26" y1="323.87" x2="116.26" y2="316.57" />
<line x1="115.43" y1="323.87" x2="115.43" y2="316.57" />
</g>
<g style="clip-path:url(#SVGID_1_);">
<line x1="164.61" y1="381.29" x2="164.61" y2="374" />
<line x1="163.78" y1="381.29" x2="163.78" y2="374" />
<line x1="162.95" y1="381.29" x2="162.95" y2="374" />
<line x1="162.11" y1="381.29" x2="162.11" y2="374" />
<line x1="161.28" y1="381.29" x2="161.28" y2="374" />
<line x1="160.45" y1="381.29" x2="160.45" y2="374" />
<line x1="159.61" y1="381.29" x2="159.61" y2="374" />
<line x1="158.78" y1="381.29" x2="158.78" y2="374" />
<line x1="157.95" y1="381.29" x2="157.95" y2="374" />
<line x1="157.11" y1="381.29" x2="157.11" y2="374" />
<line x1="156.28" y1="381.29" x2="156.28" y2="374" />
<line x1="155.44" y1="381.29" x2="155.44" y2="374" />
<line x1="154.61" y1="381.29" x2="154.61" y2="374" />
<line x1="153.78" y1="381.29" x2="153.78" y2="374" />
<line x1="152.94" y1="381.29" x2="152.94" y2="374" />
<line x1="152.11" y1="381.29" x2="152.11" y2="374" />
<line x1="151.28" y1="381.29" x2="151.28" y2="374" />
<line x1="150.44" y1="381.29" x2="150.44" y2="374" />
<line x1="149.61" y1="381.29" x2="149.61" y2="374" />
<line x1="148.78" y1="381.29" x2="148.78" y2="374" />
<line x1="147.94" y1="381.29" x2="147.94" y2="374" />
<line x1="147.11" y1="381.29" x2="147.11" y2="374" />
<line x1="146.27" y1="381.29" x2="146.27" y2="374" />
<line x1="145.44" y1="381.29" x2="145.44" y2="374" />
<line x1="144.61" y1="381.29" x2="144.61" y2="374" />
<line x1="143.77" y1="381.29" x2="143.77" y2="374" />
<line x1="142.94" y1="381.29" x2="142.94" y2="374" />
<line x1="142.11" y1="381.29" x2="142.11" y2="374" />
<line x1="141.27" y1="381.29" x2="141.27" y2="374" />
<line x1="140.44" y1="381.29" x2="140.44" y2="374" />
<line x1="139.61" y1="381.29" x2="139.61" y2="374" />
<line x1="138.77" y1="381.29" x2="138.77" y2="374" />
<line x1="137.94" y1="381.29" x2="137.94" y2="374" />
<line x1="137.1" y1="381.29" x2="137.1" y2="374" />
<line x1="136.27" y1="381.29" x2="136.27" y2="374" />
<line x1="135.44" y1="381.29" x2="135.44" y2="374" />
<line x1="134.6" y1="381.29" x2="134.6" y2="374" />
<line x1="133.77" y1="381.29" x2="133.77" y2="374" />
<line x1="132.94" y1="381.29" x2="132.94" y2="374" />
<line x1="132.1" y1="381.29" x2="132.1" y2="374" />
<line x1="131.27" y1="381.29" x2="131.27" y2="374" />
<line x1="130.44" y1="381.29" x2="130.44" y2="374" />
<line x1="129.6" y1="381.29" x2="129.6" y2="374" />
<line x1="128.77" y1="381.29" x2="128.77" y2="374" />
<line x1="127.93" y1="381.29" x2="127.93" y2="374" />
<line x1="127.1" y1="381.29" x2="127.1" y2="374" />
<line x1="126.27" y1="381.29" x2="126.27" y2="374" />
<line x1="125.43" y1="381.29" x2="125.43" y2="374" />
<line x1="124.6" y1="381.29" x2="124.6" y2="374" />
<line x1="123.77" y1="381.29" x2="123.77" y2="374" />
<line x1="122.93" y1="381.29" x2="122.93" y2="374" />
<line x1="122.1" y1="381.29" x2="122.1" y2="374" />
<line x1="121.27" y1="381.29" x2="121.27" y2="374" />
<line x1="120.43" y1="381.29" x2="120.43" y2="374" />
<line x1="119.6" y1="381.29" x2="119.6" y2="374" />
<line x1="118.76" y1="381.29" x2="118.76" y2="374" />
<line x1="117.93" y1="381.29" x2="117.93" y2="374" />
<line x1="117.1" y1="381.29" x2="117.1" y2="374" />
<line x1="116.26" y1="381.29" x2="116.26" y2="374" />
<line x1="115.43" y1="381.29" x2="115.43" y2="374" />
</g>
<g style="clip-path:url(#SVGID_1_);">
<line x1="132.08" y1="187.85" x2="132.08" y2="184.29" />
<line x1="131.29" y1="187.85" x2="131.29" y2="184.29" />
<line x1="130.5" y1="187.85" x2="130.5" y2="184.29" />
<line x1="129.71" y1="187.85" x2="129.71" y2="184.29" />
<line x1="128.92" y1="187.85" x2="128.92" y2="184.29" />
<line x1="128.14" y1="187.85" x2="128.14" y2="184.29" />
<line x1="127.35" y1="187.85" x2="127.35" y2="184.29" />
<line x1="126.56" y1="187.85" x2="126.56" y2="184.29" />
<line x1="125.77" y1="187.85" x2="125.77" y2="184.29" />
<line x1="124.98" y1="187.85" x2="124.98" y2="184.29" />
<line x1="124.19" y1="187.85" x2="124.19" y2="184.29" />
<line x1="123.41" y1="187.85" x2="123.41" y2="184.29" />
<line x1="122.62" y1="187.85" x2="122.62" y2="184.29" />
<line x1="121.83" y1="187.85" x2="121.83" y2="184.29" />
<line x1="121.04" y1="187.85" x2="121.04" y2="184.29" />
<line x1="120.25" y1="187.85" x2="120.25" y2="184.29" />
<line x1="119.46" y1="187.85" x2="119.46" y2="184.29" />
<line x1="118.67" y1="187.85" x2="118.67" y2="184.29" />
<line x1="117.89" y1="187.85" x2="117.89" y2="184.29" />
<line x1="117.1" y1="187.85" x2="117.1" y2="184.29" />
</g>
<g style="clip-path:url(#SVGID_1_);">
<line x1="167.6" y1="187.85" x2="167.6" y2="184.29" />
<line x1="166.82" y1="187.85" x2="166.82" y2="184.29" />
<line x1="166.03" y1="187.85" x2="166.03" y2="184.29" />
<line x1="165.24" y1="187.85" x2="165.24" y2="184.29" />
<line x1="164.45" y1="187.85" x2="164.45" y2="184.29" />
<line x1="163.66" y1="187.85" x2="163.66" y2="184.29" />
<line x1="162.87" y1="187.85" x2="162.87" y2="184.29" />
<line x1="162.09" y1="187.85" x2="162.09" y2="184.29" />
<line x1="161.3" y1="187.85" x2="161.3" y2="184.29" />
<line x1="160.51" y1="187.85" x2="160.51" y2="184.29" />
<line x1="159.72" y1="187.85" x2="159.72" y2="184.29" />
<line x1="158.93" y1="187.85" x2="158.93" y2="184.29" />
<line x1="158.14" y1="187.85" x2="158.14" y2="184.29" />
<line x1="157.35" y1="187.85" x2="157.35" y2="184.29" />
<line x1="156.57" y1="187.85" x2="156.57" y2="184.29" />
<line x1="155.78" y1="187.85" x2="155.78" y2="184.29" />
<line x1="154.99" y1="187.85" x2="154.99" y2="184.29" />
<line x1="154.2" y1="187.85" x2="154.2" y2="184.29" />
<line x1="153.41" y1="187.85" x2="153.41" y2="184.29" />
<line x1="152.62" y1="187.85" x2="152.62" y2="184.29" />
</g>
<g style="clip-path:url(#SVGID_1_);">
<line x1="132.08" y1="166.29" x2="132.08" y2="162.72" />
<line x1="131.29" y1="166.29" x2="131.29" y2="162.72" />
<line x1="130.5" y1="166.29" x2="130.5" y2="162.72" />
<line x1="129.71" y1="166.29" x2="129.71" y2="162.72" />
<line x1="128.92" y1="166.29" x2="128.92" y2="162.72" />
<line x1="128.14" y1="166.29" x2="128.14" y2="162.72" />
<line x1="127.35" y1="166.29" x2="127.35" y2="162.72" />
<line x1="126.56" y1="166.29" x2="126.56" y2="162.72" />
<line x1="125.77" y1="166.29" x2="125.77" y2="162.72" />
<line x1="124.98" y1="166.29" x2="124.98" y2="162.72" />
<line x1="124.19" y1="166.29" x2="124.19" y2="162.72" />
<line x1="123.41" y1="166.29" x2="123.41" y2="162.72" />
<line x1="122.62" y1="166.29" x2="122.62" y2="162.72" />
<line x1="121.83" y1="166.29" x2="121.83" y2="162.72" />
<line x1="121.04" y1="166.29" x2="121.04" y2="162.72" />
<line x1="120.25" y1="166.29" x2="120.25" y2="162.72" />
<line x1="119.46" y1="166.29" x2="119.46" y2="162.72" />
<line x1="118.67" y1="166.29" x2="118.67" y2="162.72" />
<line x1="117.89" y1="166.29" x2="117.89" y2="162.72" />
<line x1="117.1" y1="166.29" x2="117.1" y2="162.72" />
</g>
<g style="clip-path:url(#SVGID_1_);">
<line x1="167.6" y1="166.29" x2="167.6" y2="162.72" />
<line x1="166.82" y1="166.29" x2="166.82" y2="162.72" />
<line x1="166.03" y1="166.29" x2="166.03" y2="162.72" />
<line x1="165.24" y1="166.29" x2="165.24" y2="162.72" />
<line x1="164.45" y1="166.29" x2="164.45" y2="162.72" />
<line x1="163.66" y1="166.29" x2="163.66" y2="162.72" />
<line x1="162.87" y1="166.29" x2="162.87" y2="162.72" />
<line x1="162.09" y1="166.29" x2="162.09" y2="162.72" />
<line x1="161.3" y1="166.29" x2="161.3" y2="162.72" />
<line x1="160.51" y1="166.29" x2="160.51" y2="162.72" />
<line x1="159.72" y1="166.29" x2="159.72" y2="162.72" />
<line x1="158.93" y1="166.29" x2="158.93" y2="162.72" />
<line x1="158.14" y1="166.29" x2="158.14" y2="162.72" />
<line x1="157.35" y1="166.29" x2="157.35" y2="162.72" />
<line x1="156.57" y1="166.29" x2="156.57" y2="162.72" />
<line x1="155.78" y1="166.29" x2="155.78" y2="162.72" />
<line x1="154.99" y1="166.29" x2="154.99" y2="162.72" />
<line x1="154.2" y1="166.29" x2="154.2" y2="162.72" />
<line x1="153.41" y1="166.29" x2="153.41" y2="162.72" />
<line x1="152.62" y1="166.29" x2="152.62" y2="162.72" />
</g>
</g>
</svg>
</svg>