<?xml version="1.0" encoding="UTF-8"?>
<svg xmlns="http://www.w3.org/2000/svg" xmlns:xlink="http://www.w3.org/1999/xlink"
     width="49" height="286" viewBox="0 0 49 286">
<defs>
</defs>
<svg x="-126" y="-89">
<clipPath id="clip广州-06">
<path d="M 133 89 L 133 135 L 132 136 L 131 136 L 131 148 L 130 149 L 126 149 L 126 374 L 174 374 L 174 149 L 170 149 L 169 148 L 169 136 L 168 135 L 168 110 L 167 109 L 167 89 L 166 89 L 166 135 L 165 136 L 164 136 L 164 148 L 163 149 L 161 149 L 160 148 L 160 138 L 140 138 L 140 148 L 139 149 L 137 149 L 136 148 L 136 136 L 135 135 L 135 110 L 134 109 L 134 89 z" />
</clipPath>
<g clip-path="url(#clip广州-06)">
<rect x="137.07" y="168.73" width="27.26" height="205.64" />
<g>
<rect x="137.07" y="372.78" width="27.26" height="1.59" />
<rect x="137.07" y="367.89" width="27.26" height="1.59" />
<rect x="137.07" y="362.99" width="27.26" height="1.59" />
<rect x="137.07" y="358.1" width="27.26" height="1.59" />
<rect x="137.07" y="353.2" width="27.26" height="1.59" />
<rect x="137.07" y="348.31" width="27.26" height="1.59" />
<rect x="137.07" y="343.41" width="27.26" height="1.59" />
<rect x="137.07" y="338.52" width="27.26" height="1.59" />
<rect x="137.07" y="333.62" width="27.26" height="1.59" />
<rect x="137.07" y="328.73" width="27.26" height="1.59" />
<rect x="137.07" y="323.83" width="27.26" height="1.59" />
<rect x="137.07" y="318.93" width="27.26" height="1.59" />
<rect x="137.07" y="314.04" width="27.26" height="1.59" />
<rect x="137.07" y="309.14" width="27.26" height="1.59" />
<rect x="137.07" y="304.25" width="27.26" height="1.59" />
<rect x="137.07" y="299.35" width="27.26" height="1.59" />
<rect x="137.07" y="294.46" width="27.26" height="1.59" />
<rect x="137.07" y="289.56" width="27.26" height="1.59" />
<rect x="137.07" y="284.67" width="27.26" height="1.59" />
<rect x="137.07" y="279.77" width="27.26" height="1.59" />
<rect x="137.07" y="274.88" width="27.26" height="1.59" />
<rect x="137.07" y="269.98" width="27.26" height="1.59" />
<rect x="137.07" y="265.09" width="27.26" height="1.59" />
<rect x="137.07" y="260.19" width="27.26" height="1.59" />
<rect x="137.07" y="255.29" width="27.26" height="1.59" />
<rect x="137.07" y="250.4" width="27.26" height="1.59" />
<rect x="137.07" y="245.5" width="27.26" height="1.59" />
<rect x="137.07" y="240.61" width="27.26" height="1.59" />
<rect x="137.07" y="235.71" width="27.26" height="1.59" />
<rect x="137.07" y="230.82" width="27.26" height="1.59" />
<rect x="137.07" y="225.92" width="27.26" height="1.59" />
<rect x="137.07" y="221.03" width="27.26" height="1.59" />
<rect x="137.07" y="216.13" width="27.26" height="1.59" />
<rect x="137.07" y="211.24" width="27.26" height="1.59" />
<rect x="137.07" y="206.34" width="27.26" height="1.59" />
<rect x="137.07" y="201.45" width="27.26" height="1.59" />
<rect x="137.07" y="196.55" width="27.26" height="1.59" />
<rect x="137.07" y="191.65" width="27.26" height="1.59" />
<rect x="137.07" y="186.76" width="27.26" height="1.59" />
<rect x="137.07" y="181.86" width="27.26" height="1.59" />
<rect x="137.07" y="176.97" width="27.26" height="1.59" />
<rect x="137.07" y="172.07" width="27.26" height="1.59" />
</g>
<g>
<rect x="141.06" y="232.43" width="19.3" height="3.25" />
</g>
<g>
<rect x="141.06" y="237.31" width="19.3" height="3.25" />
</g>
<g>
<rect x="141.06" y="296.06" width="19.3" height="3.25" />
</g>
<g>
<rect x="141.06" y="300.94" width="19.3" height="3.25" />
</g>
<rect x="139.31" y="161.66" width="22.78" height="1.59" />
<rect x="141.01" y="139.4" width="19.39" height="10.2" />
<rect x="143.41" y="153.26" width="14.57" height="15.46" />
<rect x="137.07" y="168.73" width="27.26" height="3.58" />
<g>
<rect x="131.96" y="136.76" width="4.49" height="12.78" />
<rect x="133.65" y="111.06" width="1.1" height="25.7" />
<rect x="133.96" y="89.63" width="0.49" height="21.46" />
<rect x="127.33" y="149.54" width="13.75" height="224.83" />
</g>
<rect x="141.08" y="149.54" width="3.84" height="19.17" />
<rect x="156.49" y="149.54" width="3.84" height="19.17" />
<rect x="164.99" y="136.76" width="4.49" height="12.78" />
<rect x="166.68" y="111.06" width="1.1" height="25.7" />
<rect x="166.99" y="89.63" width="0.49" height="21.46" />
<g>
<rect x="160.36" y="149.54" width="13.75" height="224.83" />
</g>
</g>
</svg>
</svg>