<?xml version="1.0" encoding="UTF-8"?>
<svg xmlns="http://www.w3.org/2000/svg" xmlns:xlink="http://www.w3.org/1999/xlink"
     width="58" height="420" viewBox="0 0 58 420">
<defs>
</defs>
<svg x="-111" y="-31">
<clipPath id="clip广州-02">
<path d="M 142 31 L 142 76 L 141 77 L 140 77 L 140 78 L 141 79 L 141 87 L 140 88 L 140 89 L 141 90 L 141 93 L 140 94 L 140 95 L 139 96 L 139 97 L 140 97 L 141 98 L 141 103 L 140 104 L 140 112 L 139 113 L 138 113 L 137 112 L 137 111 L 135 111 L 134 112 L 133 112 L 132 111 L 130 111 L 130 112 L 129 113 L 128 113 L 127 112 L 125 112 L 125 113 L 123 115 L 123 119 L 124 120 L 124 136 L 125 137 L 125 154 L 126 155 L 126 174 L 127 175 L 127 201 L 128 202 L 128 259 L 127 260 L 127 276 L 126 277 L 126 291 L 125 292 L 125 304 L 124 305 L 124 316 L 123 317 L 123 329 L 122 330 L 122 340 L 121 341 L 121 351 L 120 352 L 120 362 L 119 363 L 119 373 L 118 374 L 118 383 L 117 384 L 117 394 L 116 395 L 116 404 L 115 405 L 115 414 L 114 415 L 114 424 L 113 425 L 113 434 L 112 435 L 112 443 L 111 444 L 111 450 L 168 450 L 168 446 L 167 445 L 167 433 L 166 432 L 166 420 L 165 419 L 165 406 L 164 405 L 164 392 L 163 391 L 163 379 L 162 378 L 162 365 L 161 364 L 161 350 L 160 349 L 160 335 L 159 334 L 159 319 L 158 318 L 158 303 L 157 302 L 157 284 L 156 283 L 156 264 L 155 263 L 155 216 L 156 215 L 156 198 L 157 197 L 157 184 L 158 183 L 158 174 L 159 173 L 159 164 L 160 163 L 160 155 L 161 154 L 161 147 L 162 146 L 162 140 L 163 139 L 163 133 L 164 132 L 164 128 L 163 127 L 163 126 L 164 125 L 164 124 L 163 124 L 161 122 L 161 120 L 159 120 L 157 118 L 157 117 L 156 116 L 155 117 L 154 117 L 153 116 L 153 115 L 152 114 L 151 115 L 149 115 L 148 114 L 148 113 L 147 113 L 146 112 L 146 101 L 145 100 L 145 98 L 146 97 L 147 97 L 147 96 L 146 95 L 146 94 L 145 93 L 145 90 L 146 89 L 146 88 L 145 87 L 145 79 L 146 78 L 146 77 L 145 77 L 144 76 L 144 31 z" />
</clipPath>
<g clip-path="url(#clip广州-02)">
<g>
<g>
<rect x="141.61" y="78.12" width="3.97" height="18.42" />
<rect x="142.25" y="50.65" width="2.7" height="27.23" />
<rect x="142.98" y="31.47" width="1.24" height="19.17" />
<polygon points="146.98,117.58 140.22,117.58 141.41,97.01 145.79,97.01    " />
<rect x="139.66" y="96.12" width="7.88" height="1.54" />
<rect x="140.66" y="94.87" width="5.88" height="1.25" />
<rect x="140.66" y="77.16" width="5.88" height="1.25" />
<rect x="140.66" y="88.64" width="5.88" height="1.25" />
</g>
</g>
<g>
<defs>
<path id="SVGID_593_" d="M124.21,116c0,0,4.91,71.43,4.91,122.14s-17.22,211.92-17.22,211.92h55.97     c0,0-12.92-161.21-12.92-210.49c0-49.27,7.81-102.69,8.77-108.43c0.96-5.74-4.97-16.6-29.02-17.86     C131.98,113.13,125,113.36,124.21,116z" />
</defs>
<use xlink:href="#SVGID_593_" />
<clipPath id="SVGID_1_">
<use style="overflow:visible;" xlink:href="#SVGID_593_" />
</clipPath>
<g style="clip-path:url(#SVGID_1_);">
<path d="M121.14,120.36c0,0,22.63-4.11,42.59,10.77" />
<path d="M120.69,128.77c0,0,23.23-4.13,43.21,10.53" />
<path d="M120.24,137.19c0,0,23.84-4.16,43.84,10.29" />
<path d="M119.78,145.6c0,0,24.44-4.18,44.46,10.06" />
<path d="M119.33,154.01c0,0,25.04-4.21,45.08,9.82" />
<path d="M118.87,162.42c0,0,25.64-4.23,45.71,9.58" />
<path d="M118.42,170.83c0,0,26.24-4.26,46.33,9.34" />
<path d="M117.97,179.24c0,0,26.84-4.28,46.95,9.1" />
<path d="M117.51,187.65c0,0,27.44-4.31,47.58,8.86" />
<path d="M117.06,196.06c0,0,28.04-4.34,48.2,8.62" />
<path d="M116.6,204.47c0,0,28.64-4.36,48.82,8.38" />
<path d="M116.15,212.88c0,0,29.24-4.39,49.45,8.14" />
<path d="M115.7,221.29c0,0,29.84-4.41,50.07,7.9" />
<path d="M115.24,229.7c0,0,30.44-4.44,50.7,7.67" />
<path d="M114.79,238.11c0,0,31.04-4.46,51.32,7.43" />
<path d="M114.34,246.52c0,0,31.64-4.49,51.94,7.19" />
<path d="M113.88,254.93c0,0,32.24-4.51,52.57,6.95" />
<path d="M113.43,263.34c0,0,32.84-4.54,53.19,6.71" />
<path d="M112.97,271.75c0,0,33.44-4.56,53.81,6.47" />
<path d="M112.52,280.16c0,0,34.04-4.59,54.44,6.23" />
<path d="M112.07,288.57c0,0,34.64-4.61,55.06,5.99" />
<path d="M111.61,296.98c0,0,35.24-4.64,55.68,5.75" />
<path d="M111.16,305.39c0,0,35.84-4.66,56.31,5.51" />
<path d="M110.7,313.8c0,0,36.44-4.69,56.93,5.28" />
<path d="M110.25,322.21c0,0,37.04-4.71,57.56,5.04" />
<path d="M109.8,330.62c0,0,37.64-4.74,58.18,4.8" />
<path d="M109.34,339.03c0,0,38.24-4.76,58.8,4.56" />
<path d="M108.89,347.45c0,0,38.84-4.79,59.43,4.32" />
<path d="M108.43,355.86c0,0,39.44-4.81,60.05,4.08" />
<path d="M107.98,364.27c0,0,40.04-4.84,60.67,3.84" />
<path d="M107.53,372.68c0,0,40.64-4.86,61.3,3.6" />
<path d="M107.07,381.09c0,0,41.24-4.89,61.92,3.36" />
<path d="M106.62,389.5c0,0,41.84-4.92,62.54,3.12" />
<path d="M106.17,397.91c0,0,42.44-4.94,63.17,2.89" />
<path d="M105.71,406.32c0,0,43.04-4.97,63.79,2.65" />
<path d="M105.26,414.73c0,0,43.64-4.99,64.42,2.41" />
<path d="M104.8,423.14c0,0,44.24-5.02,65.04,2.17" />
<path d="M104.35,431.55c0,0,44.84-5.04,65.66,1.93" />
<path d="M103.9,439.96c0,0,45.45-5.07,66.29,1.69" />
</g>
<g style="clip-path:url(#SVGID_1_);">
<line x1="136.44" y1="113.34" x2="107.92" y2="215.81" />
<line x1="142.12" y1="113.96" x2="113.34" y2="217.72" />
<line x1="147.45" y1="115.04" x2="116.53" y2="220.91" />
<line x1="151.85" y1="116.63" x2="119.72" y2="225.38" />
<line x1="156.15" y1="118.75" x2="123.23" y2="236.86" />
<line x1="159.86" y1="121.57" x2="126.1" y2="253.12" />
<line x1="162.75" y1="125.1" x2="128.01" y2="271.3" />
<line x1="131.18" y1="113.31" x2="97.69" y2="216.4" />
<line x1="127.1" y1="114.06" x2="94.09" y2="216.84" />
<line x1="161.31" y1="152.37" x2="108.68" y2="373.63" />
<line x1="157.23" y1="190.75" x2="107.24" y2="400.9" />
<line x1="156.26" y1="216.09" x2="105.81" y2="428.17" />
<line x1="155.66" y1="239.83" x2="104.37" y2="455.43" />
<line x1="156.07" y1="259.59" x2="102.94" y2="482.7" />
<line x1="156.9" y1="276.35" x2="114.69" y2="450.15" />
<path d="M157.71,293.2c-13.12,56.64-26.18,109.61-39.16,156.76" />
<path d="M158.27,312.23c-10.41,47.4-21.95,93.38-34.69,137.85" />
<path d="M159.77,328.04c-8.43,41.32-18.66,82-30.46,122.1" />
<path d="M160.92,345.81c-7.86,37.97-16.23,73.19-25.34,104.34" />
<path d="M162.28,362.12c-5.35,27.57-12.33,57.15-20.3,87.96" />
<path d="M163.45,381.35c-2.96,18.4-8.61,42.67-15.06,68.67" />
<path d="M164.61,401.55c-0.56,11.35-5.33,30.14-10.5,48.48" />
<path d="M165.93,417.9c-1.65,10.11-4.22,21.02-7.1,32.19" />
<path d="M167.41,429.74c-0.87,7.91-2.28,14.96-4.72,20.34" />
</g>
<g style="clip-path:url(#SVGID_1_);">
<line x1="123.41" y1="317.07" x2="123.55" y2="450.06" />
<line x1="122.31" y1="330.86" x2="118.53" y2="450.06" />
<line x1="120.67" y1="353.55" x2="114.7" y2="450.06" />
<line x1="125.6" y1="289.33" x2="129.29" y2="450.06" />
<line x1="127.79" y1="265.53" x2="135.51" y2="450.86" />
<line x1="126.04" y1="193.31" x2="142.05" y2="450.54" />
<line x1="124.98" y1="151.71" x2="148.42" y2="450.06" />
<line x1="126.99" y1="113.67" x2="158.87" y2="450.06" />
<line x1="123.66" y1="114.31" x2="154.13" y2="450.06" />
<line x1="136.38" y1="111.96" x2="166.12" y2="450.54" />
<line x1="131.26" y1="113.1" x2="162.7" y2="450.06" />
<line x1="142.09" y1="114.07" x2="161.6" y2="358.57" />
<line x1="147.37" y1="115.01" x2="156.9" y2="260.03" />
<line x1="151.99" y1="116.29" x2="158.79" y2="268.75" />
<line x1="159.92" y1="119.07" x2="158.9" y2="198.14" />
<line x1="162.92" y1="120.9" x2="156.4" y2="235.74" />
<line x1="157.65" y1="197.67" x2="156.25" y2="117.9" />
</g>
<use xlink:href="#SVGID_593_" />
</g>
<path d="M127.95,113.26c0,0.63-0.51,1.13-1.13,1.13c-0.63,0-1.13-0.51-1.13-1.13c0-0.63,0.51-1.13,1.13-1.13   C127.44,112.13,127.95,112.63,127.95,113.26z" />
<path d="M132.29,112.55c0,0.63-0.51,1.13-1.13,1.13c-0.63,0-1.13-0.51-1.13-1.13c0-0.63,0.51-1.13,1.13-1.13   C131.78,111.42,132.29,111.92,132.29,112.55z" />
<path d="M137.55,112.59c0,0.63-0.51,1.13-1.13,1.13c-0.63,0-1.13-0.51-1.13-1.13c0-0.63,0.51-1.13,1.13-1.13   C137.04,111.46,137.55,111.96,137.55,112.59z" />
<path d="M143.25,113.29c0,0.63-0.51,1.13-1.13,1.13c-0.63,0-1.13-0.51-1.13-1.13c0-0.63,0.51-1.13,1.13-1.13   C142.74,112.15,143.25,112.66,143.25,113.29z" />
<circle cx="147.51" cy="114.42" r="1.13" />
<path d="M153.36,116.04c0,0.63-0.51,1.13-1.13,1.13c-0.63,0-1.13-0.51-1.13-1.13c0-0.63,0.51-1.13,1.13-1.13   C152.85,114.9,153.36,115.41,153.36,116.04z" />
<circle cx="156.5" cy="118.09" r="1.13" />
<path d="M161.28,121.33c0,0.63-0.51,1.13-1.13,1.13c-0.63,0-1.13-0.51-1.13-1.13c0-0.63,0.51-1.13,1.13-1.13   C160.77,120.2,161.28,120.7,161.28,121.33z" />
<path d="M164.27,125.2c0,0.63-0.51,1.13-1.13,1.13c-0.63,0-1.13-0.51-1.13-1.13c0-0.63,0.51-1.13,1.13-1.13   C163.76,124.07,164.27,124.58,164.27,125.2z" />
</g>
</svg>
</svg>