<?xml version="1.0" encoding="UTF-8"?>
<svg xmlns="http://www.w3.org/2000/svg" xmlns:xlink="http://www.w3.org/1999/xlink"
     width="51" height="379" viewBox="0 0 51 379">
<defs>
</defs>
<svg x="-126" y="-51">
<clipPath id="clip广州-04">
<path d="M 128 51 L 128 184 L 127 185 L 127 186 L 126 187 L 126 429 L 176 429 L 176 114 L 172 110 L 171 110 L 170 109 L 170 63 L 168 61 L 168 60 L 167 59 L 166 59 L 165 58 L 164 59 L 160 59 L 159 60 L 154 60 L 153 59 L 152 59 L 151 58 L 150 58 L 149 57 L 147 57 L 146 56 L 144 56 L 143 55 L 141 55 L 140 54 L 138 54 L 137 53 L 134 53 L 133 52 L 130 52 L 129 51 z" />
</clipPath>
<g clip-path="url(#clip广州-04)">
<path d="M170.28,429.13h-4.65V59.56c0,0,2.66,1.31,4.65,5.43V429.13z" />
<g>
<path d="M162.17,429.13h-33.02V52.4c0,0,20.86,4.48,33.02,12.52V429.13z" />
<g>
<line x1="160.09" y1="383.5" x2="160.09" y2="64.3" />
<line x1="157.85" y1="383.5" x2="157.85" y2="63.45" />
<line x1="155.61" y1="383.5" x2="155.61" y2="62.6" />
<line x1="153.37" y1="383.5" x2="153.37" y2="61.76" />
<line x1="151.14" y1="383.5" x2="151.14" y2="60.91" />
<line x1="148.9" y1="383.5" x2="148.9" y2="60.06" />
<line x1="146.66" y1="383.5" x2="146.66" y2="59.21" />
<line x1="144.42" y1="383.5" x2="144.42" y2="58.37" />
<line x1="142.18" y1="383.5" x2="142.18" y2="57.52" />
<line x1="139.95" y1="383.5" x2="139.95" y2="56.67" />
<line x1="137.71" y1="383.5" x2="137.71" y2="55.82" />
<line x1="135.47" y1="383.5" x2="135.47" y2="54.98" />
<line x1="133.23" y1="383.5" x2="133.23" y2="54.13" />
<line x1="130.99" y1="383.5" x2="130.99" y2="53.28" />
</g>
<path d="M132.61,429.13h33.02V59.56c0,0-19.04,2.89-33.02,10.37V429.13z" />
<g>
<line x1="134.21" y1="69.94" x2="134.21" y2="429.13" />
<line x1="136.51" y1="69.24" x2="136.51" y2="429.13" />
<line x1="138.8" y1="68.54" x2="138.8" y2="429.13" />
<line x1="141.09" y1="67.84" x2="141.09" y2="429.13" />
<line x1="143.38" y1="67.14" x2="143.38" y2="429.13" />
<line x1="145.68" y1="66.44" x2="145.68" y2="429.13" />
<line x1="147.97" y1="65.74" x2="147.97" y2="429.13" />
<line x1="150.26" y1="65.05" x2="150.26" y2="429.13" />
<line x1="152.55" y1="64.35" x2="152.55" y2="429.13" />
<line x1="154.85" y1="63.65" x2="154.85" y2="429.13" />
<line x1="157.14" y1="62.95" x2="157.14" y2="429.13" />
<line x1="159.43" y1="62.25" x2="159.43" y2="429.13" />
<line x1="161.72" y1="61.55" x2="161.72" y2="429.13" />
<line x1="164.02" y1="60.85" x2="164.02" y2="429.13" />
</g>
<path d="M127.29,429.13h22.62V174.01c0,0-16.1-0.56-22.62,13.99V429.13z" />
<g>
<line x1="128.74" y1="429.13" x2="128.74" y2="188.15" />
<line x1="130.98" y1="429.13" x2="130.98" y2="185.68" />
<line x1="133.21" y1="429.13" x2="133.21" y2="183.22" />
<line x1="135.45" y1="429.13" x2="135.45" y2="180.75" />
<line x1="137.69" y1="429.13" x2="137.69" y2="178.28" />
<line x1="139.93" y1="429.13" x2="139.93" y2="175.81" />
<line x1="142.17" y1="429.13" x2="142.17" y2="173.34" />
<line x1="144.41" y1="429.13" x2="144.41" y2="170.87" />
<line x1="146.64" y1="429.13" x2="146.64" y2="168.41" />
<line x1="148.88" y1="429.13" x2="148.88" y2="165.94" />
<line x1="151.12" y1="429.13" x2="151.12" y2="163.47" />
<line x1="153.36" y1="429.13" x2="153.36" y2="161" />
<line x1="155.6" y1="429.13" x2="155.6" y2="158.53" />
<line x1="157.83" y1="429.13" x2="157.83" y2="156.06" />
</g>
<path d="M170.07,429.13h-33.02V97.99c5.56,0.44,24.12,4.64,33.02,11.94V429.13z" />
<g>
<rect x="141.25" y="142.87" width="22.49" height="2.83" />
<rect x="141.25" y="146.45" width="22.49" height="2.83" />
</g>
<g>
<rect x="141.25" y="341.48" width="22.49" height="2.83" />
<rect x="141.25" y="345.06" width="22.49" height="2.83" />
</g>
<g>
<rect x="141.25" y="212.54" width="22.49" height="2.83" />
<rect x="141.25" y="216.12" width="22.49" height="2.83" />
<rect x="141.25" y="219.84" width="22.49" height="2.83" />
</g>
<g>
<rect x="141.25" y="292.3" width="22.49" height="2.83" />
<rect x="141.25" y="295.88" width="22.49" height="2.83" />
<rect x="141.25" y="299.6" width="22.49" height="2.83" />
</g>
<rect x="141.25" y="177.73" width="22.49" height="2.83" />
<rect x="141.25" y="387.58" width="22.49" height="2.83" />
<rect x="141.25" y="256.48" width="22.49" height="2.83" />
<path d="M170.07,429.13h5.99V115.71c0,0-2.96-3.9-5.99-5.78V429.13z" />
</g>
<g>
<line x1="168.1" y1="429.13" x2="168.1" y2="109.93" />
<line x1="165.87" y1="429.13" x2="165.87" y2="109.19" />
<line x1="163.63" y1="429.13" x2="163.63" y2="108.45" />
<line x1="161.39" y1="429.13" x2="161.39" y2="107.7" />
<line x1="159.15" y1="429.13" x2="159.15" y2="106.96" />
<line x1="156.91" y1="429.13" x2="156.91" y2="106.21" />
<line x1="154.68" y1="429.13" x2="154.68" y2="105.47" />
<line x1="152.44" y1="429.13" x2="152.44" y2="104.72" />
<line x1="150.2" y1="429.13" x2="150.2" y2="103.98" />
<line x1="147.96" y1="429.13" x2="147.96" y2="103.23" />
<line x1="145.72" y1="429.13" x2="145.72" y2="102.49" />
<line x1="143.49" y1="429.13" x2="143.49" y2="101.75" />
<line x1="141.25" y1="429.13" x2="141.25" y2="101" />
<line x1="139.01" y1="429.13" x2="139.01" y2="100.26" />
</g>
</g>
</svg>
</svg>