<?xml version="1.0" encoding="UTF-8"?>
<svg xmlns="http://www.w3.org/2000/svg" xmlns:xlink="http://www.w3.org/1999/xlink"
     width="119" height="119" viewBox="0 0 119 119">
<defs>
</defs>
<svg x="-92" y="-184">
<clipPath id="clip广州-05">
<path d="M 141 184 L 140 185 L 136 185 L 135 186 L 133 186 L 132 187 L 130 187 L 129 188 L 128 188 L 127 189 L 125 189 L 124 190 L 123 190 L 121 192 L 120 192 L 119 193 L 118 193 L 115 196 L 114 196 L 104 206 L 104 207 L 102 209 L 102 210 L 100 212 L 100 213 L 99 214 L 99 215 L 98 216 L 98 217 L 97 218 L 97 219 L 96 220 L 96 222 L 95 223 L 95 225 L 94 226 L 94 228 L 93 229 L 93 234 L 92 235 L 92 251 L 93 252 L 93 257 L 94 258 L 94 260 L 95 261 L 95 263 L 96 264 L 96 266 L 97 267 L 97 268 L 98 269 L 98 270 L 99 271 L 99 272 L 101 274 L 101 275 L 102 276 L 102 277 L 106 281 L 106 282 L 112 288 L 113 288 L 116 291 L 117 291 L 119 293 L 120 293 L 122 295 L 123 295 L 124 296 L 125 296 L 126 297 L 127 297 L 128 298 L 130 298 L 131 299 L 133 299 L 134 300 L 137 300 L 138 301 L 142 301 L 143 302 L 159 302 L 160 301 L 165 301 L 166 300 L 168 300 L 169 299 L 171 299 L 172 298 L 174 298 L 175 297 L 176 297 L 177 296 L 178 296 L 179 295 L 180 295 L 181 294 L 182 294 L 184 292 L 185 292 L 187 290 L 188 290 L 198 280 L 198 279 L 201 276 L 201 275 L 202 274 L 202 273 L 204 271 L 204 270 L 205 269 L 205 267 L 206 266 L 206 265 L 207 264 L 207 262 L 208 261 L 208 259 L 209 258 L 209 254 L 210 253 L 210 233 L 209 232 L 209 228 L 208 227 L 208 224 L 207 223 L 207 222 L 206 221 L 206 219 L 205 218 L 205 217 L 204 216 L 204 215 L 203 214 L 203 213 L 201 211 L 201 210 L 199 208 L 199 207 L 195 203 L 195 202 L 192 199 L 191 199 L 187 195 L 186 195 L 184 193 L 183 193 L 181 191 L 180 191 L 179 190 L 178 190 L 177 189 L 176 189 L 175 188 L 173 188 L 172 187 L 170 187 L 169 186 L 167 186 L 166 185 L 163 185 L 162 184 z" />
</clipPath>
<g clip-path="url(#clip广州-05)">
<defs>
<ellipse id="SVGID_589_" transform="matrix(0.1602 -0.9871 0.9871 0.1602 -112.7918 354.0537)" cx="151.67" cy="243.31" rx="59.07" ry="59.07" />
</defs>
<use xlink:href="#SVGID_589_" />
<clipPath id="SVGID_1_">
<use style="overflow:visible;" xlink:href="#SVGID_589_" />
</clipPath>
<rect x="113.89" y="204.03" width="75.88" height="2.4" />
<rect x="99.33" y="254.39" width="33.24" height="2.4" />
<rect x="170.7" y="254.39" width="33.24" height="2.4" />
<g style="clip-path:url(#SVGID_1_);">
<line x1="151.69" y1="176.44" x2="151.69" y2="305.92" />
<line x1="161.2" y1="176.44" x2="161.2" y2="305.92" />
<line x1="170.71" y1="176.44" x2="170.71" y2="305.92" />
<line x1="180.21" y1="176.44" x2="180.21" y2="305.92" />
<line x1="189.72" y1="176.44" x2="189.72" y2="305.92" />
<line x1="199.22" y1="176.44" x2="199.22" y2="305.92" />
<line x1="104.16" y1="176.44" x2="104.16" y2="305.92" />
<line x1="113.67" y1="176.44" x2="113.67" y2="305.92" />
<line x1="123.18" y1="176.44" x2="123.18" y2="305.92" />
<line x1="132.68" y1="176.44" x2="132.68" y2="305.92" />
<line x1="142.19" y1="176.44" x2="142.19" y2="305.92" />
</g>
<g style="clip-path:url(#SVGID_1_);">
<g>
<line x1="62.12" y1="310.7" x2="125.62" y2="179.18" />
<line x1="71.63" y1="310.7" x2="135.13" y2="179.18" />
<line x1="81.13" y1="310.7" x2="144.64" y2="179.18" />
<line x1="90.64" y1="310.7" x2="154.14" y2="179.18" />
<line x1="100.15" y1="310.7" x2="163.65" y2="179.18" />
<line x1="109.65" y1="310.7" x2="173.16" y2="179.18" />
<line x1="119.16" y1="310.7" x2="182.66" y2="179.18" />
<line x1="128.67" y1="310.7" x2="192.17" y2="179.18" />
<line x1="138.17" y1="310.7" x2="201.67" y2="179.18" />
<line x1="147.68" y1="310.7" x2="211.18" y2="179.18" />
<line x1="157.18" y1="310.7" x2="220.69" y2="179.18" />
<line x1="166.69" y1="310.7" x2="230.19" y2="179.18" />
<line x1="176.2" y1="310.7" x2="239.7" y2="179.18" />
</g>
<g>
<line x1="241.26" y1="310.7" x2="177.76" y2="179.18" />
<line x1="231.76" y1="310.7" x2="168.25" y2="179.18" />
<line x1="222.25" y1="310.7" x2="158.75" y2="179.18" />
<line x1="212.74" y1="310.7" x2="149.24" y2="179.18" />
<line x1="203.24" y1="310.7" x2="139.73" y2="179.18" />
<line x1="193.73" y1="310.7" x2="130.23" y2="179.18" />
<line x1="184.22" y1="310.7" x2="120.72" y2="179.18" />
<line x1="174.72" y1="310.7" x2="111.22" y2="179.18" />
<line x1="165.21" y1="310.7" x2="101.71" y2="179.18" />
<line x1="155.71" y1="310.7" x2="92.2" y2="179.18" />
<line x1="146.2" y1="310.7" x2="82.7" y2="179.18" />
<line x1="136.69" y1="310.7" x2="73.19" y2="179.18" />
<line x1="127.19" y1="310.7" x2="63.68" y2="179.18" />
</g>
</g>
<g style="clip-path:url(#SVGID_1_);">
<g>
<polygon points="104.15,203.95 99.31,213.83 108.87,213.83    " />
<g>
<polygon points="103.09,208.14 102.24,209.82 103.89,209.82     " />
<polygon points="105.21,208.14 104.37,209.82 106.01,209.82     " />
<polygon points="105.16,212.54 106.01,210.85 104.37,210.85     " />
<polygon points="103.04,212.54 103.89,210.85 102.24,210.85     " />
</g>
</g>
<g>
<polygon points="113.67,203.95 108.83,213.83 118.39,213.83    " />
<g>
<polygon points="112.61,208.14 111.76,209.82 113.4,209.82     " />
<polygon points="114.73,208.14 113.88,209.82 115.53,209.82     " />
<polygon points="114.68,212.54 115.53,210.85 113.88,210.85     " />
<polygon points="112.56,212.54 113.4,210.85 111.76,210.85     " />
</g>
</g>
<g>
<polygon points="123.18,203.95 118.35,213.83 127.9,213.83    " />
<g>
<polygon points="122.13,208.14 121.28,209.82 122.92,209.82     " />
<polygon points="124.25,208.14 123.4,209.82 125.04,209.82     " />
<polygon points="124.19,212.54 125.04,210.85 123.4,210.85     " />
<polygon points="122.07,212.54 122.92,210.85 121.28,210.85     " />
</g>
</g>
<g>
<polygon points="132.7,203.95 127.86,213.83 137.42,213.83    " />
<g>
<polygon points="131.64,208.14 130.79,209.82 132.44,209.82     " />
<polygon points="133.76,208.14 132.92,209.82 134.56,209.82     " />
<polygon points="133.71,212.54 134.56,210.85 132.92,210.85     " />
<polygon points="131.59,212.54 132.44,210.85 130.79,210.85     " />
</g>
</g>
<g>
<polygon points="142.21,203.95 137.38,213.83 146.94,213.83    " />
<g>
<polygon points="141.16,208.14 140.31,209.82 141.95,209.82     " />
<polygon points="143.28,208.14 142.43,209.82 144.07,209.82     " />
<polygon points="143.23,212.54 144.07,210.85 142.43,210.85     " />
<polygon points="141.1,212.54 141.95,210.85 140.31,210.85     " />
</g>
</g>
<g>
<polygon points="151.73,203.95 146.89,213.83 156.45,213.83    " />
<g>
<polygon points="150.67,208.14 149.83,209.82 151.47,209.82     " />
<polygon points="152.8,208.14 151.95,209.82 153.59,209.82     " />
<polygon points="152.74,212.54 153.59,210.85 151.95,210.85     " />
<polygon points="150.62,212.54 151.47,210.85 149.83,210.85     " />
</g>
</g>
<g>
<polygon points="161.25,203.95 156.41,213.83 165.97,213.83    " />
<g>
<polygon points="160.19,208.14 159.34,209.82 160.99,209.82     " />
<polygon points="162.31,208.14 161.46,209.82 163.11,209.82     " />
<polygon points="162.26,212.54 163.11,210.85 161.46,210.85     " />
<polygon points="160.14,212.54 160.99,210.85 159.34,210.85     " />
</g>
</g>
<g>
<polygon points="170.76,203.95 165.93,213.83 175.49,213.83    " />
<g>
<polygon points="169.71,208.14 168.86,209.82 170.5,209.82     " />
<polygon points="171.83,208.14 170.98,209.82 172.62,209.82     " />
<polygon points="171.78,212.54 172.62,210.85 170.98,210.85     " />
<polygon points="169.65,212.54 170.5,210.85 168.86,210.85     " />
</g>
</g>
<g>
<polygon points="180.28,203.95 175.44,213.83 185,213.83    " />
<g>
<polygon points="179.22,208.14 178.38,209.82 180.02,209.82     " />
<polygon points="181.35,208.14 180.5,209.82 182.14,209.82     " />
<polygon points="181.29,212.54 182.14,210.85 180.5,210.85     " />
<polygon points="179.17,212.54 180.02,210.85 178.38,210.85     " />
</g>
</g>
<g>
<polygon points="189.8,203.95 184.96,213.83 194.52,213.83    " />
<g>
<polygon points="188.74,208.14 187.89,209.82 189.53,209.82     " />
<polygon points="190.86,208.14 190.01,209.82 191.66,209.82     " />
<polygon points="190.81,212.54 191.66,210.85 190.01,210.85     " />
<polygon points="188.69,212.54 189.53,210.85 187.89,210.85     " />
</g>
</g>
<g>
<polygon points="199.31,203.95 194.48,213.83 204.04,213.83    " />
<g>
<polygon points="198.26,208.14 197.41,209.82 199.05,209.82     " />
<polygon points="200.38,208.14 199.53,209.82 201.17,209.82     " />
<polygon points="200.32,212.54 201.17,210.85 199.53,210.85     " />
<polygon points="198.2,212.54 199.05,210.85 197.41,210.85     " />
</g>
</g>
</g>
<g style="clip-path:url(#SVGID_1_);">
<g>
<polygon points="199.2,282.68 204.04,272.8 194.48,272.8    " />
<g>
<polygon points="200.26,278.49 201.1,276.81 199.46,276.81     " />
<polygon points="198.13,278.49 198.98,276.81 197.34,276.81     " />
<polygon points="198.19,274.1 197.34,275.78 198.98,275.78     " />
<polygon points="200.31,274.1 199.46,275.78 201.1,275.78     " />
</g>
</g>
<g>
<polygon points="189.68,282.68 194.52,272.8 184.96,272.8    " />
<g>
<polygon points="190.74,278.49 191.59,276.81 189.95,276.81     " />
<polygon points="188.62,278.49 189.47,276.81 187.82,276.81     " />
<polygon points="188.67,274.1 187.82,275.78 189.47,275.78     " />
<polygon points="190.79,274.1 189.95,275.78 191.59,275.78     " />
</g>
</g>
<g>
<polygon points="180.17,282.68 185,272.8 175.44,272.8    " />
<g>
<polygon points="181.22,278.49 182.07,276.81 180.43,276.81     " />
<polygon points="179.1,278.49 179.95,276.81 178.31,276.81     " />
<polygon points="179.15,274.1 178.31,275.78 179.95,275.78     " />
<polygon points="181.28,274.1 180.43,275.78 182.07,275.78     " />
</g>
</g>
<g>
<polygon points="170.65,282.68 175.49,272.8 165.93,272.8    " />
<g>
<polygon points="171.71,278.49 172.55,276.81 170.91,276.81     " />
<polygon points="169.58,278.49 170.43,276.81 168.79,276.81     " />
<polygon points="169.64,274.1 168.79,275.78 170.43,275.78     " />
<polygon points="171.76,274.1 170.91,275.78 172.55,275.78     " />
</g>
</g>
<g>
<polygon points="161.13,282.68 165.97,272.8 156.41,272.8    " />
<g>
<polygon points="162.19,278.49 163.04,276.81 161.4,276.81     " />
<polygon points="160.07,278.49 160.92,276.81 159.27,276.81     " />
<polygon points="160.12,274.1 159.27,275.78 160.92,275.78     " />
<polygon points="162.24,274.1 161.4,275.78 163.04,275.78     " />
</g>
</g>
<g>
<polygon points="151.62,282.68 156.45,272.8 146.89,272.8    " />
<g>
<polygon points="152.67,278.49 153.52,276.81 151.88,276.81     " />
<polygon points="150.55,278.49 151.4,276.81 149.76,276.81     " />
<polygon points="150.61,274.1 149.76,275.78 151.4,275.78     " />
<polygon points="152.73,274.1 151.88,275.78 153.52,275.78     " />
</g>
</g>
<g>
<polygon points="142.1,282.68 146.94,272.8 137.38,272.8    " />
<g>
<polygon points="143.16,278.49 144.01,276.81 142.36,276.81     " />
<polygon points="141.04,278.49 141.88,276.81 140.24,276.81     " />
<polygon points="141.09,274.1 140.24,275.78 141.88,275.78     " />
<polygon points="143.21,274.1 142.36,275.78 144.01,275.78     " />
</g>
</g>
<g>
<polygon points="132.58,282.68 137.42,272.8 127.86,272.8    " />
<g>
<polygon points="133.64,278.49 134.49,276.81 132.85,276.81     " />
<polygon points="131.52,278.49 132.37,276.81 130.72,276.81     " />
<polygon points="131.57,274.1 130.72,275.78 132.37,275.78     " />
<polygon points="133.69,274.1 132.85,275.78 134.49,275.78     " />
</g>
</g>
<g>
<polygon points="123.07,282.68 127.9,272.8 118.35,272.8    " />
<g>
<polygon points="124.12,278.49 124.97,276.81 123.33,276.81     " />
<polygon points="122,278.49 122.85,276.81 121.21,276.81     " />
<polygon points="122.06,274.1 121.21,275.78 122.85,275.78     " />
<polygon points="124.18,274.1 123.33,275.78 124.97,275.78     " />
</g>
</g>
<g>
<polygon points="113.55,282.68 118.39,272.8 108.83,272.8    " />
<g>
<polygon points="114.61,278.49 115.46,276.81 113.81,276.81     " />
<polygon points="112.49,278.49 113.33,276.81 111.69,276.81     " />
<polygon points="112.54,274.1 111.69,275.78 113.33,275.78     " />
<polygon points="114.66,274.1 113.81,275.78 115.46,275.78     " />
</g>
</g>
<g>
<polygon points="104.04,282.68 108.87,272.8 99.31,272.8    " />
<g>
<polygon points="105.09,278.49 105.94,276.81 104.3,276.81     " />
<polygon points="102.97,278.49 103.82,276.81 102.18,276.81     " />
<polygon points="103.02,274.1 102.18,275.78 103.82,275.78     " />
<polygon points="105.15,274.1 104.3,275.78 105.94,275.78     " />
</g>
</g>
</g>
<line x1="214.44" y1="203.95" x2="83.67" y2="203.95" />
<line x1="214.44" y1="213.81" x2="83.67" y2="213.81" />
<line x1="214.44" y1="282.67" x2="83.67" y2="282.67" />
<line x1="214.44" y1="272.81" x2="83.67" y2="272.81" />
<line x1="214.44" y1="256.77" x2="83.67" y2="256.77" />
<line x1="214.44" y1="269.72" x2="83.67" y2="269.72" />
<line x1="214.44" y1="243.31" x2="83.67" y2="243.31" />
<line x1="214.44" y1="229.91" x2="83.67" y2="229.91" />
<g style="clip-path:url(#SVGID_1_);">
<polygon points="94.63,263.05 97.7,256.77 91.62,256.77   " />
<polygon points="104.12,263.05 107.2,256.77 101.11,256.77   " />
<polygon points="113.62,263.05 116.69,256.77 110.61,256.77   " />
<polygon points="123.11,263.05 126.19,256.77 120.1,256.77   " />
<polygon points="132.6,263.05 135.68,256.77 129.6,256.77   " />
<polygon points="142.1,263.05 145.18,256.77 139.09,256.77   " />
<polygon points="151.59,263.05 154.67,256.77 148.59,256.77   " />
<polygon points="161.09,263.05 164.17,256.77 158.08,256.77   " />
<polygon points="170.58,263.05 173.66,256.77 167.58,256.77   " />
<polygon points="180.08,263.05 183.16,256.77 177.07,256.77   " />
<polygon points="189.57,263.05 192.65,256.77 186.57,256.77   " />
<polygon points="199.07,263.05 202.15,256.77 196.06,256.77   " />
<polygon points="208.56,263.05 211.64,256.77 205.56,256.77   " />
</g>
<g style="clip-path:url(#SVGID_1_);">
<polygon points="204,253.1 202.19,256.78 205.76,256.78   " />
<polygon points="194.49,253.1 192.68,256.78 196.25,256.78   " />
<polygon points="184.98,253.1 183.17,256.78 186.74,256.78   " />
<polygon points="175.47,253.1 173.66,256.78 177.23,256.78   " />
<polygon points="165.96,253.1 164.15,256.78 167.72,256.78   " />
<polygon points="156.45,253.1 154.64,256.78 158.21,256.78   " />
<polygon points="146.93,253.1 145.13,256.78 148.7,256.78   " />
<polygon points="137.42,253.1 135.62,256.78 139.19,256.78   " />
<polygon points="127.91,253.1 126.11,256.78 129.67,256.78   " />
<polygon points="118.4,253.1 116.6,256.78 120.16,256.78   " />
<polygon points="108.89,253.1 107.09,256.78 110.65,256.78   " />
<polygon points="99.38,253.1 97.57,256.78 101.14,256.78   " />
</g>
<g style="clip-path:url(#SVGID_1_);">
<polygon points="208.75,223.64 205.67,229.92 211.75,229.92   " />
<polygon points="199.25,223.64 196.17,229.92 202.26,229.92   " />
<polygon points="189.76,223.64 186.68,229.92 192.76,229.92   " />
<polygon points="180.26,223.64 177.18,229.92 183.27,229.92   " />
<polygon points="170.77,223.64 167.69,229.92 173.77,229.92   " />
<polygon points="161.27,223.64 158.2,229.92 164.28,229.92   " />
<polygon points="151.78,223.64 148.7,229.92 154.78,229.92   " />
<polygon points="142.28,223.64 139.21,229.92 145.29,229.92   " />
<polygon points="132.79,223.64 129.71,229.92 135.79,229.92   " />
<polygon points="123.29,223.64 120.22,229.92 126.3,229.92   " />
<polygon points="113.8,223.64 110.72,229.92 116.8,229.92   " />
<polygon points="104.3,223.64 101.23,229.92 107.31,229.92   " />
<polygon points="94.81,223.64 91.73,229.92 97.81,229.92   " />
</g>
<g style="clip-path:url(#SVGID_1_);">
<polygon points="99.37,233.59 101.18,229.91 97.61,229.91   " />
<polygon points="108.88,233.59 110.69,229.91 107.12,229.91   " />
<polygon points="118.39,233.59 120.2,229.91 116.63,229.91   " />
<polygon points="127.9,233.59 129.71,229.91 126.14,229.91   " />
<polygon points="137.42,233.59 139.22,229.91 135.65,229.91   " />
<polygon points="146.93,233.59 148.73,229.91 145.16,229.91   " />
<polygon points="156.44,233.59 158.24,229.91 154.68,229.91   " />
<polygon points="165.95,233.59 167.75,229.91 164.19,229.91   " />
<polygon points="175.46,233.59 177.26,229.91 173.7,229.91   " />
<polygon points="184.97,233.59 186.78,229.91 183.21,229.91   " />
<polygon points="194.48,233.59 196.29,229.91 192.72,229.91   " />
<polygon points="203.99,233.59 205.8,229.91 202.23,229.91   " />
</g>
<use xlink:href="#SVGID_589_" />
<circle cx="151.67" cy="243.31" r="19.64" />
</g>
</svg>
</svg>