<?xml version="1.0" encoding="UTF-8"?>
<svg xmlns="http://www.w3.org/2000/svg" xmlns:xlink="http://www.w3.org/1999/xlink"
     width="191" height="55" viewBox="0 0 191 55">
<defs>
</defs>
<svg x="-40" y="-213">
<clipPath id="clip广州-07">
<path d="M 89 213 L 88 214 L 67 214 L 66 215 L 65 215 L 65 216 L 64 217 L 64 220 L 65 221 L 65 236 L 66 237 L 66 238 L 65 239 L 57 239 L 56 240 L 41 240 L 40 241 L 40 242 L 41 243 L 41 245 L 42 246 L 42 247 L 43 248 L 43 249 L 44 250 L 44 251 L 45 252 L 45 253 L 46 254 L 46 255 L 47 256 L 47 257 L 48 258 L 48 259 L 49 260 L 49 261 L 50 262 L 50 263 L 51 264 L 51 265 L 52 266 L 52 267 L 230 267 L 230 266 L 229 266 L 225 262 L 224 262 L 221 259 L 220 259 L 218 257 L 217 257 L 214 254 L 213 254 L 210 251 L 209 251 L 207 249 L 206 249 L 203 246 L 202 246 L 200 244 L 199 244 L 197 242 L 196 242 L 194 240 L 193 240 L 191 238 L 190 238 L 189 237 L 188 237 L 186 235 L 185 235 L 183 233 L 182 233 L 180 231 L 179 231 L 178 230 L 177 230 L 175 228 L 174 228 L 172 226 L 171 226 L 170 225 L 169 225 L 167 223 L 166 223 L 164 221 L 163 221 L 162 220 L 161 220 L 159 218 L 157 218 L 156 217 L 151 217 L 150 216 L 143 216 L 142 215 L 132 215 L 131 214 L 107 214 L 106 213 z" />
</clipPath>
<g clip-path="url(#clip广州-07)">
<linearGradient id="SVGID_1_" gradientUnits="userSpaceOnUse" x1="55.0275" y1="246.9098" x2="45.2776" y2="237.4067">
<stop offset="0" style="stop-color:#148A99" />
<stop offset="0.9993" style="stop-color:#CDF2AA" />
</linearGradient>
<path d="M60.26,239.77l-17.92,1.08c0,0-2.03,0.09-1.29,2.21c0.74,2.12,2.06,4.47,2.06,4.47l9.2-1.33L60.26,239.77z" />
<g>
<defs>
<path id="SVGID_694_" d="M43.1,247.53c0,0,1.54-3.91,4.12-4.74c2.58-0.83,13.03-3.02,13.03-3.02l11.04-0.67l10.81,28.14H52.85     L43.1,247.53z" />
</defs>
<linearGradient id="SVGID_3_" gradientUnits="userSpaceOnUse" x1="43.1031" y1="253.1671" x2="82.1154" y2="253.1671">
<stop offset="0" style="stop-color:#2A828E" />
<stop offset="0.5121" style="stop-color:#45BAB1" />
<stop offset="1" style="stop-color:#5FC6A7" />
</linearGradient>
<use xlink:href="#SVGID_694_" />
<clipPath id="SVGID_4_">
<use style="overflow:visible;" xlink:href="#SVGID_694_" />
</clipPath>
<g style="clip-path:url(#SVGID_4_);">
<polyline points="89.59,216.9 80.7,222.42 27.92,254.93 26.19,260.08    " />
<polyline points="27.58,262.6 29.15,258.66 90.57,223.8 99.22,217.95    " />
<polyline points="28.66,264.55 30.45,262.33 97.87,226.64    " />
<polyline points="29.74,266.5 31.46,265.15 97.84,230.77    " />
<polyline points="30.89,268.58 32.36,267.63 97.8,235.5    " />
<polyline points="36.87,268.68 36.14,265.77 29.86,243.43 37.66,248.93 45.07,254.59 48.17,256.49 54.22,261.22      61.05,268.62    " />
<polyline points="39.24,268.55 38.33,265.63 37.38,262.08 37.12,258.8 32.54,241.56 44.11,250.17 51.11,254.97      57.18,259.84 65.19,268.62    " />
<polyline points="42.98,268.58 42.81,263.56 42.37,256.02 38.19,237.61 50.19,246.72 57.43,251.7 63.19,257.03      74.72,268.58    " />
<polyline points="84.44,268.68 79.99,263.36 70.73,253.51 63.55,248.53 52.62,239.71 43.97,233.57 48.11,252.98      48.37,268.62 45.35,265.14 39.93,260.76 37.12,258.8 33.45,256.22 30.39,253.41 26.54,251.01    " />
<polyline points="51.46,268.29 51.02,251.44 47.45,231.14 55.87,237.71 60.36,241.23 71.26,248.53 81.03,258.81      88.99,267.63    " />
<polyline points="54.22,268.58 54.24,249.74 50.85,228.76 63.96,238.9 71.7,244.31 78.41,249.93 84.82,257.23      90.27,263.29 76.56,268.68    " />
<polyline points="56.91,268.58 57.54,247.99 54.05,226.52 67.73,236.76 75.73,242.22 78.58,244.94 82.36,248.08      86.05,252.45 91.62,258.72 66.9,268.58    " />
<polyline points="59.93,268.58 61.05,246.13 57.91,223.83 71.62,234.55 82.59,242.97 86.48,246.16 90.57,250.48      93.08,253.78 57.63,268.58    " />
<polyline points="62.69,268.58 63.96,238.9 61.41,221.38 66.64,224.87 86.84,240.88 94.57,248.73    " />
<polyline points="65.98,268.58 68.24,242.32 66.31,221.25 66.95,218.98 69.41,221.14 96.28,242.92    " />
<polyline points="72.22,268.58 74.46,257.53 76.06,238.18 74.85,221.72 72.68,219.14 70.74,217.48    " />
<polyline points="79.33,223.26 80.09,236.05 78.58,244.94 78.2,256.4 75.37,268.58    " />
<polyline points="84.16,224.36 84.49,227.25 84.24,233.85 82.59,242.97 82.09,254.19 78.86,268.29    " />
<polyline points="81.88,268.58 86.05,252.45 86.84,240.88 88.78,231.45 88.68,223.52 88.23,221.14 79.7,216.37      71.5,221.35 26.54,251.01 24.75,257.47    " />
<path d="M85.36,268.62l5.21-18.14l0.8-11.82l1.99-9.64l0.35-4.73l-0.18-2.49l-9.33-5.36c0,0-5.19,2.78-6.59,3.63     c-1.4,0.85-2.41,3.05-2.41,3.05" />
<polyline points="97.83,231.43 95.65,236.56 94.57,248.73 49.09,268.62    " />
<polyline points="97.78,237.84 95.65,236.56 88.78,231.45 84.49,227.25 79.33,223.26 77.61,220.06 73.11,216.57         " />
<polyline points="79.64,268.75 76.24,264.86 70.22,258.35 63.38,252.4 57.54,247.99 53.45,244.87 40.95,235.68      45.07,254.59 45.81,268.62    " />
<polyline points="25.55,246.44 32.33,252.21 39.77,257.4 46.18,262 52.31,268.58    " />
<polyline points="24.63,250.15 27.92,254.93 31.52,257.32 34.56,260.16 40.07,263.84 42.91,266.5 44.56,268.58         " />
<polyline points="24.43,251.54 29.15,258.66 32.76,261.62 35.39,263.11 38.33,265.63 41.21,268.62 40.07,263.84      39.77,257.4 35.33,239.61 47.14,248.45 51.02,251.44 57.31,255.38 60.44,258.31 69.13,268.58 72.13,240.26 70.49,222.02    " />
<polyline points="24.18,253.3 30.45,262.33 33.59,264.5 36.34,266.56 38.45,268.58 96.74,241.37    " />
<polyline points="23.94,254.93 31.46,265.15 34.77,268.58 27.9,244.8 38.73,253.22 47.98,259.96 54.22,266.38      56.32,268.58    " />
<line x1="32.6" y1="268.29" x2="23.82" y2="255.79" />
<path d="M84.16,224.36l-1.15-3.38c-2.53-2.53-8.25-5.05-8.25-5.05" />
<path d="M93.6,225.79c0,0,4.41-2.1,5.66-2.64c-4.33-3.87-9.66-6.25-9.66-6.25" />
<path d="M61.41,221.38c0,0,12.35,1.18,17.92,1.89c5.57,0.7,18.54,3.37,18.54,3.37" />
<path d="M73.11,216.57c0,0,23.11,2.43,30.11,3.1" />
<path d="M70.74,217.48l30.45,3.87c-2.8-2.08-6.98-3.9-6.98-3.9s-4.25,2.67-6.48,4c-2.23,1.32-5.03,4.42-5.03,4.42" />
<path d="M66.95,218.98c0,0,8.5,1.55,16.75,2.06c8.24,0.5,15.56,2.11,15.56,2.11" />
</g>
</g>
<linearGradient id="SVGID_5_" gradientUnits="userSpaceOnUse" x1="-10.13" y1="187.6483" x2="344.457" y2="339.3528">
<stop offset="0" style="stop-color:#FFD48A" />
<stop offset="0.125" style="stop-color:#FFCA79" />
<stop offset="0.5274" style="stop-color:#FFAC46" />
<stop offset="0.8316" style="stop-color:#FF9926" />
<stop offset="1" style="stop-color:#FF921A" />
</linearGradient>
<path d="M79.02,267.17c-4.55-7.61-8.82-15.79-12.71-24.75l-1.46-24.52c0,0,0.34-3.49,5.62-3.49   c5.29,0,28.46-1.24,52.42,0.11c23.96,1.35,35.21,3.71,35.21,3.71s33.86,20.81,45.22,28.8c11.36,7.99-4.88,20.14-4.88,20.14H79.02z" />
<linearGradient id="SVGID_6_" gradientUnits="userSpaceOnUse" x1="190.9386" y1="255.4051" x2="213.5162" y2="235.917">
<stop offset="0" style="stop-color:#148A99" />
<stop offset="0.9993" style="stop-color:#CDF2AA" />
</linearGradient>
<path d="M198.43,267.17l-29.37-38.82c0,0,0.2-0.99,3.45,0.89c3.25,1.87,30.8,17.8,30.8,17.8   s21.3,15.23,27.28,20.14H198.43z" />
<g>
<defs>
<path id="SVGID_699_" d="M207.34,249.93l-7.29,0.13l-13.8,1.12l12.19,15.99l32.16,0.04C230.6,267.21,210.29,252,207.34,249.93z" />
</defs>
<linearGradient id="SVGID_7_" gradientUnits="userSpaceOnUse" x1="218.6088" y1="252.1925" x2="181.6665" y2="277.5794">
<stop offset="0" style="stop-color:#2A828E" />
<stop offset="0.5121" style="stop-color:#45BAB1" />
<stop offset="1" style="stop-color:#5FC6A7" />
</linearGradient>
<use xlink:href="#SVGID_699_" />
<clipPath id="SVGID_8_">
<use style="overflow:visible;" xlink:href="#SVGID_699_" />
</clipPath>
<g style="clip-path:url(#SVGID_8_);">
<polyline points="230.36,228.64 223.59,232.84 183.4,257.59 182.08,261.51    " />
<polyline points="183.14,263.43 184.34,260.43 231.1,233.89 237.69,229.44    " />
<polyline points="183.97,264.92 185.33,263.23 236.66,236.05    " />
<polyline points="184.79,266.4 186.09,265.37 236.64,239.2    " />
<polyline points="185.66,267.99 186.78,267.26 236.61,242.8    " />
<polyline points="190.22,268.07 189.66,265.85 184.88,248.83 190.81,253.02 196.46,257.33 198.82,258.78      203.43,262.38 208.63,268.02    " />
<polyline points="192.02,267.97 191.33,265.74 190.6,263.04 190.4,260.54 186.92,247.41 195.73,253.97      201.06,257.62 205.68,261.33 211.78,268.02    " />
<polyline points="194.87,267.99 194.74,264.16 194.4,258.42 191.22,244.4 200.36,251.34 205.87,255.13      210.25,259.19 219.03,267.99    " />
<polyline points="226.44,268.07 223.04,264.01 215.99,256.51 210.53,252.72 202.21,246.01 195.62,241.33      198.77,256.11 198.97,268.02 196.67,265.36 192.54,262.03 190.4,260.54 187.61,258.57 185.28,256.43 182.35,254.61    " />
<polyline points="201.32,267.77 200.99,254.94 198.27,239.48 204.68,244.48 208.1,247.16 216.4,252.72      223.84,260.55 229.9,267.26    " />
<polyline points="203.42,267.99 203.44,253.64 200.86,237.66 210.84,245.39 216.74,249.5 221.85,253.78      226.72,259.34 230.88,263.96 220.43,268.07    " />
<polyline points="205.47,267.99 205.95,252.31 203.3,235.96 213.71,243.76 219.8,247.92 221.97,249.98      224.85,252.38 227.66,255.71 231.9,260.48 213.08,267.99    " />
<polyline points="207.78,267.99 208.62,250.89 206.23,233.91 216.67,242.08 225.03,248.49 227.99,250.91      231.1,254.2 233.01,256.72 206.02,267.99    " />
<polyline points="209.88,267.99 210.84,245.39 208.9,232.04 212.88,234.7 228.26,246.9 234.15,252.87    " />
<polyline points="212.38,267.99 214.1,247.99 212.63,231.94 213.12,230.22 214.99,231.86 235.45,248.45    " />
<polyline points="217.13,267.99 218.84,259.57 220.06,244.84 219.14,232.3 217.48,230.34 216.01,229.08    " />
<polyline points="222.54,233.48 223.12,243.22 221.97,249.98 221.68,258.71 219.53,267.99    " />
<polyline points="226.22,234.32 226.47,236.52 226.28,241.55 225.03,248.49 224.64,257.03 222.18,267.77    " />
<polyline points="224.49,267.99 227.66,255.71 228.26,246.9 229.74,239.71 229.66,233.68 229.33,231.87      222.83,228.23 216.59,232.03 182.35,254.61 180.98,259.53    " />
<path d="M227.14,268.02l3.97-13.81l0.61-9l1.52-7.34l0.27-3.6l-0.14-1.9l-7.1-4.08c0,0-3.95,2.12-5.02,2.76     c-1.07,0.65-1.83,2.33-1.83,2.33" />
<polyline points="236.63,239.7 234.97,243.61 234.15,252.87 199.52,268.02    " />
<polyline points="236.59,244.58 234.97,243.61 229.74,239.71 226.47,236.52 222.54,233.48 221.23,231.04      217.81,228.38    " />
<polyline points="222.78,268.12 220.19,265.15 215.6,260.2 210.4,255.66 205.95,252.31 202.84,249.93      193.32,242.93 196.46,257.33 197.02,268.02    " />
<polyline points="181.6,251.13 186.76,255.52 192.43,259.47 197.3,262.98 201.97,267.99    " />
<polyline points="180.9,253.96 183.4,257.59 186.14,259.41 188.46,261.57 192.65,264.38 194.82,266.4      196.07,267.99    " />
<polyline points="180.75,255.01 184.34,260.43 187.09,262.69 189.09,263.82 191.33,265.74 193.52,268.02      192.65,264.38 192.43,259.47 189.04,245.93 198.04,252.66 200.99,254.94 205.78,257.93 208.16,260.17 214.78,267.99      217.06,246.43 215.82,232.53    " />
<polyline points="180.55,256.35 185.33,263.23 187.72,264.88 189.81,266.45 191.42,267.99 235.8,247.27    " />
<polyline points="180.37,257.59 186.09,265.37 188.62,267.99 183.39,249.88 191.63,256.29 198.67,261.42      203.43,266.31 205.02,267.99    " />
<line x1="186.96" y1="267.77" x2="180.28" y2="258.25" />
<path d="M226.22,234.32l-0.87-2.57c-1.93-1.93-6.28-3.85-6.28-3.85" />
<path d="M208.9,232.04c0,0,9.4,0.9,13.64,1.44c4.24,0.54,14.12,2.57,14.12,2.57" />
<path d="M217.81,228.38c0,0,17.59,1.85,22.93,2.36" />
<path d="M216.01,229.08l23.18,2.95c-2.14-1.58-5.32-2.97-5.32-2.97s-3.23,2.04-4.94,3.04     c-1.7,1.01-3.83,3.36-3.83,3.36" />
<path d="M213.12,230.22c0,0,6.47,1.18,12.75,1.57c6.28,0.38,11.85,1.61,11.85,1.61" />
</g>
</g>
<g>
<defs>
<path id="SVGID_702_" d="M122.89,214.53c0,0-10.49,3.96-13.35,5.44l-35.86,25.06c-0.27,0.19-0.45,0.48-0.5,0.81l-1.23,8.54     l7.07,12.79h57.82l9.07-30.74l0.1-12.12c0,0-0.25-0.94,1.38-2.56c1.63-1.63,3.56-3.2,5.28-4.5     C152.66,217.24,135.98,214.84,122.89,214.53z" />
</defs>
<linearGradient id="SVGID_9_" gradientUnits="userSpaceOnUse" x1="114.376" y1="210.3612" x2="109.7522" y2="267.0643">
<stop offset="0" style="stop-color:#2A828E" />
<stop offset="0.5121" style="stop-color:#45BAB1" />
<stop offset="1" style="stop-color:#5FC6A7" />
</linearGradient>
<use xlink:href="#SVGID_702_" />
<clipPath id="SVGID_10_">
<use style="overflow:visible;" xlink:href="#SVGID_702_" />
</clipPath>
<g style="clip-path:url(#SVGID_10_);">
<polyline points="137.72,215.49 128.82,221.01 76.04,253.52 74.31,258.67    " />
<polyline points="75.71,261.19 77.28,257.25 138.69,222.39 147.35,216.54    " />
<polyline points="76.79,263.14 78.57,260.92 145.99,225.23    " />
<polyline points="77.87,265.1 79.58,263.74 145.96,229.36    " />
<polyline points="79.02,267.17 80.48,266.22 145.92,234.1    " />
<polyline points="84.99,267.28 84.26,264.36 77.99,242.02 85.78,247.52 93.19,253.18 96.29,255.08 102.35,259.81      109.17,267.21    " />
<polyline points="87.36,267.14 86.46,264.23 85.5,260.67 85.24,257.39 80.66,240.15 92.23,248.76 99.23,253.56      105.3,258.43 113.31,267.21    " />
<polyline points="91.1,267.17 90.94,262.15 90.49,254.61 86.31,236.2 98.31,245.31 105.55,250.29 111.31,255.62      122.84,267.17    " />
<polyline points="132.56,267.28 128.11,261.95 118.85,252.1 111.67,247.12 100.74,238.3 92.09,232.16      96.23,251.57 96.49,267.21 93.47,263.73 88.05,259.35 85.24,257.39 81.58,254.81 78.51,252 74.66,249.6    " />
<polyline points="99.58,266.88 99.14,250.03 95.57,229.73 103.99,236.3 108.48,239.82 119.38,247.12 129.15,257.4      137.11,266.22    " />
<polyline points="102.34,267.17 102.36,248.33 98.98,227.35 112.08,237.49 119.83,242.9 126.54,248.52      132.94,255.82 138.39,261.88 124.68,267.28    " />
<polyline points="105.03,267.17 105.66,246.58 102.18,225.11 115.85,235.35 123.85,240.81 126.7,243.53      130.48,246.67 134.18,251.05 139.74,257.31 115.02,267.17    " />
<polyline points="108.06,267.17 109.17,244.72 106.03,222.42 119.74,233.15 130.71,241.56 134.6,244.75      138.69,249.07 141.2,252.37 105.76,267.17    " />
<polyline points="110.82,267.17 112.08,237.49 109.53,219.97 114.76,223.46 134.96,239.48 142.69,247.32    " />
<polyline points="114.1,267.17 116.36,240.91 114.43,219.84 115.07,217.57 117.53,219.73 144.4,241.52    " />
<polyline points="120.34,267.17 122.58,256.12 124.18,236.77 122.98,220.31 120.8,217.73 118.86,216.07    " />
<polyline points="127.45,221.85 128.21,234.64 126.7,243.53 126.32,254.99 123.5,267.17    " />
<polyline points="132.28,222.95 132.61,225.84 132.36,232.45 130.71,241.56 130.21,252.78 126.98,266.88    " />
<polyline points="130,267.17 134.18,251.05 134.96,239.48 136.91,230.04 136.8,222.11 136.36,219.74      127.83,214.96 119.63,219.94 74.66,249.6 72.87,256.06    " />
<path d="M133.48,267.21l5.21-18.14l0.8-11.82l1.99-9.64l0.35-4.73l-0.18-2.49l-9.33-5.36c0,0-5.19,2.78-6.59,3.63     c-1.4,0.85-2.41,3.05-2.41,3.05" />
<polyline points="145.95,230.02 143.77,235.15 142.69,247.32 97.22,267.21    " />
<polyline points="145.9,236.43 143.77,235.15 136.91,230.04 132.61,225.84 127.45,221.85 125.73,218.65      121.23,215.16    " />
<polyline points="127.77,267.34 124.36,263.45 118.34,256.94 111.51,250.99 105.66,246.58 101.57,243.46      89.07,234.27 93.19,253.18 93.93,267.21    " />
<polyline points="73.67,245.03 80.45,250.8 87.9,255.99 94.3,260.59 100.43,267.17    " />
<polyline points="72.76,248.74 76.04,253.52 79.64,255.91 82.68,258.75 88.19,262.43 91.03,265.09 92.68,267.17         " />
<polyline points="72.56,250.13 77.28,257.25 80.88,260.21 83.51,261.7 86.46,264.23 89.33,267.21 88.19,262.43      87.9,255.99 83.45,238.2 95.27,247.04 99.14,250.03 105.44,253.97 108.57,256.9 117.25,267.17 120.25,238.85 118.62,220.61         " />
<polyline points="72.3,251.89 78.57,260.92 81.71,263.09 84.46,265.15 86.57,267.17 144.86,239.96    " />
<polyline points="72.07,253.52 79.58,263.74 82.89,267.17 76.03,243.39 86.85,251.81 96.1,258.55 102.34,264.97      104.44,267.17    " />
<line x1="80.72" y1="266.88" x2="71.94" y2="254.38" />
<path d="M132.28,222.95l-1.15-3.38c-2.53-2.53-8.25-5.05-8.25-5.05" />
<path d="M141.72,224.38c0,0,4.41-2.1,5.66-2.64c-4.33-3.87-9.66-6.25-9.66-6.25" />
<path d="M109.53,219.97c0,0,12.35,1.18,17.92,1.89c5.57,0.7,18.54,3.37,18.54,3.37" />
<path d="M121.23,215.16c0,0,23.11,2.43,30.11,3.1" />
<path d="M118.86,216.07l30.45,3.87c-2.8-2.08-6.98-3.9-6.98-3.9s-4.25,2.67-6.48,4s-5.03,4.42-5.03,4.42" />
<path d="M115.07,217.57c0,0,8.5,1.55,16.75,2.06c8.25,0.5,15.56,2.11,15.56,2.11" />
</g>
</g>
<linearGradient id="SVGID_11_" gradientUnits="userSpaceOnUse" x1="89.1264" y1="177.6156" x2="135.4449" y2="277.0163">
<stop offset="0" style="stop-color:#FFD07C" />
<stop offset="0.2321" style="stop-color:#FFAB7F" />
<stop offset="0.5851" style="stop-color:#FF7883" />
<stop offset="0.8521" style="stop-color:#FF5886" />
<stop offset="1" style="stop-color:#FF4C87" />
</linearGradient>
<path d="M66.29,218.05c0.33-0.04,20.5-0.13,46.98,2.17c26.48,2.3,49.67,7.49,49.67,7.49   l0.44,0.67c-2.76,1.25-83.1,38.86-83.1,38.86s-6.31-16.54-10.64-31.25c-4.34-14.72-4.33-14.85-4.62-15.96   C64.67,218.64,65.96,218.09,66.29,218.05z" />
<linearGradient id="SVGID_13_" gradientUnits="userSpaceOnUse" x1="109.973" y1="247.7746" x2="193.755" y2="247.7746">
<stop offset="0" style="stop-color:#8F48FF" />
<stop offset="0.5404" style="stop-color:#FF7DE1" />
<stop offset="0.9985" style="stop-color:#FFD7E2" />
</linearGradient>
<polygon points="163.38,228.38 152,267.17 196.96,266.83  " />
</g>
</svg>
</svg>