<?xml version="1.0" encoding="UTF-8"?>
<svg xmlns="http://www.w3.org/2000/svg" xmlns:xlink="http://www.w3.org/1999/xlink"
     width="147" height="146" viewBox="0 0 147 146">
<defs>
</defs>
<svg x="-100" y="-156">
<clipPath id="clip广州-09">
<path d="M 157 156 L 156 157 L 156 160 L 159 163 L 163 163 L 165 165 L 166 165 L 167 166 L 168 166 L 169 167 L 170 167 L 171 168 L 170 169 L 170 171 L 169 172 L 169 176 L 168 177 L 168 179 L 167 180 L 167 184 L 168 185 L 168 192 L 169 193 L 168 194 L 168 196 L 167 197 L 167 200 L 164 203 L 164 214 L 163 215 L 162 215 L 161 216 L 161 217 L 160 218 L 160 219 L 156 223 L 155 223 L 154 224 L 153 224 L 152 225 L 152 226 L 150 228 L 149 228 L 147 226 L 144 229 L 144 231 L 143 232 L 143 241 L 142 242 L 142 243 L 141 244 L 141 246 L 140 247 L 140 248 L 139 249 L 139 250 L 138 251 L 138 252 L 137 253 L 137 254 L 136 255 L 135 255 L 134 256 L 132 256 L 131 255 L 129 255 L 129 258 L 128 259 L 128 264 L 129 265 L 129 268 L 128 269 L 125 269 L 124 270 L 123 270 L 122 271 L 121 271 L 115 277 L 114 277 L 113 278 L 112 278 L 108 282 L 108 283 L 107 284 L 107 285 L 106 286 L 106 287 L 105 288 L 105 289 L 104 290 L 104 292 L 103 293 L 103 294 L 102 295 L 102 296 L 101 297 L 101 298 L 100 299 L 100 301 L 246 301 L 246 298 L 245 297 L 245 295 L 244 294 L 244 292 L 243 291 L 243 289 L 242 288 L 242 286 L 241 285 L 241 284 L 240 283 L 240 282 L 238 280 L 236 280 L 235 279 L 227 279 L 222 274 L 221 274 L 219 272 L 219 271 L 217 269 L 217 268 L 216 267 L 216 266 L 214 264 L 214 263 L 213 262 L 213 260 L 212 259 L 212 252 L 213 251 L 213 248 L 214 247 L 217 247 L 217 246 L 219 244 L 219 243 L 220 242 L 220 240 L 221 239 L 221 237 L 222 236 L 222 235 L 223 234 L 223 228 L 220 228 L 215 223 L 214 223 L 214 226 L 215 227 L 215 228 L 216 229 L 215 230 L 214 230 L 212 228 L 210 228 L 209 227 L 208 227 L 207 228 L 207 230 L 208 231 L 207 232 L 198 232 L 197 231 L 197 229 L 195 227 L 195 223 L 194 222 L 194 221 L 192 219 L 192 218 L 191 217 L 191 216 L 189 214 L 189 213 L 188 212 L 188 210 L 187 209 L 187 200 L 182 195 L 182 194 L 181 193 L 181 185 L 182 184 L 182 181 L 184 179 L 184 178 L 185 177 L 187 177 L 189 175 L 189 169 L 187 167 L 186 167 L 185 166 L 185 165 L 184 164 L 184 163 L 183 162 L 182 162 L 178 158 L 177 158 L 176 157 L 173 157 L 172 156 L 171 157 L 166 157 L 165 158 L 164 158 L 163 159 L 160 159 L 159 158 L 159 156 z" />
</clipPath>
<g clip-path="url(#clip广州-09)">
<path d="M138.52,270.85c0,0-5.94-6.83,0.68-14.48c6.62-7.66,11.5-19.5,17.09-26.15c5.59-6.66,19.25-10,19.25-10   s9.69,2.35,15.62,10.17c5.93,7.82,13.56,19.42,16.75,23.76c3.19,4.34,4.79,19.66,4.79,22.05s-30.77,2.91-37.95,1.71   C167.57,276.71,138.52,270.85,138.52,270.85z" />
<g>
<defs>
<path id="SVGID_569_" d="M197.27,234.02c0,0-0.08-1.97-0.48-3.86c-0.4-1.89-1.45-1.97-1.45-1.97c-0.4-3.26-0.85-5.96-2.86-7.97     c-1.69-3.38-4.03-6.32-4.71-8.41c-0.68-2.09-0.72-3.82-0.72-6.96c0-3.14-0.48-4.87-1.81-5.31c-1.33-0.44-2.98-3.1-2.98-3.1     c-0.44-1.97-1.29-3.54-1.29-3.54c0-2.62-0.24-3.94-0.24-3.94c1.05-2.37,0.16-3.74,0.16-3.74s1.33-1.29,1.33-2.37     c0-1.09-0.76-1.33-0.76-1.33c0.74-0.74,0.76-1.77,0.76-1.77c1.33,0,1.65-0.6,2.33-2.37c0,0,1.71,0.3,2.46-0.44     c1.57-0.32,0.8-1.53,0.8-1.53c1.17,0.24,1.49-1.01,1.05-2.74c0.72,0.2,0.72-1.05-0.2-2.78c-0.93-1.73-3.3-2.29-3.3-2.29     c-0.6-4.15-4.63-5.72-4.63-5.72s-2.75-1.46-4.47-1.06c-1.72,0.4-2.12,2.55-2.31,3.73c-0.19,1.18-1.88,3.97-2.84,6.25     s-1.61,4.35-1.61,6.01c0,1.66-0.03,1.99-0.03,1.99s-0.16,7.81-0.16,10.2c0,2.39,0.38,5.02,0.38,5.02s-1.29,2.92-1.42,5.39     c0,0-0.24,1.45-1.23,2.44c-0.99,0.99-2.31,2.63-2.31,4.72c0,2.09,0.43,8.05,0.43,8.05s-3.17,2.31-4.03,4.4     c-0.86,2.09-1.66,2.9-2.9,3.6c-1.23,0.7-1.5,1.56-1.5,1.56s4.24-0.59,5.15-0.59c0.91,0,3.54,0.91,4.83,2.9     c1.29,1.99,3.7,3.27,6.71,3.81c3.01,0.54,12.4,0.05,14.44,3.81c2.04,3.76,1.99,7.3,4.4,6.01     C194.67,238.8,197.27,234.02,197.27,234.02z" />
</defs>
<use style="overflow:visible;" xlink:href="#SVGID_569_" />
<clipPath id="SVGID_1_">
<use style="overflow:visible;" xlink:href="#SVGID_569_" />
</clipPath>
<path style="clip-path:url(#SVGID_1_);stroke:#FCFCFC;stroke-miterlimit:10;" d="M184.13,179.07c0,0-3.57-2.05-7.99,4.34    c-2.63,3.8-2.33,10.63-2.33,10.63s1.6-4.94,3.32-6.29c3.09-2.43,4.12-1.68,5.25-3.31C183.5,182.8,184.13,179.07,184.13,179.07z" />
<path style="clip-path:url(#SVGID_1_);stroke:#FCFCFC;stroke-miterlimit:10;" d="M189.09,175.17c0,0,0.19-1.58-1.66-2.76    c-1.85-1.18-3.43-2.07-4.29-2.39c1.96,1.64,4.99,5.8,5.39,6.2C188.93,176.62,189.09,175.17,189.09,175.17z" />
<path style="clip-path:url(#SVGID_1_);stroke:#FCFCFC;stroke-miterlimit:10;" d="M179.59,169.8c-2.05,0.29-4.14,1.25-5.43,2.79    c0,0,2.59-0.7,3.07-1.19c0.48-0.48,2.04-0.92,3.68-0.81c1.64,0.11,2.26,1.03,2.26,1.03C182.95,170.6,181.71,169.5,179.59,169.8z" />
<path style="clip-path:url(#SVGID_1_);stroke:#FCFCFC;stroke-miterlimit:10;" d="M187.53,174.98c0,0-3.79-2.93-3.99-3.13    c0.36-0.86-0.4-1.82-0.4-1.82s2.74,1.77,3.78,3.25C187.96,174.75,187.53,174.98,187.53,174.98z" />
<path style="clip-path:url(#SVGID_1_);stroke:#FCFCFC;stroke-miterlimit:10;" d="M188.04,176.08c0,0-1.15-2.03-2.36-1.38    c-1.21,0.64-1.47,0.4-1.47,0.4l-0.7,0.72c0,0,1.01,1.24,0.38,2.9c0.64,0.64,3.8-1.48,4.07-1.75    C188.23,176.7,188.04,176.08,188.04,176.08z" />
<path style="clip-path:url(#SVGID_1_);stroke:#FCFCFC;stroke-miterlimit:10;" d="M168.25,199.06c0,0-0.82,2.57-0.82,4.49    c0,1.92-2.22,1.49-1.87,5.28c0.35,3.79,0.55,5.48-0.41,5.77c-0.96,0.29-2.8-7.23-2.8-7.23s2.8-6.09,3.79-7.38    C167.14,198.71,168.25,199.06,168.25,199.06z" />
<path style="clip-path:url(#SVGID_1_);stroke:#FCFCFC;stroke-miterlimit:10;" d="M180.7,161.72c0,0,2.36,0.95,2.96,3.29    c0.61,2.34,0.74,2.51,2.08,2.51c1.33,0,1.58-2.49-0.55-4.02C183.05,161.98,180.7,161.72,180.7,161.72z" />
<path style="clip-path:url(#SVGID_1_);stroke:#FCFCFC;stroke-miterlimit:10;" d="M180.79,167.33c0,0-1.15-0.36-1.75,0.23    c-0.59,0.59-1.22,1.19-2.11,1.38c-0.89,0.2-2.6,0.76-2.83,2.17c-0.23,1.42-0.61,2.58-0.61,2.58s2.45-3.4,4.66-4.32    C180.36,168.45,180.79,167.33,180.79,167.33z" />
<path style="clip-path:url(#SVGID_1_);stroke:#FCFCFC;stroke-miterlimit:10;" d="M178.03,196.11c0,0-3.06,2.74-4.39,4.83    c-1.33,2.09-1.81,3.54-1.81,3.54s4.83-6.04,7.37-7.49c2.54-1.45,2.29-3.98,2.29-3.98s-0.56,2.21-2.01,2.66    C178.03,196.11,178.03,196.11,178.03,196.11z" />
<path style="opacity:0.5;clip-path:url(#SVGID_1_);stroke:#FCFCFC;stroke-miterlimit:10;" d="M178.41,175.9    c0,0-3.06,2.12-4.24,3.3s-1.15,1.96-1.15,2.23c0,0.27,0.99-0.05,1.29-0.59s1.13-1.85,1.13-1.85s-1.07,2.18-0.49,2.76    c0.24,0.24,0.14,0.03,0.65-1.18c0.51-1.21,2.36-2.9,2.36-2.9s-2.39,2.9-2.39,4.08s0.81-0.72,1.74-2.07s2.58-2.82,2.58-2.82    s-0.99,1.74-1.72,2.87s-1.29,1.85-1.29,1.85s1.23-0.38,2.31-1.8c1.07-1.42,2.63-2.31,3.49-2.04c0.86,0.27,1.45,1.31,1.45,1.31    s-2.07-0.35-3.03,0.35c-0.97,0.7-3.89,2.5-3.89,2.98s0.21,0.59,0.21,0.59s3.06-1.18,4.24-3.01c0,0-0.94,3.09-2.09,3.81    c-1.15,0.72-2.31,0.48-3.27,2.63c-0.97,2.15-1.45,3.73-1.45,3.73s0-3.38,0.24-4.8c0.24-1.42-0.05-1.45-0.62-1.45    c0,0,0.63-1.06,0.27-1.42c0,0-0.51,0.64-1.07,0.94c-0.56,0.3-0.72,2.47-0.72,2.63c-0.49-2-0.03-2.33-0.27-3.19    s-0.59,0.8-1.42-0.03c-0.83-0.83-1.66-1.5-0.72-2.15s1.82-1.99,3.81-3.22C176.32,176.22,177.9,175.9,178.41,175.9z" />
<path style="clip-path:url(#SVGID_1_);stroke:#FCFCFC;stroke-miterlimit:10;" d="M169.9,185.1c0,0,0.81,0.91,0.43,2.58    s-0.62,3.14-0.62,4.37c0,0,0.74-0.74,1.31-1.31c0.58-0.58-0.19-1.37,0.59-3.03c0.78-1.66,0.43-2.33,0.05-3.46    c-0.38-1.13-1.82-1.8-1.93-1.69C169.64,182.66,169.9,185.1,169.9,185.1z" />
<path style="clip-path:url(#SVGID_1_);stroke:#FCFCFC;stroke-miterlimit:10;" d="M170.67,188.02c0,0-0.56-6.68,5.27-10.02    c5.84-3.34,8.53-4.39,8.25-5.88c-0.28-1.49-3.93-2.24-5.88-1.36c-1.95,0.87-7.53,3.29-7.88,5.45c-0.57,3.46-1.41,5.46-1.41,8.2    C169.02,187.13,170.67,188.02,170.67,188.02z" />
<path style="clip-path:url(#SVGID_1_);stroke:#FCFCFC;stroke-miterlimit:10;" d="M175.63,175.45c0,0-2.47,0.67-3.43,2.73    c-0.96,2.06-1.22,3.31-1.41,4.48c-0.19,1.17-1.27,2.93-1.27,2.93s0.86,0.98,1.49-0.84c0.62-1.82,2.01-5.18,4.27-6.57    c2.25-1.39,3.42-3.08,3.51-4.43C178.78,173.76,176.88,174.91,175.63,175.45z" />
<path style="clip-path:url(#SVGID_1_);stroke:#FCFCFC;stroke-miterlimit:10;" d="M177.03,195.54c0,0-3.46,1.29-4.71,3.58    c-1.25,2.29-1.77,4.63-1.77,7.53s0.81,5.64-4.19,6.56c0,0,2.74-0.76,3.06-3.74c0.32-2.98-0.24-5.59,1.13-8.25s2.37-4.23,5.72-5.84    c1.89-0.91,3.7-3.54,5.15-7.61l0.32,1.61C181.74,189.38,180.79,193.51,177.03,195.54z" />
<path style="clip-path:url(#SVGID_1_);stroke:#FCFCFC;stroke-miterlimit:10;" d="M182.18,187.17c0,0-3.54-0.04-4.55,1.81    c-1.01,1.85-1.93,2.05-2.25,3.3c-0.32,1.25-0.68,3.02-1.85,4.19c-1.17,1.17-4.71,2.98-5.11,6.64c0,0,0.64,0.76,1.05-0.4    s1.53-3.14,3.48-5.09c1.95-1.95,2.8-4.89,3.6-5.7c0.81-0.81,5.41-0.74,6.12-1.45C183.37,189.77,182.18,187.17,182.18,187.17z" />
<path style="clip-path:url(#SVGID_1_);stroke:#FCFCFC;stroke-miterlimit:10;" d="M181.26,184.84c0,0-0.32,0.85-1.73,1.21    c-1.41,0.36-4.15,2.13-4.47,4.95c0,0,1.65-3.06,4.07-4.27c2.42-1.21,2.94-2.05,2.94-2.05L181.26,184.84z" />
<use xlink:href="#SVGID_569_" />
</g>
<g>
<defs>
<path id="SVGID_571_" d="M222.83,280.69c0,0,8.35-1.12,10.14-0.82s5.52,1.19,6.41,2.68c0.89,1.49,2.16,3.95,3.36,7.31     c1.19,3.36,3.43,10.81,3.43,10.81H100.98c0,0,7.9-17.3,8.58-17.97c0.67-0.67,4.71-5.08,6.61-5.08c1.89,0,23.38,2.47,32.32,4.33     c8.94,1.86,29.75,3.43,43.24,1.57C205.23,281.66,222.83,280.69,222.83,280.69z" />
</defs>
<use style="overflow:visible;" xlink:href="#SVGID_571_" />
<clipPath id="SVGID_3_">
<use style="overflow:visible;" xlink:href="#SVGID_571_" />
</clipPath>
<path style="clip-path:url(#SVGID_3_);stroke:#FCFCFC;stroke-miterlimit:10;" d="M235.25,303.31c0,0-0.21-9.77-3.43-16.96    c-3.22-7.19-3.33-9.12-3.33-9.12l15.46,1.93c0,0,10.84,17.07,11.49,18.57c0.64,1.5-10.95,8.69-10.95,8.69L235.25,303.31z" />
<path style="clip-path:url(#SVGID_3_);stroke:#FCFCFC;stroke-miterlimit:10;" d="M211.45,304.76c0,0-0.21-9.77-3.43-16.96    c-3.22-7.19-3.33-9.12-3.33-9.12l25.22,3.15c0,0,11.73,21.14,12.37,22.64c0.64,1.5-21.6,3.4-21.6,3.4L211.45,304.76z" />
<path style="clip-path:url(#SVGID_3_);stroke:#FCFCFC;stroke-miterlimit:10;" d="M110.09,306.31c0,0,12.24-29.14,15.13-33.33    c2.9-4.19-14.97-2.09-14.97-2.09l-16.58,23.67l4.99,10.95L110.09,306.31z" />
<path style="clip-path:url(#SVGID_3_);stroke:#FCFCFC;stroke-miterlimit:10;" d="M138.91,305.03c0,0,1.29-7.13,1.61-13.69    c0.32-6.56-0.35-13.43,1.05-15.45c2.9-4.19-14.97-2.09-14.97-2.09l-16.58,23.67l4.99,10.95L138.91,305.03z" />
<path style="clip-path:url(#SVGID_3_);stroke:#FCFCFC;stroke-miterlimit:10;" d="M138.59,306.96l1.69-26.34l4.03-0.45l9.58,4.41    c0,0,2.9,19.96,1.61,19.96C154.21,304.54,138.59,306.96,138.59,306.96z" />
<use xlink:href="#SVGID_571_" />
</g>
<g>
<defs>
<path id="SVGID_573_" d="M197.27,234.02c0,0,2.21-1.73,3.94-1.53c1.73,0.2,2.54,0.93,2.54,0.93s6.22,0.16,7.55-0.32     c-2.45-2.45-3.74-3.6-2.92-4.43c0.83-0.83,4.59,0.12,6.52,3.58c1.49-0.64,2.74-2.01,2.37-3.02c-0.36-1.01-3.3-3.58-2.54-4.99     c0,0,1.63,1.31,2.78,2.46c1.15,1.15,2.9,1.81,2.9,3.66c0,1.85,0.12,2.13,0.12,2.13s0.44-1.09,0.44-2.05s2.05-1.61,2.05-1.61     s0.08,1.65,0.08,2.98c0,1.33-0.76,2.94-0.76,2.94s-1.29,3.1-1.69,4.35c-0.4,1.25-1.93,5.51-2.5,6.08     c-0.56,0.56-0.56,0.56-0.56,0.56s-0.44,1.13-0.97,1.13c-0.52,0-0.6-0.4-0.6-0.4s-0.58,0.91-1.29,0.2     c-0.7-0.7-0.93-0.93-0.93-0.93s-0.68,0.4-1.01,0.72c0,0,0.72,3.22-0.52,5.96c0,2.9-0.32,5.68,0.08,7.73     c0.4,2.05,0.6,3.06,1.65,4.55c1.05,1.49,2.42,3.46,2.66,4.59c0.24,1.13,1.29,1.05,1.85,2.09c0.56,1.05,1.01,2.33,1.01,2.33     s-2.48,0.43-3.45,0.43c-0.97,0-1.31-0.13-1.31-0.13l2.71,6.28c0,0-1.5,1.34-3.38,1.34s-3.06-0.38-3.06-0.38s-0.54-2.2-0.54-4.56     c0-2.36-0.54-6.65-1.23-8.48c-0.7-1.82-0.86-1.88-0.86-4.19c0-2.31,0.16-5.15-1.07-6.39c0,0-0.64,0.64-1.5,0.64     c1.37,1.37,1.72,4.67,2.04,6.87c0.32,2.2-1.21,2.92-2.15,1.99c-0.94-0.94-0.94-0.94-0.94-0.94s-0.62,3.73-1.26,4.37     c-0.64,0.64-2.9,1.93-2.9,0.27s0.38-2.31-0.7-3.38c-1.07-1.07-2.42-2.47-2.42-2.47l-1.18,0.16c0,0,0.11,7.03,0.11,7.51     c0,0.48-2.84-0.32-3.49-0.96c-0.64-0.64-1.4-2.36-1.4-4.62c0-2.25-2.25-10.73-2.04-13.36c0.21-2.63-1.29-2.68,0.27-4.94     c1.56-2.25-0.05-5.58,0.91-7.57c0.97-1.99,2.47-3.01,2.47-3.01s0.91-2.25,2.58-2.9L197.27,234.02z" />
</defs>
<use style="overflow:visible;" xlink:href="#SVGID_573_" />
<clipPath id="SVGID_4_">
<use style="overflow:visible;" xlink:href="#SVGID_573_" />
</clipPath>
<path style="clip-path:url(#SVGID_4_);stroke:#FCFCFC;stroke-miterlimit:10;" d="M212.97,266.71c0,0,1.73,4.59,2.42,4.59    c0.68,0,1.09-0.28,1.09-0.28s-1.25,0.68-0.64,1.61c0.6,0.93,1.49,2.05,1.49,2.05l-2.25,0.04c0,0-1.38-2.25-1.7-4.34    C213.05,268.28,212.97,266.71,212.97,266.71z" />
<path style="clip-path:url(#SVGID_4_);stroke:#FCFCFC;stroke-miterlimit:10;" d="M215.25,242.48c0,0-0.54-0.48-0.83-0.19    c-0.3,0.3,0,0.27,0.19,1.23c0.19,0.97,0.85,3.07,1.53,3.76l0.24-0.05c0,0-0.3-0.3-0.51-1.02c-0.21-0.72-0.64-1.4-0.91-2.42    c-0.27-1.02-0.62-1.15-0.16-1.23C215.25,242.48,215.25,242.48,215.25,242.48z" />
<path style="clip-path:url(#SVGID_4_);stroke:#FCFCFC;stroke-miterlimit:10;" d="M210.48,244.13c0,0-0.36,2.17,0.36,3.98    c0.72,1.81,0.93,4.27,0.93,4.27s1.81-0.44,1.81-2.21c0-1.77-0.87-5.98-1.57-6.68C211.3,242.78,210.56,242.32,210.48,244.13z" />
<path style="clip-path:url(#SVGID_4_);stroke:#FCFCFC;stroke-miterlimit:10;" d="M210.03,250.61c0,0,0.4,3.3,0.81,6.2    c0.4,2.9,0.68,3.42,0.89,6.6c0.2,3.18,0.76,8.49,1.21,9.78c0.44,1.29,1.21-0.08,1.65-0.08c0,0-0.72-0.91-1.13-5.55    c-0.41-4.65-0.64-6.92-0.64-9.34C212.81,255.8,210.03,250.61,210.03,250.61z" />
<use xlink:href="#SVGID_573_" />
</g>
<g>
<defs>
<path id="SVGID_575_" d="M180.73,161.85c0,0-3.02-4.39-8.13-4.39c-6.47,0-7.41,2.74-10.79,2.74s-3.22-3.5-3.22-3.5     s-0.68-0.44-1.16,0.58c-0.48,1.02-0.47,3.66,1.81,5c2.28,1.34,3.35,1.16,5.09,1.16c0.61-0.08,4.33-2.11,5.7-2.26     c1.7-0.19,3.45-0.03,4.37,2.07c0.69-0.69,1.21-1.56,2.88-1.56C178.95,161.68,180.73,161.85,180.73,161.85z" />
</defs>
<use style="overflow:visible;" xlink:href="#SVGID_575_" />
<clipPath id="SVGID_5_">
<use style="overflow:visible;" xlink:href="#SVGID_575_" />
</clipPath>
<path style="clip-path:url(#SVGID_5_);stroke:#FCFCFC;stroke-miterlimit:10;" d="M157.71,156.86c0,0-0.95,2.19,1.38,4.28    c2.33,2.09,6.06,2.04,6.06,2.04s-2.84,2.68-6.12,0C155.76,160.5,157.71,156.86,157.71,156.86z" />
<path style="clip-path:url(#SVGID_5_);stroke:#FCFCFC;stroke-miterlimit:10;" d="M173.96,162.45c0,0-0.97-3.67-3.92-3.35    c-2.95,0.32-7.25,2.74-9.98,1.5c0,0,0.38,0.38,1.02,1.02c0.64,0.64,3.86,1.29,6.39,1.29    C169.98,162.91,173.96,162.45,173.96,162.45z" />
<use xlink:href="#SVGID_575_" />
</g>
<g>
<defs>
<path id="SVGID_577_" d="M174.92,165.57c0,0-0.87-0.6-1.58-1.31c-0.71-0.71-0.99-1.51-2.79-2.15c-1.8-0.63-2.87-1.29-3.84-1.72     c-0.97-0.43-2.88-0.34-3.49,0.27c-0.6,0.6,0.16,2.42,1.85,3.68c1.69,1.26,4.62,2.25,5.74,2.87c1.13,0.62,1.26,1.61,1.26,1.61     s1.4,0.75,2.25-0.72C175.19,166.61,174.92,165.57,174.92,165.57z" />
</defs>
<use style="overflow:visible;" xlink:href="#SVGID_577_" />
<clipPath id="SVGID_6_">
<use style="overflow:visible;" xlink:href="#SVGID_577_" />
</clipPath>
<path style="clip-path:url(#SVGID_6_);stroke:#FCFCFC;stroke-miterlimit:10;" d="M170.71,162.71c0.7,0.7,2.79,1.63,2.25,3    c-0.54,1.37-4.03,0.47-5.64-0.38c-1.61-0.86-4.92-2.09-4.2-4.05c0.36-0.99,1.8-0.93,2.57-0.75    C168.66,161.25,170.71,162.71,170.71,162.71z" />
<use xlink:href="#SVGID_577_" />
</g>
<path d="M178.06,165.62c0,0,1.66-1.23,2.31-1.13c0.64,0.11,1.15,0.78,1.15,1.69c0,0.91-0.16,0.78-0.16,0.78   s-0.78-0.62-1.74-0.94C178.65,165.7,178.06,165.62,178.06,165.62z" />
<path d="M179.35,163.72c0,0-2.17,0.86-3.14,2.31c0,0,0.9,0.07,1.13-0.16C177.81,165.39,178.25,164.82,179.35,163.72z   " />
<path d="M188.15,171.44c0,0-0.56-2.04-1.1-2.04s-0.56,0.62-0.08,1.1C187.45,170.99,188.15,171.44,188.15,171.44z" />
<path d="M176.88,171.66c-0.5,0.19-0.75,0.16-1.45,0.86c-0.7,0.7-0.35,1.37,0.46,1.1c0.8-0.27,1.96-1.93,1.96-1.93   S177.38,171.47,176.88,171.66z" />
<path d="M175.46,173.32c0,0-0.83,0.11-1.34,1.02c-0.51,0.91-0.48,1.37-0.48,1.37s1.66-0.4,2.09-1.18   C176.16,173.75,175.46,173.32,175.46,173.32z" />
<path d="M174.47,175.17c0,0-0.95-0.36-1.66,0.7s-0.35,1.72-0.35,1.72s0.27,0.62,0.99,0.16   c0.72-0.46,1.45-1.5,1.45-2.04C174.9,175.17,174.47,175.17,174.47,175.17z" />
<path d="M172.81,174.21c0,0-0.66-0.5-1.64,0.16c-0.98,0.66-1.26,2.3-1.26,2.3s1.31-0.12,2.23-1.05   C173.07,174.71,172.81,174.21,172.81,174.21z" />
<path d="M174.27,172.9c0,0-0.51-0.38-1.26,0.13c-0.75,0.51-0.97,1.77-0.97,1.77s1.01-0.09,1.72-0.81   C174.47,173.28,174.27,172.9,174.27,172.9z" />
<path d="M175.58,172.33c0,0-0.51-0.38-1.26,0.13c-0.75,0.51-0.97,1.77-0.97,1.77s1.01-0.09,1.72-0.8   C175.79,172.71,175.58,172.33,175.58,172.33z" />
<path d="M171.08,176.06c0,0-1.29,0.75-1.61,1.61s-0.19,1.56-0.19,1.56s1.02,0.03,1.48-0.64   C171.22,177.91,171.57,176.89,171.08,176.06z" />
<path d="M169.6,178.48c0,0-1.17,1.05-1.17,1.83s0.93,1.29,1.47,0.36C170.44,179.74,169.6,178.48,169.6,178.48z" />
<path d="M169.14,180.49c0,0-1.18,1.18-0.54,2.56c0.63,1.39,1.48-0.9,1.3-1.45   C169.71,181.06,169.14,180.49,169.14,180.49z" />
<path d="M168.43,183.01c0,0-0.24,1.4,0.11,2.01c0.35,0.62,1.66-0.03,1.66-1.07   C170.2,182.9,169.15,182.29,168.43,183.01z" />
<path d="M169.88,184.08c-0.57,0.23-1.37,1.41-1.37,2.76c0,1.37,0.86,2.68,0.86,2.68s-0.11-2.84,0.67-4.03   C170.82,184.33,169.88,184.08,169.88,184.08z" />
<path d="M179.36,170.59c0,0-1.28,0.28-1.75,1.07s-1.72,1.96-1.72,1.96l-1.15,2.07l0.23,1.4c0,0,1.81-1.11,2.24-2.8   C177.63,172.6,178.49,171.45,179.36,170.59z" />
<path d="M173.15,186.63c0,0,0.7,5.66,0.25,6.98c-1.17,3.43-3.18,2.86-3.18,2.86s1.32-0.93,1.32-3.26   C171.55,190.87,173.15,186.63,173.15,186.63z" />
<path d="M176.26,202.87c0,0-2.13,0.44-3.46,2.13c-1.33,1.69-1.85,3.18-2.62,3.82l-0.28,1.05c0,0,0.85-1.13,2.13-2.86   c1.29-1.73,3.18-3.66,4.43-3.66c0,0-1.21,1.13-2.21,2.7c-1.01,1.57-1.85,3.94-3.46,6c-1.61,2.05-5.07,2.78-6.44,4.75   c0,0,2.9-0.97,4.63-1.21s4.19-0.72,5.43-3.1c1.25-2.37,1.73-4.99,1.73-4.99s-1.35,2.96-2.37,3.98s-1.49,0.32-0.4-1.45   c1.09-1.77,2.9-3.82,2.9-3.82v3.82c0,0,1.13-2.62,1.13-4.39c0-1.77-0.52-4.75,0.08-5.35c0.6-0.6,1.77-0.76,2.94-1.17   c1.17-0.4,0.69-4.16,0.69-4.16s-3.83,2.75-5.4,4.32c-1.57,1.57-3.26,3.79-3.26,3.79S174.65,202.38,176.26,202.87z" />
<path d="M162.14,221.75c0,0,1.69-4.27,3.7-4.27s4.59,0.76,6.68,0.28s3.12-1.23,3.12-1.23s0.18,1.15-1.95,1.64   s-4.19,0.4-6.36,0.72C165.15,219.21,163.06,219.77,162.14,221.75z" />
<path d="M163.22,222.55c0,0,0.93-2.74,3.82-2.74s3.58,1.21,5.8,0c2.21-1.21,2.21-1.21,2.21-1.21l0.67,2.23   c0,0-3.77,1.47-4.37,2.08c-0.6,0.6-3.88,0.78-4.31,0.36c-0.42-0.42,2.05-2.29,3.14-2.29c0,0-2.76,0.14-4.11,1.49   S163.22,222.55,163.22,222.55z" />
<path d="M181.67,199.51c-0.56-0.72-1.79-0.87-2.91-0.5c-1.13,0.36-1.69,1.23-1.53,3.94   c0.16,2.71-0.72,6.21-1.09,7.74c-0.36,1.53,0.6,3.54,0.16,4.47c-0.44,0.93-1.25,2.37-1.25,3.46c0,1.09,0.36,2.42,0.36,2.42   l1.25-0.48c0,0-0.06-1.87,1.09-3.02l0.04,3.22l3.38,0.12c0,0,0.72-1.41,0.52-2.74c-0.2-1.33-0.66-2.56-0.66-3.2   c0,0,0.25-0.5,0.34-0.7c0.49-1.06,0-4.95,0-7.25c0-2.29,0.28-3.66,0.28-3.66S182.91,201.07,181.67,199.51z" />
<path d="M186.09,211c0,0-1.32,0.45-1.74,0.03c-0.42-0.42,0.14-1.18-0.8-3.47c-0.94-2.29-1.74-3.23-1.74-3.23   s-1.32,8.71-1.32,10.72c0,2.01,0.17,5.83,0.8,6.14c0.62,0.31,3.16,2.32,4.06,2.32c0.9,0,2.91-0.45,2.74-2.6   c0,0-0.28,1.08-1.32,1.08c-1.04,0-1.98-0.94-1.98-0.94s2.29,0.03,2.74-1.53c0.45-1.56,0.45-1.56,0.45-1.56s-0.76,0.83-2.01,0.66   c-1.25-0.17-1.61-0.4-2.15,0.14c0,0-0.8-0.35-0.45-1.08s1.87,0.21,2.67-1.08c0.8-1.28,1.39-3.02,1.18-4.09c0,0-2.78,1.25-3.47,1.25   s-0.38-1.25,0.62-1.6S186.09,211,186.09,211z" />
<path d="M181.26,215.01c0,0-0.74,0.1-0.74-0.46c0-0.56-1.16,0.23-1.16,0.23s0.12-1.93,0.56-3.38   c0.44-1.45,0.32-2.01,0-2.74c-0.32-0.72-0.16-3.18-0.16-5.03c0-1.85-0.08-3.46,0.89-3.98c0.97-0.52,1.07,0.33,2.13,1.69   c1.07,1.36,2.94,6.48,2.94,6.48s-1.25-2.74-2.37-3.86c-1.13-1.13-0.78-1.54-1.39,0.03c-0.6,1.57-0.55,5.08-0.37,7.32   C181.77,213.53,181.26,215.01,181.26,215.01z" />
<path d="M214.93,236.03c0,0,0.81-0.24,1.45-0.43c0.64-0.19,1.5-0.03,1.61,0.46c0,0-0.51-0.62-1.56-0.21   S214.93,236.03,214.93,236.03z" />
<path d="M215.95,236.14c0,0,0.62,0.83,1.26,0.64c0.64-0.19,0.64-0.19,0.64-0.19s-0.4,1.05-1.23,0.62   C215.79,236.79,215.95,236.14,215.95,236.14z" />
<path d="M217.43,234.61c0,0,1.26,0.8,1.05,1.85c-0.21,1.05-0.72,1.56-0.72,1.56s2.15-0.7,1.91-1.72   C219.41,235.28,217.43,234.61,217.43,234.61z" />
<path d="M217.27,237.81c0,0-0.7,0.81-1.37,0.81c0,0,0.59-0.4-0.03-0.78c-0.62-0.38-0.56-0.7-0.56-0.7   S216.14,238.1,217.27,237.81z" />
<path d="M217.16,244.33c0,0,0.38-1.69-0.05-1.69c-0.43,0-0.59,0.4-0.4,0.94   C216.89,244.11,217.16,244.33,217.16,244.33z" />
<path d="M211.55,234.8c0,0-0.27,2.79,0.51,4.51c0.78,1.72-0.62,1.96-1.21,1.96c-0.59,0-0.86-0.16-0.86-0.16   l0.89,1.15l2.12-0.16c0,0,0.83-0.4,0.24-1.82C212.65,238.85,211.55,235.71,211.55,234.8z" />
<g>
<defs>
<path id="SVGID_579_" d="M196.93,235.23c0,0-1.34,1.48,0.16,2.98c1.5,1.5,1.48,3.86,1.48,3.86s4.03,3.06,5.69,0.24     c1.66-2.82,1.26-4.72-0.24-5.85c-1.5-1.13-3.41-1.99-4.72-1.99C197.97,234.48,196.93,235.23,196.93,235.23z" />
</defs>
<use style="overflow:visible;" xlink:href="#SVGID_579_" />
<clipPath id="SVGID_7_">
<use style="overflow:visible;" xlink:href="#SVGID_579_" />
</clipPath>
<path style="clip-path:url(#SVGID_7_);stroke:#FCFCFC;stroke-miterlimit:10;" d="M196.49,234.68c0,0,0.58,2.36,1.56,3.34    c0.98,0.98,0.78,1.8,0.99,2.74c0.21,0.94,0.07,0.17,1.15-0.91c1.09-1.09,1.29-2.2,0.48-3.01c0,0,1.61,0.4,1.4,2.98    c-0.21,2.58-0.51,2.33-0.51,2.33s1.96-0.51,2.23-2.2c0.27-1.69-0.48-3.49,0.21-3.49c0.7,0,2.44,2.01,2.44,2.01l-1.96,6.71h-8.67    l-0.08-6.47L196.49,234.68z" />
<use xlink:href="#SVGID_579_" />
</g>
<path d="M194.14,243.84c0,0-0.16,1.89-0.44,3.22c-0.28,1.33,0.16,1.89,0.97,4.15c0.81,2.25,1.45,4.79,1.21,1.77   c-0.24-3.02-1.45-4.27-0.97-6.4C195.38,244.45,194.14,243.84,194.14,243.84z" />
<path d="M195.81,244.01c0,0,0.82,4.59,1.91,6.88c1.09,2.29,2.42,1.97,2.42,4.75c0,2.78,0,2.78,0,2.78   s1.33-0.81,1.33-2.66s-0.48-0.76-1.85-3.74c-1.37-2.98-1.81-3.98-2.5-5.68C196.43,244.65,195.81,244.01,195.81,244.01z" />
<path d="M198.6,246.3c0,0-0.45,1.58,1.14,3.17c1.59,1.59,2.04,1.82,2.04,1.82s-1.33-1.45-1.57-2.7   c-0.24-1.25-0.16-2.9-0.16-4.27c0-1.37-0.85-1.45-1.37-0.93C198.16,243.92,198.5,245.56,198.6,246.3z" />
<path d="M209.11,243.52c0,0,0.44,1.29-0.97,2.05c-1.41,0.76-2.05,0.64-2.05,2.46c0,1.81-0.76,3.1-1.97,3.1   c-1.21,0-2.86-0.72-2.66,1.33c0.2,2.05,2.37,3.94,2.37,3.94s-0.68-2.13,0.89-2.58c1.57-0.44,3.42-0.04,4.03-2.21   c0.6-2.17,0.32-2.66,0.32-2.66s-0.28,2.25-1.49,2.94c-1.21,0.68-2.29,0.8-1.09-0.4c1.21-1.21,1.09-3.22,1.09-3.22   s-0.99,1.87-1.45,2.33c-0.46,0.46-0.5-2.76,1.33-3.7C209.43,245.89,209.67,244.01,209.11,243.52z" />
<g>
<defs>
<path id="SVGID_581_" d="M170.51,242.03c0,0-1.13-2.82-2.86-2.82c-1.73,0-2.5,2.62-2.5,2.62s0.68,0.28,1.13,0.28     c0.44,0,0.36,2.01,0.36,2.01s1.57-1.05,2.46-1.45C169.98,242.27,170.51,242.03,170.51,242.03z" />
</defs>
<use style="overflow:visible;" xlink:href="#SVGID_581_" />
<clipPath id="SVGID_8_">
<use style="overflow:visible;" xlink:href="#SVGID_581_" />
</clipPath>
<path style="clip-path:url(#SVGID_8_);stroke:#FCFCFC;stroke-miterlimit:10;" d="M165.15,241.83c0,0,0.24-0.4,1.13-0.4    c0.89,0,1.55,0.62,1.29,0.89c-0.26,0.26-0.93,1.81-0.93,1.81S165.15,242.23,165.15,241.83z" />
<use xlink:href="#SVGID_581_" />
</g>
<path d="M147.45,227.4c0,0-3.65,2.35-3.65,9.73c0,0,0.19,1.01,0.36,1.02c0.31,0.02,0.77-1.12,1.53-2.56   c1.17-2.22,0.84-5.43,1.51-6.69C147.87,227.66,147.45,227.4,147.45,227.4z" />
<path d="M150.3,229.25c0,0-3.69,1.34-4.91,4.15c-1.22,2.81-1.2,4.72-1.55,5.08c-0.36,0.36-0.21,4.57-0.21,5.33   s4.4-3.4,4.4-3.57s-0.88-3.78-0.67-5.83c0.21-2.06,2.47-3.69,2.94-4.15C150.76,229.8,150.3,229.25,150.3,229.25z" />
<path d="M145.43,241.67c0,0-1.36,0.06-2.18,0.88c-0.82,0.82-0.92,3.94-0.92,3.94s0.01,6.45-0.6,8.28   c-0.61,1.83-0.88,3.48-1.79,4.39c-0.9,0.9-1.14,3.3-1.14,3.92s0,0.61,0,0.61l3.99-0.92c0,0,2.64-4.87,3.57-6.54   c0.92-1.68,1.13-6.46,0.46-10.11C146.15,242.46,145.43,241.67,145.43,241.67z" />
<path d="M148.81,234.72c-1.8,2.94-3.38,6.95-3.38,6.95c-0.38,1.93-0.17,3.94,0.38,7.05s1.05,3.1,0.8,4.91   c-0.25,1.8-1.38,4.45,0.08,5.24c1.47,0.8,6.8-4.28,6.5-11.49c-0.29-7.21-3.65-13.87-3.65-13.87L148.81,234.72z" />
<path d="M130.75,271.15c0,0-0.63-3.02-0.63-4.45c0-1.43,0-1.43,0-1.43s-1.09-1.17-1.09-1.97   c0-0.8,0.25-2.68,0.42-3.57c0.17-0.88,0.38-3.9,1.01-3.9c0.63,0,1.59,1.68,1.59,1.68s1.47-0.71,2.94-0.92   c1.47-0.21,2.85-1.13,4.07-4.07c1.22-2.94,3.27-6.04,3.27-6.04s0.08,1.55,0.08,3.06c0,1.51-1.38,9.82-1.76,10.19   c-0.38,0.38-3.65,6.8-3.65,6.8L130.75,271.15z" />
<path d="M169.85,229.13c0,0,0.37-6.82,2.22-7.91c1.85-1.09,3.22-0.48,5.72-0.48c2.5,0,5.87,0.21,6.32,1.37   c0.45,1.16,0.6,3.5,1.77,4.67c1.17,1.17,2.13,2.46,2.13,3.9c0,1.45,0,2.82,0,2.82s-0.16-3.18-5.11-3.18   c-4.95,0-10.58-0.29-10.58-0.29L169.85,229.13z" />
<path d="M168.62,240.14c0,0,0.74-2.41-0.16-4.27c-0.9-1.85-2.17-3.5-1.37-4.31c0.8-0.81,0.85-2.17,1.49-2.42   s1.65-0.64,1.65-0.64s6.87,1.35,11.15,1.8c4.28,0.45,6.6,2.34,7.12,4.07c0.52,1.73,0.81,5.27,0.44,6.48   c-0.36,1.21-0.48,3.54-0.48,6.52c0,2.98-0.93,3.74-0.93,3.74s-6.88-0.76-8.77-2.25s-7-3.3-7.97-4.75   C169.82,242.68,168.62,240.14,168.62,240.14z" />
<path d="M175.57,237.03c1.72-0.59,8.16-3.17,9.93-1.88c1.77,1.29,3.11,2.58,0.16,3.92   c-2.95,1.34-3.43,2.42-3.43,2.42s-5.42-0.43-6.6-0.43c-1.18,0-3.84-0.78-4.62-1.56c-0.78-0.78-0.91-0.75,0.11-1.13   C172.13,237.99,173.85,237.62,175.57,237.03z" />
<path d="M130.14,271.08c0,0,6.04-5.97,6.79-6.71c0.75-0.75,6.93-1.42,8.72-1.42s3.65,0.37,7.76,1.42   c4.1,1.04,10.22,2.83,10.22,2.83l-1.94,1.64c0,0-5.74,0.52-13.42,1.34S130.14,271.08,130.14,271.08z" />
<path d="M162.55,268.1c0,0-0.35,5.21-0.35,7.74c0,2.54-1.19,6.04-1.19,6.04s-3.06,0.82-5.15,0.82   c-2.09,0-11.11-0.67-16.7-3.5c-5.59-2.83-8.72-5.74-8.72-6.49c0-0.75-0.3-1.64-0.3-1.64s10.96-3.28,14.02-3.28   C147.22,267.79,162.55,268.1,162.55,268.1z" />
<path d="M161.61,267.05c0,0,12.38-0.6,14.99-0.6c2.61,0,14.02,2.54,17,4.18c2.98,1.64,4.92,3.21,4.92,3.21   s4.77,0.97,8.58,3.95c3.8,2.98,7.87,3.99,8.43,4.55c0.56,0.56,1.34,2.01,1.34,2.01s-1.19,1.19-9.92,1.19   c-8.72,0-35.72-1.57-37.66-1.57c-1.94,0-8.28-2.09-8.28-2.09l-1.94-8.13L161.61,267.05z" />
<path d="M201.58,275.92c0,0,5.85-4.41,12.45-3.81c6.61,0.59,13.81,8.47,13.81,8.47s-1.36,2.97-3.73,3.9   c-2.37,0.93-12.71-0.25-12.71-0.25L201.58,275.92z" />
<path d="M115.08,278.98c0,0,6.04-2.24,6.49-2.24s6.34,0.75,8.72,0.75c2.39,0,11.11,1.64,11.11,1.04   s-7.01-5.29-8.72-6.49c-1.71-1.19-1.42-1.94-5.44-1.94C123.21,270.11,117.17,276.15,115.08,278.98z" />
<path d="M116.17,277.63l4.28,3.66c0,0,5.59,0.37,7.01,0.67c1.42,0.3,5.29,0.15,9.02-0.3   c3.73-0.45,7.05-0.71,7.83-1.49c0.78-0.78-1.27-2.09-1.27-2.09l-18.94-3.49L116.17,277.63z" />
<path d="M140.28,280.62l-1.56,5.44c0,0,8.57-1.64,11.18,0.97c2.61,2.61,3.73,3.8,3.73,3.8l6.86-3.58   c0,0,2.68-4.4,5.37-4.4c2.68,0-9.84-2.16-9.84-2.16L140.28,280.62z" />
<path d="M158.25,287.18c0,0,3.06,2.98,6.93,2.98c3.88,0,6.49-0.45,9.4,0.15c2.91,0.6,5.59-1.72,5.59-2.09   s-1.12-4.47-5.89-5c-4.77-0.52-8.28-2.61-12.75,0.22C157.06,286.29,158.25,287.18,158.25,287.18z" />
<path d="M174.73,284.87c0,0,4.25-2.24,5.44-2.61c1.19-0.37,8.65-1.42,8.65-0.52s-0.11,4.88-0.67,5.44   c-0.56,0.56-4.7,1.04-6.34,1.04C180.17,288.23,174.73,284.87,174.73,284.87z" />
<path d="M188.15,280.62c0,0,4.77-0.37,6.19-0.37s11.33,2.83,12.15,2.83c0.82,0,6.01,1.73,6.48,2.2   c0.47,0.47-0.52,2.95-0.52,2.95s-6.26,0.75-8.87,0.75c-2.61,0-2.16,0.52-7.46,0.15c-5.29-0.37-7.9-1.19-7.9-1.19l-1.12-4.7   L188.15,280.62z" />
<path d="M180.33,164.76c0,0-0.64,0.85-0.11,1.51l-1.91-0.6C178.31,165.67,179.91,164.76,180.33,164.76z" />
<path d="M174.12,174.34c0,0-0.78-0.59-1.77-0.08c-0.99,0.51-1.26,1.8-1.26,1.8s0.78,0.56,1.88-0.3   C174.06,174.91,174.12,174.34,174.12,174.34z" />
<path d="M171.57,176.54c0,0-0.84,0.38-1.07,1.53c-0.1,0.49,0.19,1.15,0.19,1.15s1.74-0.32,2.12-1.31   c0.38-0.99,0.24-1.53,0.24-1.53S172.4,176.06,171.57,176.54z" />
<path d="M169.63,181.03c0,0-0.69,0.61-0.57,1.78c0.05,0.5,0.52,1.05,0.52,1.05s1.57-0.83,1.63-1.89   c0.06-1.06-0.23-1.53-0.23-1.53S170.28,180.32,169.63,181.03z" />
<path d="M172.73,178.88c0,0-0.91-0.69-2.06-0.09c-1.16,0.59-1.47,2.09-1.47,2.09s0.91,0.66,2.19-0.34   C172.67,179.54,172.73,178.88,172.73,178.88z" />
<path d="M154.1,243.2c0,0,4.78,4.3,7.92,1.46c3.14-2.83,4.51-13.89,1.46-15.47   C160.43,227.61,152.39,236.81,154.1,243.2z" />
<path d="M150.09,263.52c0,0-5.2-0.31-5.69-0.8c1.03-1.72,2.29-3.19,2.29-3.19s0.5-1.8,2.01-4.03   c1.51-2.22,2.43-4.07,2.64-5.24c0.21-1.17,0.76-4.32,0.38-6.21c-0.38-1.89-1.8-2.95-1.8-6.81c0-2.8-0.63-3.34-0.63-3.34   c1.8-2.94,2.39-4.24,2.89-5.83c0.5-1.59,2.81-3.94,5.37-4.28s4.95-1.22,5.91-0.25c0.96,0.96,2.54,1.12,3.24,2.91   c0.7,1.79,0.83,2.12,0.83,4.6c0,2.47,0.04,4.32,0.04,5.96c0,1.64,0.67,6.71,0.67,7.05c0,0.34-3.48,4.4-3.48,4.4   s0.92-2.94-0.13-4.57c-1.05-1.64-2.43-1.13-2.43-3.19c0-2.06-0.13-7.76-0.13-7.76s-1.41,0.36-2.31-0.55c0,0-1.22,1.43-2.06,4.53   c-0.84,3.1-1.34,4.11-1.34,7.42c0,3.31,0.76,3.06-0.04,4.32c-0.8,1.26-2.81,5.62-3.44,7.51c-0.63,1.89-1.59,5.12-2.14,5.12   s-0.55,0-0.55,0L150.09,263.52" />
<path d="M199.9,256.1c0.45,0,0.61,0.09,0.73,0.57c0.13,0.49,0.05,0.71,0.05,0.71s0.65,0.24,0.56,0.64   c-0.09,0.4,0.01,1.05,0.01,1.05l-3.22-1.16L199.9,256.1z" />
<g>
<defs>
<path id="SVGID_583_" d="M150.54,264.49c0,0-0.3-3.56,0.28-4.15c0.58-0.58,3.3-2.29,4.07-3.46c0.76-1.17,1.93-3.7,2.94-3.7     s4.39-0.08,5.64-2.74s1.48-4.3,2.78-5.59c1.3-1.3,3.66-3.14,6.48-3.14c2.82,0,6.36,3.18,8.09,5.84c1.73,2.66,2.78,3.9,4.27,4.79     c1.49,0.89,2.7,2.42,3.86,3.58c1.17,1.17,4.63,1.69,4.91,1.69s5.44,0.12,6.08,0.28c0.63,0.16,2.25,1.69,2.25,2.82     c0,1.13-1.37,3.26-2.33,3.74c-0.97,0.48-4.75,0.89-6.16,0.89s-4.63-0.2-5.35-0.2s-8.57-0.44-10.38-2.25     c-1.81-1.81-2.74-2.17-3.86-3.98c-1.13-1.81-2.13-2.58-3.42-2.78c-1.29-0.2-3.42-0.64-4.07-0.64c-0.64,0-5.23,1.65-6.4,1.97     c-1.17,0.32-2.98,1.49-3.86,3.3c-0.89,1.81-1.09,3.46-2.37,3.98C152.68,265.26,150.54,264.49,150.54,264.49z" />
</defs>
<use style="overflow:visible;" xlink:href="#SVGID_583_" />
<clipPath id="SVGID_9_">
<use style="overflow:visible;" xlink:href="#SVGID_583_" />
</clipPath>
<path style="clip-path:url(#SVGID_9_);stroke:#FCFCFC;stroke-miterlimit:10;" d="M166.85,256.8c0,0,3.38-2.66,5.11-4.39    c1.73-1.73,2.78-1.25,2.78-1.25s-0.93,0.93-0.52,3.9s2.9,5.47,4.19,5.92c1.29,0.44,6.32,2.58,6.12,4.03    c-0.2,1.45-9.66,1.33-13.16-1.13C167.85,261.43,166.85,256.8,166.85,256.8z" />
<path style="clip-path:url(#SVGID_9_);stroke:#FCFCFC;stroke-miterlimit:10;" d="M185.57,259.72c0,0,3.85,4.12,6.5,4.12    c2.66,0,9.25-0.55,10.44-1.74c0,0-0.64,4.94-9.06,4.3C185.02,265.76,185.57,259.72,185.57,259.72z" />
<use xlink:href="#SVGID_583_" />
</g>
<path d="M166.24,248.55c0,0,0.85,2.86-1.57,3.82c-2.42,0.97-3.74,1.45-4.31,2.42c-0.56,0.97-0.24,2.21,0.12,3.98   c0.36,1.77,0.16,2.86,0.16,4.79c0,1.93-0.04,3.3-0.04,3.3s0.6,0.6,2.17,0.6s2.5,0.32,2.5-0.2c0-0.52-0.6-4.43-0.6-6.96   s1.21-3.47,3.66-4.16c2.46-0.68,4.65-3.16,4.43-4.7C172.21,247.48,168.74,248.03,166.24,248.55z" />
<g>
<defs>
<path id="SVGID_585_" d="M200.41,256.24c0,0-1.69-1.17-3.62-0.8c-1.93,0.36-3.14,1.53-3.9,2.9c-0.76,1.37-0.48,1.65-0.48,1.65     s1.01,0.64,2.98,0.36c1.97-0.28,3.26-1.13,3.78-2.21C199.69,257.05,200.41,256.24,200.41,256.24z" />
</defs>
<use style="overflow:visible;" xlink:href="#SVGID_585_" />
<clipPath id="SVGID_10_">
<use style="overflow:visible;" xlink:href="#SVGID_585_" />
</clipPath>
<path style="clip-path:url(#SVGID_10_);stroke:#FCFCFC;stroke-miterlimit:10;" d="M199.85,257.53c0,0-1.37-1.64-2.82-1.23    c-1.45,0.4-2.15,0.78-3.16,1.7c-1.4,1.28-1.02,1.77-1.02,1.77s0.75,1.83,3.16,0.98C198.44,259.9,199.57,259.42,199.85,257.53z" />
<use xlink:href="#SVGID_585_" />
</g>
<path d="M179.44,171.06c0,0-0.44-0.09-0.98,1.46s-0.86,2.82-1.58,3.54c0,0,1.1-1.21,2.9-1.88   c1.8-0.67,3.54-1.74,3.76-2.33c0,0-0.67-0.46-1.26,0.13c-0.59,0.59-2.07,1.45-2.84,1.64s-1.07,0.19-1.07,0.19s2.51-1.17,3.11-1.77   c0.6-0.6,0.97-1.15-0.54-0.38c-1.5,0.78-2.07,0.75-2.07,0.75s0.62-1.18,2.82-1.61C181.68,170.8,180.58,170.32,179.44,171.06z" />
<g>
<defs>
<path id="SVGID_587_" d="M182.5,254.55c0,0,0.42,2.19-0.4,3.02c-0.83,0.83-1.89,1.21-2.17,2.74c-0.28,1.53,0.56,2.13,0.56,2.13     s-1.83,0.62-2.78,1.57c-0.95,0.95-0.96,1.66-0.96,1.66s2.33,0.92,4.06,0.92c1.73,0,5.15,0.72,6.84,1.21     c1.69,0.48,3.22,0.44,3.22,0.44s1.03-1.95-0.93-3.9c-1.95-1.95-4.07-3.26-4.07-3.26s2.29-0.44,2.29-2.42     S182.5,254.55,182.5,254.55z" />
</defs>
<use style="overflow:visible;" xlink:href="#SVGID_587_" />
<clipPath id="SVGID_11_">
<use style="overflow:visible;" xlink:href="#SVGID_587_" />
</clipPath>
<path style="clip-path:url(#SVGID_11_);stroke:#FCFCFC;stroke-miterlimit:10;" d="M180.27,259.35c0,0-0.76,1.97,1.77,2.89    c2.53,0.93,5.03,1.96,4.63,2.36c-0.4,0.4-2.58-0.19-4.38-1.18s-3.71-1.35-3.71-1.35L180.27,259.35z" />
<use xlink:href="#SVGID_587_" />
</g>
<path d="M181.71,166.96c0,0,0.62-0.67,0.62-1.34c0-0.67-1.56-1.58-1.56-1.58s0.81,0.83,0.81,1.23   C181.58,166.49,181.71,166.43,181.71,166.96z" />
<path d="M181.68,170.8c0,0-2.31-0.51-2.94,1.11c-0.63,1.62-1.03,3.31-1.86,4.14c-0.83,0.83-1.46,0.7-1.46,0.7   s1.37-1.71,2.07-3.56C178.2,171.35,178.69,169.81,181.68,170.8z" />
<path d="M177.47,187.9c0,0-2.5,2.54-3.34,5.94c-1.03,4.21-5.44,3.23-6.3,6.67c0,0,0.27-1.75,2.85-3.3   c2.58-1.56,2.55-1.9,3.49-4.88C175.11,189.34,177.47,187.9,177.47,187.9z" />
<path d="M164.63,216.44c0,0,3.34-1.09,5.27-3.02c1.93-1.93,3.87-6.54,3.87-6.54s-2.46,4.85-4.51,5.66   C167.21,213.33,165.45,212.94,164.63,216.44z" />
<path d="M213,242.1l-2.12,0.16c0,0,0.19,0.25,0.59,0.65c0.4,0.4,1.74-0.62,1.74-0.62L213,242.1z" />
<path d="M206.79,244.07c0,0-1.91,1.23-1.91,2.68c0,2.8,0.85,3.74-0.76,4.39c0,0,1.7-0.29,1.91-2.25   c0.21-1.96-0.06-2.17,1.22-2.86c1.27-0.69,2.14-0.68,1.86-2.5C209.11,243.52,208.51,242.89,206.79,244.07z" />
</g>
</svg>
</svg>