<?xml version="1.0" encoding="UTF-8"?>
<svg xmlns="http://www.w3.org/2000/svg" xmlns:xlink="http://www.w3.org/1999/xlink"
     width="27" height="111" viewBox="0 0 27 111">
<defs>
</defs>
<svg x="-122" y="-157">
<clipPath id="clip广州-11">
<path d="M 139 157 L 136 160 L 136 161 L 134 163 L 134 164 L 133 165 L 133 166 L 131 168 L 131 170 L 130 171 L 130 172 L 129 173 L 129 175 L 128 176 L 128 178 L 127 179 L 127 181 L 126 182 L 126 185 L 125 186 L 125 189 L 124 190 L 124 195 L 123 196 L 123 204 L 122 205 L 122 267 L 148 267 L 148 158 L 140 158 z" />
</clipPath>
<g clip-path="url(#clip广州-11)">
<g>
<path d="M139.32,267.42h-16.42c0,0,0-3.89,0-48.53s16.42-60.27,16.42-60.27V267.42z" />
<rect x="139.32" y="158.61" transform="matrix(-1 -1.224647e-16 1.224647e-16 -1 287.5653 426.0286)" width="8.92" height="108.8" />
</g>
<g>
<line x1="124.36" y1="219.44" x2="124.36" y2="266.98" />
<line x1="125.89" y1="201.33" x2="125.89" y2="266.98" />
<line x1="127.42" y1="192.35" x2="127.42" y2="266.98" />
<line x1="128.95" y1="186.54" x2="128.95" y2="266.98" />
<line x1="130.48" y1="180.46" x2="130.48" y2="266.98" />
<line x1="132.01" y1="176.04" x2="132.01" y2="266.98" />
<line x1="133.54" y1="171.62" x2="133.54" y2="266.98" />
<line x1="135.07" y1="167.61" x2="135.07" y2="266.98" />
<line x1="136.6" y1="164.98" x2="136.6" y2="266.98" />
<line x1="138.13" y1="162.63" x2="138.13" y2="266.98" />
</g>
<g>
<line x1="139.92" y1="158.57" x2="139.93" y2="266.94" />
<line x1="140.76" y1="158.57" x2="140.77" y2="266.94" />
<line x1="141.59" y1="158.57" x2="141.6" y2="266.94" />
<line x1="142.43" y1="158.57" x2="142.44" y2="266.94" />
<line x1="143.26" y1="158.57" x2="143.27" y2="266.94" />
<line x1="144.1" y1="158.57" x2="144.11" y2="266.94" />
<line x1="144.93" y1="158.57" x2="144.94" y2="266.94" />
<line x1="145.77" y1="158.57" x2="145.78" y2="266.94" />
<line x1="146.6" y1="158.57" x2="146.61" y2="266.93" />
<line x1="147.44" y1="158.57" x2="147.45" y2="266.93" />
</g>
</g>
</svg>
</svg>