<?xml version="1.0" encoding="UTF-8"?>
<svg xmlns="http://www.w3.org/2000/svg" xmlns:xlink="http://www.w3.org/1999/xlink"
     width="41" height="114" viewBox="0 0 41 114">
<defs>
</defs>
<svg x="-161" y="-201">
<clipPath id="clip广州-10">
<path d="M 181 201 L 180 202 L 179 202 L 176 205 L 175 205 L 173 207 L 172 207 L 169 210 L 168 210 L 167 211 L 167 216 L 166 217 L 162 217 L 162 223 L 161 224 L 161 314 L 201 314 L 201 224 L 200 223 L 200 217 L 196 217 L 195 216 L 195 211 L 194 210 L 193 210 L 190 207 L 189 207 L 187 205 L 186 205 L 183 202 L 182 202 z" />
</clipPath>
<g clip-path="url(#clip广州-10)">
<g>
<rect x="103.78" y="131" width="41.22" height="183.15" />
<rect x="106.25" y="148.03" width="36.28" height="149.09" />
<rect x="102.93" y="217.33" width="42.93" height="62.7" />
<rect x="110.36" y="154.45" width="28.06" height="136.25" />
<rect x="102.16" y="280.02" width="44.45" height="34.13" />
<g>
<defs>
<polygon id="SVGID_426_" points="145.85,280.02 145.85,217.33 145,217.33 145,131 103.78,131 103.78,217.33 102.93,217.33       102.93,280.02 102.16,280.02 102.16,314.15 103.78,314.15 145,314.15 146.61,314.15 146.61,280.02     " />
</defs>
<use xlink:href="#SVGID_426_" />
<clipPath id="SVGID_1_">
<use style="overflow:visible;" xlink:href="#SVGID_426_" />
</clipPath>
<g style="clip-path:url(#SVGID_1_);">
<line x1="146.97" y1="133.97" x2="101.8" y2="133.97" />
<line x1="146.97" y1="137.44" x2="101.8" y2="137.44" />
<line x1="146.97" y1="140.92" x2="101.8" y2="140.92" />
<line x1="146.97" y1="144.39" x2="101.8" y2="144.39" />
<line x1="146.97" y1="147.87" x2="101.8" y2="147.87" />
<line x1="146.97" y1="151.34" x2="101.8" y2="151.34" />
<line x1="146.97" y1="154.82" x2="101.8" y2="154.82" />
<line x1="146.97" y1="158.29" x2="101.8" y2="158.29" />
<line x1="146.97" y1="161.77" x2="101.8" y2="161.77" />
<line x1="146.97" y1="165.24" x2="101.8" y2="165.24" />
<line x1="146.97" y1="168.72" x2="101.8" y2="168.72" />
<line x1="146.97" y1="172.19" x2="101.8" y2="172.19" />
<line x1="146.97" y1="175.67" x2="101.8" y2="175.67" />
<line x1="146.97" y1="179.14" x2="101.8" y2="179.14" />
<line x1="146.97" y1="182.62" x2="101.8" y2="182.62" />
<line x1="146.97" y1="186.09" x2="101.8" y2="186.09" />
<line x1="146.97" y1="189.57" x2="101.8" y2="189.57" />
<line x1="146.97" y1="193.04" x2="101.8" y2="193.04" />
<line x1="146.97" y1="196.52" x2="101.8" y2="196.52" />
<line x1="146.97" y1="199.99" x2="101.8" y2="199.99" />
<line x1="146.97" y1="203.47" x2="101.8" y2="203.47" />
<line x1="146.97" y1="206.94" x2="101.8" y2="206.94" />
<line x1="146.97" y1="210.42" x2="101.8" y2="210.42" />
<line x1="146.97" y1="213.89" x2="101.8" y2="213.89" />
<line x1="146.97" y1="217.37" x2="101.8" y2="217.37" />
<line x1="146.97" y1="220.84" x2="101.8" y2="220.84" />
<line x1="146.97" y1="224.32" x2="101.8" y2="224.32" />
<line x1="146.97" y1="227.79" x2="101.8" y2="227.79" />
<line x1="146.97" y1="231.27" x2="101.8" y2="231.27" />
<line x1="146.97" y1="234.74" x2="101.8" y2="234.74" />
<line x1="146.97" y1="238.22" x2="101.8" y2="238.22" />
<line x1="146.97" y1="241.69" x2="101.8" y2="241.69" />
<line x1="146.97" y1="245.17" x2="101.8" y2="245.17" />
<line x1="146.97" y1="248.64" x2="101.8" y2="248.64" />
<line x1="146.97" y1="252.12" x2="101.8" y2="252.12" />
<line x1="146.97" y1="255.59" x2="101.8" y2="255.59" />
<line x1="146.97" y1="259.07" x2="101.8" y2="259.07" />
<line x1="146.97" y1="262.54" x2="101.8" y2="262.54" />
<line x1="146.97" y1="266.02" x2="101.8" y2="266.02" />
<line x1="146.97" y1="269.49" x2="101.8" y2="269.49" />
<line x1="146.97" y1="272.97" x2="101.8" y2="272.97" />
<line x1="146.97" y1="276.44" x2="101.8" y2="276.44" />
<line x1="146.97" y1="279.92" x2="101.8" y2="279.92" />
<line x1="146.97" y1="283.39" x2="101.8" y2="283.39" />
<line x1="146.97" y1="286.87" x2="101.8" y2="286.87" />
<line x1="146.97" y1="290.34" x2="101.8" y2="290.34" />
<line x1="146.97" y1="293.82" x2="101.8" y2="293.82" />
<line x1="146.97" y1="297.29" x2="101.8" y2="297.29" />
<line x1="146.97" y1="300.77" x2="101.8" y2="300.77" />
<line x1="146.97" y1="304.24" x2="101.8" y2="304.24" />
<line x1="146.97" y1="307.72" x2="101.8" y2="307.72" />
<line x1="146.97" y1="311.19" x2="101.8" y2="311.19" />
</g>
<g style="clip-path:url(#SVGID_1_);">
<line x1="142.53" y1="314.15" x2="142.53" y2="131" />
<line x1="138.5" y1="314.15" x2="138.5" y2="131" />
<line x1="134.47" y1="314.15" x2="134.47" y2="131" />
<line x1="130.44" y1="314.15" x2="130.44" y2="131" />
<line x1="126.41" y1="314.15" x2="126.41" y2="131" />
<line x1="122.37" y1="314.15" x2="122.37" y2="131" />
<line x1="118.34" y1="314.15" x2="118.34" y2="131" />
<line x1="114.31" y1="314.15" x2="114.31" y2="131" />
<line x1="110.28" y1="314.15" x2="110.28" y2="131" />
<line x1="106.25" y1="314.15" x2="106.25" y2="131" />
</g>
<use xlink:href="#SVGID_426_" />
</g>
<g>
<defs>
<polygon id="SVGID_428_" points="124.39,113.76 109.74,124.2 109.74,131 139.04,131 139.04,124.2     " />
</defs>
<use xlink:href="#SVGID_428_" />
<clipPath id="SVGID_3_">
<use style="overflow:visible;" xlink:href="#SVGID_428_" />
</clipPath>
<rect x="109.74" y="124.2" width="29.3" height="6.8" />
<polygon points="     139.04,124.2 109.74,124.2 124.39,113.76    " />
<g style="clip-path:url(#SVGID_3_);">
<line x1="114.73" y1="131" x2="114.73" y2="116.64" />
<line x1="119.56" y1="131" x2="119.56" y2="116.64" />
<line x1="124.39" y1="131" x2="124.39" y2="111.81" />
<line x1="129.22" y1="131" x2="129.22" y2="116.64" />
<line x1="134.05" y1="131" x2="134.05" y2="116.64" />
</g>
<use xlink:href="#SVGID_428_" />
</g>
</g>
<g>
<rect x="162.61" y="218.2" width="37.79" height="95.96" />
<rect x="161.82" y="225.37" width="39.36" height="88.78" />
<g>
<defs>
<polygon id="SVGID_430_" points="201.18,282.86 201.18,225.37 200.4,225.37 200.4,218.2 162.61,218.2 162.61,225.37       161.82,225.37 161.82,282.86 161.82,314.15 201.18,314.15     " />
</defs>
<use xlink:href="#SVGID_430_" />
<clipPath id="SVGID_4_">
<use style="overflow:visible;" xlink:href="#SVGID_430_" />
</clipPath>
<g style="clip-path:url(#SVGID_4_);">
<line x1="202.21" y1="148.94" x2="160.8" y2="148.94" />
<line x1="202.21" y1="152.13" x2="160.8" y2="152.13" />
<line x1="202.21" y1="155.31" x2="160.8" y2="155.31" />
<line x1="202.21" y1="158.5" x2="160.8" y2="158.5" />
<line x1="202.21" y1="161.69" x2="160.8" y2="161.69" />
<line x1="202.21" y1="164.87" x2="160.8" y2="164.87" />
<line x1="202.21" y1="168.06" x2="160.8" y2="168.06" />
<line x1="202.21" y1="171.25" x2="160.8" y2="171.25" />
<line x1="202.21" y1="174.43" x2="160.8" y2="174.43" />
<line x1="202.21" y1="177.62" x2="160.8" y2="177.62" />
<line x1="202.21" y1="180.8" x2="160.8" y2="180.8" />
<line x1="202.21" y1="183.99" x2="160.8" y2="183.99" />
<line x1="202.21" y1="187.18" x2="160.8" y2="187.18" />
<line x1="202.21" y1="190.36" x2="160.8" y2="190.36" />
<line x1="202.21" y1="193.55" x2="160.8" y2="193.55" />
<line x1="202.21" y1="196.74" x2="160.8" y2="196.74" />
<line x1="202.21" y1="199.92" x2="160.8" y2="199.92" />
<line x1="202.21" y1="203.11" x2="160.8" y2="203.11" />
<line x1="202.21" y1="206.29" x2="160.8" y2="206.29" />
<line x1="202.21" y1="209.48" x2="160.8" y2="209.48" />
<line x1="202.21" y1="212.67" x2="160.8" y2="212.67" />
<line x1="202.21" y1="215.85" x2="160.8" y2="215.85" />
<line x1="202.21" y1="219.04" x2="160.8" y2="219.04" />
<line x1="202.21" y1="222.22" x2="160.8" y2="222.22" />
<line x1="202.21" y1="225.41" x2="160.8" y2="225.41" />
<line x1="202.21" y1="228.6" x2="160.8" y2="228.6" />
<line x1="202.21" y1="231.78" x2="160.8" y2="231.78" />
<line x1="202.21" y1="234.97" x2="160.8" y2="234.97" />
<line x1="202.21" y1="238.16" x2="160.8" y2="238.16" />
<line x1="202.21" y1="241.34" x2="160.8" y2="241.34" />
<line x1="202.21" y1="244.53" x2="160.8" y2="244.53" />
<line x1="202.21" y1="247.71" x2="160.8" y2="247.71" />
<line x1="202.21" y1="250.9" x2="160.8" y2="250.9" />
<line x1="202.21" y1="254.09" x2="160.8" y2="254.09" />
<line x1="202.21" y1="257.27" x2="160.8" y2="257.27" />
<line x1="202.21" y1="260.46" x2="160.8" y2="260.46" />
<line x1="202.21" y1="263.65" x2="160.8" y2="263.65" />
<line x1="202.21" y1="266.83" x2="160.8" y2="266.83" />
<line x1="202.21" y1="270.02" x2="160.8" y2="270.02" />
<line x1="202.21" y1="273.2" x2="160.8" y2="273.2" />
<line x1="202.21" y1="276.39" x2="160.8" y2="276.39" />
<line x1="202.21" y1="279.58" x2="160.8" y2="279.58" />
<line x1="202.21" y1="282.76" x2="160.8" y2="282.76" />
<line x1="202.21" y1="285.95" x2="160.8" y2="285.95" />
<line x1="202.21" y1="289.13" x2="160.8" y2="289.13" />
<line x1="202.21" y1="292.32" x2="160.8" y2="292.32" />
<line x1="202.21" y1="295.51" x2="160.8" y2="295.51" />
<line x1="202.21" y1="298.69" x2="160.8" y2="298.69" />
<line x1="202.21" y1="301.88" x2="160.8" y2="301.88" />
<line x1="202.21" y1="305.07" x2="160.8" y2="305.07" />
<line x1="202.21" y1="308.25" x2="160.8" y2="308.25" />
<line x1="202.21" y1="311.44" x2="160.8" y2="311.44" />
</g>
<g style="clip-path:url(#SVGID_4_);">
<line x1="198.14" y1="314.15" x2="198.14" y2="218.2" />
<line x1="194.44" y1="314.15" x2="194.44" y2="218.2" />
<line x1="190.75" y1="314.15" x2="190.75" y2="218.2" />
<line x1="187.05" y1="314.15" x2="187.05" y2="218.2" />
<line x1="183.35" y1="314.15" x2="183.35" y2="218.2" />
<line x1="179.66" y1="314.15" x2="179.66" y2="218.2" />
<line x1="175.96" y1="314.15" x2="175.96" y2="218.2" />
<line x1="172.26" y1="314.15" x2="172.26" y2="218.2" />
<line x1="168.57" y1="314.15" x2="168.57" y2="218.2" />
<line x1="164.87" y1="314.15" x2="164.87" y2="218.2" />
</g>
<use xlink:href="#SVGID_430_" />
</g>
<g>
<defs>
<polygon id="SVGID_432_" points="181.5,202.39 168.07,211.96 168.07,218.2 194.94,218.2 194.94,211.96     " />
</defs>
<use xlink:href="#SVGID_432_" />
<clipPath id="SVGID_5_">
<use style="overflow:visible;" xlink:href="#SVGID_432_" />
</clipPath>
<rect x="168.07" y="211.96" width="26.87" height="6.23" />
<polygon points="     194.94,211.96 168.07,211.96 181.5,202.39    " />
<g style="clip-path:url(#SVGID_5_);">
<line x1="172.64" y1="218.2" x2="172.64" y2="205.03" />
<line x1="177.07" y1="218.2" x2="177.07" y2="205.03" />
<line x1="181.5" y1="218.2" x2="181.5" y2="200.6" />
<line x1="185.93" y1="218.2" x2="185.93" y2="205.03" />
<line x1="190.37" y1="218.2" x2="190.37" y2="205.03" />
</g>
<use xlink:href="#SVGID_432_" />
</g>
</g>
</g>
</svg>
</svg>