<?xml version="1.0" encoding="UTF-8"?>
<svg xmlns="http://www.w3.org/2000/svg" xmlns:xlink="http://www.w3.org/1999/xlink"
     width="146" height="166" viewBox="0 0 146 166">
<defs>
</defs>
<svg x="-79" y="-164">
<clipPath id="clip广州-08">
<path d="M 151 164 L 150 165 L 148 165 L 147 166 L 146 166 L 145 167 L 144 167 L 142 169 L 141 169 L 136 174 L 136 175 L 134 177 L 134 178 L 132 180 L 132 181 L 130 183 L 130 184 L 129 185 L 129 186 L 128 187 L 128 188 L 127 189 L 127 190 L 126 191 L 126 193 L 125 194 L 125 195 L 124 196 L 124 198 L 123 199 L 123 200 L 122 201 L 122 203 L 121 204 L 121 206 L 120 207 L 120 210 L 119 211 L 119 214 L 118 215 L 118 217 L 117 218 L 117 222 L 116 223 L 116 227 L 115 228 L 115 234 L 114 235 L 114 241 L 113 242 L 113 254 L 112 255 L 112 268 L 111 269 L 111 270 L 110 271 L 110 272 L 109 273 L 109 274 L 107 276 L 107 277 L 106 278 L 106 279 L 105 280 L 105 281 L 104 282 L 104 283 L 103 284 L 103 285 L 102 286 L 102 287 L 100 289 L 100 290 L 99 291 L 99 292 L 98 293 L 98 294 L 97 295 L 97 296 L 96 297 L 96 298 L 94 300 L 94 301 L 93 302 L 93 303 L 92 304 L 92 305 L 91 306 L 91 307 L 90 308 L 90 309 L 89 310 L 89 311 L 87 313 L 87 314 L 86 315 L 86 316 L 85 317 L 85 318 L 84 319 L 84 320 L 83 321 L 83 322 L 82 323 L 82 324 L 80 326 L 80 327 L 79 328 L 79 329 L 80 329 L 83 326 L 83 325 L 89 319 L 89 318 L 93 314 L 93 313 L 97 309 L 97 308 L 100 305 L 100 304 L 103 301 L 103 300 L 106 297 L 106 296 L 108 294 L 108 293 L 110 291 L 110 290 L 112 288 L 113 289 L 113 297 L 114 298 L 114 309 L 115 310 L 115 319 L 116 320 L 116 326 L 117 327 L 117 329 L 133 329 L 133 320 L 132 319 L 132 308 L 133 307 L 133 306 L 134 305 L 134 303 L 135 302 L 135 301 L 136 300 L 136 298 L 137 297 L 137 296 L 138 295 L 138 293 L 139 292 L 139 290 L 140 289 L 140 287 L 141 286 L 141 285 L 142 284 L 142 282 L 143 281 L 143 279 L 144 278 L 144 276 L 145 275 L 145 273 L 146 272 L 146 269 L 147 268 L 147 266 L 148 265 L 148 262 L 149 261 L 149 259 L 150 258 L 150 255 L 151 254 L 151 251 L 152 250 L 152 246 L 153 245 L 153 242 L 155 240 L 156 241 L 156 244 L 157 245 L 157 248 L 158 249 L 158 251 L 159 252 L 159 255 L 160 256 L 160 258 L 161 259 L 161 261 L 162 262 L 162 264 L 163 265 L 163 266 L 164 267 L 164 269 L 165 270 L 165 272 L 166 273 L 166 274 L 167 275 L 167 277 L 168 278 L 168 279 L 169 280 L 169 282 L 170 283 L 170 284 L 171 285 L 171 286 L 172 287 L 172 289 L 173 290 L 173 291 L 174 292 L 174 293 L 175 294 L 175 296 L 176 297 L 176 298 L 177 299 L 177 300 L 178 301 L 178 302 L 179 303 L 179 304 L 180 305 L 180 306 L 181 307 L 181 310 L 180 311 L 180 324 L 179 325 L 179 329 L 193 329 L 193 327 L 192 326 L 192 323 L 193 322 L 193 314 L 194 313 L 194 302 L 195 301 L 195 293 L 196 292 L 197 293 L 197 294 L 199 296 L 199 297 L 200 298 L 200 299 L 202 301 L 202 302 L 204 304 L 204 305 L 207 308 L 207 309 L 209 311 L 209 312 L 212 315 L 212 316 L 215 319 L 215 320 L 218 323 L 218 324 L 223 329 L 224 328 L 221 325 L 221 324 L 220 323 L 220 322 L 219 321 L 219 320 L 218 319 L 218 318 L 217 317 L 217 316 L 216 315 L 216 314 L 215 313 L 215 312 L 214 311 L 214 310 L 212 308 L 212 307 L 211 306 L 211 305 L 210 304 L 210 303 L 209 302 L 209 301 L 208 300 L 208 299 L 207 298 L 207 297 L 206 296 L 206 295 L 205 294 L 205 293 L 203 291 L 203 290 L 202 289 L 202 288 L 201 287 L 201 286 L 200 285 L 200 284 L 199 283 L 199 282 L 198 281 L 198 280 L 197 279 L 197 278 L 196 277 L 196 250 L 195 249 L 195 239 L 194 238 L 194 232 L 193 231 L 193 226 L 192 225 L 192 222 L 191 221 L 191 217 L 190 216 L 190 213 L 189 212 L 189 210 L 188 209 L 188 206 L 187 205 L 187 203 L 186 202 L 186 200 L 185 199 L 185 198 L 184 197 L 184 195 L 183 194 L 183 193 L 182 192 L 182 190 L 181 189 L 181 188 L 180 187 L 180 186 L 178 184 L 178 183 L 177 182 L 177 181 L 175 179 L 175 178 L 173 176 L 173 175 L 166 168 L 165 168 L 163 166 L 162 166 L 161 165 L 158 165 L 157 164 z" />
</clipPath>
<g clip-path="url(#clip广州-08)">
<path d="M157.49,203.96c6.65,32.53,34.77,87.69,66.18,125.13" />
<path d="M150.15,203.75c1.65,15.71,4.35,55.06,43.04,125.38" />
<path d="M157.67,210.72c-22.31,0-36.82,20.11-36.82,52.57c0,16.01-1.21,44.59,1.9,65.86h10.42   c-1.23-13.66-1.91-29.16-1.91-37.03c0-44.03,11.45-74.41,26.73-74.41c5.53,0,14.09,4.45,18.42,12.05   C176.4,221.8,165.59,210.72,157.67,210.72z" />
<path d="M154.68,165.08c-22.31,0-41.42,49.38-41.42,99.92c0,16.01,1.39,42.87,4.51,64.15h9.56   c-1.41-14.33-2.2-31.57-2.2-40.03c0-41.57,13.26-74.41,28.53-74.41s28.68,33.87,28.68,74.41c0,8.46-0.78,25.7-2.2,40.03h11.45   c3.11-21.31,4.51-48.13,4.51-64.15C196.09,214.47,176.98,165.08,154.68,165.08z" />
<g>
<defs>
<path id="SVGID_591_" d="M170.85,192.34c0,4.93-3.75,7.49-16.18,7.49s-16.18-2.99-16.18-7.49c0-10.33,8.69-21.14,16.18-21.14     S170.85,182.01,170.85,192.34z" />
</defs>
<use xlink:href="#SVGID_591_" />
<clipPath id="SVGID_1_">
<use style="overflow:visible;" xlink:href="#SVGID_591_" />
</clipPath>
<path d="M160.75,201.88h-12.14    c-0.62,0-1.12-0.5-1.12-1.12v-3.93c0-0.62,0.5-1.12,1.12-1.12h12.14c0.62,0,1.12,0.5,1.12,1.12v3.93    C161.86,201.38,161.36,201.88,160.75,201.88z" />
<use xlink:href="#SVGID_591_" />
</g>
<path d="M142.17,194.32c0-10.17,6.82-21.43,15.5-21.43c2.06,0,3.65,1,4.89,1.81c-2.49-2.17-5.27-3.5-7.89-3.5   c-7.48,0-16.18,10.81-16.18,21.14c0,2.86,1.51,5.1,5.79,6.36C142.87,197.94,142.17,195.93,142.17,194.32z" />
<path d="M150.66,197.95c-6.56,36.07-27,81.96-70.98,131.19" />
<path d="M159.17,198.5c-1.18,19.21-4.83,65.58-36.42,130.66" />
</g>
</svg>
</svg>