<?xml version="1.0" encoding="UTF-8"?>
<svg xmlns="http://www.w3.org/2000/svg" xmlns:xlink="http://www.w3.org/1999/xlink"
     width="169" height="115" viewBox="0 0 169 115">
<defs>
</defs>
<svg id="0" fill="grey" stroke="black">
<path d="M 57 0 L 56 1 L 53 1 L 52 2 L 51 2 L 50 3 L 49 3 L 48 4 L 47 4 L 40 11 L 40 12 L 39 13 L 39 14 L 38 15 L 38 17 L 37 18 L 37 21 L 36 22 L 36 31 L 37 32 L 37 35 L 36 36 L 28 36 L 27 37 L 23 37 L 22 38 L 20 38 L 19 39 L 17 39 L 15 41 L 14 41 L 13 42 L 12 42 L 7 47 L 7 48 L 4 51 L 4 52 L 3 53 L 3 54 L 2 55 L 2 57 L 1 58 L 1 61 L 0 62 L 0 77 L 1 78 L 1 80 L 2 81 L 2 83 L 3 84 L 3 85 L 4 86 L 4 87 L 6 89 L 6 90 L 10 94 L 11 94 L 14 97 L 15 97 L 16 98 L 17 98 L 18 99 L 19 99 L 20 100 L 22 100 L 23 101 L 26 101 L 27 102 L 38 102 L 39 101 L 42 101 L 43 100 L 44 100 L 45 99 L 47 99 L 48 98 L 49 98 L 51 96 L 52 96 L 54 94 L 56 96 L 56 97 L 63 104 L 64 104 L 66 106 L 67 106 L 68 107 L 69 107 L 70 108 L 71 108 L 72 109 L 74 109 L 75 110 L 77 110 L 78 111 L 80 111 L 81 112 L 84 112 L 85 113 L 91 113 L 92 114 L 104 114 L 105 113 L 111 113 L 112 112 L 115 112 L 116 111 L 119 111 L 120 110 L 121 110 L 122 109 L 124 109 L 125 108 L 126 108 L 127 107 L 128 107 L 129 106 L 130 106 L 131 105 L 132 105 L 136 101 L 137 101 L 138 100 L 138 99 L 141 96 L 141 95 L 143 93 L 148 93 L 149 92 L 151 92 L 152 91 L 154 91 L 155 90 L 156 90 L 158 88 L 159 88 L 164 83 L 164 82 L 166 80 L 166 79 L 167 78 L 167 75 L 168 74 L 168 61 L 167 60 L 167 58 L 166 57 L 166 56 L 165 55 L 165 54 L 163 52 L 163 51 L 160 48 L 159 48 L 157 46 L 156 46 L 155 45 L 154 45 L 153 44 L 151 44 L 150 43 L 145 43 L 143 41 L 143 36 L 142 35 L 142 33 L 141 32 L 141 31 L 140 30 L 140 29 L 139 28 L 139 27 L 132 20 L 131 20 L 129 18 L 128 18 L 127 17 L 125 17 L 124 16 L 121 16 L 120 15 L 107 15 L 106 16 L 103 16 L 102 17 L 100 17 L 99 18 L 98 18 L 95 21 L 94 21 L 92 23 L 91 23 L 90 22 L 90 19 L 89 18 L 89 16 L 88 15 L 88 14 L 87 13 L 87 12 L 86 11 L 86 10 L 81 5 L 80 5 L 78 3 L 77 3 L 76 2 L 74 2 L 73 1 L 71 1 L 70 0 z" />
<path d="M 56 1 L 57 0 L 70 0 L 71 1 L 73 1 L 74 2 L 75 2 L 76 3 L 77 3 L 78 4 L 79 4 L 86 11 L 86 12 L 88 14 L 88 15 L 89 16 L 89 18 L 90 19 L 90 23 L 91 23 L 92 24 L 96 20 L 97 20 L 99 18 L 100 18 L 101 17 L 102 17 L 103 16 L 106 16 L 107 15 L 120 15 L 121 16 L 124 16 L 125 17 L 126 17 L 127 18 L 128 18 L 129 19 L 130 19 L 139 28 L 139 29 L 140 30 L 140 31 L 141 32 L 141 33 L 142 34 L 142 35 L 143 36 L 143 41 L 144 42 L 144 43 L 150 43 L 151 44 L 153 44 L 155 46 L 156 46 L 157 47 L 158 47 L 163 52 L 163 53 L 165 55 L 165 56 L 166 57 L 166 58 L 167 59 L 167 60 L 168 61 L 168 74 L 167 75 L 167 77 L 166 78 L 166 79 L 165 80 L 165 81 L 157 89 L 156 89 L 155 90 L 154 90 L 153 91 L 152 91 L 151 92 L 149 92 L 148 93 L 142 93 L 141 94 L 141 95 L 139 97 L 139 98 L 134 103 L 133 103 L 131 105 L 130 105 L 128 107 L 127 107 L 126 108 L 125 108 L 124 109 L 122 109 L 121 110 L 120 110 L 119 111 L 116 111 L 115 112 L 112 112 L 111 113 L 105 113 L 104 114 L 92 114 L 91 113 L 85 113 L 84 112 L 81 112 L 80 111 L 78 111 L 77 110 L 75 110 L 74 109 L 72 109 L 71 108 L 70 108 L 68 106 L 67 106 L 66 105 L 65 105 L 55 95 L 55 94 L 53 94 L 50 97 L 49 97 L 48 98 L 47 98 L 46 99 L 45 99 L 44 100 L 43 100 L 42 101 L 39 101 L 38 102 L 27 102 L 26 101 L 23 101 L 22 100 L 20 100 L 19 99 L 18 99 L 16 97 L 15 97 L 13 95 L 12 95 L 6 89 L 6 88 L 4 86 L 4 85 L 3 84 L 3 83 L 2 82 L 2 81 L 1 80 L 1 78 L 0 77 L 0 62 L 1 61 L 1 58 L 2 57 L 2 56 L 3 55 L 3 54 L 4 53 L 4 52 L 6 50 L 6 49 L 13 42 L 14 42 L 16 40 L 17 40 L 18 39 L 19 39 L 20 38 L 22 38 L 23 37 L 27 37 L 28 36 L 37 36 L 37 32 L 36 31 L 36 22 L 37 21 L 37 18 L 38 17 L 38 16 L 39 15 L 39 14 L 40 13 L 40 12 L 44 8 L 44 7 L 45 6 L 46 6 L 48 4 L 49 4 L 51 2 L 52 2 L 53 1 z" />
<svg id="1">
<path d="M 59 2 L 58 3 L 55 3 L 54 4 L 52 4 L 50 6 L 49 6 L 47 8 L 46 8 L 46 9 L 42 13 L 42 14 L 41 15 L 41 16 L 40 17 L 40 19 L 39 20 L 39 24 L 38 25 L 38 29 L 39 30 L 39 34 L 40 35 L 40 38 L 39 39 L 25 39 L 24 40 L 22 40 L 21 41 L 19 41 L 18 42 L 17 42 L 15 44 L 14 44 L 8 50 L 8 51 L 6 53 L 6 54 L 5 55 L 5 56 L 4 57 L 4 59 L 3 60 L 3 62 L 2 63 L 2 74 L 3 75 L 3 78 L 4 79 L 4 81 L 5 82 L 5 83 L 6 84 L 6 85 L 8 87 L 8 88 L 13 93 L 14 93 L 16 95 L 17 95 L 19 97 L 21 97 L 22 98 L 24 98 L 25 99 L 40 99 L 41 98 L 43 98 L 44 97 L 45 97 L 46 96 L 47 96 L 48 95 L 49 95 L 52 92 L 53 92 L 54 91 L 55 91 L 57 93 L 57 94 L 66 103 L 67 103 L 68 104 L 69 104 L 70 105 L 71 105 L 72 106 L 73 106 L 74 107 L 75 107 L 76 108 L 78 108 L 79 109 L 82 109 L 83 110 L 86 110 L 87 111 L 109 111 L 110 110 L 114 110 L 115 109 L 118 109 L 119 108 L 120 108 L 121 107 L 123 107 L 124 106 L 125 106 L 126 105 L 127 105 L 129 103 L 130 103 L 132 101 L 133 101 L 137 97 L 137 96 L 139 94 L 139 93 L 141 91 L 145 91 L 146 90 L 150 90 L 151 89 L 152 89 L 153 88 L 154 88 L 155 87 L 156 87 L 163 80 L 163 79 L 164 78 L 164 76 L 165 75 L 165 73 L 166 72 L 166 64 L 165 63 L 165 60 L 164 59 L 164 58 L 163 57 L 163 56 L 161 54 L 161 53 L 157 49 L 156 49 L 155 48 L 154 48 L 153 47 L 152 47 L 151 46 L 149 46 L 148 45 L 143 45 L 141 43 L 141 38 L 140 37 L 140 35 L 139 34 L 139 33 L 138 32 L 138 31 L 137 30 L 137 29 L 129 21 L 128 21 L 127 20 L 126 20 L 125 19 L 123 19 L 122 18 L 119 18 L 118 17 L 109 17 L 108 18 L 105 18 L 104 19 L 102 19 L 101 20 L 100 20 L 98 22 L 97 22 L 90 29 L 88 27 L 88 21 L 87 20 L 87 18 L 86 17 L 86 15 L 84 13 L 84 12 L 78 6 L 77 6 L 76 5 L 75 5 L 74 4 L 73 4 L 72 3 L 69 3 L 68 2 z" />
<svg id="2">
<path d="M 58 3 L 59 2 L 68 2 L 69 3 L 72 3 L 73 4 L 74 4 L 76 6 L 77 6 L 84 13 L 84 14 L 86 16 L 86 17 L 87 18 L 87 20 L 88 21 L 88 28 L 89 28 L 90 29 L 91 28 L 92 28 L 99 21 L 100 21 L 102 19 L 104 19 L 105 18 L 108 18 L 109 17 L 118 17 L 119 18 L 122 18 L 123 19 L 125 19 L 127 21 L 128 21 L 130 23 L 131 23 L 135 27 L 135 28 L 137 30 L 137 31 L 139 33 L 139 34 L 140 35 L 140 37 L 141 38 L 141 43 L 142 44 L 142 45 L 148 45 L 149 46 L 151 46 L 152 47 L 153 47 L 155 49 L 156 49 L 162 55 L 162 56 L 163 57 L 163 58 L 165 60 L 165 63 L 166 64 L 166 72 L 165 73 L 165 75 L 164 76 L 164 77 L 163 78 L 163 79 L 155 87 L 154 87 L 152 89 L 151 89 L 150 90 L 146 90 L 145 91 L 140 91 L 139 92 L 139 93 L 138 94 L 138 95 L 131 102 L 130 102 L 128 104 L 127 104 L 125 106 L 123 106 L 122 107 L 121 107 L 120 108 L 119 108 L 118 109 L 115 109 L 114 110 L 110 110 L 109 111 L 87 111 L 86 110 L 83 110 L 82 109 L 79 109 L 78 108 L 76 108 L 75 107 L 74 107 L 73 106 L 72 106 L 71 105 L 70 105 L 68 103 L 67 103 L 64 100 L 63 100 L 60 97 L 60 96 L 57 93 L 57 92 L 55 90 L 54 90 L 51 93 L 50 93 L 48 95 L 47 95 L 45 97 L 44 97 L 43 98 L 41 98 L 40 99 L 25 99 L 24 98 L 22 98 L 21 97 L 20 97 L 19 96 L 18 96 L 16 94 L 15 94 L 8 87 L 8 86 L 6 84 L 6 83 L 5 82 L 5 81 L 4 80 L 4 79 L 3 78 L 3 75 L 2 74 L 2 63 L 3 62 L 3 60 L 4 59 L 4 57 L 6 55 L 6 54 L 7 53 L 7 52 L 16 43 L 17 43 L 18 42 L 19 42 L 20 41 L 21 41 L 22 40 L 24 40 L 25 39 L 40 39 L 41 38 L 40 37 L 40 35 L 39 34 L 39 30 L 38 29 L 38 25 L 39 24 L 39 20 L 40 19 L 40 17 L 42 15 L 42 14 L 45 11 L 45 10 L 48 7 L 49 7 L 51 5 L 52 5 L 53 4 L 54 4 L 55 3 z" />
</svg>
</svg>
</svg>
</svg>