<?xml version="1.0" encoding="UTF-8"?>
<svg xmlns="http://www.w3.org/2000/svg" xmlns:xlink="http://www.w3.org/1999/xlink"
     width="230" height="129" viewBox="0 0 230 129">
<defs>
</defs>
<svg id="0" fill="grey" stroke="black">
<path d="M 60 4 L 59 5 L 55 5 L 54 6 L 52 6 L 51 7 L 49 7 L 48 8 L 46 8 L 45 9 L 43 9 L 41 11 L 40 11 L 38 13 L 37 13 L 34 16 L 33 16 L 32 17 L 32 18 L 29 21 L 29 22 L 27 24 L 27 25 L 26 26 L 26 28 L 25 29 L 25 30 L 24 31 L 24 33 L 23 34 L 23 36 L 22 37 L 22 38 L 21 39 L 21 40 L 17 44 L 15 44 L 14 45 L 13 45 L 12 46 L 12 47 L 10 49 L 10 58 L 11 59 L 11 60 L 15 64 L 19 64 L 21 66 L 21 67 L 18 70 L 16 70 L 15 71 L 14 71 L 7 78 L 7 79 L 6 80 L 6 82 L 5 83 L 5 85 L 4 86 L 4 95 L 5 96 L 5 98 L 6 99 L 6 100 L 7 101 L 7 102 L 13 108 L 14 108 L 15 109 L 16 109 L 17 110 L 19 110 L 20 111 L 22 111 L 23 112 L 27 112 L 28 111 L 31 111 L 32 110 L 34 110 L 35 109 L 36 109 L 38 107 L 39 107 L 42 104 L 43 104 L 45 102 L 45 101 L 49 97 L 52 100 L 52 105 L 54 107 L 54 108 L 55 108 L 57 110 L 58 110 L 59 111 L 67 111 L 68 110 L 70 110 L 71 109 L 72 109 L 75 106 L 75 105 L 77 103 L 78 103 L 80 105 L 80 107 L 83 110 L 84 110 L 85 111 L 92 111 L 93 110 L 95 110 L 97 108 L 99 108 L 103 104 L 103 103 L 108 98 L 110 100 L 110 109 L 111 110 L 111 112 L 112 113 L 112 114 L 118 120 L 119 120 L 121 122 L 124 122 L 125 123 L 129 123 L 130 124 L 131 124 L 132 123 L 140 123 L 141 122 L 143 122 L 144 121 L 145 121 L 146 120 L 147 120 L 148 119 L 149 119 L 151 117 L 152 117 L 156 113 L 156 112 L 158 110 L 158 109 L 159 108 L 159 107 L 161 105 L 163 107 L 163 110 L 164 111 L 164 112 L 168 116 L 169 116 L 170 117 L 178 117 L 179 116 L 181 116 L 182 115 L 184 115 L 186 113 L 187 113 L 191 109 L 191 108 L 193 106 L 193 105 L 194 104 L 194 103 L 196 101 L 206 101 L 207 100 L 210 100 L 211 99 L 212 99 L 213 98 L 215 98 L 218 95 L 219 95 L 219 94 L 222 91 L 222 90 L 223 89 L 223 87 L 224 86 L 224 78 L 223 77 L 223 76 L 222 75 L 222 74 L 220 72 L 219 72 L 218 71 L 217 72 L 216 72 L 216 76 L 215 77 L 215 78 L 209 84 L 208 84 L 207 85 L 201 85 L 200 84 L 199 84 L 194 79 L 194 74 L 195 73 L 195 72 L 197 70 L 198 70 L 199 69 L 200 69 L 201 68 L 201 67 L 203 65 L 203 64 L 204 63 L 204 61 L 205 60 L 205 54 L 204 53 L 204 52 L 203 51 L 203 49 L 202 48 L 202 47 L 198 43 L 197 43 L 195 41 L 194 41 L 193 40 L 191 40 L 191 42 L 193 44 L 193 45 L 194 46 L 194 47 L 195 48 L 195 54 L 187 62 L 186 62 L 185 63 L 184 63 L 183 64 L 180 64 L 179 65 L 176 65 L 175 66 L 175 68 L 176 69 L 176 70 L 175 71 L 175 73 L 168 80 L 166 80 L 165 81 L 162 81 L 161 82 L 155 82 L 154 81 L 152 81 L 151 80 L 150 80 L 147 77 L 147 76 L 146 75 L 146 71 L 148 69 L 148 66 L 149 65 L 149 61 L 148 60 L 148 59 L 147 58 L 147 57 L 146 57 L 145 56 L 144 56 L 143 55 L 138 55 L 137 56 L 135 56 L 132 59 L 131 59 L 130 58 L 130 56 L 131 55 L 131 51 L 129 49 L 128 49 L 127 48 L 123 48 L 122 49 L 120 49 L 119 50 L 117 50 L 116 49 L 116 42 L 114 40 L 113 40 L 112 39 L 106 39 L 105 40 L 102 40 L 101 39 L 101 28 L 100 27 L 100 24 L 99 23 L 99 21 L 98 20 L 98 18 L 96 16 L 96 15 L 93 12 L 92 12 L 90 10 L 89 10 L 87 8 L 85 8 L 84 7 L 83 7 L 82 6 L 79 6 L 78 5 L 74 5 L 73 4 z" />
<path d="M 59 5 L 60 4 L 73 4 L 74 5 L 78 5 L 79 6 L 82 6 L 83 7 L 84 7 L 85 8 L 86 8 L 87 9 L 88 9 L 91 12 L 92 12 L 96 16 L 96 17 L 98 19 L 98 20 L 99 21 L 99 23 L 100 24 L 100 27 L 101 28 L 101 40 L 105 40 L 106 39 L 111 39 L 112 40 L 113 40 L 116 43 L 116 50 L 120 50 L 121 49 L 122 49 L 123 48 L 127 48 L 131 52 L 131 54 L 130 55 L 130 59 L 133 59 L 136 56 L 137 56 L 138 55 L 143 55 L 145 57 L 146 57 L 147 58 L 147 59 L 149 61 L 149 65 L 148 66 L 148 68 L 147 69 L 147 70 L 146 71 L 146 75 L 147 76 L 147 78 L 149 80 L 151 80 L 152 81 L 154 81 L 155 82 L 161 82 L 162 81 L 165 81 L 166 80 L 168 80 L 169 79 L 170 79 L 174 75 L 174 74 L 175 73 L 175 71 L 176 70 L 176 69 L 175 68 L 175 67 L 177 65 L 179 65 L 180 64 L 183 64 L 184 63 L 186 63 L 188 61 L 189 61 L 194 56 L 194 55 L 195 54 L 195 48 L 194 47 L 194 45 L 193 44 L 193 43 L 191 41 L 192 40 L 193 40 L 196 43 L 197 43 L 202 48 L 202 49 L 203 50 L 203 51 L 204 52 L 204 53 L 205 54 L 205 60 L 204 61 L 204 63 L 201 66 L 201 67 L 199 69 L 198 69 L 196 71 L 195 71 L 195 73 L 194 74 L 194 80 L 198 84 L 199 84 L 200 85 L 207 85 L 208 84 L 210 84 L 215 79 L 215 77 L 216 76 L 216 73 L 218 71 L 223 76 L 223 77 L 224 78 L 224 86 L 223 87 L 223 88 L 222 89 L 222 90 L 219 93 L 219 94 L 218 95 L 217 95 L 214 98 L 213 98 L 212 99 L 211 99 L 210 100 L 207 100 L 206 101 L 195 101 L 194 102 L 194 103 L 193 104 L 193 105 L 191 107 L 191 108 L 186 113 L 185 113 L 183 115 L 182 115 L 181 116 L 179 116 L 178 117 L 170 117 L 163 110 L 163 106 L 162 105 L 160 105 L 159 106 L 159 107 L 158 108 L 158 109 L 156 111 L 156 112 L 151 117 L 150 117 L 148 119 L 147 119 L 145 121 L 144 121 L 143 122 L 141 122 L 140 123 L 132 123 L 131 124 L 130 124 L 129 123 L 125 123 L 124 122 L 122 122 L 120 120 L 119 120 L 112 113 L 112 112 L 111 111 L 111 110 L 110 109 L 110 99 L 109 98 L 109 97 L 108 98 L 107 98 L 103 102 L 103 103 L 98 108 L 97 108 L 96 109 L 95 109 L 94 110 L 93 110 L 92 111 L 85 111 L 80 106 L 80 105 L 79 104 L 79 103 L 76 103 L 75 104 L 75 105 L 71 109 L 70 109 L 69 110 L 68 110 L 67 111 L 59 111 L 56 108 L 55 108 L 54 107 L 54 106 L 52 104 L 52 100 L 51 99 L 51 98 L 50 97 L 48 97 L 45 100 L 45 101 L 42 104 L 41 104 L 38 107 L 37 107 L 35 109 L 34 109 L 33 110 L 32 110 L 31 111 L 28 111 L 27 112 L 23 112 L 22 111 L 20 111 L 19 110 L 17 110 L 15 108 L 14 108 L 7 101 L 7 100 L 5 98 L 5 96 L 4 95 L 4 86 L 5 85 L 5 83 L 6 82 L 6 81 L 7 80 L 7 79 L 15 71 L 16 71 L 17 70 L 18 70 L 19 69 L 20 69 L 20 68 L 21 67 L 21 65 L 20 65 L 19 64 L 16 64 L 11 59 L 11 58 L 10 57 L 10 50 L 12 48 L 12 47 L 14 45 L 15 45 L 16 44 L 18 44 L 20 42 L 20 41 L 22 39 L 22 37 L 23 36 L 23 34 L 24 33 L 24 32 L 25 31 L 25 29 L 26 28 L 26 26 L 28 24 L 28 23 L 32 19 L 32 18 L 34 16 L 35 16 L 38 13 L 39 13 L 41 11 L 42 11 L 44 9 L 45 9 L 46 8 L 48 8 L 49 7 L 51 7 L 52 6 L 54 6 L 55 5 z" />
</svg>
</svg>