<?xml version="1.0" encoding="UTF-8"?>
<svg xmlns="http://www.w3.org/2000/svg" xmlns:xlink="http://www.w3.org/1999/xlink"
     width="178" height="87" viewBox="0 0 178 87">
<defs>
</defs>
<svg id="0" fill="grey" stroke="black">
<path d="M 64 0 L 63 1 L 58 1 L 57 2 L 54 2 L 53 3 L 52 3 L 51 4 L 49 4 L 48 5 L 47 5 L 45 7 L 44 7 L 40 11 L 39 11 L 38 12 L 38 13 L 34 17 L 34 18 L 33 19 L 33 20 L 32 21 L 32 22 L 31 23 L 31 24 L 30 25 L 30 27 L 29 28 L 29 30 L 28 31 L 25 31 L 24 30 L 21 30 L 20 29 L 16 29 L 15 30 L 12 30 L 11 31 L 9 31 L 3 37 L 3 38 L 2 39 L 2 40 L 1 41 L 1 43 L 0 44 L 0 56 L 1 57 L 1 58 L 2 59 L 2 61 L 3 62 L 3 63 L 8 68 L 9 68 L 10 69 L 12 69 L 13 70 L 15 70 L 16 71 L 26 71 L 27 70 L 31 70 L 32 71 L 32 72 L 33 73 L 33 74 L 35 76 L 35 77 L 36 78 L 37 78 L 39 80 L 40 80 L 42 82 L 44 82 L 45 83 L 47 83 L 48 84 L 51 84 L 52 85 L 63 85 L 64 84 L 67 84 L 68 83 L 70 83 L 71 82 L 72 82 L 73 81 L 75 81 L 77 79 L 78 79 L 79 78 L 80 78 L 84 74 L 85 74 L 90 79 L 91 79 L 93 81 L 94 81 L 95 82 L 97 82 L 98 83 L 99 83 L 100 84 L 103 84 L 104 85 L 109 85 L 110 86 L 120 86 L 121 85 L 127 85 L 128 84 L 131 84 L 132 83 L 134 83 L 135 82 L 136 82 L 137 81 L 139 81 L 141 79 L 142 79 L 146 75 L 146 74 L 147 73 L 147 72 L 148 71 L 148 69 L 149 68 L 157 68 L 158 67 L 163 67 L 164 66 L 165 66 L 166 65 L 168 65 L 171 62 L 172 62 L 173 61 L 173 60 L 175 58 L 175 56 L 176 55 L 176 52 L 177 51 L 177 50 L 176 49 L 176 46 L 175 45 L 175 43 L 169 37 L 168 37 L 167 36 L 166 36 L 165 35 L 163 35 L 162 34 L 152 34 L 151 35 L 148 35 L 147 36 L 144 36 L 143 35 L 143 30 L 142 29 L 142 27 L 141 26 L 141 25 L 139 23 L 139 22 L 136 19 L 135 19 L 133 17 L 132 17 L 131 16 L 128 16 L 127 15 L 115 15 L 114 16 L 111 16 L 110 17 L 109 17 L 108 18 L 107 18 L 106 19 L 105 19 L 104 20 L 103 20 L 99 24 L 98 23 L 98 21 L 97 20 L 97 18 L 96 17 L 96 16 L 94 14 L 94 13 L 89 8 L 88 8 L 86 6 L 85 6 L 83 4 L 81 4 L 80 3 L 79 3 L 78 2 L 75 2 L 74 1 L 70 1 L 69 0 z" />
<path d="M 63 1 L 64 0 L 69 0 L 70 1 L 74 1 L 75 2 L 78 2 L 80 4 L 82 4 L 84 6 L 85 6 L 87 8 L 88 8 L 94 14 L 94 15 L 96 17 L 96 18 L 97 19 L 97 20 L 98 21 L 98 24 L 100 24 L 104 20 L 105 20 L 106 19 L 107 19 L 108 18 L 109 18 L 111 16 L 114 16 L 115 15 L 127 15 L 128 16 L 130 16 L 131 17 L 132 17 L 134 19 L 135 19 L 139 23 L 139 24 L 141 26 L 141 27 L 142 28 L 142 29 L 143 30 L 143 36 L 144 37 L 145 36 L 147 36 L 148 35 L 151 35 L 152 34 L 162 34 L 163 35 L 165 35 L 167 37 L 168 37 L 175 44 L 175 45 L 176 46 L 176 49 L 177 50 L 177 51 L 176 52 L 176 55 L 175 56 L 175 57 L 173 59 L 173 60 L 171 62 L 170 62 L 167 65 L 166 65 L 165 66 L 164 66 L 163 67 L 158 67 L 157 68 L 149 68 L 148 69 L 148 71 L 146 73 L 146 74 L 141 79 L 140 79 L 138 81 L 137 81 L 136 82 L 135 82 L 134 83 L 132 83 L 131 84 L 128 84 L 127 85 L 121 85 L 120 86 L 110 86 L 109 85 L 104 85 L 103 84 L 100 84 L 99 83 L 98 83 L 97 82 L 96 82 L 95 81 L 94 81 L 92 79 L 91 79 L 86 74 L 83 74 L 79 78 L 78 78 L 77 79 L 76 79 L 74 81 L 73 81 L 72 82 L 71 82 L 70 83 L 68 83 L 67 84 L 64 84 L 63 85 L 52 85 L 51 84 L 48 84 L 47 83 L 45 83 L 44 82 L 43 82 L 41 80 L 40 80 L 38 78 L 37 78 L 35 76 L 35 75 L 33 73 L 33 72 L 32 71 L 32 70 L 27 70 L 26 71 L 16 71 L 15 70 L 13 70 L 12 69 L 11 69 L 10 68 L 9 68 L 3 62 L 3 61 L 2 60 L 2 59 L 1 58 L 1 57 L 0 56 L 0 44 L 1 43 L 1 41 L 3 39 L 3 38 L 10 31 L 11 31 L 12 30 L 15 30 L 16 29 L 20 29 L 21 30 L 24 30 L 25 31 L 26 31 L 27 32 L 28 32 L 29 31 L 29 28 L 30 27 L 30 25 L 31 24 L 31 23 L 33 21 L 33 20 L 34 19 L 34 18 L 38 14 L 38 13 L 40 11 L 41 11 L 45 7 L 46 7 L 48 5 L 49 5 L 50 4 L 51 4 L 52 3 L 53 3 L 54 2 L 57 2 L 58 1 z" />
<svg id="1">
<path d="M 62 7 L 61 8 L 58 8 L 57 9 L 55 9 L 54 10 L 52 10 L 51 11 L 50 11 L 48 13 L 47 13 L 41 19 L 41 20 L 39 22 L 39 23 L 38 24 L 38 25 L 37 26 L 37 28 L 36 29 L 36 31 L 35 32 L 35 37 L 34 38 L 34 42 L 32 44 L 30 44 L 28 42 L 28 41 L 24 37 L 22 37 L 21 36 L 16 36 L 15 37 L 13 37 L 12 38 L 11 38 L 9 40 L 9 41 L 8 42 L 8 43 L 7 44 L 7 47 L 6 48 L 6 51 L 7 52 L 7 55 L 8 56 L 8 58 L 10 60 L 10 61 L 11 61 L 13 63 L 15 63 L 16 64 L 28 64 L 29 63 L 33 63 L 34 62 L 35 62 L 38 65 L 38 69 L 39 70 L 39 71 L 43 75 L 44 75 L 45 76 L 47 76 L 48 77 L 50 77 L 51 78 L 64 78 L 65 77 L 67 77 L 68 76 L 70 76 L 71 75 L 72 75 L 74 73 L 75 73 L 77 71 L 78 71 L 84 65 L 86 65 L 91 70 L 91 71 L 93 73 L 94 73 L 96 75 L 98 75 L 99 76 L 100 76 L 101 77 L 103 77 L 104 78 L 107 78 L 108 79 L 123 79 L 124 78 L 128 78 L 129 77 L 131 77 L 132 76 L 134 76 L 135 75 L 136 75 L 137 74 L 138 74 L 141 71 L 141 69 L 142 68 L 142 63 L 145 60 L 147 60 L 148 61 L 159 61 L 160 60 L 163 60 L 165 58 L 166 58 L 169 55 L 169 53 L 170 52 L 170 49 L 169 48 L 169 46 L 165 42 L 163 42 L 162 41 L 152 41 L 151 42 L 149 42 L 148 43 L 146 43 L 145 44 L 144 44 L 143 45 L 142 45 L 141 46 L 140 46 L 139 47 L 137 47 L 134 44 L 134 43 L 135 42 L 135 41 L 136 40 L 136 38 L 137 37 L 137 33 L 136 32 L 136 30 L 135 29 L 135 28 L 131 24 L 130 24 L 129 23 L 128 23 L 127 22 L 124 22 L 123 21 L 119 21 L 118 22 L 114 22 L 113 23 L 111 23 L 109 25 L 108 25 L 106 27 L 105 27 L 100 32 L 100 33 L 96 37 L 94 37 L 92 35 L 92 23 L 91 22 L 91 21 L 90 20 L 90 19 L 88 17 L 88 16 L 86 14 L 85 14 L 83 12 L 82 12 L 81 11 L 80 11 L 79 10 L 78 10 L 77 9 L 75 9 L 74 8 L 70 8 L 69 7 z" />
<svg id="2">
<path d="M 61 8 L 62 7 L 69 7 L 70 8 L 74 8 L 75 9 L 77 9 L 79 11 L 80 11 L 81 12 L 82 12 L 84 14 L 85 14 L 88 17 L 88 18 L 90 20 L 90 21 L 92 23 L 92 36 L 93 37 L 97 37 L 100 34 L 100 33 L 106 27 L 107 27 L 109 25 L 110 25 L 112 23 L 113 23 L 114 22 L 118 22 L 119 21 L 123 21 L 124 22 L 127 22 L 129 24 L 130 24 L 135 29 L 135 30 L 136 31 L 136 32 L 137 33 L 137 37 L 136 38 L 136 39 L 135 40 L 135 41 L 134 42 L 134 45 L 136 47 L 139 47 L 140 46 L 142 46 L 143 45 L 144 45 L 146 43 L 148 43 L 149 42 L 151 42 L 152 41 L 162 41 L 163 42 L 164 42 L 169 47 L 169 48 L 170 49 L 170 52 L 169 53 L 169 54 L 165 58 L 164 58 L 162 60 L 160 60 L 159 61 L 148 61 L 147 60 L 145 60 L 144 61 L 143 61 L 142 62 L 142 68 L 141 69 L 141 70 L 137 74 L 136 74 L 134 76 L 132 76 L 131 77 L 129 77 L 128 78 L 124 78 L 123 79 L 108 79 L 107 78 L 104 78 L 103 77 L 101 77 L 100 76 L 99 76 L 98 75 L 97 75 L 95 73 L 94 73 L 91 70 L 91 69 L 87 65 L 83 65 L 77 71 L 76 71 L 74 73 L 73 73 L 71 75 L 70 75 L 69 76 L 68 76 L 67 77 L 65 77 L 64 78 L 51 78 L 50 77 L 48 77 L 47 76 L 46 76 L 45 75 L 44 75 L 38 69 L 38 64 L 37 63 L 36 63 L 35 62 L 34 62 L 33 63 L 29 63 L 28 64 L 16 64 L 15 63 L 14 63 L 12 61 L 11 61 L 10 60 L 10 59 L 8 57 L 8 56 L 7 55 L 7 52 L 6 51 L 6 48 L 7 47 L 7 44 L 9 42 L 9 41 L 13 37 L 15 37 L 16 36 L 21 36 L 22 37 L 23 37 L 28 42 L 28 43 L 29 44 L 33 44 L 34 43 L 34 38 L 35 37 L 35 32 L 36 31 L 36 29 L 37 28 L 37 27 L 38 26 L 38 25 L 39 24 L 39 23 L 41 21 L 41 20 L 48 13 L 49 13 L 51 11 L 52 11 L 53 10 L 54 10 L 55 9 L 57 9 L 58 8 z" />
</svg>
</svg>
</svg>
</svg>