<?xml version="1.0" encoding="UTF-8"?>
<svg xmlns="http://www.w3.org/2000/svg" xmlns:xlink="http://www.w3.org/1999/xlink"
     width="228" height="173" viewBox="0 0 228 173">
<defs>
</defs>
<svg id="0" fill="grey" stroke="black">
<path d="M 110 0 L 109 1 L 103 1 L 102 2 L 98 2 L 97 3 L 94 3 L 93 4 L 91 4 L 90 5 L 88 5 L 87 6 L 86 6 L 85 7 L 83 7 L 82 8 L 81 8 L 80 9 L 79 9 L 78 10 L 77 10 L 75 12 L 74 12 L 70 16 L 69 16 L 66 19 L 66 20 L 63 23 L 63 24 L 61 26 L 61 27 L 60 28 L 54 28 L 53 29 L 46 29 L 45 30 L 43 30 L 42 31 L 40 31 L 39 32 L 36 32 L 35 33 L 34 33 L 32 35 L 31 35 L 29 37 L 28 37 L 23 42 L 23 43 L 21 45 L 21 46 L 19 48 L 19 50 L 18 51 L 18 53 L 17 54 L 17 56 L 16 57 L 16 63 L 15 64 L 15 70 L 16 71 L 16 77 L 17 78 L 17 81 L 18 82 L 18 85 L 19 86 L 19 88 L 20 89 L 20 90 L 19 91 L 18 91 L 16 93 L 15 93 L 13 95 L 12 95 L 7 100 L 7 101 L 5 103 L 5 104 L 3 106 L 3 108 L 2 109 L 2 111 L 1 112 L 1 115 L 0 116 L 0 126 L 1 127 L 1 131 L 2 132 L 2 134 L 3 135 L 3 137 L 4 138 L 4 140 L 5 141 L 5 142 L 6 143 L 6 144 L 8 146 L 8 147 L 16 155 L 17 155 L 19 157 L 20 157 L 21 158 L 23 158 L 24 159 L 26 159 L 27 160 L 30 160 L 31 161 L 47 161 L 48 160 L 51 160 L 52 159 L 55 159 L 56 158 L 58 158 L 59 157 L 60 157 L 61 156 L 62 156 L 63 155 L 66 158 L 66 159 L 71 164 L 72 164 L 74 166 L 75 166 L 77 168 L 78 168 L 79 169 L 81 169 L 82 170 L 84 170 L 85 171 L 89 171 L 90 172 L 102 172 L 103 171 L 108 171 L 109 170 L 112 170 L 113 169 L 115 169 L 116 168 L 117 168 L 118 167 L 119 167 L 120 166 L 122 166 L 123 165 L 124 165 L 126 163 L 127 163 L 130 160 L 131 160 L 135 156 L 138 156 L 139 157 L 151 157 L 152 156 L 156 156 L 157 155 L 159 155 L 160 154 L 162 154 L 163 153 L 164 153 L 166 151 L 167 151 L 170 148 L 171 148 L 175 144 L 176 144 L 178 142 L 179 142 L 180 141 L 181 141 L 182 140 L 189 140 L 190 141 L 193 141 L 194 142 L 199 142 L 200 143 L 202 143 L 203 142 L 204 143 L 205 142 L 208 142 L 209 141 L 211 141 L 212 140 L 213 140 L 214 139 L 215 139 L 216 138 L 217 138 L 227 128 L 227 126 L 226 125 L 220 125 L 219 126 L 216 126 L 215 125 L 210 125 L 209 124 L 208 124 L 207 123 L 206 123 L 201 118 L 201 113 L 202 112 L 202 111 L 203 110 L 203 109 L 204 108 L 204 107 L 205 106 L 205 105 L 206 104 L 206 103 L 207 102 L 207 101 L 209 99 L 209 97 L 210 96 L 210 95 L 211 94 L 211 92 L 212 91 L 212 90 L 213 89 L 213 88 L 214 87 L 214 85 L 215 84 L 215 81 L 216 80 L 216 76 L 217 75 L 217 70 L 216 69 L 216 66 L 215 65 L 215 63 L 207 55 L 207 50 L 206 49 L 206 46 L 205 45 L 205 43 L 203 41 L 203 40 L 196 33 L 195 33 L 194 32 L 193 32 L 192 31 L 190 31 L 189 30 L 188 30 L 187 29 L 182 29 L 181 28 L 177 28 L 176 29 L 172 29 L 171 30 L 169 30 L 168 31 L 166 31 L 165 32 L 164 32 L 163 33 L 161 33 L 160 32 L 160 30 L 159 29 L 159 28 L 158 27 L 158 26 L 157 25 L 157 24 L 156 23 L 156 22 L 154 20 L 154 19 L 149 14 L 149 13 L 148 13 L 143 8 L 142 8 L 140 6 L 139 6 L 138 5 L 137 5 L 136 4 L 134 4 L 133 3 L 131 3 L 130 2 L 128 2 L 127 1 L 122 1 L 121 0 z" />
<path d="M 109 1 L 110 0 L 121 0 L 122 1 L 127 1 L 128 2 L 130 2 L 131 3 L 133 3 L 134 4 L 135 4 L 136 5 L 137 5 L 138 6 L 139 6 L 141 8 L 142 8 L 147 13 L 148 13 L 149 14 L 149 15 L 154 20 L 154 21 L 156 23 L 156 24 L 157 25 L 157 26 L 158 27 L 158 28 L 160 30 L 160 32 L 161 33 L 164 33 L 166 31 L 168 31 L 169 30 L 171 30 L 172 29 L 176 29 L 177 28 L 181 28 L 182 29 L 187 29 L 188 30 L 189 30 L 190 31 L 192 31 L 194 33 L 195 33 L 203 41 L 203 42 L 205 44 L 205 45 L 206 46 L 206 49 L 207 50 L 207 55 L 208 56 L 208 57 L 215 64 L 215 65 L 216 66 L 216 69 L 217 70 L 217 75 L 216 76 L 216 80 L 215 81 L 215 84 L 214 85 L 214 87 L 213 88 L 213 89 L 212 90 L 212 91 L 211 92 L 211 94 L 209 96 L 209 98 L 207 100 L 207 101 L 206 102 L 206 103 L 205 104 L 205 105 L 204 106 L 204 107 L 203 108 L 203 110 L 202 111 L 202 112 L 201 113 L 201 119 L 205 123 L 207 123 L 208 124 L 209 124 L 210 125 L 215 125 L 216 126 L 219 126 L 220 125 L 225 125 L 227 127 L 216 138 L 215 138 L 214 139 L 213 139 L 211 141 L 209 141 L 208 142 L 205 142 L 204 143 L 203 142 L 202 143 L 200 143 L 199 142 L 194 142 L 193 141 L 190 141 L 189 140 L 182 140 L 181 141 L 179 141 L 178 142 L 177 142 L 175 144 L 174 144 L 170 148 L 169 148 L 166 151 L 165 151 L 163 153 L 162 153 L 161 154 L 160 154 L 159 155 L 157 155 L 156 156 L 152 156 L 151 157 L 139 157 L 138 156 L 134 156 L 130 160 L 129 160 L 126 163 L 125 163 L 123 165 L 122 165 L 121 166 L 120 166 L 119 167 L 118 167 L 117 168 L 116 168 L 115 169 L 113 169 L 112 170 L 109 170 L 108 171 L 103 171 L 102 172 L 90 172 L 89 171 L 85 171 L 84 170 L 82 170 L 81 169 L 80 169 L 79 168 L 78 168 L 76 166 L 75 166 L 73 164 L 72 164 L 66 158 L 66 157 L 64 155 L 62 155 L 61 156 L 60 156 L 59 157 L 58 157 L 57 158 L 56 158 L 55 159 L 52 159 L 51 160 L 48 160 L 47 161 L 31 161 L 30 160 L 27 160 L 26 159 L 24 159 L 23 158 L 22 158 L 21 157 L 20 157 L 18 155 L 17 155 L 8 146 L 8 145 L 6 143 L 6 142 L 5 141 L 5 140 L 4 139 L 4 138 L 3 137 L 3 135 L 2 134 L 2 132 L 1 131 L 1 127 L 0 126 L 0 116 L 1 115 L 1 112 L 2 111 L 2 109 L 3 108 L 3 107 L 5 105 L 5 104 L 7 102 L 7 101 L 13 95 L 14 95 L 16 93 L 17 93 L 19 91 L 20 91 L 20 89 L 19 88 L 19 86 L 18 85 L 18 82 L 17 81 L 17 78 L 16 77 L 16 71 L 15 70 L 15 64 L 16 63 L 16 57 L 17 56 L 17 54 L 18 53 L 18 51 L 19 50 L 19 49 L 21 47 L 21 46 L 23 44 L 23 43 L 29 37 L 30 37 L 32 35 L 33 35 L 35 33 L 36 33 L 37 32 L 39 32 L 40 31 L 42 31 L 43 30 L 45 30 L 46 29 L 53 29 L 54 28 L 61 28 L 61 27 L 63 25 L 63 24 L 66 21 L 66 20 L 70 16 L 71 16 L 75 12 L 76 12 L 78 10 L 79 10 L 80 9 L 81 9 L 83 7 L 85 7 L 86 6 L 87 6 L 88 5 L 90 5 L 91 4 L 93 4 L 94 3 L 97 3 L 98 2 L 102 2 L 103 1 z" />
<svg id="1">
<path d="M 106 4 L 105 5 L 101 5 L 100 6 L 97 6 L 96 7 L 93 7 L 92 8 L 90 8 L 89 9 L 88 9 L 87 10 L 85 10 L 84 11 L 83 11 L 82 12 L 81 12 L 80 13 L 79 13 L 77 15 L 76 15 L 71 20 L 70 20 L 70 21 L 66 25 L 66 26 L 65 27 L 65 29 L 67 29 L 68 30 L 70 30 L 71 31 L 73 31 L 74 32 L 75 32 L 77 34 L 78 34 L 80 36 L 81 36 L 90 45 L 90 46 L 92 48 L 92 49 L 93 50 L 93 51 L 95 53 L 95 55 L 96 56 L 96 58 L 97 59 L 97 74 L 96 75 L 96 77 L 95 78 L 95 79 L 93 81 L 93 82 L 91 84 L 91 85 L 86 90 L 85 90 L 83 92 L 82 92 L 81 93 L 80 93 L 78 95 L 76 95 L 75 96 L 71 96 L 70 97 L 60 97 L 59 96 L 55 96 L 54 95 L 52 95 L 51 94 L 49 94 L 48 93 L 47 93 L 46 92 L 45 92 L 44 91 L 46 89 L 48 89 L 49 90 L 50 90 L 51 91 L 53 91 L 54 92 L 57 92 L 58 93 L 72 93 L 73 92 L 76 92 L 77 91 L 78 91 L 79 90 L 80 90 L 81 89 L 82 89 L 86 85 L 87 85 L 87 84 L 90 81 L 90 80 L 91 79 L 91 78 L 92 77 L 92 75 L 93 74 L 93 71 L 94 70 L 94 63 L 93 62 L 93 59 L 92 58 L 92 56 L 91 55 L 91 53 L 90 52 L 90 51 L 89 50 L 89 49 L 87 47 L 87 46 L 80 39 L 79 39 L 77 37 L 76 37 L 75 36 L 74 36 L 73 35 L 71 35 L 70 34 L 69 34 L 68 33 L 65 33 L 64 32 L 50 32 L 49 33 L 45 33 L 44 34 L 42 34 L 41 35 L 39 35 L 38 36 L 37 36 L 36 37 L 35 37 L 34 38 L 33 38 L 31 40 L 30 40 L 26 44 L 26 45 L 24 47 L 24 48 L 23 49 L 23 50 L 22 51 L 22 52 L 21 53 L 21 55 L 20 56 L 20 60 L 19 61 L 19 73 L 20 74 L 20 78 L 21 79 L 21 82 L 22 83 L 22 85 L 23 86 L 23 88 L 24 89 L 24 92 L 22 94 L 21 94 L 20 95 L 19 95 L 18 96 L 17 96 L 14 99 L 13 99 L 11 101 L 11 102 L 8 105 L 8 106 L 7 107 L 7 108 L 6 109 L 6 111 L 5 112 L 5 114 L 4 115 L 4 128 L 5 129 L 5 132 L 6 133 L 6 135 L 7 136 L 7 137 L 8 138 L 8 140 L 9 141 L 9 142 L 11 144 L 11 145 L 18 152 L 19 152 L 21 154 L 23 154 L 24 155 L 25 155 L 26 156 L 29 156 L 30 157 L 34 157 L 35 158 L 43 158 L 44 157 L 49 157 L 50 156 L 52 156 L 53 155 L 55 155 L 56 154 L 58 154 L 59 153 L 60 153 L 62 151 L 63 151 L 70 144 L 70 143 L 71 142 L 71 141 L 72 140 L 72 138 L 73 137 L 73 135 L 74 134 L 74 127 L 73 126 L 73 122 L 72 121 L 72 119 L 71 118 L 71 117 L 67 113 L 65 113 L 64 112 L 56 112 L 55 111 L 55 109 L 56 108 L 63 108 L 64 109 L 66 109 L 67 110 L 68 110 L 74 116 L 74 117 L 76 119 L 76 122 L 77 123 L 77 137 L 76 138 L 76 140 L 75 141 L 75 142 L 73 144 L 73 145 L 67 151 L 67 154 L 70 157 L 70 158 L 72 160 L 73 160 L 76 163 L 77 163 L 79 165 L 81 165 L 82 166 L 84 166 L 85 167 L 88 167 L 89 168 L 104 168 L 105 167 L 109 167 L 110 166 L 112 166 L 113 165 L 115 165 L 116 164 L 118 164 L 119 163 L 120 163 L 122 161 L 123 161 L 124 160 L 125 160 L 128 157 L 129 157 L 133 153 L 133 152 L 136 149 L 136 148 L 138 146 L 138 145 L 139 144 L 139 143 L 140 142 L 140 141 L 141 140 L 141 138 L 142 137 L 142 136 L 143 135 L 143 132 L 144 131 L 144 126 L 145 125 L 147 125 L 148 126 L 148 130 L 147 131 L 147 134 L 146 135 L 146 137 L 145 138 L 145 140 L 144 141 L 144 142 L 143 143 L 143 144 L 141 146 L 141 147 L 139 149 L 139 150 L 138 151 L 138 153 L 141 153 L 142 154 L 147 154 L 148 153 L 153 153 L 154 152 L 157 152 L 158 151 L 159 151 L 160 150 L 162 150 L 164 148 L 165 148 L 168 145 L 169 145 L 173 141 L 174 141 L 176 139 L 177 139 L 178 138 L 179 138 L 180 137 L 183 137 L 184 136 L 187 136 L 188 137 L 192 137 L 193 138 L 196 138 L 197 139 L 206 139 L 207 138 L 209 138 L 210 137 L 211 137 L 212 136 L 213 136 L 214 135 L 215 135 L 219 131 L 220 131 L 220 129 L 212 129 L 211 128 L 208 128 L 207 127 L 206 127 L 205 126 L 204 126 L 201 123 L 200 123 L 199 122 L 199 121 L 197 119 L 197 114 L 198 113 L 198 111 L 199 110 L 199 109 L 200 108 L 200 107 L 201 106 L 201 105 L 202 104 L 202 103 L 203 102 L 203 101 L 204 100 L 204 99 L 205 98 L 205 97 L 206 96 L 206 95 L 207 94 L 207 92 L 208 91 L 208 90 L 209 89 L 209 88 L 210 87 L 210 85 L 211 84 L 211 82 L 212 81 L 212 78 L 213 77 L 213 68 L 212 67 L 212 65 L 209 62 L 208 62 L 208 64 L 207 65 L 207 69 L 206 70 L 206 72 L 205 73 L 205 74 L 204 75 L 204 76 L 201 79 L 201 80 L 200 81 L 199 81 L 195 85 L 194 85 L 193 86 L 192 86 L 191 87 L 190 87 L 189 88 L 187 88 L 186 89 L 182 89 L 181 90 L 167 90 L 166 89 L 164 89 L 163 88 L 162 88 L 160 86 L 159 86 L 154 81 L 154 80 L 152 78 L 152 77 L 151 76 L 151 75 L 150 74 L 150 71 L 149 70 L 149 64 L 150 63 L 151 63 L 152 64 L 152 65 L 153 66 L 153 71 L 154 72 L 154 74 L 155 75 L 155 77 L 157 79 L 157 80 L 160 83 L 161 83 L 163 85 L 165 85 L 166 86 L 169 86 L 170 87 L 177 87 L 178 86 L 183 86 L 184 85 L 187 85 L 188 84 L 190 84 L 191 83 L 192 83 L 193 82 L 194 82 L 201 75 L 201 74 L 202 73 L 202 71 L 203 70 L 203 67 L 204 66 L 204 54 L 203 53 L 203 49 L 202 48 L 202 46 L 201 45 L 201 44 L 200 43 L 200 42 L 194 36 L 193 36 L 192 35 L 191 35 L 190 34 L 188 34 L 187 33 L 185 33 L 184 32 L 174 32 L 173 33 L 171 33 L 170 34 L 168 34 L 167 35 L 166 35 L 165 36 L 164 36 L 162 38 L 160 38 L 158 36 L 158 35 L 157 34 L 157 32 L 156 31 L 156 30 L 155 29 L 155 28 L 154 27 L 154 26 L 153 25 L 153 24 L 150 21 L 150 20 L 141 11 L 140 11 L 138 9 L 137 9 L 136 8 L 134 8 L 133 7 L 132 7 L 131 6 L 129 6 L 128 5 L 125 5 L 124 4 z" />
<svg id="2">
<path d="M 105 5 L 106 4 L 124 4 L 125 5 L 128 5 L 129 6 L 131 6 L 132 7 L 133 7 L 134 8 L 135 8 L 136 9 L 137 9 L 139 11 L 140 11 L 150 21 L 150 22 L 153 25 L 153 26 L 154 27 L 154 28 L 155 29 L 155 30 L 156 31 L 156 32 L 157 33 L 157 34 L 158 35 L 158 37 L 159 38 L 163 38 L 165 36 L 166 36 L 167 35 L 168 35 L 169 34 L 170 34 L 171 33 L 173 33 L 174 32 L 184 32 L 185 33 L 187 33 L 188 34 L 190 34 L 192 36 L 193 36 L 200 43 L 200 44 L 202 46 L 202 48 L 203 49 L 203 53 L 204 54 L 204 66 L 203 67 L 203 70 L 202 71 L 202 72 L 201 73 L 201 74 L 193 82 L 192 82 L 191 83 L 190 83 L 189 84 L 188 84 L 187 85 L 184 85 L 183 86 L 178 86 L 177 87 L 170 87 L 169 86 L 166 86 L 165 85 L 164 85 L 162 83 L 161 83 L 157 79 L 157 78 L 155 76 L 155 75 L 154 74 L 154 72 L 153 71 L 153 66 L 152 65 L 152 63 L 149 63 L 149 70 L 150 71 L 150 74 L 151 75 L 151 76 L 152 77 L 152 79 L 154 81 L 154 82 L 158 86 L 159 86 L 161 88 L 163 88 L 164 89 L 166 89 L 167 90 L 181 90 L 182 89 L 186 89 L 187 88 L 189 88 L 190 87 L 191 87 L 192 86 L 194 86 L 195 85 L 196 85 L 200 81 L 201 81 L 201 80 L 204 77 L 204 76 L 205 75 L 205 73 L 206 72 L 206 70 L 207 69 L 207 65 L 208 64 L 208 63 L 209 62 L 210 63 L 210 64 L 212 66 L 212 67 L 213 68 L 213 77 L 212 78 L 212 81 L 211 82 L 211 84 L 210 85 L 210 87 L 209 88 L 209 89 L 208 90 L 208 91 L 207 92 L 207 94 L 205 96 L 205 97 L 204 98 L 204 99 L 203 100 L 203 101 L 202 102 L 202 103 L 201 104 L 201 105 L 200 106 L 200 107 L 199 108 L 199 110 L 198 111 L 198 113 L 197 114 L 197 119 L 198 120 L 198 121 L 199 122 L 199 123 L 200 123 L 203 126 L 204 126 L 205 127 L 207 127 L 208 128 L 211 128 L 212 129 L 219 129 L 220 130 L 219 131 L 218 131 L 214 135 L 213 135 L 212 136 L 211 136 L 209 138 L 207 138 L 206 139 L 197 139 L 196 138 L 193 138 L 192 137 L 188 137 L 187 136 L 184 136 L 183 137 L 180 137 L 179 138 L 177 138 L 176 139 L 175 139 L 173 141 L 172 141 L 168 145 L 167 145 L 164 148 L 163 148 L 161 150 L 160 150 L 159 151 L 158 151 L 157 152 L 154 152 L 153 153 L 148 153 L 147 154 L 142 154 L 141 153 L 139 153 L 138 152 L 139 151 L 139 150 L 141 148 L 141 147 L 143 145 L 143 143 L 144 142 L 144 141 L 145 140 L 145 138 L 146 137 L 146 135 L 147 134 L 147 131 L 148 130 L 148 125 L 145 125 L 144 126 L 144 131 L 143 132 L 143 135 L 142 136 L 142 137 L 141 138 L 141 139 L 140 140 L 140 141 L 139 142 L 139 143 L 138 144 L 138 145 L 136 147 L 136 148 L 133 151 L 133 152 L 128 157 L 127 157 L 124 160 L 123 160 L 122 161 L 121 161 L 119 163 L 118 163 L 117 164 L 116 164 L 115 165 L 113 165 L 112 166 L 110 166 L 109 167 L 105 167 L 104 168 L 89 168 L 88 167 L 85 167 L 84 166 L 82 166 L 81 165 L 80 165 L 78 163 L 77 163 L 74 160 L 73 160 L 70 157 L 70 156 L 67 153 L 67 152 L 73 146 L 73 145 L 75 143 L 75 141 L 76 140 L 76 138 L 77 137 L 77 123 L 76 122 L 76 119 L 75 118 L 75 117 L 74 116 L 74 115 L 69 110 L 68 110 L 67 109 L 64 109 L 63 108 L 56 108 L 55 109 L 55 112 L 64 112 L 65 113 L 66 113 L 71 118 L 71 119 L 72 120 L 72 121 L 73 122 L 73 126 L 74 127 L 74 134 L 73 135 L 73 137 L 72 138 L 72 139 L 71 140 L 71 141 L 70 142 L 70 143 L 62 151 L 61 151 L 59 153 L 58 153 L 57 154 L 56 154 L 55 155 L 53 155 L 52 156 L 50 156 L 49 157 L 44 157 L 43 158 L 35 158 L 34 157 L 30 157 L 29 156 L 26 156 L 25 155 L 24 155 L 23 154 L 22 154 L 20 152 L 19 152 L 11 144 L 11 143 L 9 141 L 9 140 L 8 139 L 8 138 L 7 137 L 7 136 L 6 135 L 6 133 L 5 132 L 5 129 L 4 128 L 4 115 L 5 114 L 5 112 L 6 111 L 6 109 L 8 107 L 8 106 L 11 103 L 11 102 L 14 99 L 15 99 L 18 96 L 19 96 L 20 95 L 21 95 L 22 94 L 23 94 L 24 93 L 24 89 L 23 88 L 23 86 L 22 85 L 22 83 L 21 82 L 21 79 L 20 78 L 20 74 L 19 73 L 19 61 L 20 60 L 20 56 L 21 55 L 21 53 L 23 51 L 23 50 L 24 49 L 24 48 L 26 46 L 26 45 L 31 40 L 32 40 L 34 38 L 35 38 L 37 36 L 38 36 L 39 35 L 41 35 L 42 34 L 44 34 L 45 33 L 49 33 L 50 32 L 64 32 L 65 33 L 68 33 L 69 34 L 70 34 L 71 35 L 72 35 L 73 36 L 74 36 L 75 37 L 76 37 L 78 39 L 79 39 L 87 47 L 87 48 L 89 50 L 89 51 L 90 52 L 90 53 L 91 54 L 91 55 L 92 56 L 92 58 L 93 59 L 93 62 L 94 63 L 94 70 L 93 71 L 93 74 L 92 75 L 92 77 L 90 79 L 90 80 L 87 83 L 87 84 L 86 85 L 85 85 L 81 89 L 80 89 L 79 90 L 78 90 L 76 92 L 73 92 L 72 93 L 58 93 L 57 92 L 54 92 L 53 91 L 51 91 L 50 90 L 49 90 L 48 89 L 45 89 L 44 90 L 44 91 L 46 93 L 48 93 L 49 94 L 51 94 L 52 95 L 54 95 L 55 96 L 59 96 L 60 97 L 70 97 L 71 96 L 75 96 L 76 95 L 78 95 L 79 94 L 80 94 L 81 93 L 82 93 L 83 92 L 84 92 L 86 90 L 87 90 L 91 86 L 91 85 L 93 83 L 93 82 L 95 80 L 95 78 L 96 77 L 96 75 L 97 74 L 97 59 L 96 58 L 96 56 L 95 55 L 95 53 L 94 52 L 94 51 L 93 50 L 93 49 L 92 48 L 92 47 L 90 45 L 90 44 L 82 36 L 81 36 L 79 34 L 78 34 L 77 33 L 76 33 L 75 32 L 74 32 L 73 31 L 71 31 L 70 30 L 68 30 L 67 29 L 66 29 L 65 28 L 66 27 L 66 26 L 69 23 L 71 25 L 69 23 L 70 22 L 70 21 L 71 20 L 72 20 L 77 15 L 78 15 L 80 13 L 81 13 L 82 12 L 83 12 L 84 11 L 85 11 L 86 10 L 87 10 L 88 9 L 89 9 L 90 8 L 92 8 L 93 7 L 96 7 L 97 6 L 100 6 L 101 5 z" />
</svg>
</svg>
</svg>
</svg>