<?xml version="1.0" encoding="UTF-8"?>
<svg xmlns="http://www.w3.org/2000/svg" xmlns:xlink="http://www.w3.org/1999/xlink"
     width="166" height="113" viewBox="0 0 166 113">
<defs>
</defs>
<svg id="0" fill="grey" stroke="black">
<path d="M 57 0 L 56 1 L 53 1 L 52 2 L 50 2 L 49 3 L 48 3 L 46 5 L 45 5 L 40 10 L 40 11 L 38 13 L 38 14 L 37 15 L 37 17 L 36 18 L 36 22 L 35 23 L 35 29 L 36 30 L 36 34 L 37 35 L 36 36 L 25 36 L 24 37 L 21 37 L 20 38 L 19 38 L 18 39 L 16 39 L 14 41 L 13 41 L 11 43 L 10 43 L 8 45 L 8 46 L 4 50 L 4 51 L 3 52 L 3 53 L 2 54 L 2 56 L 1 57 L 1 59 L 0 60 L 0 76 L 1 77 L 1 79 L 2 80 L 2 82 L 3 83 L 3 84 L 4 85 L 4 86 L 7 89 L 7 90 L 8 91 L 9 91 L 13 95 L 14 95 L 16 97 L 17 97 L 18 98 L 20 98 L 21 99 L 23 99 L 24 100 L 39 100 L 40 99 L 42 99 L 43 98 L 44 98 L 45 97 L 47 97 L 48 96 L 49 96 L 53 92 L 54 93 L 54 94 L 55 95 L 55 96 L 60 101 L 61 101 L 64 104 L 65 104 L 66 105 L 67 105 L 68 106 L 69 106 L 70 107 L 71 107 L 72 108 L 74 108 L 75 109 L 77 109 L 78 110 L 81 110 L 82 111 L 86 111 L 87 112 L 105 112 L 106 111 L 110 111 L 111 110 L 114 110 L 115 109 L 117 109 L 118 108 L 120 108 L 121 107 L 123 107 L 125 105 L 126 105 L 127 104 L 128 104 L 129 103 L 130 103 L 138 95 L 138 94 L 141 91 L 147 91 L 148 90 L 150 90 L 151 89 L 152 89 L 153 88 L 154 88 L 157 85 L 158 85 L 160 83 L 160 82 L 162 80 L 162 79 L 163 78 L 163 76 L 164 75 L 164 72 L 165 71 L 165 62 L 164 61 L 164 59 L 163 58 L 163 56 L 162 55 L 162 54 L 161 53 L 161 52 L 155 46 L 154 46 L 153 45 L 152 45 L 151 44 L 149 44 L 148 43 L 145 43 L 144 42 L 142 42 L 141 41 L 141 40 L 140 39 L 140 36 L 139 35 L 139 33 L 138 32 L 138 30 L 136 28 L 136 27 L 133 24 L 133 23 L 132 22 L 131 22 L 128 19 L 127 19 L 126 18 L 125 18 L 124 17 L 122 17 L 121 16 L 118 16 L 117 15 L 105 15 L 104 16 L 101 16 L 100 17 L 98 17 L 97 18 L 96 18 L 93 21 L 92 21 L 91 22 L 91 23 L 90 24 L 89 24 L 88 23 L 88 19 L 87 18 L 87 15 L 86 14 L 86 13 L 84 11 L 84 10 L 79 5 L 78 5 L 76 3 L 75 3 L 74 2 L 72 2 L 71 1 L 68 1 L 67 0 z" />
<path d="M 56 1 L 57 0 L 67 0 L 68 1 L 71 1 L 72 2 L 73 2 L 74 3 L 75 3 L 76 4 L 77 4 L 84 11 L 84 12 L 86 14 L 86 15 L 87 16 L 87 18 L 88 19 L 88 23 L 89 24 L 90 24 L 94 20 L 95 20 L 97 18 L 98 18 L 99 17 L 100 17 L 101 16 L 104 16 L 105 15 L 117 15 L 118 16 L 121 16 L 122 17 L 123 17 L 124 18 L 125 18 L 126 19 L 127 19 L 129 21 L 130 21 L 135 26 L 135 27 L 137 29 L 137 30 L 138 31 L 138 32 L 139 33 L 139 35 L 140 36 L 140 39 L 141 40 L 141 42 L 144 42 L 145 43 L 148 43 L 149 44 L 151 44 L 153 46 L 154 46 L 161 53 L 161 54 L 163 56 L 163 58 L 164 59 L 164 61 L 165 62 L 165 71 L 164 72 L 164 75 L 163 76 L 163 77 L 162 78 L 162 79 L 160 81 L 160 82 L 155 87 L 154 87 L 152 89 L 151 89 L 150 90 L 148 90 L 147 91 L 141 91 L 140 92 L 139 92 L 138 93 L 138 94 L 136 96 L 136 97 L 133 100 L 132 100 L 129 103 L 128 103 L 126 105 L 125 105 L 124 106 L 123 106 L 122 107 L 121 107 L 120 108 L 118 108 L 117 109 L 115 109 L 114 110 L 111 110 L 110 111 L 106 111 L 105 112 L 87 112 L 86 111 L 82 111 L 81 110 L 78 110 L 77 109 L 75 109 L 74 108 L 72 108 L 71 107 L 70 107 L 69 106 L 68 106 L 66 104 L 65 104 L 64 103 L 63 103 L 55 95 L 55 94 L 53 92 L 51 94 L 50 94 L 48 96 L 47 96 L 46 97 L 45 97 L 44 98 L 43 98 L 42 99 L 40 99 L 39 100 L 24 100 L 23 99 L 21 99 L 20 98 L 19 98 L 18 97 L 17 97 L 16 96 L 15 96 L 12 93 L 11 93 L 6 88 L 6 87 L 4 85 L 4 84 L 2 82 L 2 80 L 1 79 L 1 77 L 0 76 L 0 60 L 1 59 L 1 57 L 2 56 L 2 55 L 3 54 L 3 53 L 4 52 L 4 51 L 6 49 L 6 48 L 12 42 L 13 42 L 15 40 L 16 40 L 17 39 L 18 39 L 19 38 L 20 38 L 21 37 L 24 37 L 25 36 L 36 36 L 37 35 L 36 34 L 36 30 L 35 29 L 35 23 L 36 22 L 36 18 L 37 17 L 37 16 L 38 15 L 38 14 L 40 12 L 40 11 L 47 4 L 48 4 L 49 3 L 50 3 L 51 2 L 52 2 L 53 1 z" />
<svg id="1">
<path d="M 59 2 L 58 3 L 55 3 L 54 4 L 52 4 L 51 5 L 50 5 L 49 6 L 48 6 L 42 12 L 42 13 L 40 15 L 40 17 L 39 18 L 39 20 L 38 21 L 38 33 L 39 34 L 39 36 L 40 37 L 39 38 L 27 38 L 26 39 L 23 39 L 22 40 L 20 40 L 19 41 L 18 41 L 17 42 L 16 42 L 14 44 L 13 44 L 8 49 L 8 50 L 6 52 L 6 53 L 5 54 L 5 55 L 4 56 L 4 57 L 3 58 L 3 61 L 2 62 L 2 74 L 3 75 L 3 77 L 4 78 L 4 80 L 5 81 L 5 82 L 6 83 L 6 84 L 8 86 L 8 87 L 12 91 L 13 91 L 16 94 L 17 94 L 18 95 L 19 95 L 20 96 L 22 96 L 23 97 L 26 97 L 27 98 L 38 98 L 39 97 L 41 97 L 42 96 L 43 96 L 44 95 L 45 95 L 46 94 L 47 94 L 49 92 L 50 92 L 53 89 L 54 89 L 55 90 L 55 91 L 57 93 L 57 94 L 64 101 L 65 101 L 66 102 L 67 102 L 69 104 L 70 104 L 71 105 L 73 105 L 74 106 L 75 106 L 76 107 L 79 107 L 80 108 L 83 108 L 84 109 L 89 109 L 90 110 L 102 110 L 103 109 L 109 109 L 110 108 L 113 108 L 114 107 L 116 107 L 117 106 L 119 106 L 120 105 L 121 105 L 122 104 L 123 104 L 124 103 L 125 103 L 127 101 L 128 101 L 131 98 L 132 98 L 134 96 L 134 95 L 136 93 L 136 92 L 139 89 L 146 89 L 147 88 L 149 88 L 150 87 L 151 87 L 153 85 L 154 85 L 158 81 L 158 80 L 160 78 L 160 77 L 161 76 L 161 75 L 162 74 L 162 71 L 163 70 L 163 64 L 162 63 L 162 60 L 161 59 L 161 57 L 159 55 L 159 54 L 153 48 L 152 48 L 151 47 L 150 47 L 149 46 L 147 46 L 146 45 L 141 45 L 138 42 L 138 37 L 137 36 L 137 34 L 136 33 L 136 32 L 135 31 L 135 30 L 133 28 L 133 27 L 129 23 L 128 23 L 126 21 L 125 21 L 124 20 L 123 20 L 122 19 L 121 19 L 120 18 L 116 18 L 115 17 L 107 17 L 106 18 L 103 18 L 102 19 L 100 19 L 99 20 L 98 20 L 96 22 L 95 22 L 89 28 L 88 28 L 87 27 L 87 25 L 86 24 L 86 20 L 85 19 L 85 17 L 84 16 L 84 15 L 82 13 L 82 12 L 76 6 L 75 6 L 74 5 L 73 5 L 72 4 L 71 4 L 70 3 L 66 3 L 65 2 z" />
<svg id="2">
<path d="M 58 3 L 59 2 L 65 2 L 66 3 L 70 3 L 71 4 L 72 4 L 74 6 L 75 6 L 77 8 L 78 8 L 79 9 L 79 10 L 83 14 L 83 15 L 84 16 L 84 17 L 85 18 L 85 19 L 86 20 L 86 24 L 87 25 L 87 28 L 90 28 L 97 21 L 98 21 L 100 19 L 102 19 L 103 18 L 106 18 L 107 17 L 115 17 L 116 18 L 120 18 L 121 19 L 122 19 L 123 20 L 124 20 L 126 22 L 127 22 L 134 29 L 134 30 L 135 31 L 135 32 L 137 34 L 137 36 L 138 37 L 138 42 L 139 43 L 139 44 L 140 44 L 141 45 L 146 45 L 147 46 L 149 46 L 151 48 L 152 48 L 154 50 L 155 50 L 156 51 L 156 52 L 159 55 L 159 56 L 161 58 L 161 59 L 162 60 L 162 63 L 163 64 L 163 70 L 162 71 L 162 74 L 160 76 L 160 77 L 159 78 L 159 79 L 153 85 L 152 85 L 150 87 L 149 87 L 148 88 L 147 88 L 146 89 L 138 89 L 136 91 L 136 92 L 134 94 L 134 95 L 129 100 L 128 100 L 126 102 L 125 102 L 124 103 L 123 103 L 122 104 L 121 104 L 119 106 L 117 106 L 116 107 L 114 107 L 113 108 L 110 108 L 109 109 L 103 109 L 102 110 L 90 110 L 89 109 L 84 109 L 83 108 L 80 108 L 79 107 L 76 107 L 75 106 L 74 106 L 73 105 L 72 105 L 71 104 L 70 104 L 69 103 L 68 103 L 66 101 L 65 101 L 56 92 L 56 91 L 55 90 L 55 89 L 52 89 L 48 93 L 47 93 L 45 95 L 44 95 L 43 96 L 42 96 L 41 97 L 39 97 L 38 98 L 27 98 L 26 97 L 23 97 L 22 96 L 21 96 L 20 95 L 19 95 L 18 94 L 17 94 L 15 92 L 14 92 L 8 86 L 8 85 L 6 83 L 6 82 L 5 81 L 5 80 L 4 79 L 4 78 L 3 77 L 3 75 L 2 74 L 2 62 L 3 61 L 3 58 L 4 57 L 4 56 L 5 55 L 5 54 L 7 52 L 7 51 L 15 43 L 16 43 L 17 42 L 18 42 L 20 40 L 22 40 L 23 39 L 26 39 L 27 38 L 40 38 L 40 37 L 39 36 L 39 34 L 38 33 L 38 21 L 39 20 L 39 18 L 40 17 L 40 16 L 41 15 L 41 14 L 45 10 L 45 9 L 46 8 L 47 8 L 49 6 L 50 6 L 51 5 L 52 5 L 53 4 L 54 4 L 55 3 z" />
</svg>
</svg>
</svg>
</svg>