<?xml version="1.0" encoding="UTF-8"?>
<svg xmlns="http://www.w3.org/2000/svg" xmlns:xlink="http://www.w3.org/1999/xlink"
     width="799" height="2195" viewBox="0 0 799 2195" style="background-color:rgb(255, 255, 255);">
<defs>
</defs>
<g id="0" fill="grey" stroke="black">
<path d="M 443 0 L 442 1 L 440 1 L 439 2 L 438 2 L 437 3 L 436 3 L 434 5 L 433 5 L 433 6 L 430 9 L 430 10 L 428 12 L 428 13 L 423 18 L 412 18 L 411 19 L 410 19 L 406 23 L 406 24 L 405 25 L 405 26 L 404 27 L 404 28 L 403 29 L 403 31 L 402 32 L 402 36 L 401 37 L 401 50 L 397 54 L 397 55 L 395 57 L 395 58 L 394 59 L 394 60 L 392 62 L 392 63 L 391 64 L 391 65 L 390 66 L 390 67 L 389 68 L 389 69 L 388 70 L 388 71 L 387 72 L 387 73 L 386 74 L 386 75 L 385 76 L 385 78 L 384 79 L 384 80 L 383 81 L 383 83 L 382 84 L 382 86 L 381 87 L 381 88 L 380 89 L 380 91 L 379 92 L 379 95 L 378 96 L 378 98 L 377 99 L 377 101 L 376 102 L 376 104 L 375 105 L 375 108 L 374 109 L 374 112 L 373 113 L 373 116 L 372 117 L 372 120 L 371 121 L 371 124 L 370 125 L 370 128 L 369 129 L 369 133 L 368 134 L 368 138 L 367 139 L 367 144 L 366 145 L 366 149 L 365 150 L 365 151 L 364 152 L 363 152 L 362 153 L 361 153 L 360 154 L 358 154 L 357 155 L 356 155 L 355 156 L 354 156 L 353 157 L 352 157 L 351 158 L 350 158 L 349 159 L 348 159 L 347 160 L 346 160 L 345 161 L 344 161 L 343 162 L 342 162 L 341 163 L 340 163 L 338 165 L 337 165 L 336 166 L 335 166 L 333 168 L 332 168 L 330 170 L 329 170 L 327 172 L 326 172 L 323 175 L 322 175 L 319 178 L 318 178 L 310 186 L 309 186 L 309 187 L 301 195 L 301 196 L 297 200 L 297 201 L 295 203 L 295 204 L 293 206 L 293 207 L 291 209 L 291 210 L 290 211 L 290 212 L 289 213 L 289 214 L 288 215 L 288 216 L 287 217 L 287 218 L 286 219 L 286 220 L 285 221 L 285 222 L 284 223 L 284 224 L 283 225 L 283 227 L 282 228 L 282 230 L 281 231 L 281 233 L 280 234 L 280 236 L 279 237 L 279 241 L 278 242 L 278 246 L 277 247 L 277 265 L 276 266 L 268 258 L 267 258 L 264 255 L 263 255 L 260 252 L 259 252 L 258 251 L 257 251 L 255 249 L 254 249 L 253 248 L 252 248 L 251 247 L 250 247 L 248 245 L 247 245 L 246 244 L 245 244 L 244 243 L 243 243 L 242 242 L 241 242 L 240 241 L 239 241 L 238 240 L 237 240 L 236 239 L 235 239 L 234 238 L 233 238 L 232 237 L 230 237 L 229 236 L 228 236 L 227 235 L 226 235 L 225 234 L 223 234 L 222 233 L 220 233 L 219 232 L 218 232 L 217 231 L 215 231 L 214 230 L 211 230 L 210 229 L 207 229 L 206 228 L 203 228 L 202 227 L 199 227 L 198 226 L 198 217 L 197 216 L 197 210 L 196 209 L 196 205 L 195 204 L 195 201 L 194 200 L 194 197 L 193 196 L 193 194 L 192 193 L 192 191 L 191 190 L 191 188 L 190 187 L 190 185 L 189 184 L 189 183 L 188 182 L 188 181 L 187 180 L 187 178 L 186 177 L 186 176 L 185 175 L 185 174 L 184 173 L 184 172 L 182 170 L 182 169 L 181 168 L 181 167 L 179 165 L 179 164 L 177 162 L 177 161 L 174 158 L 174 157 L 170 153 L 170 152 L 162 144 L 161 144 L 157 140 L 156 140 L 153 137 L 152 137 L 150 135 L 149 135 L 147 133 L 146 133 L 145 132 L 144 132 L 142 130 L 141 130 L 140 129 L 139 129 L 138 128 L 137 128 L 136 127 L 135 127 L 134 126 L 132 126 L 131 125 L 130 125 L 129 124 L 128 124 L 127 123 L 125 123 L 124 122 L 123 122 L 122 121 L 120 121 L 119 120 L 117 120 L 116 119 L 114 119 L 113 118 L 111 118 L 110 117 L 107 117 L 106 116 L 103 116 L 102 115 L 99 115 L 98 114 L 94 114 L 93 113 L 86 113 L 85 112 L 67 112 L 66 113 L 62 113 L 61 114 L 58 114 L 57 115 L 55 115 L 54 116 L 52 116 L 51 117 L 46 117 L 45 118 L 41 118 L 40 119 L 37 119 L 36 120 L 34 120 L 33 121 L 31 121 L 30 122 L 29 122 L 28 123 L 27 123 L 26 124 L 25 124 L 23 126 L 22 126 L 19 129 L 18 129 L 18 130 L 14 134 L 14 135 L 13 136 L 13 137 L 12 138 L 12 139 L 11 140 L 11 141 L 10 142 L 10 144 L 9 145 L 9 148 L 8 149 L 8 159 L 9 160 L 9 164 L 10 165 L 10 167 L 11 168 L 11 170 L 12 171 L 12 175 L 11 176 L 11 177 L 10 178 L 10 179 L 9 180 L 9 181 L 8 182 L 8 183 L 7 184 L 7 185 L 6 186 L 6 187 L 5 188 L 5 189 L 4 190 L 4 192 L 3 193 L 3 196 L 2 197 L 2 201 L 1 202 L 1 209 L 0 210 L 0 213 L 1 214 L 1 222 L 2 223 L 2 227 L 3 228 L 3 231 L 4 232 L 4 234 L 5 235 L 5 236 L 6 237 L 6 239 L 7 240 L 7 241 L 8 242 L 8 243 L 9 244 L 9 245 L 10 246 L 10 249 L 9 250 L 9 251 L 8 252 L 8 253 L 7 254 L 7 255 L 6 256 L 6 257 L 5 258 L 5 259 L 4 260 L 4 262 L 3 263 L 3 266 L 2 267 L 2 275 L 1 276 L 1 277 L 2 278 L 2 285 L 3 286 L 3 289 L 4 290 L 4 292 L 5 293 L 5 295 L 6 296 L 6 297 L 7 298 L 7 299 L 8 300 L 8 301 L 9 302 L 9 303 L 10 304 L 10 305 L 11 306 L 11 307 L 13 309 L 13 310 L 15 312 L 15 313 L 17 315 L 17 316 L 22 321 L 22 322 L 24 324 L 25 324 L 29 328 L 30 328 L 32 330 L 33 330 L 34 331 L 35 331 L 36 332 L 37 332 L 38 333 L 39 333 L 40 334 L 42 334 L 43 335 L 49 335 L 50 336 L 53 336 L 54 337 L 54 341 L 55 342 L 55 347 L 56 348 L 56 351 L 57 352 L 57 355 L 58 356 L 58 358 L 59 359 L 59 361 L 60 362 L 60 364 L 61 365 L 61 366 L 62 367 L 62 369 L 63 370 L 63 371 L 64 372 L 64 373 L 65 374 L 65 375 L 66 376 L 66 377 L 68 379 L 68 380 L 69 381 L 69 382 L 71 384 L 71 385 L 73 387 L 73 388 L 76 391 L 76 392 L 89 405 L 90 405 L 93 408 L 94 408 L 96 410 L 97 410 L 99 412 L 100 412 L 102 414 L 103 414 L 104 415 L 105 415 L 106 416 L 107 416 L 108 417 L 109 417 L 110 418 L 111 418 L 112 419 L 113 419 L 114 420 L 116 420 L 117 421 L 118 421 L 119 422 L 121 422 L 122 423 L 124 423 L 125 424 L 127 424 L 128 425 L 130 425 L 131 426 L 133 426 L 134 427 L 138 427 L 142 431 L 142 432 L 143 433 L 143 434 L 144 435 L 144 436 L 145 437 L 145 438 L 146 439 L 146 440 L 148 442 L 148 443 L 149 444 L 149 445 L 151 447 L 151 448 L 152 449 L 152 450 L 155 453 L 155 454 L 157 456 L 157 457 L 160 460 L 160 461 L 163 464 L 163 465 L 167 469 L 167 470 L 177 480 L 177 481 L 178 482 L 179 482 L 189 492 L 190 492 L 195 497 L 196 497 L 199 500 L 200 500 L 203 503 L 204 503 L 206 505 L 207 505 L 209 507 L 210 507 L 212 509 L 213 509 L 215 511 L 216 511 L 217 512 L 218 512 L 220 514 L 221 514 L 222 515 L 223 515 L 225 517 L 226 517 L 227 518 L 228 518 L 229 519 L 230 519 L 231 520 L 232 520 L 233 521 L 234 521 L 235 522 L 236 522 L 237 523 L 238 523 L 239 524 L 241 524 L 242 525 L 243 525 L 244 526 L 245 526 L 246 527 L 247 527 L 248 528 L 249 528 L 250 529 L 252 529 L 253 530 L 254 530 L 255 531 L 256 531 L 257 532 L 258 532 L 259 533 L 260 533 L 261 534 L 263 534 L 264 535 L 265 535 L 266 536 L 267 536 L 268 537 L 269 537 L 270 538 L 272 538 L 273 539 L 274 539 L 275 540 L 276 540 L 277 541 L 279 541 L 280 542 L 281 542 L 282 543 L 283 543 L 284 544 L 286 544 L 287 545 L 288 545 L 289 546 L 291 546 L 292 547 L 293 547 L 294 548 L 296 548 L 297 549 L 299 549 L 300 550 L 302 550 L 303 551 L 305 551 L 306 552 L 307 552 L 308 553 L 308 2193 L 309 2194 L 571 2194 L 571 681 L 573 679 L 574 680 L 576 680 L 577 681 L 579 681 L 580 682 L 583 682 L 584 683 L 587 683 L 588 684 L 592 684 L 593 685 L 597 685 L 598 686 L 603 686 L 604 687 L 611 687 L 612 688 L 651 688 L 652 687 L 658 687 L 659 686 L 664 686 L 665 685 L 668 685 L 669 684 L 672 684 L 673 683 L 676 683 L 677 682 L 679 682 L 680 681 L 682 681 L 683 680 L 684 680 L 685 679 L 687 679 L 688 678 L 689 678 L 690 677 L 692 677 L 693 676 L 694 676 L 695 675 L 696 675 L 697 674 L 698 674 L 700 672 L 701 672 L 702 671 L 703 671 L 705 669 L 706 669 L 708 667 L 709 667 L 711 665 L 712 665 L 717 660 L 718 660 L 724 654 L 724 653 L 728 649 L 728 648 L 731 645 L 731 644 L 734 641 L 736 641 L 737 640 L 739 640 L 740 639 L 741 639 L 742 638 L 743 638 L 744 637 L 745 637 L 746 636 L 747 636 L 749 634 L 750 634 L 756 628 L 756 627 L 758 625 L 758 624 L 759 623 L 759 621 L 760 620 L 760 617 L 761 616 L 761 605 L 760 604 L 762 602 L 764 602 L 765 601 L 768 601 L 769 600 L 771 600 L 772 599 L 773 599 L 774 598 L 775 598 L 776 597 L 777 597 L 778 596 L 779 596 L 783 592 L 784 592 L 784 591 L 788 587 L 788 586 L 790 584 L 790 583 L 791 582 L 791 581 L 792 580 L 792 579 L 793 578 L 793 576 L 794 575 L 794 573 L 795 572 L 795 569 L 796 568 L 796 564 L 797 563 L 797 554 L 798 553 L 798 534 L 797 533 L 797 530 L 796 529 L 796 528 L 795 527 L 795 526 L 794 525 L 794 524 L 793 523 L 793 522 L 791 520 L 791 519 L 786 514 L 785 514 L 782 511 L 781 511 L 780 510 L 779 510 L 777 508 L 776 508 L 775 507 L 774 507 L 773 506 L 771 506 L 770 505 L 769 505 L 767 503 L 763 503 L 762 502 L 760 502 L 759 501 L 757 501 L 756 500 L 755 501 L 755 503 L 757 505 L 757 507 L 756 508 L 755 508 L 754 509 L 753 509 L 752 510 L 751 510 L 750 511 L 749 511 L 748 512 L 747 512 L 746 513 L 745 513 L 744 514 L 743 514 L 743 517 L 744 518 L 744 521 L 745 522 L 745 526 L 746 527 L 746 535 L 747 536 L 746 537 L 745 537 L 741 533 L 740 533 L 738 531 L 737 531 L 736 530 L 735 530 L 734 529 L 733 529 L 732 528 L 730 528 L 729 527 L 727 527 L 726 526 L 723 526 L 722 525 L 706 525 L 705 526 L 700 526 L 699 527 L 696 527 L 695 528 L 693 528 L 692 529 L 689 529 L 688 530 L 687 530 L 686 531 L 684 531 L 683 532 L 682 532 L 681 533 L 678 533 L 676 531 L 675 531 L 673 529 L 672 529 L 671 528 L 670 528 L 669 527 L 668 527 L 667 526 L 665 526 L 664 525 L 661 525 L 660 524 L 650 524 L 649 525 L 646 525 L 645 526 L 644 526 L 643 527 L 642 527 L 641 528 L 640 528 L 639 529 L 638 529 L 637 530 L 636 530 L 633 527 L 633 526 L 626 519 L 626 518 L 613 505 L 612 505 L 611 504 L 610 504 L 609 503 L 606 503 L 605 502 L 595 502 L 594 503 L 589 503 L 588 504 L 585 504 L 584 505 L 583 505 L 567 489 L 567 447 L 566 446 L 566 431 L 580 417 L 580 416 L 584 412 L 584 411 L 586 409 L 586 408 L 588 406 L 588 405 L 590 403 L 590 402 L 591 401 L 591 400 L 592 399 L 592 398 L 593 397 L 593 396 L 594 395 L 594 394 L 595 393 L 595 392 L 596 391 L 596 390 L 597 389 L 597 387 L 598 386 L 598 384 L 599 383 L 599 381 L 600 380 L 600 377 L 601 376 L 601 373 L 602 372 L 602 368 L 603 367 L 603 338 L 602 337 L 602 334 L 603 333 L 603 304 L 602 303 L 602 299 L 601 298 L 601 295 L 600 294 L 600 291 L 599 290 L 599 288 L 600 287 L 600 284 L 601 283 L 601 280 L 602 279 L 602 275 L 603 274 L 603 245 L 602 244 L 602 240 L 601 239 L 601 236 L 600 235 L 600 232 L 599 231 L 599 229 L 598 228 L 598 226 L 597 225 L 597 223 L 596 222 L 596 221 L 595 220 L 595 219 L 594 218 L 594 217 L 593 216 L 593 215 L 592 214 L 592 213 L 591 212 L 591 211 L 590 210 L 590 209 L 588 207 L 588 206 L 586 204 L 586 203 L 584 201 L 584 200 L 580 196 L 580 195 L 563 178 L 562 178 L 559 175 L 558 175 L 555 172 L 554 172 L 552 170 L 551 170 L 549 168 L 548 168 L 546 166 L 545 166 L 544 165 L 543 165 L 541 163 L 540 163 L 539 162 L 538 162 L 537 161 L 536 161 L 535 160 L 534 160 L 533 159 L 532 159 L 531 158 L 530 158 L 529 157 L 528 157 L 527 156 L 526 156 L 525 155 L 524 155 L 523 154 L 521 154 L 520 153 L 519 153 L 518 152 L 517 152 L 516 151 L 514 151 L 513 150 L 511 150 L 510 149 L 508 149 L 506 147 L 506 142 L 507 141 L 507 129 L 508 128 L 508 99 L 507 98 L 507 95 L 506 94 L 506 92 L 505 91 L 505 90 L 504 89 L 504 87 L 502 85 L 502 84 L 499 81 L 499 80 L 498 79 L 498 78 L 497 77 L 497 68 L 498 67 L 498 66 L 499 65 L 499 64 L 512 51 L 513 51 L 523 41 L 523 40 L 525 38 L 525 36 L 526 35 L 526 23 L 525 22 L 525 21 L 524 20 L 524 19 L 523 18 L 523 17 L 516 10 L 515 10 L 514 9 L 513 9 L 511 7 L 510 7 L 509 6 L 508 6 L 507 5 L 505 5 L 504 4 L 503 4 L 502 3 L 490 3 L 489 4 L 480 4 L 479 5 L 465 5 L 464 4 L 463 4 L 462 3 L 460 3 L 459 2 L 457 2 L 456 1 L 453 1 L 452 0 z" />
<path d="M 276 266 L 277 265 L 278 266 L 277 267 z" />
<path d="M 442 1 L 443 0 L 452 0 L 453 1 L 456 1 L 457 2 L 459 2 L 460 3 L 462 3 L 463 4 L 464 4 L 465 5 L 479 5 L 480 4 L 489 4 L 490 3 L 502 3 L 503 4 L 504 4 L 505 5 L 507 5 L 508 6 L 509 6 L 511 8 L 512 8 L 513 9 L 514 9 L 524 19 L 524 20 L 525 21 L 525 22 L 526 23 L 526 35 L 525 36 L 525 37 L 524 38 L 524 39 L 511 52 L 510 52 L 500 62 L 500 63 L 499 64 L 499 65 L 498 66 L 498 67 L 497 68 L 497 77 L 498 78 L 498 79 L 499 80 L 499 81 L 500 82 L 500 83 L 503 86 L 503 87 L 504 88 L 504 89 L 505 90 L 505 91 L 506 92 L 506 94 L 507 95 L 507 98 L 508 99 L 508 128 L 507 129 L 507 141 L 506 142 L 506 147 L 508 149 L 510 149 L 511 150 L 513 150 L 514 151 L 516 151 L 517 152 L 518 152 L 519 153 L 520 153 L 521 154 L 523 154 L 524 155 L 525 155 L 526 156 L 527 156 L 528 157 L 529 157 L 530 158 L 531 158 L 532 159 L 533 159 L 534 160 L 535 160 L 536 161 L 537 161 L 538 162 L 539 162 L 541 164 L 542 164 L 543 165 L 544 165 L 546 167 L 547 167 L 549 169 L 550 169 L 552 171 L 553 171 L 556 174 L 557 174 L 560 177 L 561 177 L 569 185 L 570 185 L 572 187 L 572 188 L 581 197 L 581 198 L 585 202 L 585 203 L 587 205 L 587 206 L 589 208 L 589 209 L 591 211 L 591 212 L 592 213 L 592 214 L 593 215 L 593 216 L 594 217 L 594 218 L 595 219 L 595 220 L 596 221 L 596 222 L 597 223 L 597 225 L 598 226 L 598 228 L 599 229 L 599 231 L 600 232 L 600 235 L 601 236 L 601 239 L 602 240 L 602 244 L 603 245 L 603 274 L 602 275 L 602 279 L 601 280 L 601 283 L 600 284 L 600 287 L 599 288 L 599 290 L 600 291 L 600 294 L 601 295 L 601 298 L 602 299 L 602 303 L 603 304 L 603 333 L 602 334 L 602 337 L 603 338 L 603 367 L 602 368 L 602 372 L 601 373 L 601 376 L 600 377 L 600 380 L 599 381 L 599 383 L 598 384 L 598 386 L 597 387 L 597 389 L 596 390 L 596 391 L 595 392 L 595 393 L 594 394 L 594 395 L 593 396 L 593 397 L 592 398 L 592 399 L 591 400 L 591 401 L 589 403 L 589 404 L 587 406 L 587 407 L 585 409 L 585 410 L 581 414 L 581 415 L 572 424 L 572 425 L 570 427 L 569 427 L 567 429 L 567 430 L 566 431 L 566 446 L 567 447 L 567 489 L 568 490 L 568 491 L 582 505 L 584 505 L 585 504 L 588 504 L 589 503 L 594 503 L 595 502 L 605 502 L 606 503 L 609 503 L 610 504 L 611 504 L 627 520 L 627 521 L 634 528 L 634 529 L 635 530 L 637 530 L 638 529 L 639 529 L 640 528 L 641 528 L 642 527 L 643 527 L 644 526 L 645 526 L 646 525 L 649 525 L 650 524 L 660 524 L 661 525 L 664 525 L 665 526 L 667 526 L 668 527 L 669 527 L 670 528 L 671 528 L 673 530 L 674 530 L 677 533 L 681 533 L 682 532 L 683 532 L 684 531 L 686 531 L 687 530 L 688 530 L 689 529 L 692 529 L 693 528 L 695 528 L 696 527 L 699 527 L 700 526 L 705 526 L 706 525 L 722 525 L 723 526 L 726 526 L 727 527 L 729 527 L 730 528 L 732 528 L 733 529 L 734 529 L 735 530 L 736 530 L 738 532 L 739 532 L 743 536 L 744 536 L 745 537 L 746 537 L 747 536 L 746 535 L 746 527 L 745 526 L 745 522 L 744 521 L 744 518 L 743 517 L 743 515 L 744 514 L 745 514 L 747 512 L 748 512 L 749 511 L 750 511 L 751 510 L 752 510 L 753 509 L 754 509 L 755 508 L 756 508 L 757 507 L 757 505 L 756 504 L 756 503 L 755 502 L 755 501 L 756 500 L 757 501 L 759 501 L 760 502 L 762 502 L 763 503 L 766 503 L 767 504 L 768 504 L 769 505 L 770 505 L 771 506 L 773 506 L 774 507 L 775 507 L 777 509 L 778 509 L 779 510 L 780 510 L 783 513 L 784 513 L 792 521 L 792 522 L 794 524 L 794 525 L 795 526 L 795 527 L 796 528 L 796 529 L 797 530 L 797 533 L 798 534 L 798 553 L 797 554 L 797 563 L 796 564 L 796 568 L 795 569 L 795 572 L 794 573 L 794 575 L 793 576 L 793 578 L 792 579 L 792 580 L 791 581 L 791 582 L 789 584 L 789 585 L 785 589 L 785 590 L 782 593 L 781 593 L 777 597 L 776 597 L 775 598 L 774 598 L 773 599 L 772 599 L 771 600 L 769 600 L 768 601 L 765 601 L 764 602 L 762 602 L 760 604 L 761 605 L 761 616 L 760 617 L 760 620 L 759 621 L 759 623 L 757 625 L 757 626 L 748 635 L 747 635 L 745 637 L 744 637 L 743 638 L 742 638 L 741 639 L 740 639 L 739 640 L 737 640 L 736 641 L 734 641 L 733 642 L 732 642 L 732 643 L 729 646 L 729 647 L 725 651 L 725 652 L 716 661 L 715 661 L 710 666 L 709 666 L 707 668 L 706 668 L 704 670 L 703 670 L 701 672 L 700 672 L 699 673 L 698 673 L 696 675 L 695 675 L 694 676 L 693 676 L 692 677 L 690 677 L 689 678 L 688 678 L 687 679 L 685 679 L 684 680 L 683 680 L 682 681 L 680 681 L 679 682 L 677 682 L 676 683 L 673 683 L 672 684 L 669 684 L 668 685 L 665 685 L 664 686 L 659 686 L 658 687 L 652 687 L 651 688 L 612 688 L 611 687 L 604 687 L 603 686 L 598 686 L 597 685 L 593 685 L 592 684 L 588 684 L 587 683 L 584 683 L 583 682 L 580 682 L 579 681 L 577 681 L 576 680 L 574 680 L 573 679 L 571 681 L 571 2193 L 570 2194 L 309 2194 L 308 2193 L 308 553 L 307 552 L 306 552 L 305 551 L 303 551 L 302 550 L 300 550 L 299 549 L 297 549 L 296 548 L 294 548 L 293 547 L 292 547 L 291 546 L 289 546 L 288 545 L 287 545 L 286 544 L 284 544 L 283 543 L 282 543 L 281 542 L 280 542 L 279 541 L 277 541 L 276 540 L 275 540 L 274 539 L 273 539 L 272 538 L 270 538 L 269 537 L 268 537 L 267 536 L 266 536 L 265 535 L 264 535 L 263 534 L 261 534 L 260 533 L 259 533 L 258 532 L 257 532 L 256 531 L 255 531 L 254 530 L 253 530 L 252 529 L 250 529 L 249 528 L 248 528 L 247 527 L 246 527 L 245 526 L 244 526 L 243 525 L 242 525 L 241 524 L 239 524 L 238 523 L 237 523 L 236 522 L 235 522 L 234 521 L 233 521 L 232 520 L 231 520 L 230 519 L 229 519 L 228 518 L 227 518 L 225 516 L 224 516 L 223 515 L 222 515 L 220 513 L 219 513 L 218 512 L 217 512 L 215 510 L 214 510 L 212 508 L 211 508 L 209 506 L 208 506 L 206 504 L 205 504 L 202 501 L 201 501 L 198 498 L 197 498 L 192 493 L 191 493 L 181 483 L 180 483 L 176 479 L 176 478 L 166 468 L 166 467 L 162 463 L 162 462 L 159 459 L 159 458 L 156 455 L 156 454 L 154 452 L 154 451 L 151 448 L 151 447 L 150 446 L 150 445 L 148 443 L 148 442 L 147 441 L 147 440 L 145 438 L 145 437 L 144 436 L 144 435 L 143 434 L 143 433 L 142 432 L 142 431 L 141 430 L 141 429 L 140 428 L 139 428 L 138 427 L 134 427 L 133 426 L 131 426 L 130 425 L 128 425 L 127 424 L 125 424 L 124 423 L 122 423 L 121 422 L 119 422 L 118 421 L 117 421 L 116 420 L 114 420 L 113 419 L 112 419 L 111 418 L 110 418 L 109 417 L 108 417 L 107 416 L 106 416 L 105 415 L 104 415 L 102 413 L 101 413 L 99 411 L 98 411 L 96 409 L 95 409 L 92 406 L 91 406 L 75 390 L 75 389 L 72 386 L 72 385 L 70 383 L 70 382 L 68 380 L 68 379 L 67 378 L 67 377 L 65 375 L 65 374 L 64 373 L 64 372 L 63 371 L 63 370 L 62 369 L 62 367 L 61 366 L 61 365 L 60 364 L 60 362 L 59 361 L 59 359 L 58 358 L 58 356 L 57 355 L 57 352 L 56 351 L 56 348 L 55 347 L 55 342 L 54 341 L 54 337 L 53 336 L 50 336 L 49 335 L 43 335 L 42 334 L 40 334 L 39 333 L 38 333 L 37 332 L 36 332 L 35 331 L 34 331 L 32 329 L 31 329 L 27 325 L 26 325 L 21 320 L 21 319 L 16 314 L 16 313 L 14 311 L 14 310 L 12 308 L 12 307 L 10 305 L 10 304 L 9 303 L 9 302 L 8 301 L 8 300 L 7 299 L 7 298 L 6 297 L 6 296 L 5 295 L 5 293 L 4 292 L 4 290 L 3 289 L 3 286 L 2 285 L 2 278 L 1 277 L 1 276 L 2 275 L 2 267 L 3 266 L 3 263 L 4 262 L 4 260 L 5 259 L 5 258 L 6 257 L 6 256 L 7 255 L 7 254 L 8 253 L 8 252 L 10 250 L 10 246 L 9 245 L 9 244 L 8 243 L 8 242 L 7 241 L 7 240 L 6 239 L 6 237 L 5 236 L 5 235 L 4 234 L 4 232 L 3 231 L 3 228 L 2 227 L 2 223 L 1 222 L 1 214 L 0 213 L 0 210 L 1 209 L 1 202 L 2 201 L 2 197 L 3 196 L 3 193 L 4 192 L 4 190 L 5 189 L 5 188 L 6 187 L 6 186 L 7 185 L 7 184 L 8 183 L 8 182 L 9 181 L 9 180 L 10 179 L 10 178 L 12 176 L 12 171 L 11 170 L 11 168 L 10 167 L 10 165 L 9 164 L 9 160 L 8 159 L 8 149 L 9 148 L 9 145 L 10 144 L 10 142 L 11 141 L 11 140 L 12 139 L 12 138 L 13 137 L 13 136 L 17 132 L 17 131 L 20 128 L 21 128 L 24 125 L 25 125 L 27 123 L 28 123 L 29 122 L 30 122 L 31 121 L 33 121 L 34 120 L 36 120 L 37 119 L 40 119 L 41 118 L 45 118 L 46 117 L 51 117 L 52 116 L 54 116 L 55 115 L 57 115 L 58 114 L 61 114 L 62 113 L 66 113 L 67 112 L 85 112 L 86 113 L 93 113 L 94 114 L 98 114 L 99 115 L 102 115 L 103 116 L 106 116 L 107 117 L 110 117 L 111 118 L 113 118 L 114 119 L 116 119 L 117 120 L 119 120 L 120 121 L 122 121 L 123 122 L 124 122 L 125 123 L 127 123 L 128 124 L 129 124 L 130 125 L 131 125 L 132 126 L 134 126 L 135 127 L 136 127 L 137 128 L 138 128 L 139 129 L 140 129 L 142 131 L 143 131 L 144 132 L 145 132 L 147 134 L 148 134 L 150 136 L 151 136 L 154 139 L 155 139 L 159 143 L 160 143 L 171 154 L 171 155 L 175 159 L 175 160 L 178 163 L 178 164 L 180 166 L 180 167 L 182 169 L 182 170 L 183 171 L 183 172 L 185 174 L 185 175 L 186 176 L 186 177 L 187 178 L 187 180 L 188 181 L 188 182 L 189 183 L 189 184 L 190 185 L 190 187 L 191 188 L 191 190 L 192 191 L 192 193 L 193 194 L 193 196 L 194 197 L 194 200 L 195 201 L 195 204 L 196 205 L 196 209 L 197 210 L 197 216 L 198 217 L 198 226 L 199 227 L 202 227 L 203 228 L 206 228 L 207 229 L 210 229 L 211 230 L 214 230 L 215 231 L 217 231 L 218 232 L 219 232 L 220 233 L 222 233 L 223 234 L 225 234 L 226 235 L 227 235 L 228 236 L 229 236 L 230 237 L 232 237 L 233 238 L 234 238 L 235 239 L 236 239 L 237 240 L 238 240 L 239 241 L 240 241 L 241 242 L 242 242 L 243 243 L 244 243 L 245 244 L 246 244 L 248 246 L 249 246 L 250 247 L 251 247 L 252 248 L 253 248 L 255 250 L 256 250 L 257 251 L 258 251 L 261 254 L 262 254 L 265 257 L 266 257 L 276 267 L 277 267 L 278 266 L 277 265 L 277 247 L 278 246 L 278 242 L 279 241 L 279 237 L 280 236 L 280 234 L 281 233 L 281 231 L 282 230 L 282 228 L 283 227 L 283 225 L 284 224 L 284 223 L 285 222 L 285 221 L 286 220 L 286 219 L 287 218 L 287 217 L 288 216 L 288 215 L 289 214 L 289 213 L 290 212 L 290 211 L 292 209 L 292 208 L 294 206 L 294 205 L 296 203 L 296 202 L 300 198 L 300 197 L 308 189 L 308 188 L 311 185 L 312 185 L 320 177 L 321 177 L 324 174 L 325 174 L 328 171 L 329 171 L 331 169 L 332 169 L 334 167 L 335 167 L 337 165 L 338 165 L 339 164 L 340 164 L 342 162 L 343 162 L 344 161 L 345 161 L 346 160 L 347 160 L 348 159 L 349 159 L 350 158 L 351 158 L 352 157 L 353 157 L 354 156 L 355 156 L 356 155 L 357 155 L 358 154 L 360 154 L 361 153 L 362 153 L 363 152 L 364 152 L 365 151 L 365 150 L 366 149 L 366 145 L 367 144 L 367 139 L 368 138 L 368 134 L 369 133 L 369 129 L 370 128 L 370 125 L 371 124 L 371 121 L 372 120 L 372 117 L 373 116 L 373 113 L 374 112 L 374 109 L 375 108 L 375 105 L 376 104 L 376 102 L 377 101 L 377 99 L 378 98 L 378 96 L 379 95 L 379 92 L 380 91 L 380 89 L 381 88 L 381 87 L 382 86 L 382 84 L 383 83 L 383 81 L 384 80 L 384 79 L 385 78 L 385 76 L 386 75 L 386 74 L 387 73 L 387 72 L 388 71 L 388 70 L 389 69 L 389 68 L 390 67 L 390 66 L 391 65 L 391 64 L 393 62 L 393 61 L 394 60 L 394 59 L 396 57 L 396 56 L 401 51 L 401 37 L 402 36 L 402 32 L 403 31 L 403 29 L 404 28 L 404 27 L 405 26 L 405 25 L 412 18 L 423 18 L 424 17 L 425 17 L 427 15 L 427 14 L 429 12 L 429 11 L 432 8 L 432 7 L 435 4 L 436 4 L 438 2 L 439 2 L 440 1 z" />
<g id="1" fill="grey" stroke="black">
<path d="M 572 661 L 571 662 L 571 666 L 572 667 L 572 668 L 573 668 L 574 669 L 575 669 L 576 670 L 579 670 L 580 671 L 582 671 L 583 672 L 586 672 L 587 673 L 590 673 L 591 674 L 594 674 L 595 675 L 599 675 L 600 676 L 605 676 L 606 677 L 613 677 L 614 678 L 652 678 L 653 677 L 661 677 L 662 676 L 665 676 L 665 674 L 661 674 L 660 675 L 653 675 L 652 676 L 633 676 L 632 675 L 623 675 L 622 674 L 616 674 L 615 673 L 611 673 L 610 672 L 606 672 L 605 671 L 602 671 L 601 670 L 598 670 L 597 669 L 595 669 L 594 668 L 591 668 L 590 667 L 588 667 L 587 666 L 585 666 L 584 665 L 583 665 L 582 664 L 580 664 L 579 663 L 578 663 L 577 662 L 575 662 L 574 661 z" />
<path d="M 760 517 L 759 518 L 758 518 L 757 519 L 756 519 L 756 526 L 757 527 L 757 541 L 756 542 L 757 543 L 762 543 L 766 539 L 766 525 L 765 524 L 765 521 L 764 520 L 764 518 L 763 517 z" />
<path d="M 569 506 L 568 507 L 568 534 L 569 535 L 569 573 L 570 574 L 570 611 L 571 612 L 571 646 L 570 647 L 571 647 L 572 648 L 572 649 L 573 650 L 574 650 L 575 651 L 576 651 L 577 652 L 579 652 L 580 653 L 581 653 L 582 654 L 584 654 L 585 655 L 586 655 L 587 656 L 589 656 L 590 657 L 592 657 L 593 658 L 595 658 L 596 659 L 598 659 L 599 660 L 602 660 L 603 661 L 606 661 L 607 662 L 611 662 L 612 663 L 616 663 L 617 664 L 622 664 L 623 665 L 632 665 L 633 666 L 657 666 L 658 665 L 666 665 L 667 664 L 672 664 L 673 663 L 676 663 L 677 662 L 680 662 L 681 661 L 684 661 L 685 660 L 687 660 L 688 659 L 690 659 L 691 658 L 692 658 L 693 657 L 695 657 L 696 656 L 697 656 L 698 655 L 699 655 L 700 654 L 701 654 L 702 653 L 703 653 L 704 652 L 705 652 L 706 651 L 707 651 L 709 649 L 710 649 L 713 646 L 714 646 L 724 636 L 724 635 L 726 633 L 727 633 L 728 632 L 730 632 L 731 631 L 733 631 L 734 630 L 735 630 L 736 629 L 738 629 L 739 628 L 740 628 L 742 626 L 743 626 L 748 621 L 748 620 L 750 618 L 750 615 L 751 614 L 751 607 L 750 606 L 750 604 L 749 603 L 749 601 L 748 600 L 748 599 L 747 598 L 747 597 L 744 594 L 746 592 L 761 592 L 762 591 L 765 591 L 766 590 L 767 590 L 768 589 L 770 589 L 771 588 L 772 588 L 780 580 L 780 579 L 782 577 L 782 576 L 783 575 L 783 573 L 784 572 L 784 570 L 785 569 L 785 567 L 786 566 L 786 562 L 787 561 L 787 553 L 788 552 L 788 537 L 787 536 L 787 533 L 786 532 L 786 531 L 785 530 L 785 529 L 783 527 L 783 526 L 779 522 L 778 522 L 776 520 L 775 521 L 775 524 L 776 525 L 776 540 L 775 541 L 775 543 L 772 546 L 772 547 L 770 549 L 769 549 L 767 551 L 766 551 L 765 552 L 764 552 L 763 553 L 751 553 L 750 552 L 748 552 L 746 550 L 745 550 L 744 549 L 743 549 L 739 545 L 738 545 L 734 541 L 733 541 L 731 539 L 729 539 L 728 538 L 726 538 L 725 537 L 723 537 L 722 536 L 706 536 L 705 537 L 700 537 L 699 538 L 697 538 L 696 539 L 693 539 L 692 540 L 691 540 L 690 541 L 688 541 L 687 542 L 686 542 L 685 543 L 683 543 L 682 544 L 681 544 L 680 545 L 679 545 L 678 546 L 676 546 L 669 539 L 668 539 L 667 538 L 666 538 L 665 537 L 664 537 L 663 536 L 661 536 L 660 535 L 651 535 L 650 536 L 648 536 L 647 537 L 645 537 L 644 538 L 643 538 L 636 545 L 635 545 L 631 541 L 631 540 L 625 534 L 625 533 L 618 526 L 618 525 L 607 514 L 606 514 L 605 513 L 595 513 L 594 514 L 590 514 L 589 515 L 586 515 L 585 516 L 583 516 L 582 517 L 580 517 z" />
<path d="M 149 420 L 149 422 L 150 423 L 150 424 L 151 425 L 151 427 L 152 428 L 152 429 L 153 430 L 153 431 L 154 432 L 154 433 L 156 435 L 156 436 L 157 437 L 157 438 L 159 440 L 159 441 L 160 442 L 160 443 L 162 445 L 162 446 L 165 449 L 165 450 L 167 452 L 167 453 L 170 456 L 170 457 L 175 462 L 175 463 L 197 485 L 198 485 L 202 489 L 203 489 L 206 492 L 207 492 L 210 495 L 211 495 L 214 498 L 215 498 L 216 499 L 217 499 L 219 501 L 220 501 L 222 503 L 223 503 L 224 504 L 225 504 L 227 506 L 228 506 L 229 507 L 230 507 L 231 508 L 232 508 L 234 510 L 235 510 L 236 511 L 237 511 L 238 512 L 240 512 L 241 513 L 242 513 L 243 514 L 244 514 L 245 515 L 246 515 L 247 516 L 248 516 L 249 517 L 251 517 L 252 518 L 253 518 L 254 519 L 255 519 L 256 520 L 257 520 L 258 521 L 260 521 L 261 522 L 262 522 L 264 524 L 266 524 L 267 525 L 268 525 L 269 526 L 271 526 L 272 527 L 273 527 L 274 528 L 275 528 L 276 529 L 277 529 L 278 530 L 280 530 L 281 531 L 282 531 L 283 532 L 284 532 L 285 533 L 287 533 L 288 534 L 289 534 L 290 535 L 292 535 L 293 536 L 294 536 L 295 537 L 297 537 L 298 538 L 299 538 L 300 539 L 302 539 L 303 540 L 305 540 L 306 541 L 308 541 L 309 542 L 311 542 L 312 543 L 314 543 L 315 544 L 317 544 L 318 545 L 320 545 L 321 546 L 324 546 L 324 544 L 322 544 L 321 543 L 318 543 L 317 542 L 315 542 L 314 541 L 312 541 L 311 540 L 309 540 L 308 539 L 307 539 L 306 538 L 304 538 L 303 537 L 302 537 L 301 536 L 300 536 L 299 535 L 297 535 L 296 534 L 295 534 L 294 533 L 293 533 L 292 532 L 290 532 L 289 531 L 288 531 L 287 530 L 286 530 L 285 529 L 284 529 L 283 528 L 282 528 L 281 527 L 279 527 L 278 526 L 277 526 L 276 525 L 275 525 L 274 524 L 273 524 L 272 523 L 271 523 L 270 522 L 269 522 L 268 521 L 266 521 L 265 520 L 264 520 L 263 519 L 262 519 L 261 518 L 260 518 L 259 517 L 258 517 L 257 516 L 256 516 L 255 515 L 254 515 L 253 514 L 252 514 L 251 513 L 250 513 L 249 512 L 248 512 L 246 510 L 245 510 L 244 509 L 243 509 L 242 508 L 241 508 L 239 506 L 238 506 L 236 504 L 235 504 L 234 503 L 233 503 L 231 501 L 230 501 L 227 498 L 226 498 L 223 495 L 222 495 L 219 492 L 218 492 L 214 488 L 213 488 L 204 479 L 203 479 L 196 472 L 196 471 L 188 463 L 188 462 L 183 457 L 183 456 L 180 453 L 180 452 L 178 450 L 178 449 L 175 446 L 175 445 L 173 443 L 173 442 L 172 441 L 172 440 L 170 438 L 170 437 L 169 436 L 169 435 L 167 433 L 167 432 L 166 431 L 166 430 L 165 429 L 165 428 L 164 427 L 164 426 L 163 425 L 163 424 L 162 423 L 161 423 L 160 422 L 157 422 L 156 421 L 153 421 L 152 420 z" />
<path d="M 65 330 L 65 341 L 66 342 L 66 347 L 67 348 L 67 351 L 68 352 L 68 354 L 69 355 L 69 357 L 70 358 L 70 360 L 71 361 L 71 363 L 72 364 L 72 365 L 73 366 L 73 368 L 74 369 L 74 370 L 76 372 L 76 373 L 77 374 L 77 375 L 79 377 L 79 378 L 80 379 L 80 380 L 83 383 L 83 384 L 96 397 L 97 397 L 100 400 L 101 400 L 103 402 L 104 402 L 106 404 L 107 404 L 109 406 L 110 406 L 111 407 L 112 407 L 113 408 L 114 408 L 115 409 L 116 409 L 117 410 L 119 410 L 120 411 L 121 411 L 122 412 L 124 412 L 125 413 L 127 413 L 128 414 L 130 414 L 131 415 L 133 415 L 134 416 L 136 416 L 137 417 L 139 417 L 140 418 L 142 418 L 143 419 L 145 419 L 146 420 L 147 420 L 147 418 L 146 417 L 144 417 L 143 416 L 140 416 L 139 415 L 137 415 L 136 414 L 135 414 L 134 413 L 133 413 L 132 412 L 131 412 L 130 411 L 129 411 L 128 410 L 127 410 L 126 409 L 125 409 L 123 407 L 122 407 L 121 406 L 120 406 L 118 404 L 117 404 L 114 401 L 113 401 L 96 384 L 96 383 L 93 380 L 93 379 L 91 377 L 91 376 L 90 375 L 90 374 L 88 372 L 88 371 L 87 370 L 87 369 L 86 368 L 86 367 L 85 366 L 85 365 L 84 364 L 84 363 L 83 362 L 83 360 L 82 359 L 82 358 L 81 357 L 81 355 L 80 354 L 80 352 L 79 351 L 79 348 L 78 347 L 78 344 L 77 343 L 77 338 L 76 337 L 76 331 L 72 331 L 71 330 z" />
<path d="M 594 309 z" />
<path d="M 432 281 L 431 282 L 414 282 L 413 283 L 406 283 L 405 284 L 400 284 L 399 285 L 395 285 L 394 286 L 390 286 L 389 287 L 386 287 L 385 288 L 383 288 L 382 289 L 379 289 L 378 290 L 376 290 L 375 291 L 373 291 L 372 292 L 371 292 L 370 293 L 368 293 L 367 294 L 366 294 L 365 295 L 363 295 L 362 296 L 361 296 L 360 297 L 359 297 L 358 298 L 357 298 L 356 299 L 355 299 L 354 300 L 353 300 L 352 301 L 351 301 L 350 302 L 349 302 L 347 304 L 346 304 L 344 306 L 343 306 L 340 309 L 339 309 L 328 320 L 328 321 L 325 324 L 325 325 L 324 326 L 324 327 L 323 328 L 323 329 L 322 330 L 322 333 L 323 333 L 324 334 L 325 334 L 326 335 L 327 335 L 328 336 L 329 336 L 330 337 L 331 337 L 333 339 L 334 339 L 335 340 L 336 340 L 339 343 L 340 343 L 343 346 L 344 346 L 355 357 L 355 358 L 359 362 L 359 363 L 361 365 L 361 366 L 363 368 L 363 369 L 365 371 L 365 372 L 366 373 L 366 374 L 367 375 L 367 376 L 368 377 L 368 378 L 369 379 L 369 381 L 370 382 L 370 404 L 371 405 L 371 436 L 372 437 L 372 506 L 371 507 L 371 520 L 370 521 L 370 528 L 369 529 L 369 533 L 368 534 L 368 536 L 367 537 L 367 538 L 365 540 L 365 541 L 363 543 L 363 544 L 361 546 L 360 546 L 358 548 L 357 548 L 356 549 L 355 549 L 354 550 L 349 550 L 348 551 L 347 550 L 341 550 L 340 551 L 339 551 L 337 553 L 336 553 L 335 554 L 334 554 L 333 555 L 328 555 L 327 556 L 326 555 L 319 555 L 318 556 L 318 2183 L 319 2184 L 561 2184 L 561 612 L 560 611 L 560 574 L 559 573 L 559 536 L 558 535 L 558 495 L 557 494 L 557 448 L 556 447 L 556 386 L 555 385 L 555 347 L 554 346 L 554 343 L 553 342 L 553 340 L 552 339 L 552 337 L 551 336 L 551 335 L 550 334 L 550 333 L 549 332 L 549 331 L 548 330 L 548 329 L 546 327 L 546 326 L 544 324 L 544 323 L 533 312 L 532 312 L 528 308 L 527 308 L 525 306 L 524 306 L 522 304 L 521 304 L 520 303 L 519 303 L 518 302 L 517 302 L 515 300 L 514 300 L 513 299 L 512 299 L 511 298 L 509 298 L 508 297 L 507 297 L 506 296 L 505 296 L 504 295 L 502 295 L 501 294 L 500 294 L 499 293 L 497 293 L 496 292 L 494 292 L 493 291 L 491 291 L 490 290 L 488 290 L 487 289 L 485 289 L 484 288 L 481 288 L 480 287 L 477 287 L 476 286 L 472 286 L 471 285 L 467 285 L 466 284 L 461 284 L 460 283 L 452 283 L 451 282 L 434 282 L 433 281 z" />
<path d="M 421 242 L 420 243 L 412 243 L 411 244 L 406 244 L 405 245 L 400 245 L 399 246 L 396 246 L 395 247 L 391 247 L 390 248 L 387 248 L 386 249 L 384 249 L 383 250 L 381 250 L 380 251 L 378 251 L 377 252 L 375 252 L 374 253 L 372 253 L 371 254 L 369 254 L 368 255 L 367 255 L 366 256 L 364 256 L 363 257 L 362 257 L 361 258 L 360 258 L 359 259 L 357 259 L 355 261 L 353 261 L 352 262 L 351 262 L 350 263 L 349 263 L 348 264 L 347 264 L 345 266 L 344 266 L 343 267 L 342 267 L 340 269 L 339 269 L 337 271 L 336 271 L 334 273 L 333 273 L 331 275 L 330 275 L 326 279 L 325 279 L 308 296 L 308 297 L 305 300 L 305 301 L 303 303 L 303 304 L 301 306 L 301 310 L 302 311 L 302 313 L 303 314 L 303 316 L 304 317 L 304 318 L 305 319 L 305 322 L 306 323 L 306 325 L 307 326 L 307 328 L 308 329 L 309 329 L 310 330 L 311 329 L 312 329 L 312 328 L 313 327 L 313 326 L 314 325 L 314 324 L 316 322 L 316 321 L 317 320 L 317 319 L 320 316 L 320 315 L 334 301 L 335 301 L 338 298 L 339 298 L 341 296 L 342 296 L 344 294 L 345 294 L 346 293 L 347 293 L 349 291 L 350 291 L 351 290 L 352 290 L 353 289 L 354 289 L 355 288 L 356 288 L 357 287 L 358 287 L 359 286 L 360 286 L 361 285 L 363 285 L 364 284 L 365 284 L 366 283 L 368 283 L 369 282 L 371 282 L 372 281 L 374 281 L 375 280 L 377 280 L 378 279 L 380 279 L 381 278 L 384 278 L 385 277 L 388 277 L 389 276 L 393 276 L 394 275 L 398 275 L 399 274 L 404 274 L 405 273 L 412 273 L 413 272 L 431 272 L 432 271 L 433 271 L 434 272 L 452 272 L 453 273 L 460 273 L 461 274 L 467 274 L 468 275 L 472 275 L 473 276 L 477 276 L 478 277 L 481 277 L 482 278 L 485 278 L 486 279 L 488 279 L 489 280 L 492 280 L 493 281 L 495 281 L 496 282 L 498 282 L 499 283 L 501 283 L 502 284 L 503 284 L 504 285 L 506 285 L 507 286 L 508 286 L 509 287 L 510 287 L 511 288 L 512 288 L 513 289 L 514 289 L 515 290 L 516 290 L 517 291 L 518 291 L 519 292 L 520 292 L 521 293 L 522 293 L 524 295 L 525 295 L 526 296 L 527 296 L 529 298 L 530 298 L 532 300 L 533 300 L 537 304 L 538 304 L 552 318 L 552 319 L 554 321 L 554 322 L 556 324 L 556 325 L 558 327 L 558 328 L 559 329 L 559 330 L 560 331 L 560 332 L 561 333 L 561 334 L 562 335 L 562 337 L 563 338 L 563 341 L 564 342 L 564 345 L 565 346 L 565 385 L 566 386 L 566 415 L 567 415 L 573 409 L 573 408 L 576 405 L 576 404 L 578 402 L 578 401 L 580 399 L 580 398 L 582 396 L 582 395 L 583 394 L 583 393 L 584 392 L 584 391 L 585 390 L 585 388 L 586 387 L 586 386 L 587 385 L 587 384 L 588 383 L 588 381 L 589 380 L 589 378 L 590 377 L 590 375 L 591 374 L 591 371 L 592 370 L 592 365 L 593 364 L 593 341 L 592 340 L 592 335 L 591 334 L 591 331 L 590 330 L 590 328 L 589 327 L 589 325 L 588 324 L 588 322 L 587 321 L 587 320 L 586 319 L 586 318 L 585 317 L 585 315 L 584 314 L 584 313 L 583 312 L 583 311 L 582 310 L 582 309 L 580 307 L 580 306 L 578 304 L 578 303 L 576 301 L 576 300 L 573 297 L 573 296 L 556 279 L 555 279 L 551 275 L 550 275 L 548 273 L 547 273 L 544 270 L 543 270 L 542 269 L 541 269 L 539 267 L 538 267 L 537 266 L 536 266 L 534 264 L 533 264 L 532 263 L 531 263 L 530 262 L 529 262 L 528 261 L 527 261 L 526 260 L 524 260 L 523 259 L 522 259 L 521 258 L 520 258 L 519 257 L 518 257 L 517 256 L 515 256 L 514 255 L 513 255 L 512 254 L 510 254 L 509 253 L 507 253 L 506 252 L 504 252 L 503 251 L 501 251 L 500 250 L 498 250 L 497 249 L 494 249 L 493 248 L 491 248 L 490 247 L 486 247 L 485 246 L 482 246 L 481 245 L 476 245 L 475 244 L 470 244 L 469 243 L 461 243 L 460 242 z" />
<path d="M 421 208 L 420 209 L 412 209 L 411 210 L 406 210 L 405 211 L 400 211 L 399 212 L 396 212 L 395 213 L 391 213 L 390 214 L 387 214 L 386 215 L 384 215 L 383 216 L 381 216 L 380 217 L 378 217 L 377 218 L 375 218 L 374 219 L 372 219 L 371 220 L 369 220 L 368 221 L 367 221 L 366 222 L 364 222 L 363 223 L 362 223 L 361 224 L 360 224 L 359 225 L 357 225 L 355 227 L 353 227 L 352 228 L 351 228 L 350 229 L 349 229 L 348 230 L 347 230 L 345 232 L 344 232 L 343 233 L 342 233 L 340 235 L 339 235 L 337 237 L 336 237 L 334 239 L 333 239 L 331 241 L 330 241 L 326 245 L 325 245 L 308 262 L 308 263 L 305 266 L 305 267 L 303 269 L 303 270 L 301 272 L 301 273 L 299 275 L 299 276 L 298 277 L 298 278 L 297 279 L 297 280 L 296 281 L 296 283 L 295 284 L 295 285 L 294 286 L 294 287 L 293 288 L 293 293 L 294 294 L 294 295 L 295 296 L 297 296 L 297 295 L 300 292 L 300 291 L 307 284 L 307 283 L 312 278 L 313 278 L 320 271 L 321 271 L 325 267 L 326 267 L 328 265 L 329 265 L 332 262 L 333 262 L 334 261 L 335 261 L 337 259 L 338 259 L 339 258 L 340 258 L 342 256 L 343 256 L 344 255 L 345 255 L 346 254 L 347 254 L 348 253 L 349 253 L 351 251 L 353 251 L 355 249 L 357 249 L 358 248 L 359 248 L 360 247 L 361 247 L 362 246 L 364 246 L 365 245 L 366 245 L 367 244 L 369 244 L 370 243 L 372 243 L 373 242 L 375 242 L 376 241 L 378 241 L 379 240 L 382 240 L 383 239 L 385 239 L 386 238 L 389 238 L 390 237 L 394 237 L 395 236 L 398 236 L 399 235 L 404 235 L 405 234 L 410 234 L 411 233 L 419 233 L 420 232 L 461 232 L 462 233 L 470 233 L 471 234 L 476 234 L 477 235 L 482 235 L 483 236 L 487 236 L 488 237 L 491 237 L 492 238 L 495 238 L 496 239 L 498 239 L 499 240 L 502 240 L 503 241 L 505 241 L 506 242 L 508 242 L 509 243 L 511 243 L 512 244 L 514 244 L 515 245 L 516 245 L 517 246 L 519 246 L 520 247 L 521 247 L 522 248 L 523 248 L 524 249 L 526 249 L 527 250 L 528 250 L 530 252 L 531 252 L 532 253 L 533 253 L 534 254 L 535 254 L 536 255 L 537 255 L 538 256 L 539 256 L 540 257 L 541 257 L 543 259 L 544 259 L 546 261 L 547 261 L 548 262 L 549 262 L 552 265 L 553 265 L 555 267 L 556 267 L 560 271 L 561 271 L 568 278 L 569 278 L 573 282 L 573 283 L 581 291 L 581 292 L 584 295 L 584 296 L 586 298 L 586 299 L 588 301 L 588 302 L 590 304 L 590 305 L 591 306 L 591 308 L 592 308 L 593 307 L 593 306 L 592 305 L 592 301 L 591 300 L 591 297 L 590 296 L 590 294 L 589 293 L 589 291 L 588 290 L 588 288 L 587 287 L 587 286 L 586 285 L 586 284 L 585 283 L 585 281 L 584 280 L 584 279 L 583 278 L 583 277 L 582 276 L 582 275 L 580 273 L 580 272 L 578 270 L 578 269 L 576 267 L 576 266 L 573 263 L 573 262 L 556 245 L 555 245 L 551 241 L 550 241 L 548 239 L 547 239 L 544 236 L 543 236 L 542 235 L 541 235 L 539 233 L 538 233 L 537 232 L 536 232 L 534 230 L 533 230 L 532 229 L 531 229 L 530 228 L 529 228 L 528 227 L 527 227 L 526 226 L 524 226 L 523 225 L 522 225 L 521 224 L 520 224 L 519 223 L 518 223 L 517 222 L 515 222 L 514 221 L 513 221 L 512 220 L 510 220 L 509 219 L 507 219 L 506 218 L 504 218 L 503 217 L 501 217 L 500 216 L 498 216 L 497 215 L 494 215 L 493 214 L 491 214 L 490 213 L 486 213 L 485 212 L 482 212 L 481 211 L 476 211 L 475 210 L 470 210 L 469 209 L 461 209 L 460 208 z" />
<path d="M 421 149 L 420 150 L 412 150 L 411 151 L 406 151 L 405 152 L 400 152 L 399 153 L 396 153 L 395 154 L 391 154 L 390 155 L 387 155 L 386 156 L 384 156 L 383 157 L 381 157 L 380 158 L 378 158 L 377 159 L 375 159 L 374 160 L 372 160 L 371 161 L 369 161 L 368 162 L 367 162 L 366 163 L 364 163 L 363 164 L 362 164 L 361 165 L 360 165 L 359 166 L 357 166 L 355 168 L 353 168 L 352 169 L 351 169 L 350 170 L 349 170 L 348 171 L 347 171 L 345 173 L 344 173 L 343 174 L 342 174 L 340 176 L 339 176 L 337 178 L 336 178 L 334 180 L 333 180 L 331 182 L 330 182 L 326 186 L 325 186 L 308 203 L 308 204 L 305 207 L 305 208 L 303 210 L 303 211 L 301 213 L 301 214 L 299 216 L 299 217 L 298 218 L 298 219 L 297 220 L 297 221 L 296 222 L 296 224 L 295 225 L 295 226 L 294 227 L 294 228 L 293 229 L 293 231 L 292 232 L 292 234 L 291 235 L 291 237 L 290 238 L 290 241 L 289 242 L 289 246 L 288 247 L 288 273 L 290 273 L 290 272 L 291 271 L 291 270 L 293 268 L 293 267 L 295 265 L 295 264 L 297 262 L 297 261 L 300 258 L 300 257 L 307 250 L 307 249 L 312 244 L 313 244 L 320 237 L 321 237 L 325 233 L 326 233 L 328 231 L 329 231 L 332 228 L 333 228 L 334 227 L 335 227 L 337 225 L 338 225 L 339 224 L 340 224 L 342 222 L 343 222 L 344 221 L 345 221 L 346 220 L 347 220 L 348 219 L 349 219 L 351 217 L 353 217 L 355 215 L 357 215 L 358 214 L 359 214 L 360 213 L 361 213 L 362 212 L 364 212 L 365 211 L 366 211 L 367 210 L 369 210 L 370 209 L 372 209 L 373 208 L 375 208 L 376 207 L 378 207 L 379 206 L 382 206 L 383 205 L 385 205 L 386 204 L 389 204 L 390 203 L 394 203 L 395 202 L 398 202 L 399 201 L 404 201 L 405 200 L 410 200 L 411 199 L 419 199 L 420 198 L 461 198 L 462 199 L 470 199 L 471 200 L 476 200 L 477 201 L 482 201 L 483 202 L 487 202 L 488 203 L 491 203 L 492 204 L 495 204 L 496 205 L 498 205 L 499 206 L 502 206 L 503 207 L 505 207 L 506 208 L 508 208 L 509 209 L 511 209 L 512 210 L 514 210 L 515 211 L 516 211 L 517 212 L 519 212 L 520 213 L 521 213 L 522 214 L 523 214 L 524 215 L 526 215 L 527 216 L 528 216 L 530 218 L 531 218 L 532 219 L 533 219 L 534 220 L 535 220 L 536 221 L 537 221 L 538 222 L 539 222 L 540 223 L 541 223 L 543 225 L 544 225 L 546 227 L 547 227 L 548 228 L 549 228 L 552 231 L 553 231 L 555 233 L 556 233 L 560 237 L 561 237 L 568 244 L 569 244 L 573 248 L 573 249 L 581 257 L 581 258 L 584 261 L 584 262 L 586 264 L 586 265 L 588 267 L 588 268 L 590 270 L 590 271 L 591 272 L 591 273 L 593 273 L 593 248 L 592 247 L 592 242 L 591 241 L 591 238 L 590 237 L 590 235 L 589 234 L 589 232 L 588 231 L 588 229 L 587 228 L 587 227 L 586 226 L 586 225 L 585 224 L 585 222 L 584 221 L 584 220 L 583 219 L 583 218 L 582 217 L 582 216 L 580 214 L 580 213 L 578 211 L 578 210 L 576 208 L 576 207 L 573 204 L 573 203 L 556 186 L 555 186 L 551 182 L 550 182 L 548 180 L 547 180 L 544 177 L 543 177 L 542 176 L 541 176 L 539 174 L 538 174 L 537 173 L 536 173 L 534 171 L 533 171 L 532 170 L 531 170 L 530 169 L 529 169 L 528 168 L 527 168 L 526 167 L 524 167 L 523 166 L 522 166 L 521 165 L 520 165 L 519 164 L 518 164 L 517 163 L 515 163 L 514 162 L 513 162 L 512 161 L 510 161 L 509 160 L 507 160 L 506 159 L 504 159 L 503 158 L 501 158 L 500 157 L 498 157 L 497 156 L 494 156 L 493 155 L 491 155 L 490 154 L 486 154 L 485 153 L 482 153 L 481 152 L 476 152 L 475 151 L 470 151 L 469 150 L 461 150 L 460 149 z" />
<path d="M 32 132 L 30 134 L 29 134 L 22 141 L 22 142 L 21 143 L 21 145 L 20 146 L 20 149 L 19 150 L 19 159 L 20 160 L 20 163 L 21 164 L 21 166 L 22 167 L 22 169 L 23 170 L 23 171 L 24 172 L 24 173 L 25 174 L 25 175 L 24 176 L 24 177 L 21 180 L 21 181 L 19 183 L 19 184 L 18 185 L 18 186 L 17 187 L 17 188 L 16 189 L 16 191 L 15 192 L 15 193 L 14 194 L 14 197 L 13 198 L 13 201 L 12 202 L 12 209 L 11 210 L 11 213 L 12 214 L 12 222 L 13 223 L 13 226 L 14 227 L 14 230 L 15 231 L 15 233 L 16 234 L 16 235 L 17 236 L 17 237 L 18 238 L 18 240 L 19 241 L 19 242 L 20 243 L 20 244 L 22 246 L 22 247 L 23 248 L 23 250 L 19 254 L 19 255 L 17 257 L 17 258 L 16 259 L 16 261 L 15 262 L 15 263 L 14 264 L 14 267 L 13 268 L 13 274 L 12 275 L 12 277 L 13 278 L 13 285 L 14 286 L 14 288 L 15 289 L 15 291 L 16 292 L 16 293 L 17 294 L 17 296 L 18 297 L 18 298 L 19 299 L 19 300 L 21 302 L 21 303 L 23 305 L 23 306 L 25 308 L 25 309 L 30 314 L 30 315 L 31 316 L 32 316 L 36 320 L 37 320 L 39 322 L 40 322 L 41 323 L 43 323 L 44 324 L 45 324 L 46 325 L 51 325 L 52 326 L 54 326 L 54 324 L 53 323 L 52 323 L 49 320 L 48 320 L 42 314 L 42 313 L 38 309 L 38 308 L 36 306 L 36 305 L 34 303 L 34 302 L 32 300 L 32 299 L 31 298 L 31 297 L 30 296 L 30 295 L 28 293 L 28 292 L 27 291 L 27 289 L 26 288 L 26 286 L 25 285 L 25 282 L 24 281 L 24 273 L 23 272 L 23 270 L 24 269 L 24 262 L 25 261 L 25 258 L 26 257 L 26 255 L 27 254 L 27 252 L 29 250 L 29 249 L 30 248 L 30 247 L 31 246 L 31 245 L 32 244 L 32 241 L 31 240 L 31 239 L 29 237 L 29 235 L 28 234 L 28 233 L 27 232 L 27 230 L 26 229 L 26 227 L 25 226 L 25 224 L 24 223 L 24 219 L 23 218 L 23 210 L 22 209 L 22 205 L 23 204 L 23 196 L 24 195 L 24 191 L 25 190 L 25 188 L 26 187 L 26 185 L 27 184 L 27 182 L 28 181 L 28 180 L 29 179 L 29 178 L 30 177 L 30 176 L 32 174 L 32 173 L 34 171 L 34 167 L 33 166 L 33 164 L 32 163 L 32 160 L 31 159 L 31 155 L 30 154 L 30 144 L 31 143 L 31 139 L 32 138 L 32 136 L 33 135 L 33 134 L 34 133 L 34 132 z" />
<path d="M 67 123 L 66 124 L 62 124 L 61 125 L 59 125 L 58 126 L 56 126 L 55 127 L 53 127 L 51 129 L 50 129 L 43 136 L 43 137 L 42 138 L 42 140 L 41 141 L 41 144 L 40 145 L 40 154 L 41 155 L 41 158 L 42 159 L 42 161 L 43 162 L 43 164 L 44 165 L 44 166 L 45 167 L 45 168 L 46 169 L 46 170 L 45 171 L 45 172 L 42 175 L 42 176 L 40 178 L 40 179 L 39 180 L 39 181 L 38 182 L 38 183 L 37 184 L 37 186 L 36 187 L 36 188 L 35 189 L 35 192 L 34 193 L 34 196 L 33 197 L 33 204 L 32 205 L 32 208 L 33 209 L 33 217 L 34 218 L 34 221 L 35 222 L 35 225 L 36 226 L 36 228 L 37 229 L 37 230 L 38 231 L 38 232 L 39 233 L 39 235 L 40 236 L 40 237 L 41 238 L 41 239 L 43 241 L 43 242 L 44 243 L 44 245 L 40 249 L 40 250 L 38 252 L 38 253 L 37 254 L 37 256 L 36 257 L 36 258 L 35 259 L 35 262 L 34 263 L 34 269 L 33 270 L 33 272 L 34 273 L 34 280 L 35 281 L 35 283 L 36 284 L 36 286 L 37 287 L 37 288 L 38 289 L 38 291 L 39 292 L 39 293 L 40 294 L 40 295 L 42 297 L 42 298 L 44 300 L 44 301 L 46 303 L 46 304 L 51 309 L 51 310 L 52 311 L 53 311 L 57 315 L 58 315 L 60 317 L 61 317 L 62 318 L 64 318 L 65 319 L 66 319 L 67 320 L 72 320 L 73 321 L 75 321 L 76 320 L 79 320 L 80 319 L 81 319 L 82 318 L 85 318 L 86 319 L 86 336 L 87 337 L 87 342 L 88 343 L 88 346 L 89 347 L 89 349 L 90 350 L 90 352 L 91 353 L 91 355 L 92 356 L 92 358 L 93 359 L 93 360 L 94 361 L 94 363 L 95 364 L 95 365 L 97 367 L 97 368 L 98 369 L 98 370 L 100 372 L 100 373 L 101 374 L 101 375 L 104 378 L 104 379 L 117 392 L 118 392 L 121 395 L 122 395 L 124 397 L 125 397 L 127 399 L 128 399 L 130 401 L 131 401 L 132 402 L 133 402 L 134 403 L 135 403 L 136 404 L 137 404 L 138 405 L 140 405 L 141 406 L 142 406 L 143 407 L 145 407 L 146 408 L 148 408 L 149 409 L 151 409 L 152 410 L 154 410 L 155 411 L 157 411 L 158 412 L 161 412 L 162 413 L 166 413 L 167 414 L 168 414 L 170 416 L 170 417 L 171 418 L 171 419 L 172 420 L 172 422 L 173 423 L 173 424 L 174 425 L 174 426 L 175 427 L 175 428 L 177 430 L 177 431 L 178 432 L 178 433 L 180 435 L 180 436 L 181 437 L 181 438 L 183 440 L 183 441 L 186 444 L 186 445 L 188 447 L 188 448 L 191 451 L 191 452 L 196 457 L 196 458 L 218 480 L 219 480 L 223 484 L 224 484 L 227 487 L 228 487 L 231 490 L 232 490 L 235 493 L 236 493 L 237 494 L 238 494 L 240 496 L 241 496 L 243 498 L 244 498 L 245 499 L 246 499 L 248 501 L 249 501 L 250 502 L 251 502 L 252 503 L 253 503 L 255 505 L 256 505 L 257 506 L 258 506 L 259 507 L 261 507 L 262 508 L 263 508 L 264 509 L 265 509 L 266 510 L 267 510 L 268 511 L 269 511 L 270 512 L 272 512 L 273 513 L 274 513 L 275 514 L 276 514 L 277 515 L 278 515 L 279 516 L 281 516 L 282 517 L 283 517 L 285 519 L 287 519 L 288 520 L 289 520 L 290 521 L 292 521 L 293 522 L 294 522 L 295 523 L 296 523 L 297 524 L 298 524 L 299 525 L 301 525 L 302 526 L 303 526 L 304 527 L 305 527 L 306 528 L 308 528 L 309 529 L 310 529 L 311 530 L 313 530 L 314 531 L 315 531 L 316 532 L 318 532 L 319 533 L 320 533 L 321 534 L 323 534 L 324 535 L 326 535 L 327 536 L 329 536 L 330 537 L 332 537 L 333 538 L 335 538 L 336 539 L 339 539 L 340 540 L 347 540 L 348 541 L 349 540 L 353 540 L 357 536 L 357 535 L 358 534 L 358 532 L 359 531 L 359 528 L 360 527 L 360 521 L 361 520 L 361 507 L 362 506 L 362 437 L 361 436 L 361 405 L 360 404 L 360 384 L 359 383 L 359 380 L 358 379 L 358 378 L 356 376 L 356 375 L 355 374 L 355 373 L 353 371 L 353 370 L 351 368 L 351 367 L 347 363 L 347 362 L 339 354 L 338 354 L 335 351 L 334 351 L 331 348 L 330 348 L 329 347 L 328 347 L 327 346 L 326 346 L 325 345 L 324 345 L 323 344 L 322 344 L 321 343 L 319 343 L 318 342 L 316 342 L 315 341 L 313 341 L 312 340 L 309 340 L 308 339 L 303 339 L 302 338 L 300 338 L 299 337 L 299 335 L 298 334 L 298 331 L 297 330 L 297 327 L 296 326 L 296 324 L 295 323 L 295 321 L 294 320 L 294 318 L 293 317 L 293 316 L 292 315 L 292 313 L 291 312 L 291 311 L 290 310 L 290 308 L 289 307 L 289 306 L 288 305 L 288 304 L 287 303 L 287 302 L 286 301 L 286 300 L 285 299 L 285 298 L 284 297 L 284 296 L 283 295 L 283 294 L 282 293 L 282 292 L 280 290 L 280 289 L 279 288 L 279 287 L 277 285 L 277 284 L 274 281 L 274 280 L 270 276 L 270 275 L 261 266 L 260 266 L 256 262 L 255 262 L 253 260 L 252 260 L 251 259 L 250 259 L 248 257 L 247 257 L 246 256 L 245 256 L 244 255 L 243 255 L 242 254 L 241 254 L 239 252 L 238 252 L 237 251 L 236 251 L 235 250 L 234 250 L 233 249 L 232 249 L 231 248 L 229 248 L 228 247 L 227 247 L 226 246 L 224 246 L 223 245 L 222 245 L 221 244 L 219 244 L 218 243 L 216 243 L 215 242 L 214 242 L 213 241 L 210 241 L 209 240 L 207 240 L 206 239 L 202 239 L 201 238 L 190 238 L 188 236 L 188 219 L 187 218 L 187 212 L 186 211 L 186 208 L 185 207 L 185 204 L 184 203 L 184 200 L 183 199 L 183 197 L 182 196 L 182 194 L 181 193 L 181 191 L 180 190 L 180 189 L 179 188 L 179 186 L 178 185 L 178 184 L 177 183 L 177 182 L 176 181 L 176 180 L 175 179 L 175 178 L 174 177 L 174 176 L 173 175 L 173 174 L 171 172 L 171 171 L 169 169 L 169 168 L 167 166 L 167 165 L 162 160 L 162 159 L 155 152 L 154 152 L 150 148 L 149 148 L 146 145 L 145 145 L 143 143 L 142 143 L 140 141 L 139 141 L 138 140 L 137 140 L 136 139 L 135 139 L 134 138 L 133 138 L 132 137 L 131 137 L 130 136 L 129 136 L 128 135 L 126 135 L 125 134 L 124 134 L 123 133 L 121 133 L 120 132 L 119 132 L 118 131 L 116 131 L 115 130 L 113 130 L 112 129 L 110 129 L 109 128 L 106 128 L 105 127 L 103 127 L 102 126 L 98 126 L 97 125 L 93 125 L 92 124 L 87 124 L 86 123 z" />
<path d="M 444 11 L 443 12 L 442 12 L 438 16 L 438 17 L 436 19 L 436 20 L 430 26 L 429 26 L 427 28 L 424 28 L 423 29 L 415 29 L 414 30 L 414 32 L 413 33 L 413 36 L 412 37 L 412 53 L 411 54 L 411 55 L 405 61 L 405 62 L 403 64 L 403 65 L 402 66 L 402 67 L 400 69 L 400 70 L 399 71 L 399 72 L 398 73 L 398 74 L 397 75 L 397 77 L 396 78 L 396 79 L 395 80 L 395 82 L 394 83 L 394 84 L 393 85 L 393 87 L 392 88 L 392 90 L 391 91 L 391 92 L 390 93 L 390 95 L 389 96 L 389 99 L 388 100 L 388 102 L 387 103 L 387 105 L 386 106 L 386 109 L 385 110 L 385 112 L 384 113 L 384 116 L 383 117 L 383 120 L 382 121 L 382 125 L 381 126 L 381 129 L 380 130 L 380 134 L 379 135 L 379 138 L 378 139 L 378 144 L 377 145 L 377 147 L 378 148 L 379 147 L 382 147 L 383 146 L 385 146 L 386 145 L 389 145 L 390 144 L 394 144 L 395 143 L 398 143 L 399 142 L 404 142 L 405 141 L 410 141 L 411 140 L 419 140 L 420 139 L 461 139 L 462 140 L 470 140 L 471 141 L 476 141 L 477 142 L 482 142 L 483 143 L 487 143 L 488 144 L 491 144 L 492 145 L 496 145 L 496 141 L 497 140 L 497 127 L 498 126 L 498 102 L 497 101 L 497 98 L 496 97 L 496 95 L 495 94 L 495 93 L 494 92 L 494 91 L 492 89 L 492 88 L 490 86 L 490 85 L 488 83 L 488 81 L 487 80 L 487 65 L 488 64 L 488 62 L 490 60 L 490 59 L 492 57 L 492 56 L 505 43 L 506 43 L 515 34 L 515 33 L 516 32 L 516 26 L 515 25 L 515 24 L 509 18 L 508 18 L 507 17 L 506 17 L 505 16 L 504 16 L 503 15 L 502 15 L 501 14 L 490 14 L 489 15 L 480 15 L 479 16 L 465 16 L 464 15 L 461 15 L 460 14 L 459 14 L 458 13 L 456 13 L 455 12 L 453 12 L 452 11 z" />
<g id="2" fill="grey" stroke="black">
<path d="M 660 675 L 661 674 L 664 674 L 665 675 L 664 676 L 662 676 L 661 677 L 653 677 L 652 676 L 653 675 z" />
<path d="M 571 662 L 572 661 L 574 661 L 575 662 L 577 662 L 578 663 L 579 663 L 580 664 L 582 664 L 583 665 L 584 665 L 585 666 L 587 666 L 588 667 L 590 667 L 591 668 L 594 668 L 595 669 L 597 669 L 598 670 L 601 670 L 602 671 L 605 671 L 606 672 L 610 672 L 611 673 L 615 673 L 616 674 L 622 674 L 623 675 L 632 675 L 633 676 L 652 676 L 653 677 L 652 678 L 614 678 L 613 677 L 606 677 L 605 676 L 600 676 L 599 675 L 595 675 L 594 674 L 591 674 L 590 673 L 587 673 L 586 672 L 583 672 L 582 671 L 580 671 L 579 670 L 576 670 L 575 669 L 574 669 L 571 666 z" />
<path d="M 760 518 L 761 517 L 763 517 L 764 518 L 764 520 L 765 521 L 765 524 L 766 525 L 766 538 L 761 543 L 757 543 L 756 542 L 757 541 L 757 527 L 756 526 L 756 520 L 757 519 L 758 519 L 759 518 z" />
<path d="M 568 507 L 569 506 L 570 507 L 570 508 L 579 517 L 582 517 L 583 516 L 585 516 L 586 515 L 589 515 L 590 514 L 594 514 L 595 513 L 605 513 L 619 527 L 619 528 L 625 534 L 625 535 L 631 541 L 631 542 L 634 545 L 637 545 L 644 538 L 645 538 L 646 537 L 647 537 L 648 536 L 650 536 L 651 535 L 660 535 L 661 536 L 663 536 L 665 538 L 666 538 L 667 539 L 668 539 L 675 546 L 679 546 L 680 545 L 681 545 L 682 544 L 683 544 L 684 543 L 685 543 L 686 542 L 687 542 L 688 541 L 690 541 L 691 540 L 692 540 L 693 539 L 696 539 L 697 538 L 699 538 L 700 537 L 705 537 L 706 536 L 722 536 L 723 537 L 725 537 L 726 538 L 728 538 L 729 539 L 730 539 L 732 541 L 733 541 L 737 545 L 738 545 L 742 549 L 743 549 L 744 550 L 745 550 L 746 551 L 747 551 L 748 552 L 750 552 L 751 553 L 763 553 L 764 552 L 766 552 L 767 551 L 768 551 L 770 549 L 771 549 L 772 548 L 772 547 L 774 545 L 774 544 L 775 543 L 775 541 L 776 540 L 776 525 L 775 524 L 775 521 L 776 520 L 783 527 L 783 528 L 785 530 L 785 531 L 787 533 L 787 536 L 788 537 L 788 552 L 787 553 L 787 561 L 786 562 L 786 566 L 785 567 L 785 569 L 784 570 L 784 572 L 783 573 L 783 574 L 782 575 L 782 576 L 780 578 L 780 579 L 771 588 L 770 588 L 769 589 L 768 589 L 767 590 L 766 590 L 765 591 L 762 591 L 761 592 L 745 592 L 745 593 L 744 594 L 745 595 L 745 596 L 747 598 L 747 599 L 748 600 L 748 601 L 749 602 L 749 603 L 750 604 L 750 606 L 751 607 L 751 614 L 750 615 L 750 617 L 748 619 L 748 620 L 742 626 L 741 626 L 739 628 L 738 628 L 737 629 L 736 629 L 735 630 L 734 630 L 733 631 L 731 631 L 730 632 L 728 632 L 727 633 L 725 633 L 724 634 L 724 635 L 713 646 L 712 646 L 709 649 L 708 649 L 706 651 L 705 651 L 704 652 L 703 652 L 702 653 L 701 653 L 700 654 L 699 654 L 697 656 L 696 656 L 695 657 L 693 657 L 692 658 L 691 658 L 690 659 L 688 659 L 687 660 L 685 660 L 684 661 L 681 661 L 680 662 L 677 662 L 676 663 L 673 663 L 672 664 L 667 664 L 666 665 L 658 665 L 657 666 L 633 666 L 632 665 L 623 665 L 622 664 L 617 664 L 616 663 L 612 663 L 611 662 L 607 662 L 606 661 L 603 661 L 602 660 L 599 660 L 598 659 L 596 659 L 595 658 L 593 658 L 592 657 L 590 657 L 589 656 L 587 656 L 586 655 L 585 655 L 584 654 L 582 654 L 581 653 L 580 653 L 579 652 L 577 652 L 576 651 L 575 651 L 571 647 L 571 612 L 570 611 L 570 574 L 569 573 L 569 535 L 568 534 z" />
<path d="M 317 544 L 318 543 L 321 543 L 322 544 L 323 544 L 324 545 L 323 546 L 321 546 L 320 545 L 318 545 z" />
<path d="M 314 543 L 315 542 L 317 542 L 318 543 L 317 544 L 315 544 z" />
<path d="M 311 542 L 312 541 L 314 541 L 315 542 L 314 543 L 312 543 z" />
<path d="M 308 541 L 309 540 L 311 540 L 312 541 L 311 542 L 309 542 z" />
<path d="M 149 421 L 150 420 L 152 420 L 153 421 L 156 421 L 157 422 L 160 422 L 163 425 L 163 426 L 164 427 L 164 428 L 165 429 L 165 430 L 166 431 L 166 432 L 167 433 L 167 434 L 169 436 L 169 437 L 170 438 L 170 439 L 172 441 L 172 442 L 173 443 L 173 444 L 175 446 L 175 447 L 178 450 L 178 451 L 180 453 L 180 454 L 183 457 L 183 458 L 188 463 L 188 464 L 196 472 L 196 473 L 202 479 L 203 479 L 212 488 L 213 488 L 217 492 L 218 492 L 221 495 L 222 495 L 225 498 L 226 498 L 229 501 L 230 501 L 232 503 L 233 503 L 234 504 L 235 504 L 237 506 L 238 506 L 240 508 L 241 508 L 242 509 L 243 509 L 244 510 L 245 510 L 247 512 L 248 512 L 249 513 L 250 513 L 251 514 L 252 514 L 253 515 L 254 515 L 255 516 L 257 516 L 258 517 L 259 517 L 261 519 L 263 519 L 264 520 L 265 520 L 266 521 L 267 521 L 268 522 L 270 522 L 271 523 L 272 523 L 274 525 L 276 525 L 277 526 L 278 526 L 279 527 L 281 527 L 283 529 L 285 529 L 286 530 L 287 530 L 288 531 L 289 531 L 290 532 L 292 532 L 293 533 L 294 533 L 295 534 L 296 534 L 297 535 L 299 535 L 300 536 L 301 536 L 302 537 L 303 537 L 304 538 L 306 538 L 307 539 L 308 539 L 309 540 L 308 541 L 306 541 L 305 540 L 303 540 L 302 539 L 300 539 L 299 538 L 298 538 L 297 537 L 295 537 L 294 536 L 293 536 L 292 535 L 290 535 L 289 534 L 288 534 L 287 533 L 285 533 L 284 532 L 283 532 L 282 531 L 281 531 L 280 530 L 278 530 L 277 529 L 276 529 L 275 528 L 274 528 L 273 527 L 272 527 L 271 526 L 269 526 L 268 525 L 267 525 L 266 524 L 265 524 L 264 523 L 263 523 L 262 522 L 261 522 L 260 521 L 258 521 L 257 520 L 256 520 L 255 519 L 254 519 L 253 518 L 252 518 L 251 517 L 250 517 L 249 516 L 247 516 L 246 515 L 245 515 L 243 513 L 241 513 L 240 512 L 239 512 L 238 511 L 237 511 L 236 510 L 235 510 L 233 508 L 232 508 L 231 507 L 230 507 L 229 506 L 228 506 L 226 504 L 225 504 L 224 503 L 223 503 L 221 501 L 220 501 L 218 499 L 217 499 L 216 498 L 215 498 L 212 495 L 211 495 L 208 492 L 207 492 L 204 489 L 203 489 L 199 485 L 198 485 L 175 462 L 175 461 L 170 456 L 170 455 L 167 452 L 167 451 L 165 449 L 165 448 L 162 445 L 162 444 L 160 442 L 160 441 L 159 440 L 159 439 L 157 437 L 157 436 L 156 435 L 156 434 L 154 432 L 154 431 L 153 430 L 153 429 L 152 428 L 152 427 L 151 426 L 151 425 L 150 424 L 150 423 L 149 422 z" />
<path d="M 139 417 L 140 416 L 143 416 L 144 417 L 146 417 L 147 418 L 147 419 L 146 420 L 145 419 L 143 419 L 142 418 L 140 418 z" />
<path d="M 136 416 L 137 415 L 139 415 L 140 416 L 139 417 L 137 417 z" />
<path d="M 65 331 L 66 330 L 71 330 L 72 331 L 75 331 L 76 332 L 76 337 L 77 338 L 77 343 L 78 344 L 78 347 L 79 348 L 79 351 L 80 352 L 80 354 L 81 355 L 81 357 L 82 358 L 82 359 L 83 360 L 83 362 L 84 363 L 84 364 L 85 365 L 85 367 L 86 368 L 86 369 L 87 370 L 87 371 L 88 372 L 88 373 L 90 375 L 90 376 L 91 377 L 91 378 L 93 380 L 93 381 L 96 384 L 96 385 L 112 401 L 113 401 L 116 404 L 117 404 L 119 406 L 120 406 L 121 407 L 122 407 L 124 409 L 125 409 L 126 410 L 127 410 L 128 411 L 129 411 L 130 412 L 131 412 L 132 413 L 134 413 L 135 414 L 136 414 L 137 415 L 136 416 L 134 416 L 133 415 L 131 415 L 130 414 L 128 414 L 127 413 L 125 413 L 124 412 L 122 412 L 121 411 L 120 411 L 119 410 L 118 410 L 117 409 L 116 409 L 115 408 L 114 408 L 113 407 L 112 407 L 111 406 L 110 406 L 108 404 L 107 404 L 105 402 L 104 402 L 102 400 L 101 400 L 98 397 L 97 397 L 83 383 L 83 382 L 80 379 L 80 378 L 79 377 L 79 376 L 77 374 L 77 373 L 76 372 L 76 371 L 74 369 L 74 368 L 73 367 L 73 366 L 72 365 L 72 364 L 71 363 L 71 361 L 70 360 L 70 358 L 69 357 L 69 355 L 68 354 L 68 352 L 67 351 L 67 348 L 66 347 L 66 342 L 65 341 z" />
<path d="M 431 282 L 432 281 L 433 281 L 434 282 L 451 282 L 452 283 L 460 283 L 461 284 L 466 284 L 467 285 L 471 285 L 472 286 L 476 286 L 477 287 L 480 287 L 481 288 L 484 288 L 485 289 L 487 289 L 488 290 L 490 290 L 491 291 L 493 291 L 494 292 L 496 292 L 497 293 L 499 293 L 500 294 L 501 294 L 502 295 L 504 295 L 505 296 L 506 296 L 507 297 L 508 297 L 509 298 L 510 298 L 511 299 L 512 299 L 513 300 L 514 300 L 516 302 L 517 302 L 518 303 L 519 303 L 520 304 L 521 304 L 523 306 L 524 306 L 526 308 L 527 308 L 531 312 L 532 312 L 544 324 L 544 325 L 546 327 L 546 328 L 548 330 L 548 331 L 549 332 L 549 333 L 550 334 L 550 335 L 552 337 L 552 339 L 553 340 L 553 342 L 554 343 L 554 346 L 555 347 L 555 385 L 556 386 L 556 447 L 557 448 L 557 494 L 558 495 L 558 535 L 559 536 L 559 573 L 560 574 L 560 611 L 561 612 L 561 2183 L 560 2184 L 319 2184 L 318 2183 L 318 556 L 319 555 L 326 555 L 327 556 L 328 555 L 333 555 L 334 554 L 336 554 L 337 553 L 338 553 L 340 551 L 341 551 L 342 550 L 347 550 L 348 551 L 349 550 L 354 550 L 355 549 L 357 549 L 358 548 L 359 548 L 361 546 L 362 546 L 363 545 L 363 544 L 365 542 L 365 541 L 367 539 L 367 537 L 368 536 L 368 534 L 369 533 L 369 529 L 370 528 L 370 521 L 371 520 L 371 507 L 372 506 L 372 437 L 371 436 L 371 405 L 370 404 L 370 382 L 369 381 L 369 379 L 368 378 L 368 376 L 367 375 L 367 374 L 366 373 L 366 372 L 365 371 L 365 370 L 363 368 L 363 367 L 361 365 L 361 364 L 359 362 L 359 361 L 355 357 L 355 356 L 345 346 L 344 346 L 341 343 L 340 343 L 337 340 L 336 340 L 335 339 L 334 339 L 332 337 L 331 337 L 330 336 L 329 336 L 328 335 L 326 335 L 325 334 L 324 334 L 322 332 L 322 331 L 323 330 L 323 329 L 324 328 L 324 327 L 325 326 L 325 325 L 328 322 L 328 321 L 340 309 L 341 309 L 344 306 L 345 306 L 347 304 L 348 304 L 350 302 L 351 302 L 352 301 L 353 301 L 354 300 L 355 300 L 356 299 L 357 299 L 358 298 L 359 298 L 361 296 L 362 296 L 363 295 L 365 295 L 366 294 L 367 294 L 368 293 L 370 293 L 371 292 L 372 292 L 373 291 L 375 291 L 376 290 L 378 290 L 379 289 L 382 289 L 383 288 L 385 288 L 386 287 L 389 287 L 390 286 L 394 286 L 395 285 L 399 285 L 400 284 L 405 284 L 406 283 L 413 283 L 414 282 z" />
<path d="M 420 243 L 421 242 L 460 242 L 461 243 L 469 243 L 470 244 L 475 244 L 476 245 L 481 245 L 482 246 L 485 246 L 486 247 L 490 247 L 491 248 L 493 248 L 494 249 L 497 249 L 498 250 L 500 250 L 501 251 L 503 251 L 504 252 L 506 252 L 507 253 L 509 253 L 510 254 L 512 254 L 513 255 L 514 255 L 515 256 L 517 256 L 518 257 L 519 257 L 520 258 L 521 258 L 522 259 L 523 259 L 524 260 L 525 260 L 526 261 L 527 261 L 528 262 L 529 262 L 530 263 L 531 263 L 532 264 L 533 264 L 535 266 L 536 266 L 537 267 L 538 267 L 540 269 L 541 269 L 542 270 L 543 270 L 546 273 L 547 273 L 549 275 L 550 275 L 554 279 L 555 279 L 573 297 L 573 298 L 576 301 L 576 302 L 578 304 L 578 305 L 580 307 L 580 308 L 582 310 L 582 311 L 583 312 L 583 313 L 584 314 L 584 315 L 585 316 L 585 317 L 586 318 L 586 319 L 587 320 L 587 321 L 588 322 L 588 324 L 589 325 L 589 327 L 590 328 L 590 330 L 591 331 L 591 334 L 592 335 L 592 340 L 593 341 L 593 364 L 592 365 L 592 370 L 591 371 L 591 374 L 590 375 L 590 377 L 589 378 L 589 380 L 588 381 L 588 383 L 587 384 L 587 385 L 586 386 L 586 387 L 585 388 L 585 389 L 584 390 L 584 391 L 583 392 L 583 393 L 582 394 L 582 395 L 580 397 L 580 398 L 578 400 L 578 401 L 576 403 L 576 404 L 573 407 L 573 408 L 568 413 L 568 414 L 567 415 L 566 414 L 566 386 L 565 385 L 565 346 L 564 345 L 564 342 L 563 341 L 563 338 L 562 337 L 562 335 L 561 334 L 561 333 L 560 332 L 560 330 L 559 329 L 559 328 L 558 327 L 558 326 L 556 324 L 556 323 L 554 321 L 554 320 L 552 318 L 552 317 L 539 304 L 538 304 L 534 300 L 533 300 L 531 298 L 530 298 L 528 296 L 527 296 L 526 295 L 525 295 L 523 293 L 522 293 L 521 292 L 520 292 L 519 291 L 518 291 L 517 290 L 516 290 L 515 289 L 514 289 L 513 288 L 511 288 L 510 287 L 509 287 L 508 286 L 507 286 L 506 285 L 504 285 L 503 284 L 502 284 L 501 283 L 499 283 L 498 282 L 496 282 L 495 281 L 493 281 L 492 280 L 489 280 L 488 279 L 486 279 L 485 278 L 482 278 L 481 277 L 478 277 L 477 276 L 473 276 L 472 275 L 468 275 L 467 274 L 461 274 L 460 273 L 453 273 L 452 272 L 434 272 L 433 271 L 432 271 L 431 272 L 413 272 L 412 273 L 405 273 L 404 274 L 399 274 L 398 275 L 394 275 L 393 276 L 389 276 L 388 277 L 385 277 L 384 278 L 381 278 L 380 279 L 378 279 L 377 280 L 375 280 L 374 281 L 372 281 L 371 282 L 369 282 L 368 283 L 366 283 L 365 284 L 364 284 L 363 285 L 361 285 L 360 286 L 359 286 L 358 287 L 356 287 L 355 288 L 354 288 L 353 289 L 352 289 L 351 290 L 350 290 L 349 291 L 348 291 L 346 293 L 345 293 L 344 294 L 343 294 L 341 296 L 340 296 L 338 298 L 337 298 L 334 301 L 333 301 L 320 314 L 320 315 L 317 318 L 317 319 L 316 320 L 316 321 L 314 323 L 314 324 L 313 325 L 313 327 L 310 330 L 307 327 L 307 326 L 306 325 L 306 323 L 305 322 L 305 319 L 304 318 L 304 317 L 303 316 L 303 314 L 302 313 L 302 311 L 301 310 L 301 307 L 303 305 L 303 304 L 305 302 L 305 301 L 308 298 L 308 297 L 326 279 L 327 279 L 331 275 L 332 275 L 334 273 L 335 273 L 337 271 L 338 271 L 340 269 L 341 269 L 343 267 L 344 267 L 345 266 L 346 266 L 348 264 L 349 264 L 350 263 L 351 263 L 352 262 L 353 262 L 354 261 L 355 261 L 356 260 L 357 260 L 358 259 L 359 259 L 360 258 L 361 258 L 362 257 L 363 257 L 364 256 L 366 256 L 367 255 L 368 255 L 369 254 L 371 254 L 372 253 L 374 253 L 375 252 L 377 252 L 378 251 L 380 251 L 381 250 L 383 250 L 384 249 L 386 249 L 387 248 L 390 248 L 391 247 L 395 247 L 396 246 L 399 246 L 400 245 L 405 245 L 406 244 L 411 244 L 412 243 z" />
<path d="M 591 306 L 592 305 L 593 306 L 593 307 L 592 308 L 591 307 z" />
<path d="M 420 209 L 421 208 L 460 208 L 461 209 L 469 209 L 470 210 L 475 210 L 476 211 L 481 211 L 482 212 L 485 212 L 486 213 L 490 213 L 491 214 L 493 214 L 494 215 L 497 215 L 498 216 L 500 216 L 501 217 L 503 217 L 504 218 L 506 218 L 507 219 L 509 219 L 510 220 L 512 220 L 513 221 L 514 221 L 515 222 L 517 222 L 518 223 L 519 223 L 520 224 L 521 224 L 522 225 L 523 225 L 524 226 L 525 226 L 526 227 L 527 227 L 528 228 L 529 228 L 530 229 L 531 229 L 532 230 L 533 230 L 535 232 L 536 232 L 537 233 L 538 233 L 540 235 L 541 235 L 542 236 L 543 236 L 546 239 L 547 239 L 549 241 L 550 241 L 554 245 L 555 245 L 573 263 L 573 264 L 576 267 L 576 268 L 578 270 L 578 271 L 580 273 L 580 274 L 582 276 L 582 277 L 583 278 L 583 279 L 584 280 L 584 281 L 585 282 L 585 283 L 586 284 L 586 285 L 587 286 L 587 287 L 588 288 L 588 290 L 589 291 L 589 293 L 590 294 L 590 296 L 591 297 L 591 300 L 592 301 L 592 305 L 591 306 L 590 305 L 590 303 L 588 301 L 588 300 L 586 298 L 586 297 L 584 295 L 584 294 L 581 291 L 581 290 L 573 282 L 573 281 L 570 278 L 569 278 L 562 271 L 561 271 L 557 267 L 556 267 L 554 265 L 553 265 L 550 262 L 549 262 L 548 261 L 547 261 L 545 259 L 544 259 L 542 257 L 541 257 L 540 256 L 539 256 L 538 255 L 537 255 L 536 254 L 535 254 L 534 253 L 533 253 L 532 252 L 531 252 L 530 251 L 529 251 L 528 250 L 527 250 L 526 249 L 524 249 L 523 248 L 522 248 L 521 247 L 520 247 L 519 246 L 517 246 L 516 245 L 515 245 L 514 244 L 512 244 L 511 243 L 509 243 L 508 242 L 506 242 L 505 241 L 503 241 L 502 240 L 499 240 L 498 239 L 496 239 L 495 238 L 492 238 L 491 237 L 488 237 L 487 236 L 483 236 L 482 235 L 477 235 L 476 234 L 471 234 L 470 233 L 462 233 L 461 232 L 420 232 L 419 233 L 411 233 L 410 234 L 405 234 L 404 235 L 399 235 L 398 236 L 395 236 L 394 237 L 390 237 L 389 238 L 386 238 L 385 239 L 383 239 L 382 240 L 379 240 L 378 241 L 376 241 L 375 242 L 373 242 L 372 243 L 370 243 L 369 244 L 367 244 L 366 245 L 365 245 L 364 246 L 362 246 L 361 247 L 360 247 L 359 248 L 358 248 L 357 249 L 355 249 L 354 250 L 353 250 L 352 251 L 351 251 L 350 252 L 349 252 L 348 253 L 347 253 L 346 254 L 345 254 L 344 255 L 343 255 L 342 256 L 341 256 L 339 258 L 338 258 L 337 259 L 336 259 L 334 261 L 333 261 L 332 262 L 331 262 L 328 265 L 327 265 L 325 267 L 324 267 L 320 271 L 319 271 L 312 278 L 311 278 L 307 282 L 307 283 L 300 290 L 300 291 L 297 294 L 297 295 L 296 296 L 294 294 L 294 293 L 293 292 L 293 288 L 294 287 L 294 286 L 295 285 L 295 284 L 296 283 L 296 282 L 297 281 L 297 280 L 298 279 L 298 278 L 299 277 L 299 276 L 301 274 L 301 273 L 303 271 L 303 270 L 305 268 L 305 267 L 308 264 L 308 263 L 326 245 L 327 245 L 331 241 L 332 241 L 334 239 L 335 239 L 337 237 L 338 237 L 340 235 L 341 235 L 343 233 L 344 233 L 345 232 L 346 232 L 348 230 L 349 230 L 350 229 L 351 229 L 352 228 L 353 228 L 354 227 L 355 227 L 356 226 L 357 226 L 358 225 L 359 225 L 360 224 L 361 224 L 362 223 L 363 223 L 364 222 L 366 222 L 367 221 L 368 221 L 369 220 L 371 220 L 372 219 L 374 219 L 375 218 L 377 218 L 378 217 L 380 217 L 381 216 L 383 216 L 384 215 L 386 215 L 387 214 L 390 214 L 391 213 L 395 213 L 396 212 L 399 212 L 400 211 L 405 211 L 406 210 L 411 210 L 412 209 z" />
<path d="M 420 150 L 421 149 L 460 149 L 461 150 L 469 150 L 470 151 L 475 151 L 476 152 L 481 152 L 482 153 L 485 153 L 486 154 L 490 154 L 491 155 L 493 155 L 494 156 L 497 156 L 498 157 L 500 157 L 501 158 L 503 158 L 504 159 L 506 159 L 507 160 L 509 160 L 510 161 L 512 161 L 513 162 L 514 162 L 515 163 L 517 163 L 518 164 L 519 164 L 520 165 L 521 165 L 522 166 L 523 166 L 524 167 L 525 167 L 526 168 L 527 168 L 528 169 L 529 169 L 530 170 L 531 170 L 532 171 L 533 171 L 535 173 L 536 173 L 537 174 L 538 174 L 540 176 L 541 176 L 542 177 L 543 177 L 546 180 L 547 180 L 549 182 L 550 182 L 554 186 L 555 186 L 573 204 L 573 205 L 576 208 L 576 209 L 578 211 L 578 212 L 580 214 L 580 215 L 582 217 L 582 218 L 583 219 L 583 220 L 584 221 L 584 222 L 585 223 L 585 224 L 586 225 L 586 226 L 587 227 L 587 228 L 588 229 L 588 231 L 589 232 L 589 234 L 590 235 L 590 237 L 591 238 L 591 241 L 592 242 L 592 247 L 593 248 L 593 272 L 592 273 L 591 272 L 591 271 L 590 270 L 590 269 L 588 267 L 588 266 L 586 264 L 586 263 L 584 261 L 584 260 L 581 257 L 581 256 L 573 248 L 573 247 L 570 244 L 569 244 L 562 237 L 561 237 L 557 233 L 556 233 L 554 231 L 553 231 L 550 228 L 549 228 L 548 227 L 547 227 L 545 225 L 544 225 L 542 223 L 541 223 L 540 222 L 539 222 L 538 221 L 537 221 L 536 220 L 535 220 L 534 219 L 533 219 L 532 218 L 531 218 L 530 217 L 529 217 L 528 216 L 527 216 L 526 215 L 524 215 L 523 214 L 522 214 L 521 213 L 520 213 L 519 212 L 517 212 L 516 211 L 515 211 L 514 210 L 512 210 L 511 209 L 509 209 L 508 208 L 506 208 L 505 207 L 503 207 L 502 206 L 499 206 L 498 205 L 496 205 L 495 204 L 492 204 L 491 203 L 488 203 L 487 202 L 483 202 L 482 201 L 477 201 L 476 200 L 471 200 L 470 199 L 462 199 L 461 198 L 420 198 L 419 199 L 411 199 L 410 200 L 405 200 L 404 201 L 399 201 L 398 202 L 395 202 L 394 203 L 390 203 L 389 204 L 386 204 L 385 205 L 383 205 L 382 206 L 379 206 L 378 207 L 376 207 L 375 208 L 373 208 L 372 209 L 370 209 L 369 210 L 367 210 L 366 211 L 365 211 L 364 212 L 362 212 L 361 213 L 360 213 L 359 214 L 358 214 L 357 215 L 355 215 L 354 216 L 353 216 L 352 217 L 351 217 L 350 218 L 349 218 L 348 219 L 347 219 L 346 220 L 345 220 L 344 221 L 343 221 L 342 222 L 341 222 L 339 224 L 338 224 L 337 225 L 336 225 L 334 227 L 333 227 L 332 228 L 331 228 L 328 231 L 327 231 L 325 233 L 324 233 L 320 237 L 319 237 L 312 244 L 311 244 L 307 248 L 307 249 L 300 256 L 300 257 L 297 260 L 297 261 L 295 263 L 295 264 L 293 266 L 293 267 L 291 269 L 291 270 L 290 271 L 290 272 L 289 273 L 288 272 L 288 247 L 289 246 L 289 242 L 290 241 L 290 238 L 291 237 L 291 235 L 292 234 L 292 232 L 293 231 L 293 229 L 294 228 L 294 227 L 295 226 L 295 225 L 296 224 L 296 223 L 297 222 L 297 221 L 298 220 L 298 219 L 299 218 L 299 217 L 301 215 L 301 214 L 303 212 L 303 211 L 305 209 L 305 208 L 308 205 L 308 204 L 326 186 L 327 186 L 331 182 L 332 182 L 334 180 L 335 180 L 337 178 L 338 178 L 340 176 L 341 176 L 343 174 L 344 174 L 345 173 L 346 173 L 348 171 L 349 171 L 350 170 L 351 170 L 352 169 L 353 169 L 354 168 L 355 168 L 356 167 L 357 167 L 358 166 L 359 166 L 360 165 L 361 165 L 362 164 L 363 164 L 364 163 L 366 163 L 367 162 L 368 162 L 369 161 L 371 161 L 372 160 L 374 160 L 375 159 L 377 159 L 378 158 L 380 158 L 381 157 L 383 157 L 384 156 L 386 156 L 387 155 L 390 155 L 391 154 L 395 154 L 396 153 L 399 153 L 400 152 L 405 152 L 406 151 L 411 151 L 412 150 z" />
<path d="M 31 134 L 32 133 L 33 134 L 33 135 L 32 136 L 32 138 L 31 139 L 31 143 L 30 144 L 30 154 L 31 155 L 31 159 L 32 160 L 32 163 L 33 164 L 33 166 L 34 167 L 34 170 L 32 172 L 32 173 L 30 175 L 30 176 L 29 177 L 29 178 L 28 179 L 28 181 L 27 182 L 27 184 L 26 185 L 26 187 L 25 188 L 25 190 L 24 191 L 24 195 L 23 196 L 23 204 L 22 205 L 22 209 L 23 210 L 23 218 L 24 219 L 24 223 L 25 224 L 25 226 L 26 227 L 26 229 L 27 230 L 27 232 L 28 233 L 28 234 L 29 235 L 29 237 L 30 238 L 30 239 L 31 240 L 31 241 L 32 242 L 32 243 L 31 244 L 31 245 L 30 246 L 30 247 L 29 248 L 29 249 L 28 250 L 28 251 L 27 252 L 27 254 L 26 255 L 26 257 L 25 258 L 25 261 L 24 262 L 24 269 L 23 270 L 23 272 L 24 273 L 24 281 L 25 282 L 25 285 L 26 286 L 26 288 L 27 289 L 27 291 L 28 292 L 28 293 L 29 294 L 29 295 L 30 296 L 30 297 L 31 298 L 31 299 L 32 300 L 32 301 L 34 303 L 34 304 L 36 306 L 36 307 L 38 309 L 38 310 L 42 314 L 42 315 L 47 320 L 48 320 L 51 323 L 52 323 L 54 325 L 53 326 L 52 326 L 51 325 L 46 325 L 45 324 L 44 324 L 43 323 L 42 323 L 41 322 L 40 322 L 38 320 L 37 320 L 33 316 L 32 316 L 30 314 L 30 313 L 25 308 L 25 307 L 23 305 L 23 304 L 21 302 L 21 301 L 19 299 L 19 298 L 18 297 L 18 296 L 17 295 L 17 294 L 16 293 L 16 292 L 15 291 L 15 289 L 14 288 L 14 286 L 13 285 L 13 278 L 12 277 L 12 275 L 13 274 L 13 268 L 14 267 L 14 264 L 15 263 L 15 262 L 16 261 L 16 260 L 17 259 L 17 258 L 19 256 L 19 255 L 23 251 L 23 247 L 22 246 L 22 245 L 20 243 L 20 242 L 19 241 L 19 240 L 18 239 L 18 238 L 17 237 L 17 236 L 16 235 L 16 234 L 15 233 L 15 231 L 14 230 L 14 227 L 13 226 L 13 223 L 12 222 L 12 214 L 11 213 L 11 210 L 12 209 L 12 202 L 13 201 L 13 198 L 14 197 L 14 194 L 15 193 L 15 192 L 16 191 L 16 189 L 18 187 L 18 186 L 19 185 L 19 184 L 21 182 L 21 181 L 24 178 L 24 177 L 25 176 L 25 173 L 24 172 L 24 171 L 22 169 L 22 167 L 21 166 L 21 164 L 20 163 L 20 160 L 19 159 L 19 150 L 20 149 L 20 146 L 21 145 L 21 144 L 22 143 L 22 142 L 30 134 z" />
<path d="M 32 133 L 33 132 L 34 133 L 33 134 z" />
<path d="M 66 124 L 67 123 L 86 123 L 87 124 L 92 124 L 93 125 L 97 125 L 98 126 L 102 126 L 103 127 L 105 127 L 106 128 L 109 128 L 110 129 L 112 129 L 113 130 L 115 130 L 116 131 L 118 131 L 119 132 L 120 132 L 121 133 L 123 133 L 124 134 L 125 134 L 126 135 L 128 135 L 130 137 L 131 137 L 132 138 L 133 138 L 134 139 L 135 139 L 136 140 L 137 140 L 138 141 L 139 141 L 141 143 L 142 143 L 144 145 L 145 145 L 148 148 L 149 148 L 153 152 L 154 152 L 162 160 L 162 161 L 167 166 L 167 167 L 169 169 L 169 170 L 171 172 L 171 173 L 173 175 L 173 176 L 174 177 L 174 178 L 175 179 L 175 180 L 176 181 L 176 182 L 177 183 L 177 184 L 179 186 L 179 188 L 180 189 L 180 190 L 181 191 L 181 193 L 182 194 L 182 196 L 183 197 L 183 199 L 184 200 L 184 203 L 185 204 L 185 207 L 186 208 L 186 211 L 187 212 L 187 218 L 188 219 L 188 236 L 190 238 L 201 238 L 202 239 L 206 239 L 207 240 L 209 240 L 210 241 L 213 241 L 214 242 L 215 242 L 216 243 L 218 243 L 219 244 L 221 244 L 222 245 L 223 245 L 224 246 L 226 246 L 227 247 L 228 247 L 229 248 L 230 248 L 231 249 L 232 249 L 233 250 L 234 250 L 235 251 L 236 251 L 237 252 L 238 252 L 240 254 L 241 254 L 242 255 L 243 255 L 244 256 L 245 256 L 246 257 L 247 257 L 249 259 L 250 259 L 251 260 L 252 260 L 254 262 L 255 262 L 259 266 L 260 266 L 270 276 L 270 277 L 274 281 L 274 282 L 277 285 L 277 286 L 279 288 L 279 289 L 280 290 L 280 291 L 282 293 L 282 294 L 283 295 L 283 296 L 284 297 L 284 298 L 285 299 L 285 300 L 286 301 L 286 302 L 287 303 L 287 304 L 289 306 L 289 307 L 290 308 L 290 310 L 291 311 L 291 312 L 292 313 L 292 315 L 293 316 L 293 317 L 294 318 L 294 320 L 295 321 L 295 323 L 296 324 L 296 326 L 297 327 L 297 330 L 298 331 L 298 334 L 299 335 L 299 338 L 302 338 L 303 339 L 308 339 L 309 340 L 312 340 L 313 341 L 315 341 L 316 342 L 318 342 L 319 343 L 321 343 L 322 344 L 323 344 L 325 346 L 326 346 L 327 347 L 328 347 L 329 348 L 330 348 L 333 351 L 334 351 L 337 354 L 338 354 L 347 363 L 347 364 L 351 368 L 351 369 L 353 371 L 353 372 L 355 374 L 355 375 L 356 376 L 356 377 L 358 379 L 358 380 L 359 381 L 359 383 L 360 384 L 360 404 L 361 405 L 361 436 L 362 437 L 362 506 L 361 507 L 361 520 L 360 521 L 360 527 L 359 528 L 359 531 L 358 532 L 358 533 L 357 534 L 357 535 L 352 540 L 349 540 L 348 541 L 347 540 L 340 540 L 339 539 L 336 539 L 335 538 L 333 538 L 332 537 L 330 537 L 329 536 L 327 536 L 326 535 L 324 535 L 323 534 L 321 534 L 320 533 L 319 533 L 318 532 L 316 532 L 315 531 L 314 531 L 313 530 L 311 530 L 310 529 L 309 529 L 308 528 L 306 528 L 305 527 L 304 527 L 303 526 L 302 526 L 301 525 L 299 525 L 298 524 L 297 524 L 296 523 L 295 523 L 294 522 L 293 522 L 292 521 L 290 521 L 289 520 L 288 520 L 287 519 L 286 519 L 285 518 L 284 518 L 283 517 L 282 517 L 281 516 L 279 516 L 278 515 L 277 515 L 276 514 L 275 514 L 274 513 L 273 513 L 272 512 L 271 512 L 270 511 L 268 511 L 267 510 L 266 510 L 264 508 L 262 508 L 261 507 L 260 507 L 259 506 L 258 506 L 257 505 L 256 505 L 254 503 L 253 503 L 252 502 L 251 502 L 250 501 L 249 501 L 247 499 L 246 499 L 245 498 L 244 498 L 242 496 L 241 496 L 239 494 L 238 494 L 237 493 L 236 493 L 233 490 L 232 490 L 229 487 L 228 487 L 225 484 L 224 484 L 220 480 L 219 480 L 196 457 L 196 456 L 191 451 L 191 450 L 188 447 L 188 446 L 186 444 L 186 443 L 183 440 L 183 439 L 181 437 L 181 436 L 180 435 L 180 434 L 178 432 L 178 431 L 177 430 L 177 429 L 175 427 L 175 426 L 174 425 L 174 424 L 173 423 L 173 422 L 172 421 L 172 420 L 171 419 L 171 418 L 170 417 L 170 415 L 169 414 L 167 414 L 166 413 L 162 413 L 161 412 L 158 412 L 157 411 L 155 411 L 154 410 L 152 410 L 151 409 L 149 409 L 148 408 L 146 408 L 145 407 L 143 407 L 142 406 L 141 406 L 140 405 L 139 405 L 138 404 L 137 404 L 136 403 L 135 403 L 134 402 L 133 402 L 132 401 L 131 401 L 129 399 L 128 399 L 126 397 L 125 397 L 123 395 L 122 395 L 119 392 L 118 392 L 104 378 L 104 377 L 101 374 L 101 373 L 100 372 L 100 371 L 98 369 L 98 368 L 97 367 L 97 366 L 95 364 L 95 363 L 94 362 L 94 361 L 93 360 L 93 359 L 92 358 L 92 356 L 91 355 L 91 353 L 90 352 L 90 350 L 89 349 L 89 347 L 88 346 L 88 343 L 87 342 L 87 337 L 86 336 L 86 318 L 85 317 L 84 318 L 82 318 L 81 319 L 80 319 L 79 320 L 76 320 L 75 321 L 73 321 L 72 320 L 67 320 L 66 319 L 65 319 L 64 318 L 63 318 L 62 317 L 61 317 L 59 315 L 58 315 L 54 311 L 53 311 L 51 309 L 51 308 L 46 303 L 46 302 L 44 300 L 44 299 L 42 297 L 42 296 L 40 294 L 40 293 L 39 292 L 39 291 L 38 290 L 38 289 L 37 288 L 37 287 L 36 286 L 36 284 L 35 283 L 35 281 L 34 280 L 34 273 L 33 272 L 33 270 L 34 269 L 34 263 L 35 262 L 35 259 L 36 258 L 36 257 L 37 256 L 37 255 L 38 254 L 38 253 L 40 251 L 40 250 L 44 246 L 44 242 L 43 241 L 43 240 L 41 238 L 41 237 L 40 236 L 40 235 L 39 234 L 39 233 L 38 232 L 38 231 L 37 230 L 37 229 L 36 228 L 36 226 L 35 225 L 35 222 L 34 221 L 34 218 L 33 217 L 33 209 L 32 208 L 32 205 L 33 204 L 33 197 L 34 196 L 34 193 L 35 192 L 35 189 L 36 188 L 36 187 L 37 186 L 37 184 L 39 182 L 39 181 L 40 180 L 40 179 L 42 177 L 42 176 L 45 173 L 45 172 L 46 171 L 46 168 L 45 167 L 45 166 L 43 164 L 43 162 L 42 161 L 42 159 L 41 158 L 41 155 L 40 154 L 40 145 L 41 144 L 41 141 L 42 140 L 42 139 L 43 138 L 43 137 L 51 129 L 52 129 L 54 127 L 55 127 L 56 126 L 58 126 L 59 125 L 61 125 L 62 124 z" />
<path d="M 444 11 L 452 11 L 453 12 L 455 12 L 456 13 L 458 13 L 459 14 L 460 14 L 461 15 L 464 15 L 465 16 L 479 16 L 480 15 L 489 15 L 490 14 L 501 14 L 502 15 L 503 15 L 505 17 L 506 17 L 507 18 L 508 18 L 515 25 L 515 26 L 516 27 L 516 31 L 515 32 L 515 33 L 505 43 L 504 43 L 492 55 L 492 56 L 490 58 L 490 59 L 489 60 L 489 61 L 488 62 L 488 64 L 487 65 L 487 80 L 488 81 L 488 83 L 489 84 L 489 85 L 490 86 L 490 87 L 492 89 L 492 90 L 494 92 L 494 93 L 496 95 L 496 97 L 497 98 L 497 101 L 498 102 L 498 126 L 497 127 L 497 140 L 496 141 L 496 144 L 495 145 L 492 145 L 491 144 L 488 144 L 487 143 L 483 143 L 482 142 L 477 142 L 476 141 L 471 141 L 470 140 L 462 140 L 461 139 L 420 139 L 419 140 L 411 140 L 410 141 L 405 141 L 404 142 L 399 142 L 398 143 L 395 143 L 394 144 L 390 144 L 389 145 L 386 145 L 385 146 L 383 146 L 382 147 L 378 147 L 377 146 L 377 145 L 378 144 L 378 139 L 379 138 L 379 135 L 380 134 L 380 130 L 381 129 L 381 126 L 382 125 L 382 121 L 383 120 L 383 117 L 384 116 L 384 113 L 385 112 L 385 110 L 386 109 L 386 106 L 387 105 L 387 103 L 388 102 L 388 100 L 389 99 L 389 96 L 390 95 L 390 93 L 391 92 L 391 91 L 392 90 L 392 88 L 393 87 L 393 85 L 394 84 L 394 83 L 395 82 L 395 80 L 396 79 L 396 78 L 397 77 L 397 76 L 398 75 L 398 74 L 399 73 L 399 72 L 400 71 L 400 70 L 402 68 L 402 67 L 403 66 L 403 65 L 405 63 L 405 62 L 411 56 L 411 54 L 412 53 L 412 37 L 413 36 L 413 33 L 414 32 L 414 31 L 416 29 L 423 29 L 424 28 L 427 28 L 428 27 L 429 27 L 430 26 L 431 26 L 436 21 L 436 20 L 438 18 L 438 17 z" />
</g>
</g>
</g>
</svg>