<?xml version="1.0" encoding="UTF-8"?>
<svg xmlns="http://www.w3.org/2000/svg" xmlns:xlink="http://www.w3.org/1999/xlink"
     width="640" height="2826" viewBox="0 0 640 2826">
<defs>
</defs>
<g id="0" stroke="black" fill-opacity="0">
<path d="M 363 0 L 362 1 L 362 4 L 361 5 L 361 8 L 360 9 L 360 12 L 359 13 L 359 16 L 358 17 L 358 20 L 357 21 L 357 22 L 356 23 L 274 23 L 273 22 L 273 18 L 272 17 L 272 9 L 271 8 L 271 6 L 272 5 L 271 4 L 270 4 L 270 5 L 269 6 L 269 8 L 268 9 L 268 12 L 267 13 L 267 15 L 266 16 L 266 18 L 265 19 L 265 21 L 263 23 L 175 23 L 174 22 L 174 13 L 173 12 L 173 5 L 174 4 L 173 3 L 172 3 L 172 4 L 171 5 L 171 7 L 170 8 L 170 10 L 169 11 L 169 13 L 168 14 L 168 16 L 167 17 L 167 19 L 166 20 L 166 22 L 165 23 L 97 23 L 95 25 L 95 29 L 94 30 L 94 42 L 93 43 L 93 55 L 92 56 L 92 68 L 91 69 L 91 81 L 90 82 L 90 95 L 89 96 L 89 108 L 88 109 L 88 121 L 87 122 L 87 134 L 86 135 L 86 147 L 85 148 L 85 161 L 84 162 L 84 174 L 83 175 L 83 187 L 82 188 L 82 200 L 81 201 L 81 213 L 80 214 L 80 227 L 79 228 L 79 240 L 78 241 L 78 253 L 77 254 L 77 266 L 76 267 L 76 279 L 75 280 L 75 286 L 74 287 L 69 287 L 67 289 L 67 359 L 66 360 L 64 360 L 62 362 L 62 453 L 61 454 L 59 454 L 57 456 L 57 563 L 56 564 L 54 564 L 52 566 L 52 689 L 51 690 L 49 690 L 47 692 L 47 831 L 46 832 L 44 832 L 42 834 L 42 988 L 41 989 L 38 989 L 36 991 L 36 1158 L 35 1159 L 33 1159 L 31 1161 L 31 1341 L 30 1342 L 28 1342 L 26 1344 L 26 1536 L 25 1537 L 23 1537 L 21 1539 L 21 1742 L 20 1743 L 18 1743 L 16 1745 L 16 1957 L 15 1958 L 12 1958 L 10 1960 L 10 2182 L 9 2183 L 7 2183 L 5 2185 L 5 2409 L 4 2410 L 2 2410 L 0 2412 L 0 2824 L 1 2825 L 639 2825 L 639 2411 L 638 2410 L 635 2410 L 634 2409 L 634 2188 L 633 2187 L 627 2187 L 626 2186 L 626 1969 L 625 1968 L 620 1968 L 619 1967 L 619 1757 L 618 1756 L 612 1756 L 611 1755 L 611 1553 L 610 1552 L 603 1552 L 602 1551 L 602 1358 L 601 1357 L 594 1357 L 593 1356 L 593 1174 L 592 1173 L 585 1173 L 584 1172 L 584 1001 L 583 1000 L 576 1000 L 575 999 L 575 841 L 574 840 L 568 840 L 567 839 L 567 696 L 566 695 L 560 695 L 559 694 L 559 567 L 558 566 L 551 566 L 550 565 L 550 455 L 549 454 L 545 454 L 544 453 L 544 361 L 543 360 L 539 360 L 538 359 L 538 288 L 537 287 L 536 287 L 535 286 L 535 282 L 534 281 L 534 273 L 533 272 L 533 263 L 532 262 L 532 254 L 531 253 L 531 244 L 530 243 L 530 235 L 529 234 L 529 225 L 528 224 L 528 216 L 527 215 L 527 207 L 526 206 L 526 197 L 525 196 L 525 188 L 524 187 L 524 178 L 523 177 L 523 169 L 522 168 L 522 159 L 521 158 L 521 150 L 520 149 L 520 141 L 519 140 L 519 131 L 518 130 L 518 122 L 517 121 L 517 112 L 516 111 L 516 103 L 515 102 L 515 93 L 514 92 L 514 84 L 513 83 L 513 75 L 512 74 L 512 65 L 511 64 L 511 56 L 510 55 L 510 46 L 509 45 L 509 37 L 508 36 L 508 27 L 507 26 L 507 24 L 506 23 L 367 23 L 366 22 L 366 19 L 365 18 L 365 11 L 364 10 L 364 1 z" />
<path d="M 270 5 L 271 4 L 272 5 L 271 6 z" />
<path d="M 363 3 L 364 4 L 364 10 L 365 11 L 365 18 L 366 19 L 366 22 L 367 23 L 506 23 L 507 24 L 507 26 L 508 27 L 508 36 L 509 37 L 509 45 L 510 46 L 510 55 L 511 56 L 511 64 L 512 65 L 512 74 L 513 75 L 513 83 L 514 84 L 514 92 L 515 93 L 515 102 L 516 103 L 516 111 L 517 112 L 517 121 L 518 122 L 518 130 L 519 131 L 519 140 L 520 141 L 520 149 L 521 150 L 521 158 L 522 159 L 522 168 L 523 169 L 523 177 L 524 178 L 524 187 L 525 188 L 525 196 L 526 197 L 526 206 L 527 207 L 527 215 L 528 216 L 528 224 L 529 225 L 529 234 L 530 235 L 530 243 L 531 244 L 531 253 L 532 254 L 532 262 L 533 263 L 533 272 L 534 273 L 534 281 L 535 282 L 535 286 L 536 287 L 537 287 L 538 288 L 538 359 L 539 360 L 543 360 L 544 361 L 544 453 L 545 454 L 549 454 L 550 455 L 550 565 L 551 566 L 558 566 L 559 567 L 559 694 L 560 695 L 566 695 L 567 696 L 567 839 L 568 840 L 574 840 L 575 841 L 575 999 L 576 1000 L 583 1000 L 584 1001 L 584 1172 L 585 1173 L 592 1173 L 593 1174 L 593 1356 L 594 1357 L 601 1357 L 602 1358 L 602 1551 L 603 1552 L 610 1552 L 611 1553 L 611 1755 L 612 1756 L 618 1756 L 619 1757 L 619 1967 L 620 1968 L 625 1968 L 626 1969 L 626 2186 L 627 2187 L 633 2187 L 634 2188 L 634 2409 L 635 2410 L 638 2410 L 639 2411 L 639 2824 L 638 2825 L 1 2825 L 0 2824 L 0 2412 L 2 2410 L 5 2410 L 5 2185 L 7 2183 L 10 2183 L 10 1960 L 12 1958 L 16 1958 L 16 1745 L 18 1743 L 21 1743 L 21 1539 L 23 1537 L 26 1537 L 26 1344 L 28 1342 L 31 1342 L 31 1161 L 33 1159 L 36 1159 L 36 991 L 38 989 L 42 989 L 42 834 L 44 832 L 47 832 L 47 692 L 49 690 L 52 690 L 52 566 L 54 564 L 57 564 L 57 456 L 59 454 L 62 454 L 62 362 L 64 360 L 67 360 L 67 289 L 69 287 L 75 287 L 75 280 L 76 279 L 76 267 L 77 266 L 77 254 L 78 253 L 78 241 L 79 240 L 79 228 L 80 227 L 80 214 L 81 213 L 81 201 L 82 200 L 82 188 L 83 187 L 83 175 L 84 174 L 84 162 L 85 161 L 85 148 L 86 147 L 86 135 L 87 134 L 87 122 L 88 121 L 88 109 L 89 108 L 89 96 L 90 95 L 90 82 L 91 81 L 91 69 L 92 68 L 92 56 L 93 55 L 93 43 L 94 42 L 94 30 L 95 29 L 95 25 L 97 23 L 165 23 L 166 22 L 166 20 L 167 19 L 167 17 L 168 16 L 168 14 L 169 13 L 169 11 L 170 10 L 170 8 L 171 7 L 171 5 L 172 4 L 173 5 L 173 12 L 174 13 L 174 22 L 175 23 L 264 23 L 264 22 L 265 21 L 265 19 L 266 18 L 266 16 L 267 15 L 267 13 L 268 12 L 268 9 L 269 8 L 269 6 L 270 5 L 271 6 L 271 8 L 272 9 L 272 17 L 273 18 L 273 22 L 274 23 L 357 23 L 357 21 L 358 20 L 358 17 L 359 16 L 359 13 L 360 12 L 360 9 L 361 8 L 361 5 z" />
<path d="M 172 4 L 173 3 L 174 4 L 173 5 z" />
<path d="M 362 1 L 363 0 L 364 1 L 364 2 L 363 3 L 362 2 z" />
<path d="M 12 2443 L 10 2445 L 10 2814 L 11 2815 L 550 2815 L 550 2444 L 549 2443 z" />
<path d="M 12 2426 L 10 2428 L 10 2432 L 11 2433 L 550 2433 L 550 2427 L 549 2426 z" />
<path d="M 562 2420 L 560 2422 L 560 2814 L 561 2815 L 629 2815 L 629 2421 L 628 2420 z" />
<path d="M 17 2209 L 15 2211 L 15 2409 L 16 2410 L 545 2410 L 545 2210 L 544 2209 z" />
<path d="M 557 2197 L 555 2199 L 555 2409 L 556 2410 L 624 2410 L 624 2198 L 623 2197 z" />
<path d="M 17 2193 L 15 2195 L 15 2198 L 16 2199 L 545 2199 L 545 2194 L 544 2193 z" />
<path d="M 22 1984 L 20 1986 L 20 2182 L 21 2183 L 539 2183 L 539 1985 L 538 1984 z" />
<path d="M 551 1978 L 549 1980 L 549 2182 L 550 2183 L 554 2183 L 555 2184 L 555 2186 L 556 2187 L 616 2187 L 616 1979 L 615 1978 z" />
<path d="M 22 1968 L 20 1970 L 20 1973 L 21 1974 L 539 1974 L 539 1969 L 538 1968 z" />
<path d="M 28 1768 L 26 1770 L 26 1957 L 27 1958 L 535 1958 L 535 1769 L 534 1768 z" />
<path d="M 547 1766 L 545 1768 L 545 1957 L 546 1958 L 548 1958 L 549 1959 L 549 1967 L 550 1968 L 609 1968 L 609 1767 L 608 1766 z" />
<path d="M 28 1753 L 26 1755 L 26 1757 L 27 1758 L 535 1758 L 535 1754 L 534 1753 z" />
<path d="M 542 1562 L 540 1564 L 540 1742 L 541 1743 L 544 1743 L 545 1744 L 545 1755 L 546 1756 L 601 1756 L 601 1563 L 600 1562 z" />
<path d="M 33 1562 L 31 1564 L 31 1742 L 32 1743 L 530 1743 L 530 1563 L 529 1562 z" />
<path d="M 33 1547 L 31 1549 L 31 1551 L 32 1552 L 530 1552 L 530 1548 L 529 1547 z" />
<path d="M 536 1367 L 534 1369 L 534 1536 L 535 1537 L 539 1537 L 540 1538 L 540 1551 L 541 1552 L 592 1552 L 592 1368 L 591 1367 z" />
<path d="M 38 1367 L 36 1369 L 36 1536 L 37 1537 L 524 1537 L 524 1368 L 523 1367 z" />
<path d="M 38 1352 L 36 1354 L 36 1355 L 37 1356 L 524 1356 L 524 1353 L 523 1352 z" />
<path d="M 531 1183 L 529 1185 L 529 1341 L 530 1342 L 533 1342 L 534 1343 L 534 1356 L 535 1357 L 583 1357 L 583 1184 L 582 1183 z" />
<path d="M 43 1183 L 41 1185 L 41 1341 L 42 1342 L 519 1342 L 519 1184 L 518 1183 z" />
<path d="M 43 1169 L 41 1171 L 41 1172 L 42 1173 L 519 1173 L 519 1170 L 518 1169 z" />
<path d="M 48 1012 L 46 1014 L 46 1158 L 47 1159 L 514 1159 L 514 1013 L 513 1012 z" />
<path d="M 526 1010 L 524 1012 L 524 1158 L 525 1159 L 528 1159 L 529 1160 L 529 1172 L 530 1173 L 574 1173 L 574 1011 L 573 1010 z" />
<path d="M 48 999 L 46 1001 L 47 1002 L 514 1002 L 514 1000 L 513 999 z" />
<path d="M 54 855 L 52 857 L 52 988 L 53 989 L 509 989 L 509 856 L 508 855 z" />
<path d="M 521 850 L 519 852 L 519 988 L 520 989 L 523 989 L 524 990 L 524 999 L 525 1000 L 565 1000 L 565 851 L 564 850 z" />
<path d="M 54 842 L 52 844 L 53 845 L 509 845 L 509 843 L 508 842 z" />
<path d="M 59 712 L 57 714 L 57 831 L 58 832 L 504 832 L 504 713 L 503 712 z" />
<path d="M 516 705 L 514 707 L 514 831 L 515 832 L 518 832 L 519 833 L 519 839 L 520 840 L 557 840 L 557 706 L 556 705 z" />
<path d="M 59 700 L 58 701 L 58 702 L 58 701 L 59 700 L 503 700 L 504 701 L 504 702 L 504 701 L 503 700 z" />
<path d="M 64 586 L 62 588 L 62 689 L 63 690 L 499 690 L 499 587 L 498 586 z" />
<path d="M 511 576 L 509 578 L 509 689 L 510 690 L 513 690 L 514 691 L 514 694 L 515 695 L 549 695 L 549 577 L 548 576 z" />
<path d="M 64 574 L 63 575 L 63 576 L 63 575 L 64 574 L 498 574 L 499 575 L 499 576 L 499 575 L 498 574 z" />
<path d="M 69 475 L 67 477 L 67 563 L 68 564 L 493 564 L 493 476 L 492 475 z" />
<path d="M 505 464 L 503 466 L 503 563 L 504 564 L 508 564 L 510 566 L 540 566 L 540 465 L 539 464 z" />
<path d="M 68 464 L 67 465 L 68 466 L 493 466 L 493 464 z" />
<path d="M 74 382 L 72 384 L 72 453 L 73 454 L 488 454 L 488 383 L 487 382 z" />
<path d="M 73 371 L 72 372 L 73 373 L 488 373 L 488 371 z" />
<path d="M 500 370 L 498 372 L 498 453 L 499 454 L 534 454 L 534 371 L 533 370 z" />
<path d="M 79 307 L 77 309 L 77 359 L 78 360 L 482 360 L 482 308 L 481 307 z" />
<path d="M 494 297 L 492 299 L 492 359 L 493 360 L 528 360 L 528 298 L 527 297 z" />
<path d="M 457 62 L 457 67 L 456 68 L 456 71 L 455 72 L 455 75 L 454 76 L 454 79 L 453 80 L 453 83 L 452 84 L 452 87 L 451 88 L 451 91 L 450 92 L 450 95 L 449 96 L 449 99 L 448 100 L 448 102 L 447 103 L 447 106 L 446 107 L 446 110 L 445 111 L 445 114 L 444 115 L 444 118 L 443 119 L 443 122 L 442 123 L 442 126 L 441 127 L 441 130 L 440 131 L 440 133 L 439 134 L 439 137 L 438 138 L 438 141 L 437 142 L 437 145 L 436 146 L 436 149 L 435 150 L 435 153 L 434 154 L 434 157 L 433 158 L 433 161 L 432 162 L 432 165 L 431 166 L 431 168 L 430 169 L 430 172 L 429 173 L 429 176 L 428 177 L 428 180 L 427 181 L 427 184 L 426 185 L 426 188 L 425 189 L 425 192 L 424 193 L 424 196 L 423 197 L 423 199 L 422 200 L 422 203 L 421 204 L 421 207 L 420 208 L 420 211 L 419 212 L 419 215 L 418 216 L 418 219 L 417 220 L 417 223 L 416 224 L 416 227 L 415 228 L 415 231 L 414 232 L 414 234 L 413 235 L 413 238 L 412 239 L 412 242 L 411 243 L 411 246 L 410 247 L 410 250 L 409 251 L 409 254 L 408 255 L 408 258 L 407 259 L 407 262 L 406 263 L 406 265 L 405 266 L 405 269 L 404 270 L 404 273 L 403 274 L 403 277 L 402 278 L 402 281 L 401 282 L 401 285 L 400 286 L 401 287 L 475 287 L 475 280 L 474 279 L 474 266 L 473 265 L 473 252 L 472 251 L 472 238 L 471 237 L 471 225 L 470 224 L 470 211 L 469 210 L 469 197 L 468 196 L 468 183 L 467 182 L 467 169 L 466 168 L 466 155 L 465 154 L 465 141 L 464 140 L 464 127 L 463 126 L 463 113 L 462 112 L 462 99 L 461 98 L 461 86 L 460 85 L 460 72 L 459 71 L 459 62 z" />
<path d="M 359 57 L 359 61 L 358 62 L 358 65 L 357 66 L 357 69 L 356 70 L 356 73 L 355 74 L 355 77 L 354 78 L 354 81 L 353 82 L 353 85 L 352 86 L 352 90 L 351 91 L 351 94 L 350 95 L 350 98 L 349 99 L 349 102 L 348 103 L 348 106 L 347 107 L 347 110 L 346 111 L 346 114 L 345 115 L 345 118 L 344 119 L 344 122 L 343 123 L 343 126 L 342 127 L 342 130 L 341 131 L 341 134 L 340 135 L 340 138 L 339 139 L 339 142 L 338 143 L 338 146 L 337 147 L 337 150 L 336 151 L 336 155 L 335 156 L 335 159 L 334 160 L 334 163 L 333 164 L 333 167 L 332 168 L 332 171 L 331 172 L 331 175 L 330 176 L 330 179 L 329 180 L 329 183 L 328 184 L 328 187 L 327 188 L 327 191 L 326 192 L 326 195 L 325 196 L 325 199 L 324 200 L 324 203 L 323 204 L 323 207 L 322 208 L 322 211 L 321 212 L 321 215 L 320 216 L 320 220 L 319 221 L 319 224 L 318 225 L 318 228 L 317 229 L 317 232 L 316 233 L 316 236 L 315 237 L 315 240 L 314 241 L 314 244 L 313 245 L 313 248 L 312 249 L 312 252 L 311 253 L 311 256 L 310 257 L 310 260 L 309 261 L 309 264 L 308 265 L 308 268 L 307 269 L 307 272 L 306 273 L 306 276 L 305 277 L 305 280 L 304 281 L 304 284 L 303 285 L 303 287 L 387 287 L 388 286 L 388 285 L 387 284 L 387 277 L 386 276 L 386 269 L 385 268 L 385 260 L 384 259 L 384 252 L 383 251 L 383 244 L 382 243 L 382 236 L 381 235 L 381 227 L 380 226 L 380 219 L 379 218 L 379 211 L 378 210 L 378 203 L 377 202 L 377 194 L 376 193 L 376 186 L 375 185 L 375 178 L 374 177 L 374 170 L 373 169 L 373 161 L 372 160 L 372 153 L 371 152 L 371 145 L 370 144 L 370 137 L 369 136 L 369 128 L 368 127 L 368 120 L 367 119 L 367 112 L 366 111 L 366 104 L 365 103 L 365 95 L 364 94 L 364 87 L 363 86 L 363 79 L 362 78 L 362 71 L 361 70 L 361 57 z" />
<path d="M 265 55 L 265 58 L 264 59 L 264 61 L 263 62 L 263 65 L 262 66 L 262 68 L 261 69 L 261 71 L 260 72 L 260 74 L 259 75 L 259 78 L 258 79 L 258 81 L 257 82 L 257 84 L 256 85 L 256 87 L 255 88 L 255 91 L 254 92 L 254 94 L 253 95 L 253 97 L 252 98 L 252 100 L 251 101 L 251 104 L 250 105 L 250 107 L 249 108 L 249 110 L 248 111 L 248 113 L 247 114 L 247 117 L 246 118 L 246 120 L 245 121 L 245 123 L 244 124 L 244 127 L 243 128 L 243 130 L 242 131 L 242 133 L 241 134 L 241 136 L 240 137 L 240 140 L 239 141 L 239 143 L 238 144 L 238 146 L 237 147 L 237 149 L 236 150 L 236 153 L 235 154 L 235 156 L 234 157 L 234 159 L 233 160 L 233 162 L 232 163 L 232 166 L 231 167 L 231 169 L 230 170 L 230 172 L 229 173 L 229 175 L 228 176 L 228 179 L 227 180 L 227 182 L 226 183 L 226 185 L 225 186 L 225 188 L 224 189 L 224 192 L 223 193 L 223 195 L 222 196 L 222 198 L 221 199 L 221 201 L 220 202 L 220 205 L 219 206 L 219 208 L 218 209 L 218 211 L 217 212 L 217 215 L 216 216 L 216 218 L 215 219 L 215 221 L 214 222 L 214 224 L 213 225 L 213 228 L 212 229 L 212 231 L 211 232 L 211 234 L 210 235 L 210 237 L 209 238 L 209 241 L 208 242 L 208 244 L 207 245 L 207 247 L 206 248 L 206 250 L 205 251 L 205 254 L 204 255 L 204 257 L 203 258 L 203 260 L 202 261 L 202 263 L 201 264 L 201 267 L 200 268 L 200 270 L 199 271 L 199 273 L 198 274 L 198 276 L 197 277 L 197 280 L 196 281 L 196 283 L 195 284 L 195 287 L 196 288 L 197 287 L 291 287 L 291 284 L 290 283 L 290 274 L 289 273 L 289 265 L 288 264 L 288 256 L 287 255 L 287 246 L 286 245 L 286 237 L 285 236 L 285 227 L 284 226 L 284 218 L 283 217 L 283 208 L 282 207 L 282 199 L 281 198 L 281 190 L 280 189 L 280 180 L 279 179 L 279 171 L 278 170 L 278 161 L 277 160 L 277 152 L 276 151 L 276 142 L 275 141 L 275 133 L 274 132 L 274 124 L 273 123 L 273 114 L 272 113 L 272 105 L 271 104 L 271 95 L 270 94 L 270 86 L 269 85 L 269 76 L 268 75 L 268 67 L 267 66 L 267 55 z" />
<path d="M 165 55 L 165 58 L 164 59 L 164 61 L 163 62 L 163 64 L 162 65 L 162 67 L 161 68 L 161 70 L 160 71 L 160 73 L 159 74 L 159 76 L 158 77 L 158 79 L 157 80 L 157 82 L 156 83 L 156 85 L 155 86 L 155 88 L 154 89 L 154 91 L 153 92 L 153 94 L 152 95 L 152 97 L 151 98 L 151 100 L 150 101 L 150 103 L 149 104 L 149 106 L 148 107 L 148 109 L 147 110 L 147 112 L 146 113 L 146 115 L 145 116 L 145 118 L 144 119 L 144 121 L 143 122 L 143 124 L 142 125 L 142 127 L 141 128 L 141 130 L 140 131 L 140 133 L 139 134 L 139 136 L 138 137 L 138 139 L 137 140 L 137 142 L 136 143 L 136 145 L 135 146 L 135 147 L 134 148 L 134 150 L 133 151 L 133 153 L 132 154 L 132 156 L 131 157 L 131 159 L 130 160 L 130 162 L 129 163 L 129 165 L 128 166 L 128 168 L 127 169 L 127 171 L 126 172 L 126 174 L 125 175 L 125 177 L 124 178 L 124 180 L 123 181 L 123 183 L 122 184 L 122 186 L 121 187 L 121 189 L 120 190 L 120 192 L 119 193 L 119 195 L 118 196 L 118 198 L 117 199 L 117 201 L 116 202 L 116 204 L 115 205 L 115 207 L 114 208 L 114 210 L 113 211 L 113 213 L 112 214 L 112 216 L 111 217 L 111 219 L 110 220 L 110 222 L 109 223 L 109 225 L 108 226 L 108 228 L 107 229 L 107 231 L 106 232 L 106 233 L 105 234 L 105 236 L 104 237 L 104 239 L 103 240 L 103 242 L 102 243 L 102 245 L 101 246 L 101 248 L 100 249 L 100 251 L 99 252 L 99 254 L 98 255 L 98 257 L 97 258 L 97 260 L 96 261 L 96 263 L 95 264 L 95 266 L 94 267 L 94 269 L 93 270 L 93 272 L 92 273 L 92 275 L 91 276 L 91 278 L 90 279 L 90 281 L 89 282 L 89 284 L 88 285 L 88 287 L 89 288 L 90 287 L 182 287 L 182 278 L 181 277 L 181 264 L 180 263 L 180 249 L 179 248 L 179 234 L 178 233 L 178 220 L 177 219 L 177 205 L 176 204 L 176 190 L 175 189 L 175 176 L 174 175 L 174 161 L 173 160 L 173 147 L 172 146 L 172 132 L 171 131 L 171 117 L 170 116 L 170 103 L 169 102 L 169 88 L 168 87 L 168 73 L 167 72 L 167 55 z" />
<path d="M 469 33 L 468 34 L 467 34 L 467 42 L 468 43 L 468 56 L 469 57 L 469 69 L 470 70 L 470 83 L 471 84 L 471 97 L 472 98 L 472 111 L 473 112 L 473 125 L 474 126 L 474 139 L 475 140 L 475 153 L 476 154 L 476 167 L 477 168 L 477 181 L 478 182 L 478 195 L 479 196 L 479 208 L 480 209 L 480 222 L 481 223 L 481 236 L 482 237 L 482 250 L 483 251 L 483 264 L 484 265 L 484 278 L 485 279 L 485 287 L 525 287 L 525 284 L 524 283 L 524 274 L 523 273 L 523 265 L 522 264 L 522 256 L 521 255 L 521 246 L 520 245 L 520 237 L 519 236 L 519 227 L 518 226 L 518 218 L 517 217 L 517 208 L 516 207 L 516 199 L 515 198 L 515 190 L 514 189 L 514 180 L 513 179 L 513 171 L 512 170 L 512 161 L 511 160 L 511 152 L 510 151 L 510 142 L 509 141 L 509 133 L 508 132 L 508 124 L 507 123 L 507 114 L 506 113 L 506 105 L 505 104 L 505 95 L 504 94 L 504 86 L 503 85 L 503 76 L 502 75 L 502 67 L 501 66 L 501 58 L 500 57 L 500 48 L 499 47 L 499 39 L 498 38 L 498 34 L 497 34 L 496 33 z" />
<path d="M 369 33 L 367 35 L 367 36 L 368 37 L 368 44 L 369 45 L 369 52 L 370 53 L 370 61 L 371 62 L 371 69 L 372 70 L 372 77 L 373 78 L 373 85 L 374 86 L 374 94 L 375 95 L 375 102 L 376 103 L 376 110 L 377 111 L 377 118 L 378 119 L 378 127 L 379 128 L 379 135 L 380 136 L 380 143 L 381 144 L 381 151 L 382 152 L 382 160 L 383 161 L 383 168 L 384 169 L 384 176 L 385 177 L 385 184 L 386 185 L 386 193 L 387 194 L 387 201 L 388 202 L 388 209 L 389 210 L 389 217 L 390 218 L 390 226 L 391 227 L 391 234 L 392 235 L 392 242 L 393 243 L 393 250 L 394 251 L 394 259 L 395 260 L 395 262 L 394 263 L 394 264 L 397 261 L 397 257 L 398 256 L 398 254 L 399 253 L 399 250 L 400 249 L 400 246 L 401 245 L 401 242 L 402 241 L 402 238 L 403 237 L 403 234 L 404 233 L 404 230 L 405 229 L 405 226 L 406 225 L 406 222 L 407 221 L 407 219 L 408 218 L 408 215 L 409 214 L 409 211 L 410 210 L 410 207 L 411 206 L 411 203 L 412 202 L 412 199 L 413 198 L 413 195 L 414 194 L 414 191 L 415 190 L 415 188 L 416 187 L 416 184 L 417 183 L 417 180 L 418 179 L 418 176 L 419 175 L 419 172 L 420 171 L 420 168 L 421 167 L 421 164 L 422 163 L 422 160 L 423 159 L 423 156 L 424 155 L 424 153 L 425 152 L 425 149 L 426 148 L 426 145 L 427 144 L 427 141 L 428 140 L 428 137 L 429 136 L 429 133 L 430 132 L 430 129 L 431 128 L 431 125 L 432 124 L 432 122 L 433 121 L 433 118 L 434 117 L 434 114 L 435 113 L 435 110 L 436 109 L 436 106 L 437 105 L 437 102 L 438 101 L 438 98 L 439 97 L 439 94 L 440 93 L 440 90 L 441 89 L 441 87 L 442 86 L 442 83 L 443 82 L 443 79 L 444 78 L 444 75 L 445 74 L 445 71 L 446 70 L 446 67 L 447 66 L 447 63 L 448 62 L 448 59 L 449 58 L 449 56 L 450 55 L 450 52 L 451 51 L 451 48 L 452 47 L 452 44 L 453 43 L 453 40 L 454 39 L 454 36 L 455 35 L 454 34 L 454 33 z" />
<path d="M 276 33 L 275 34 L 274 34 L 274 37 L 275 38 L 275 47 L 276 48 L 276 56 L 277 57 L 277 65 L 278 66 L 278 75 L 279 76 L 279 84 L 280 85 L 280 94 L 281 95 L 281 103 L 282 104 L 282 113 L 283 114 L 283 122 L 284 123 L 284 131 L 285 132 L 285 141 L 286 142 L 286 150 L 287 151 L 287 160 L 288 161 L 288 169 L 289 170 L 289 179 L 290 180 L 290 188 L 291 189 L 291 197 L 292 198 L 292 207 L 293 208 L 293 216 L 294 217 L 294 226 L 295 227 L 295 235 L 296 236 L 296 245 L 297 246 L 297 254 L 298 255 L 298 261 L 299 261 L 300 262 L 300 256 L 301 255 L 301 252 L 302 251 L 302 248 L 303 247 L 303 244 L 304 243 L 304 240 L 305 239 L 305 236 L 306 235 L 306 231 L 307 230 L 307 227 L 308 226 L 308 223 L 309 222 L 309 219 L 310 218 L 310 215 L 311 214 L 311 211 L 312 210 L 312 207 L 313 206 L 313 203 L 314 202 L 314 199 L 315 198 L 315 195 L 316 194 L 316 191 L 317 190 L 317 187 L 318 186 L 318 183 L 319 182 L 319 179 L 320 178 L 320 175 L 321 174 L 321 171 L 322 170 L 322 166 L 323 165 L 323 162 L 324 161 L 324 158 L 325 157 L 325 154 L 326 153 L 326 150 L 327 149 L 327 146 L 328 145 L 328 142 L 329 141 L 329 138 L 330 137 L 330 134 L 331 133 L 331 130 L 332 129 L 332 126 L 333 125 L 333 122 L 334 121 L 334 118 L 335 117 L 335 114 L 336 113 L 336 110 L 337 109 L 337 106 L 338 105 L 338 102 L 339 101 L 339 97 L 340 96 L 340 93 L 341 92 L 341 89 L 342 88 L 342 85 L 343 84 L 343 81 L 344 80 L 344 77 L 345 76 L 345 73 L 346 72 L 346 69 L 347 68 L 347 65 L 348 64 L 348 61 L 349 60 L 349 57 L 350 56 L 350 53 L 351 52 L 351 49 L 352 48 L 352 45 L 353 44 L 353 41 L 354 40 L 354 37 L 355 36 L 355 34 L 354 34 L 353 33 z" />
<path d="M 177 33 L 176 34 L 175 34 L 175 42 L 176 43 L 176 57 L 177 58 L 177 72 L 178 73 L 178 86 L 179 87 L 179 101 L 180 102 L 180 116 L 181 117 L 181 130 L 182 131 L 182 145 L 183 146 L 183 160 L 184 161 L 184 175 L 185 176 L 185 189 L 186 190 L 186 204 L 187 205 L 187 219 L 188 220 L 188 233 L 189 234 L 189 248 L 190 249 L 190 264 L 192 264 L 192 260 L 193 259 L 193 256 L 194 255 L 194 253 L 195 252 L 195 250 L 196 249 L 196 247 L 197 246 L 197 243 L 198 242 L 198 240 L 199 239 L 199 237 L 200 236 L 200 234 L 201 233 L 201 230 L 202 229 L 202 227 L 203 226 L 203 224 L 204 223 L 204 221 L 205 220 L 205 217 L 206 216 L 206 214 L 207 213 L 207 211 L 208 210 L 208 207 L 209 206 L 209 204 L 210 203 L 210 201 L 211 200 L 211 198 L 212 197 L 212 194 L 213 193 L 213 191 L 214 190 L 214 188 L 215 187 L 215 185 L 216 184 L 216 181 L 217 180 L 217 178 L 218 177 L 218 175 L 219 174 L 219 172 L 220 171 L 220 168 L 221 167 L 221 165 L 222 164 L 222 162 L 223 161 L 223 159 L 224 158 L 224 155 L 225 154 L 225 152 L 226 151 L 226 149 L 227 148 L 227 146 L 228 145 L 228 142 L 229 141 L 229 139 L 230 138 L 230 136 L 231 135 L 231 133 L 232 132 L 232 129 L 233 128 L 233 126 L 234 125 L 234 123 L 235 122 L 235 119 L 236 118 L 236 116 L 237 115 L 237 113 L 238 112 L 238 110 L 239 109 L 239 106 L 240 105 L 240 103 L 241 102 L 241 100 L 242 99 L 242 97 L 243 96 L 243 93 L 244 92 L 244 90 L 245 89 L 245 87 L 246 86 L 246 84 L 247 83 L 247 80 L 248 79 L 248 77 L 249 76 L 249 74 L 250 73 L 250 71 L 251 70 L 251 67 L 252 66 L 252 64 L 253 63 L 253 61 L 254 60 L 254 58 L 255 57 L 255 54 L 256 53 L 256 51 L 257 50 L 257 48 L 258 47 L 258 45 L 259 44 L 259 41 L 260 40 L 260 38 L 261 37 L 261 34 L 260 33 z" />
<path d="M 107 33 L 106 34 L 105 34 L 105 41 L 104 42 L 104 55 L 103 56 L 103 68 L 102 69 L 102 81 L 101 82 L 101 94 L 100 95 L 100 107 L 99 108 L 99 121 L 98 122 L 98 134 L 97 135 L 97 147 L 96 148 L 96 160 L 95 161 L 95 173 L 94 174 L 94 187 L 93 188 L 93 200 L 92 201 L 92 213 L 91 214 L 91 226 L 90 227 L 90 239 L 89 240 L 89 248 L 88 249 L 88 252 L 90 252 L 90 249 L 91 248 L 91 245 L 92 244 L 92 242 L 93 241 L 93 239 L 94 238 L 94 236 L 95 235 L 95 233 L 96 232 L 96 230 L 97 229 L 97 227 L 98 226 L 98 224 L 99 223 L 99 221 L 100 220 L 100 218 L 101 217 L 101 215 L 102 214 L 102 212 L 103 211 L 103 209 L 104 208 L 104 206 L 105 205 L 105 203 L 106 202 L 106 200 L 107 199 L 107 197 L 108 196 L 108 194 L 109 193 L 109 191 L 110 190 L 110 188 L 111 187 L 111 185 L 112 184 L 112 182 L 113 181 L 113 179 L 114 178 L 114 176 L 115 175 L 115 174 L 116 173 L 116 171 L 117 170 L 117 168 L 118 167 L 118 165 L 119 164 L 119 162 L 120 161 L 120 159 L 121 158 L 121 156 L 122 155 L 122 153 L 123 152 L 123 150 L 124 149 L 124 147 L 125 146 L 125 144 L 126 143 L 126 141 L 127 140 L 127 138 L 128 137 L 128 135 L 129 134 L 129 132 L 130 131 L 130 129 L 131 128 L 131 126 L 132 125 L 132 123 L 133 122 L 133 120 L 134 119 L 134 117 L 135 116 L 135 114 L 136 113 L 136 111 L 137 110 L 137 108 L 138 107 L 138 105 L 139 104 L 139 102 L 140 101 L 140 99 L 141 98 L 141 96 L 142 95 L 142 93 L 143 92 L 143 90 L 144 89 L 144 88 L 145 87 L 145 85 L 146 84 L 146 82 L 147 81 L 147 79 L 148 78 L 148 76 L 149 75 L 149 73 L 150 72 L 150 70 L 151 69 L 151 67 L 152 66 L 152 64 L 153 63 L 153 61 L 154 60 L 154 58 L 155 57 L 155 55 L 156 54 L 156 52 L 157 51 L 157 49 L 158 48 L 158 46 L 159 45 L 159 43 L 160 42 L 160 40 L 161 39 L 161 37 L 162 36 L 162 34 L 161 33 z" />
<path d="M 12 2443 L 549 2443 L 550 2444 L 550 2814 L 549 2815 L 11 2815 L 10 2814 L 10 2445 z" />
<path d="M 12 2426 L 549 2426 L 550 2427 L 550 2432 L 549 2433 L 11 2433 L 10 2432 L 10 2428 z" />
<path d="M 562 2420 L 628 2420 L 629 2421 L 629 2814 L 628 2815 L 561 2815 L 560 2814 L 560 2422 z" />
<path d="M 17 2209 L 544 2209 L 545 2210 L 545 2409 L 544 2410 L 16 2410 L 15 2409 L 15 2211 z" />
<path d="M 557 2197 L 623 2197 L 624 2198 L 624 2409 L 623 2410 L 556 2410 L 555 2409 L 555 2199 z" />
<path d="M 17 2193 L 544 2193 L 545 2194 L 545 2198 L 544 2199 L 16 2199 L 15 2198 L 15 2195 z" />
<path d="M 22 1984 L 538 1984 L 539 1985 L 539 2182 L 538 2183 L 21 2183 L 20 2182 L 20 1986 z" />
<path d="M 551 1978 L 615 1978 L 616 1979 L 616 2186 L 615 2187 L 556 2187 L 555 2186 L 555 2184 L 554 2183 L 550 2183 L 549 2182 L 549 1980 z" />
<path d="M 22 1968 L 538 1968 L 539 1969 L 539 1973 L 538 1974 L 21 1974 L 20 1973 L 20 1970 z" />
<path d="M 28 1768 L 534 1768 L 535 1769 L 535 1957 L 534 1958 L 27 1958 L 26 1957 L 26 1770 z" />
<path d="M 547 1766 L 608 1766 L 609 1767 L 609 1967 L 608 1968 L 550 1968 L 549 1967 L 549 1959 L 548 1958 L 546 1958 L 545 1957 L 545 1768 z" />
<path d="M 28 1753 L 534 1753 L 535 1754 L 535 1757 L 534 1758 L 27 1758 L 26 1757 L 26 1755 z" />
<path d="M 542 1562 L 600 1562 L 601 1563 L 601 1755 L 600 1756 L 546 1756 L 545 1755 L 545 1744 L 544 1743 L 541 1743 L 540 1742 L 540 1564 z" />
<path d="M 33 1562 L 529 1562 L 530 1563 L 530 1742 L 529 1743 L 32 1743 L 31 1742 L 31 1564 z" />
<path d="M 33 1547 L 529 1547 L 530 1548 L 530 1551 L 529 1552 L 32 1552 L 31 1551 L 31 1549 z" />
<path d="M 536 1367 L 591 1367 L 592 1368 L 592 1551 L 591 1552 L 541 1552 L 540 1551 L 540 1538 L 539 1537 L 535 1537 L 534 1536 L 534 1369 z" />
<path d="M 38 1367 L 523 1367 L 524 1368 L 524 1536 L 523 1537 L 37 1537 L 36 1536 L 36 1369 z" />
<path d="M 38 1352 L 523 1352 L 524 1353 L 524 1355 L 523 1356 L 37 1356 L 36 1355 L 36 1354 z" />
<path d="M 531 1183 L 582 1183 L 583 1184 L 583 1356 L 582 1357 L 535 1357 L 534 1356 L 534 1343 L 533 1342 L 530 1342 L 529 1341 L 529 1185 z" />
<path d="M 43 1183 L 518 1183 L 519 1184 L 519 1341 L 518 1342 L 42 1342 L 41 1341 L 41 1185 z" />
<path d="M 43 1169 L 518 1169 L 519 1170 L 519 1172 L 518 1173 L 42 1173 L 41 1172 L 41 1171 z" />
<path d="M 48 1012 L 513 1012 L 514 1013 L 514 1158 L 513 1159 L 47 1159 L 46 1158 L 46 1014 z" />
<path d="M 526 1010 L 573 1010 L 574 1011 L 574 1172 L 573 1173 L 530 1173 L 529 1172 L 529 1160 L 528 1159 L 525 1159 L 524 1158 L 524 1012 z" />
<path d="M 48 999 L 513 999 L 514 1000 L 514 1001 L 513 1002 L 47 1002 L 46 1001 z" />
<path d="M 54 855 L 508 855 L 509 856 L 509 988 L 508 989 L 53 989 L 52 988 L 52 857 z" />
<path d="M 521 850 L 564 850 L 565 851 L 565 999 L 564 1000 L 525 1000 L 524 999 L 524 990 L 523 989 L 520 989 L 519 988 L 519 852 z" />
<path d="M 54 842 L 508 842 L 509 843 L 509 844 L 508 845 L 53 845 L 52 844 z" />
<path d="M 59 712 L 503 712 L 504 713 L 504 831 L 503 832 L 58 832 L 57 831 L 57 714 z" />
<path d="M 516 705 L 556 705 L 557 706 L 557 839 L 556 840 L 520 840 L 519 839 L 519 833 L 518 832 L 515 832 L 514 831 L 514 707 z" />
<path d="M 64 586 L 498 586 L 499 587 L 499 689 L 498 690 L 63 690 L 62 689 L 62 588 z" />
<path d="M 511 576 L 548 576 L 549 577 L 549 694 L 548 695 L 515 695 L 514 694 L 514 691 L 513 690 L 510 690 L 509 689 L 509 578 z" />
<path d="M 69 475 L 492 475 L 493 476 L 493 563 L 492 564 L 68 564 L 67 563 L 67 477 z" />
<path d="M 505 464 L 539 464 L 540 465 L 540 565 L 539 566 L 510 566 L 508 564 L 504 564 L 503 563 L 503 466 z" />
<path d="M 67 465 L 68 464 L 492 464 L 493 465 L 492 466 L 68 466 z" />
<path d="M 74 382 L 487 382 L 488 383 L 488 453 L 487 454 L 73 454 L 72 453 L 72 384 z" />
<path d="M 72 372 L 73 371 L 487 371 L 488 372 L 487 373 L 73 373 z" />
<path d="M 500 370 L 533 370 L 534 371 L 534 453 L 533 454 L 499 454 L 498 453 L 498 372 z" />
<path d="M 79 307 L 481 307 L 482 308 L 482 359 L 481 360 L 78 360 L 77 359 L 77 309 z" />
<path d="M 494 297 L 527 297 L 528 298 L 528 359 L 527 360 L 493 360 L 492 359 L 492 299 z" />
<path d="M 457 63 L 458 62 L 459 63 L 459 71 L 460 72 L 460 85 L 461 86 L 461 98 L 462 99 L 462 112 L 463 113 L 463 126 L 464 127 L 464 140 L 465 141 L 465 154 L 466 155 L 466 168 L 467 169 L 467 182 L 468 183 L 468 196 L 469 197 L 469 210 L 470 211 L 470 224 L 471 225 L 471 237 L 472 238 L 472 251 L 473 252 L 473 265 L 474 266 L 474 279 L 475 280 L 475 286 L 474 287 L 401 287 L 400 286 L 401 285 L 401 282 L 402 281 L 402 278 L 403 277 L 403 274 L 404 273 L 404 270 L 405 269 L 405 266 L 406 265 L 406 263 L 407 262 L 407 259 L 408 258 L 408 255 L 409 254 L 409 251 L 410 250 L 410 247 L 411 246 L 411 243 L 412 242 L 412 239 L 413 238 L 413 235 L 414 234 L 414 232 L 415 231 L 415 228 L 416 227 L 416 224 L 417 223 L 417 220 L 418 219 L 418 216 L 419 215 L 419 212 L 420 211 L 420 208 L 421 207 L 421 204 L 422 203 L 422 200 L 423 199 L 423 197 L 424 196 L 424 193 L 425 192 L 425 189 L 426 188 L 426 185 L 427 184 L 427 181 L 428 180 L 428 177 L 429 176 L 429 173 L 430 172 L 430 169 L 431 168 L 431 166 L 432 165 L 432 162 L 433 161 L 433 158 L 434 157 L 434 154 L 435 153 L 435 150 L 436 149 L 436 146 L 437 145 L 437 142 L 438 141 L 438 138 L 439 137 L 439 134 L 440 133 L 440 131 L 441 130 L 441 127 L 442 126 L 442 123 L 443 122 L 443 119 L 444 118 L 444 115 L 445 114 L 445 111 L 446 110 L 446 107 L 447 106 L 447 103 L 448 102 L 448 100 L 449 99 L 449 96 L 450 95 L 450 92 L 451 91 L 451 88 L 452 87 L 452 84 L 453 83 L 453 80 L 454 79 L 454 76 L 455 75 L 455 72 L 456 71 L 456 68 L 457 67 z" />
<path d="M 359 58 L 360 57 L 361 58 L 361 70 L 362 71 L 362 78 L 363 79 L 363 86 L 364 87 L 364 94 L 365 95 L 365 103 L 366 104 L 366 111 L 367 112 L 367 119 L 368 120 L 368 127 L 369 128 L 369 136 L 370 137 L 370 144 L 371 145 L 371 152 L 372 153 L 372 160 L 373 161 L 373 169 L 374 170 L 374 177 L 375 178 L 375 185 L 376 186 L 376 193 L 377 194 L 377 202 L 378 203 L 378 210 L 379 211 L 379 218 L 380 219 L 380 226 L 381 227 L 381 235 L 382 236 L 382 243 L 383 244 L 383 251 L 384 252 L 384 259 L 385 260 L 385 268 L 386 269 L 386 276 L 387 277 L 387 284 L 388 285 L 388 286 L 387 287 L 304 287 L 303 286 L 303 285 L 304 284 L 304 281 L 305 280 L 305 277 L 306 276 L 306 273 L 307 272 L 307 269 L 308 268 L 308 265 L 309 264 L 309 261 L 310 260 L 310 257 L 311 256 L 311 253 L 312 252 L 312 249 L 313 248 L 313 245 L 314 244 L 314 241 L 315 240 L 315 237 L 316 236 L 316 233 L 317 232 L 317 229 L 318 228 L 318 225 L 319 224 L 319 221 L 320 220 L 320 216 L 321 215 L 321 212 L 322 211 L 322 208 L 323 207 L 323 204 L 324 203 L 324 200 L 325 199 L 325 196 L 326 195 L 326 192 L 327 191 L 327 188 L 328 187 L 328 184 L 329 183 L 329 180 L 330 179 L 330 176 L 331 175 L 331 172 L 332 171 L 332 168 L 333 167 L 333 164 L 334 163 L 334 160 L 335 159 L 335 156 L 336 155 L 336 151 L 337 150 L 337 147 L 338 146 L 338 143 L 339 142 L 339 139 L 340 138 L 340 135 L 341 134 L 341 131 L 342 130 L 342 127 L 343 126 L 343 123 L 344 122 L 344 119 L 345 118 L 345 115 L 346 114 L 346 111 L 347 110 L 347 107 L 348 106 L 348 103 L 349 102 L 349 99 L 350 98 L 350 95 L 351 94 L 351 91 L 352 90 L 352 86 L 353 85 L 353 82 L 354 81 L 354 78 L 355 77 L 355 74 L 356 73 L 356 70 L 357 69 L 357 66 L 358 65 L 358 62 L 359 61 z" />
<path d="M 265 56 L 266 55 L 267 56 L 267 66 L 268 67 L 268 75 L 269 76 L 269 85 L 270 86 L 270 94 L 271 95 L 271 104 L 272 105 L 272 113 L 273 114 L 273 123 L 274 124 L 274 132 L 275 133 L 275 141 L 276 142 L 276 151 L 277 152 L 277 160 L 278 161 L 278 170 L 279 171 L 279 179 L 280 180 L 280 189 L 281 190 L 281 198 L 282 199 L 282 207 L 283 208 L 283 217 L 284 218 L 284 226 L 285 227 L 285 236 L 286 237 L 286 245 L 287 246 L 287 255 L 288 256 L 288 264 L 289 265 L 289 273 L 290 274 L 290 283 L 291 284 L 291 286 L 290 287 L 197 287 L 196 288 L 195 287 L 195 284 L 196 283 L 196 281 L 197 280 L 197 277 L 198 276 L 198 274 L 199 273 L 199 271 L 200 270 L 200 268 L 201 267 L 201 264 L 202 263 L 202 261 L 203 260 L 203 258 L 204 257 L 204 255 L 205 254 L 205 251 L 206 250 L 206 248 L 207 247 L 207 245 L 208 244 L 208 242 L 209 241 L 209 238 L 210 237 L 210 235 L 211 234 L 211 232 L 212 231 L 212 229 L 213 228 L 213 225 L 214 224 L 214 222 L 215 221 L 215 219 L 216 218 L 216 216 L 217 215 L 217 212 L 218 211 L 218 209 L 219 208 L 219 206 L 220 205 L 220 202 L 221 201 L 221 199 L 222 198 L 222 196 L 223 195 L 223 193 L 224 192 L 224 189 L 225 188 L 225 186 L 226 185 L 226 183 L 227 182 L 227 180 L 228 179 L 228 176 L 229 175 L 229 173 L 230 172 L 230 170 L 231 169 L 231 167 L 232 166 L 232 163 L 233 162 L 233 160 L 234 159 L 234 157 L 235 156 L 235 154 L 236 153 L 236 150 L 237 149 L 237 147 L 238 146 L 238 144 L 239 143 L 239 141 L 240 140 L 240 137 L 241 136 L 241 134 L 242 133 L 242 131 L 243 130 L 243 128 L 244 127 L 244 124 L 245 123 L 245 121 L 246 120 L 246 118 L 247 117 L 247 114 L 248 113 L 248 111 L 249 110 L 249 108 L 250 107 L 250 105 L 251 104 L 251 101 L 252 100 L 252 98 L 253 97 L 253 95 L 254 94 L 254 92 L 255 91 L 255 88 L 256 87 L 256 85 L 257 84 L 257 82 L 258 81 L 258 79 L 259 78 L 259 75 L 260 74 L 260 72 L 261 71 L 261 69 L 262 68 L 262 66 L 263 65 L 263 62 L 264 61 L 264 59 L 265 58 z" />
<path d="M 165 56 L 166 55 L 167 56 L 167 72 L 168 73 L 168 87 L 169 88 L 169 102 L 170 103 L 170 116 L 171 117 L 171 131 L 172 132 L 172 146 L 173 147 L 173 160 L 174 161 L 174 175 L 175 176 L 175 189 L 176 190 L 176 204 L 177 205 L 177 219 L 178 220 L 178 233 L 179 234 L 179 248 L 180 249 L 180 263 L 181 264 L 181 277 L 182 278 L 182 286 L 181 287 L 90 287 L 89 288 L 88 287 L 88 285 L 89 284 L 89 282 L 90 281 L 90 279 L 91 278 L 91 276 L 92 275 L 92 273 L 93 272 L 93 270 L 94 269 L 94 267 L 95 266 L 95 264 L 96 263 L 96 261 L 97 260 L 97 258 L 98 257 L 98 255 L 99 254 L 99 252 L 100 251 L 100 249 L 101 248 L 101 246 L 102 245 L 102 243 L 103 242 L 103 240 L 104 239 L 104 237 L 105 236 L 105 234 L 106 233 L 106 232 L 107 231 L 107 229 L 108 228 L 108 226 L 109 225 L 109 223 L 110 222 L 110 220 L 111 219 L 111 217 L 112 216 L 112 214 L 113 213 L 113 211 L 114 210 L 114 208 L 115 207 L 115 205 L 116 204 L 116 202 L 117 201 L 117 199 L 118 198 L 118 196 L 119 195 L 119 193 L 120 192 L 120 190 L 121 189 L 121 187 L 122 186 L 122 184 L 123 183 L 123 181 L 124 180 L 124 178 L 125 177 L 125 175 L 126 174 L 126 172 L 127 171 L 127 169 L 128 168 L 128 166 L 129 165 L 129 163 L 130 162 L 130 160 L 131 159 L 131 157 L 132 156 L 132 154 L 133 153 L 133 151 L 134 150 L 134 148 L 135 147 L 135 146 L 136 145 L 136 143 L 137 142 L 137 140 L 138 139 L 138 137 L 139 136 L 139 134 L 140 133 L 140 131 L 141 130 L 141 128 L 142 127 L 142 125 L 143 124 L 143 122 L 144 121 L 144 119 L 145 118 L 145 116 L 146 115 L 146 113 L 147 112 L 147 110 L 148 109 L 148 107 L 149 106 L 149 104 L 150 103 L 150 101 L 151 100 L 151 98 L 152 97 L 152 95 L 153 94 L 153 92 L 154 91 L 154 89 L 155 88 L 155 86 L 156 85 L 156 83 L 157 82 L 157 80 L 158 79 L 158 77 L 159 76 L 159 74 L 160 73 L 160 71 L 161 70 L 161 68 L 162 67 L 162 65 L 163 64 L 163 62 L 164 61 L 164 59 L 165 58 z" />
<path d="M 469 33 L 496 33 L 498 35 L 498 38 L 499 39 L 499 47 L 500 48 L 500 57 L 501 58 L 501 66 L 502 67 L 502 75 L 503 76 L 503 85 L 504 86 L 504 94 L 505 95 L 505 104 L 506 105 L 506 113 L 507 114 L 507 123 L 508 124 L 508 132 L 509 133 L 509 141 L 510 142 L 510 151 L 511 152 L 511 160 L 512 161 L 512 170 L 513 171 L 513 179 L 514 180 L 514 189 L 515 190 L 515 198 L 516 199 L 516 207 L 517 208 L 517 217 L 518 218 L 518 226 L 519 227 L 519 236 L 520 237 L 520 245 L 521 246 L 521 255 L 522 256 L 522 264 L 523 265 L 523 273 L 524 274 L 524 283 L 525 284 L 525 286 L 524 287 L 486 287 L 485 286 L 485 279 L 484 278 L 484 265 L 483 264 L 483 251 L 482 250 L 482 237 L 481 236 L 481 223 L 480 222 L 480 209 L 479 208 L 479 196 L 478 195 L 478 182 L 477 181 L 477 168 L 476 167 L 476 154 L 475 153 L 475 140 L 474 139 L 474 126 L 473 125 L 473 112 L 472 111 L 472 98 L 471 97 L 471 84 L 470 83 L 470 70 L 469 69 L 469 57 L 468 56 L 468 43 L 467 42 L 467 35 z" />
<path d="M 369 33 L 453 33 L 455 35 L 454 36 L 454 39 L 453 40 L 453 43 L 452 44 L 452 47 L 451 48 L 451 51 L 450 52 L 450 55 L 449 56 L 449 58 L 448 59 L 448 62 L 447 63 L 447 66 L 446 67 L 446 70 L 445 71 L 445 74 L 444 75 L 444 78 L 443 79 L 443 82 L 442 83 L 442 86 L 441 87 L 441 89 L 440 90 L 440 93 L 439 94 L 439 97 L 438 98 L 438 101 L 437 102 L 437 105 L 436 106 L 436 109 L 435 110 L 435 113 L 434 114 L 434 117 L 433 118 L 433 121 L 432 122 L 432 124 L 431 125 L 431 128 L 430 129 L 430 132 L 429 133 L 429 136 L 428 137 L 428 140 L 427 141 L 427 144 L 426 145 L 426 148 L 425 149 L 425 152 L 424 153 L 424 155 L 423 156 L 423 159 L 422 160 L 422 163 L 421 164 L 421 167 L 420 168 L 420 171 L 419 172 L 419 175 L 418 176 L 418 179 L 417 180 L 417 183 L 416 184 L 416 187 L 415 188 L 415 190 L 414 191 L 414 194 L 413 195 L 413 198 L 412 199 L 412 202 L 411 203 L 411 206 L 410 207 L 410 210 L 409 211 L 409 214 L 408 215 L 408 218 L 407 219 L 407 221 L 406 222 L 406 225 L 405 226 L 405 229 L 404 230 L 404 233 L 403 234 L 403 237 L 402 238 L 402 241 L 401 242 L 401 245 L 400 246 L 400 249 L 399 250 L 399 253 L 398 254 L 398 256 L 397 257 L 397 261 L 396 262 L 395 261 L 395 260 L 394 259 L 394 251 L 393 250 L 393 243 L 392 242 L 392 235 L 391 234 L 391 227 L 390 226 L 390 218 L 389 217 L 389 210 L 388 209 L 388 202 L 387 201 L 387 194 L 386 193 L 386 185 L 385 184 L 385 177 L 384 176 L 384 169 L 383 168 L 383 161 L 382 160 L 382 152 L 381 151 L 381 144 L 380 143 L 380 136 L 379 135 L 379 128 L 378 127 L 378 119 L 377 118 L 377 111 L 376 110 L 376 103 L 375 102 L 375 95 L 374 94 L 374 86 L 373 85 L 373 78 L 372 77 L 372 70 L 371 69 L 371 62 L 370 61 L 370 53 L 369 52 L 369 45 L 368 44 L 368 37 L 367 36 L 367 35 z" />
<path d="M 276 33 L 353 33 L 355 35 L 355 36 L 354 37 L 354 40 L 353 41 L 353 44 L 352 45 L 352 48 L 351 49 L 351 52 L 350 53 L 350 56 L 349 57 L 349 60 L 348 61 L 348 64 L 347 65 L 347 68 L 346 69 L 346 72 L 345 73 L 345 76 L 344 77 L 344 80 L 343 81 L 343 84 L 342 85 L 342 88 L 341 89 L 341 92 L 340 93 L 340 96 L 339 97 L 339 101 L 338 102 L 338 105 L 337 106 L 337 109 L 336 110 L 336 113 L 335 114 L 335 117 L 334 118 L 334 121 L 333 122 L 333 125 L 332 126 L 332 129 L 331 130 L 331 133 L 330 134 L 330 137 L 329 138 L 329 141 L 328 142 L 328 145 L 327 146 L 327 149 L 326 150 L 326 153 L 325 154 L 325 157 L 324 158 L 324 161 L 323 162 L 323 165 L 322 166 L 322 170 L 321 171 L 321 174 L 320 175 L 320 178 L 319 179 L 319 182 L 318 183 L 318 186 L 317 187 L 317 190 L 316 191 L 316 194 L 315 195 L 315 198 L 314 199 L 314 202 L 313 203 L 313 206 L 312 207 L 312 210 L 311 211 L 311 214 L 310 215 L 310 218 L 309 219 L 309 222 L 308 223 L 308 226 L 307 227 L 307 230 L 306 231 L 306 235 L 305 236 L 305 239 L 304 240 L 304 243 L 303 244 L 303 247 L 302 248 L 302 251 L 301 252 L 301 255 L 300 256 L 300 260 L 299 261 L 298 260 L 298 255 L 297 254 L 297 246 L 296 245 L 296 236 L 295 235 L 295 227 L 294 226 L 294 217 L 293 216 L 293 208 L 292 207 L 292 198 L 291 197 L 291 189 L 290 188 L 290 180 L 289 179 L 289 170 L 288 169 L 288 161 L 287 160 L 287 151 L 286 150 L 286 142 L 285 141 L 285 132 L 284 131 L 284 123 L 283 122 L 283 114 L 282 113 L 282 104 L 281 103 L 281 95 L 280 94 L 280 85 L 279 84 L 279 76 L 278 75 L 278 66 L 277 65 L 277 57 L 276 56 L 276 48 L 275 47 L 275 38 L 274 37 L 274 35 z" />
<path d="M 177 33 L 260 33 L 261 34 L 261 37 L 260 38 L 260 40 L 259 41 L 259 44 L 258 45 L 258 47 L 257 48 L 257 50 L 256 51 L 256 53 L 255 54 L 255 57 L 254 58 L 254 60 L 253 61 L 253 63 L 252 64 L 252 66 L 251 67 L 251 70 L 250 71 L 250 73 L 249 74 L 249 76 L 248 77 L 248 79 L 247 80 L 247 83 L 246 84 L 246 86 L 245 87 L 245 89 L 244 90 L 244 92 L 243 93 L 243 96 L 242 97 L 242 99 L 241 100 L 241 102 L 240 103 L 240 105 L 239 106 L 239 109 L 238 110 L 238 112 L 237 113 L 237 115 L 236 116 L 236 118 L 235 119 L 235 122 L 234 123 L 234 125 L 233 126 L 233 128 L 232 129 L 232 132 L 231 133 L 231 135 L 230 136 L 230 138 L 229 139 L 229 141 L 228 142 L 228 145 L 227 146 L 227 148 L 226 149 L 226 151 L 225 152 L 225 154 L 224 155 L 224 158 L 223 159 L 223 161 L 222 162 L 222 164 L 221 165 L 221 167 L 220 168 L 220 171 L 219 172 L 219 174 L 218 175 L 218 177 L 217 178 L 217 180 L 216 181 L 216 184 L 215 185 L 215 187 L 214 188 L 214 190 L 213 191 L 213 193 L 212 194 L 212 197 L 211 198 L 211 200 L 210 201 L 210 203 L 209 204 L 209 206 L 208 207 L 208 210 L 207 211 L 207 213 L 206 214 L 206 216 L 205 217 L 205 220 L 204 221 L 204 223 L 203 224 L 203 226 L 202 227 L 202 229 L 201 230 L 201 233 L 200 234 L 200 236 L 199 237 L 199 239 L 198 240 L 198 242 L 197 243 L 197 246 L 196 247 L 196 249 L 195 250 L 195 252 L 194 253 L 194 255 L 193 256 L 193 259 L 192 260 L 192 263 L 191 264 L 190 263 L 190 249 L 189 248 L 189 234 L 188 233 L 188 220 L 187 219 L 187 205 L 186 204 L 186 190 L 185 189 L 185 176 L 184 175 L 184 161 L 183 160 L 183 146 L 182 145 L 182 131 L 181 130 L 181 117 L 180 116 L 180 102 L 179 101 L 179 87 L 178 86 L 178 73 L 177 72 L 177 58 L 176 57 L 176 43 L 175 42 L 175 35 z" />
<path d="M 88 249 L 89 248 L 90 249 L 90 251 L 89 252 L 88 251 z" />
<path d="M 107 33 L 161 33 L 162 34 L 162 36 L 161 37 L 161 39 L 160 40 L 160 42 L 159 43 L 159 45 L 158 46 L 158 48 L 157 49 L 157 51 L 156 52 L 156 54 L 155 55 L 155 57 L 154 58 L 154 60 L 153 61 L 153 63 L 152 64 L 152 66 L 151 67 L 151 69 L 150 70 L 150 72 L 149 73 L 149 75 L 148 76 L 148 78 L 147 79 L 147 81 L 146 82 L 146 84 L 145 85 L 145 87 L 144 88 L 144 89 L 143 90 L 143 92 L 142 93 L 142 95 L 141 96 L 141 98 L 140 99 L 140 101 L 139 102 L 139 104 L 138 105 L 138 107 L 137 108 L 137 110 L 136 111 L 136 113 L 135 114 L 135 116 L 134 117 L 134 119 L 133 120 L 133 122 L 132 123 L 132 125 L 131 126 L 131 128 L 130 129 L 130 131 L 129 132 L 129 134 L 128 135 L 128 137 L 127 138 L 127 140 L 126 141 L 126 143 L 125 144 L 125 146 L 124 147 L 124 149 L 123 150 L 123 152 L 122 153 L 122 155 L 121 156 L 121 158 L 120 159 L 120 161 L 119 162 L 119 164 L 118 165 L 118 167 L 117 168 L 117 170 L 116 171 L 116 173 L 115 174 L 115 175 L 114 176 L 114 178 L 113 179 L 113 181 L 112 182 L 112 184 L 111 185 L 111 187 L 110 188 L 110 190 L 109 191 L 109 193 L 108 194 L 108 196 L 107 197 L 107 199 L 106 200 L 106 202 L 105 203 L 105 205 L 104 206 L 104 208 L 103 209 L 103 211 L 102 212 L 102 214 L 101 215 L 101 217 L 100 218 L 100 220 L 99 221 L 99 223 L 98 224 L 98 226 L 97 227 L 97 229 L 96 230 L 96 232 L 95 233 L 95 235 L 94 236 L 94 238 L 93 239 L 93 241 L 92 242 L 92 244 L 91 245 L 91 248 L 90 249 L 89 248 L 89 240 L 90 239 L 90 227 L 91 226 L 91 214 L 92 213 L 92 201 L 93 200 L 93 188 L 94 187 L 94 174 L 95 173 L 95 161 L 96 160 L 96 148 L 97 147 L 97 135 L 98 134 L 98 122 L 99 121 L 99 108 L 100 107 L 100 95 L 101 94 L 101 82 L 102 81 L 102 69 L 103 68 L 103 56 L 104 55 L 104 42 L 105 41 L 105 35 z" />
</g>
</svg>