<?xml version="1.0" encoding="UTF-8"?>
<svg xmlns="http://www.w3.org/2000/svg" xmlns:xlink="http://www.w3.org/1999/xlink"
     width="642" height="3068" viewBox="0 0 642 3068" style="background-color:rgb(255, 255, 255);">
<defs>
</defs>
<g id="0" fill="grey" stroke="black">
<path d="M 84 0 L 82 2 L 82 6 L 81 7 L 81 43 L 80 44 L 80 81 L 79 82 L 79 119 L 78 120 L 78 157 L 77 158 L 77 194 L 76 195 L 76 232 L 75 233 L 75 270 L 74 271 L 74 308 L 73 309 L 73 345 L 72 346 L 72 383 L 71 384 L 71 421 L 70 422 L 70 459 L 69 460 L 69 496 L 68 497 L 68 534 L 67 535 L 67 572 L 66 573 L 66 609 L 65 610 L 65 647 L 64 648 L 64 685 L 63 686 L 63 723 L 62 724 L 62 760 L 61 761 L 61 798 L 60 799 L 60 836 L 59 837 L 59 874 L 58 875 L 58 911 L 57 912 L 57 949 L 56 950 L 56 987 L 55 988 L 55 1024 L 54 1025 L 54 1062 L 53 1063 L 53 1100 L 52 1101 L 52 1138 L 51 1139 L 51 1175 L 50 1176 L 50 1213 L 49 1214 L 49 1251 L 48 1252 L 48 1289 L 47 1290 L 47 1326 L 46 1327 L 46 1364 L 45 1365 L 45 1402 L 44 1403 L 44 1439 L 43 1440 L 43 1477 L 42 1478 L 42 1515 L 41 1516 L 41 1553 L 40 1554 L 40 1590 L 39 1591 L 39 1628 L 38 1629 L 38 1666 L 37 1667 L 37 1704 L 36 1705 L 36 1741 L 35 1742 L 35 1779 L 34 1780 L 34 1817 L 33 1818 L 33 1854 L 32 1855 L 32 1892 L 31 1893 L 31 1930 L 30 1931 L 30 1968 L 29 1969 L 29 2005 L 28 2006 L 28 2043 L 27 2044 L 27 2081 L 26 2082 L 26 2119 L 25 2120 L 25 2156 L 24 2157 L 24 2194 L 23 2195 L 23 2232 L 22 2233 L 22 2269 L 21 2270 L 21 2307 L 20 2308 L 20 2345 L 19 2346 L 19 2383 L 18 2384 L 18 2420 L 17 2421 L 17 2458 L 16 2459 L 16 2496 L 15 2497 L 15 2534 L 14 2535 L 14 2571 L 13 2572 L 13 2609 L 12 2610 L 12 2647 L 11 2648 L 11 2684 L 10 2685 L 10 2722 L 9 2723 L 9 2760 L 8 2761 L 8 2798 L 7 2799 L 7 2835 L 6 2836 L 6 2873 L 5 2874 L 5 2911 L 4 2912 L 4 2949 L 3 2950 L 3 2986 L 2 2987 L 2 3024 L 1 3025 L 1 3062 L 0 3063 L 0 3066 L 1 3067 L 641 3067 L 641 3062 L 640 3061 L 640 3038 L 639 3037 L 639 3014 L 638 3013 L 638 2991 L 637 2990 L 637 2967 L 636 2966 L 636 2943 L 635 2942 L 635 2920 L 634 2919 L 634 2896 L 633 2895 L 633 2872 L 632 2871 L 632 2848 L 631 2847 L 631 2825 L 630 2824 L 630 2801 L 629 2800 L 629 2777 L 628 2776 L 628 2754 L 627 2753 L 627 2730 L 626 2729 L 626 2706 L 625 2705 L 625 2683 L 624 2682 L 624 2659 L 623 2658 L 623 2635 L 622 2634 L 622 2611 L 621 2610 L 621 2588 L 620 2587 L 620 2564 L 619 2563 L 619 2540 L 618 2539 L 618 2517 L 617 2516 L 617 2493 L 616 2492 L 616 2469 L 615 2468 L 615 2446 L 614 2445 L 614 2422 L 613 2421 L 613 2398 L 612 2397 L 612 2375 L 611 2374 L 611 2351 L 610 2350 L 610 2327 L 609 2326 L 609 2303 L 608 2302 L 608 2280 L 607 2279 L 607 2256 L 606 2255 L 606 2232 L 605 2231 L 605 2209 L 604 2208 L 604 2185 L 603 2184 L 603 2161 L 602 2160 L 602 2138 L 601 2137 L 601 2114 L 600 2113 L 600 2090 L 599 2089 L 599 2066 L 598 2065 L 598 2043 L 597 2042 L 597 2019 L 596 2018 L 596 1995 L 595 1994 L 595 1972 L 594 1971 L 594 1948 L 593 1947 L 593 1924 L 592 1923 L 592 1901 L 591 1900 L 591 1877 L 590 1876 L 590 1853 L 589 1852 L 589 1829 L 588 1828 L 588 1806 L 587 1805 L 587 1782 L 586 1781 L 586 1758 L 585 1757 L 585 1735 L 584 1734 L 584 1711 L 583 1710 L 583 1687 L 582 1686 L 582 1664 L 581 1663 L 581 1640 L 580 1639 L 580 1616 L 579 1615 L 579 1592 L 578 1591 L 578 1569 L 577 1568 L 577 1545 L 576 1544 L 576 1521 L 575 1520 L 575 1498 L 574 1497 L 574 1474 L 573 1473 L 573 1450 L 572 1449 L 572 1427 L 571 1426 L 571 1403 L 570 1402 L 570 1379 L 569 1378 L 569 1356 L 568 1355 L 568 1332 L 567 1331 L 567 1308 L 566 1307 L 566 1284 L 565 1283 L 565 1261 L 564 1260 L 564 1237 L 563 1236 L 563 1213 L 562 1212 L 562 1190 L 561 1189 L 561 1166 L 560 1165 L 560 1142 L 559 1141 L 559 1119 L 558 1118 L 558 1095 L 557 1094 L 557 1071 L 556 1070 L 556 1047 L 555 1046 L 555 1024 L 554 1023 L 554 1000 L 553 999 L 553 976 L 552 975 L 552 953 L 551 952 L 551 929 L 550 928 L 550 905 L 549 904 L 549 882 L 548 881 L 548 858 L 547 857 L 547 834 L 546 833 L 546 810 L 545 809 L 545 787 L 544 786 L 544 763 L 543 762 L 543 739 L 542 738 L 542 716 L 541 715 L 541 692 L 540 691 L 540 668 L 539 667 L 539 645 L 538 644 L 538 621 L 537 620 L 537 597 L 536 596 L 536 573 L 535 572 L 535 550 L 534 549 L 534 526 L 533 525 L 533 502 L 532 501 L 532 479 L 531 478 L 531 455 L 530 454 L 530 431 L 529 430 L 529 408 L 528 407 L 528 384 L 527 383 L 527 360 L 526 359 L 526 337 L 525 336 L 525 313 L 524 312 L 524 289 L 523 288 L 523 265 L 522 264 L 522 242 L 521 241 L 521 218 L 520 217 L 520 194 L 519 193 L 519 171 L 518 170 L 518 147 L 517 146 L 517 123 L 516 122 L 516 100 L 515 99 L 515 76 L 514 75 L 514 52 L 513 51 L 513 28 L 512 27 L 512 5 L 511 4 L 511 1 L 510 0 z" />
<path d="M 84 0 L 510 0 L 511 1 L 511 4 L 512 5 L 512 27 L 513 28 L 513 51 L 514 52 L 514 75 L 515 76 L 515 99 L 516 100 L 516 122 L 517 123 L 517 146 L 518 147 L 518 170 L 519 171 L 519 193 L 520 194 L 520 217 L 521 218 L 521 241 L 522 242 L 522 264 L 523 265 L 523 288 L 524 289 L 524 312 L 525 313 L 525 336 L 526 337 L 526 359 L 527 360 L 527 383 L 528 384 L 528 407 L 529 408 L 529 430 L 530 431 L 530 454 L 531 455 L 531 478 L 532 479 L 532 501 L 533 502 L 533 525 L 534 526 L 534 549 L 535 550 L 535 572 L 536 573 L 536 596 L 537 597 L 537 620 L 538 621 L 538 644 L 539 645 L 539 667 L 540 668 L 540 691 L 541 692 L 541 715 L 542 716 L 542 738 L 543 739 L 543 762 L 544 763 L 544 786 L 545 787 L 545 809 L 546 810 L 546 833 L 547 834 L 547 857 L 548 858 L 548 881 L 549 882 L 549 904 L 550 905 L 550 928 L 551 929 L 551 952 L 552 953 L 552 975 L 553 976 L 553 999 L 554 1000 L 554 1023 L 555 1024 L 555 1046 L 556 1047 L 556 1070 L 557 1071 L 557 1094 L 558 1095 L 558 1118 L 559 1119 L 559 1141 L 560 1142 L 560 1165 L 561 1166 L 561 1189 L 562 1190 L 562 1212 L 563 1213 L 563 1236 L 564 1237 L 564 1260 L 565 1261 L 565 1283 L 566 1284 L 566 1307 L 567 1308 L 567 1331 L 568 1332 L 568 1355 L 569 1356 L 569 1378 L 570 1379 L 570 1402 L 571 1403 L 571 1426 L 572 1427 L 572 1449 L 573 1450 L 573 1473 L 574 1474 L 574 1497 L 575 1498 L 575 1520 L 576 1521 L 576 1544 L 577 1545 L 577 1568 L 578 1569 L 578 1591 L 579 1592 L 579 1615 L 580 1616 L 580 1639 L 581 1640 L 581 1663 L 582 1664 L 582 1686 L 583 1687 L 583 1710 L 584 1711 L 584 1734 L 585 1735 L 585 1757 L 586 1758 L 586 1781 L 587 1782 L 587 1805 L 588 1806 L 588 1828 L 589 1829 L 589 1852 L 590 1853 L 590 1876 L 591 1877 L 591 1900 L 592 1901 L 592 1923 L 593 1924 L 593 1947 L 594 1948 L 594 1971 L 595 1972 L 595 1994 L 596 1995 L 596 2018 L 597 2019 L 597 2042 L 598 2043 L 598 2065 L 599 2066 L 599 2089 L 600 2090 L 600 2113 L 601 2114 L 601 2137 L 602 2138 L 602 2160 L 603 2161 L 603 2184 L 604 2185 L 604 2208 L 605 2209 L 605 2231 L 606 2232 L 606 2255 L 607 2256 L 607 2279 L 608 2280 L 608 2302 L 609 2303 L 609 2326 L 610 2327 L 610 2350 L 611 2351 L 611 2374 L 612 2375 L 612 2397 L 613 2398 L 613 2421 L 614 2422 L 614 2445 L 615 2446 L 615 2468 L 616 2469 L 616 2492 L 617 2493 L 617 2516 L 618 2517 L 618 2539 L 619 2540 L 619 2563 L 620 2564 L 620 2587 L 621 2588 L 621 2610 L 622 2611 L 622 2634 L 623 2635 L 623 2658 L 624 2659 L 624 2682 L 625 2683 L 625 2705 L 626 2706 L 626 2729 L 627 2730 L 627 2753 L 628 2754 L 628 2776 L 629 2777 L 629 2800 L 630 2801 L 630 2824 L 631 2825 L 631 2847 L 632 2848 L 632 2871 L 633 2872 L 633 2895 L 634 2896 L 634 2919 L 635 2920 L 635 2942 L 636 2943 L 636 2966 L 637 2967 L 637 2990 L 638 2991 L 638 3013 L 639 3014 L 639 3037 L 640 3038 L 640 3061 L 641 3062 L 641 3066 L 640 3067 L 1 3067 L 0 3066 L 0 3063 L 1 3062 L 1 3025 L 2 3024 L 2 2987 L 3 2986 L 3 2950 L 4 2949 L 4 2912 L 5 2911 L 5 2874 L 6 2873 L 6 2836 L 7 2835 L 7 2799 L 8 2798 L 8 2761 L 9 2760 L 9 2723 L 10 2722 L 10 2685 L 11 2684 L 11 2648 L 12 2647 L 12 2610 L 13 2609 L 13 2572 L 14 2571 L 14 2535 L 15 2534 L 15 2497 L 16 2496 L 16 2459 L 17 2458 L 17 2421 L 18 2420 L 18 2384 L 19 2383 L 19 2346 L 20 2345 L 20 2308 L 21 2307 L 21 2270 L 22 2269 L 22 2233 L 23 2232 L 23 2195 L 24 2194 L 24 2157 L 25 2156 L 25 2120 L 26 2119 L 26 2082 L 27 2081 L 27 2044 L 28 2043 L 28 2006 L 29 2005 L 29 1969 L 30 1968 L 30 1931 L 31 1930 L 31 1893 L 32 1892 L 32 1855 L 33 1854 L 33 1818 L 34 1817 L 34 1780 L 35 1779 L 35 1742 L 36 1741 L 36 1705 L 37 1704 L 37 1667 L 38 1666 L 38 1629 L 39 1628 L 39 1591 L 40 1590 L 40 1554 L 41 1553 L 41 1516 L 42 1515 L 42 1478 L 43 1477 L 43 1440 L 44 1439 L 44 1403 L 45 1402 L 45 1365 L 46 1364 L 46 1327 L 47 1326 L 47 1290 L 48 1289 L 48 1252 L 49 1251 L 49 1214 L 50 1213 L 50 1176 L 51 1175 L 51 1139 L 52 1138 L 52 1101 L 53 1100 L 53 1063 L 54 1062 L 54 1025 L 55 1024 L 55 988 L 56 987 L 56 950 L 57 949 L 57 912 L 58 911 L 58 875 L 59 874 L 59 837 L 60 836 L 60 799 L 61 798 L 61 761 L 62 760 L 62 724 L 63 723 L 63 686 L 64 685 L 64 648 L 65 647 L 65 610 L 66 609 L 66 573 L 67 572 L 67 535 L 68 534 L 68 497 L 69 496 L 69 460 L 70 459 L 70 422 L 71 421 L 71 384 L 72 383 L 72 346 L 73 345 L 73 309 L 74 308 L 74 271 L 75 270 L 75 233 L 76 232 L 76 195 L 77 194 L 77 158 L 78 157 L 78 120 L 79 119 L 79 82 L 80 81 L 80 44 L 81 43 L 81 7 L 82 6 L 82 2 z" />
<g id="1" fill="grey" stroke="black">
<path d="M 550 3001 L 549 3002 L 548 3002 L 548 3022 L 549 3023 L 549 3056 L 550 3057 L 630 3057 L 630 3039 L 629 3038 L 629 3016 L 628 3015 L 628 3002 L 627 3002 L 626 3001 z" />
<path d="M 15 3001 L 14 3002 L 13 3002 L 13 3023 L 12 3024 L 12 3056 L 13 3057 L 14 3056 L 539 3056 L 539 3025 L 538 3024 L 538 3002 L 537 3002 L 536 3001 z" />
<path d="M 548 2938 L 546 2940 L 546 2947 L 547 2948 L 547 2985 L 548 2986 L 548 2991 L 625 2991 L 626 2992 L 627 2991 L 627 2968 L 626 2967 L 626 2945 L 625 2944 L 625 2939 L 624 2939 L 623 2938 z" />
<path d="M 17 2938 L 16 2939 L 15 2939 L 15 2949 L 14 2950 L 14 2990 L 15 2991 L 537 2991 L 538 2990 L 538 2987 L 537 2986 L 537 2949 L 536 2948 L 536 2939 L 535 2939 L 534 2938 z" />
<path d="M 547 2885 L 546 2886 L 545 2886 L 545 2909 L 546 2910 L 546 2928 L 625 2928 L 625 2921 L 624 2920 L 624 2897 L 623 2896 L 623 2886 L 622 2886 L 621 2885 z" />
<path d="M 18 2885 L 17 2886 L 16 2886 L 16 2910 L 15 2911 L 15 2928 L 536 2928 L 536 2911 L 535 2910 L 535 2886 L 534 2886 L 533 2885 z" />
<path d="M 545 2822 L 543 2824 L 543 2834 L 544 2835 L 544 2872 L 545 2873 L 545 2875 L 622 2875 L 623 2874 L 622 2873 L 622 2850 L 621 2849 L 621 2826 L 620 2825 L 620 2823 L 619 2823 L 618 2822 z" />
<path d="M 20 2822 L 19 2823 L 18 2823 L 18 2835 L 17 2836 L 17 2872 L 16 2873 L 16 2874 L 17 2875 L 534 2875 L 535 2874 L 534 2873 L 534 2836 L 533 2835 L 533 2823 L 532 2823 L 531 2822 z" />
<path d="M 544 2770 L 543 2771 L 542 2771 L 542 2796 L 543 2797 L 543 2812 L 620 2812 L 620 2802 L 619 2801 L 619 2779 L 618 2778 L 618 2771 L 617 2771 L 616 2770 z" />
<path d="M 21 2769 L 20 2770 L 19 2770 L 19 2797 L 18 2798 L 18 2812 L 533 2812 L 533 2798 L 532 2797 L 532 2770 L 531 2770 L 530 2769 z" />
<path d="M 542 2707 L 540 2709 L 540 2721 L 541 2722 L 541 2758 L 542 2759 L 542 2760 L 618 2760 L 618 2755 L 617 2754 L 617 2731 L 616 2730 L 616 2709 L 614 2707 z" />
<path d="M 23 2706 L 22 2707 L 21 2707 L 21 2721 L 20 2722 L 20 2759 L 21 2760 L 22 2759 L 529 2759 L 530 2760 L 531 2759 L 531 2723 L 530 2722 L 530 2707 L 529 2707 L 528 2706 z" />
<path d="M 541 2654 L 540 2655 L 539 2655 L 539 2683 L 540 2684 L 540 2697 L 615 2697 L 615 2684 L 614 2683 L 614 2660 L 613 2659 L 613 2655 L 612 2655 L 611 2654 z" />
<path d="M 24 2654 L 23 2655 L 22 2655 L 22 2684 L 21 2685 L 21 2696 L 530 2696 L 530 2685 L 529 2684 L 529 2655 L 528 2655 L 527 2654 z" />
<path d="M 539 2591 L 538 2592 L 537 2592 L 537 2607 L 538 2608 L 538 2643 L 539 2644 L 613 2644 L 613 2637 L 612 2636 L 612 2613 L 611 2612 L 611 2592 L 610 2592 L 609 2591 z" />
<path d="M 26 2591 L 25 2592 L 24 2592 L 24 2608 L 23 2609 L 23 2644 L 24 2645 L 25 2644 L 526 2644 L 527 2645 L 528 2644 L 528 2609 L 527 2608 L 527 2592 L 526 2592 L 525 2591 z" />
<path d="M 538 2538 L 537 2539 L 536 2539 L 536 2570 L 537 2571 L 537 2581 L 610 2581 L 610 2566 L 609 2565 L 609 2542 L 608 2541 L 608 2539 L 607 2539 L 606 2538 z" />
<path d="M 27 2538 L 25 2540 L 25 2571 L 24 2572 L 24 2581 L 527 2581 L 527 2572 L 526 2571 L 526 2540 L 524 2538 z" />
<path d="M 536 2475 L 535 2476 L 534 2476 L 534 2494 L 535 2495 L 535 2527 L 536 2528 L 608 2528 L 608 2518 L 607 2517 L 607 2494 L 606 2493 L 606 2476 L 605 2476 L 604 2475 z" />
<path d="M 29 2475 L 28 2476 L 27 2476 L 27 2495 L 26 2496 L 26 2528 L 27 2529 L 28 2528 L 523 2528 L 524 2529 L 525 2528 L 525 2496 L 524 2495 L 524 2476 L 523 2476 L 522 2475 z" />
<path d="M 534 2422 L 533 2423 L 533 2457 L 534 2458 L 534 2465 L 605 2465 L 605 2447 L 604 2446 L 604 2424 L 603 2423 L 602 2423 L 601 2422 z" />
<path d="M 30 2422 L 28 2424 L 28 2457 L 27 2458 L 27 2464 L 28 2465 L 523 2465 L 524 2464 L 524 2459 L 523 2458 L 523 2424 L 521 2422 z" />
<path d="M 533 2359 L 532 2360 L 531 2360 L 531 2381 L 532 2382 L 532 2411 L 533 2412 L 603 2412 L 603 2400 L 602 2399 L 602 2376 L 601 2375 L 601 2360 L 600 2360 L 599 2359 z" />
<path d="M 32 2359 L 31 2360 L 30 2360 L 30 2382 L 29 2383 L 29 2412 L 522 2412 L 522 2383 L 521 2382 L 521 2360 L 520 2360 L 519 2359 z" />
<path d="M 531 2306 L 530 2307 L 530 2343 L 531 2344 L 531 2349 L 598 2349 L 599 2350 L 600 2349 L 600 2329 L 599 2328 L 599 2308 L 597 2306 z" />
<path d="M 34 2306 L 33 2307 L 32 2307 L 31 2308 L 31 2344 L 30 2345 L 30 2348 L 31 2349 L 520 2349 L 521 2348 L 521 2345 L 520 2344 L 520 2308 L 519 2307 L 518 2307 L 517 2306 z" />
<path d="M 530 2243 L 529 2244 L 528 2244 L 528 2268 L 529 2269 L 529 2295 L 530 2296 L 598 2296 L 598 2281 L 597 2280 L 597 2257 L 596 2256 L 596 2244 L 595 2244 L 594 2243 z" />
<path d="M 35 2243 L 34 2244 L 33 2244 L 33 2269 L 32 2270 L 32 2296 L 519 2296 L 519 2270 L 518 2269 L 518 2244 L 517 2244 L 516 2243 z" />
<path d="M 528 2190 L 526 2192 L 527 2193 L 527 2230 L 528 2231 L 528 2233 L 593 2233 L 594 2234 L 595 2233 L 595 2210 L 594 2209 L 594 2191 L 593 2191 L 592 2190 z" />
<path d="M 37 2190 L 36 2191 L 35 2191 L 35 2193 L 34 2194 L 34 2231 L 33 2232 L 34 2233 L 517 2233 L 518 2232 L 517 2231 L 517 2194 L 516 2193 L 516 2191 L 515 2191 L 514 2190 z" />
<path d="M 524 2016 L 523 2017 L 522 2017 L 522 2041 L 523 2042 L 523 2079 L 524 2080 L 524 2117 L 525 2118 L 525 2155 L 526 2156 L 526 2177 L 586 2177 L 586 2017 L 585 2017 L 584 2016 z" />
<path d="M 41 2016 L 40 2017 L 39 2017 L 39 2042 L 38 2043 L 38 2080 L 37 2081 L 37 2118 L 36 2119 L 36 2156 L 35 2157 L 35 2177 L 516 2177 L 516 2157 L 515 2156 L 515 2119 L 514 2118 L 514 2081 L 513 2080 L 513 2044 L 512 2043 L 512 2017 L 511 2017 L 510 2016 z" />
<path d="M 522 1959 L 520 1961 L 520 1966 L 521 1967 L 521 2000 L 522 2001 L 585 2001 L 586 2000 L 586 1997 L 585 1996 L 585 1973 L 584 1972 L 584 1960 L 583 1960 L 582 1959 z" />
<path d="M 43 1958 L 42 1959 L 41 1959 L 41 1967 L 40 1968 L 40 2001 L 41 2002 L 42 2001 L 509 2001 L 510 2002 L 511 2001 L 511 1968 L 510 1967 L 510 1959 L 509 1959 L 508 1958 z" />
<path d="M 521 1896 L 520 1897 L 519 1897 L 519 1928 L 520 1929 L 520 1949 L 581 1949 L 582 1950 L 583 1949 L 583 1926 L 582 1925 L 582 1902 L 581 1901 L 581 1897 L 580 1897 L 579 1896 z" />
<path d="M 44 1895 L 42 1897 L 42 1929 L 41 1930 L 41 1948 L 510 1948 L 510 1930 L 509 1929 L 509 1897 L 507 1895 z" />
<path d="M 519 1843 L 517 1845 L 517 1853 L 518 1854 L 518 1885 L 519 1886 L 581 1886 L 581 1878 L 580 1877 L 580 1855 L 579 1854 L 579 1844 L 578 1844 L 577 1843 z" />
<path d="M 46 1843 L 45 1844 L 44 1844 L 44 1854 L 43 1855 L 43 1885 L 508 1885 L 508 1855 L 507 1854 L 507 1844 L 506 1844 L 505 1843 z" />
<path d="M 517 1780 L 516 1781 L 516 1815 L 517 1816 L 517 1833 L 578 1833 L 579 1832 L 579 1831 L 578 1830 L 578 1807 L 577 1806 L 577 1783 L 576 1782 L 576 1781 L 575 1781 L 574 1780 z" />
<path d="M 47 1780 L 45 1782 L 45 1816 L 44 1817 L 44 1833 L 507 1833 L 507 1817 L 506 1816 L 506 1782 L 504 1780 z" />
<path d="M 516 1727 L 514 1729 L 514 1740 L 515 1741 L 515 1769 L 516 1770 L 576 1770 L 576 1760 L 575 1759 L 575 1736 L 574 1735 L 574 1728 L 573 1728 L 572 1727 z" />
<path d="M 49 1727 L 48 1728 L 47 1728 L 47 1741 L 46 1742 L 46 1770 L 505 1770 L 505 1742 L 504 1741 L 504 1728 L 503 1728 L 502 1727 z" />
<path d="M 514 1664 L 513 1665 L 513 1702 L 514 1703 L 514 1717 L 573 1717 L 574 1716 L 574 1712 L 573 1711 L 573 1689 L 572 1688 L 572 1666 L 570 1664 z" />
<path d="M 51 1664 L 50 1665 L 49 1665 L 48 1666 L 48 1703 L 47 1704 L 47 1717 L 504 1717 L 504 1704 L 503 1703 L 503 1666 L 502 1665 L 501 1665 L 500 1664 z" />
<path d="M 513 1611 L 511 1613 L 511 1626 L 512 1627 L 512 1653 L 513 1654 L 571 1654 L 571 1641 L 570 1640 L 570 1618 L 569 1617 L 569 1612 L 568 1612 L 567 1611 z" />
<path d="M 52 1611 L 51 1612 L 50 1612 L 50 1627 L 49 1628 L 49 1654 L 502 1654 L 502 1629 L 501 1628 L 501 1612 L 500 1612 L 499 1611 z" />
<path d="M 511 1548 L 509 1550 L 509 1551 L 510 1552 L 510 1589 L 511 1590 L 511 1601 L 569 1601 L 569 1594 L 568 1593 L 568 1570 L 567 1569 L 567 1550 L 565 1548 z" />
<path d="M 54 1548 L 53 1549 L 52 1549 L 52 1552 L 51 1553 L 51 1590 L 50 1591 L 50 1601 L 501 1601 L 501 1591 L 500 1590 L 500 1553 L 499 1552 L 499 1549 L 498 1549 L 497 1548 z" />
<path d="M 510 1495 L 509 1496 L 508 1496 L 508 1513 L 509 1514 L 509 1537 L 510 1538 L 566 1538 L 566 1523 L 565 1522 L 565 1499 L 564 1498 L 564 1496 L 563 1496 L 562 1495 z" />
<path d="M 55 1495 L 54 1496 L 53 1496 L 53 1514 L 52 1515 L 52 1538 L 499 1538 L 499 1515 L 498 1514 L 498 1496 L 497 1496 L 496 1495 z" />
<path d="M 508 1432 L 506 1434 L 506 1438 L 507 1439 L 507 1475 L 508 1476 L 508 1485 L 564 1485 L 564 1475 L 563 1474 L 563 1452 L 562 1451 L 562 1433 L 561 1433 L 560 1432 z" />
<path d="M 57 1432 L 56 1433 L 55 1433 L 55 1439 L 54 1440 L 54 1476 L 53 1477 L 53 1485 L 498 1485 L 498 1478 L 497 1477 L 497 1440 L 496 1439 L 496 1433 L 495 1433 L 494 1432 z" />
<path d="M 507 1379 L 506 1380 L 505 1380 L 505 1400 L 506 1401 L 506 1422 L 561 1422 L 561 1404 L 560 1403 L 560 1381 L 559 1380 L 558 1380 L 557 1379 z" />
<path d="M 58 1379 L 57 1380 L 56 1380 L 56 1401 L 55 1402 L 55 1422 L 496 1422 L 496 1402 L 495 1401 L 495 1380 L 494 1380 L 493 1379 z" />
<path d="M 505 1316 L 503 1318 L 503 1325 L 504 1326 L 504 1362 L 505 1363 L 505 1369 L 559 1369 L 559 1357 L 558 1356 L 558 1333 L 557 1332 L 557 1317 L 556 1317 L 555 1316 z" />
<path d="M 60 1316 L 59 1317 L 58 1317 L 58 1326 L 57 1327 L 57 1363 L 56 1364 L 56 1368 L 57 1369 L 494 1369 L 495 1368 L 495 1364 L 494 1363 L 494 1327 L 493 1326 L 493 1317 L 492 1317 L 491 1316 z" />
<path d="M 504 1264 L 503 1265 L 502 1265 L 502 1287 L 503 1288 L 503 1306 L 554 1306 L 555 1307 L 556 1306 L 556 1286 L 555 1285 L 555 1265 L 554 1265 L 553 1264 z" />
<path d="M 61 1263 L 60 1264 L 59 1264 L 59 1288 L 58 1289 L 58 1306 L 493 1306 L 493 1289 L 492 1288 L 492 1264 L 491 1264 L 490 1263 z" />
<path d="M 502 1201 L 500 1203 L 500 1211 L 501 1212 L 501 1249 L 502 1250 L 502 1254 L 554 1254 L 554 1238 L 553 1237 L 553 1215 L 552 1214 L 552 1202 L 551 1202 L 550 1201 z" />
<path d="M 63 1200 L 62 1201 L 61 1201 L 61 1212 L 60 1213 L 60 1250 L 59 1251 L 59 1252 L 60 1253 L 491 1253 L 492 1252 L 492 1251 L 491 1250 L 491 1214 L 490 1213 L 490 1201 L 489 1201 L 488 1200 z" />
<path d="M 501 1148 L 500 1149 L 499 1149 L 499 1174 L 500 1175 L 500 1191 L 549 1191 L 550 1192 L 551 1191 L 551 1167 L 550 1166 L 550 1149 L 549 1149 L 548 1148 z" />
<path d="M 64 1148 L 63 1149 L 62 1149 L 62 1175 L 61 1176 L 61 1190 L 490 1190 L 490 1176 L 489 1175 L 489 1149 L 488 1149 L 487 1148 z" />
<path d="M 500 1114 L 499 1115 L 498 1115 L 498 1136 L 499 1137 L 499 1138 L 549 1138 L 549 1120 L 548 1119 L 548 1115 L 547 1115 L 546 1114 z" />
<path d="M 65 1113 L 64 1114 L 63 1114 L 63 1138 L 64 1139 L 65 1138 L 486 1138 L 487 1139 L 488 1138 L 488 1114 L 487 1114 L 486 1113 z" />
<path d="M 495 943 L 493 945 L 493 947 L 494 948 L 494 985 L 495 986 L 495 1023 L 496 1024 L 496 1060 L 497 1061 L 497 1098 L 498 1099 L 498 1104 L 548 1104 L 548 1096 L 547 1095 L 547 1073 L 546 1072 L 546 1049 L 545 1048 L 545 1025 L 544 1024 L 544 1001 L 543 1000 L 543 978 L 542 977 L 542 954 L 541 953 L 541 944 L 540 944 L 539 943 z" />
<path d="M 70 942 L 69 943 L 68 943 L 68 948 L 67 949 L 67 986 L 66 987 L 66 1024 L 65 1025 L 65 1061 L 64 1062 L 64 1099 L 63 1100 L 63 1102 L 64 1103 L 487 1103 L 488 1102 L 488 1100 L 487 1099 L 487 1063 L 486 1062 L 486 1025 L 485 1024 L 485 987 L 484 986 L 484 949 L 483 948 L 483 943 L 482 943 L 481 942 z" />
<path d="M 495 916 L 494 917 L 493 917 L 493 933 L 540 933 L 541 932 L 541 930 L 540 929 L 540 917 L 539 917 L 538 916 z" />
<path d="M 70 916 L 69 917 L 68 917 L 68 932 L 483 932 L 483 917 L 482 917 L 481 916 z" />
<path d="M 493 853 L 492 854 L 491 854 L 491 872 L 492 873 L 492 905 L 493 906 L 537 906 L 538 907 L 539 906 L 539 883 L 538 882 L 538 859 L 537 858 L 537 854 L 536 854 L 535 853 z" />
<path d="M 72 853 L 71 854 L 70 854 L 70 873 L 69 874 L 69 906 L 70 907 L 71 906 L 480 906 L 481 907 L 482 906 L 482 874 L 481 873 L 481 854 L 480 854 L 479 853 z" />
<path d="M 491 800 L 490 801 L 490 834 L 491 835 L 491 843 L 537 843 L 537 836 L 536 835 L 536 812 L 535 811 L 535 801 L 534 801 L 533 800 z" />
<path d="M 73 800 L 71 802 L 71 835 L 70 836 L 70 842 L 71 843 L 480 843 L 481 842 L 481 836 L 480 835 L 480 802 L 478 800 z" />
<path d="M 490 737 L 489 738 L 488 738 L 488 758 L 489 759 L 489 789 L 490 790 L 534 790 L 535 789 L 535 788 L 534 787 L 534 764 L 533 763 L 533 741 L 532 740 L 532 738 L 531 738 L 530 737 z" />
<path d="M 75 737 L 74 738 L 73 738 L 73 760 L 72 761 L 72 790 L 479 790 L 479 761 L 478 760 L 478 738 L 477 738 L 476 737 z" />
<path d="M 488 684 L 487 685 L 487 721 L 488 722 L 488 727 L 532 727 L 532 717 L 531 716 L 531 693 L 530 692 L 530 685 L 529 685 L 528 684 z" />
<path d="M 76 684 L 74 686 L 74 722 L 73 723 L 73 726 L 74 727 L 477 727 L 478 726 L 478 723 L 477 722 L 477 686 L 475 684 z" />
<path d="M 487 621 L 486 622 L 485 622 L 485 645 L 486 646 L 486 673 L 487 674 L 529 674 L 530 673 L 530 670 L 529 669 L 529 646 L 528 645 L 528 623 L 526 621 z" />
<path d="M 78 621 L 77 622 L 76 622 L 76 646 L 75 647 L 75 674 L 476 674 L 476 648 L 475 647 L 475 622 L 474 622 L 473 621 z" />
<path d="M 485 568 L 483 570 L 484 571 L 484 607 L 485 608 L 485 611 L 527 611 L 527 599 L 526 598 L 526 575 L 525 574 L 525 569 L 524 569 L 523 568 z" />
<path d="M 80 568 L 79 569 L 78 569 L 78 571 L 77 572 L 77 609 L 76 610 L 77 611 L 474 611 L 475 610 L 474 609 L 474 572 L 473 571 L 473 569 L 472 569 L 471 568 z" />
<path d="M 484 505 L 483 506 L 482 506 L 482 532 L 483 533 L 483 557 L 484 558 L 525 558 L 525 551 L 524 550 L 524 528 L 523 527 L 523 507 L 521 505 z" />
<path d="M 81 505 L 80 506 L 79 506 L 79 533 L 78 534 L 78 558 L 473 558 L 473 534 L 472 533 L 472 506 L 471 506 L 470 505 z" />
<path d="M 482 453 L 480 455 L 480 457 L 481 458 L 481 494 L 482 495 L 522 495 L 522 480 L 521 479 L 521 456 L 520 455 L 520 454 L 519 454 L 518 453 z" />
<path d="M 83 452 L 82 453 L 81 453 L 81 458 L 80 459 L 80 495 L 81 496 L 82 495 L 469 495 L 470 496 L 471 495 L 471 459 L 470 458 L 470 453 L 469 453 L 468 452 z" />
<path d="M 481 391 L 480 392 L 479 392 L 479 419 L 480 420 L 480 443 L 520 443 L 520 433 L 519 432 L 519 409 L 518 408 L 518 392 L 517 392 L 516 391 z" />
<path d="M 84 389 L 83 390 L 82 390 L 82 420 L 81 421 L 81 442 L 470 442 L 470 421 L 469 420 L 469 390 L 468 390 L 467 389 z" />
<path d="M 471 10 L 470 11 L 469 11 L 469 42 L 470 43 L 470 79 L 471 80 L 471 117 L 472 118 L 472 155 L 473 156 L 473 192 L 474 193 L 474 230 L 475 231 L 475 268 L 476 269 L 476 306 L 477 307 L 477 343 L 478 344 L 478 380 L 479 381 L 515 381 L 516 382 L 517 381 L 517 362 L 516 361 L 516 338 L 515 337 L 515 314 L 514 313 L 514 291 L 513 290 L 513 267 L 512 266 L 512 243 L 511 242 L 511 219 L 510 218 L 510 196 L 509 195 L 509 172 L 508 171 L 508 148 L 507 147 L 507 125 L 506 124 L 506 101 L 505 100 L 505 77 L 504 76 L 504 54 L 503 53 L 503 30 L 502 29 L 502 11 L 501 11 L 500 10 z" />
<path d="M 444 10 L 442 12 L 442 378 L 443 379 L 466 379 L 467 380 L 468 379 L 468 346 L 467 345 L 467 308 L 466 307 L 466 270 L 465 269 L 465 233 L 464 232 L 464 195 L 463 194 L 463 157 L 462 156 L 462 119 L 461 118 L 461 82 L 460 81 L 460 44 L 459 43 L 459 12 L 457 10 z" />
<path d="M 417 10 L 415 12 L 415 378 L 416 379 L 432 379 L 432 11 L 431 10 z" />
<path d="M 390 10 L 388 12 L 388 378 L 389 379 L 405 379 L 405 11 L 404 10 z" />
<path d="M 364 10 L 362 12 L 362 378 L 363 379 L 378 379 L 378 11 L 377 10 z" />
<path d="M 337 10 L 335 12 L 335 378 L 336 379 L 352 379 L 352 11 L 351 10 z" />
<path d="M 310 10 L 308 12 L 308 378 L 309 379 L 325 379 L 325 11 L 324 10 z" />
<path d="M 284 10 L 282 12 L 282 378 L 283 379 L 298 379 L 298 11 L 297 10 z" />
<path d="M 257 10 L 255 12 L 255 378 L 256 379 L 272 379 L 272 11 L 271 10 z" />
<path d="M 230 10 L 228 12 L 228 378 L 229 379 L 245 379 L 245 11 L 244 10 z" />
<path d="M 204 10 L 202 12 L 202 378 L 203 379 L 218 379 L 218 11 L 217 10 z" />
<path d="M 177 10 L 175 12 L 175 378 L 176 379 L 192 379 L 192 11 L 191 10 z" />
<path d="M 150 10 L 148 12 L 148 378 L 149 379 L 165 379 L 165 11 L 164 10 z" />
<path d="M 124 10 L 122 12 L 122 378 L 123 379 L 138 379 L 138 11 L 137 10 z" />
<path d="M 94 10 L 92 12 L 92 43 L 91 44 L 91 80 L 90 81 L 90 118 L 89 119 L 89 156 L 88 157 L 88 194 L 87 195 L 87 231 L 86 232 L 86 269 L 85 270 L 85 307 L 84 308 L 84 345 L 83 346 L 83 379 L 84 380 L 85 379 L 112 379 L 112 11 L 111 10 z" />
<g id="2" fill="grey" stroke="black">
<path d="M 550 3001 L 626 3001 L 628 3003 L 628 3015 L 629 3016 L 629 3038 L 630 3039 L 630 3056 L 629 3057 L 550 3057 L 549 3056 L 549 3023 L 548 3022 L 548 3003 z" />
<path d="M 15 3001 L 536 3001 L 538 3003 L 538 3024 L 539 3025 L 539 3055 L 538 3056 L 14 3056 L 13 3057 L 12 3056 L 12 3024 L 13 3023 L 13 3003 z" />
<path d="M 548 2938 L 623 2938 L 625 2940 L 625 2944 L 626 2945 L 626 2967 L 627 2968 L 627 2991 L 626 2992 L 625 2991 L 549 2991 L 548 2990 L 548 2986 L 547 2985 L 547 2948 L 546 2947 L 546 2940 z" />
<path d="M 17 2938 L 534 2938 L 536 2940 L 536 2948 L 537 2949 L 537 2986 L 538 2987 L 538 2990 L 537 2991 L 15 2991 L 14 2990 L 14 2950 L 15 2949 L 15 2940 z" />
<path d="M 547 2885 L 621 2885 L 623 2887 L 623 2896 L 624 2897 L 624 2920 L 625 2921 L 625 2927 L 624 2928 L 547 2928 L 546 2927 L 546 2910 L 545 2909 L 545 2887 z" />
<path d="M 18 2885 L 533 2885 L 535 2887 L 535 2910 L 536 2911 L 536 2927 L 535 2928 L 16 2928 L 15 2927 L 15 2911 L 16 2910 L 16 2887 z" />
<path d="M 545 2822 L 618 2822 L 620 2824 L 620 2825 L 621 2826 L 621 2849 L 622 2850 L 622 2873 L 623 2874 L 622 2875 L 546 2875 L 545 2874 L 545 2873 L 544 2872 L 544 2835 L 543 2834 L 543 2824 z" />
<path d="M 20 2822 L 531 2822 L 533 2824 L 533 2835 L 534 2836 L 534 2873 L 535 2874 L 534 2875 L 17 2875 L 16 2874 L 16 2873 L 17 2872 L 17 2836 L 18 2835 L 18 2824 z" />
<path d="M 544 2770 L 616 2770 L 618 2772 L 618 2778 L 619 2779 L 619 2801 L 620 2802 L 620 2811 L 619 2812 L 544 2812 L 543 2811 L 543 2797 L 542 2796 L 542 2772 z" />
<path d="M 21 2769 L 530 2769 L 532 2771 L 532 2797 L 533 2798 L 533 2811 L 532 2812 L 19 2812 L 18 2811 L 18 2798 L 19 2797 L 19 2771 z" />
<path d="M 542 2707 L 614 2707 L 616 2709 L 616 2730 L 617 2731 L 617 2754 L 618 2755 L 618 2759 L 617 2760 L 543 2760 L 541 2758 L 541 2722 L 540 2721 L 540 2709 z" />
<path d="M 23 2706 L 528 2706 L 530 2708 L 530 2722 L 531 2723 L 531 2759 L 530 2760 L 529 2759 L 22 2759 L 21 2760 L 20 2759 L 20 2722 L 21 2721 L 21 2708 z" />
<path d="M 541 2654 L 611 2654 L 613 2656 L 613 2659 L 614 2660 L 614 2683 L 615 2684 L 615 2696 L 614 2697 L 541 2697 L 540 2696 L 540 2684 L 539 2683 L 539 2656 z" />
<path d="M 24 2654 L 527 2654 L 529 2656 L 529 2684 L 530 2685 L 530 2695 L 529 2696 L 22 2696 L 21 2695 L 21 2685 L 22 2684 L 22 2656 z" />
<path d="M 539 2591 L 609 2591 L 611 2593 L 611 2612 L 612 2613 L 612 2636 L 613 2637 L 613 2643 L 612 2644 L 539 2644 L 538 2643 L 538 2608 L 537 2607 L 537 2593 z" />
<path d="M 26 2591 L 525 2591 L 527 2593 L 527 2608 L 528 2609 L 528 2644 L 527 2645 L 526 2644 L 25 2644 L 24 2645 L 23 2644 L 23 2609 L 24 2608 L 24 2593 z" />
<path d="M 538 2538 L 606 2538 L 608 2540 L 608 2541 L 609 2542 L 609 2565 L 610 2566 L 610 2580 L 609 2581 L 538 2581 L 537 2580 L 537 2571 L 536 2570 L 536 2540 z" />
<path d="M 27 2538 L 524 2538 L 526 2540 L 526 2571 L 527 2572 L 527 2580 L 526 2581 L 25 2581 L 24 2580 L 24 2572 L 25 2571 L 25 2540 z" />
<path d="M 536 2475 L 604 2475 L 606 2477 L 606 2493 L 607 2494 L 607 2517 L 608 2518 L 608 2527 L 607 2528 L 536 2528 L 535 2527 L 535 2495 L 534 2494 L 534 2477 z" />
<path d="M 29 2475 L 522 2475 L 524 2477 L 524 2495 L 525 2496 L 525 2528 L 524 2529 L 523 2528 L 28 2528 L 27 2529 L 26 2528 L 26 2496 L 27 2495 L 27 2477 z" />
<path d="M 533 2423 L 534 2422 L 601 2422 L 602 2423 L 603 2423 L 604 2424 L 604 2446 L 605 2447 L 605 2464 L 604 2465 L 535 2465 L 534 2464 L 534 2458 L 533 2457 z" />
<path d="M 30 2422 L 521 2422 L 523 2424 L 523 2458 L 524 2459 L 524 2464 L 523 2465 L 28 2465 L 27 2464 L 27 2458 L 28 2457 L 28 2424 z" />
<path d="M 533 2359 L 599 2359 L 601 2361 L 601 2375 L 602 2376 L 602 2399 L 603 2400 L 603 2411 L 602 2412 L 533 2412 L 532 2411 L 532 2382 L 531 2381 L 531 2361 z" />
<path d="M 32 2359 L 519 2359 L 521 2361 L 521 2382 L 522 2383 L 522 2411 L 521 2412 L 30 2412 L 29 2411 L 29 2383 L 30 2382 L 30 2361 z" />
<path d="M 530 2307 L 531 2306 L 597 2306 L 599 2308 L 599 2328 L 600 2329 L 600 2349 L 599 2350 L 598 2349 L 532 2349 L 531 2348 L 531 2344 L 530 2343 z" />
<path d="M 33 2307 L 34 2306 L 517 2306 L 518 2307 L 519 2307 L 520 2308 L 520 2344 L 521 2345 L 521 2348 L 520 2349 L 31 2349 L 30 2348 L 30 2345 L 31 2344 L 31 2308 L 32 2307 z" />
<path d="M 530 2243 L 594 2243 L 596 2245 L 596 2256 L 597 2257 L 597 2280 L 598 2281 L 598 2295 L 597 2296 L 530 2296 L 529 2295 L 529 2269 L 528 2268 L 528 2245 z" />
<path d="M 35 2243 L 516 2243 L 518 2245 L 518 2269 L 519 2270 L 519 2295 L 518 2296 L 33 2296 L 32 2295 L 32 2270 L 33 2269 L 33 2245 z" />
<path d="M 528 2190 L 592 2190 L 594 2192 L 594 2209 L 595 2210 L 595 2233 L 594 2234 L 593 2233 L 529 2233 L 528 2232 L 528 2231 L 527 2230 L 527 2193 L 526 2192 z" />
<path d="M 37 2190 L 514 2190 L 516 2192 L 516 2193 L 517 2194 L 517 2231 L 518 2232 L 517 2233 L 34 2233 L 33 2232 L 34 2231 L 34 2194 L 35 2193 L 35 2192 z" />
<path d="M 524 2016 L 584 2016 L 586 2018 L 586 2176 L 585 2177 L 527 2177 L 526 2176 L 526 2156 L 525 2155 L 525 2118 L 524 2117 L 524 2080 L 523 2079 L 523 2042 L 522 2041 L 522 2018 z" />
<path d="M 41 2016 L 510 2016 L 512 2018 L 512 2043 L 513 2044 L 513 2080 L 514 2081 L 514 2118 L 515 2119 L 515 2156 L 516 2157 L 516 2176 L 515 2177 L 36 2177 L 35 2176 L 35 2157 L 36 2156 L 36 2119 L 37 2118 L 37 2081 L 38 2080 L 38 2043 L 39 2042 L 39 2018 z" />
<path d="M 522 1959 L 582 1959 L 584 1961 L 584 1972 L 585 1973 L 585 1996 L 586 1997 L 586 2000 L 585 2001 L 522 2001 L 521 2000 L 521 1967 L 520 1966 L 520 1961 z" />
<path d="M 43 1958 L 508 1958 L 510 1960 L 510 1967 L 511 1968 L 511 2001 L 510 2002 L 509 2001 L 42 2001 L 41 2002 L 40 2001 L 40 1968 L 41 1967 L 41 1960 z" />
<path d="M 521 1896 L 579 1896 L 581 1898 L 581 1901 L 582 1902 L 582 1925 L 583 1926 L 583 1949 L 582 1950 L 581 1949 L 521 1949 L 520 1948 L 520 1929 L 519 1928 L 519 1898 z" />
<path d="M 44 1895 L 507 1895 L 509 1897 L 509 1929 L 510 1930 L 510 1947 L 509 1948 L 42 1948 L 41 1947 L 41 1930 L 42 1929 L 42 1897 z" />
<path d="M 519 1843 L 577 1843 L 579 1845 L 579 1854 L 580 1855 L 580 1877 L 581 1878 L 581 1885 L 580 1886 L 519 1886 L 518 1885 L 518 1854 L 517 1853 L 517 1845 z" />
<path d="M 46 1843 L 505 1843 L 507 1845 L 507 1854 L 508 1855 L 508 1884 L 507 1885 L 44 1885 L 43 1884 L 43 1855 L 44 1854 L 44 1845 z" />
<path d="M 516 1781 L 517 1780 L 574 1780 L 577 1783 L 577 1806 L 578 1807 L 578 1830 L 579 1831 L 579 1832 L 578 1833 L 518 1833 L 517 1832 L 517 1816 L 516 1815 z" />
<path d="M 47 1780 L 504 1780 L 506 1782 L 506 1816 L 507 1817 L 507 1832 L 506 1833 L 45 1833 L 44 1832 L 44 1817 L 45 1816 L 45 1782 z" />
<path d="M 516 1727 L 572 1727 L 574 1729 L 574 1735 L 575 1736 L 575 1759 L 576 1760 L 576 1769 L 575 1770 L 516 1770 L 515 1769 L 515 1741 L 514 1740 L 514 1729 z" />
<path d="M 49 1727 L 502 1727 L 504 1729 L 504 1741 L 505 1742 L 505 1769 L 504 1770 L 47 1770 L 46 1769 L 46 1742 L 47 1741 L 47 1729 z" />
<path d="M 513 1665 L 514 1664 L 570 1664 L 572 1666 L 572 1688 L 573 1689 L 573 1711 L 574 1712 L 574 1716 L 573 1717 L 515 1717 L 514 1716 L 514 1703 L 513 1702 z" />
<path d="M 50 1665 L 51 1664 L 500 1664 L 501 1665 L 502 1665 L 503 1666 L 503 1703 L 504 1704 L 504 1716 L 503 1717 L 48 1717 L 47 1716 L 47 1704 L 48 1703 L 48 1666 L 49 1665 z" />
<path d="M 513 1611 L 567 1611 L 569 1613 L 569 1617 L 570 1618 L 570 1640 L 571 1641 L 571 1653 L 570 1654 L 513 1654 L 512 1653 L 512 1627 L 511 1626 L 511 1613 z" />
<path d="M 52 1611 L 499 1611 L 501 1613 L 501 1628 L 502 1629 L 502 1653 L 501 1654 L 50 1654 L 49 1653 L 49 1628 L 50 1627 L 50 1613 z" />
<path d="M 511 1548 L 565 1548 L 567 1550 L 567 1569 L 568 1570 L 568 1593 L 569 1594 L 569 1600 L 568 1601 L 512 1601 L 511 1600 L 511 1590 L 510 1589 L 510 1552 L 509 1551 L 509 1550 z" />
<path d="M 54 1548 L 497 1548 L 499 1550 L 499 1552 L 500 1553 L 500 1590 L 501 1591 L 501 1600 L 500 1601 L 51 1601 L 50 1600 L 50 1591 L 51 1590 L 51 1553 L 52 1552 L 52 1550 z" />
<path d="M 510 1495 L 562 1495 L 564 1497 L 564 1498 L 565 1499 L 565 1522 L 566 1523 L 566 1537 L 565 1538 L 510 1538 L 509 1537 L 509 1514 L 508 1513 L 508 1497 z" />
<path d="M 55 1495 L 496 1495 L 498 1497 L 498 1514 L 499 1515 L 499 1537 L 498 1538 L 53 1538 L 52 1537 L 52 1515 L 53 1514 L 53 1497 z" />
<path d="M 508 1432 L 560 1432 L 562 1434 L 562 1451 L 563 1452 L 563 1474 L 564 1475 L 564 1484 L 563 1485 L 509 1485 L 508 1484 L 508 1476 L 507 1475 L 507 1439 L 506 1438 L 506 1434 z" />
<path d="M 57 1432 L 494 1432 L 496 1434 L 496 1439 L 497 1440 L 497 1477 L 498 1478 L 498 1484 L 497 1485 L 54 1485 L 53 1484 L 53 1477 L 54 1476 L 54 1440 L 55 1439 L 55 1434 z" />
<path d="M 507 1379 L 557 1379 L 558 1380 L 559 1380 L 560 1381 L 560 1403 L 561 1404 L 561 1421 L 560 1422 L 507 1422 L 506 1421 L 506 1401 L 505 1400 L 505 1381 z" />
<path d="M 58 1379 L 493 1379 L 495 1381 L 495 1401 L 496 1402 L 496 1421 L 495 1422 L 56 1422 L 55 1421 L 55 1402 L 56 1401 L 56 1381 z" />
<path d="M 505 1316 L 555 1316 L 557 1318 L 557 1332 L 558 1333 L 558 1356 L 559 1357 L 559 1368 L 558 1369 L 506 1369 L 505 1368 L 505 1363 L 504 1362 L 504 1326 L 503 1325 L 503 1318 z" />
<path d="M 60 1316 L 491 1316 L 493 1318 L 493 1326 L 494 1327 L 494 1363 L 495 1364 L 495 1368 L 494 1369 L 57 1369 L 56 1368 L 56 1364 L 57 1363 L 57 1327 L 58 1326 L 58 1318 z" />
<path d="M 504 1264 L 553 1264 L 555 1266 L 555 1285 L 556 1286 L 556 1306 L 555 1307 L 554 1306 L 504 1306 L 503 1305 L 503 1288 L 502 1287 L 502 1266 z" />
<path d="M 61 1263 L 490 1263 L 492 1265 L 492 1288 L 493 1289 L 493 1305 L 492 1306 L 59 1306 L 58 1305 L 58 1289 L 59 1288 L 59 1265 z" />
<path d="M 502 1201 L 550 1201 L 552 1203 L 552 1214 L 553 1215 L 553 1237 L 554 1238 L 554 1253 L 553 1254 L 503 1254 L 502 1253 L 502 1250 L 501 1249 L 501 1212 L 500 1211 L 500 1203 z" />
<path d="M 63 1200 L 488 1200 L 490 1202 L 490 1213 L 491 1214 L 491 1250 L 492 1251 L 492 1252 L 491 1253 L 60 1253 L 59 1252 L 59 1251 L 60 1250 L 60 1213 L 61 1212 L 61 1202 z" />
<path d="M 501 1148 L 548 1148 L 550 1150 L 550 1166 L 551 1167 L 551 1191 L 550 1192 L 549 1191 L 501 1191 L 500 1190 L 500 1175 L 499 1174 L 499 1150 z" />
<path d="M 64 1148 L 487 1148 L 489 1150 L 489 1175 L 490 1176 L 490 1189 L 489 1190 L 62 1190 L 61 1189 L 61 1176 L 62 1175 L 62 1150 z" />
<path d="M 500 1114 L 546 1114 L 548 1116 L 548 1119 L 549 1120 L 549 1137 L 548 1138 L 500 1138 L 498 1136 L 498 1116 z" />
<path d="M 65 1113 L 486 1113 L 488 1115 L 488 1138 L 487 1139 L 486 1138 L 65 1138 L 64 1139 L 63 1138 L 63 1115 z" />
<path d="M 495 943 L 539 943 L 541 945 L 541 953 L 542 954 L 542 977 L 543 978 L 543 1000 L 544 1001 L 544 1024 L 545 1025 L 545 1048 L 546 1049 L 546 1072 L 547 1073 L 547 1095 L 548 1096 L 548 1103 L 547 1104 L 499 1104 L 498 1103 L 498 1099 L 497 1098 L 497 1061 L 496 1060 L 496 1024 L 495 1023 L 495 986 L 494 985 L 494 948 L 493 947 L 493 945 z" />
<path d="M 70 942 L 481 942 L 483 944 L 483 948 L 484 949 L 484 986 L 485 987 L 485 1024 L 486 1025 L 486 1062 L 487 1063 L 487 1099 L 488 1100 L 488 1102 L 487 1103 L 64 1103 L 63 1102 L 63 1100 L 64 1099 L 64 1062 L 65 1061 L 65 1025 L 66 1024 L 66 987 L 67 986 L 67 949 L 68 948 L 68 944 z" />
<path d="M 495 916 L 538 916 L 540 918 L 540 929 L 541 930 L 541 932 L 540 933 L 494 933 L 493 932 L 493 918 z" />
<path d="M 70 916 L 481 916 L 483 918 L 483 931 L 482 932 L 69 932 L 68 931 L 68 918 z" />
<path d="M 493 853 L 535 853 L 537 855 L 537 858 L 538 859 L 538 882 L 539 883 L 539 906 L 538 907 L 537 906 L 493 906 L 492 905 L 492 873 L 491 872 L 491 855 z" />
<path d="M 72 853 L 479 853 L 481 855 L 481 873 L 482 874 L 482 906 L 481 907 L 480 906 L 71 906 L 70 907 L 69 906 L 69 874 L 70 873 L 70 855 z" />
<path d="M 490 801 L 491 800 L 533 800 L 535 802 L 535 811 L 536 812 L 536 835 L 537 836 L 537 842 L 536 843 L 492 843 L 491 842 L 491 835 L 490 834 z" />
<path d="M 73 800 L 478 800 L 480 802 L 480 835 L 481 836 L 481 842 L 480 843 L 71 843 L 70 842 L 70 836 L 71 835 L 71 802 z" />
<path d="M 490 737 L 530 737 L 532 739 L 532 740 L 533 741 L 533 763 L 534 764 L 534 787 L 535 788 L 535 789 L 534 790 L 490 790 L 489 789 L 489 759 L 488 758 L 488 739 z" />
<path d="M 75 737 L 476 737 L 478 739 L 478 760 L 479 761 L 479 789 L 478 790 L 73 790 L 72 789 L 72 761 L 73 760 L 73 739 z" />
<path d="M 487 685 L 488 684 L 528 684 L 530 686 L 530 692 L 531 693 L 531 716 L 532 717 L 532 726 L 531 727 L 489 727 L 488 726 L 488 722 L 487 721 z" />
<path d="M 76 684 L 475 684 L 477 686 L 477 722 L 478 723 L 478 726 L 477 727 L 74 727 L 73 726 L 73 723 L 74 722 L 74 686 z" />
<path d="M 487 621 L 526 621 L 528 623 L 528 645 L 529 646 L 529 669 L 530 670 L 530 673 L 529 674 L 487 674 L 486 673 L 486 646 L 485 645 L 485 623 z" />
<path d="M 78 621 L 473 621 L 475 623 L 475 647 L 476 648 L 476 673 L 475 674 L 76 674 L 75 673 L 75 647 L 76 646 L 76 623 z" />
<path d="M 485 568 L 523 568 L 525 570 L 525 574 L 526 575 L 526 598 L 527 599 L 527 610 L 526 611 L 486 611 L 485 610 L 485 608 L 484 607 L 484 571 L 483 570 z" />
<path d="M 80 568 L 471 568 L 473 570 L 473 571 L 474 572 L 474 609 L 475 610 L 474 611 L 77 611 L 76 610 L 77 609 L 77 572 L 78 571 L 78 570 z" />
<path d="M 484 505 L 521 505 L 523 507 L 523 527 L 524 528 L 524 550 L 525 551 L 525 557 L 524 558 L 484 558 L 483 557 L 483 533 L 482 532 L 482 507 z" />
<path d="M 81 505 L 470 505 L 472 507 L 472 533 L 473 534 L 473 557 L 472 558 L 79 558 L 78 557 L 78 534 L 79 533 L 79 507 z" />
<path d="M 482 453 L 518 453 L 521 456 L 521 479 L 522 480 L 522 494 L 521 495 L 482 495 L 481 494 L 481 458 L 480 457 L 480 455 z" />
<path d="M 83 452 L 468 452 L 470 454 L 470 458 L 471 459 L 471 495 L 470 496 L 469 495 L 82 495 L 81 496 L 80 495 L 80 459 L 81 458 L 81 454 z" />
<path d="M 481 391 L 516 391 L 518 393 L 518 408 L 519 409 L 519 432 L 520 433 L 520 442 L 519 443 L 481 443 L 480 442 L 480 420 L 479 419 L 479 393 z" />
<path d="M 84 389 L 467 389 L 469 391 L 469 420 L 470 421 L 470 441 L 469 442 L 82 442 L 81 441 L 81 421 L 82 420 L 82 391 z" />
<path d="M 471 10 L 500 10 L 502 12 L 502 29 L 503 30 L 503 53 L 504 54 L 504 76 L 505 77 L 505 100 L 506 101 L 506 124 L 507 125 L 507 147 L 508 148 L 508 171 L 509 172 L 509 195 L 510 196 L 510 218 L 511 219 L 511 242 L 512 243 L 512 266 L 513 267 L 513 290 L 514 291 L 514 313 L 515 314 L 515 337 L 516 338 L 516 361 L 517 362 L 517 381 L 516 382 L 515 381 L 479 381 L 478 380 L 478 344 L 477 343 L 477 307 L 476 306 L 476 269 L 475 268 L 475 231 L 474 230 L 474 193 L 473 192 L 473 156 L 472 155 L 472 118 L 471 117 L 471 80 L 470 79 L 470 43 L 469 42 L 469 12 z" />
<path d="M 444 10 L 457 10 L 459 12 L 459 43 L 460 44 L 460 81 L 461 82 L 461 118 L 462 119 L 462 156 L 463 157 L 463 194 L 464 195 L 464 232 L 465 233 L 465 269 L 466 270 L 466 307 L 467 308 L 467 345 L 468 346 L 468 379 L 467 380 L 466 379 L 443 379 L 442 378 L 442 12 z" />
<path d="M 417 10 L 431 10 L 432 11 L 432 378 L 431 379 L 416 379 L 415 378 L 415 12 z" />
<path d="M 390 10 L 404 10 L 405 11 L 405 378 L 404 379 L 389 379 L 388 378 L 388 12 z" />
<path d="M 364 10 L 377 10 L 378 11 L 378 378 L 377 379 L 363 379 L 362 378 L 362 12 z" />
<path d="M 337 10 L 351 10 L 352 11 L 352 378 L 351 379 L 336 379 L 335 378 L 335 12 z" />
<path d="M 310 10 L 324 10 L 325 11 L 325 378 L 324 379 L 309 379 L 308 378 L 308 12 z" />
<path d="M 284 10 L 297 10 L 298 11 L 298 378 L 297 379 L 283 379 L 282 378 L 282 12 z" />
<path d="M 257 10 L 271 10 L 272 11 L 272 378 L 271 379 L 256 379 L 255 378 L 255 12 z" />
<path d="M 230 10 L 244 10 L 245 11 L 245 378 L 244 379 L 229 379 L 228 378 L 228 12 z" />
<path d="M 204 10 L 217 10 L 218 11 L 218 378 L 217 379 L 203 379 L 202 378 L 202 12 z" />
<path d="M 177 10 L 191 10 L 192 11 L 192 378 L 191 379 L 176 379 L 175 378 L 175 12 z" />
<path d="M 150 10 L 164 10 L 165 11 L 165 378 L 164 379 L 149 379 L 148 378 L 148 12 z" />
<path d="M 124 10 L 137 10 L 138 11 L 138 378 L 137 379 L 123 379 L 122 378 L 122 12 z" />
<path d="M 94 10 L 111 10 L 112 11 L 112 378 L 111 379 L 85 379 L 84 380 L 83 379 L 83 346 L 84 345 L 84 308 L 85 307 L 85 270 L 86 269 L 86 232 L 87 231 L 87 195 L 88 194 L 88 157 L 89 156 L 89 119 L 90 118 L 90 81 L 91 80 L 91 44 L 92 43 L 92 12 z" />
</g>
</g>
</g>
</svg>